<?xml version="1.0" encoding="utf-8"?>
<!-- Generator: Adobe Illustrator 17.0.0, SVG Export Plug-In . SVG Version: 6.00 Build 0)  -->
<!DOCTYPE svg PUBLIC "-//W3C//DTD SVG 1.1//EN" "http://www.w3.org/Graphics/SVG/1.1/DTD/svg11.dtd">
<svg version="1.1" id="Layer_1" xmlns="http://www.w3.org/2000/svg" xmlns:xlink="http://www.w3.org/1999/xlink" x="0px" y="0px"
	 width="864px" height="136.995px" viewBox="0 0 864 136.995" enable-background="new 0 0 864 136.995" xml:space="preserve">
<g>
	<path d="M29.862,1.003L0,136.995l28.248-5.246l4.035-13.72l25.826-3.632l3.632,13.72l31.072-4.035L61.741,1.003H29.862z
		 M37.126,92.606l7.264-49.232l9.281,47.214L37.126,92.606z"/>
	<polygon points="160.608,58.305 139.624,1.406 106.938,1.003 106.938,122.468 134.782,119.643 134.782,65.165 149.309,103.098 
		169.082,102.694 184.417,61.937 184.417,116.011 213.068,113.993 213.875,0.599 181.189,0.599 	"/>
	<path d="M259.475,1.406l-31.072,110.973l30.064-1.211l2.219-12.51l26.432,0.202l2.623,11.501h32.485L290.749,1.204L259.475,1.406z
		 M265.326,78.078l8.878-41.766l8.878,41.564L265.326,78.078z"/>
	<path d="M371.658,88.268l42.977-65.978V0.649l-76.269-0.151V23.5h40.858l-43.582,67.492v19.37c0,0,75.361,0.303,79.598,1.513
		l-0.303-22.396L371.658,88.268z"/>
	<path d="M432.593,112.783c0,0,28.651,0.605,31.274,1.614V1.608L432.593,1.81V112.783z"/>
	<polygon points="542.355,58.507 511.081,1.608 482.833,1.608 482.833,116.011 511.484,117.625 511.484,58.305 543.566,120.45 
		569.997,123.073 569.997,1.204 542.355,1.204 	"/>
	<path d="M629.923,76.868h10.088v31.678c0,0-10.492,1.211-15.94-1.211c0,0-7.264-4.035-7.667-15.133V37.119
		c0,0,0-12.51,10.694-11.097c0,0,28.248,1.009,30.467,2.421l3.834-26.634c0,0-37.933-3.632-49.837-0.605
		c0,0-21.589,0.605-25.826,31.274c0,0-7.465,76.47,11.501,89.585c0,0,23.607,17.554,68.4,12.51V54.673h-36.117L629.923,76.868z"/>
	<rect x="681.576" y="76.464" width="18.361" height="17.554"/>
	<path d="M735.443,68.393c-0.073-0.09-0.138-0.186-0.2-0.284v0.284H735.443z"/>
	<path d="M742.56,51.344c0,0-5.599-1.513-20.278-0.303c0,0-10.442,0.454-10.896,13.014v18.916c0,0-0.757,9.836,10.896,10.593
		l19.521-0.303l-1.211-11.198c0,0-8.323,1.816-11.501,0.908c0,0-3.178-0.757-3.329-4.842l-0.151-10.593c0,0,0.303-5.902,4.842-5.296
		l9.836,0.605L742.56,51.344z"/>
	<path d="M776.407,50.234h-12.106c-8.023,0-14.527,6.504-14.527,14.527v14.729c0,8.023,6.504,14.527,14.527,14.527h12.106
		c8.023,0,14.527-6.504,14.527-14.527V64.762C790.934,56.738,784.43,50.234,776.407,50.234z M776.003,78.986
		c0,2.953-2.394,5.347-5.347,5.347c-2.953,0-5.347-2.394-5.347-5.347V66.275c0-2.953,2.394-5.347,5.347-5.347
		c2.953,0,5.347,2.394,5.347,5.347V78.986z"/>
	<path d="M842.209,54.068c-1.74,2.421-3.329,1.362-3.329,1.362c0.908-3.027-4.842-4.615-4.842-4.615
		c-8.247-1.967-16.041,3.934-16.041,3.934c-1.74,1.059-2.421,0.681-2.421,0.681c-1.589-0.454-1.211-3.556-1.211-3.556h-12.938
		v41.136l-0.151,0.479h14.754V64.207c7.869-2.951,9.382,0.454,9.382,0.454V93.64h14.452V64.434c6.507-3.329,9.609,0.227,9.609,0.227
		v28.752H864V54.824C857.947,45.291,842.209,54.068,842.209,54.068z"/>
</g>
</svg>
