<?xml version="1.0" encoding="utf-8"?>
<!-- Generator: Adobe Illustrator 17.0.0, SVG Export Plug-In . SVG Version: 6.00 Build 0)  -->
<!DOCTYPE svg PUBLIC "-//W3C//DTD SVG 1.1//EN" "http://www.w3.org/Graphics/SVG/1.1/DTD/svg11.dtd">
<svg version="1.1" id="Layer_1" xmlns="http://www.w3.org/2000/svg" xmlns:xlink="http://www.w3.org/1999/xlink" x="0px" y="0px"
	 width="864px" height="298.843px" viewBox="0 0 864 298.843" enable-background="new 0 0 864 298.843" xml:space="preserve">
<g>
	<path d="M0.006,0c67.98,0.01,135.965,0,203.945,0.005c0,22.976,0,45.958,0,68.934c-12.698,0-25.397,0-38.095,0
		c0,53.385,0,106.77,0,160.154c12.698,0,25.397-0.005,38.095,0c0,21.338,0,42.672,0,64.01c-67.985,0-135.965,0-203.95,0
		c0.005-21.338-0.005-42.677,0.005-64.015c12.698,0.01,25.391,0,38.09,0.005c0-53.385,0-106.77,0-160.154
		c-12.698,0.005-25.391-0.005-38.09,0.005C-0.004,45.963,0.001,22.981,0.006,0z"/>
	<path d="M214.317,68.939c41.982,0,83.964,0,125.947,0c-0.005,14.637,0.016,29.268-0.01,43.905c2.809-2.509,5.074-5.525,7.583-8.324
		c1.954-1.684,3.286-3.975,5.406-5.489c6.116-5.945,12.973-11.185,20.452-15.311c11.211-6.396,23.847-9.946,36.587-11.62
		c0.477-0.041,0.959-0.073,1.446-0.109c1.063-0.166,2.151-0.213,3.219-0.404c2.586-0.259,5.209-0.176,7.78-0.534
		c6.391-0.036,12.818-0.259,19.172,0.42c1.907,0.041,3.81,0.202,5.701,0.513c10.242,1.031,20.369,3.442,29.89,7.386
		c11.968,4.996,22.733,13.253,29.74,24.262c6.448,10.2,9.739,22.199,10.35,34.192c0.321,1.285,0.181,2.628,0.207,3.939
		c-0.01,29.108-0.005,58.22-0.005,87.328c8.376,0.016,16.751-0.036,25.127,0.026c-4.447-10.392-7.096-21.494-8.225-32.725
		c-0.249-4.571-0.632-9.132-0.581-13.714c0.295-3.343,0.29-6.696,0.581-10.039c0.461-3.628,0.881-7.267,1.555-10.869
		c3.074-16.026,9.863-31.414,20.224-44.071c14.404-17.907,34.799-30.175,56.355-37.551c11.128-3.851,22.676-6.406,34.322-8.039
		c1.384-0.13,2.768-0.27,4.146-0.513c3.96-0.466,7.966-0.669,11.926-1.057c15.02-0.586,30.201-0.72,45.025,2.224
		c0.27,0.031,0.809,0.093,1.083,0.119c20.571,3.924,40.863,11.905,56.717,25.884c6.997,6.251,13.191,13.471,17.861,21.629
		c7.013,11.822,11.003,25.226,12.947,38.774c0.016,0.482,0.041,0.969,0.083,1.456c0.135,0.98,0.306,1.959,0.518,2.934
		c-2.395,0.456-4.841,0.529-7.251,0.819c-1.555,0.249-3.12,0.363-4.675,0.513c-1.544,0.259-3.11,0.368-4.659,0.518
		c-1.55,0.254-3.11,0.368-4.665,0.523c-4.162,0.565-8.36,0.871-12.527,1.415c-1.56,0.145-3.125,0.259-4.66,0.518
		c-1.565,0.15-3.13,0.254-4.665,0.518c-1.565,0.15-3.13,0.254-4.67,0.518c-1.56,0.145-3.12,0.254-4.654,0.523
		c-2.234,0.098-4.442,0.487-6.66,0.653c-1.55,0.249-3.115,0.368-4.665,0.513c-1.55,0.259-3.115,0.368-4.665,0.523
		c-1.55,0.249-3.11,0.368-4.659,0.513c-2.607,0.42-5.261,0.477-7.863,0.902c-1.721,0.218-3.509,0.145-5.147,0.746
		c-0.114-0.306-0.347-0.923-0.461-1.234c-0.43-10.459-1.633-21.193-6.038-30.813c-2.327-4.934-5.8-9.417-10.413-12.408
		c-5.307-3.566-11.786-4.763-18.073-4.96c-9.319,0.083-19.281,2.063-26.319,8.604c-8.474,7.671-11.408,19.395-12.74,30.331
		c-0.218,1.721-0.228,3.473-0.539,5.183c-0.477,7.66-0.264,15.342-0.306,23.018c0.104,2.172-0.249,4.385,0.218,6.525
		c-0.026,2.918,0.368,5.815,0.632,8.718c1.301,10.807,4.167,22.354,12.424,30.035c5.214,5.09,12.444,7.681,19.586,8.438
		c11.102,1.503,23.225-0.648,32.01-7.951c7.655-6.349,11.371-16.539,11.055-26.33c28.698,0,57.396-0.01,86.095,0.005
		c-0.254,2.223-0.539,4.452-0.622,6.691c-0.114,0.539-0.207,1.078-0.285,1.622c-2.338,11.465-6.359,22.67-12.475,32.674
		c-5.551,9.164-12.926,17.176-21.421,23.691c-18.441,13.937-41.495,20.172-64.196,22.468c-2.068,0.275-4.141,0.42-6.22,0.498
		c-1.56,0.425-3.208-0.036-4.753,0.42c-6.816,0.047-13.642,0.705-20.447,0.052c-5.613,0.01-11.206-0.57-16.788-1.109
		c-0.897-0.161-1.809-0.264-2.69-0.409c-0.492-0.036-0.974-0.067-1.451-0.093c-1.928-0.394-3.903-0.492-5.815-0.954
		c-0.223-0.021-0.679-0.057-0.902-0.078c-0.555-0.114-1.104-0.218-1.648-0.306c-21.629-3.939-42.874-11.563-60.916-24.313
		c-14.59-10.247-26.651-24.168-34.156-40.386c-0.026,20.732-0.005,41.464-0.01,62.196c-52.001,0-104.007,0-156.008,0
		c0.005-21.338-0.01-42.677,0.01-64.02c9.842,0.021,19.685,0.005,29.533,0.01c-0.005-23.251,0.016-46.502-0.01-69.753
		c-0.508-6.354-2.799-12.859-7.546-17.29c-6.023-6.147-14.87-8.371-23.215-8.749c-8.117-0.306-16.399,1.576-23.432,5.712
		c-11.159,6.391-18.462,18.685-19.198,31.466c-0.145,0.612-0.213,1.234-0.207,1.861c0.021,18.918,0.005,37.836,0.01,56.754
		c10.107,0,20.214,0,30.32,0c0.005,21.333-0.005,42.672,0.005,64.005c-53.219,0.005-106.433,0.01-159.646,0
		c0.01-21.333,0-42.672,0.005-64.005c9.589-0.005,19.177,0,28.766,0c0-32.052,0-64.098,0-96.144
		c-9.589-0.005-19.182,0.005-28.771-0.005C214.322,111.61,214.312,90.272,214.317,68.939z"/>
	<path d="M808.816,226.46c10.013-6.038,22.924-6.764,33.586-1.975c10.884,4.732,19.053,15.155,21.001,26.869
		c0.073,0.539,0.166,1.078,0.28,1.622c0.477,3.245,0.363,6.515,0.005,9.765c-0.114,0.539-0.207,1.078-0.28,1.627
		c-1.741,9.77-7.66,18.742-16.067,24.044c-7.443,4.976-16.746,6.624-25.537,5.411c-9.936-1.591-19.167-7.386-24.65-15.855
		c-6.012-8.796-7.521-20.307-4.608-30.481C795.092,238.765,801.016,231.12,808.816,226.46z"/>
</g>
</svg>
