<svg xmlns="http://www.w3.org/2000/svg" fill="none" viewBox="0 0 382 352"><defs/><g filter="url(#filter0_d)"><mask id="a" width="368" height="338" x="7" y="2" fill="#000" maskUnits="userSpaceOnUse"><path fill="#fff" d="M7 2h368v338H7z"/><path fill-rule="evenodd" d="M186.564 21.993h-15.951C161.592 12.201 148.742 6 134.715 6h-17.423c-14.027 0-26.362 6.201-34.57 15.993H68.84a42.8 42.8 0 00-21.908 5.991H42.71c-18.254 0-32.439 14.786-31.681 33.025.459 11.049 6.296 20.83 14.885 26.826C27.225 110.403 45.943 128.3 68.84 128.3h34.789c7.71 5.093 16.87 8.075 26.597 8.075h17.423c4.613 0 9.044-.671 13.205-1.919 4.977 5.69 12.269 9.312 20.258 9.312h3.455a43.007 43.007 0 00-.176 3.481c-9.874.709-18.286 6.003-23.21 13.77a43.265 43.265 0 00-2.202-.112c-9.064-10.69-22.521-17.555-37.28-17.555h-17.422c-15.112 0-28.26 7.196-36.4 18.326-19.814 3.837-34.777 21.279-34.777 42.215v10.934c0 23.748 19.252 43 43 43h81.769c3.155 0 6.231-.34 9.193-.985 4.414 6.228 11.678 10.331 19.731 10.331h.011v7.614c0 18.256 11.378 33.855 27.429 40.094-.124.981-.168 1.99-.126 3.018.415 9.996 8.862 18.1 18.867 18.1h6.513c10.005 0 17.779-8.104 17.364-18.1a4.194 4.194 0 01-.005-.112h64.773a42.878 42.878 0 0016.498-3.279 18.22 18.22 0 009.521 2.7h6.368c9.783 0 17.385-7.924 16.979-17.698-.241-5.79-3.237-10.931-7.673-14.16a43.11 43.11 0 001.307-10.563v-10.934c0-2.906-.288-5.745-.838-8.489a41.37 41.37 0 00-.036-1.859c-.955-23-20.392-41.646-43.412-41.646h-32.575c-9.776 0-18.627 3.363-25.501 8.994h-32.453a42.805 42.805 0 00-24.6 7.727 24.771 24.771 0 00-5.371-4.33 43.144 43.144 0 001.036-9.423v-4.892c8.183-.214 15.456-3.561 20.71-8.886 1.9.256 3.839.389 5.809.389h100.053c23.748 0 43-19.252 43-43v-10.725c0-23.748-19.252-43-43-43h-30.587c-8.739-13.997-24.266-23.452-41.587-23.452h-17.422c-2.836 0-5.603.253-8.281.739V64.993c0-23.748-19.251-43-43-43z" clip-rule="evenodd"/></mask><path fill="#fff" fill-rule="evenodd" d="M186.564 21.993h-15.951C161.592 12.201 148.742 6 134.715 6h-17.423c-14.027 0-26.362 6.201-34.57 15.993H68.84a42.8 42.8 0 00-21.908 5.991H42.71c-18.254 0-32.439 14.786-31.681 33.025.459 11.049 6.296 20.83 14.885 26.826C27.225 110.403 45.943 128.3 68.84 128.3h34.789c7.71 5.093 16.87 8.075 26.597 8.075h17.423c4.613 0 9.044-.671 13.205-1.919 4.977 5.69 12.269 9.312 20.258 9.312h3.455a43.007 43.007 0 00-.176 3.481c-9.874.709-18.286 6.003-23.21 13.77a43.265 43.265 0 00-2.202-.112c-9.064-10.69-22.521-17.555-37.28-17.555h-17.422c-15.112 0-28.26 7.196-36.4 18.326-19.814 3.837-34.777 21.279-34.777 42.215v10.934c0 23.748 19.252 43 43 43h81.769c3.155 0 6.231-.34 9.193-.985 4.414 6.228 11.678 10.331 19.731 10.331h.011v7.614c0 18.256 11.378 33.855 27.429 40.094-.124.981-.168 1.99-.126 3.018.415 9.996 8.862 18.1 18.867 18.1h6.513c10.005 0 17.779-8.104 17.364-18.1a4.194 4.194 0 01-.005-.112h64.773a42.878 42.878 0 0016.498-3.279 18.22 18.22 0 009.521 2.7h6.368c9.783 0 17.385-7.924 16.979-17.698-.241-5.79-3.237-10.931-7.673-14.16a43.11 43.11 0 001.307-10.563v-10.934c0-2.906-.288-5.745-.838-8.489a41.37 41.37 0 00-.036-1.859c-.955-23-20.392-41.646-43.412-41.646h-32.575c-9.776 0-18.627 3.363-25.501 8.994h-32.453a42.805 42.805 0 00-24.6 7.727 24.771 24.771 0 00-5.371-4.33 43.144 43.144 0 001.036-9.423v-4.892c8.183-.214 15.456-3.561 20.71-8.886 1.9.256 3.839.389 5.809.389h100.053c23.748 0 43-19.252 43-43v-10.725c0-23.748-19.252-43-43-43h-30.587c-8.739-13.997-24.266-23.452-41.587-23.452h-17.422c-2.836 0-5.603.253-8.281.739V64.993c0-23.748-19.251-43-43-43z" clip-rule="evenodd"/><path fill="#ACACAC" fill-opacity=".15" d="M170.613 21.993l-2.331 2.148.942 1.022h1.389v-3.17zm-87.892 0v3.17h1.48l.95-1.133-2.43-2.037zm-35.788 5.991v3.17h.87l.748-.443-1.618-2.727zM11.03 61.01l-3.167.131 3.167-.131zm14.885 26.826l3.164-.184-.089-1.535-1.26-.88-1.815 2.599zm77.715 40.466l1.748-2.645-.795-.525h-.953v3.17zm57.225 6.156l2.386-2.087-1.343-1.536-1.954.586.911 3.037zm23.713 9.312l3.157.287.314-3.457h-3.471v3.17zm-.176 3.481l.227 3.161 2.912-.209.031-2.919-3.17-.033zm-23.21 13.77l-.24 3.161 1.898.144 1.02-1.608-2.678-1.697zm-2.202-.112l-2.417 2.05.918 1.083 1.419.036.08-3.169zm-91.101.771l.602 3.112 1.222-.236.734-1.004-2.558-1.872zm99.184 95.164l2.587-1.833-1.213-1.71-2.048.446.674 3.097zm19.742 10.331h3.17v-3.17h-3.17v3.17zm27.429 47.708l3.145.397.31-2.455-2.307-.897-1.148 2.955zm-.126 3.018l-3.167.132 3.167-.132zm42.744 0l-3.168.132 3.168-.132zm-.005-.112v-3.17h-3.325l.158 3.321 3.167-.151zm81.271-3.279l1.654-2.704-1.378-.844-1.493.621 1.217 2.927zm32.868-14.998l3.167-.132-3.167.132zm-7.673-14.16l-3.074-.776-.524 2.078 1.732 1.261 1.866-2.563zm.469-29.986l-3.17-.008v.319l.062.311 3.108-.622zm-.036-1.859l-3.167.132 3.167-.132zm-101.488-32.652v3.169h1.132l.876-.717-2.008-2.452zm-57.053 7.727l-2.314 2.167 1.878 2.005 2.251-1.573-1.815-2.599zm-5.371-4.33l-3.094-.691-.5 2.238 1.969 1.175 1.625-2.722zm1.036-14.315l-.083-3.169-3.087.08v3.089h3.17zm20.71-8.886l.424-3.142-1.569-.211-1.112 1.127 2.257 2.226zm75.275-96.336l-2.688 1.679.931 1.491h1.757v-3.17zm-67.29-22.713h-3.17v3.796l3.736-.677-.566-3.12zm-58.951-56.838h15.951v-6.34h-15.951v6.34zM134.715 9.17c13.077 0 25.101 5.782 33.567 14.971l4.663-4.296C163.368 9.45 149.692 2.83 134.715 2.83v6.34zm-17.423 0h17.423V2.83h-17.423v6.34zM85.15 24.03c7.623-9.093 19.078-14.86 32.142-14.86V2.83c-14.989 0-28.205 6.635-37 17.127l4.858 4.073zm-16.31 1.133h13.881v-6.34h-13.88v6.34zm-20.29 5.548a39.63 39.63 0 0120.29-5.548v-6.34a45.97 45.97 0 00-23.524 6.435l3.235 5.453zm-5.84.443h4.223v-6.34H42.71v6.34zM14.196 60.877C13.514 44.44 26.258 31.154 42.71 31.154v-6.34c-20.057 0-35.68 16.287-34.848 36.326l6.334-.263zm13.532 24.358c-7.83-5.466-13.117-14.36-13.532-24.358l-6.334.263c.502 12.102 6.89 22.77 16.238 29.294l3.628-5.199zm41.112 39.896c-21.208 0-38.547-16.578-39.762-37.48l-6.329.368c1.409 24.235 21.505 43.452 46.091 43.452v-6.34zm34.789 0H68.84v6.34h34.789v-6.34zm26.597 8.075c-9.071 0-17.628-2.78-24.849-7.55l-3.495 5.289c8.198 5.417 17.961 8.601 28.344 8.601v-6.34zm17.423 0h-17.423v6.34h17.423v-6.34zm12.294-1.786a42.7 42.7 0 01-12.294 1.786v6.34c4.922 0 9.66-.716 14.116-2.053l-1.822-6.073zm21.169 9.179c-7.016 0-13.457-3.182-17.872-8.229l-4.772 4.173c5.539 6.333 13.682 10.395 22.644 10.395v-6.339zm3.455 0h-3.455v6.339h3.455v-6.339zm2.994 6.684a39.97 39.97 0 01.163-3.227l-6.314-.575a46.598 46.598 0 00-.189 3.735l6.34.067zm-23.702 15.434c4.395-6.933 11.906-11.67 20.759-12.306l-.454-6.323c-10.894.782-20.208 6.634-25.66 15.234l5.355 3.395zm-4.96 1.36c.685.017 1.366.052 2.042.104l.481-6.322c-.782-.06-1.57-.1-2.362-.12l-.161 6.338zm-37.2-17.555c13.76 0 26.355 6.403 34.863 16.436l4.835-4.1c-9.621-11.347-23.939-18.675-39.698-18.675v6.339zm-17.422 0h17.422v-6.339h-17.422v6.339zm-33.84 17.029c7.56-10.338 19.768-17.029 33.84-17.029v-6.339c-16.151 0-30.238 7.702-38.958 19.625l5.117 3.743zM36.27 203.894c0-19.389 13.857-35.549 32.21-39.103l-1.205-6.224c-21.278 4.12-37.345 22.844-37.345 45.327h6.34zm0 10.934v-10.934h-6.34v10.934h6.34zm39.83 39.83c-21.998 0-39.83-17.832-39.83-39.83h-6.34c0 25.499 20.67 46.17 46.17 46.17v-6.34zm81.769 0h-81.77v6.34h81.77v-6.34zm8.519-.912a40.007 40.007 0 01-8.519.912v6.34c3.383 0 6.686-.364 9.868-1.058l-1.349-6.194zm20.405 10.258c-6.96 0-13.286-3.55-17.144-8.994l-5.173 3.666c4.969 7.012 13.171 11.668 22.317 11.668v-6.34zm.011 0h-.011v6.34h.011v-6.34zm3.17 10.784v-7.614h-6.34v7.614h6.34zm25.407 37.139c-14.873-5.781-25.407-20.234-25.407-37.139h-6.34c0 19.607 12.221 36.352 29.45 43.048l2.297-5.909zm1.893 5.842c-.035-.853.002-1.684.104-2.49l-6.29-.795a21.177 21.177 0 00-.148 3.548l6.334-.263zm15.7 15.061c-8.305 0-15.355-6.763-15.7-15.061l-6.334.263c.486 11.694 10.33 21.138 22.034 21.138v-6.34zm6.513 0h-6.513v6.34h6.513v-6.34zm14.196-14.798c.341 8.195-5.994 14.798-14.196 14.798v6.34c11.807 0 21.021-9.604 20.531-21.401l-6.335.263zm-.004-.093l.004.093 6.335-.263a64.078 64.078 0 00-.006-.132l-6.333.302zm67.94-3.321h-64.773v6.34h64.773v-6.34zm15.281-3.036a39.698 39.698 0 01-15.281 3.036v6.34c6.27 0 12.256-1.252 17.716-3.522l-2.435-5.854zm10.738 2.457c-2.845 0-5.543-.813-7.867-2.234l-3.307 5.408a21.39 21.39 0 0011.174 3.166v-6.34zm6.368 0h-6.368v6.34h6.368v-6.34zm13.812-14.397c.331 7.974-5.831 14.397-13.812 14.397v6.34c11.585 0 20.627-9.425 20.146-21l-6.334.263zm-6.372-11.728c3.706 2.697 6.174 6.967 6.372 11.728l6.334-.263c-.283-6.819-3.808-12.83-8.975-16.591l-3.731 5.126zm.003-13.126c0 3.381-.42 6.659-1.211 9.787l6.147 1.553a46.278 46.278 0 001.404-11.34h-6.34zm0-10.934v10.934h6.34v-10.934h-6.34zm-.776-7.867c.509 2.541.776 5.171.776 7.867h6.34c0-3.116-.309-6.163-.899-9.111l-6.217 1.244zm-.095-2.349c.024.576.035 1.15.033 1.719l6.34.016a44.56 44.56 0 00-.039-1.998l-6.334.263zm-40.245-38.608c21.321 0 39.36 17.305 40.245 38.608l6.334-.263c-1.026-24.699-21.859-44.685-46.579-44.685v6.34zm-32.575 0h32.575v-6.34h-32.575v6.34zm-23.493 8.276c6.316-5.173 14.459-8.276 23.493-8.276v-6.34c-10.518 0-20.076 3.622-27.51 9.711l4.017 4.905zm-34.461.717h32.453v-6.339h-32.453v6.339zm-22.785 7.157a39.634 39.634 0 0122.785-7.157v-6.339a45.969 45.969 0 00-26.416 8.299l3.631 5.197zm-8.811-4.207a21.604 21.604 0 014.682 3.775l4.628-4.334a27.91 27.91 0 00-6.06-4.884l-3.25 5.443zm-.509-12.145c0 3.003-.332 5.925-.96 8.732l6.187 1.383a46.287 46.287 0 001.113-10.115h-6.34zm0-4.892v4.892h6.34v-4.892h-6.34zm21.623-11.112c-4.687 4.751-11.185 7.751-18.536 7.943l.165 6.337c9.017-.235 17.065-3.929 22.884-9.828l-4.513-4.452zm8.066-.555c-1.828 0-3.625-.123-5.385-.361l-.848 6.283c2.04.276 4.121.418 6.233.418v-6.34zm100.053 0H227.388v6.34h100.053v-6.34zm39.83-39.83c0 21.998-17.833 39.83-39.83 39.83v6.34c25.499 0 46.17-20.671 46.17-46.17h-6.34zm0-10.725v10.725h6.34v-10.725h-6.34zm-39.83-39.83c21.998 0 39.83 17.832 39.83 39.83h6.34c0-25.499-20.671-46.17-46.17-46.17v6.34zm-30.587 0h30.587v-6.34h-30.587v6.34zm-41.587-23.452c16.15 0 30.696 8.823 38.899 21.961l5.377-3.358c-9.276-14.856-25.783-24.943-44.276-24.943v6.34zm-17.422 0h17.422v-6.34h-17.422v6.34zm-7.715.688a43.213 43.213 0 017.715-.688v-6.34c-3.026 0-5.982.27-8.846.79l1.131 6.238zm-3.736-20.127v17.008h6.34V64.993h-6.34zm-39.83-39.83c21.998 0 39.83 17.833 39.83 39.83h6.34c0-25.499-20.671-46.17-46.17-46.17v6.34z" mask="url(#a)"/></g><path fill="#333" d="M75.916 58.711H77.5v4.736h5.728v-4.736h1.6V70.04h-1.6v-5.184H77.5v5.184h-1.584V58.711zm18.936 7.52a4.01 4.01 0 01-.32 1.616c-.202.49-.49.917-.864 1.28a3.98 3.98 0 01-1.296.832 4.48 4.48 0 01-1.616.288 4.48 4.48 0 01-1.616-.288 3.98 3.98 0 01-1.296-.832 4.105 4.105 0 01-.864-1.28 4.193 4.193 0 01-.304-1.616c0-.587.102-1.12.304-1.6.214-.49.502-.912.864-1.264a3.775 3.775 0 011.296-.816 4.27 4.27 0 011.616-.304 4.27 4.27 0 011.616.304c.502.192.934.464 1.296.816.374.352.662.773.864 1.264.214.48.32 1.013.32 1.6zm-1.568 0c0-.363-.058-.71-.176-1.04a2.443 2.443 0 00-.48-.864 2.279 2.279 0 00-.8-.608 2.437 2.437 0 00-1.072-.224c-.405 0-.768.075-1.088.224-.309.15-.57.352-.784.608a2.653 2.653 0 00-.496.864c-.106.33-.16.677-.16 1.04s.054.71.16 1.04c.118.33.283.624.496.88.214.256.475.459.784.608.32.15.683.224 1.088.224.406 0 .763-.075 1.072-.224.32-.15.587-.352.8-.608.214-.256.374-.55.48-.88.118-.33.176-.677.176-1.04zm3.894-3.776l1.712 5.792h.032l1.808-5.792h1.584l1.84 5.792h.032l1.712-5.792h1.584l-2.512 7.584h-1.568l-1.872-5.696h-.032l-1.856 5.696h-1.568l-2.528-7.584h1.632zM118.4 68.84c-.288.459-.683.81-1.184 1.056a3.555 3.555 0 01-1.552.352 3.957 3.957 0 01-1.584-.304 3.65 3.65 0 01-1.2-.864 3.856 3.856 0 01-.768-1.28 4.495 4.495 0 01-.272-1.568c0-.555.091-1.072.272-1.552.181-.49.437-.917.768-1.28a3.62 3.62 0 011.216-.848 3.874 3.874 0 011.552-.304c.619 0 1.157.133 1.616.4.459.256.821.57 1.088.944h.032v-5.648h1.504V70.04h-1.456v-1.2h-.032zm-4.992-2.608c0 .352.053.693.16 1.024.107.33.267.624.48.88.213.256.475.464.784.624.309.15.672.224 1.088.224a2.36 2.36 0 001.04-.224c.32-.15.592-.347.816-.592.224-.256.395-.55.512-.88.128-.33.192-.677.192-1.04s-.064-.71-.192-1.04a2.681 2.681 0 00-.512-.88 2.442 2.442 0 00-.816-.608 2.36 2.36 0 00-1.04-.224c-.416 0-.779.075-1.088.224-.309.15-.571.352-.784.608-.213.256-.373.55-.48.88-.107.33-.16.672-.16 1.024zm16.46 0c0 .587-.106 1.125-.32 1.616-.202.49-.49.917-.864 1.28-.362.352-.794.63-1.296.832a4.479 4.479 0 01-1.616.288 4.483 4.483 0 01-1.616-.288 3.986 3.986 0 01-1.296-.832 4.129 4.129 0 01-.864-1.28 4.206 4.206 0 01-.304-1.616c0-.587.102-1.12.304-1.6.214-.49.502-.912.864-1.264a3.78 3.78 0 011.296-.816 4.273 4.273 0 011.616-.304c.576 0 1.115.101 1.616.304.502.192.934.464 1.296.816.374.352.662.773.864 1.264.214.48.32 1.013.32 1.6zm-1.568 0c0-.363-.058-.71-.176-1.04a2.421 2.421 0 00-.48-.864 2.276 2.276 0 00-.8-.608 2.434 2.434 0 00-1.072-.224c-.405 0-.768.075-1.088.224-.309.15-.57.352-.784.608a2.671 2.671 0 00-.496.864c-.106.33-.16.677-.16 1.04s.054.71.16 1.04c.118.33.283.624.496.88.214.256.475.459.784.608.32.15.683.224 1.088.224.406 0 .763-.075 1.072-.224.32-.15.587-.352.8-.608a2.59 2.59 0 00.48-.88 3.07 3.07 0 00.176-1.04zm8.678 3.808h-1.584V58.711h1.584V70.04zm7.512-6.336c.192-.405.496-.747.912-1.024.426-.288.928-.432 1.504-.432.512 0 .97.117 1.376.352.416.235.741.624.976 1.168a2.65 2.65 0 011.072-1.12c.458-.267.96-.4 1.504-.4.49 0 .912.085 1.264.256.352.16.645.379.88.656.234.277.405.603.512.976.117.373.176.773.176 1.2v4.704h-1.504v-4.208c0-.31-.027-.603-.08-.88a2.254 2.254 0 00-.272-.736 1.473 1.473 0 00-.512-.512c-.214-.128-.486-.192-.816-.192-.342 0-.635.075-.88.224a1.79 1.79 0 00-.608.56c-.15.224-.262.48-.336.768a4.044 4.044 0 00-.096.88v4.096h-1.504v-4.512c0-.299-.027-.57-.08-.816a1.596 1.596 0 00-.272-.624 1.258 1.258 0 00-.496-.416c-.203-.107-.454-.16-.752-.16-.555 0-1.019.23-1.392.688-.363.448-.544 1.05-.544 1.808v4.032h-1.504v-5.952c0-.203-.006-.464-.016-.784-.011-.32-.027-.603-.048-.848h1.424a14.518 14.518 0 01.064 1.248h.048zm17.115 1.424c0-.565-.171-.981-.512-1.248-.341-.277-.795-.416-1.36-.416a2.96 2.96 0 00-1.216.256c-.373.16-.688.368-.944.624l-.8-.96c.373-.352.827-.63 1.36-.832a4.953 4.953 0 011.744-.304c.544 0 1.013.08 1.408.24.405.15.736.357.992.624s.448.581.576.944c.128.363.192.752.192 1.168v3.312c0 .256.005.528.016.816.021.277.053.507.096.688h-1.36a4.755 4.755 0 01-.128-1.088h-.048c-.277.405-.629.72-1.056.944-.416.224-.912.336-1.488.336-.299 0-.613-.043-.944-.128a2.607 2.607 0 01-.88-.384 2.29 2.29 0 01-.672-.72c-.171-.299-.256-.667-.256-1.104 0-.576.155-1.03.464-1.36.309-.341.715-.597 1.216-.768a6.62 6.62 0 011.696-.352c.629-.053 1.264-.08 1.904-.08v-.208zm-.368 1.296c-.373 0-.763.016-1.168.048a5.494 5.494 0 00-1.088.192c-.32.096-.587.24-.8.432-.213.192-.32.448-.32.768 0 .224.043.41.128.56.096.15.219.272.368.368.149.096.315.165.496.208.181.032.368.048.56.048.704 0 1.243-.208 1.616-.624.384-.427.576-.96.576-1.6v-.4h-.368zm5.536-.672h.048l3.184-3.296h2.016l-3.552 3.44 3.856 4.144h-2.08l-3.424-3.936h-.048v3.936h-1.504V57.943h1.504v7.808zm11.852-.176a2.602 2.602 0 00-.16-.832 1.761 1.761 0 00-.4-.688 1.702 1.702 0 00-.656-.448 2.173 2.173 0 00-.912-.176c-.32 0-.624.059-.912.176a2.36 2.36 0 00-.736.448 2.594 2.594 0 00-.512.688 2.202 2.202 0 00-.224.832h4.512zm1.52.608v.256a2 2 0 01-.016.256h-6.016c.011.32.08.624.208.912.139.277.32.523.544.736.224.203.48.363.768.48.299.117.614.176.944.176.512 0 .955-.112 1.328-.336a2.7 2.7 0 00.88-.816l1.056.848a3.8 3.8 0 01-1.44 1.184c-.544.245-1.152.368-1.824.368a4.354 4.354 0 01-1.6-.288 3.767 3.767 0 01-1.264-.8 3.84 3.84 0 01-.832-1.264 4.249 4.249 0 01-.304-1.632c0-.587.096-1.125.288-1.616.203-.501.48-.928.832-1.28a3.671 3.671 0 011.248-.816 3.95 3.95 0 011.552-.304c.555 0 1.056.09 1.504.272.459.181.843.443 1.152.784.32.341.566.757.736 1.248.171.48.256 1.024.256 1.632zM78.079 87.687h-2.016v3.952c0 .459.085.79.256.992.17.192.443.288.816.288.139 0 .288-.016.448-.048.16-.032.304-.08.432-.144l.048 1.232a3.178 3.178 0 01-.608.144 3.425 3.425 0 01-.672.064c-.715 0-1.264-.197-1.648-.592-.373-.395-.56-.987-.56-1.776v-4.112h-1.456v-1.232h1.456V84.28h1.488v2.176h2.016v1.232zm2.802-.08c.181-.373.49-.693.928-.96.437-.267.928-.4 1.472-.4.49 0 .912.085 1.264.256a2.474 2.474 0 011.392 1.632c.117.373.176.773.176 1.2v4.704h-1.504v-4.192c0-.31-.027-.603-.08-.88a2.007 2.007 0 00-.256-.736 1.431 1.431 0 00-.528-.512c-.214-.128-.496-.192-.848-.192-.598 0-1.088.23-1.472.688-.384.448-.576 1.05-.576 1.808v4.016h-1.504V81.943h1.504v5.664h.032zm13.007 1.968a2.622 2.622 0 00-.16-.832 1.775 1.775 0 00-.4-.688 1.71 1.71 0 00-.656-.448 2.173 2.173 0 00-.912-.176c-.32 0-.624.059-.912.176a2.348 2.348 0 00-.736.448 2.57 2.57 0 00-.512.688 2.19 2.19 0 00-.224.832h4.512zm1.52.608v.256c0 .085-.005.17-.016.256h-6.016c.011.32.08.624.208.912.139.277.32.523.544.736.224.203.48.363.768.48.299.117.614.176.944.176.512 0 .955-.112 1.328-.336.374-.224.667-.496.88-.816l1.056.848a3.805 3.805 0 01-1.44 1.184c-.544.245-1.152.368-1.824.368-.576 0-1.109-.096-1.6-.288a3.76 3.76 0 01-1.264-.8 3.834 3.834 0 01-.832-1.264 4.236 4.236 0 01-.304-1.632c0-.587.096-1.125.288-1.616.203-.501.48-.928.832-1.28a3.671 3.671 0 011.248-.816c.48-.203.998-.304 1.552-.304.555 0 1.056.09 1.504.272.459.181.843.443 1.152.784.32.341.566.757.736 1.248.171.48.256 1.024.256 1.632zm8.036-2.144v3.04c0 .373.07.656.208.848.15.181.411.272.784.272.128 0 .262-.01.4-.032.15-.021.272-.053.368-.096l.032 1.92c-.181.064-.41.117-.688.16-.277.053-.554.08-.832.08-.533 0-.981-.064-1.344-.192a2.265 2.265 0 01-.88-.576 2.397 2.397 0 01-.464-.896 4.434 4.434 0 01-.144-1.168v-3.36h-1.28v-1.968h1.264v-2.096h2.576v2.096h1.872v1.968h-1.872zm8.273 1.104c0-.416-.133-.773-.4-1.072-.256-.299-.645-.448-1.168-.448-.256 0-.49.043-.704.128-.213.075-.4.181-.56.32a1.59 1.59 0 00-.384.496 1.376 1.376 0 00-.16.576h3.376zm2.416 1.008v.32c0 .107-.005.208-.016.304h-5.776c.022.224.086.427.192.608.118.181.262.341.432.48a2.167 2.167 0 001.28.416c.416 0 .768-.075 1.056-.224.288-.16.523-.363.704-.608l1.824 1.152a3.734 3.734 0 01-1.488 1.264c-.608.288-1.317.432-2.128.432-.597 0-1.162-.09-1.696-.272a4.405 4.405 0 01-1.408-.816 4.022 4.022 0 01-.944-1.328c-.224-.523-.336-1.12-.336-1.792 0-.65.112-1.237.336-1.76.224-.533.528-.981.912-1.344a4.007 4.007 0 011.36-.864 4.651 4.651 0 011.696-.304c.587 0 1.126.101 1.616.304.491.192.912.475 1.264.848s.624.827.816 1.36c.203.533.304 1.141.304 1.824zm6.796-1.504a1.597 1.597 0 00-.608-.464 1.865 1.865 0 00-.784-.176c-.278 0-.528.059-.752.176a1.683 1.683 0 00-.576.448c-.16.181-.288.395-.384.64a2.352 2.352 0 00-.128.784c0 .277.042.539.128.784.085.245.208.464.368.656.17.181.368.325.592.432.234.107.496.16.784.16.266 0 .528-.048.784-.144a1.58 1.58 0 00.64-.448l1.456 1.776c-.331.32-.758.57-1.28.752a5.046 5.046 0 01-1.664.272c-.63 0-1.216-.096-1.76-.288a4.21 4.21 0 01-1.424-.832 4.174 4.174 0 01-.944-1.344c-.224-.523-.336-1.115-.336-1.776 0-.65.112-1.237.336-1.76.234-.523.549-.965.944-1.328.405-.373.88-.656 1.424-.848a4.953 4.953 0 012.592-.224c.288.053.56.128.816.224.266.085.506.197.72.336.224.128.416.272.576.432l-1.52 1.76zm7.487 5.392v-4.32c0-.224-.016-.437-.048-.64a1.355 1.355 0 00-.192-.528.908.908 0 00-.352-.368c-.15-.096-.342-.144-.576-.144-.459 0-.811.165-1.056.496-.246.32-.368.72-.368 1.2v4.304H123.2V81.943h2.624v5.136h.032c.181-.32.469-.603.864-.848.394-.256.869-.384 1.424-.384.544 0 .997.096 1.36.288.373.192.672.443.896.752.234.299.4.645.496 1.04.106.395.16.79.16 1.184v4.928h-2.64zm18.131 0h-2.64l-1.568-4.96h-.032l-1.536 4.96h-2.64l-2.752-7.968h2.832l1.376 5.04h.048l1.424-5.04h2.64l1.472 5.04h.032l1.392-5.04h2.72l-2.768 7.968zm11.921-4.016c0 .65-.117 1.243-.352 1.776-.235.523-.555.97-.96 1.344a4.473 4.473 0 01-1.408.848 4.78 4.78 0 01-1.712.304 4.867 4.867 0 01-1.712-.304 4.473 4.473 0 01-1.408-.848 4.19 4.19 0 01-.944-1.344 4.358 4.358 0 01-.352-1.776c0-.65.117-1.237.352-1.76.235-.523.549-.965.944-1.328.405-.363.875-.64 1.408-.832a5.107 5.107 0 011.712-.288c.608 0 1.179.096 1.712.288.533.192 1.003.47 1.408.832.405.363.725.805.96 1.328s.352 1.11.352 1.76zm-2.528 0c0-.256-.043-.507-.128-.752a1.891 1.891 0 00-.368-.64 1.814 1.814 0 00-.592-.464 1.803 1.803 0 00-.816-.176c-.309 0-.581.059-.816.176a1.814 1.814 0 00-.592.464 2.06 2.06 0 00-.352.64 2.558 2.558 0 000 1.504c.085.245.208.47.368.672.16.192.357.347.592.464.235.117.507.176.816.176.309 0 .581-.059.816-.176.235-.117.432-.272.592-.464.16-.203.277-.427.352-.672.085-.245.128-.496.128-.752zm9.037-1.808a2.013 2.013 0 00-.352-.064 3.19 3.19 0 00-.32-.016c-.352 0-.65.064-.896.192a1.95 1.95 0 00-.576.464 1.85 1.85 0 00-.304.592c-.064.213-.096.4-.096.56v4.096h-2.624v-7.968h2.528v1.152h.032c.203-.405.491-.736.864-.992a2.239 2.239 0 011.296-.384c.107 0 .208.005.304.016.107.01.192.027.256.048l-.112 2.304zm9.416 5.824h-3.248l-2.608-3.824h-.048v3.824h-2.64V81.943h2.64v7.36h.048l2.544-3.232h3.184l-3.072 3.6 3.2 4.368zm8.044-8.432c0 .352-.043.661-.128.928a2.664 2.664 0 01-.368.736c-.15.224-.336.437-.56.64-.214.192-.459.395-.736.608a9.937 9.937 0 00-.432.368 1.466 1.466 0 00-.256.336 1.285 1.285 0 00-.144.352 2.402 2.402 0 00-.032.432v.416h-2.496v-.608c0-.277.026-.523.08-.736.053-.224.133-.427.24-.608.106-.181.234-.357.384-.528.16-.17.346-.347.56-.528l.528-.496c.181-.16.336-.325.464-.496.128-.181.192-.395.192-.64 0-.341-.107-.613-.32-.816-.203-.203-.486-.304-.848-.304-.448 0-.784.155-1.008.464-.224.299-.347.64-.368 1.024l-2.544-.272a4.367 4.367 0 01.432-1.52c.234-.437.533-.8.896-1.088a3.657 3.657 0 011.232-.64c.458-.15.944-.224 1.456-.224.48 0 .944.064 1.392.192.458.117.864.31 1.216.576.352.256.634.587.848.992.213.405.32.885.32 1.44zm-2.336 7.072c0 .427-.15.79-.448 1.088a1.53 1.53 0 01-1.104.432c-.214 0-.416-.037-.608-.112a1.636 1.636 0 01-.496-.32 1.68 1.68 0 01-.336-.48 1.491 1.491 0 01-.016-1.168c.085-.192.197-.357.336-.496a1.59 1.59 0 01.512-.32 1.477 1.477 0 011.2 0c.192.075.357.181.496.32.149.128.261.288.336.48.085.181.128.373.128.576zM241.138 140.535h-1.584v-11.328h1.584v11.328zm3.719-7.584c.022.192.038.411.048.656.011.235.016.432.016.592h.048c.096-.203.224-.389.384-.56a2.71 2.71 0 01.576-.464 2.65 2.65 0 01.704-.32c.256-.075.523-.112.8-.112.491 0 .912.085 1.264.256a2.474 2.474 0 011.392 1.632c.118.373.176.773.176 1.2v4.704h-1.504v-4.208a4.6 4.6 0 00-.08-.88 1.997 1.997 0 00-.256-.736 1.434 1.434 0 00-.528-.512c-.224-.128-.512-.192-.864-.192-.597 0-1.088.229-1.472.688-.373.448-.56 1.051-.56 1.808v4.032h-1.504v-5.952a23.507 23.507 0 00-.064-1.632h1.424zm11.345 1.232h-2.016v3.952c0 .459.085.789.256.992.17.192.442.288.816.288.138 0 .288-.016.448-.048.16-.032.304-.08.432-.144l.048 1.232a3.19 3.19 0 01-.608.144 3.405 3.405 0 01-.672.064c-.715 0-1.264-.197-1.648-.592-.374-.395-.56-.987-.56-1.776v-4.112h-1.456v-1.232h1.456v-2.176h1.488v2.176h2.016v1.232zm6.785 1.888a2.6 2.6 0 00-.16-.832 1.76 1.76 0 00-.4-.688 1.706 1.706 0 00-.656-.448 2.179 2.179 0 00-.912-.176 2.4 2.4 0 00-.912.176 2.368 2.368 0 00-.736.448 2.589 2.589 0 00-.512.688 2.2 2.2 0 00-.224.832h4.512zm1.52.608v.256a2 2 0 01-.016.256h-6.016c.011.32.08.624.208.912.139.277.32.523.544.736.224.203.48.363.768.48.299.117.614.176.944.176.512 0 .955-.112 1.328-.336a2.7 2.7 0 00.88-.816l1.056.848a3.802 3.802 0 01-1.44 1.184 4.393 4.393 0 01-1.824.368 4.354 4.354 0 01-1.6-.288 3.771 3.771 0 01-1.264-.8 3.836 3.836 0 01-.832-1.264 4.251 4.251 0 01-.304-1.632c0-.587.096-1.125.288-1.616.203-.501.48-.928.832-1.28a3.671 3.671 0 011.248-.816c.48-.203.998-.304 1.552-.304.555 0 1.056.091 1.504.272.459.181.843.443 1.152.784.32.341.566.757.736 1.248.171.48.256 1.024.256 1.632zm2.372 5.152c.331.373.742.672 1.232.896a3.735 3.735 0 001.536.336c.502 0 .923-.075 1.264-.224.342-.139.614-.336.816-.592a2.08 2.08 0 00.448-.88 4.06 4.06 0 00.144-1.104v-.976h-.032a2.665 2.665 0 01-1.136.976c-.48.224-.992.336-1.536.336a4.026 4.026 0 01-1.584-.304 3.572 3.572 0 01-1.2-.832 3.782 3.782 0 01-.768-1.232 4.317 4.317 0 01-.272-1.536c0-.544.091-1.056.272-1.536.182-.48.438-.896.768-1.248a3.461 3.461 0 011.2-.848c.47-.213.992-.32 1.568-.32.544 0 1.062.117 1.552.352.502.235.896.592 1.184 1.072h.032v-1.216h1.456v7.2a5.9 5.9 0 01-.208 1.584c-.138.512-.373.96-.704 1.344-.33.395-.762.709-1.296.944-.533.235-1.194.352-1.984.352a5.811 5.811 0 01-2-.368 4.996 4.996 0 01-1.712-1.008l.96-1.168zm.464-5.168c0 .352.054.688.16 1.008.118.32.283.603.496.848.224.245.491.443.8.592.31.149.662.224 1.056.224.384 0 .736-.069 1.056-.208a2.47 2.47 0 00.816-.56c.224-.245.395-.528.512-.848.128-.331.192-.683.192-1.056a2.73 2.73 0 00-.192-1.024 2.405 2.405 0 00-.528-.848 2.369 2.369 0 00-.816-.576 2.365 2.365 0 00-1.04-.224c-.394 0-.746.075-1.056.224a2.413 2.413 0 00-.8.576 2.488 2.488 0 00-.496.848c-.106.32-.16.661-.16 1.024zm8.734-2.08c0-.203-.006-.464-.016-.784-.011-.32-.027-.603-.048-.848h1.424c.021.192.037.416.048.672.01.245.016.448.016.608h.048c.213-.448.522-.805.928-1.072.416-.277.88-.416 1.392-.416.234 0 .432.021.592.064l-.064 1.392a2.853 2.853 0 00-.688-.08c-.363 0-.678.069-.944.208a1.917 1.917 0 00-.672.528 2.324 2.324 0 00-.384.784 3.17 3.17 0 00-.128.912v3.984h-1.504v-5.952zm9.993 1.04c0-.565-.17-.981-.512-1.248-.341-.277-.794-.416-1.36-.416-.426 0-.832.085-1.216.256-.373.16-.688.368-.944.624l-.8-.96a4.07 4.07 0 011.36-.832 4.95 4.95 0 011.744-.304c.544 0 1.014.08 1.408.24.406.149.736.357.992.624s.448.581.576.944c.128.363.192.752.192 1.168v3.312c0 .256.006.528.016.816.022.277.054.507.096.688h-1.36a4.754 4.754 0 01-.128-1.088h-.048a2.89 2.89 0 01-1.056.944c-.416.224-.912.336-1.488.336-.298 0-.613-.043-.944-.128a2.619 2.619 0 01-.88-.384 2.304 2.304 0 01-.672-.72c-.17-.299-.256-.667-.256-1.104 0-.576.155-1.029.464-1.36.31-.341.715-.597 1.216-.768a6.634 6.634 0 011.696-.352 22.69 22.69 0 011.904-.08v-.208zm-.368 1.296c-.373 0-.762.016-1.168.048a5.507 5.507 0 00-1.088.192c-.32.096-.586.24-.8.432-.213.192-.32.448-.32.768 0 .224.043.411.128.56.096.149.219.272.368.368.15.096.315.165.496.208.182.032.368.048.56.048.704 0 1.243-.208 1.616-.624.384-.427.576-.96.576-1.6v-.4h-.368zm7.556-2.736h-2.016v3.952c0 .459.085.789.256.992.171.192.443.288.816.288.139 0 .288-.016.448-.048.16-.032.304-.08.432-.144l.048 1.232a3.173 3.173 0 01-.608.144 3.39 3.39 0 01-.672.064c-.715 0-1.264-.197-1.648-.592-.373-.395-.56-.987-.56-1.776v-4.112h-1.456v-1.232h1.456v-2.176h1.488v2.176h2.016v1.232zm6.786 1.888a2.628 2.628 0 00-.16-.832 1.784 1.784 0 00-.4-.688 1.721 1.721 0 00-.656-.448 2.179 2.179 0 00-.912-.176 2.4 2.4 0 00-.912.176 2.345 2.345 0 00-.736.448 2.547 2.547 0 00-.512.688 2.182 2.182 0 00-.224.832h4.512zm1.52.608v.256a2.2 2.2 0 01-.016.256h-6.016c.01.32.08.624.208.912.138.277.32.523.544.736.224.203.48.363.768.48.298.117.613.176.944.176.512 0 .954-.112 1.328-.336a2.72 2.72 0 00.88-.816l1.056.848a3.817 3.817 0 01-1.44 1.184 4.393 4.393 0 01-1.824.368 4.35 4.35 0 01-1.6-.288 3.761 3.761 0 01-1.264-.8 3.82 3.82 0 01-.832-1.264 4.232 4.232 0 01-.304-1.632c0-.587.096-1.125.288-1.616a3.79 3.79 0 01.832-1.28 3.671 3.671 0 011.248-.816c.48-.203.997-.304 1.552-.304.554 0 1.056.091 1.504.272.458.181.842.443 1.152.784.32.341.565.757.736 1.248.17.48.256 1.024.256 1.632zm6.932-2.48c.192-.405.496-.747.912-1.024.426-.288.928-.432 1.504-.432.512 0 .97.117 1.376.352.416.235.741.624.976 1.168a2.65 2.65 0 011.072-1.12c.458-.267.96-.4 1.504-.4.49 0 .912.085 1.264.256.352.16.645.379.88.656.234.277.405.603.512.976.117.373.176.773.176 1.2v4.704h-1.504v-4.208c0-.309-.027-.603-.08-.88a2.255 2.255 0 00-.272-.736 1.476 1.476 0 00-.512-.512c-.214-.128-.486-.192-.816-.192-.342 0-.635.075-.88.224a1.791 1.791 0 00-.608.56c-.15.224-.262.48-.336.768a4.042 4.042 0 00-.096.88v4.096h-1.504v-4.512c0-.299-.027-.571-.08-.816a1.601 1.601 0 00-.272-.624 1.26 1.26 0 00-.496-.416c-.203-.107-.454-.16-.752-.16-.555 0-1.019.229-1.392.688-.363.448-.544 1.051-.544 1.808v4.032h-1.504v-5.952c0-.203-.006-.464-.016-.784-.011-.32-.027-.603-.048-.848h1.424a14.537 14.537 0 01.064 1.248h.048zm15.275 4.704h.032l2.096-5.952h1.6l-3.68 9.376a5.73 5.73 0 01-.416.848 2.413 2.413 0 01-.528.64c-.203.181-.443.32-.72.416a2.846 2.846 0 01-.96.144 4.07 4.07 0 01-.496-.032 2.824 2.824 0 01-.496-.08l.144-1.328c.256.085.507.128.752.128.395 0 .688-.112.88-.336.192-.213.368-.523.528-.928l.48-1.264-3.248-7.584h1.68l2.352 5.952zm-93.199 20.736c0-.416-.134-.773-.4-1.072-.256-.299-.646-.448-1.168-.448-.256 0-.491.043-.704.128-.214.075-.4.181-.56.32-.16.139-.288.304-.384.496-.096.181-.15.373-.16.576h3.376zm2.416 1.008v.32c0 .107-.006.208-.016.304h-5.776c.021.224.085.427.192.608.117.181.261.341.432.48.181.128.378.229.592.304.224.075.453.112.688.112.416 0 .768-.075 1.056-.224.288-.16.522-.363.704-.608l1.824 1.152a3.75 3.75 0 01-1.488 1.264c-.608.288-1.318.432-2.128.432a5.237 5.237 0 01-1.696-.272 4.383 4.383 0 01-1.408-.816 3.993 3.993 0 01-.944-1.328c-.224-.523-.336-1.12-.336-1.792 0-.651.112-1.237.336-1.76a3.9 3.9 0 01.912-1.344 4.01 4.01 0 011.36-.864 4.641 4.641 0 011.696-.304 4.19 4.19 0 011.616.304c.49.192.912.475 1.264.848s.624.827.816 1.36c.202.533.304 1.141.304 1.824zm11.483 3.888v-4.352c0-.224-.016-.437-.048-.64a1.562 1.562 0 00-.176-.544.93.93 0 00-.352-.352c-.139-.096-.325-.144-.56-.144-.224 0-.421.048-.592.144-.16.096-.299.224-.416.384-.107.16-.187.347-.24.56-.053.203-.08.416-.08.64v4.304h-2.624v-4.544c0-.459-.091-.821-.272-1.088-.181-.267-.469-.4-.864-.4a1.13 1.13 0 00-.976.496c-.224.331-.336.736-.336 1.216v4.32h-2.64v-7.968h2.544v1.104h.032c.096-.171.213-.336.352-.496.149-.16.325-.299.528-.416.203-.128.427-.229.672-.304.256-.075.533-.112.832-.112.576 0 1.061.117 1.456.352.405.235.72.571.944 1.008a3.034 3.034 0 011.024-.992c.416-.245.923-.368 1.52-.368.544 0 .997.101 1.36.304.373.192.672.448.896.768.224.309.384.661.48 1.056.107.384.16.763.16 1.136v4.928h-2.624zm8.989-3.472h-.336c-.288 0-.581.016-.88.048a3.385 3.385 0 00-.784.144c-.224.075-.41.187-.56.336a.728.728 0 00-.224.56c0 .149.032.277.096.384a.895.895 0 00.272.256c.107.064.23.112.368.144.139.021.272.032.4.032.534 0 .939-.144 1.216-.432.288-.299.432-.699.432-1.2v-.272zm-4.816-3.408a4.62 4.62 0 011.632-1.008 5.693 5.693 0 011.92-.336c.672 0 1.238.085 1.696.256.47.16.848.416 1.136.768.288.341.496.779.624 1.312.139.523.208 1.147.208 1.872v4.016h-2.4v-.848h-.048c-.202.331-.512.587-.928.768a3.219 3.219 0 01-1.328.272c-.32 0-.65-.043-.992-.128a2.996 2.996 0 01-.944-.416 2.297 2.297 0 01-.688-.768c-.181-.32-.272-.715-.272-1.184 0-.576.155-1.04.464-1.392.32-.352.726-.624 1.216-.816a6.565 6.565 0 011.664-.384c.608-.064 1.2-.096 1.776-.096v-.128c0-.395-.138-.683-.416-.864-.277-.192-.618-.288-1.024-.288-.373 0-.736.08-1.088.24-.341.16-.634.352-.88.576l-1.328-1.424zm11.703-3.632c0 .203-.043.395-.128.576a1.34 1.34 0 01-.32.448 1.375 1.375 0 01-.48.304 1.497 1.497 0 01-.576.112c-.427 0-.784-.139-1.072-.416a1.399 1.399 0 01-.432-1.024c0-.192.037-.373.112-.544.074-.181.181-.336.32-.464.138-.128.298-.229.48-.304a1.497 1.497 0 011.168-.016c.192.075.352.176.48.304.138.128.245.283.32.464.085.171.128.357.128.56zm-2.816 10.512v-7.968h2.624v7.968h-2.624zm4.414 0v-12.096h2.656v12.096h-2.656zm16.958-4.016c0 .555-.086 1.088-.256 1.6a4.148 4.148 0 01-.752 1.36c-.32.384-.715.693-1.184.928-.47.235-1.003.352-1.6.352-.491 0-.955-.096-1.392-.288-.438-.203-.779-.475-1.024-.816h-.032v4.72h-2.624v-11.808h2.496v.976h.048c.245-.32.581-.597 1.008-.832.437-.245.949-.368 1.536-.368.576 0 1.098.112 1.568.336a3.46 3.46 0 011.184.912c.33.384.581.832.752 1.344.181.501.272 1.029.272 1.584zm-2.544 0a2.28 2.28 0 00-.128-.752 1.708 1.708 0 00-.352-.64 1.662 1.662 0 00-.576-.464 1.808 1.808 0 00-.816-.176c-.299 0-.566.059-.8.176a1.987 1.987 0 00-.608.464c-.16.192-.288.411-.384.656a2.255 2.255 0 000 1.504c.096.245.224.464.384.656.17.192.373.347.608.464.234.117.501.176.8.176.309 0 .581-.059.816-.176.234-.117.426-.272.576-.464.16-.192.277-.411.352-.656.085-.256.128-.512.128-.768zm9.043-1.808a2.051 2.051 0 00-.352-.064 3.103 3.103 0 00-.32-.016c-.352 0-.65.064-.896.192a1.956 1.956 0 00-.576.464 1.85 1.85 0 00-.304.592c-.064.213-.096.4-.096.56v4.096h-2.624v-7.968h2.528v1.152h.032c.203-.405.491-.736.864-.992a2.239 2.239 0 011.296-.384c.107 0 .208.005.304.016.107.011.192.027.256.048l-.112 2.304zm9.023 1.808c0 .651-.117 1.243-.352 1.776a4.074 4.074 0 01-.96 1.344 4.471 4.471 0 01-1.408.848 4.77 4.77 0 01-1.712.304 4.858 4.858 0 01-1.712-.304 4.471 4.471 0 01-1.408-.848 4.18 4.18 0 01-.944-1.344 4.355 4.355 0 01-.352-1.776c0-.651.117-1.237.352-1.76.235-.523.549-.965.944-1.328.405-.363.875-.64 1.408-.832a5.107 5.107 0 011.712-.288c.608 0 1.179.096 1.712.288a4.238 4.238 0 011.408.832c.405.363.725.805.96 1.328s.352 1.109.352 1.76zm-2.528 0a2.28 2.28 0 00-.128-.752 1.892 1.892 0 00-.368-.64 1.81 1.81 0 00-.592-.464 1.808 1.808 0 00-.816-.176c-.309 0-.581.059-.816.176a1.81 1.81 0 00-.592.464 2.06 2.06 0 00-.352.64 2.556 2.556 0 000 1.504c.085.245.208.469.368.672.16.192.357.347.592.464.235.117.507.176.816.176.309 0 .581-.059.816-.176a1.81 1.81 0 00.592-.464c.16-.203.277-.427.352-.672a2.28 2.28 0 00.128-.752zm8.797 4.016h-2.832l-3.136-7.968h2.896l1.68 5.168h.048l1.68-5.168h2.8l-3.136 7.968zm6.678-10.512c0 .203-.042.395-.128.576-.074.171-.181.32-.32.448a1.375 1.375 0 01-.48.304 1.49 1.49 0 01-.576.112c-.426 0-.784-.139-1.072-.416a1.399 1.399 0 01-.432-1.024c0-.192.038-.373.112-.544.075-.181.182-.336.32-.464.139-.128.299-.229.48-.304a1.49 1.49 0 011.168-.016c.192.075.352.176.48.304.139.128.246.283.32.464.086.171.128.357.128.56zm-2.816 10.512v-7.968h2.624v7.968h-2.624zm10.415 0v-1.04h-.032c-.256.405-.624.72-1.104.944a3.6 3.6 0 01-1.504.32c-.598 0-1.131-.117-1.6-.352a3.807 3.807 0 01-1.2-.928 4.283 4.283 0 01-.736-1.36 5.015 5.015 0 01-.256-1.6c0-.555.085-1.083.256-1.584.181-.512.432-.96.752-1.344.33-.384.725-.688 1.184-.912a3.593 3.593 0 011.568-.336c.586 0 1.082.112 1.488.336.405.224.72.469.944.736h.032v-4.976h2.624v12.096h-2.416zm-.096-4c0-.256-.048-.507-.144-.752a1.959 1.959 0 00-.384-.656 1.772 1.772 0 00-1.392-.64c-.31 0-.582.059-.816.176a1.81 1.81 0 00-.592.464c-.16.181-.283.395-.368.64a2.556 2.556 0 00-.112.752c0 .256.037.512.112.768.085.245.208.464.368.656s.357.347.592.464c.234.117.506.176.816.176a1.772 1.772 0 001.392-.64c.17-.192.298-.411.384-.656.096-.245.144-.496.144-.752zm9.763-.896c0-.416-.133-.773-.4-1.072-.256-.299-.645-.448-1.168-.448-.256 0-.491.043-.704.128-.213.075-.4.181-.56.32-.16.139-.288.304-.384.496a1.373 1.373 0 00-.16.576h3.376zm2.416 1.008v.32c0 .107-.005.208-.016.304h-5.776c.021.224.085.427.192.608.117.181.261.341.432.48.181.128.379.229.592.304.224.075.453.112.688.112.416 0 .768-.075 1.056-.224.288-.16.523-.363.704-.608l1.824 1.152a3.737 3.737 0 01-1.488 1.264c-.608.288-1.317.432-2.128.432a5.242 5.242 0 01-1.696-.272 4.394 4.394 0 01-1.408-.816 4.007 4.007 0 01-.944-1.328c-.224-.523-.336-1.12-.336-1.792 0-.651.112-1.237.336-1.76a3.9 3.9 0 01.912-1.344 4.01 4.01 0 011.36-.864 4.645 4.645 0 011.696-.304c.587 0 1.125.101 1.616.304.491.192.912.475 1.264.848s.624.827.816 1.36c.203.533.304 1.141.304 1.824zm6.475-1.936a2.051 2.051 0 00-.352-.064 3.103 3.103 0 00-.32-.016c-.352 0-.65.064-.896.192a1.956 1.956 0 00-.576.464 1.85 1.85 0 00-.304.592c-.064.213-.096.4-.096.56v4.096h-2.624v-7.968h2.528v1.152h.032c.203-.405.491-.736.864-.992a2.239 2.239 0 011.296-.384c.107 0 .208.005.304.016.107.011.192.027.256.048l-.112 2.304zm8.264-2.608c0 .352-.043.661-.128.928a2.631 2.631 0 01-.368.736 3.44 3.44 0 01-.56.64c-.213.192-.459.395-.736.608-.171.139-.315.261-.432.368a1.483 1.483 0 00-.256.336 1.29 1.29 0 00-.144.352 2.493 2.493 0 00-.032.432v.416h-2.496v-.608c0-.277.027-.523.08-.736.053-.224.133-.427.24-.608.107-.181.235-.357.384-.528.16-.171.347-.347.56-.528l.528-.496c.181-.16.336-.325.464-.496.128-.181.192-.395.192-.64 0-.341-.107-.613-.32-.816-.203-.203-.485-.304-.848-.304-.448 0-.784.155-1.008.464-.224.299-.347.64-.368 1.024l-2.544-.272a4.365 4.365 0 01.432-1.52c.235-.437.533-.8.896-1.088a3.673 3.673 0 011.232-.64 4.685 4.685 0 011.456-.224c.48 0 .944.064 1.392.192a3.36 3.36 0 011.216.576c.352.256.635.587.848.992.213.405.32.885.32 1.44zm-2.336 7.072c0 .427-.149.789-.448 1.088a1.53 1.53 0 01-1.104.432c-.213 0-.416-.037-.608-.112a1.646 1.646 0 01-.496-.32 1.688 1.688 0 01-.336-.48 1.49 1.49 0 01-.016-1.168 1.62 1.62 0 01.336-.496c.149-.139.32-.245.512-.32.192-.085.395-.128.608-.128.213 0 .411.043.592.128.192.075.357.181.496.32.149.128.261.288.336.48.085.181.128.373.128.576zM92.324 194.885v2.336h4.384v2.256h-4.384v4.4H89.62v-11.328h7.456v2.336h-4.752zm9.989 5.52h-.336c-.288 0-.581.016-.88.048a3.385 3.385 0 00-.784.144c-.224.075-.41.187-.56.336-.15.139-.224.325-.224.56 0 .149.032.277.096.384a.882.882 0 00.272.256c.107.064.229.112.368.144.139.021.272.032.4.032.533 0 .939-.144 1.216-.432.288-.299.432-.699.432-1.2v-.272zm-4.816-3.408a4.608 4.608 0 011.632-1.008 5.685 5.685 0 011.92-.336c.672 0 1.237.085 1.696.256.469.16.848.416 1.136.768.288.341.496.779.624 1.312.139.523.208 1.147.208 1.872v4.016h-2.4v-.848h-.048c-.203.331-.512.587-.928.768a3.219 3.219 0 01-1.328.272 4.1 4.1 0 01-.992-.128 2.992 2.992 0 01-.944-.416 2.286 2.286 0 01-.688-.768c-.181-.32-.272-.715-.272-1.184 0-.576.155-1.04.464-1.392.32-.352.725-.624 1.216-.816a6.558 6.558 0 011.664-.384c.608-.064 1.2-.096 1.776-.096v-.128c0-.395-.139-.683-.416-.864-.277-.192-.619-.288-1.024-.288-.373 0-.736.08-1.088.24-.341.16-.635.352-.88.576l-1.328-1.424zm14.343 1.488a1.594 1.594 0 00-.608-.464 1.871 1.871 0 00-.784-.176c-.278 0-.528.059-.752.176a1.688 1.688 0 00-.576.448 2.13 2.13 0 00-.384.64 2.353 2.353 0 00-.128.784c0 .277.042.539.128.784.085.245.208.464.368.656.17.181.368.325.592.432.234.107.496.16.784.16.266 0 .528-.048.784-.144.266-.107.48-.256.64-.448l1.456 1.776c-.331.32-.758.571-1.28.752a5.054 5.054 0 01-1.664.272c-.63 0-1.216-.096-1.76-.288a4.203 4.203 0 01-1.424-.832 4.165 4.165 0 01-.944-1.344c-.224-.523-.336-1.115-.336-1.776 0-.651.112-1.237.336-1.76.234-.523.549-.965.944-1.328.405-.373.88-.656 1.424-.848a4.946 4.946 0 012.592-.224c.288.053.56.128.816.224.266.085.506.197.72.336.224.128.416.272.576.432l-1.52 1.76zm7.726.496c0-.416-.133-.773-.4-1.072-.256-.299-.645-.448-1.168-.448-.256 0-.49.043-.704.128-.213.075-.4.181-.56.32-.16.139-.288.304-.384.496a1.373 1.373 0 00-.16.576h3.376zm2.416 1.008v.32c0 .107-.005.208-.016.304h-5.776c.022.224.086.427.192.608.118.181.262.341.432.48.182.128.379.229.592.304.224.075.454.112.688.112.416 0 .768-.075 1.056-.224.288-.16.523-.363.704-.608l1.824 1.152a3.737 3.737 0 01-1.488 1.264c-.608.288-1.317.432-2.128.432a5.246 5.246 0 01-1.696-.272 4.405 4.405 0 01-1.408-.816 4.021 4.021 0 01-.944-1.328c-.224-.523-.336-1.12-.336-1.792 0-.651.112-1.237.336-1.76a3.9 3.9 0 01.912-1.344 4.02 4.02 0 011.36-.864 4.645 4.645 0 011.696-.304c.587 0 1.126.101 1.616.304.491.192.912.475 1.264.848s.624.827.816 1.36c.203.533.304 1.141.304 1.824zm10.188-.128c0 .555-.086 1.088-.256 1.6a4.148 4.148 0 01-.752 1.36c-.32.384-.715.693-1.184.928-.47.235-1.003.352-1.6.352-.534 0-1.04-.107-1.52-.32a2.548 2.548 0 01-1.088-.944h-.032v1.04h-2.416v-12.096h2.624v4.976h.032c.224-.267.538-.512.944-.736.405-.224.901-.336 1.488-.336.576 0 1.093.112 1.552.336a3.46 3.46 0 011.184.912c.33.384.581.832.752 1.344.181.501.272 1.029.272 1.584zm-2.528 0a2.28 2.28 0 00-.128-.752 1.708 1.708 0 00-.352-.64 1.821 1.821 0 00-.592-.464 1.808 1.808 0 00-.816-.176c-.299 0-.566.059-.8.176a1.987 1.987 0 00-.608.464c-.16.192-.288.411-.384.656a2.255 2.255 0 000 1.504c.096.245.224.464.384.656.17.192.373.347.608.464.234.117.501.176.8.176.309 0 .581-.059.816-.176a1.821 1.821 0 00.944-1.12c.085-.256.128-.512.128-.768zm12.323 0c0 .651-.118 1.243-.352 1.776a4.074 4.074 0 01-.96 1.344 4.483 4.483 0 01-1.408.848 4.774 4.774 0 01-1.712.304 4.854 4.854 0 01-1.712-.304 4.46 4.46 0 01-1.408-.848 4.165 4.165 0 01-.944-1.344 4.355 4.355 0 01-.352-1.776c0-.651.117-1.237.352-1.76.234-.523.549-.965.944-1.328.405-.363.874-.64 1.408-.832a5.103 5.103 0 011.712-.288 5.02 5.02 0 011.712.288 4.248 4.248 0 011.408.832c.405.363.725.805.96 1.328.234.523.352 1.109.352 1.76zm-2.528 0a2.28 2.28 0 00-.128-.752 1.909 1.909 0 00-.368-.64 1.821 1.821 0 00-.592-.464 1.808 1.808 0 00-.816-.176c-.31 0-.582.059-.816.176a1.81 1.81 0 00-.592.464 2.04 2.04 0 00-.352.64 2.556 2.556 0 000 1.504c.085.245.208.469.368.672.16.192.357.347.592.464.234.117.506.176.816.176.309 0 .581-.059.816-.176.234-.117.432-.272.592-.464.16-.203.277-.427.352-.672a2.28 2.28 0 00.128-.752zm12.317 0c0 .651-.117 1.243-.352 1.776a4.074 4.074 0 01-.96 1.344 4.471 4.471 0 01-1.408.848 4.77 4.77 0 01-1.712.304 4.858 4.858 0 01-1.712-.304 4.471 4.471 0 01-1.408-.848 4.18 4.18 0 01-.944-1.344 4.355 4.355 0 01-.352-1.776c0-.651.117-1.237.352-1.76.235-.523.549-.965.944-1.328.405-.363.875-.64 1.408-.832a5.107 5.107 0 011.712-.288c.608 0 1.179.096 1.712.288a4.238 4.238 0 011.408.832c.405.363.725.805.96 1.328s.352 1.109.352 1.76zm-2.528 0a2.28 2.28 0 00-.128-.752 1.892 1.892 0 00-.368-.64 1.81 1.81 0 00-.592-.464 1.808 1.808 0 00-.816-.176c-.309 0-.581.059-.816.176a1.81 1.81 0 00-.592.464 2.06 2.06 0 00-.352.64 2.556 2.556 0 000 1.504c.085.245.208.469.368.672.16.192.357.347.592.464.235.117.507.176.816.176.309 0 .581-.059.816-.176a1.81 1.81 0 00.592-.464c.16-.203.277-.427.352-.672a2.28 2.28 0 00.128-.752zm12.429 4.016h-3.248l-2.608-3.824h-.048v3.824h-2.64v-12.096h2.64v7.36h.048l2.544-3.232h3.184l-3.072 3.6 3.2 4.368zm-49.291 16.16c0 .661-.122 1.221-.368 1.68a3.036 3.036 0 01-.992 1.088c-.416.277-.896.48-1.44.608a7.379 7.379 0 01-1.696.192h-1.36v4.272h-2.736v-11.328h4.16c.619 0 1.195.064 1.728.192a3.815 3.815 0 011.408.592c.406.267.72.624.944 1.072.235.437.352.981.352 1.632zm-2.736.016c0-.267-.053-.485-.16-.656a1.103 1.103 0 00-.432-.4 1.856 1.856 0 00-.624-.192 4.97 4.97 0 00-.704-.048h-1.2v2.672h1.152c.256 0 .502-.021.736-.064a1.88 1.88 0 00.624-.224c.192-.107.342-.245.448-.416a1.3 1.3 0 00.16-.672zm6.372-2.688c0 .203-.042.395-.128.576-.074.171-.181.32-.32.448a1.375 1.375 0 01-.48.304 1.49 1.49 0 01-.576.112c-.426 0-.784-.139-1.072-.416a1.399 1.399 0 01-.432-1.024c0-.192.038-.373.112-.544.075-.181.182-.336.32-.464.139-.128.299-.229.48-.304a1.49 1.49 0 011.168-.016c.192.075.352.176.48.304.139.128.246.283.32.464.086.171.128.357.128.56zm-2.816 10.512v-7.968h2.624v7.968h-2.624zm9.823 0l-1.712-2.448-1.76 2.448h-3.04l3.184-4.176-2.88-3.792h3.056l1.488 2.128 1.504-2.128h2.96l-2.864 3.792 3.152 4.176h-3.088zm8.868-4.896c0-.416-.133-.773-.4-1.072-.256-.299-.645-.448-1.168-.448-.256 0-.49.043-.704.128-.213.075-.4.181-.56.32-.16.139-.288.304-.384.496a1.373 1.373 0 00-.16.576h3.376zm2.416 1.008v.32c0 .107-.005.208-.016.304h-5.776c.022.224.086.427.192.608.118.181.262.341.432.48.182.128.379.229.592.304.224.075.454.112.688.112.416 0 .768-.075 1.056-.224.288-.16.523-.363.704-.608l1.824 1.152a3.737 3.737 0 01-1.488 1.264c-.608.288-1.317.432-2.128.432a5.246 5.246 0 01-1.696-.272 4.405 4.405 0 01-1.408-.816 4.021 4.021 0 01-.944-1.328c-.224-.523-.336-1.12-.336-1.792 0-.651.112-1.237.336-1.76a3.9 3.9 0 01.912-1.344 4.02 4.02 0 011.36-.864 4.645 4.645 0 011.696-.304c.587 0 1.126.101 1.616.304.491.192.912.475 1.264.848s.624.827.816 1.36c.203.533.304 1.141.304 1.824zm1.339 3.888v-12.096h2.656v12.096h-2.656zm11.822-8.432c0 .352-.043.661-.128.928a2.631 2.631 0 01-.368.736 3.44 3.44 0 01-.56.64c-.213.192-.459.395-.736.608-.171.139-.315.261-.432.368a1.483 1.483 0 00-.256.336 1.29 1.29 0 00-.144.352 2.493 2.493 0 00-.032.432v.416H142.3v-.608c0-.277.027-.523.08-.736.053-.224.133-.427.24-.608.107-.181.235-.357.384-.528.16-.171.347-.347.56-.528l.528-.496c.181-.16.336-.325.464-.496.128-.181.192-.395.192-.64 0-.341-.107-.613-.32-.816-.203-.203-.485-.304-.848-.304-.448 0-.784.155-1.008.464-.224.299-.347.64-.368 1.024l-2.544-.272a4.365 4.365 0 01.432-1.52c.235-.437.533-.8.896-1.088a3.673 3.673 0 011.232-.64 4.685 4.685 0 011.456-.224c.48 0 .944.064 1.392.192a3.36 3.36 0 011.216.576c.352.256.635.587.848.992.213.405.32.885.32 1.44zm-2.336 7.072c0 .427-.149.789-.448 1.088a1.53 1.53 0 01-1.104.432c-.213 0-.416-.037-.608-.112a1.646 1.646 0 01-.496-.32 1.688 1.688 0 01-.336-.48 1.49 1.49 0 01-.016-1.168 1.62 1.62 0 01.336-.496c.149-.139.32-.245.512-.32.192-.085.395-.128.608-.128.213 0 .411.043.592.128.192.075.357.181.496.32.149.128.261.288.336.48.085.181.128.373.128.576zM236.516 256.666v8.992h-2.736v-8.992h-3.2v-2.336h9.136v2.336h-3.2zm7.715 3.168a2.069 2.069 0 00-.352-.064 3.428 3.428 0 00-.32-.016c-.352 0-.651.064-.896.192a1.93 1.93 0 00-.576.464 1.84 1.84 0 00-.304.592 1.99 1.99 0 00-.096.56v4.096h-2.624v-7.968h2.528v1.152h.032c.203-.405.491-.736.864-.992a2.234 2.234 0 011.296-.384c.107 0 .208.006.304.016.107.011.192.027.256.048l-.112 2.304zm5.31 2.352h-.336c-.288 0-.582.016-.88.048-.288.022-.55.07-.784.144a1.411 1.411 0 00-.56.336c-.15.139-.224.326-.224.56 0 .15.032.278.096.384a.872.872 0 00.272.256c.106.064.229.112.368.144.138.022.272.032.4.032.533 0 .938-.144 1.216-.432.288-.298.432-.698.432-1.2v-.272zm-4.816-3.408a4.603 4.603 0 011.632-1.008 5.684 5.684 0 011.92-.336c.672 0 1.237.086 1.696.256.469.16.848.416 1.136.768.288.342.496.779.624 1.312.138.523.208 1.147.208 1.872v4.016h-2.4v-.848h-.048c-.203.331-.512.587-.928.768a3.206 3.206 0 01-1.328.272 4.05 4.05 0 01-.992-.128 2.986 2.986 0 01-.944-.416 2.276 2.276 0 01-.688-.768c-.182-.32-.272-.714-.272-1.184 0-.576.154-1.04.464-1.392.32-.352.725-.624 1.216-.816a6.555 6.555 0 011.664-.384c.608-.064 1.2-.096 1.776-.096v-.128c0-.394-.139-.682-.416-.864-.278-.192-.619-.288-1.024-.288a2.6 2.6 0 00-1.088.24c-.342.16-.635.352-.88.576l-1.328-1.424zm14.342 1.488a1.597 1.597 0 00-.608-.464 1.868 1.868 0 00-.784-.176 1.6 1.6 0 00-.752.176 1.688 1.688 0 00-.576.448c-.16.182-.288.395-.384.64a2.383 2.383 0 00-.128.784c0 .278.043.539.128.784.086.246.208.464.368.656.171.182.368.326.592.432.235.107.496.16.784.16.267 0 .528-.048.784-.144.267-.106.48-.256.64-.448l1.456 1.776c-.33.32-.757.571-1.28.752a5.02 5.02 0 01-1.664.272 5.253 5.253 0 01-1.76-.288 4.213 4.213 0 01-1.424-.832 4.196 4.196 0 01-.944-1.344c-.224-.522-.336-1.114-.336-1.776 0-.65.112-1.237.336-1.76.235-.522.55-.965.944-1.328.406-.373.88-.656 1.424-.848a4.973 4.973 0 012.592-.224c.288.054.56.128.816.224.267.086.507.198.72.336.224.128.416.272.576.432l-1.52 1.76zm10.799 5.392h-3.248l-2.608-3.824h-.048v3.824h-2.64v-12.096h2.64v7.36h.048l2.544-3.232h3.184l-3.072 3.6 3.2 4.368zm3.484-10.512c0 .203-.043.395-.128.576a1.34 1.34 0 01-.32.448 1.36 1.36 0 01-.48.304 1.497 1.497 0 01-.576.112c-.427 0-.784-.138-1.072-.416a1.399 1.399 0 01-.432-1.024c0-.192.037-.373.112-.544.074-.181.181-.336.32-.464.138-.128.298-.229.48-.304.181-.085.378-.128.592-.128.202 0 .394.038.576.112.192.075.352.176.48.304.138.128.245.283.32.464.085.171.128.358.128.56zm-2.816 10.512v-7.968h2.624v7.968h-2.624zm9.614 0v-4.352a3.08 3.08 0 00-.064-.64 1.557 1.557 0 00-.176-.528.877.877 0 00-.368-.368c-.149-.096-.341-.144-.576-.144-.235 0-.443.048-.624.144a1.192 1.192 0 00-.432.368c-.117.16-.208.347-.272.56-.053.203-.08.416-.08.64v4.32h-2.64v-7.968h2.544v1.104h.032c.096-.17.219-.336.368-.496.16-.17.341-.314.544-.432.213-.117.443-.213.688-.288.245-.074.507-.112.784-.112.533 0 .987.096 1.36.288.373.192.672.443.896.752.235.299.4.646.496 1.04.107.395.16.79.16 1.184v4.928h-2.64zm12.755-.752c0 .779-.112 1.456-.336 2.032-.224.576-.538 1.051-.944 1.424a3.717 3.717 0 01-1.488.848 6.046 6.046 0 01-1.92.288 7.881 7.881 0 01-2.176-.32 5.934 5.934 0 01-1.92-.928l1.312-1.872c.384.342.806.592 1.264.752.47.171.928.256 1.376.256.768 0 1.334-.202 1.696-.608.374-.405.56-.944.56-1.616v-.48h-.048c-.245.32-.576.576-.992.768-.416.192-.89.288-1.424.288-.608 0-1.146-.106-1.616-.32a3.725 3.725 0 01-1.2-.896 3.976 3.976 0 01-.736-1.296 4.896 4.896 0 01-.256-1.584c0-.554.086-1.082.256-1.584.171-.501.416-.944.736-1.328a3.63 3.63 0 011.2-.912c.47-.234 1.003-.352 1.6-.352.502 0 .982.102 1.44.304.459.203.827.518 1.104.944h.032v-1.024h2.48v7.216zm-2.496-3.28c0-.266-.048-.522-.144-.768a1.769 1.769 0 00-.384-.64 1.797 1.797 0 00-1.408-.608c-.298 0-.565.054-.8.16a1.789 1.789 0 00-.576.432c-.16.182-.282.395-.368.64a2.383 2.383 0 00-.128.784c0 .267.043.523.128.768.086.246.208.464.368.656.16.182.352.331.576.448.235.107.502.16.8.16.299 0 .566-.053.8-.16.246-.117.448-.266.608-.448.171-.181.299-.394.384-.64.096-.245.144-.506.144-.784zm12.644.56h-.336c-.288 0-.582.016-.88.048-.288.022-.55.07-.784.144a1.411 1.411 0 00-.56.336c-.15.139-.224.326-.224.56 0 .15.032.278.096.384a.872.872 0 00.272.256c.106.064.229.112.368.144.138.022.272.032.4.032.533 0 .938-.144 1.216-.432.288-.298.432-.698.432-1.2v-.272zm-4.816-3.408a4.603 4.603 0 011.632-1.008 5.684 5.684 0 011.92-.336c.672 0 1.237.086 1.696.256.469.16.848.416 1.136.768.288.342.496.779.624 1.312.138.523.208 1.147.208 1.872v4.016h-2.4v-.848h-.048c-.203.331-.512.587-.928.768a3.206 3.206 0 01-1.328.272 4.05 4.05 0 01-.992-.128 2.986 2.986 0 01-.944-.416 2.276 2.276 0 01-.688-.768c-.182-.32-.272-.714-.272-1.184 0-.576.154-1.04.464-1.392.32-.352.725-.624 1.216-.816a6.555 6.555 0 011.664-.384c.608-.064 1.2-.096 1.776-.096v-.128c0-.394-.139-.682-.416-.864-.278-.192-.619-.288-1.024-.288a2.6 2.6 0 00-1.088.24c-.342.16-.635.352-.88.576l-1.328-1.424zm14.086 6.88v-4.352a3.08 3.08 0 00-.064-.64 1.536 1.536 0 00-.176-.528.877.877 0 00-.368-.368c-.149-.096-.341-.144-.576-.144-.234 0-.442.048-.624.144-.17.086-.314.208-.432.368-.117.16-.208.347-.272.56-.053.203-.08.416-.08.64v4.32h-2.64v-7.968h2.544v1.104h.032c.096-.17.219-.336.368-.496.16-.17.342-.314.544-.432.214-.117.443-.213.688-.288.246-.074.507-.112.784-.112.534 0 .987.096 1.36.288.374.192.672.443.896.752.235.299.4.646.496 1.04.107.395.16.79.16 1.184v4.928h-2.64zm10.34 0v-1.04h-.032c-.256.406-.624.72-1.104.944-.47.214-.971.32-1.504.32-.598 0-1.131-.117-1.6-.352a3.793 3.793 0 01-1.2-.928 4.272 4.272 0 01-.736-1.36 5.015 5.015 0 01-.256-1.6c0-.554.085-1.082.256-1.584.181-.512.432-.96.752-1.344.33-.384.725-.688 1.184-.912a3.593 3.593 0 011.568-.336c.586 0 1.082.112 1.488.336.405.224.72.47.944.736h.032v-4.976h2.624v12.096h-2.416zm-.096-4a2.05 2.05 0 00-.144-.752 1.959 1.959 0 00-.384-.656 1.772 1.772 0 00-1.392-.64c-.31 0-.582.059-.816.176a1.824 1.824 0 00-.592.464c-.16.182-.283.395-.368.64a2.561 2.561 0 00-.112.752c0 .256.037.512.112.768.085.246.208.464.368.656s.357.347.592.464c.234.118.506.176.816.176a1.759 1.759 0 001.392-.64c.17-.192.298-.41.384-.656.096-.245.144-.496.144-.752zm-73.146 19.008v8.992h-2.736v-8.992h-3.2v-2.336h9.136v2.336h-3.2zm7.157 5.52h-.336c-.288 0-.581.016-.88.048-.288.022-.549.07-.784.144-.224.075-.41.187-.56.336a.73.73 0 00-.224.56c0 .15.032.278.096.384a.895.895 0 00.272.256c.107.064.23.112.368.144.139.022.272.032.4.032.534 0 .939-.144 1.216-.432.288-.298.432-.698.432-1.2v-.272zm-4.816-3.408a4.62 4.62 0 011.632-1.008 5.693 5.693 0 011.92-.336c.672 0 1.238.086 1.696.256.47.16.848.416 1.136.768.288.342.496.779.624 1.312.139.523.208 1.147.208 1.872v4.016h-2.4v-.848h-.048c-.202.331-.512.587-.928.768a3.203 3.203 0 01-1.328.272c-.32 0-.65-.042-.992-.128a2.996 2.996 0 01-.944-.416 2.297 2.297 0 01-.688-.768c-.181-.32-.272-.714-.272-1.184 0-.576.155-1.04.464-1.392.32-.352.726-.624 1.216-.816a6.565 6.565 0 011.664-.384c.608-.064 1.2-.096 1.776-.096v-.128c0-.394-.138-.682-.416-.864-.277-.192-.618-.288-1.024-.288-.373 0-.736.08-1.088.24-.341.16-.634.352-.88.576l-1.328-1.424zm17.303 6.128c0 .779-.112 1.456-.336 2.032a3.745 3.745 0 01-.944 1.424 3.73 3.73 0 01-1.488.848 6.046 6.046 0 01-1.92.288c-.704 0-1.43-.106-2.176-.32a5.934 5.934 0 01-1.92-.928l1.312-1.872c.384.342.805.592 1.264.752.469.171.928.256 1.376.256.768 0 1.333-.202 1.696-.608.373-.405.56-.944.56-1.616v-.48h-.048c-.246.32-.576.576-.992.768-.416.192-.891.288-1.424.288-.608 0-1.147-.106-1.616-.32a3.703 3.703 0 01-1.2-.896 3.958 3.958 0 01-.736-1.296 4.87 4.87 0 01-.256-1.584c0-.554.085-1.082.256-1.584.17-.501.416-.944.736-1.328a3.61 3.61 0 011.2-.912c.469-.234 1.002-.352 1.6-.352.501 0 .981.102 1.44.304.458.203.826.518 1.104.944h.032v-1.024h2.48v7.216zm-2.496-3.28c0-.266-.048-.522-.144-.768a1.797 1.797 0 00-.384-.64 1.817 1.817 0 00-.608-.448 1.927 1.927 0 00-.8-.16 1.92 1.92 0 00-.8.16 1.789 1.789 0 00-.576.432c-.16.182-.283.395-.368.64a2.357 2.357 0 00-.128.784c0 .267.042.523.128.768.085.246.208.464.368.656.16.182.352.331.576.448.234.107.501.16.8.16.298 0 .565-.053.8-.16.245-.117.448-.266.608-.448a1.78 1.78 0 00.384-.64c.096-.245.144-.506.144-.784zm12.707 3.28c0 .779-.112 1.456-.336 2.032a3.745 3.745 0 01-.944 1.424 3.717 3.717 0 01-1.488.848 6.046 6.046 0 01-1.92.288 7.881 7.881 0 01-2.176-.32 5.934 5.934 0 01-1.92-.928l1.312-1.872c.384.342.805.592 1.264.752.469.171.928.256 1.376.256.768 0 1.333-.202 1.696-.608.373-.405.56-.944.56-1.616v-.48h-.048c-.245.32-.576.576-.992.768-.416.192-.891.288-1.424.288-.608 0-1.147-.106-1.616-.32a3.725 3.725 0 01-1.2-.896 3.976 3.976 0 01-.736-1.296 4.87 4.87 0 01-.256-1.584c0-.554.085-1.082.256-1.584.171-.501.416-.944.736-1.328a3.63 3.63 0 011.2-.912c.469-.234 1.003-.352 1.6-.352.501 0 .981.102 1.44.304.459.203.827.518 1.104.944h.032v-1.024h2.48v7.216zm-2.496-3.28c0-.266-.048-.522-.144-.768a1.769 1.769 0 00-.384-.64 1.807 1.807 0 00-.608-.448 1.924 1.924 0 00-.8-.16c-.299 0-.565.054-.8.16a1.789 1.789 0 00-.576.432c-.16.182-.283.395-.368.64a2.383 2.383 0 00-.128.784c0 .267.043.523.128.768.085.246.208.464.368.656.16.182.352.331.576.448.235.107.501.16.8.16.299 0 .565-.053.8-.16.245-.117.448-.266.608-.448.171-.181.299-.394.384-.64.096-.245.144-.506.144-.784zm7.107-6.48c0 .203-.042.395-.128.576-.074.171-.181.32-.32.448a1.36 1.36 0 01-.48.304 1.49 1.49 0 01-.576.112c-.426 0-.784-.138-1.072-.416a1.399 1.399 0 01-.432-1.024c0-.192.038-.373.112-.544.075-.181.182-.336.32-.464.139-.128.299-.229.48-.304a1.38 1.38 0 01.592-.128c.203 0 .395.038.576.112.192.075.352.176.48.304.139.128.246.283.32.464.086.171.128.358.128.56zm-2.816 10.512v-7.968h2.624v7.968h-2.624zm9.615 0v-4.352a3.15 3.15 0 00-.064-.64 1.557 1.557 0 00-.176-.528.882.882 0 00-.368-.368c-.15-.096-.342-.144-.576-.144-.235 0-.443.048-.624.144a1.192 1.192 0 00-.432.368c-.118.16-.208.347-.272.56-.054.203-.08.416-.08.64v4.32h-2.64v-7.968h2.544v1.104h.032c.096-.17.218-.336.368-.496.16-.17.341-.314.544-.432a3.61 3.61 0 01.688-.288c.245-.074.506-.112.784-.112.533 0 .986.096 1.36.288.373.192.672.443.896.752.234.299.4.646.496 1.04.106.395.16.79.16 1.184v4.928h-2.64zm12.755-.752c0 .779-.112 1.456-.336 2.032a3.745 3.745 0 01-.944 1.424 3.717 3.717 0 01-1.488.848 6.046 6.046 0 01-1.92.288 7.881 7.881 0 01-2.176-.32 5.934 5.934 0 01-1.92-.928l1.312-1.872c.384.342.805.592 1.264.752.469.171.928.256 1.376.256.768 0 1.333-.202 1.696-.608.373-.405.56-.944.56-1.616v-.48h-.048c-.245.32-.576.576-.992.768-.416.192-.891.288-1.424.288-.608 0-1.147-.106-1.616-.32a3.725 3.725 0 01-1.2-.896 3.976 3.976 0 01-.736-1.296 4.87 4.87 0 01-.256-1.584c0-.554.085-1.082.256-1.584.171-.501.416-.944.736-1.328a3.63 3.63 0 011.2-.912c.469-.234 1.003-.352 1.6-.352.501 0 .981.102 1.44.304.459.203.827.518 1.104.944h.032v-1.024h2.48v7.216zm-2.496-3.28c0-.266-.048-.522-.144-.768a1.769 1.769 0 00-.384-.64 1.807 1.807 0 00-.608-.448 1.924 1.924 0 00-.8-.16c-.299 0-.565.054-.8.16a1.789 1.789 0 00-.576.432c-.16.182-.283.395-.368.64a2.383 2.383 0 00-.128.784c0 .267.043.523.128.768.085.246.208.464.368.656.16.182.352.331.576.448.235.107.501.16.8.16.299 0 .565-.053.8-.16.245-.117.448-.266.608-.448.171-.181.299-.394.384-.64.096-.245.144-.506.144-.784zm11.667-4.4c0 .352-.042.662-.128.928a2.631 2.631 0 01-.368.736 3.41 3.41 0 01-.56.64c-.213.192-.458.395-.736.608-.17.139-.314.262-.432.368a1.513 1.513 0 00-.256.336 1.29 1.29 0 00-.144.352 2.51 2.51 0 00-.032.432v.416h-2.496v-.608c0-.277.027-.522.08-.736.054-.224.134-.426.24-.608.107-.181.235-.357.384-.528.16-.17.347-.346.56-.528l.528-.496a3.28 3.28 0 00.464-.496 1.08 1.08 0 00.192-.64c0-.341-.106-.613-.32-.816-.202-.202-.485-.304-.848-.304-.448 0-.784.155-1.008.464-.224.299-.346.64-.368 1.024l-2.544-.272a4.372 4.372 0 01.432-1.52c.235-.437.534-.8.896-1.088a3.683 3.683 0 011.232-.64 4.685 4.685 0 011.456-.224c.48 0 .944.064 1.392.192.459.118.864.31 1.216.576.352.256.635.587.848.992.214.406.32.886.32 1.44zm-2.336 7.072c0 .427-.149.79-.448 1.088a1.527 1.527 0 01-1.104.432c-.213 0-.416-.037-.608-.112a1.64 1.64 0 01-.496-.32 1.7 1.7 0 01-.336-.48 1.374 1.374 0 01-.128-.592c0-.202.038-.394.112-.576.086-.192.198-.357.336-.496.15-.138.32-.245.512-.32.192-.085.395-.128.608-.128.214 0 .411.043.592.128.192.075.358.182.496.32.15.128.262.288.336.48.086.182.128.374.128.576z"/><defs><filter id="filter0_d" width="380.34" height="350.34" x=".828" y=".83" color-interpolation-filters="sRGB" filterUnits="userSpaceOnUse"><feFlood flood-opacity="0" result="BackgroundImageFix"/><feColorMatrix in="SourceAlpha" values="0 0 0 0 0 0 0 0 0 0 0 0 0 0 0 0 0 0 127 0"/><feOffset dy="5"/><feGaussianBlur stdDeviation="3.5"/><feColorMatrix values="0 0 0 0 0 0 0 0 0 0 0 0 0 0 0 0 0 0 0.05 0"/><feBlend in2="BackgroundImageFix" result="effect1_dropShadow"/><feBlend in="SourceGraphic" in2="effect1_dropShadow" result="shape"/></filter></defs></svg>