<?xml version="1.0" standalone="no"?>
<!DOCTYPE svg PUBLIC "-//W3C//DTD SVG 1.1//EN" "http://www.w3.org/Graphics/SVG/1.1/DTD/svg11.dtd" >
<svg>
<metadata>
Created by FontForge 20120731 at Sat Aug 24 11:53:26 2019
 By www
Copyright (c) 1986, 1992 Adobe Systems Incorporated.  All Rights Reserved.ITC Franklin Gothic is a registered trademark of International Typeface Corporation.
</metadata>
<defs>
<font id="FranklinGothic-Heavy" horiz-adv-x="600" >
  <font-face 
    font-family="ITC Franklin Gothic"
    font-weight="500"
    font-stretch="normal"
    units-per-em="1000"
    panose-1="0 0 0 0 0 0 0 0 0 0"
    ascent="800"
    descent="-200"
    x-height="511"
    cap-height="686"
    bbox="-208 -250 1044 931"
    underline-thickness="50"
    underline-position="-75"
    stemh="153"
    stemv="198"
    unicode-range="U+0020-FB02"
  />
<missing-glyph horiz-adv-x="300" 
 />
    <glyph glyph-name=".notdef" horiz-adv-x="300" 
 />
    <glyph glyph-name="space" unicode=" " horiz-adv-x="300" 
 />
    <glyph glyph-name="exclam" unicode="!" horiz-adv-x="320" 
d="M279 686l-57 -455h-127l-54 455h238zM256 183v-183h-191v183h191z" />
    <glyph glyph-name="quotedbl" unicode="&#x22;" horiz-adv-x="520" 
d="M284 686h155v-147l-48 -143h-60l-47 143v147zM81 686h155v-147l-47 -143h-61l-47 143v147z" />
    <glyph glyph-name="numbersign" unicode="#" 
d="M212 696h119l-44 -194h110l43 194h117l-45 -194h91v-108h-110l-26 -121h104v-107h-131l-36 -166h-116l36 166h-112l-35 -166h-117l35 166h-98v107h123l28 121h-106v108h127zM263 393l-27 -121h113l28 121h-114z" />
    <glyph glyph-name="dollar" unicode="$" 
d="M252 671v85h96v-83h2c99 -12 175 -57 210 -155l-157 -49c-17 46 -51 64 -99 64c-27 0 -62 -7 -62 -41c0 -32 45 -39 69 -45c60 -13 125 -23 179 -54c58 -34 87 -94 87 -160c0 -131 -109 -198 -227 -212l-2 -1v-87h-96v88c-111 11 -203 79 -229 191l176 33
c16 -56 56 -77 112 -77c26 0 73 4 73 39c0 38 -46 46 -75 52c-120 24 -254 57 -254 208c0 115 88 191 197 204z" />
    <glyph glyph-name="percent" unicode="%" horiz-adv-x="740" 
d="M625 686l-417 -686h-95l419 686h93zM564 0c-98 0 -139 88 -139 174c0 89 38 179 139 179c102 0 140 -89 140 -179c0 -88 -42 -174 -140 -174zM564 75c40 0 37 73 37 100c0 25 3 104 -35 104c-36 0 -35 -71 -35 -96s-4 -108 33 -108zM174 333c-98 0 -139 88 -139 174
c0 89 38 179 139 179c102 0 140 -89 140 -179c0 -88 -42 -174 -140 -174zM173 408c40 0 37 73 37 100c0 25 3 104 -35 104c-36 0 -35 -71 -35 -96s-4 -108 33 -108z" />
    <glyph glyph-name="ampersand" unicode="&#x26;" horiz-adv-x="780" 
d="M394 166l-114 125c-34 -15 -50 -40 -50 -77c0 -51 39 -76 87 -76c27 0 57 8 77 28zM363 458c28 9 50 33 50 64s-22 51 -52 51c-26 0 -48 -16 -48 -44s29 -54 50 -71zM443 359l70 -74c31 30 43 75 52 116l178 -21c-18 -79 -53 -157 -113 -212c21 -17 42 -19 68 -19l45 3
v-148c-26 -7 -54 -11 -81 -11c-65 0 -111 15 -162 55c-47 -43 -134 -58 -196 -58c-132 0 -276 59 -276 211c0 104 69 157 159 189c-31 40 -56 81 -56 134c0 128 116 172 226 172c106 0 216 -46 216 -168c0 -83 -53 -143 -130 -169z" />
    <glyph glyph-name="quoteright" unicode="&#x2019;" horiz-adv-x="300" 
d="M241 686v-144l-94 -152h-79l69 136h-69v160h173z" />
    <glyph glyph-name="parenleft" unicode="(" horiz-adv-x="380" 
d="M204 686h135c-85 -123 -130 -273 -130 -423c0 -70 10 -139 29 -206c24 -84 48 -129 92 -202l9 -16h-135l-7 8c-47 66 -81 116 -110 192c-26 70 -42 152 -42 226c0 155 57 304 159 421z" />
    <glyph glyph-name="parenright" unicode=")" horiz-adv-x="380" 
d="M39 686h135c102 -117 159 -266 159 -421c0 -74 -16 -156 -42 -226c-29 -76 -63 -126 -110 -192l-7 -8h-135l9 16c44 73 68 118 92 202c19 67 29 136 29 206c0 150 -45 300 -130 423z" />
    <glyph glyph-name="asterisk" unicode="*" 
d="M477 335l-100 -70l-79 131l-78 -131l-100 70l100 113l-147 35l39 110l140 -60l-13 153h120l-15 -153l148 60l35 -110l-150 -35z" />
    <glyph glyph-name="plus" unicode="+" 
d="M225 363v181h150v-181h181v-150h-181v-181h-150v181h-181v150h181z" />
    <glyph glyph-name="comma" unicode="," horiz-adv-x="300" 
d="M244 182v-168l-110 -190h-79l79 176h-79v182h189z" />
    <glyph glyph-name="hyphen" unicode="-" horiz-adv-x="260" 
d="M254 354v-158h-254v158h254z" />
    <glyph glyph-name="period" unicode="." horiz-adv-x="300" 
d="M246 183v-183h-191v183h191z" />
    <glyph glyph-name="slash" unicode="/" 
d="M596 686l-489 -857h-132l490 857h131z" />
    <glyph glyph-name="zero" unicode="0" 
d="M300 696c204 0 273 -185 273 -358c0 -170 -77 -348 -273 -348s-273 178 -273 348c0 173 69 358 273 358zM300 552c-21 0 -75 11 -75 -214c0 -200 49 -203 75 -203s75 3 75 203c0 225 -54 214 -75 214z" />
    <glyph glyph-name="one" unicode="1" 
d="M402 153h162v-153h-527v153h169v326l-8 -4c-46 -20 -92 -40 -143 -47v155c72 16 158 48 198 113h149v-543z" />
    <glyph glyph-name="two" unicode="2" 
d="M565 168l-8 -168h-522v157l233 175c42 36 92 78 92 138c0 40 -25 72 -67 72c-64 0 -82 -66 -85 -119l-173 34c19 147 125 239 273 239c137 0 253 -74 253 -222c0 -74 -34 -129 -88 -177l-159 -119l-16 -10h267z" />
    <glyph glyph-name="three" unicode="3" 
d="M18 209l179 23c7 -55 43 -94 101 -94c44 0 85 23 85 72c0 23 -14 46 -33 59c-18 12 -49 10 -71 10h-70v144h57c19 0 51 -1 68 7c21 10 33 31 33 54c0 41 -34 64 -73 64c-47 0 -78 -33 -85 -79l-166 27c30 133 140 200 272 200c51 0 114 -13 159 -39
c52 -31 87 -89 87 -151c0 -68 -36 -127 -102 -148c79 -24 123 -76 123 -161c0 -154 -140 -207 -272 -207c-150 0 -256 70 -292 219z" />
    <glyph glyph-name="four" unicode="4" 
d="M583 151h-97v-151h-189v151h-280v148l258 397h211v-397h97v-148zM297 299v206l-130 -206h130z" />
    <glyph glyph-name="five" unicode="5" 
d="M526 517h-287l-9 -97c37 25 80 38 124 38c56 0 118 -24 158 -62c44 -43 65 -102 65 -163c0 -155 -129 -243 -274 -243c-135 0 -256 70 -280 210l177 22c9 -49 50 -75 98 -75c47 0 82 34 82 82c0 51 -36 84 -86 84c-33 0 -63 -15 -80 -43l-158 22l30 394h458z" />
    <glyph glyph-name="six" unicode="6" 
d="M556 492l-175 -21c-4 43 -17 82 -68 82c-79 0 -85 -121 -86 -178c31 48 83 63 138 63c126 0 209 -89 209 -213c0 -148 -125 -235 -263 -235c-197 0 -285 157 -285 336c0 180 76 370 284 370c129 0 230 -73 246 -204zM307 129c45 0 74 38 74 81s-27 84 -73 84
c-47 0 -79 -38 -79 -83c0 -46 30 -82 78 -82z" />
    <glyph glyph-name="seven" unicode="7" 
d="M554 686v-129c-110 -136 -182 -341 -182 -516l2 -41h-227c6 189 91 374 217 514h-318l15 172h493z" />
    <glyph glyph-name="eight" unicode="8" 
d="M469 373c70 -36 111 -86 111 -167c0 -163 -150 -216 -290 -216c-58 0 -124 9 -175 37c-59 31 -95 86 -95 153c0 74 41 127 108 155c-58 32 -86 85 -86 150c0 62 30 123 80 159c53 39 119 52 184 52c112 0 251 -49 251 -182c0 -70 -33 -105 -88 -141zM289 446l51 -21
c26 12 43 35 43 64c0 50 -45 72 -89 72c-33 0 -67 -15 -67 -52c0 -36 34 -51 62 -63zM313 242l-66 25c-26 -15 -48 -40 -48 -71c0 -56 56 -74 102 -74c34 0 82 11 82 53c0 38 -40 55 -70 67z" />
    <glyph glyph-name="nine" unicode="9" 
d="M46 173l176 28c5 -34 27 -63 64 -63c77 0 91 92 91 151l-1 20c-31 -46 -75 -66 -131 -66c-128 0 -217 90 -217 218c0 154 121 235 264 235c204 0 280 -157 280 -339c0 -84 -17 -172 -61 -245c-52 -87 -132 -122 -232 -122c-119 0 -214 61 -233 183zM287 388
c50 0 79 35 79 83c0 45 -26 85 -74 85c-49 0 -73 -40 -73 -85c0 -42 21 -83 68 -83z" />
    <glyph glyph-name="colon" unicode=":" horiz-adv-x="300" 
d="M246 511v-183h-191v183h191zM246 183v-183h-191v183h191z" />
    <glyph glyph-name="semicolon" unicode=";" horiz-adv-x="300" 
d="M245 182v-168l-110 -190h-79l79 176h-79v182h189zM246 511v-183h-191v183h191z" />
    <glyph glyph-name="less" unicode="&#x3c;" 
d="M554 180v-166l-509 196v159l509 197v-166l-298 -112z" />
    <glyph glyph-name="equal" unicode="=" 
d="M44 334v150h512v-150h-512zM44 92v150h512v-150h-512z" />
    <glyph glyph-name="greater" unicode="&#x3e;" 
d="M45 14v166l298 108l-298 112v166l509 -197v-159z" />
    <glyph glyph-name="question" unicode="?" 
d="M222 440l-184 21c27 153 116 235 274 235c132 0 251 -72 251 -216c0 -91 -48 -132 -115 -181c-26 -19 -57 -38 -59 -81h-167v14c1 67 4 93 55 139c40 35 76 64 76 121c0 35 -20 64 -57 64c-58 0 -71 -56 -73 -103zM408 183v-183h-191v183h191z" />
    <glyph glyph-name="at" unicode="@" horiz-adv-x="800" 
d="M328 323c0 -37 22 -69 61 -69c49 0 80 43 80 89c0 38 -24 67 -63 67c-45 0 -78 -44 -78 -87zM501 475l9 40h97l-46 -273c-3 -18 -8 -33 11 -33c40 0 81 69 81 171c0 151 -97 223 -240 223c-156 0 -249 -105 -249 -259c0 -166 106 -260 265 -260c71 0 132 17 178 52h92
c-67 -92 -162 -146 -277 -146c-200 0 -361 149 -361 354c0 200 157 352 355 352c82 0 157 -25 219 -78c63 -53 104 -123 104 -207c0 -75 -21 -141 -72 -193c-36 -36 -109 -79 -161 -79c-30 0 -56 15 -54 47c-24 -26 -59 -43 -91 -43c-82 0 -156 73 -156 164
c0 111 74 215 190 215c47 0 86 -16 106 -47z" />
    <glyph glyph-name="A" unicode="A" horiz-adv-x="660" 
d="M444 0l-39 135h-183l-42 -135h-171l213 686h222l215 -686h-215zM257 285h112l-56 199z" />
    <glyph glyph-name="B" unicode="B" horiz-adv-x="660" 
d="M54 0v686h335c52 0 105 -4 148 -35c46 -33 73 -89 73 -145c0 -72 -46 -133 -116 -149v-2c79 -14 133 -74 133 -156c0 -59 -21 -125 -70 -160c-53 -38 -127 -39 -189 -39h-314zM247 153h91c21 0 44 -1 61 13c15 11 25 29 25 48c0 23 -13 44 -33 54c-18 9 -42 9 -61 9h-83
v-124zM247 423h85c20 0 44 -1 59 13c13 12 20 29 20 45c0 51 -42 58 -82 58h-82v-116z" />
    <glyph glyph-name="C" unicode="C" horiz-adv-x="660" 
d="M431 262l192 -12c-13 -158 -128 -260 -286 -260c-206 0 -314 149 -314 344c0 198 95 362 311 362c175 0 275 -104 289 -275l-196 -10c2 58 -20 131 -91 131c-93 0 -97 -143 -97 -208c0 -69 4 -186 99 -186c65 0 90 57 93 114z" />
    <glyph glyph-name="D" unicode="D" horiz-adv-x="680" 
d="M53 0v686h253c99 0 178 -13 252 -84c72 -68 105 -162 105 -260c0 -90 -32 -184 -95 -249c-68 -71 -153 -93 -248 -93h-267zM264 158h30c28 0 46 -2 72 12c19 11 34 26 45 45c24 40 32 86 32 132s-13 106 -42 144c-33 41 -65 39 -113 39h-24v-372z" />
    <glyph glyph-name="E" unicode="E" 
d="M567 164v-164h-515v686h515v-158h-309v-100h250v-153h-250v-111h309z" />
    <glyph glyph-name="F" unicode="F" horiz-adv-x="540" 
d="M481 257h-223v-257h-205v686h496v-163h-291v-112h223v-154z" />
    <glyph glyph-name="G" unicode="G" horiz-adv-x="680" 
d="M647 384v-384h-103l-28 72c-43 -58 -115 -82 -186 -82c-200 0 -307 154 -307 342c0 90 23 184 80 255c65 82 148 109 249 109c159 0 265 -81 295 -238l-204 -21c-8 55 -31 107 -95 107c-97 0 -103 -130 -103 -200c0 -40 2 -90 18 -126c17 -40 50 -66 94 -66
c54 0 94 33 94 87h-113v145h309z" />
    <glyph glyph-name="H" unicode="H" horiz-adv-x="680" 
d="M634 686v-686h-210v267h-162v-267h-210v686h210v-253h162v253h210z" />
    <glyph glyph-name="I" unicode="I" horiz-adv-x="320" 
d="M269 686v-686h-212v686h212z" />
    <glyph glyph-name="J" unicode="J" horiz-adv-x="440" 
d="M188 266v420h202v-420c0 -67 2 -148 -40 -204c-45 -60 -117 -72 -188 -72c-47 0 -94 4 -140 16v164c26 -8 54 -13 82 -13c23 0 52 6 67 25c17 22 17 57 17 84z" />
    <glyph glyph-name="K" unicode="K" horiz-adv-x="660" 
d="M670 0h-231l-118 259l-72 -100v-159h-198v686h198v-283l190 283h189l-173 -251z" />
    <glyph glyph-name="L" unicode="L" horiz-adv-x="540" 
d="M540 168v-168h-481v686h212v-518h269z" />
    <glyph glyph-name="M" unicode="M" horiz-adv-x="860" 
d="M802 686v-686h-196v490h-2l-125 -490h-134l-129 490h-2v-490h-158v686h275l98 -364h2l94 364h277z" />
    <glyph glyph-name="N" unicode="N" horiz-adv-x="700" 
d="M645 0h-172l-197 321l-61 124l-2 -2l2 -8c10 -44 14 -68 14 -115v-320h-171v686h199l230 -383l2 2l-15 190v191h171v-686z" />
    <glyph glyph-name="O" unicode="O" horiz-adv-x="700" 
d="M353 696c209 0 328 -150 328 -355c0 -195 -120 -351 -328 -351s-328 156 -328 351c0 205 119 355 328 355zM353 541c-93 0 -103 -134 -103 -201c0 -66 7 -193 103 -193s103 127 103 193c0 67 -10 201 -103 201z" />
    <glyph glyph-name="P" unicode="P" horiz-adv-x="660" 
d="M265 249v-249h-213v686h280c67 0 142 -2 201 -36c64 -38 102 -106 102 -180c0 -65 -25 -127 -76 -168c-53 -43 -121 -53 -187 -53h-107zM265 396h55c48 0 106 3 106 67c0 61 -52 66 -100 66h-61v-133z" />
    <glyph glyph-name="Q" unicode="Q" horiz-adv-x="700" 
d="M355 146c97 0 98 109 98 181c0 41 -3 97 -13 138c-12 45 -37 76 -88 76c-103 0 -100 -122 -100 -196c0 -76 -4 -199 103 -199zM23 340c0 90 25 181 84 250c66 78 146 106 246 106c212 0 327 -155 327 -357c0 -102 -36 -218 -126 -276c5 -30 41 -35 66 -35c19 0 37 3 55 8
v-156l-83 -5c-93 0 -148 33 -170 126c-29 -8 -58 -11 -88 -11c-199 0 -311 165 -311 350z" />
    <glyph glyph-name="R" unicode="R" horiz-adv-x="680" 
d="M664 0h-234l-100 262h-66v-262h-213v686h349c60 0 126 -8 177 -42c57 -36 84 -97 84 -164c0 -90 -40 -144 -121 -181zM264 409h77c46 0 101 7 101 66c0 23 -12 45 -33 56c-18 9 -40 9 -60 9h-85v-131z" />
    <glyph glyph-name="S" unicode="S" horiz-adv-x="660" 
d="M12 199l195 35c18 -61 64 -83 125 -83c27 0 81 4 81 42c0 42 -53 50 -84 56c-129 25 -282 60 -282 223c0 67 33 133 88 172c56 39 129 52 197 52c119 0 234 -49 276 -168l-174 -53c-20 51 -58 69 -111 69c-28 0 -68 -8 -68 -44s50 -43 76 -49c65 -13 134 -24 194 -55
c67 -36 102 -100 102 -175c0 -165 -164 -231 -306 -231c-144 0 -272 60 -309 209z" />
    <glyph glyph-name="T" unicode="T" horiz-adv-x="500" 
d="M350 521v-521h-200v521h-144v165h485v-165h-141z" />
    <glyph glyph-name="U" unicode="U" horiz-adv-x="660" 
d="M607 686v-441c0 -80 -9 -144 -75 -197c-59 -46 -131 -58 -203 -58c-63 0 -145 14 -198 49c-73 48 -87 113 -87 195v452h214v-428c0 -23 -1 -54 13 -75c16 -22 48 -31 75 -31c24 0 54 7 72 23c27 23 24 59 24 91v420h165z" />
    <glyph glyph-name="V" unicode="V" horiz-adv-x="660" 
d="M659 686l-213 -686h-215l-221 686h221l128 -439l127 439h173z" />
    <glyph glyph-name="W" unicode="W" horiz-adv-x="920" 
d="M919 686l-182 -686h-177l-95 378h-2l-89 -378h-184l-183 686h198l95 -396h2l93 396h165l101 -396h2l95 396h161z" />
    <glyph glyph-name="X" unicode="X" horiz-adv-x="700" 
d="M666 686l-199 -319l230 -367h-244l-127 216l-127 -216h-193l221 355l-212 331h245l107 -185l110 185h189z" />
    <glyph glyph-name="Y" unicode="Y" horiz-adv-x="660" 
d="M651 686l-215 -396v-290h-204v290l-231 396h231l120 -226l115 226h184z" />
    <glyph glyph-name="Z" unicode="Z" 
d="M585 162v-162h-570v131l304 396h-281v159h538v-133l-295 -391h304z" />
    <glyph glyph-name="bracketleft" unicode="[" horiz-adv-x="380" 
d="M63 686h237v-83h-88v-681h88v-83h-237v847z" />
    <glyph glyph-name="backslash" unicode="\" 
d="M136 686l489 -857h-131l-490 857h132z" />
    <glyph glyph-name="bracketright" unicode="]" horiz-adv-x="380" 
d="M77 686h237v-847h-237v83h88v681h-88v83z" />
    <glyph glyph-name="asciicircum" unicode="^" 
d="M23 261l201 425h148l204 -425h-170l-107 249l-105 -249h-171z" />
    <glyph glyph-name="underscore" unicode="_" horiz-adv-x="500" 
d="M0 -75h500v-50h-500v50z" />
    <glyph glyph-name="quoteleft" unicode="&#x2018;" horiz-adv-x="300" 
d="M68 390v144l94 152h79l-69 -136h69v-160h-173z" />
    <glyph glyph-name="a" unicode="a" horiz-adv-x="580" 
d="M563 0h-191c-5 23 -7 47 -7 71c-40 -59 -97 -81 -167 -81c-95 0 -178 52 -178 154c0 81 63 135 134 157c65 20 134 28 201 32v4c0 46 -12 64 -60 64c-39 0 -72 -14 -78 -57l-182 17c30 127 151 160 266 160c60 0 137 -8 187 -44c67 -47 59 -113 59 -186v-179
c0 -38 1 -76 16 -112zM355 229v10c-48 -5 -128 -20 -128 -82c0 -33 21 -47 52 -47c75 0 76 63 76 119z" />
    <glyph glyph-name="b" unicode="b" horiz-adv-x="580" 
d="M241 317v-114c0 -40 5 -89 57 -89c68 0 66 91 66 140s3 140 -68 140c-18 0 -32 -9 -43 -23c-14 -17 -12 -33 -12 -54zM42 0v686h198v-236h3c28 52 71 71 131 71c143 0 192 -137 192 -259c0 -142 -60 -272 -220 -272c-68 0 -125 24 -164 80c-12 -22 -20 -46 -27 -70h-113z
" />
    <glyph glyph-name="c" unicode="c" horiz-adv-x="540" 
d="M357 206l170 -14c-18 -132 -112 -202 -242 -202c-74 0 -134 17 -188 70c-52 52 -76 121 -76 194c0 154 106 267 263 267c126 0 226 -74 241 -202l-175 -15l-1 5c-7 35 -15 75 -59 75c-63 0 -63 -83 -63 -128c0 -48 1 -126 66 -126c43 0 59 39 64 76z" />
    <glyph glyph-name="d" unicode="d" horiz-adv-x="580" 
d="M541 0h-188v68h-2c-29 -56 -72 -78 -136 -78c-147 0 -198 137 -198 263c0 131 50 268 204 268c49 0 91 -21 122 -52v217h198v-686zM343 214v103c0 20 1 44 -12 60c-9 13 -27 20 -43 20c-35 0 -50 -23 -56 -54c-6 -28 -10 -67 -10 -95c0 -45 3 -125 65 -125
c20 0 33 9 44 26c14 22 12 40 12 65z" />
    <glyph glyph-name="e" unicode="e" 
d="M389 183l187 -12c-31 -124 -141 -181 -262 -181c-75 0 -148 16 -206 67c-55 49 -84 119 -84 192c0 69 27 144 75 193c52 54 130 79 203 79c170 0 274 -110 274 -278v-27h-342c-3 -55 17 -95 77 -95c45 0 70 18 78 62zM233 316h143c0 50 -16 88 -72 88
c-52 0 -73 -41 -71 -88z" />
    <glyph glyph-name="f" unicode="f" horiz-adv-x="400" 
d="M268 368v-368h-198v368h-72v126h72v7c0 50 3 97 37 139c39 48 101 56 160 56l147 -13v-125l-90 8c-49 4 -63 -24 -58 -72h126v-126h-124z" />
    <glyph glyph-name="g" unicode="g" horiz-adv-x="580" 
d="M260 155l140 -6c44 -2 91 -8 127 -35c39 -29 59 -79 59 -127c0 -73 -49 -119 -114 -141c-55 -20 -134 -22 -194 -22c-85 0 -277 6 -277 126c0 49 29 83 74 99c-28 21 -47 45 -47 81c0 59 48 94 98 113c-53 22 -83 59 -83 118c0 132 146 160 250 160c32 0 64 -2 95 -10
c11 74 48 120 127 120l71 -4l-5 -137l-49 2c-18 0 -46 -1 -56 -19c35 -28 57 -70 57 -115c0 -128 -131 -156 -234 -156l-44 2c-17 0 -50 0 -50 -25c0 -26 37 -24 55 -24zM294 297c37 0 57 26 57 61c0 39 -20 64 -61 64c-38 0 -59 -26 -59 -63c0 -41 22 -62 63 -62zM253 6
l-36 1c-23 0 -50 -2 -50 -32c0 -24 19 -34 40 -38c32 -8 66 -9 99 -9c30 0 104 -5 104 40c0 34 -34 32 -59 33z" />
    <glyph glyph-name="h" unicode="h" horiz-adv-x="580" 
d="M541 0h-198v318c0 34 -7 63 -48 63c-19 0 -36 -9 -47 -25c-11 -14 -12 -32 -11 -49v-307h-198v686h198v-235c38 46 84 70 144 70c50 0 103 -14 131 -56c29 -44 29 -93 29 -145v-320z" />
    <glyph glyph-name="i" unicode="i" horiz-adv-x="300" 
d="M245 511v-511h-198v511h198zM245 696v-136h-198v136h198z" />
    <glyph glyph-name="j" unicode="j" horiz-adv-x="300" 
d="M250 511v-469c0 -53 3 -114 -31 -159c-39 -52 -110 -66 -169 -60l-96 9v145c14 -5 28 -9 42 -9c53 0 56 32 56 74v469h198zM250 696v-136h-198v136h198z" />
    <glyph glyph-name="k" unicode="k" horiz-adv-x="580" 
d="M573 511l-154 -176l172 -335h-207l-96 205l-50 -64v-141h-198v686h198v-370l43 57l120 138h172z" />
    <glyph glyph-name="l" unicode="l" horiz-adv-x="300" 
d="M249 686v-686h-198v686h198z" />
    <glyph glyph-name="m" unicode="m" horiz-adv-x="860" 
d="M44 511h180v-69h2c28 52 79 79 139 79c63 0 113 -24 144 -79c35 57 86 79 153 79c43 0 89 -13 119 -44c37 -38 37 -88 37 -142v-335h-194v307c0 33 4 70 -42 70c-56 0 -54 -52 -54 -93v-284h-194v307c0 32 -2 73 -45 73c-47 0 -51 -35 -51 -73v-307h-194v511z" />
    <glyph glyph-name="n" unicode="n" horiz-adv-x="580" 
d="M41 511h187v-72h2c24 58 83 82 145 82c48 0 103 -14 133 -53c32 -42 32 -100 32 -153v-315h-198v310c0 31 0 74 -43 74c-55 0 -60 -47 -60 -89v-295h-198v511z" />
    <glyph glyph-name="o" unicode="o" 
d="M301 521c160 0 281 -106 281 -270c0 -155 -125 -261 -281 -261s-281 106 -281 261c0 164 121 270 281 270zM301 396c-68 0 -69 -89 -69 -138c0 -137 33 -147 69 -147s69 10 69 147c0 49 -1 138 -69 138z" />
    <glyph glyph-name="p" unicode="p" horiz-adv-x="580" 
d="M242 321v-122c0 -36 6 -83 54 -83c28 0 46 15 54 42c8 28 10 64 10 93c0 42 1 143 -62 143c-17 0 -33 -8 -44 -21c-13 -16 -12 -32 -12 -52zM43 511h184v-73h2c21 62 77 83 145 83c144 0 192 -140 192 -260c0 -57 -9 -122 -36 -172c-33 -61 -86 -99 -157 -99
c-53 0 -101 20 -132 65v-216h-198v672z" />
    <glyph glyph-name="q" unicode="q" horiz-adv-x="580" 
d="M545 464v-625h-198v216h-2c-18 -47 -68 -65 -117 -65c-149 0 -207 133 -207 263c0 62 15 129 50 180c44 64 100 88 177 88c65 0 122 -19 154 -79l33 69h115c-3 -15 -5 -31 -5 -47zM349 199v112c0 23 0 50 -14 69c-11 15 -26 24 -44 24c-66 0 -65 -106 -65 -150
c0 -43 -2 -143 62 -143c21 0 40 12 51 29s10 40 10 59z" />
    <glyph glyph-name="r" unicode="r" horiz-adv-x="380" 
d="M209 406h2c17 71 54 121 133 115l27 -2v-179c-12 3 -25 5 -38 5c-32 0 -65 -6 -81 -35c-14 -25 -14 -58 -14 -88v-222h-198v511h169v-105z" />
    <glyph glyph-name="s" unicode="s" horiz-adv-x="540" 
d="M14 145l159 21c11 -49 66 -55 109 -55c20 0 76 2 76 32c0 26 -68 31 -86 33c-107 15 -234 36 -234 172c0 58 31 104 79 134c50 31 107 39 164 39c96 0 197 -37 231 -133l-151 -29c-15 35 -54 45 -89 45c-16 0 -64 -5 -64 -27c0 -16 17 -23 30 -26c22 -6 62 -9 86 -12
c46 -6 98 -13 139 -38c47 -30 72 -75 72 -130c0 -141 -149 -181 -264 -181c-114 0 -219 37 -257 155z" />
    <glyph glyph-name="t" unicode="t" horiz-adv-x="400" 
d="M75 381h-74v130h83l15 163l172 6v-169h102v-130h-100v-176c0 -37 -4 -66 43 -66c19 0 38 4 57 9v-143l-117 -15c-53 -7 -104 10 -143 52s-38 91 -38 146v193z" />
    <glyph glyph-name="u" unicode="u" 
d="M539 0h-187v84h-2c-21 -66 -89 -94 -155 -94c-42 0 -83 10 -114 39c-36 36 -40 81 -40 129v353h198v-309c0 -33 -1 -68 44 -68c20 0 39 11 48 29c9 17 10 35 10 54v294h198v-511z" />
    <glyph glyph-name="v" unicode="v" horiz-adv-x="540" 
d="M538 511l-187 -511h-150l-191 511h207l88 -270l90 270h143z" />
    <glyph glyph-name="w" unicode="w" horiz-adv-x="780" 
d="M761 511l-162 -511h-144l-66 277h-2l-69 -277h-142l-165 511h197l66 -250h2l63 250h148l64 -250l71 250h139z" />
    <glyph glyph-name="x" unicode="x" horiz-adv-x="580" 
d="M583 0h-226l-94 163l-100 -163h-163l179 271l-157 240h224l52 -94l5 -11l11 -18l71 123h165l-149 -232z" />
    <glyph glyph-name="y" unicode="y" horiz-adv-x="540" 
d="M533 511l-197 -542c-38 -106 -89 -146 -203 -146l-101 5v142l72 -6c27 0 87 -1 87 39c0 15 -8 32 -13 46l-179 462h215l84 -272l89 272h146z" />
    <glyph glyph-name="z" unicode="z" horiz-adv-x="500" 
d="M474 127v-127h-451v111l216 277l-64 -2h-133v125h424v-108l-219 -276h227z" />
    <glyph glyph-name="braceleft" unicode="{" horiz-adv-x="380" 
d="M117 355v207c0 85 96 124 142 124h108v-88h-47c-58 0 -58 -25 -58 -48v-194c-3 -71 -82 -85 -123 -88v-2c41 -2 120 -8 123 -96v-195c0 -23 0 -48 58 -48h47v-88h-108c-46 0 -142 38 -142 124v208c0 58 -80 56 -105 55v84c25 -1 105 -4 105 45z" />
    <glyph glyph-name="bar" unicode="|" horiz-adv-x="300" 
d="M75 750h150v-1000h-150v1000z" />
    <glyph glyph-name="braceright" unicode="}" horiz-adv-x="380" 
d="M262 171v-208c0 -86 -96 -124 -142 -124h-108v88h47c58 0 58 25 58 48v195c3 88 82 94 123 96v2c-41 3 -120 17 -123 88v194c0 23 0 48 -58 48h-47v88h108c46 0 142 -39 142 -124v-207c0 -49 80 -46 105 -45v-84c-25 1 -105 3 -105 -55z" />
    <glyph glyph-name="asciitilde" unicode="~" 
d="M162 188h-150c0 42 6 115 32 163c34 64 106 88 197 30l105 -52c83 -41 92 -2 92 60h150c0 -42 -6 -115 -32 -163c-34 -64 -106 -88 -197 -30l-105 52c-83 41 -92 2 -92 -60z" />
    <glyph glyph-name="exclamdown" unicode="&#xa1;" horiz-adv-x="320" 
d="M41 -177l57 455h127l54 -455h-238zM256 511v-183h-191v183h191z" />
    <glyph glyph-name="cent" unicode="&#xa2;" 
d="M540 428l-168 -13c0 33 -20 76 -59 76c-60 0 -65 -83 -65 -127s7 -117 65 -117c42 0 60 32 66 69l161 -14c-15 -99 -86 -169 -185 -184v-130h-96v130c-124 23 -199 116 -199 241c0 129 69 228 199 254v102h96v-102c100 -14 173 -83 185 -185z" />
    <glyph glyph-name="sterling" unicode="&#xa3;" 
d="M417 420v-118h-91c5 -62 -22 -120 -72 -159h73c62 0 94 22 103 83l161 -30c-30 -128 -112 -196 -248 -196h-334v143h12c29 0 57 0 81 18c23 19 32 43 32 71c0 24 -4 47 -8 70h-87v118h65l-7 70c0 63 22 109 72 148c49 38 116 58 179 58c97 0 192 -44 221 -142l-152 -51
c-12 29 -24 54 -61 54c-35 0 -56 -24 -56 -57c0 -27 5 -54 11 -80h106z" />
    <glyph glyph-name="fraction" unicode="&#x2044;" horiz-adv-x="120" 
d="M318 686l-417 -686h-109l420 686h106z" />
    <glyph glyph-name="yen" unicode="&#xa5;" 
d="M480 460h81v-103h-132l-23 -48h155v-103h-164v-206h-177v206h-167v103h157l-26 48h-131v103h77l-120 226h196l120 -246l115 246h150z" />
    <glyph glyph-name="florin" unicode="&#x192;" 
d="M523 375h-98l-67 -360c-10 -55 -25 -108 -72 -146c-43 -37 -114 -46 -169 -46c-35 0 -69 4 -102 12l23 119c15 -2 30 -4 46 -4c70 0 76 32 87 88l62 337h-77l24 124h77c16 137 84 197 230 197c38 0 76 -4 113 -11l-22 -120l-48 4c-57 0 -82 -14 -90 -70h106z" />
    <glyph glyph-name="section" unicode="&#xa7;" 
d="M51 -11l148 25c21 -46 66 -66 114 -66c30 0 78 13 78 50c0 43 -80 66 -113 78c-102 38 -215 73 -215 199c0 61 23 97 60 142c-36 30 -49 68 -49 113c0 126 131 166 236 166c95 0 174 -34 216 -122l-125 -35c-16 38 -56 56 -97 56c-22 0 -67 -8 -67 -37
c0 -38 71 -57 99 -69c35 -14 93 -34 124 -55c46 -31 73 -82 73 -137c0 -51 -22 -92 -57 -130c47 -28 73 -79 73 -132c0 -139 -126 -196 -249 -196c-115 0 -203 42 -249 150zM280 343l-41 17c-15 -12 -28 -31 -28 -49c0 -41 67 -59 97 -71l52 -20c15 12 30 24 30 44
c0 24 -15 36 -34 47c-21 11 -53 23 -76 32z" />
    <glyph glyph-name="currency" unicode="&#xa4;" 
d="M46 115l44 44c-24 43 -37 77 -37 128c0 49 12 90 37 131l-44 43l79 80l44 -44c38 23 85 38 129 38c47 0 94 -13 134 -38l44 44l77 -80l-44 -43c25 -40 38 -82 38 -130c0 -45 -12 -92 -38 -129l44 -44l-77 -79l-44 44c-40 -24 -83 -39 -129 -39c-48 0 -94 13 -134 39
l-44 -44zM300 165c70 0 123 58 123 123s-53 123 -123 123s-123 -58 -123 -123s53 -123 123 -123z" />
    <glyph glyph-name="quotesingle" unicode="'" horiz-adv-x="300" 
d="M72 686h155v-147l-47 -143h-61l-47 143v147z" />
    <glyph glyph-name="quotedblleft" unicode="&#x201c;" horiz-adv-x="520" 
d="M275 390v144l94 152h79l-69 -136h69v-160h-173zM73 390v144l94 152h79l-69 -136h69v-160h-173z" />
    <glyph glyph-name="guillemotleft" unicode="&#xab;" horiz-adv-x="420" 
d="M369 403l-53 -146l53 -137h-71l-87 137l87 146h71zM209 403l-53 -146l53 -137h-71l-87 137l87 146h71z" />
    <glyph glyph-name="guilsinglleft" unicode="&#x2039;" horiz-adv-x="260" 
d="M209 403l-53 -146l53 -137h-71l-87 137l87 146h71z" />
    <glyph glyph-name="guilsinglright" unicode="&#x203a;" horiz-adv-x="260" 
d="M104 257l-53 146h71l87 -146l-87 -137h-71z" />
    <glyph glyph-name="fi" unicode="&#xfb01;" horiz-adv-x="620" 
d="M568 0h-198v511h198v-511zM568 696v-136h-198v136h198zM317 383h-64v-383h-198v383h-57v128h57c0 134 52 196 201 196l61 -3v-130l-7 1c-46 0 -62 -18 -62 -52v-12h69v-128z" />
    <glyph glyph-name="fl" unicode="&#xfb02;" 
d="M566 0h-198v686h198v-686zM316 383h-64v-383h-198v383h-57v128h57c0 134 52 196 201 196l61 -3v-130l-7 1c-46 0 -62 -18 -62 -52v-12h69v-128z" />
    <glyph glyph-name="endash" unicode="&#x2013;" horiz-adv-x="500" 
d="M500 354v-158h-500v158h500z" />
    <glyph glyph-name="dagger" unicode="&#x2020;" 
d="M557 377l-216 37c13 -21 28 -40 47 -56l-21 -120l-16 -155l-10 -244h-83v14l-4 122l-20 250l-23 133c18 17 35 35 47 56l-215 -37l15 81l-15 75l215 -41l-37 194l79 -11l79 11l-38 -194l216 41l-15 -75z" />
    <glyph glyph-name="daggerdbl" unicode="&#x2021;" 
d="M559 212l-213 38c12 -21 26 -40 43 -56l-29 -180l-19 -175h-83l-10 110l-37 245c18 15 32 35 43 56l-213 -38l14 80l-14 75l213 -41l-23 54l23 59l-213 -37l14 80l-14 75l213 -41l-32 170l78 -12l78 12l-32 -170l213 41l-14 -75l14 -80l-213 37l24 -59l-24 -54l213 41
l-14 -75z" />
    <glyph glyph-name="periodcentered" unicode="&#xb7;" horiz-adv-x="300" 
d="M245 380v-183h-191v183h191z" />
    <glyph glyph-name="paragraph" unicode="&#xb6;" horiz-adv-x="540" 
d="M533 686v-79h-66v-768h-88v768h-76v-768h-88v413c-103 10 -190 56 -206 201c-11 113 87 233 192 233h332z" />
    <glyph glyph-name="bullet" unicode="&#x2022;" 
d="M471 343c0 -95 -77 -172 -172 -172s-171 77 -171 172s76 171 171 171s172 -76 172 -171z" />
    <glyph glyph-name="quotesinglbase" unicode="&#x201a;" horiz-adv-x="300" 
d="M238 159v-150l-89 -143h-77l68 134h-68v159h166z" />
    <glyph glyph-name="quotedblbase" unicode="&#x201e;" horiz-adv-x="520" 
d="M239 159v-150l-89 -143h-77l68 134h-68v159h166zM442 159v-150l-88 -143h-80l71 134h-71v159h168z" />
    <glyph glyph-name="quotedblright" unicode="&#x201d;" horiz-adv-x="520" 
d="M246 686v-144l-94 -152h-79l69 136h-69v160h173zM448 686v-144l-94 -152h-79l69 136h-69v160h173z" />
    <glyph glyph-name="guillemotright" unicode="&#xbb;" horiz-adv-x="420" 
d="M104 257l-53 146h71l87 -146l-87 -137h-71zM264 257l-53 146h71l87 -146l-87 -137h-71z" />
    <glyph glyph-name="ellipsis" unicode="&#x2026;" horiz-adv-x="1000" 
d="M262 183v-183h-191v183h191zM595 183v-183h-191v183h191zM928 183v-183h-191v183h191z" />
    <glyph glyph-name="perthousand" unicode="&#x2030;" horiz-adv-x="1080" 
d="M625 686l-417 -686h-95l419 686h93zM564 0c-98 0 -139 88 -139 174c0 89 38 179 139 179c102 0 140 -89 140 -179c0 -88 -42 -174 -140 -174zM564 75c40 0 37 73 37 100c0 25 3 104 -35 104c-36 0 -35 -71 -35 -96s-4 -108 33 -108zM904 0c-98 0 -139 88 -139 174
c0 89 38 179 139 179c102 0 140 -89 140 -179c0 -88 -42 -174 -140 -174zM904 75c40 0 37 73 37 100c0 25 3 104 -35 104c-36 0 -35 -71 -35 -96s-4 -108 33 -108zM174 333c-98 0 -139 88 -139 174c0 89 38 179 139 179c102 0 140 -89 140 -179c0 -88 -42 -174 -140 -174z
M173 408c40 0 37 73 37 100c0 25 3 104 -35 104c-36 0 -35 -71 -35 -96s-4 -108 33 -108z" />
    <glyph glyph-name="questiondown" unicode="&#xbf;" 
d="M379 79l184 -21c-27 -153 -116 -235 -274 -235c-132 0 -251 72 -251 216c0 91 48 132 115 181c26 19 59 38 59 73h167c0 -73 -4 -99 -55 -145c-40 -35 -76 -64 -76 -121c0 -35 20 -64 57 -64c58 0 71 56 73 103zM385 511v-183h-191v183h191z" />
    <glyph glyph-name="grave" unicode="`" horiz-adv-x="400" 
d="M333 638l-26 -68l-240 68l34 98z" />
    <glyph glyph-name="acute" unicode="&#xb4;" horiz-adv-x="400" 
d="M93 570l-26 68l232 98l34 -98z" />
    <glyph glyph-name="circumflex" unicode="&#x2c6;" horiz-adv-x="540" 
d="M475 573h-124l-81 59l-82 -59h-123l205 163z" />
    <glyph glyph-name="tilde" unicode="&#x2dc;" horiz-adv-x="500" 
d="M383 736l51 -61c-34 -33 -78 -62 -127 -62c-45 0 -84 35 -124 35c-14 0 -26 -5 -37 -12s-21 -16 -32 -25l-49 64c35 25 75 57 120 57c47 0 90 -35 127 -35c28 0 50 24 71 39z" />
    <glyph glyph-name="macron" unicode="&#xaf;" horiz-adv-x="460" 
d="M71 662v74h318v-74h-318z" />
    <glyph glyph-name="breve" unicode="&#x2d8;" horiz-adv-x="520" 
d="M356 736h96c-12 -41 -39 -72 -74 -93c-35 -20 -76 -30 -117 -30c-82 0 -168 39 -192 123h95c14 -14 29 -23 45 -29s34 -9 52 -9c35 0 72 11 95 38z" />
    <glyph glyph-name="dotaccent" unicode="&#x2d9;" horiz-adv-x="280" 
d="M139 604c-35 0 -65 30 -65 66c0 37 29 66 66 66s66 -30 66 -66c0 -38 -30 -66 -67 -66z" />
    <glyph glyph-name="dieresis" unicode="&#xa8;" horiz-adv-x="440" 
d="M308 604c-35 0 -65 30 -65 66c0 37 29 66 66 66s66 -30 66 -66c0 -38 -30 -66 -67 -66zM132 604c-35 0 -65 30 -65 66c0 37 29 66 66 66s66 -30 66 -66c0 -38 -30 -66 -67 -66z" />
    <glyph glyph-name="ring" unicode="&#x2da;" horiz-adv-x="340" 
d="M170 545c-55 0 -101 44 -101 100s45 101 101 101c55 0 101 -44 101 -101c0 -55 -45 -100 -101 -100zM170 610c20 0 35 16 35 36c0 19 -16 34 -35 34c-20 0 -35 -16 -35 -36c0 -19 16 -34 35 -34z" />
    <glyph glyph-name="cedilla" unicode="&#xb8;" horiz-adv-x="340" 
d="M203 0l-16 -48l15 1c43 0 74 -32 74 -75c0 -55 -51 -83 -100 -83c-39 0 -78 15 -111 34l18 41c21 -11 48 -22 72 -22c18 0 39 7 39 29c0 30 -40 39 -63 39l-15 -1l30 85h57z" />
    <glyph glyph-name="hungarumlaut" unicode="&#x2dd;" 
d="M66 565l184 171l66 -80l-202 -147zM285 565l184 171l66 -80l-202 -147z" />
    <glyph glyph-name="ogonek" unicode="&#x2db;" horiz-adv-x="340" 
d="M123 0h70c-20 -13 -47 -29 -47 -56c0 -26 23 -34 44 -34c23 0 46 6 67 14l13 -43c-32 -16 -68 -24 -104 -24c-46 0 -97 17 -97 72c0 32 30 55 54 71z" />
    <glyph glyph-name="caron" unicode="&#x2c7;" horiz-adv-x="540" 
d="M475 736l-205 -163l-205 163h123l82 -58l81 58h124z" />
    <glyph glyph-name="emdash" unicode="&#x2014;" horiz-adv-x="1000" 
d="M1000 354v-158h-1000v158h1000z" />
    <glyph glyph-name="AE" unicode="&#xc6;" horiz-adv-x="960" 
d="M299 285h108v243h-2zM407 0v142h-164l-64 -142h-178l306 686h614v-158h-306v-100h248v-153h-248v-111h313v-164h-521z" />
    <glyph glyph-name="ordfeminine" unicode="&#xaa;" horiz-adv-x="380" 
d="M231 520v6c-31 -3 -83 -12 -83 -49c0 -20 13 -28 34 -28c48 0 49 38 49 71zM366 383h-124c-3 14 -5 28 -5 43c-26 -36 -63 -49 -108 -49c-62 0 -116 31 -116 92c0 49 41 81 87 95c43 12 87 16 131 19v2c0 28 -8 39 -39 39c-25 0 -47 -9 -51 -35l-118 11
c19 76 98 96 173 96c39 0 89 -5 121 -27c44 -28 39 -68 39 -111v-108c0 -23 0 -45 10 -67z" />
    <glyph glyph-name="Lslash" unicode="&#x141;" horiz-adv-x="560" 
d="M559 168v-168h-483v233l-51 -47v119l51 49v332h212v-173l80 76v-119l-80 -79v-223h271z" />
    <glyph glyph-name="Oslash" unicode="&#xd8;" horiz-adv-x="700" 
d="M213 15l-49 -79h-108l78 132c-77 76 -107 168 -107 274c0 197 118 354 325 354c48 0 95 -9 139 -29l55 87h106l-81 -139c73 -69 105 -178 105 -276c0 -91 -25 -182 -86 -251c-67 -74 -152 -98 -249 -98c-44 0 -88 6 -128 25zM451 338l-5 78l-150 -251
c17 -13 35 -20 56 -20c100 0 99 121 99 193zM251 343l5 -78l155 254c-20 16 -35 22 -61 22c-97 0 -99 -129 -99 -198z" />
    <glyph glyph-name="OE" unicode="&#x152;" horiz-adv-x="980" 
d="M947 164v-164h-489c-15 0 -73 -10 -108 -10c-208 0 -328 156 -328 351c0 205 119 355 328 355c36 0 86 -10 108 -10h489v-158h-312v-100h251v-153h-251v-111h312zM350 147c40 0 96 8 96 197c0 187 -51 197 -96 197c-93 0 -103 -134 -103 -201c0 -66 7 -193 103 -193z" />
    <glyph glyph-name="ordmasculine" unicode="&#xba;" horiz-adv-x="380" 
d="M187 377c-98 0 -179 64 -179 157c0 98 78 162 182 162c102 0 182 -60 182 -158c0 -100 -80 -161 -185 -161zM188 450c19 0 30 6 36 22c7 18 9 48 9 66c0 29 1 83 -43 83s-45 -54 -45 -83c0 -21 2 -51 11 -70c6 -13 18 -18 32 -18z" />
    <glyph glyph-name="ae" unicode="&#xe6;" horiz-adv-x="820" 
d="M488 318h129c2 42 -14 88 -64 88c-49 0 -68 -46 -65 -88zM330 210l-1 31c-48 -8 -111 -27 -111 -84c0 -26 17 -48 43 -48c58 0 69 55 69 101zM365 76c-43 -61 -104 -86 -179 -86c-92 0 -158 60 -158 154c0 151 166 176 283 189l18 1v7c0 16 1 35 -12 47
c-11 10 -28 14 -42 14c-36 0 -62 -23 -66 -58l-169 17c25 121 133 160 245 160c48 0 97 -7 136 -35c42 25 80 35 129 35c156 0 244 -117 244 -265l-1 -37h-305c2 -51 12 -97 74 -97c39 0 62 25 66 63l165 -12c-20 -114 -121 -183 -232 -183c-80 0 -144 25 -196 86z" />
    <glyph glyph-name="dotlessi" unicode="&#x131;" horiz-adv-x="300" 
d="M246 511v-511h-200v511h200z" />
    <glyph glyph-name="lslash" unicode="&#x142;" horiz-adv-x="300" 
d="M249 481l73 60v-119l-73 -61v-361h-198v246l-73 -60v119l73 60v321h198v-205z" />
    <glyph glyph-name="oslash" unicode="&#xf8;" 
d="M540 569l-62 -103c66 -53 97 -125 97 -209c0 -72 -23 -136 -74 -188c-58 -58 -129 -79 -210 -79c-33 0 -66 5 -97 16l-38 -61h-93l61 100c-65 50 -99 126 -99 207c0 163 115 269 276 269c35 0 71 -6 104 -16l41 64h94zM365 265l-2 41l-106 -175c12 -13 24 -19 42 -19
c28 0 45 16 54 41c9 28 12 83 12 112zM234 252l2 -45l105 172c-12 11 -25 16 -41 16c-31 0 -46 -18 -55 -46c-7 -26 -11 -70 -11 -97z" />
    <glyph glyph-name="oe" unicode="&#x153;" horiz-adv-x="860" 
d="M656 316l1 12c0 38 -21 75 -63 75c-52 0 -70 -42 -71 -87h133zM281 112c32 0 49 17 56 48c6 29 7 70 7 100c0 44 4 136 -60 136c-67 0 -65 -100 -65 -147c0 -45 -3 -137 62 -137zM838 245l-1 -30h-313c-1 -45 15 -101 71 -101c39 0 69 30 72 68l170 -12
c-24 -118 -129 -180 -244 -180c-55 0 -111 14 -156 47c-52 -33 -96 -47 -158 -47c-70 0 -131 19 -182 68c-51 50 -79 121 -79 192c0 153 106 271 262 271c60 0 107 -14 157 -46c46 31 94 46 149 46c166 0 252 -120 252 -276z" />
    <glyph glyph-name="germandbls" unicode="&#xdf;" horiz-adv-x="660" 
d="M278 -4l44 130c20 -13 43 -20 68 -20c29 0 70 8 70 44c0 73 -195 75 -195 196c0 45 22 96 53 129c33 -3 63 13 63 48c0 31 -28 49 -58 49c-24 0 -48 -8 -63 -26c-22 -27 -21 -60 -21 -91v-520h-189v386h-37v119h37c5 167 117 256 290 256c45 0 103 -7 142 -29
c48 -26 79 -71 79 -124c0 -84 -70 -126 -149 -141c-2 -1 -15 -3 -15 -5c0 -3 17 -9 19 -10c107 -40 221 -91 221 -216c0 -57 -25 -103 -72 -139c-49 -40 -101 -52 -164 -52c-42 0 -84 3 -123 16z" />
    <glyph glyph-name="divide" unicode="&#xf7;" 
d="M44 198v150h512v-150h-512zM378 150v-150h-155v150h155zM378 546v-150h-155v150h155z" />
    <glyph glyph-name="threequarters" unicode="&#xbe;" horiz-adv-x="900" 
d="M10 393l117 14c4 -33 28 -56 65 -56c29 0 55 14 55 43c0 14 -9 28 -21 35c-12 8 -32 6 -46 6h-46v87h37c13 0 34 -1 45 4c13 6 21 19 21 32c0 25 -22 39 -47 39c-31 0 -51 -20 -56 -48l-108 17c20 79 91 120 177 120c33 0 74 -8 104 -24c33 -18 56 -53 56 -90
c0 -41 -23 -77 -66 -89c51 -15 80 -46 80 -97c0 -92 -91 -124 -177 -124c-97 0 -166 42 -190 131zM752 686l-417 -686h-109l420 686h106zM890 91h-63v-91h-123v91h-182v89l168 238h137v-238h63v-89zM704 180v124l-84 -124h84z" />
    <glyph glyph-name="onequarter" unicode="&#xbc;" horiz-adv-x="900" 
d="M766 686l-417 -686h-109l420 686h106zM890 91h-63v-91h-123v91h-182v89l168 238h137v-238h63v-89zM704 180v124l-84 -124h84zM247 360h106v-92h-343v92h110v195l-5 -2c-30 -12 -60 -24 -93 -28v93c47 9 102 29 128 68h97v-326z" />
    <glyph glyph-name="onesuperior" unicode="&#xb9;" horiz-adv-x="360" 
d="M245 370h106v-92h-343v92h110v195l-5 -2c-30 -12 -60 -24 -93 -28v93c47 9 102 29 128 68h97v-326z" />
    <glyph glyph-name="multiply" unicode="&#xd7;" 
d="M194 288l-150 150l106 106l150 -150l150 150l106 -106l-150 -150l150 -150l-106 -106l-150 150l-150 -150l-106 106z" />
    <glyph glyph-name="registered" unicode="&#xae;" horiz-adv-x="740" 
d="M370 -10c-196 0 -354 157 -354 354c0 195 158 352 354 352c195 0 354 -157 354 -352c0 -197 -159 -354 -354 -354zM370 84c151 0 250 101 250 260c0 157 -99 259 -250 259c-154 0 -250 -102 -250 -259c0 -159 96 -260 250 -260zM453 312l92 -151h-92l-85 151h-63v-151
h-80v372h184c100 0 148 -27 148 -117c0 -70 -37 -99 -104 -104zM305 370h105c43 -1 73 9 73 56c0 52 -55 48 -92 48h-86v-104z" />
    <glyph glyph-name="Thorn" unicode="&#xde;" horiz-adv-x="660" 
d="M265 125v-125h-213v686h213v-124h67c67 0 142 -2 201 -36c64 -38 102 -106 102 -180c0 -65 -25 -127 -76 -168c-53 -43 -121 -53 -187 -53h-107zM265 272h55c48 0 106 3 106 67c0 61 -52 66 -100 66h-61v-133z" />
    <glyph glyph-name="brokenbar" unicode="&#xa6;" horiz-adv-x="300" 
d="M75 675h150v-350h-150v350zM75 175h150v-350h-150v350z" />
    <glyph glyph-name="Eth" unicode="&#xd0;" horiz-adv-x="680" 
d="M53 0v267h-73v166h73v253h253c99 0 178 -13 252 -84c72 -68 105 -162 105 -260c0 -90 -32 -184 -95 -249c-68 -71 -153 -93 -248 -93h-267zM264 158h30c28 0 46 -2 72 12c19 11 34 26 45 45c24 40 32 86 32 132s-13 106 -42 144c-33 41 -65 39 -113 39h-24v-97h90v-166
h-90v-109z" />
    <glyph glyph-name="onehalf" unicode="&#xbd;" horiz-adv-x="900" 
d="M247 360h106v-92h-343v92h110v195l-5 -2c-30 -12 -60 -24 -93 -28v93c47 9 102 29 128 68h97v-326zM748 686l-417 -686h-109l420 686h106zM890 101l-6 -101h-339v94l151 105c28 22 60 47 60 83c0 24 -16 43 -43 43c-42 0 -54 -39 -56 -71l-112 20c12 88 81 144 177 144
c90 0 165 -45 165 -134c0 -44 -22 -77 -57 -106l-104 -71l-10 -6h174z" />
    <glyph glyph-name="minus" unicode="&#x2212;" horiz-adv-x="640" 
d="M64 213v150h512v-150h-512z" />
    <glyph glyph-name="ccedilla" unicode="&#xe7;" horiz-adv-x="540" 
d="M357 206l170 -14c-17 -126 -104 -196 -227 -201l-13 -39l15 1c43 0 74 -32 74 -75c0 -55 -51 -83 -100 -83c-39 0 -78 15 -111 34l18 41c21 -11 48 -22 72 -22c18 0 39 7 39 29c0 30 -40 39 -63 39l-15 -1l28 78c-56 5 -103 24 -147 67c-52 52 -76 121 -76 194
c0 154 106 267 263 267c126 0 226 -74 241 -202l-175 -15l-1 5c-7 35 -15 75 -59 75c-63 0 -63 -83 -63 -128c0 -48 1 -126 66 -126c43 0 59 39 64 76z" />
    <glyph glyph-name="eth" unicode="&#xf0;" 
d="M298 111c28 0 46 11 55 38c10 29 13 79 13 109c0 48 2 138 -65 138c-68 0 -69 -89 -69 -138c0 -35 2 -85 16 -117c10 -21 28 -30 50 -30zM235 551l-43 42l81 26c-16 15 -33 27 -50 37l121 38c18 -9 37 -21 56 -35l78 24l45 -42l-77 -24c74 -73 135 -185 135 -334
c0 -191 -124 -293 -285 -293c-151 0 -276 106 -276 261c0 150 110 262 248 262c22 0 48 -1 76 -17c-6 32 -18 58 -32 79z" />
    <glyph glyph-name="plusminus" unicode="&#xb1;" 
d="M225 505v181h150v-181h181v-150h-181v-181h-150v181h-181v150h181zM44 0v150h512v-150h-512z" />
    <glyph glyph-name="Ccedilla" unicode="&#xc7;" horiz-adv-x="660" 
d="M431 262l192 -12c-12 -150 -116 -249 -263 -258l-13 -40l15 1c43 0 74 -32 74 -75c0 -55 -51 -83 -100 -83c-39 0 -78 15 -111 34l18 41c21 -11 48 -22 72 -22c18 0 39 7 39 29c0 30 -40 39 -63 39l-15 -1l27 77c-184 15 -280 158 -280 342c0 198 95 362 311 362
c175 0 275 -104 289 -275l-196 -10c2 58 -20 131 -91 131c-93 0 -97 -143 -97 -208c0 -69 4 -186 99 -186c65 0 90 57 93 114z" />
    <glyph glyph-name="thorn" unicode="&#xfe;" horiz-adv-x="580" 
d="M242 321v-122c0 -36 6 -83 54 -83c28 0 46 15 54 42c8 28 10 64 10 93c0 42 1 143 -62 143c-17 0 -33 -8 -44 -21c-13 -16 -12 -32 -12 -52zM43 686h198v-248h2c21 62 77 83 131 83c144 0 192 -140 192 -260c0 -57 -9 -122 -36 -172c-33 -61 -86 -99 -157 -99
c-53 0 -101 20 -132 65v-216h-198v847z" />
    <glyph glyph-name="copyright" unicode="&#xa9;" horiz-adv-x="740" 
d="M370 -10c-196 0 -354 157 -354 354c0 195 158 352 354 352c195 0 354 -157 354 -352c0 -197 -159 -354 -354 -354zM370 84c151 0 250 101 250 260c0 157 -99 259 -250 259c-154 0 -250 -102 -250 -259c0 -159 96 -260 250 -260zM550 417h-80c-8 43 -44 64 -88 64
c-70 0 -104 -62 -104 -133c0 -68 39 -137 107 -137c42 0 82 26 85 68h80c-11 -85 -83 -136 -165 -136c-118 0 -196 89 -196 203c0 118 74 204 194 204c85 0 152 -50 167 -133z" />
    <glyph glyph-name="logicalnot" unicode="&#xac;" 
d="M419 158v176h-388v150h538v-326h-150z" />
    <glyph glyph-name="twosuperior" unicode="&#xb2;" horiz-adv-x="360" 
d="M352 379l-6 -101h-339v94l151 105c28 22 60 47 60 83c0 24 -16 43 -43 43c-42 0 -54 -39 -56 -71l-112 20c12 88 81 144 177 144c90 0 165 -45 165 -134c0 -44 -22 -77 -57 -106l-104 -71l-10 -6h174z" />
    <glyph glyph-name="threesuperior" unicode="&#xb3;" horiz-adv-x="360" 
d="M-3 403l117 14c4 -33 28 -56 65 -56c29 0 55 14 55 43c0 14 -9 28 -21 35c-12 8 -32 6 -46 6h-46v87h37c13 0 34 -1 45 4c13 6 21 19 21 32c0 25 -22 39 -47 39c-31 0 -51 -20 -56 -48l-108 17c20 79 91 120 177 120c33 0 74 -8 104 -24c33 -18 56 -53 56 -90
c0 -41 -23 -77 -66 -89c51 -15 80 -46 80 -97c0 -92 -91 -124 -177 -124c-97 0 -166 42 -190 131z" />
    <glyph glyph-name="trademark" unicode="&#x2122;" horiz-adv-x="1000" 
d="M978 686v-404h-98v326h-3l-130 -326h-58l-131 326h-2v-326h-98v404h158l102 -239l101 239h159zM403 686v-78h-137v-326h-108v326h-137v78h382z" />
    <glyph glyph-name="degree" unicode="&#xb0;" horiz-adv-x="400" 
d="M350 546c0 -83 -68 -150 -150 -150c-83 0 -150 67 -150 150c-1 82 67 150 150 150c82 0 150 -68 150 -150zM261 545c0 34 -28 62 -63 62c-33 0 -62 -28 -61 -62c0 -34 28 -62 62 -62s62 28 62 62z" />
    <glyph glyph-name="mu" unicode="&#xb5;" 
d="M539 0h-187v84h-2c-21 -66 -89 -94 -111 -94v-151h-198v672h198v-309c0 -33 -1 -68 44 -68c20 0 39 11 48 29c9 17 10 35 10 54v294h198v-511z" />
    <glyph glyph-name="Aacute" unicode="&#xc1;" horiz-adv-x="660" 
d="M444 0l-39 135h-183l-42 -135h-171l213 686h222l215 -686h-215zM257 285h112l-56 199zM223 745l-26 68l232 98l34 -98z" />
    <glyph glyph-name="Acircumflex" unicode="&#xc2;" horiz-adv-x="660" 
d="M444 0l-39 135h-183l-42 -135h-171l213 686h222l215 -686h-215zM257 285h112l-56 199zM535 748h-124l-81 59l-82 -59h-123l205 163z" />
    <glyph glyph-name="Adieresis" unicode="&#xc4;" horiz-adv-x="660" 
d="M444 0l-39 135h-183l-42 -135h-171l213 686h222l215 -686h-215zM257 285h112l-56 199zM418 779c-35 0 -65 30 -65 66c0 37 29 66 66 66s66 -30 66 -66c0 -38 -30 -66 -67 -66zM242 779c-35 0 -65 30 -65 66c0 37 29 66 66 66s66 -30 66 -66c0 -38 -30 -66 -67 -66z" />
    <glyph glyph-name="Agrave" unicode="&#xc0;" horiz-adv-x="660" 
d="M444 0l-39 135h-183l-42 -135h-171l213 686h222l215 -686h-215zM257 285h112l-56 199zM463 813l-26 -68l-240 68l34 98z" />
    <glyph glyph-name="Aring" unicode="&#xc5;" horiz-adv-x="660" 
d="M444 0l-39 135h-183l-42 -135h-171l213 686h222l215 -686h-215zM257 285h112l-56 199zM330 730c-55 0 -101 44 -101 100s45 101 101 101c55 0 101 -44 101 -101c0 -55 -45 -100 -101 -100zM330 795c20 0 35 16 35 36c0 19 -16 34 -35 34c-20 0 -35 -16 -35 -36
c0 -19 16 -34 35 -34z" />
    <glyph glyph-name="Atilde" unicode="&#xc3;" horiz-adv-x="660" 
d="M444 0l-39 135h-183l-42 -135h-171l213 686h222l215 -686h-215zM257 285h112l-56 199zM463 911l51 -61c-34 -33 -78 -62 -127 -62c-45 0 -84 35 -124 35c-14 0 -26 -5 -37 -12s-21 -16 -32 -25l-49 64c35 25 75 57 120 57c47 0 90 -35 127 -35c28 0 50 24 71 39z" />
    <glyph glyph-name="Eacute" unicode="&#xc9;" 
d="M567 164v-164h-515v686h515v-158h-309v-100h250v-153h-250v-111h309zM213 745l-26 68l232 98l34 -98z" />
    <glyph glyph-name="Ecircumflex" unicode="&#xca;" 
d="M567 164v-164h-515v686h515v-158h-309v-100h250v-153h-250v-111h309zM505 748h-124l-81 59l-82 -59h-123l205 163z" />
    <glyph glyph-name="Edieresis" unicode="&#xcb;" 
d="M567 164v-164h-515v686h515v-158h-309v-100h250v-153h-250v-111h309zM388 779c-35 0 -65 30 -65 66c0 37 29 66 66 66s66 -30 66 -66c0 -38 -30 -66 -67 -66zM212 779c-35 0 -65 30 -65 66c0 37 29 66 66 66s66 -30 66 -66c0 -38 -30 -66 -67 -66z" />
    <glyph glyph-name="Egrave" unicode="&#xc8;" 
d="M567 164v-164h-515v686h515v-158h-309v-100h250v-153h-250v-111h309zM413 813l-26 -68l-240 68l34 98z" />
    <glyph glyph-name="Iacute" unicode="&#xcd;" horiz-adv-x="320" 
d="M269 686v-686h-212v686h212zM53 745l-26 68l232 98l34 -98z" />
    <glyph glyph-name="Icircumflex" unicode="&#xce;" horiz-adv-x="320" 
d="M269 686v-686h-212v686h212zM365 748h-124l-81 59l-82 -59h-123l205 163z" />
    <glyph glyph-name="Idieresis" unicode="&#xcf;" horiz-adv-x="320" 
d="M269 686v-686h-212v686h212zM248 779c-35 0 -65 30 -65 66c0 37 29 66 66 66s66 -30 66 -66c0 -38 -30 -66 -67 -66zM72 779c-35 0 -65 30 -65 66c0 37 29 66 66 66s66 -30 66 -66c0 -38 -30 -66 -67 -66z" />
    <glyph glyph-name="Igrave" unicode="&#xcc;" horiz-adv-x="320" 
d="M269 686v-686h-212v686h212zM293 813l-26 -68l-240 68l34 98z" />
    <glyph glyph-name="Ntilde" unicode="&#xd1;" horiz-adv-x="700" 
d="M645 0h-172l-197 321l-61 124l-2 -2l2 -8c10 -44 14 -68 14 -115v-320h-171v686h199l230 -383l2 2l-15 190v191h171v-686zM483 911l51 -61c-34 -33 -78 -62 -127 -62c-45 0 -84 35 -124 35c-14 0 -26 -5 -37 -12s-21 -16 -32 -25l-49 64c35 25 75 57 120 57
c47 0 90 -35 127 -35c28 0 50 24 71 39z" />
    <glyph glyph-name="Oacute" unicode="&#xd3;" horiz-adv-x="700" 
d="M353 696c209 0 328 -150 328 -355c0 -195 -120 -351 -328 -351s-328 156 -328 351c0 205 119 355 328 355zM353 541c-93 0 -103 -134 -103 -201c0 -66 7 -193 103 -193s103 127 103 193c0 67 -10 201 -103 201zM263 745l-26 68l232 98l34 -98z" />
    <glyph glyph-name="Ocircumflex" unicode="&#xd4;" horiz-adv-x="700" 
d="M353 696c209 0 328 -150 328 -355c0 -195 -120 -351 -328 -351s-328 156 -328 351c0 205 119 355 328 355zM353 541c-93 0 -103 -134 -103 -201c0 -66 7 -193 103 -193s103 127 103 193c0 67 -10 201 -103 201zM555 748h-124l-81 59l-82 -59h-123l205 163z" />
    <glyph glyph-name="Odieresis" unicode="&#xd6;" horiz-adv-x="700" 
d="M353 696c209 0 328 -150 328 -355c0 -195 -120 -351 -328 -351s-328 156 -328 351c0 205 119 355 328 355zM353 541c-93 0 -103 -134 -103 -201c0 -66 7 -193 103 -193s103 127 103 193c0 67 -10 201 -103 201zM438 779c-35 0 -65 30 -65 66c0 37 29 66 66 66
s66 -30 66 -66c0 -38 -30 -66 -67 -66zM262 779c-35 0 -65 30 -65 66c0 37 29 66 66 66s66 -30 66 -66c0 -38 -30 -66 -67 -66z" />
    <glyph glyph-name="Ograve" unicode="&#xd2;" horiz-adv-x="700" 
d="M353 696c209 0 328 -150 328 -355c0 -195 -120 -351 -328 -351s-328 156 -328 351c0 205 119 355 328 355zM353 541c-93 0 -103 -134 -103 -201c0 -66 7 -193 103 -193s103 127 103 193c0 67 -10 201 -103 201zM463 813l-26 -68l-240 68l34 98z" />
    <glyph glyph-name="Otilde" unicode="&#xd5;" horiz-adv-x="700" 
d="M353 696c209 0 328 -150 328 -355c0 -195 -120 -351 -328 -351s-328 156 -328 351c0 205 119 355 328 355zM353 541c-93 0 -103 -134 -103 -201c0 -66 7 -193 103 -193s103 127 103 193c0 67 -10 201 -103 201zM483 911l51 -61c-34 -33 -78 -62 -127 -62
c-45 0 -84 35 -124 35c-14 0 -26 -5 -37 -12s-21 -16 -32 -25l-49 64c35 25 75 57 120 57c47 0 90 -35 127 -35c28 0 50 24 71 39z" />
    <glyph glyph-name="Scaron" unicode="&#x160;" horiz-adv-x="660" 
d="M12 199l195 35c18 -61 64 -83 125 -83c27 0 81 4 81 42c0 42 -53 50 -84 56c-129 25 -282 60 -282 223c0 67 33 133 88 172c56 39 129 52 197 52c119 0 234 -49 276 -168l-174 -53c-20 51 -58 69 -111 69c-28 0 -68 -8 -68 -44s50 -43 76 -49c65 -13 134 -24 194 -55
c67 -36 102 -100 102 -175c0 -165 -164 -231 -306 -231c-144 0 -272 60 -309 209zM535 911l-205 -163l-205 163h123l82 -58l81 58h124z" />
    <glyph glyph-name="Uacute" unicode="&#xda;" horiz-adv-x="660" 
d="M607 686v-441c0 -80 -9 -144 -75 -197c-59 -46 -131 -58 -203 -58c-63 0 -145 14 -198 49c-73 48 -87 113 -87 195v452h214v-428c0 -23 -1 -54 13 -75c16 -22 48 -31 75 -31c24 0 54 7 72 23c27 23 24 59 24 91v420h165zM243 745l-26 68l232 98l34 -98z" />
    <glyph glyph-name="Ucircumflex" unicode="&#xdb;" horiz-adv-x="660" 
d="M607 686v-441c0 -80 -9 -144 -75 -197c-59 -46 -131 -58 -203 -58c-63 0 -145 14 -198 49c-73 48 -87 113 -87 195v452h214v-428c0 -23 -1 -54 13 -75c16 -22 48 -31 75 -31c24 0 54 7 72 23c27 23 24 59 24 91v420h165zM535 748h-124l-81 59l-82 -59h-123l205 163z" />
    <glyph glyph-name="Udieresis" unicode="&#xdc;" horiz-adv-x="660" 
d="M607 686v-441c0 -80 -9 -144 -75 -197c-59 -46 -131 -58 -203 -58c-63 0 -145 14 -198 49c-73 48 -87 113 -87 195v452h214v-428c0 -23 -1 -54 13 -75c16 -22 48 -31 75 -31c24 0 54 7 72 23c27 23 24 59 24 91v420h165zM418 779c-35 0 -65 30 -65 66c0 37 29 66 66 66
s66 -30 66 -66c0 -38 -30 -66 -67 -66zM242 779c-35 0 -65 30 -65 66c0 37 29 66 66 66s66 -30 66 -66c0 -38 -30 -66 -67 -66z" />
    <glyph glyph-name="Ugrave" unicode="&#xd9;" horiz-adv-x="660" 
d="M607 686v-441c0 -80 -9 -144 -75 -197c-59 -46 -131 -58 -203 -58c-63 0 -145 14 -198 49c-73 48 -87 113 -87 195v452h214v-428c0 -23 -1 -54 13 -75c16 -22 48 -31 75 -31c24 0 54 7 72 23c27 23 24 59 24 91v420h165zM443 813l-26 -68l-240 68l34 98z" />
    <glyph glyph-name="Ydieresis" unicode="&#x178;" horiz-adv-x="660" 
d="M651 686l-215 -396v-290h-204v290l-231 396h231l120 -226l115 226h184zM438 779c-35 0 -65 30 -65 66c0 37 29 66 66 66s66 -30 66 -66c0 -38 -30 -66 -67 -66zM262 779c-35 0 -65 30 -65 66c0 37 29 66 66 66s66 -30 66 -66c0 -38 -30 -66 -67 -66z" />
    <glyph glyph-name="Zcaron" unicode="&#x17d;" 
d="M585 162v-162h-570v131l304 396h-281v159h538v-133l-295 -391h304zM505 911l-205 -163l-205 163h123l82 -58l81 58h124z" />
    <glyph glyph-name="aacute" unicode="&#xe1;" horiz-adv-x="580" 
d="M563 0h-191c-5 23 -7 47 -7 71c-40 -59 -97 -81 -167 -81c-95 0 -178 52 -178 154c0 81 63 135 134 157c65 20 134 28 201 32v4c0 46 -12 64 -60 64c-39 0 -72 -14 -78 -57l-182 17c30 127 151 160 266 160c60 0 137 -8 187 -44c67 -47 59 -113 59 -186v-179
c0 -38 1 -76 16 -112zM355 229v10c-48 -5 -128 -20 -128 -82c0 -33 21 -47 52 -47c75 0 76 63 76 119zM203 570l-26 68l232 98l34 -98z" />
    <glyph glyph-name="acircumflex" unicode="&#xe2;" horiz-adv-x="580" 
d="M563 0h-191c-5 23 -7 47 -7 71c-40 -59 -97 -81 -167 -81c-95 0 -178 52 -178 154c0 81 63 135 134 157c65 20 134 28 201 32v4c0 46 -12 64 -60 64c-39 0 -72 -14 -78 -57l-182 17c30 127 151 160 266 160c60 0 137 -8 187 -44c67 -47 59 -113 59 -186v-179
c0 -38 1 -76 16 -112zM355 229v10c-48 -5 -128 -20 -128 -82c0 -33 21 -47 52 -47c75 0 76 63 76 119zM495 573h-124l-81 59l-82 -59h-123l205 163z" />
    <glyph glyph-name="adieresis" unicode="&#xe4;" horiz-adv-x="580" 
d="M563 0h-191c-5 23 -7 47 -7 71c-40 -59 -97 -81 -167 -81c-95 0 -178 52 -178 154c0 81 63 135 134 157c65 20 134 28 201 32v4c0 46 -12 64 -60 64c-39 0 -72 -14 -78 -57l-182 17c30 127 151 160 266 160c60 0 137 -8 187 -44c67 -47 59 -113 59 -186v-179
c0 -38 1 -76 16 -112zM355 229v10c-48 -5 -128 -20 -128 -82c0 -33 21 -47 52 -47c75 0 76 63 76 119zM378 604c-35 0 -65 30 -65 66c0 37 29 66 66 66s66 -30 66 -66c0 -38 -30 -66 -67 -66zM202 604c-35 0 -65 30 -65 66c0 37 29 66 66 66s66 -30 66 -66
c0 -38 -30 -66 -67 -66z" />
    <glyph glyph-name="agrave" unicode="&#xe0;" horiz-adv-x="580" 
d="M563 0h-191c-5 23 -7 47 -7 71c-40 -59 -97 -81 -167 -81c-95 0 -178 52 -178 154c0 81 63 135 134 157c65 20 134 28 201 32v4c0 46 -12 64 -60 64c-39 0 -72 -14 -78 -57l-182 17c30 127 151 160 266 160c60 0 137 -8 187 -44c67 -47 59 -113 59 -186v-179
c0 -38 1 -76 16 -112zM355 229v10c-48 -5 -128 -20 -128 -82c0 -33 21 -47 52 -47c75 0 76 63 76 119zM403 638l-26 -68l-240 68l34 98z" />
    <glyph glyph-name="aring" unicode="&#xe5;" horiz-adv-x="580" 
d="M563 0h-191c-5 23 -7 47 -7 71c-40 -59 -97 -81 -167 -81c-95 0 -178 52 -178 154c0 81 63 135 134 157c65 20 134 28 201 32v4c0 46 -12 64 -60 64c-39 0 -72 -14 -78 -57l-182 17c30 127 151 160 266 160c60 0 137 -8 187 -44c67 -47 59 -113 59 -186v-179
c0 -38 1 -76 16 -112zM355 229v10c-48 -5 -128 -20 -128 -82c0 -33 21 -47 52 -47c75 0 76 63 76 119zM310 575c-55 0 -101 44 -101 100s45 101 101 101c55 0 101 -44 101 -101c0 -55 -45 -100 -101 -100zM310 640c20 0 35 16 35 36c0 19 -16 34 -35 34
c-20 0 -35 -16 -35 -36c0 -19 16 -34 35 -34z" />
    <glyph glyph-name="atilde" unicode="&#xe3;" horiz-adv-x="580" 
d="M563 0h-191c-5 23 -7 47 -7 71c-40 -59 -97 -81 -167 -81c-95 0 -178 52 -178 154c0 81 63 135 134 157c65 20 134 28 201 32v4c0 46 -12 64 -60 64c-39 0 -72 -14 -78 -57l-182 17c30 127 151 160 266 160c60 0 137 -8 187 -44c67 -47 59 -113 59 -186v-179
c0 -38 1 -76 16 -112zM355 229v10c-48 -5 -128 -20 -128 -82c0 -33 21 -47 52 -47c75 0 76 63 76 119zM443 736l51 -61c-34 -33 -78 -62 -127 -62c-45 0 -84 35 -124 35c-14 0 -26 -5 -37 -12s-21 -16 -32 -25l-49 64c35 25 75 57 120 57c47 0 90 -35 127 -35
c28 0 50 24 71 39z" />
    <glyph glyph-name="eacute" unicode="&#xe9;" 
d="M389 183l187 -12c-31 -124 -141 -181 -262 -181c-75 0 -148 16 -206 67c-55 49 -84 119 -84 192c0 69 27 144 75 193c52 54 130 79 203 79c170 0 274 -110 274 -278v-27h-342c-3 -55 17 -95 77 -95c45 0 70 18 78 62zM233 316h143c0 50 -16 88 -72 88
c-52 0 -73 -41 -71 -88zM213 570l-26 68l232 98l34 -98z" />
    <glyph glyph-name="ecircumflex" unicode="&#xea;" 
d="M389 183l187 -12c-31 -124 -141 -181 -262 -181c-75 0 -148 16 -206 67c-55 49 -84 119 -84 192c0 69 27 144 75 193c52 54 130 79 203 79c170 0 274 -110 274 -278v-27h-342c-3 -55 17 -95 77 -95c45 0 70 18 78 62zM233 316h143c0 50 -16 88 -72 88
c-52 0 -73 -41 -71 -88zM505 573h-124l-81 59l-82 -59h-123l205 163z" />
    <glyph glyph-name="edieresis" unicode="&#xeb;" 
d="M389 183l187 -12c-31 -124 -141 -181 -262 -181c-75 0 -148 16 -206 67c-55 49 -84 119 -84 192c0 69 27 144 75 193c52 54 130 79 203 79c170 0 274 -110 274 -278v-27h-342c-3 -55 17 -95 77 -95c45 0 70 18 78 62zM233 316h143c0 50 -16 88 -72 88
c-52 0 -73 -41 -71 -88zM388 604c-35 0 -65 30 -65 66c0 37 29 66 66 66s66 -30 66 -66c0 -38 -30 -66 -67 -66zM212 604c-35 0 -65 30 -65 66c0 37 29 66 66 66s66 -30 66 -66c0 -38 -30 -66 -67 -66z" />
    <glyph glyph-name="egrave" unicode="&#xe8;" 
d="M389 183l187 -12c-31 -124 -141 -181 -262 -181c-75 0 -148 16 -206 67c-55 49 -84 119 -84 192c0 69 27 144 75 193c52 54 130 79 203 79c170 0 274 -110 274 -278v-27h-342c-3 -55 17 -95 77 -95c45 0 70 18 78 62zM233 316h143c0 50 -16 88 -72 88
c-52 0 -73 -41 -71 -88zM413 638l-26 -68l-240 68l34 98z" />
    <glyph glyph-name="iacute" unicode="&#xed;" horiz-adv-x="300" 
d="M246 511v-511h-200v511h200zM43 570l-26 68l232 98l34 -98z" />
    <glyph glyph-name="icircumflex" unicode="&#xee;" horiz-adv-x="300" 
d="M246 511v-511h-200v511h200zM355 573h-124l-81 59l-82 -59h-123l205 163z" />
    <glyph glyph-name="idieresis" unicode="&#xef;" horiz-adv-x="300" 
d="M246 511v-511h-200v511h200zM238 604c-35 0 -65 30 -65 66c0 37 29 66 66 66s66 -30 66 -66c0 -38 -30 -66 -67 -66zM62 604c-35 0 -65 30 -65 66c0 37 29 66 66 66s66 -30 66 -66c0 -38 -30 -66 -67 -66z" />
    <glyph glyph-name="igrave" unicode="&#xec;" horiz-adv-x="300" 
d="M246 511v-511h-200v511h200zM283 638l-26 -68l-240 68l34 98z" />
    <glyph glyph-name="ntilde" unicode="&#xf1;" horiz-adv-x="580" 
d="M41 511h187v-72h2c24 58 83 82 145 82c48 0 103 -14 133 -53c32 -42 32 -100 32 -153v-315h-198v310c0 31 0 74 -43 74c-55 0 -60 -47 -60 -89v-295h-198v511zM423 736l51 -61c-34 -33 -78 -62 -127 -62c-45 0 -84 35 -124 35c-14 0 -26 -5 -37 -12s-21 -16 -32 -25
l-49 64c35 25 75 57 120 57c47 0 90 -35 127 -35c28 0 50 24 71 39z" />
    <glyph glyph-name="oacute" unicode="&#xf3;" 
d="M301 521c160 0 281 -106 281 -270c0 -155 -125 -261 -281 -261s-281 106 -281 261c0 164 121 270 281 270zM301 396c-68 0 -69 -89 -69 -138c0 -137 33 -147 69 -147s69 10 69 147c0 49 -1 138 -69 138zM213 570l-26 68l232 98l34 -98z" />
    <glyph glyph-name="ocircumflex" unicode="&#xf4;" 
d="M301 521c160 0 281 -106 281 -270c0 -155 -125 -261 -281 -261s-281 106 -281 261c0 164 121 270 281 270zM301 396c-68 0 -69 -89 -69 -138c0 -137 33 -147 69 -147s69 10 69 147c0 49 -1 138 -69 138zM505 573h-124l-81 59l-82 -59h-123l205 163z" />
    <glyph glyph-name="odieresis" unicode="&#xf6;" 
d="M301 521c160 0 281 -106 281 -270c0 -155 -125 -261 -281 -261s-281 106 -281 261c0 164 121 270 281 270zM301 396c-68 0 -69 -89 -69 -138c0 -137 33 -147 69 -147s69 10 69 147c0 49 -1 138 -69 138zM388 604c-35 0 -65 30 -65 66c0 37 29 66 66 66s66 -30 66 -66
c0 -38 -30 -66 -67 -66zM212 604c-35 0 -65 30 -65 66c0 37 29 66 66 66s66 -30 66 -66c0 -38 -30 -66 -67 -66z" />
    <glyph glyph-name="ograve" unicode="&#xf2;" 
d="M301 521c160 0 281 -106 281 -270c0 -155 -125 -261 -281 -261s-281 106 -281 261c0 164 121 270 281 270zM301 396c-68 0 -69 -89 -69 -138c0 -137 33 -147 69 -147s69 10 69 147c0 49 -1 138 -69 138zM413 638l-26 -68l-240 68l34 98z" />
    <glyph glyph-name="otilde" unicode="&#xf5;" 
d="M301 521c160 0 281 -106 281 -270c0 -155 -125 -261 -281 -261s-281 106 -281 261c0 164 121 270 281 270zM301 396c-68 0 -69 -89 -69 -138c0 -137 33 -147 69 -147s69 10 69 147c0 49 -1 138 -69 138zM433 736l51 -61c-34 -33 -78 -62 -127 -62c-45 0 -84 35 -124 35
c-14 0 -26 -5 -37 -12s-21 -16 -32 -25l-49 64c35 25 75 57 120 57c47 0 90 -35 127 -35c28 0 50 24 71 39z" />
    <glyph glyph-name="scaron" unicode="&#x161;" horiz-adv-x="540" 
d="M14 145l159 21c11 -49 66 -55 109 -55c20 0 76 2 76 32c0 26 -68 31 -86 33c-107 15 -234 36 -234 172c0 58 31 104 79 134c50 31 107 39 164 39c96 0 197 -37 231 -133l-151 -29c-15 35 -54 45 -89 45c-16 0 -64 -5 -64 -27c0 -16 17 -23 30 -26c22 -6 62 -9 86 -12
c46 -6 98 -13 139 -38c47 -30 72 -75 72 -130c0 -141 -149 -181 -264 -181c-114 0 -219 37 -257 155zM475 736l-205 -163l-205 163h123l82 -58l81 58h124z" />
    <glyph glyph-name="uacute" unicode="&#xfa;" 
d="M539 0h-187v84h-2c-21 -66 -89 -94 -155 -94c-42 0 -83 10 -114 39c-36 36 -40 81 -40 129v353h198v-309c0 -33 -1 -68 44 -68c20 0 39 11 48 29c9 17 10 35 10 54v294h198v-511zM193 570l-26 68l232 98l34 -98z" />
    <glyph glyph-name="ucircumflex" unicode="&#xfb;" 
d="M539 0h-187v84h-2c-21 -66 -89 -94 -155 -94c-42 0 -83 10 -114 39c-36 36 -40 81 -40 129v353h198v-309c0 -33 -1 -68 44 -68c20 0 39 11 48 29c9 17 10 35 10 54v294h198v-511zM505 573h-124l-81 59l-82 -59h-123l205 163z" />
    <glyph glyph-name="udieresis" unicode="&#xfc;" 
d="M539 0h-187v84h-2c-21 -66 -89 -94 -155 -94c-42 0 -83 10 -114 39c-36 36 -40 81 -40 129v353h198v-309c0 -33 -1 -68 44 -68c20 0 39 11 48 29c9 17 10 35 10 54v294h198v-511zM388 604c-35 0 -65 30 -65 66c0 37 29 66 66 66s66 -30 66 -66c0 -38 -30 -66 -67 -66z
M212 604c-35 0 -65 30 -65 66c0 37 29 66 66 66s66 -30 66 -66c0 -38 -30 -66 -67 -66z" />
    <glyph glyph-name="ugrave" unicode="&#xf9;" 
d="M539 0h-187v84h-2c-21 -66 -89 -94 -155 -94c-42 0 -83 10 -114 39c-36 36 -40 81 -40 129v353h198v-309c0 -33 -1 -68 44 -68c20 0 39 11 48 29c9 17 10 35 10 54v294h198v-511zM433 638l-26 -68l-240 68l34 98z" />
    <glyph glyph-name="ydieresis" unicode="&#xff;" horiz-adv-x="540" 
d="M533 511l-197 -542c-38 -106 -89 -146 -203 -146l-101 5v142l72 -6c27 0 87 -1 87 39c0 15 -8 32 -13 46l-179 462h215l84 -272l89 272h146zM358 604c-35 0 -65 30 -65 66c0 37 29 66 66 66s66 -30 66 -66c0 -38 -30 -66 -67 -66zM182 604c-35 0 -65 30 -65 66
c0 37 29 66 66 66s66 -30 66 -66c0 -38 -30 -66 -67 -66z" />
    <glyph glyph-name="zcaron" unicode="&#x17e;" horiz-adv-x="500" 
d="M474 127v-127h-451v111l216 277l-64 -2h-133v125h424v-108l-219 -276h227zM455 736l-205 -163l-205 163h123l82 -58l81 58h124z" />
    <glyph glyph-name="Yacute" unicode="&#xdd;" horiz-adv-x="660" 
d="M651 686l-215 -396v-290h-204v290l-231 396h231l120 -226l115 226h184zM223 745l-26 68l232 98l34 -98z" />
    <glyph glyph-name="yacute" unicode="&#xfd;" horiz-adv-x="540" 
d="M533 511l-197 -542c-38 -106 -89 -146 -203 -146l-101 5v142l72 -6c27 0 87 -1 87 39c0 15 -8 32 -13 46l-179 462h215l84 -272l89 272h146zM163 570l-26 68l232 98l34 -98z" />
    </font>
</defs>
</svg>
