<svg xmlns="http://www.w3.org/2000/svg" fill="none" viewBox="0 0 435 83"><defs/><g clip-path="url(#clip0)"><path fill="#fff" d="M108.5 81.3c21.926 0 39.7-17.774 39.7-39.7 0-21.926-17.774-39.7-39.7-39.7-21.926 0-39.7 17.774-39.7 39.7 0 21.926 17.774 39.7 39.7 39.7z"/><path fill="#425371" d="M108.5 82.8c-22.7 0-41.2-18.5-41.2-41.2C67.3 18.9 85.8.4 108.5.4c22.7 0 41.2 18.5 41.2 41.2 0 22.7-18.5 41.2-41.2 41.2zm0-79.3c-21 0-38.1 17.1-38.1 38.1s17.1 38.1 38.1 38.1 38.1-17.1 38.1-38.1-17.1-38.1-38.1-38.1z"/><path fill="#F47D24" d="M108.5 6C88.9 6 73.1 21.9 73.1 41.7c0 19.8 15.8 35.7 35.4 35.7 19.6 0 35.4-15.9 35.4-35.7 0-19.8-15.8-35.7-35.4-35.7zm16.1 51.4c-1.1 4.9-5.5 9-10.6 9h-11c-5 0-9.4-4-10.6-9v-.5l-3.1-12.3c4.3 3.4 9.3 6.4 14.1 7.6.6 1.3 2 2.8 3.5 2.8h3.5c1.6 0 2.9-1.6 3.6-2.9 4.8-1 9.5-3.5 13.7-6.8l-3.1 12.1zm7.4-29.3l-2.4 9.4c-4.1 4.7-10.2 8.6-16 10-.8-1-1.9-1.3-3.1-1.3H107c-1.4 0-2.5.4-3.3 1.4-5.9-1.4-12.1-5.2-16.2-9.9l-2.4-9.4V28v.1c0-2.3 1.9-3.4 4.1-3.4H128c2.3 0 3.9.8 3.9 3"/><path fill="#425371" d="M.1 80.2L45.4 1.9c.4-.7 1.4-.7 1.8 0l45.2 78.3c.4.7-.1 1.6-.9 1.6H1.1c-.9 0-1.4-.9-1-1.6z"/><path fill="#425371" d="M73.3 54L66 41.3 46.3 7.1 26.5 41.3 6.8 75.5l-1.7 3h82.5L73.3 54z"/><path fill="#7BA3C8" d="M46.3 14L29.5 43l16.8 9.7L63 43 46.3 14z"/><path fill="#4E73A6" d="M27.8 46l-15 26 2.9-1.7 27.1-15.6-15-8.7z"/><path fill="#FEE000" d="M14.5 75h22.4l33.4-19.3-5.5-9.7-8.1 4.6L14.5 75z"/><path fill="#425371" d="M72.1 58.7L43.8 75h37.7l-9.4-16.3z"/><path fill="#fff" d="M73.3 54L66 41.3 46.3 7.1 26.5 41.3 6.8 75.5l-1.7 3h82.5L73.3 54zm-1.2 4.7L81.5 75H43.8l28.3-16.3zM63 43l-16.7 9.7L29.6 43l16.7-29L63 43zm-35.2 3l15 8.7-27.1 15.6-2.9 1.7 15-26zm28.9 4.6l8-4.6 5.6 9.7L36.9 75H14.5l42.2-24.4zM270.4 9h-97.2c-.5 0-.9-.5-.9-1s.4-1 .9-1h97.2c.5 0 .9.5.9 1s-.4 1-.9 1zM433.8 9h-97.2c-.5 0-.9-.5-.9-1s.4-1 .9-1h97.2c.5 0 .9.5.9 1s-.4 1-.9 1zM287 15.3h-1.4V2.5h-4.7V1.2h10.8v1.3H287v12.8zM297.9 1.2h1.4v6.1h7.7V1.2h1.4v14.1H307V8.6h-7.7v6.7h-1.4V1.2zM317.6 14h7.5v1.3h-9V1.2h8.7v1.3h-7.3v4.8h6.8v1.3h-6.8V14h.1zM203 52.8h-16.1c-2.1 0-4-.3-5.8-.9-1.8-.6-3.3-1.5-4.6-2.7-1.3-1.2-2.3-2.6-3-4.3-.7-1.7-1.1-3.6-1.1-5.7 0-2 .4-3.8 1.1-5.5.7-1.7 1.7-3.1 3-4.3 1.3-1.2 2.8-2.1 4.5-2.8 1.7-.7 3.6-1 5.6-1 2 0 3.8.3 5.6 1 1.7.7 3.2 1.6 4.5 2.8 1.3 1.2 2.3 2.6 3 4.3.7 1.7 1.1 3.5 1.1 5.5 0 1-.1 1.9-.3 2.8-.2.9-.5 1.8-1 2.5-.4.8-1 1.5-1.7 2.2-.7.7-1.5 1.2-2.4 1.6v.1h7.4v4.4h.2zm-24.4-13.6c0 1.2.2 2.2.6 3.2.4 1 1 1.9 1.7 2.6.7.7 1.6 1.3 2.6 1.7 1 .4 2 .6 3.2.6 1.2 0 2.2-.2 3.2-.6 1-.4 1.8-1 2.6-1.7.7-.7 1.3-1.6 1.7-2.6.4-1 .6-2.1.6-3.2s-.2-2.2-.6-3.2c-.4-1-1-1.9-1.7-2.6-.7-.7-1.6-1.3-2.6-1.7-1-.4-2-.6-3.2-.6-1.2 0-2.2.2-3.2.6-1 .4-1.8 1-2.6 1.7-.7.7-1.3 1.6-1.7 2.6-.4.9-.6 2-.6 3.2zM228.6 42.5c0 1.6-.2 3-.7 4.4-.5 1.3-1.2 2.5-2.1 3.5-.9 1-2.1 1.7-3.5 2.3-1.4.5-3 .8-4.8.8-1.9 0-3.5-.3-4.9-.8-1.4-.5-2.6-1.3-3.5-2.3-.9-1-1.6-2.1-2.1-3.5-.5-1.3-.7-2.8-.7-4.4V26.2h5.9v16.1c0 .8.1 1.6.4 2.3.3.7.6 1.3 1.1 1.8.5.5 1 .9 1.7 1.2.7.3 1.4.4 2.2.4.8 0 1.5-.1 2.1-.4.6-.3 1.2-.7 1.7-1.2s.8-1.1 1.1-1.8c.3-.7.4-1.5.4-2.3V26.2h5.9v16.3h-.2zM234.3 26.2h5.9v26.6h-5.9V26.2zM244.5 47.4l13.5-16h-13v-5.2h20.1v5.2l-13.2 16h13.7v5.4h-21v-5.4h-.1zM281.6 26.2h17.8v5.4h-12V37h11.1v5.4h-11.1v10.4h-5.9V26.2h.1zM326.4 42.5c0 1.6-.2 3-.7 4.4-.5 1.3-1.2 2.5-2.1 3.5-.9 1-2.1 1.7-3.5 2.3-1.4.5-3 .8-4.8.8-1.9 0-3.5-.3-4.9-.8-1.4-.5-2.6-1.3-3.5-2.3-.9-1-1.6-2.1-2.1-3.5-.5-1.3-.7-2.8-.7-4.4V26.2h5.9v16.1c0 .8.1 1.6.4 2.3.3.7.6 1.3 1.1 1.8.5.5 1 .9 1.7 1.2.7.3 1.4.4 2.2.4.8 0 1.5-.1 2.1-.4.6-.3 1.2-.7 1.7-1.2s.8-1.1 1.1-1.8c.3-.7.4-1.5.4-2.3V26.2h5.9v16.3h-.2zM332.2 26.2h8l11.3 18.5h.1V26.2h5.8v26.6h-7.7l-11.6-18.9h-.1v18.9h-5.9V26.2h.1zM363.1 26.2h8l11.3 18.5h.1V26.2h5.8v26.6h-7.7L369 33.9h-.1v18.9H363V26.2h.1zM394.3 26.2h18v5.4h-12.2v5h11.5V42h-11.5v5.4H413v5.4h-18.7V26.2zM418.3 26.2h5.9v21.2H435v5.4h-16.7V26.2zM194.1 78.2l5.8-14h2.7v17.2h-1.7V66.6l-6.2 14.9h-.9l-6.2-14.9v14.9h-1.7V64.3h2.7l5.5 13.9zM214.2 81.5h-2l7.5-17.2h1.7l7.5 17.2h-2L225 77h-8.8l-2 4.5zm2.6-6.2h7.5l-3.7-9-3.8 9zM246.6 67.1c-.8-1.1-1.9-1.7-3.3-1.7-.5 0-.9.1-1.3.2s-.8.3-1.2.6c-.3.3-.6.6-.8 1-.2.4-.3.9-.3 1.4 0 .8.2 1.4.7 1.8.4.4 1 .8 1.6 1.1.6.3 1.4.5 2.1.7.8.2 1.5.5 2.1.9.6.4 1.2.8 1.6 1.4.4.6.7 1.4.7 2.5 0 .8-.2 1.5-.5 2.1-.3.6-.8 1.1-1.3 1.6-.5.4-1.1.7-1.8 1-.7.2-1.3.3-2 .3-1.1 0-2.1-.2-3-.6-.9-.4-1.8-1-2.4-2l1.6-1.1c.4.6.9 1.1 1.5 1.5.7.4 1.4.6 2.3.6.4 0 .9-.1 1.3-.2s.8-.3 1.2-.6c.3-.3.6-.6.9-1 .2-.4.3-.8.3-1.3 0-.6-.1-1.1-.4-1.5-.3-.4-.6-.7-1-1-.4-.3-.9-.5-1.4-.7-.5-.2-1.1-.4-1.6-.5-.6-.2-1.1-.4-1.6-.6-.5-.2-1-.5-1.4-.9-.4-.3-.7-.8-1-1.3-.3-.5-.4-1.2-.4-2s.2-1.5.5-2.2c.3-.6.7-1.1 1.3-1.5.5-.4 1.1-.7 1.8-.9.7-.2 1.3-.3 2-.3 1 0 1.9.2 2.6.5.8.3 1.5.8 2.2 1.6l-1.6 1.1zM264.7 81.5H263V65.9h-5.8v-1.6h13.2v1.6h-5.8v15.6h.1zM282.2 79.8h9.2v1.6h-10.9V64.3h10.7v1.6h-8.9v5.8h8.3v1.6h-8.3v6.5h-.1zM303.8 81.5h-1.7V64.3h5.3c1.7 0 3.1.4 4.1 1.1 1 .7 1.5 1.9 1.5 3.4 0 1.2-.4 2.2-1.1 3-.8.8-1.8 1.3-3.3 1.4l5 8.2h-2.1l-4.7-8h-2.9v8.1h-.1zm0-9.6h3.1c.8 0 1.4-.1 2-.2.5-.2 1-.4 1.3-.6.3-.3.6-.6.7-.9.1-.4.2-.8.2-1.2 0-.4-.1-.8-.2-1.2-.1-.4-.4-.7-.7-1-.3-.3-.8-.5-1.3-.6-.5-.2-1.2-.2-2-.2h-3.1v5.9zM337.9 78.7c-.3.4-.7.8-1.1 1.2-.4.4-.9.7-1.5 1-.5.3-1.1.5-1.8.7-.6.2-1.3.2-2 .2-1.3 0-2.5-.2-3.6-.7-1.1-.5-2-1.1-2.8-1.9-.8-.8-1.4-1.8-1.9-2.9-.5-1.1-.7-2.3-.7-3.6 0-1.3.2-2.5.7-3.6.5-1.1 1.1-2.1 1.9-2.9.8-.8 1.7-1.4 2.8-1.9 1.1-.5 2.3-.7 3.6-.7 1.1 0 2.1.2 3.2.6 1.1.4 2 1.1 2.7 2.1l-1.5 1.1c-.2-.3-.4-.5-.7-.8-.3-.3-.7-.5-1.1-.7-.4-.2-.8-.4-1.3-.5-.5-.1-.9-.2-1.4-.2-1.1 0-2.1.2-3 .6-.9.4-1.6.9-2.2 1.6-.6.7-1.1 1.5-1.4 2.4-.3.9-.5 1.8-.5 2.8 0 1 .2 1.9.5 2.8.3.9.8 1.7 1.4 2.4.6.7 1.3 1.2 2.2 1.6.9.4 1.9.6 3 .6.5 0 .9 0 1.3-.1s.9-.2 1.3-.4.8-.5 1.2-.8c.4-.3.7-.7 1.1-1.2l1.6 1.2zM349.9 79.8h8v1.6h-9.8V64.3h1.7v15.5h.1zM367.2 81.5h-2l7.5-17.2h1.7l7.5 17.2h-2L378 77h-8.8l-2 4.5zm2.6-6.2h7.5l-3.7-9-3.8 9zM399.6 67.1c-.8-1.1-1.9-1.7-3.3-1.7-.5 0-.9.1-1.3.2s-.8.3-1.2.6c-.3.3-.6.6-.8 1-.2.4-.3.9-.3 1.4 0 .8.2 1.4.7 1.8.4.4 1 .8 1.6 1.1.6.3 1.4.5 2.1.7.8.2 1.5.5 2.1.9.6.4 1.2.8 1.6 1.4.4.6.7 1.4.7 2.5 0 .8-.2 1.5-.5 2.1-.3.6-.8 1.1-1.3 1.6-.5.4-1.1.7-1.8 1-.7.2-1.3.3-2 .3-1.1 0-2.1-.2-3-.6-.9-.4-1.8-1-2.4-2l1.6-1.1c.4.6.9 1.1 1.5 1.5.7.4 1.4.6 2.3.6.4 0 .9-.1 1.3-.2s.8-.3 1.2-.6c.3-.3.6-.6.9-1 .2-.4.3-.8.3-1.3 0-.6-.1-1.1-.4-1.5-.3-.4-.6-.7-1-1-.4-.3-.9-.5-1.4-.7-.5-.2-1.1-.4-1.6-.5-.6-.2-1.1-.4-1.6-.6-.5-.2-1-.5-1.4-.9-.4-.3-.7-.8-1-1.3-.3-.5-.4-1.2-.4-2s.2-1.5.5-2.2c.3-.6.7-1.1 1.3-1.5.5-.4 1.1-.7 1.8-.9.7-.2 1.3-.3 2-.3 1 0 1.9.2 2.6.5.8.3 1.5.8 2.2 1.6l-1.6 1.1zM420.4 67.1c-.8-1.1-1.9-1.7-3.3-1.7-.5 0-.9.1-1.3.2s-.8.3-1.2.6c-.3.3-.6.6-.8 1-.2.4-.3.9-.3 1.4 0 .8.2 1.4.7 1.8.4.4 1 .8 1.6 1.1.6.3 1.4.5 2.1.7.8.2 1.5.5 2.1.9.6.4 1.2.8 1.6 1.4.4.6.7 1.4.7 2.5 0 .8-.2 1.5-.5 2.1-.3.6-.8 1.1-1.3 1.6-.5.4-1.1.7-1.8 1-.7.2-1.3.3-2 .3-1.1 0-2.1-.2-3-.6-.9-.4-1.8-1-2.4-2l1.6-1.1c.4.6.9 1.1 1.5 1.5.7.4 1.4.6 2.3.6.4 0 .9-.1 1.3-.2s.8-.3 1.2-.6c.3-.3.6-.6.9-1 .2-.4.3-.8.3-1.3 0-.6-.1-1.1-.4-1.5-.3-.4-.6-.7-1-1-.4-.3-.9-.5-1.4-.7-.5-.2-1.1-.4-1.6-.5-.6-.2-1.1-.4-1.6-.6-.5-.2-1-.5-1.4-.9-.4-.3-.7-.8-1-1.3-.3-.5-.4-1.2-.4-2s.2-1.5.5-2.2c.3-.6.7-1.1 1.3-1.5.5-.4 1.1-.7 1.8-.9.7-.2 1.3-.3 2-.3 1 0 1.9.2 2.6.5.8.3 1.5.8 2.2 1.6l-1.6 1.1z"/></g><defs><clipPath id="clip0"><path fill="#fff" d="M0 0h434.9v82.4H0z" transform="translate(0 .4)"/></clipPath></defs></svg>