<svg width="148" height="40" viewBox="0 0 148 40" fill="none" xmlns="http://www.w3.org/2000/svg">
<path d="M19.3456 0C8.66399 0 0 8.87538 0 19.9392C0 31.003 8.66399 39.8784 19.3456 39.8784C30.0273 39.8784 38.6913 31.003 38.6913 19.9392C38.8099 8.87538 30.146 0 19.3456 0ZM28.247 28.8146C27.6536 31.6109 25.2799 33.7994 22.4314 33.7994H16.3785C13.6488 33.7994 11.2751 31.4894 10.563 28.8146V28.5714L8.90136 21.6413C11.2751 23.5866 14.0048 25.2888 16.6159 25.8967C16.9719 26.6261 17.684 27.4772 18.5148 27.4772H20.4138C21.3633 27.4772 21.9567 26.5046 22.4314 25.8967C25.0425 25.2888 27.6536 23.9514 29.9086 22.1277L28.247 28.8146ZM32.2823 12.4012L30.9767 17.6292C28.7217 20.304 25.3986 22.4924 22.1941 23.2219C21.838 22.614 21.1259 22.4924 20.5325 22.4924H18.6335C17.9214 22.4924 17.2093 22.7356 16.8532 23.2219C13.6488 22.4924 10.2069 20.304 7.95188 17.7508L6.64635 12.5228V12.4012C6.64635 12.2796 6.64635 12.6444 6.64635 12.5228C6.64635 11.307 7.71452 10.5775 8.90136 10.5775H30.146C31.3328 10.5775 32.2823 10.9422 32.2823 12.2796" fill="white"/>
<path d="M60.8852 15.3192C60.8852 19.3314 57.6808 22.614 53.7642 22.614C49.8476 22.614 46.6431 19.3314 46.6431 15.3192V4.37695H49.3728V9.7265C50.5597 8.63227 52.1026 8.14595 53.7642 8.14595C57.7994 8.02437 60.8852 11.307 60.8852 15.3192ZM58.2742 15.3192C58.2742 12.766 56.2565 10.8207 53.7642 10.8207C51.2718 10.8207 49.3728 12.8876 49.3728 15.3192C49.3728 17.8724 51.2718 19.9393 53.7642 19.9393C56.2565 19.9393 58.2742 17.8724 58.2742 15.3192Z" fill="white"/>
<path d="M74.0593 8.02441H76.6704V15.3192C76.6704 19.3314 73.4659 22.6141 69.5493 22.6141C65.6327 22.6141 62.4282 19.3314 62.4282 15.3192V8.02441H65.0393V15.3192C65.0393 17.8724 67.0569 19.9393 69.5493 19.9393C72.0417 19.9393 74.0593 17.8724 74.0593 15.3192V8.02441Z" fill="white"/>
<path d="M77.9758 15.3192C77.9758 11.3071 81.1803 8.02441 85.0969 8.02441C88.064 8.02441 90.6751 9.9697 91.6246 12.6445H88.6575C87.8267 11.5502 86.5211 10.8208 85.0969 10.8208C82.6045 10.8208 80.7056 12.8876 80.7056 15.3192C80.7056 17.7509 82.6045 19.9393 85.0969 19.9393C86.5211 19.9393 87.8267 19.2098 88.6575 18.1156H91.6246C90.5564 20.7904 88.064 22.6141 85.0969 22.6141C81.1803 22.6141 77.9758 19.3314 77.9758 15.3192Z" fill="white"/>
<path d="M95.8972 22.614H93.2861V4.25537H95.8972V15.1976V22.614ZM101.357 22.614L95.8972 15.3192L101.357 8.02437H104.799L99.3391 15.3192L104.799 22.614H101.357Z" fill="white"/>
<path d="M103.968 15.3192C103.968 11.3071 107.172 8.02441 111.089 8.02441C115.005 8.02441 118.21 11.3071 118.21 15.3192C118.21 15.8056 118.21 16.2919 118.091 16.6566H106.816C107.41 18.4803 109.071 19.8177 111.089 19.8177C112.394 19.8177 113.463 19.3314 114.293 18.4803H117.498C116.311 20.912 113.937 22.4925 111.089 22.4925C107.172 22.6141 103.968 19.3314 103.968 15.3192ZM106.816 13.9819H115.362C114.768 12.1582 113.107 10.8208 111.089 10.8208C109.071 10.6992 107.291 12.0366 106.816 13.9819Z" fill="white"/>
<path d="M124.382 8.02437H127.942V10.6991H124.382V22.614H121.771V10.6991H118.21V8.02437H121.771V4.37695H124.382V8.02437Z" fill="white"/>
<path d="M129.01 20.1826C129.604 20.1826 130.197 20.6689 130.197 21.3984C130.197 22.0063 129.722 22.6142 129.01 22.6142C128.298 22.6142 127.823 22.1279 127.823 21.3984C127.823 20.7905 128.417 20.1826 129.01 20.1826Z" fill="white"/>
<path d="M144.677 17.7509C144.677 20.4257 142.541 22.6141 139.93 22.6141C137.318 22.6141 135.182 20.4257 135.182 17.7509C135.182 15.0761 137.318 12.8877 139.93 12.8877C142.541 12.8877 144.677 15.0761 144.677 17.7509ZM142.897 17.7509C142.897 16.0488 141.591 14.7114 139.93 14.7114C138.268 14.7114 136.962 16.0488 136.962 17.7509C136.962 19.453 138.268 20.7904 139.93 20.7904C141.472 20.7904 142.897 19.453 142.897 17.7509Z" fill="white"/>
<path d="M131.859 15.6841H133.639V22.7358H131.859V15.6841Z" fill="white"/>
<path d="M133.639 12.6445H131.859V14.5898H133.639V12.6445Z" fill="white"/>
<path d="M55.1885 35.8664H50.7972C50.2038 35.8664 49.729 35.7448 49.2543 35.5016C48.7796 35.2585 48.4235 35.0153 48.0675 34.6505C47.7114 34.2858 47.474 33.9211 47.2367 33.4347C46.9993 32.9484 46.8806 32.4621 46.8806 31.8542C46.8806 31.2463 46.9993 30.76 47.2367 30.2737C47.474 29.7873 47.7114 29.4226 48.0675 29.0578C48.4235 28.6931 48.7796 28.4499 49.2543 28.2068C49.729 27.9636 50.2038 27.842 50.7972 27.842C51.3906 27.842 51.8654 27.9636 52.3401 28.2068C52.8149 28.4499 53.1709 28.6931 53.527 29.0578C53.883 29.4226 54.1204 29.7873 54.3578 30.2737C54.5951 30.76 54.7138 31.2463 54.7138 31.8542C54.7138 32.2189 54.7138 32.4621 54.5951 32.8268C54.4764 33.1916 54.3578 33.4347 54.2391 33.6779C54.1204 33.9211 53.883 34.1642 53.6456 34.4074C53.4083 34.6505 53.1709 34.7721 52.9335 34.8937H55.3072V35.8664H55.1885ZM47.9488 31.8542C47.9488 32.3405 48.0675 32.7053 48.1861 33.07C48.3048 33.4347 48.5422 33.7995 48.7796 34.0426C49.0169 34.2858 49.373 34.529 49.7291 34.6505C50.0851 34.7721 50.4412 34.8937 50.9159 34.8937C51.272 34.8937 51.7467 34.7721 52.1027 34.6505C52.4588 34.529 52.8149 34.2858 53.0522 34.0426C53.2896 33.7995 53.527 33.4347 53.6456 33.07C53.7643 32.7053 53.883 32.3405 53.883 31.8542C53.883 31.3679 53.7643 31.0031 53.6456 30.6384C53.527 30.2737 53.2896 29.9089 53.0522 29.6657C52.8149 29.4226 52.4588 29.1794 52.1027 29.0578C51.7467 28.9363 51.3906 28.8147 50.9159 28.8147C50.4412 28.8147 50.0851 28.9363 49.7291 29.0578C49.373 29.1794 49.0169 29.4226 48.7796 29.6657C48.5422 29.9089 48.3048 30.2737 48.1861 30.6384C47.9488 31.1247 47.9488 31.4895 47.9488 31.8542Z" fill="white"/>
<path d="M60.4106 34.6506C60.4106 34.8937 60.4106 35.1369 60.4106 35.2585C60.4106 35.5017 60.4106 35.6232 60.4106 35.8664H59.5798C59.5798 35.7448 59.5798 35.6232 59.5798 35.5017C59.5798 35.3801 59.5798 35.2585 59.5798 35.0153C59.5798 35.1369 59.4611 35.2585 59.3425 35.3801C59.2238 35.5017 59.1051 35.6232 58.9864 35.7448C58.8677 35.8664 58.6304 35.8664 58.5117 35.988C58.2743 35.988 58.1556 36.1096 57.9182 36.1096C57.5622 36.1096 57.3248 36.1096 57.0874 35.988C56.8501 35.8664 56.6127 35.7448 56.494 35.5017C56.3753 35.2585 56.2567 35.1369 56.138 34.8938C56.0193 34.6506 56.0193 34.4074 56.0193 34.0427V30.8816H56.8501V33.9211C56.8501 34.4074 56.9688 34.6506 57.0874 34.8938C57.3248 35.1369 57.5622 35.2585 57.9182 35.2585C58.1556 35.2585 58.393 35.2585 58.6304 35.1369C58.8677 35.0153 58.9864 34.8938 59.1051 34.7722C59.2238 34.6506 59.3425 34.4074 59.3425 34.1643C59.4611 33.9211 59.4611 33.6779 59.4611 33.3132V30.76H60.2919V34.6506H60.4106Z" fill="white"/>
<path d="M61.7163 28.8147C61.7163 28.6931 61.7163 28.4499 61.835 28.3284C61.9537 28.2068 62.0724 28.0852 62.3097 28.0852C62.4284 28.0852 62.6658 28.2068 62.7845 28.3284C62.9032 28.4499 62.9032 28.5715 62.9032 28.8147C62.9032 29.0578 62.9032 29.1794 62.7845 29.301C62.6658 29.4226 62.5471 29.4226 62.3097 29.4226C62.1911 29.4226 61.9537 29.4226 61.835 29.301C61.7163 29.0578 61.7163 28.9363 61.7163 28.8147ZM61.835 30.76H62.6658V35.8664H61.835V30.76Z" fill="white"/>
<path d="M63.7339 35.2585L66.701 31.4895H63.8526V30.76H67.7692V31.3679L64.8021 35.1369H67.7692V35.8664H63.6152V35.2585H63.7339Z" fill="white"/>
<path d="M68.3626 35.2585L71.3297 31.4895H68.4813V30.76H72.3979V31.3679L69.4307 35.1369H72.3979V35.8664H68.2439V35.2585H68.3626Z" fill="white"/>
<path d="M77.9761 34.8937C77.6201 35.2585 77.3827 35.6232 77.0267 35.7448C76.6706 35.8664 76.3145 35.988 75.8398 35.988C75.4837 35.988 75.1277 35.8664 74.7716 35.7448C74.4156 35.6232 74.1782 35.3801 73.9408 35.1369C73.7035 34.8937 73.5848 34.6506 73.4661 34.2858C73.3474 33.9211 73.3474 33.5564 73.3474 33.1916C73.3474 32.8269 73.4661 32.4621 73.5848 32.0974C73.7035 31.7326 73.9408 31.4895 74.1782 31.2463C74.4156 31.0032 74.6529 30.8816 75.009 30.6384C75.3651 30.3953 75.7211 30.3953 76.0772 30.3953C76.4332 30.3953 76.7893 30.3953 77.0267 30.5168C77.264 30.6384 77.6201 30.76 77.7388 31.0032C77.9761 31.2463 78.0948 31.4895 78.2135 31.8542C78.3322 32.219 78.3322 32.5837 78.3322 32.9485V33.1916H74.2969C74.2969 33.4348 74.4156 33.6779 74.4156 33.7995C74.5343 34.0427 74.6529 34.1643 74.7716 34.2858C74.8903 34.4074 75.1277 34.529 75.2464 34.6506C75.3651 34.7722 75.6024 34.7722 75.8398 34.7722C76.1959 34.7722 76.5519 34.6506 76.7893 34.529C77.0266 34.4074 77.264 34.1643 77.5014 33.9211L77.9761 34.8937ZM77.264 32.8269C77.264 32.3406 77.1453 32.0974 76.7893 31.7327C76.5519 31.4895 76.1959 31.3679 75.7211 31.3679C75.2464 31.3679 74.8903 31.4895 74.653 31.7327C74.4156 31.9758 74.1782 32.3406 74.1782 32.8269H77.264Z" fill="white"/>
<path d="M79.4004 34.529C79.5191 34.7722 79.7564 34.8937 79.9938 35.0153C80.2312 35.1369 80.4685 35.2585 80.7059 35.2585C80.8246 35.2585 80.9433 35.2585 81.062 35.2585C81.1807 35.2585 81.2993 35.1369 81.418 35.1369C81.5367 35.0153 81.6554 35.0153 81.6554 34.8938C81.7741 34.7722 81.7741 34.6506 81.7741 34.529C81.7741 34.4074 81.7741 34.2858 81.6554 34.1643C81.5367 34.0427 81.5367 34.0427 81.418 33.9211C81.2993 33.7995 81.1807 33.7995 81.062 33.7995C80.9433 33.7995 80.8246 33.6779 80.7059 33.6779C80.4685 33.6779 80.2312 33.5564 79.9938 33.5564C79.7564 33.4348 79.6377 33.4348 79.4004 33.3132C79.2817 33.1916 79.163 33.07 79.0443 32.9485C78.9256 32.8269 78.9256 32.5837 78.9256 32.3406C78.9256 32.0974 78.9256 31.8542 79.0443 31.7327C79.163 31.4895 79.2817 31.3679 79.5191 31.2463C79.7564 31.1248 79.8751 31.0032 80.1125 31.0032C80.3499 30.8816 80.5872 30.8816 80.8246 30.8816C81.1806 30.8816 81.5367 31.0032 81.7741 31.1248C82.1301 31.2463 82.3675 31.4895 82.4862 31.8542L81.7741 32.3406C81.6554 32.0974 81.5367 31.9758 81.2993 31.8542C81.1806 31.7327 80.9433 31.7327 80.7059 31.7327C80.5872 31.7327 80.4685 31.7327 80.3499 31.7327C80.2312 31.7327 80.1125 31.8542 79.9938 31.8542C79.8751 31.8542 79.8751 31.9758 79.7564 32.0974C79.6377 32.219 79.6377 32.3406 79.6377 32.4621C79.6377 32.5837 79.6377 32.7053 79.7564 32.7053C79.8751 32.8269 79.8751 32.8269 79.9938 32.9485C80.1125 32.9485 80.2312 33.07 80.3499 33.07C80.4685 33.07 80.7059 33.1916 80.8246 33.1916C81.062 33.1916 81.2993 33.3132 81.418 33.3132C81.6554 33.4348 81.7741 33.4348 81.8928 33.5564C82.0114 33.6779 82.1301 33.7995 82.2488 34.0427C82.3675 34.1643 82.3675 34.4074 82.3675 34.6506C82.3675 34.8937 82.3675 35.1369 82.2488 35.3801C82.1301 35.6232 82.0114 35.7448 81.7741 35.8664C81.5367 35.988 81.418 36.1096 81.1807 36.1096C80.9433 36.1096 80.7059 36.2311 80.4685 36.2311C79.9938 36.2311 79.6377 36.1096 79.4004 35.988C79.0443 35.8664 78.8069 35.6232 78.5696 35.2585L79.4004 34.529Z" fill="white"/>
<path d="M89.2512 31.4895H87.8269V34.0427C87.8269 34.1642 87.8269 34.4074 87.8269 34.529C87.8269 34.6506 87.8269 34.7722 87.9456 34.8937C87.9456 35.0153 88.0643 35.1369 88.183 35.1369C88.3017 35.2585 88.4204 35.2585 88.6577 35.2585C88.7764 35.2585 88.8951 35.2585 89.0138 35.2585C89.1325 35.2585 89.2512 35.1369 89.3698 35.1369V35.8664C89.2512 35.988 89.0138 35.988 88.8951 35.988C88.7764 35.988 88.539 35.988 88.4204 35.988C88.0643 35.988 87.8269 35.988 87.7083 35.8664C87.5896 35.7448 87.3522 35.6232 87.2335 35.5016C87.1148 35.3801 87.1148 35.1369 86.9961 35.0153C86.9961 34.7722 86.9961 34.529 86.9961 34.2858V31.4895H85.928V30.76H86.9961V29.301H87.8269V30.76H89.2512V31.4895Z" fill="white"/>
<path d="M90.2007 27.5989H91.0315V31.4895C91.0315 31.3679 91.1502 31.2463 91.2688 31.2463C91.3875 31.2463 91.5062 31.0031 91.6249 31.0031C91.7436 30.8815 91.8623 30.8815 92.0996 30.76C92.2183 30.76 92.4557 30.6384 92.6931 30.6384C93.0491 30.6384 93.2865 30.6384 93.5239 30.76C93.7612 30.8815 93.9986 31.0031 94.1173 31.2463C94.236 31.3679 94.3547 31.611 94.4733 31.8542C94.592 32.0974 94.592 32.3405 94.592 32.7053V35.8663H93.7612V32.8268C93.7612 32.3405 93.6425 32.0974 93.5239 31.8542C93.2865 31.611 93.0491 31.4895 92.6931 31.4895C92.4557 31.4895 92.2183 31.4895 91.981 31.611C91.7436 31.7326 91.6249 31.8542 91.5062 31.9758C91.3875 32.0974 91.2688 32.3405 91.2688 32.5837C91.1502 32.8268 91.1502 33.07 91.1502 33.4347V35.9879H90.2007V27.5989Z" fill="white"/>
<path d="M95.8975 31.3679C96.1349 31.1247 96.4909 30.8816 96.847 30.76C97.203 30.6384 97.5591 30.5168 97.9151 30.5168C98.6272 30.5168 99.2207 30.6384 99.5767 31.0032C99.9328 31.3679 100.051 31.8542 100.051 32.5837V34.7722C100.051 34.8937 100.051 35.0153 100.051 35.2585C100.051 35.3801 100.051 35.5016 100.051 35.7448H99.2207C99.2207 35.6232 99.2207 35.5016 99.2207 35.3801C99.2207 35.2585 99.2207 35.1369 99.2207 35.0153C99.102 35.2585 98.8646 35.5016 98.5086 35.6232C98.2712 35.7448 97.9151 35.8664 97.5591 35.8664C97.3217 35.8664 97.0843 35.8664 96.847 35.7448C96.6096 35.6232 96.3722 35.6232 96.2535 35.5016C96.1349 35.3801 95.8975 35.2585 95.8975 35.0153C95.7788 34.7722 95.7788 34.6506 95.7788 34.4074C95.7788 34.0427 95.8975 33.6779 96.1349 33.4348C96.3722 33.1916 96.6096 33.07 96.9657 32.9485C97.3217 32.8269 97.6778 32.7053 98.0338 32.7053C98.3899 32.7053 98.7459 32.7053 99.102 32.7053H99.458V32.5837C99.458 32.219 99.3394 31.9758 99.102 31.7327C98.8646 31.4895 98.6272 31.4895 98.1525 31.4895C97.9151 31.4895 97.5591 31.4895 97.3217 31.6111C97.0843 31.7327 96.847 31.8542 96.6096 31.9758L95.8975 31.3679ZM98.3899 33.4348C97.7965 33.4348 97.4404 33.5564 97.0843 33.6779C96.7283 33.7995 96.6096 34.0427 96.6096 34.4074C96.6096 34.7722 96.7283 35.0153 96.9657 35.1369C97.203 35.2585 97.4404 35.3801 97.7965 35.3801C98.0338 35.3801 98.2712 35.3801 98.3899 35.2585C98.6272 35.1369 98.7459 35.0153 98.8646 34.8937C98.9833 34.7722 99.102 34.6506 99.102 34.4074C99.2207 34.1643 99.2207 34.0427 99.2207 33.7995V33.4348H98.3899Z" fill="white"/>
<path d="M104.206 31.4895H102.781V34.0427C102.781 34.1642 102.781 34.4074 102.781 34.529C102.781 34.6506 102.781 34.7722 102.9 34.8937C102.9 35.0153 103.019 35.1369 103.137 35.1369C103.256 35.2585 103.375 35.2585 103.612 35.2585C103.731 35.2585 103.849 35.2585 103.968 35.2585C104.087 35.2585 104.206 35.1369 104.324 35.1369V35.8664C104.206 35.988 103.968 35.988 103.849 35.988C103.731 35.988 103.493 35.988 103.375 35.988C103.019 35.988 102.781 35.988 102.663 35.8664C102.425 35.7448 102.307 35.6232 102.188 35.5016C102.069 35.3801 102.069 35.1369 101.95 35.0153C101.95 34.7722 101.95 34.529 101.95 34.2858V31.4895H100.882V30.76H101.95V29.301H102.781V30.76H104.206V31.4895Z" fill="white"/>
<path d="M111.445 32.0974C111.326 31.8542 111.089 31.7326 110.852 31.6111C110.614 31.4895 110.377 31.4895 110.14 31.4895C109.902 31.4895 109.665 31.4895 109.428 31.6111C109.19 31.7326 109.071 31.8542 108.953 31.9758C108.834 32.0974 108.715 32.3406 108.597 32.5837C108.478 32.8269 108.478 33.07 108.478 33.3132C108.478 33.5564 108.478 33.7995 108.597 34.0427C108.715 34.2858 108.834 34.529 108.953 34.6506C109.071 34.7722 109.309 35.0153 109.428 35.0153C109.665 35.1369 109.902 35.1369 110.14 35.1369C110.733 35.1369 111.089 34.8937 111.445 34.529L112.039 35.1369C111.801 35.3801 111.564 35.6232 111.208 35.7448C110.852 35.8664 110.496 35.988 110.14 35.988C109.784 35.988 109.428 35.8664 109.071 35.7448C108.715 35.6232 108.478 35.3801 108.241 35.1369C108.003 34.8937 107.885 34.6506 107.766 34.2858C107.647 33.9211 107.529 33.5564 107.529 33.1916C107.529 32.8269 107.647 32.4621 107.766 32.0974C107.885 31.7326 108.122 31.4895 108.241 31.2463C108.478 31.0032 108.715 30.76 109.071 30.6384C109.428 30.5168 109.784 30.3953 110.14 30.3953C110.496 30.3953 110.852 30.5168 111.208 30.6384C111.564 30.76 111.801 31.0032 112.039 31.2463L111.445 32.0974Z" fill="white"/>
<path d="M112.632 33.3132C112.632 32.9485 112.751 32.5837 112.869 32.219C112.988 31.8542 113.226 31.6111 113.463 31.3679C113.7 31.1247 113.938 31.0032 114.294 30.76C114.65 30.6384 115.006 30.5168 115.362 30.5168C115.718 30.5168 116.074 30.6384 116.43 30.76C116.786 30.8816 117.023 31.1247 117.261 31.3679C117.498 31.6111 117.736 31.8542 117.854 32.219C117.973 32.5837 118.092 32.9485 118.092 33.3132C118.092 33.6779 117.973 34.0427 117.854 34.4074C117.736 34.7722 117.498 35.0153 117.261 35.2585C117.023 35.5016 116.786 35.6232 116.43 35.8664C116.074 35.988 115.718 36.1096 115.362 36.1096C115.006 36.1096 114.65 35.988 114.294 35.8664C113.938 35.7448 113.7 35.5016 113.463 35.2585C113.226 35.0153 112.988 34.7722 112.869 34.4074C112.751 34.0427 112.632 33.6779 112.632 33.3132ZM113.582 33.3132C113.582 33.5564 113.582 33.7995 113.7 34.0427C113.819 34.2858 113.938 34.529 114.056 34.6506C114.175 34.7722 114.412 35.0153 114.65 35.0153C114.887 35.1369 115.124 35.1369 115.362 35.1369C115.599 35.1369 115.837 35.1369 116.074 35.0153C116.311 34.8937 116.43 34.7722 116.667 34.6506C116.786 34.529 116.905 34.2858 117.023 34.0427C117.142 33.7995 117.142 33.5564 117.142 33.3132C117.142 33.07 117.142 32.8269 117.023 32.5837C116.905 32.3406 116.786 32.0974 116.667 31.9758C116.549 31.8542 116.193 31.6111 116.074 31.6111C115.837 31.4895 115.599 31.4895 115.362 31.4895C115.124 31.4895 114.887 31.4895 114.65 31.6111C114.412 31.7327 114.294 31.8542 114.056 31.9758C113.819 32.0974 113.819 32.3406 113.7 32.5837C113.582 32.8269 113.582 33.07 113.582 33.3132Z" fill="white"/>
<path d="M119.16 31.9758C119.16 31.7327 119.16 31.4895 119.16 31.3679C119.16 31.1247 119.16 31.0032 119.16 30.76H119.99C119.99 30.8816 119.99 31.0032 119.99 31.1247C119.99 31.2463 119.99 31.3679 119.99 31.6111C119.99 31.4895 120.109 31.3679 120.228 31.2463C120.347 31.1247 120.465 31.0032 120.584 30.8816C120.703 30.76 120.94 30.76 121.059 30.6384C121.177 30.6384 121.415 30.5168 121.652 30.5168C122.008 30.5168 122.245 30.5168 122.483 30.6384C122.72 30.76 122.958 30.8816 123.076 31.1247C123.195 31.2463 123.314 31.4895 123.432 31.7327C123.551 31.9758 123.551 32.219 123.551 32.5837V35.7448H122.72V32.8269C122.72 32.3406 122.602 32.0974 122.483 31.8542C122.245 31.6111 122.008 31.4895 121.652 31.4895C121.415 31.4895 121.177 31.4895 120.94 31.6111C120.703 31.7327 120.584 31.8542 120.465 31.9758C120.347 32.0974 120.228 32.3406 120.228 32.5837C120.109 32.8269 120.109 33.07 120.109 33.4348V35.988H119.278V31.9758H119.16Z" fill="white"/>
<path d="M127.23 35.8664H126.281L124.263 30.76H125.213L126.756 34.7722L128.298 30.76H129.248L127.23 35.8664Z" fill="white"/>
<path d="M134.47 34.8937C134.114 35.2585 133.877 35.6232 133.521 35.7448C133.164 35.8664 132.808 35.988 132.334 35.988C131.978 35.988 131.622 35.8664 131.266 35.7448C130.909 35.6232 130.672 35.3801 130.435 35.1369C130.197 34.8937 130.079 34.6506 129.96 34.2858C129.841 33.9211 129.841 33.5564 129.841 33.1916C129.841 32.8269 129.96 32.4621 130.079 32.0974C130.197 31.7326 130.435 31.4895 130.672 31.2463C130.909 31.0032 131.147 30.8816 131.503 30.6384C131.859 30.3953 132.215 30.3953 132.571 30.3953C132.927 30.3953 133.283 30.3953 133.521 30.5168C133.758 30.6384 134.114 30.76 134.233 31.0032C134.47 31.2463 134.589 31.4895 134.707 31.8542C134.826 32.219 134.826 32.5837 134.826 32.9485V33.1916H130.553C130.553 33.4348 130.672 33.6779 130.672 33.7995C130.791 34.0427 130.909 34.1643 131.028 34.2858C131.147 34.4074 131.384 34.529 131.503 34.6506C131.622 34.7722 131.859 34.7722 132.096 34.7722C132.452 34.7722 132.808 34.6506 133.046 34.529C133.283 34.4074 133.521 34.1643 133.758 33.9211L134.47 34.8937ZM133.758 32.8269C133.758 32.3406 133.639 32.0974 133.283 31.7327C133.046 31.4895 132.69 31.3679 132.215 31.3679C131.74 31.3679 131.384 31.4895 131.147 31.7327C130.909 31.9758 130.672 32.3406 130.672 32.8269H133.758Z" fill="white"/>
<path d="M135.776 31.9758C135.776 31.7327 135.776 31.4895 135.776 31.3679C135.776 31.1247 135.776 31.0032 135.776 30.76H136.606C136.606 30.8816 136.606 31.0032 136.606 31.1247C136.606 31.2463 136.606 31.3679 136.606 31.6111C136.606 31.4895 136.725 31.3679 136.844 31.2463C136.962 31.1247 137.081 31.0032 137.2 30.8816C137.319 30.76 137.556 30.76 137.675 30.6384C137.912 30.6384 138.031 30.5168 138.268 30.5168H138.387H138.505V31.3679C138.387 31.3679 138.268 31.2463 138.031 31.2463C137.556 31.2463 137.2 31.3679 136.962 31.7327C136.725 32.0974 136.606 32.5837 136.606 33.07V35.6232H135.776V31.9758Z" fill="white"/>
<path d="M142.185 31.4895H140.76V34.0427C140.76 34.1642 140.76 34.4074 140.76 34.529C140.76 34.6506 140.76 34.7722 140.879 34.8937C140.879 35.0153 140.998 35.1369 141.116 35.1369C141.235 35.2585 141.354 35.2585 141.591 35.2585C141.71 35.2585 141.828 35.2585 141.947 35.2585C142.066 35.2585 142.185 35.1369 142.303 35.1369V35.8664C142.185 35.988 141.947 35.988 141.828 35.988C141.71 35.988 141.472 35.988 141.354 35.988C140.998 35.988 140.76 35.988 140.642 35.8664C140.523 35.7448 140.286 35.6232 140.167 35.5016C140.048 35.3801 140.048 35.1369 139.929 35.0153C139.929 34.7722 139.929 34.529 139.929 34.2858V31.4895H138.861V30.76H139.929V29.301H140.76V30.76H142.185V31.4895Z" fill="white"/>
<path d="M143.727 34.6506C143.846 34.6506 144.084 34.7722 144.202 34.8938C144.321 35.0154 144.44 35.137 144.44 35.3801C144.44 35.6233 144.321 35.7449 144.202 35.8664C144.084 35.988 143.965 36.1096 143.727 36.1096C143.609 36.1096 143.371 35.988 143.253 35.8664C143.134 35.7449 143.015 35.6233 143.015 35.3801C143.015 35.2585 143.134 35.0154 143.253 34.8938C143.371 34.6506 143.609 34.6506 143.727 34.6506Z" fill="white"/>
<path d="M145.626 29.0579H145.033V30.8816H144.796V29.0579H144.202V28.8147H145.745V29.0579H145.626Z" fill="white"/>
<path d="M145.864 28.8147H146.22L146.932 30.3952L147.644 28.8147H148V30.8816H147.763V29.1794L147.051 30.8816H146.932L146.22 29.1794V30.8816H145.982V28.8147H145.864Z" fill="white"/>
<path d="M145.389 10.8208V9.84813H145.982C146.338 9.84813 146.576 9.96971 146.576 10.3345C146.576 10.5776 146.338 10.8208 146.101 10.8208H145.389ZM145.152 11.7934L145.27 11.915C145.27 11.915 145.389 11.915 145.389 11.7934V10.9424H145.982H146.101L146.457 11.6718C146.457 11.6718 146.457 11.6718 146.576 11.6718H146.694C146.694 11.6718 146.813 11.6718 146.694 11.5503L146.22 10.9424C146.457 10.9424 146.813 10.6992 146.813 10.3345C146.813 9.84813 146.457 9.60497 146.101 9.60497H145.27C145.27 9.60497 145.152 9.60497 145.152 9.72655V11.7934ZM143.965 10.6992C143.965 9.60497 144.795 8.7539 145.864 8.7539C146.932 8.7539 147.763 9.60497 147.763 10.6992C147.763 11.7934 146.932 12.6445 145.864 12.6445C144.795 12.6445 143.965 11.7934 143.965 10.6992ZM143.727 10.6992C143.727 11.915 144.677 12.8876 145.864 12.8876C147.05 12.8876 148 11.915 148 10.6992C148 9.48339 147.05 8.51074 145.864 8.51074C144.677 8.63232 143.727 9.60497 143.727 10.6992Z" fill="white"/>
</svg>
