<?xml version="1.0" encoding="utf-8"?>
<!-- Generator: Adobe Illustrator 17.0.0, SVG Export Plug-In . SVG Version: 6.00 Build 0)  -->
<!DOCTYPE svg PUBLIC "-//W3C//DTD SVG 1.1//EN" "http://www.w3.org/Graphics/SVG/1.1/DTD/svg11.dtd">
<svg version="1.1" id="Layer_1" xmlns="http://www.w3.org/2000/svg" xmlns:xlink="http://www.w3.org/1999/xlink" x="0px" y="0px"
	 width="864px" height="167.639px" viewBox="0 0 864 167.639" enable-background="new 0 0 864 167.639" xml:space="preserve">
<g>
	<path d="M108.869,117.995l8.317,3.429v6.499H81.338v-6.499l8.173-3.429V51.742l-8.173-3.61v-5.777l27.531-6.499l-0.717,12.817
		h0.717c3.919-4.333,7.719-7.551,11.4-9.658c3.679-2.104,7.672-3.159,11.973-3.159c7.169,0,12.426,2.409,15.773,7.221
		c3.345,4.815,5.019,11.314,5.019,19.497v55.421l8.174,3.429v6.499h-34.414v-6.499l6.883-3.429V65.642c0-2.044-0.096-4-0.287-5.866
		c-0.193-1.865-0.645-3.52-1.362-4.965c-0.717-1.444-1.792-2.617-3.226-3.52c-1.434-0.903-3.395-1.354-5.879-1.354
		c-1.817,0-3.921,0.212-6.309,0.632c-2.39,0.423-4.972,1.173-7.743,2.257V117.995z"/>
	<path d="M192.753,14.193v23.468h18.498v10.832h-18.498v56.866c0,4.453,0.811,7.251,2.438,8.394
		c1.625,1.145,3.775,1.714,6.453,1.714c1.051,0,2.389-0.18,4.015-0.541c1.625-0.361,3.202-1.021,4.732-1.986l1.577,9.568
		c-2.677,2.409-5.76,4.214-9.249,5.415c-3.491,1.201-7.051,1.805-10.683,1.805c-6.693,0-11.472-1.954-14.339-5.867
		c-2.868-3.91-4.302-9.478-4.302-16.698V48.493h-8.174v-7.401l8.174-3.43l11.902-23.468H192.753z"/>
	<path d="M244.66,117.995l12.619,3.429v6.499h-40.15v-6.499l8.173-3.429V51.742l-8.173-3.61v-5.777l27.531-6.499l-0.717,12.817
		h0.717c1.815-2.889,3.919-5.173,6.309-6.86c2.388-1.684,4.851-2.979,7.385-3.881c2.532-0.903,5.066-1.472,7.6-1.715
		c2.532-0.24,4.851-0.361,6.955-0.361l-1.434,28.162h-12.188l-2.438-14.081c-1.721,0-3.706,0.271-5.951,0.813
		c-2.247,0.542-4.327,1.235-6.238,2.076V117.995z"/>
	<path d="M299.866,82.612c0.19,11.314,2.03,19.677,5.52,25.093c3.488,5.416,8.77,8.124,15.845,8.124c3.632,0,6.858-0.48,9.679-1.445
		c2.818-0.961,6.045-2.405,9.679-4.332l1.577,9.388c-1.34,1.083-2.845,2.228-4.517,3.43c-1.674,1.204-3.634,2.318-5.879,3.339
		c-2.247,1.024-4.732,1.864-7.456,2.527c-2.724,0.66-5.808,0.993-9.249,0.993c-4.781,0-9.345-0.875-13.694-2.617
		c-4.351-1.743-8.173-4.513-11.471-8.304c-3.298-3.791-5.904-8.665-7.815-14.623c-1.913-5.957-2.868-13.147-2.868-21.572
		c0-8.784,1.004-16.157,3.011-22.114s4.66-10.77,7.958-14.442c3.298-3.67,7.026-6.287,11.184-7.853
		c4.159-1.562,8.388-2.347,12.69-2.347c5.449,0,10.06,1.024,13.838,3.069c3.775,2.048,6.811,5.055,9.105,9.026
		c2.294,3.971,3.966,8.876,5.019,14.713c1.051,5.839,1.577,12.488,1.577,19.948H299.866z M314.061,45.424
		c-1.434,0-2.892,0.361-4.373,1.084c-1.483,0.722-2.868,2.048-4.158,3.971c-1.291,1.926-2.415,4.575-3.37,7.943
		c-0.957,3.37-1.627,7.762-2.008,13.178h11.328l13.909-0.902c0-3.611-0.215-6.95-0.645-10.02c-0.43-3.069-1.1-5.715-2.008-7.943
		c-0.909-2.225-2.079-4-3.513-5.325C317.789,46.087,316.069,45.424,314.061,45.424z"/>
	<path d="M358.225,51.742l-8.317-3.61v-5.777l27.675-6.499l-0.717,13.178h0.717c2.485-4.211,5.471-7.461,8.962-9.749
		c3.489-2.284,7.289-3.43,11.4-3.43c8.22,0,14.792,3.763,19.717,11.283c4.922,7.523,7.385,18.264,7.385,32.223
		c0,8.665-0.861,16.158-2.581,22.476c-1.721,6.318-4.158,11.554-7.313,15.705c-3.154,4.152-6.955,7.221-11.4,9.207
		c-4.445,1.985-9.392,2.978-14.841,2.978c-2.678,0-4.828-0.121-6.453-0.361c-1.626-0.243-3.251-0.541-4.875-0.902v29.245
		l10.754,3.43v6.498h-38.429v-6.498l8.317-3.43V51.742z M377.583,117.814c1.337,0.965,2.89,1.625,4.66,1.986
		c1.768,0.361,3.32,0.541,4.66,0.541c5.83,0,10.203-3.037,13.12-9.117c2.915-6.076,4.373-16.157,4.373-30.238
		c0-6.257-0.383-11.432-1.147-15.525c-0.766-4.09-1.864-7.34-3.298-9.749c-1.434-2.406-3.204-4.09-5.306-5.055
		c-2.104-0.962-4.495-1.444-7.17-1.444c-1.626,0-3.298,0.333-5.019,0.993c-1.721,0.663-3.347,1.596-4.875,2.798V117.814z"/>
	<path d="M460.608,117.995l12.619,3.429v6.499h-40.15v-6.499l8.173-3.429V51.742l-8.173-3.61v-5.777l27.531-6.499l-0.717,12.817
		h0.717c1.815-2.889,3.919-5.173,6.309-6.86c2.388-1.684,4.851-2.979,7.385-3.881c2.532-0.903,5.066-1.472,7.6-1.715
		c2.532-0.24,4.851-0.361,6.955-0.361l-1.434,28.162h-12.188l-2.438-14.081c-1.721,0-3.706,0.271-5.951,0.813
		c-2.247,0.542-4.327,1.235-6.238,2.076V117.995z"/>
	<path d="M515.814,82.612c0.19,11.314,2.03,19.677,5.52,25.093c3.488,5.416,8.77,8.124,15.845,8.124c3.632,0,6.858-0.48,9.679-1.445
		c2.818-0.961,6.045-2.405,9.679-4.332l1.577,9.388c-1.34,1.083-2.845,2.228-4.517,3.43c-1.674,1.204-3.634,2.318-5.879,3.339
		c-2.247,1.024-4.732,1.864-7.456,2.527c-2.724,0.66-5.808,0.993-9.249,0.993c-4.781,0-9.345-0.875-13.694-2.617
		c-4.351-1.743-8.173-4.513-11.471-8.304c-3.298-3.791-5.904-8.665-7.815-14.623c-1.913-5.957-2.868-13.147-2.868-21.572
		c0-8.784,1.004-16.157,3.011-22.114s4.66-10.77,7.958-14.442c3.298-3.67,7.026-6.287,11.185-7.853
		c4.159-1.562,8.388-2.347,12.69-2.347c5.449,0,10.06,1.024,13.838,3.069c3.775,2.048,6.811,5.055,9.105,9.026
		c2.294,3.971,3.966,8.876,5.019,14.713c1.051,5.839,1.577,12.488,1.577,19.948H515.814z M530.009,45.424
		c-1.434,0-2.892,0.361-4.373,1.084c-1.483,0.722-2.868,2.048-4.158,3.971c-1.291,1.926-2.415,4.575-3.37,7.943
		c-0.957,3.37-1.627,7.762-2.008,13.178h11.328l13.909-0.902c0-3.611-0.215-6.95-0.645-10.02c-0.43-3.069-1.1-5.715-2.008-7.943
		c-0.909-2.225-2.079-4-3.513-5.325C533.737,46.087,532.017,45.424,530.009,45.424z"/>
	<path d="M594.678,117.995l8.317,3.429v6.499h-35.848v-6.499l8.173-3.429V51.742l-8.173-3.61v-5.777l27.531-6.499l-0.717,12.817
		h0.717c3.919-4.333,7.719-7.551,11.4-9.658c3.679-2.104,7.672-3.159,11.973-3.159c7.17,0,12.426,2.409,15.773,7.221
		c3.345,4.815,5.019,11.314,5.019,19.497v55.421l8.174,3.429v6.499h-34.414v-6.499l6.883-3.429V65.642c0-2.044-0.096-4-0.287-5.866
		c-0.193-1.865-0.645-3.52-1.362-4.965c-0.717-1.444-1.792-2.617-3.226-3.52c-1.434-0.903-3.395-1.354-5.879-1.354
		c-1.817,0-3.921,0.212-6.309,0.632c-2.39,0.423-4.972,1.173-7.743,2.257V117.995z"/>
	<path d="M673.829,82.612c0.19,11.314,2.03,19.677,5.52,25.093c3.488,5.416,8.77,8.124,15.845,8.124c3.633,0,6.859-0.48,9.679-1.445
		c2.819-0.961,6.045-2.405,9.679-4.332l1.578,9.388c-1.34,1.083-2.846,2.228-4.518,3.43c-1.673,1.204-3.633,2.318-5.878,3.339
		c-2.248,1.024-4.733,1.864-7.457,2.527c-2.724,0.66-5.807,0.993-9.249,0.993c-4.781,0-9.345-0.875-13.694-2.617
		c-4.351-1.743-8.173-4.513-11.471-8.304c-3.298-3.791-5.904-8.665-7.815-14.623c-1.913-5.957-2.868-13.147-2.868-21.572
		c0-8.784,1.004-16.157,3.011-22.114s4.66-10.77,7.958-14.442c3.298-3.67,7.026-6.287,11.185-7.853
		c4.159-1.562,8.388-2.347,12.69-2.347c5.449,0,10.06,1.024,13.838,3.069c3.775,2.048,6.811,5.055,9.105,9.026
		c2.294,3.971,3.965,8.876,5.018,14.713c1.051,5.839,1.578,12.488,1.578,19.948H673.829z M688.025,45.424
		c-1.434,0-2.892,0.361-4.373,1.084c-1.483,0.722-2.868,2.048-4.158,3.971c-1.291,1.926-2.415,4.575-3.37,7.943
		c-0.957,3.37-1.627,7.762-2.008,13.178h11.328l13.91-0.902c0-3.611-0.215-6.95-0.646-10.02c-0.43-3.069-1.1-5.715-2.008-7.943
		c-0.91-2.225-2.08-4-3.513-5.325C691.753,46.087,690.033,45.424,688.025,45.424z"/>
	<path d="M793.274,117.995l8.173,3.429v6.499l-26.241,1.805l-1.291-1.444l0.717-11.373h-0.717
		c-3.921,4.453-7.552,7.703-10.897,9.748c-3.347,2.045-7.17,3.069-11.471,3.069c-7.17,0-12.285-2.406-15.343-7.221
		c-3.061-4.813-4.589-11.252-4.589-19.317v-51.45l-8.316-3.61v-5.777l28.391-6.499l-0.717,18.594v45.493
		c0,2.048,0.072,4.034,0.215,5.957c0.143,1.927,0.574,3.61,1.291,5.055c0.717,1.444,1.742,2.617,3.083,3.52
		c1.338,0.902,3.248,1.354,5.735,1.354c1.815,0,3.679-0.24,5.592-0.723c1.911-0.479,4.253-1.263,7.026-2.346V51.742l-10.037-3.61
		v-5.777l30.112-6.499l-0.717,18.594V117.995z"/>
	<path d="M835.145,117.995l12.618,3.429v6.499h-40.15v-6.499l8.174-3.429V51.742l-8.174-3.61v-5.777l27.532-6.499l-0.718,12.817
		h0.718c1.815-2.889,3.918-5.173,6.309-6.86c2.388-1.684,4.851-2.979,7.385-3.881c2.531-0.903,5.065-1.472,7.6-1.715
		c2.531-0.24,4.85-0.361,6.955-0.361l-1.434,28.162H849.77l-2.437-14.081c-1.721,0-3.706,0.271-5.951,0.813
		c-2.247,0.542-4.326,1.235-6.237,2.076V117.995z"/>
</g>
<ellipse cx="859.609" cy="122.279" rx="4.391" ry="4.683"/>
<polygon points="9.859,10.757 9.859,114.266 0,114.266 0,125.352 73.945,125.352 73.945,93.74 58.731,93.74 58.731,114.485 
	31.919,114.485 31.919,64.981 44.899,64.981 44.899,75.628 55.432,75.628 55.432,45.772 45.112,45.772 45.112,55.541 32.132,55.541 
	32.132,9.44 57.135,9.44 57.135,27.771 70.541,27.771 70.541,0 0.213,0 0.213,10.647 "/>
</svg>
