<?xml version="1.0" encoding="utf-8"?>
<!-- Generator: Adobe Illustrator 17.0.0, SVG Export Plug-In . SVG Version: 6.00 Build 0)  -->
<!DOCTYPE svg PUBLIC "-//W3C//DTD SVG 1.1//EN" "http://www.w3.org/Graphics/SVG/1.1/DTD/svg11.dtd">
<svg version="1.1" id="Layer_1" xmlns="http://www.w3.org/2000/svg" xmlns:xlink="http://www.w3.org/1999/xlink" x="0px" y="0px"
	 width="864px" height="164.232px" viewBox="0 0 864 164.232" enable-background="new 0 0 864 164.232" xml:space="preserve">
<g>
	<path fill="none" d="M553.843,29.473c-2.196-2.476-4.831-4.199-7.909-5.169c-2.291-0.715-5.618-1.072-9.985-1.072H516.59v56.137
		h19.932c3.912,0,7.038-0.396,9.376-1.187c3.126-1.072,5.606-2.566,7.444-4.48c2.434-2.528,4.306-5.833,5.618-9.918
		c1.074-3.344,1.611-7.327,1.611-11.948c0-5.258-0.573-9.681-1.718-13.268C557.708,34.982,556.038,31.95,553.843,29.473z"/>
	<polygon fill="#FFC522" points="63.589,61.97 31.794,0 0,0 0,164.232 29.995,164.232 29.995,63.185 64.189,128.801 99.583,63.793 
		99.583,164.232 129.577,164.232 129.577,0.608 98.383,0.608 	"/>
	<rect x="168.771" y="1.201" fill="#FFC522" width="27.995" height="163.031"/>
	<polygon points="392.46,92.018 454.014,92.018 454.014,64.408 392.46,64.408 392.46,28.077 458.614,28.077 458.614,0.354 
		367.705,0.354 367.705,164.232 460.956,164.232 460.956,136.622 392.46,136.622 	"/>
	<path d="M567.901,94.88c0,0,27.195-10.038,21.796-48.364c0,0,0.3-41.672-45.892-45.93l-55.89,0.203v163.444h29.995v-61.241h17.597
		l31.595,61.241l34.394-0.811l-33.794-64.08C567.701,99.341,565.702,96.097,567.901,94.88z M558.96,63.784
		c-1.312,4.084-3.185,7.39-5.618,9.918c-1.837,1.914-4.318,3.408-7.444,4.48c-2.337,0.791-5.464,1.187-9.376,1.187H516.59V23.232
		h19.359c4.367,0,7.694,0.358,9.985,1.072c3.078,0.97,5.713,2.694,7.909,5.169c2.195,2.477,3.864,5.508,5.01,9.094
		c1.145,3.587,1.718,8.01,1.718,13.268C560.571,56.457,560.034,60.44,558.96,63.784z"/>
	<polygon points="831.006,0.484 805.36,48.212 778.665,0.638 745.071,0.945 791.263,87.192 791.263,164.232 820.058,164.232 
		820.058,84.43 864,0.484 	"/>
	<path d="M700.528,163.032l0.15,1.2c-0.026-0.413-0.068-0.799-0.102-1.2H700.528z"/>
	<path d="M678.482,100.483h21.596v28.495c0,0-7.199,18.597-32.394,11.698c0,0-16.197-6.299-16.797-26.695V48.292
		c0,0-0.3-29.095,29.095-26.695c0,0,18.335-1.144,20.594,25.796h26.947c0,0,7.949-48.292-52.341-47.092
		c0,0-52.491-1.8-53.691,50.391v66.289c0,0,0.9,42.293,48.292,46.492c0,0,39.293,7.499,59.69-24.596v-58.79h-50.991V100.483z"/>
	<polygon points="340.725,0 305.121,0 280.396,48.871 297.209,82.104 	"/>
	<polygon points="280.396,114.314 306.44,164.208 342.703,164.208 297.209,82.104 	"/>
	<polygon fill="#FFC522" points="280.396,48.871 255.671,0 220.067,0 263.583,82.104 218.089,164.208 254.352,164.208 
		280.396,114.314 297.209,82.104 	"/>
</g>
</svg>
