<?xml version="1.0" standalone="no"?>
<!DOCTYPE svg PUBLIC "-//W3C//DTD SVG 1.1//EN" "http://www.w3.org/Graphics/SVG/1.1/DTD/svg11.dtd" >
<svg>
<metadata>
Created by FontForge 20120731 at Mon Jul 15 05:51:54 2019
 By www
Copyright 1990-1999 as an unpublished work by Bitstream Inc.  All rights reserved.  Confidential.
</metadata>
<defs>
<font id="Aldine721BT-BoldCondensed" horiz-adv-x="500" >
  <font-face 
    font-family="Aldine 721"
    font-weight="700"
    font-stretch="condensed"
    units-per-em="1000"
    panose-1="0 0 0 0 0 0 0 0 0 0"
    ascent="800"
    descent="-200"
    x-height="477"
    cap-height="715"
    bbox="-167 -236 1000 1023"
    underline-thickness="89"
    underline-position="-48"
    stemh="53"
    stemv="134"
    unicode-range="U+0020-FB02"
  />
<missing-glyph horiz-adv-x="243" 
 />
    <glyph glyph-name=".notdef" horiz-adv-x="243" 
 />
    <glyph glyph-name="space" unicode=" " horiz-adv-x="243" 
 />
    <glyph glyph-name="exclam" unicode="!" horiz-adv-x="255" 
d="M46 69c0 43 37 81 81 81s81 -37 81 -81s-38 -81 -81 -81s-81 38 -81 81zM102 222l-52 415c-2 12 -4 26 -4 43c0 27 10 35 39 35h74c35 0 46 -7 46 -34c0 -6 -1 -21 -4 -45l-48 -414h-51z" />
    <glyph glyph-name="quotedbl" unicode="&#x22;" horiz-adv-x="345" 
d="M99 416h-20l-39 225c-1 7 -1 12 -1 18c0 34 20 56 50 56c31 0 50 -20 50 -54c0 -6 0 -13 -1 -20zM265 416h-20l-39 225c-1 6 -2 13 -2 18c0 35 20 56 51 56s51 -20 51 -54c0 -6 -1 -13 -2 -20z" />
    <glyph glyph-name="numbersign" unicode="#" horiz-adv-x="769" 
d="M347 715h105l-72 -203h124l73 203h104l-72 -203h138l-36 -96h-136l-43 -122h143l-35 -96h-142l-72 -203h-105l72 203h-124l-73 -203h-105l72 203h-141l36 96h140l43 122h-148l36 96h146zM344 416l-44 -122h129l43 122h-128z" />
    <glyph glyph-name="dollar" unicode="$" horiz-adv-x="486" 
d="M219 782h53v-69c53 -6 103 -27 153 -60v-163h-62c0 104 -28 160 -91 174v-225c128 -71 188 -142 188 -245c0 -112 -69 -182 -188 -192v-76h-53v74c-61 1 -124 16 -186 44v178h61c7 -96 46 -151 125 -172v244c-128 78 -191 145 -191 240c0 104 71 172 191 180v68zM219 666
c-58 -1 -94 -37 -94 -86c0 -45 31 -81 94 -114v200zM272 50c52 3 84 39 84 91c0 47 -28 83 -84 119v-210z" />
    <glyph glyph-name="percent" unicode="%" horiz-adv-x="657" 
d="M128 0l341 715h62l-340 -715h-63zM169 729c84 0 146 -70 146 -175c0 -106 -62 -174 -146 -174s-146 68 -146 174s62 175 146 175zM169 692c-38 0 -48 -44 -48 -138s10 -137 48 -137s48 43 48 137s-10 138 -48 138zM488 336c84 0 146 -70 146 -175
c0 -106 -62 -175 -146 -175s-146 69 -146 175s62 175 146 175zM488 299c-38 0 -48 -44 -48 -138s10 -138 48 -138s48 44 48 138s-10 138 -48 138z" />
    <glyph glyph-name="ampersand" unicode="&#x26;" horiz-adv-x="560" 
d="M546 0h-176l-23 47c-35 -40 -78 -61 -125 -61c-105 0 -192 95 -192 229c0 103 48 179 146 229c-26 48 -40 91 -40 130c0 91 65 155 155 155c85 0 135 -49 135 -122c0 -61 -37 -110 -109 -145l94 -218c17 39 26 71 26 95s-11 37 -34 45v49h139v-49c-22 -9 -31 -25 -41 -48
c-19 -44 -36 -95 -69 -143l45 -92c16 -33 42 -52 69 -52v-49zM299 509c32 22 48 48 48 76c0 48 -31 93 -61 93c-24 0 -37 -12 -37 -35c0 -8 3 -20 10 -37zM323 96l-126 298c-38 -23 -55 -47 -55 -86c0 -42 20 -91 50 -154c28 -59 41 -91 74 -91c19 0 38 11 57 33z" />
    <glyph glyph-name="quoteright" unicode="&#x2019;" horiz-adv-x="243" 
d="M48 398v54c53 16 79 54 82 115h-3c-61 0 -93 28 -93 77c0 51 33 85 77 85c58 0 99 -47 99 -124c0 -109 -65 -192 -162 -207z" />
    <glyph glyph-name="parenleft" unicode="(" horiz-adv-x="330" 
d="M322 729v-46c-94 -29 -130 -164 -130 -413c0 -242 21 -371 130 -407v-44c-166 22 -282 188 -282 431c0 275 109 449 282 479z" />
    <glyph glyph-name="parenright" unicode=")" horiz-adv-x="330" 
d="M7 -181v47c90 27 130 158 130 397c0 252 -18 384 -130 422v44c166 -22 282 -187 282 -430c0 -275 -109 -450 -282 -480z" />
    <glyph glyph-name="asterisk" unicode="*" 
d="M222 729h57v-90l78 44l28 -49l-78 -44l78 -44l-27 -49l-79 44v-96h-57v96l-80 -44l-27 49l77 44l-77 44l28 49l79 -45v91z" />
    <glyph glyph-name="plus" unicode="+" horiz-adv-x="833" 
d="M367 596h99v-249h243v-97h-243v-250h-99v250h-243v97h243v249z" />
    <glyph glyph-name="comma" unicode="," horiz-adv-x="243" 
d="M48 -181v54c53 17 79 54 82 115c-63 0 -96 28 -96 78c0 51 33 85 77 85c58 0 99 -48 99 -125c0 -109 -64 -192 -162 -207z" />
    <glyph glyph-name="hyphen" unicode="-" horiz-adv-x="389" 
d="M42 299h305v-121h-305v121z" />
    <glyph glyph-name="period" unicode="." horiz-adv-x="243" 
d="M41 69c0 43 36 81 80 81s82 -37 82 -81s-39 -81 -82 -81s-80 38 -80 81z" />
    <glyph glyph-name="slash" unicode="/" horiz-adv-x="278" 
d="M-24 -93l240 822h86l-240 -822h-86z" />
    <glyph glyph-name="zero" unicode="0" horiz-adv-x="486" 
d="M243 729c127 0 208 -131 208 -372s-81 -371 -208 -371s-208 130 -208 371s81 372 208 372zM243 674c-55 0 -57 -83 -57 -261v-112c0 -177 2 -260 57 -260s57 82 57 260v112c0 178 -2 261 -57 261z" />
    <glyph glyph-name="one" unicode="1" horiz-adv-x="486" 
d="M109 0v49c59 1 79 30 79 98v397h-93v58c72 12 122 54 146 127h86v-576c0 -74 15 -104 75 -104h3v-49h-296z" />
    <glyph glyph-name="two" unicode="2" horiz-adv-x="486" 
d="M37 0v68c158 195 237 341 237 441c0 60 -36 97 -91 97c-40 0 -71 -15 -107 -46l-39 42c68 86 136 127 219 127c92 0 152 -66 152 -161c0 -84 -38 -160 -105 -251c-31 -42 -88 -109 -161 -206h159c53 0 73 20 98 81h60l-68 -192h-354z" />
    <glyph glyph-name="three" unicode="3" horiz-adv-x="486" 
d="M56 614c51 76 120 115 197 115c93 0 149 -52 149 -133c0 -73 -36 -127 -109 -162c92 -38 133 -100 133 -200c0 -138 -114 -248 -275 -248c-69 0 -102 17 -102 55c0 28 24 49 59 49c42 0 64 -39 103 -39c51 0 75 44 75 135c0 106 -47 151 -159 151h-11v61
c101 7 153 52 153 133c0 56 -37 96 -88 96c-35 0 -63 -17 -92 -52z" />
    <glyph glyph-name="four" unicode="4" horiz-adv-x="486" 
d="M247 0v189h-215v98l246 442h100v-444h78v-96h-78v-189h-131zM93 285h154v274z" />
    <glyph glyph-name="five" unicode="5" horiz-adv-x="486" 
d="M69 397l97 318h132c45 0 75 2 98 32l43 -21l-51 -99c-14 -28 -27 -37 -62 -37h-137l-20 -65c170 -60 257 -153 257 -267c0 -72 -29 -141 -80 -192c-53 -53 -116 -80 -187 -80c-63 0 -100 19 -100 42c0 5 1 11 5 17l16 27c9 15 17 22 29 22c29 0 71 -35 115 -35
c58 0 96 46 96 126c0 98 -81 159 -251 212z" />
    <glyph glyph-name="six" unicode="6" horiz-adv-x="486" 
d="M379 729l46 -26c-145 -105 -215 -204 -217 -301c31 32 64 47 100 47c80 0 140 -80 140 -212c0 -164 -71 -251 -201 -251c-120 0 -200 104 -200 284c0 212 106 357 332 459zM202 303v-183c0 -58 13 -85 50 -85s49 27 49 85v179c0 48 -14 71 -50 71c-35 0 -49 -22 -49 -67z
" />
    <glyph glyph-name="seven" unicode="7" horiz-adv-x="486" 
d="M142 0l209 590h-103c-73 0 -106 -18 -124 -95h-58l57 220h345l-253 -715h-73z" />
    <glyph glyph-name="eight" unicode="8" horiz-adv-x="486" 
d="M157 339c-69 62 -102 120 -102 196c0 116 75 194 184 194c107 0 178 -69 178 -167c0 -68 -33 -115 -106 -159c85 -77 128 -142 128 -230c0 -115 -75 -187 -202 -187c-119 0 -195 67 -195 168c0 73 38 133 115 185zM193 308c-40 -41 -58 -88 -58 -149
c0 -81 42 -129 105 -129c53 0 89 35 89 87c0 63 -50 112 -136 191zM272 435c40 36 59 78 59 130c0 69 -36 111 -88 111s-83 -31 -83 -79c0 -54 38 -101 112 -162z" />
    <glyph glyph-name="nine" unicode="9" horiz-adv-x="486" 
d="M106 -23l-46 26c140 109 213 208 217 311c-31 -32 -63 -48 -99 -48c-82 0 -141 81 -141 219c0 157 73 244 201 244c120 0 200 -104 200 -284c0 -212 -106 -357 -332 -468zM284 412v183c0 57 -13 85 -48 85c-40 0 -52 -26 -52 -85v-179c0 -48 14 -70 50 -70
c35 0 50 21 50 66z" />
    <glyph glyph-name="colon" unicode=":" horiz-adv-x="266" 
d="M52 69c0 43 37 81 81 81s81 -37 81 -81s-38 -81 -81 -81s-81 38 -81 81zM52 407c0 43 37 81 81 81s81 -37 81 -81s-38 -81 -81 -81s-81 38 -81 81z" />
    <glyph glyph-name="semicolon" unicode=";" horiz-adv-x="266" 
d="M60 -181v54c53 17 79 54 82 115c-63 0 -97 28 -97 78c0 51 33 85 77 85c58 0 99 -48 99 -125c0 -109 -63 -192 -161 -207zM53 407c0 43 36 81 80 81s82 -37 82 -81s-39 -81 -82 -81s-80 38 -80 81z" />
    <glyph glyph-name="less" unicode="&#x3c;" horiz-adv-x="833" 
d="M704 583v-107l-436 -178l436 -178v-107l-575 237v97z" />
    <glyph glyph-name="equal" unicode="=" horiz-adv-x="833" 
d="M124 452h585v-97h-585v97zM124 242h585v-97h-585v97z" />
    <glyph glyph-name="greater" unicode="&#x3e;" horiz-adv-x="833" 
d="M129 583l575 -236v-97l-575 -237v107l437 178l-437 178v107z" />
    <glyph glyph-name="question" unicode="?" horiz-adv-x="373" 
d="M46 69c0 43 37 81 81 81s81 -37 81 -81s-38 -81 -81 -81s-81 38 -81 81zM96 220c-13 92 -30 144 -30 163c0 30 18 34 64 42c91 17 134 33 134 99c0 60 -42 102 -104 102c-30 0 -59 -17 -85 -17c-31 0 -51 20 -51 54c0 42 29 66 85 66c45 0 97 -22 143 -66
c59 -56 92 -136 92 -223c0 -48 -16 -84 -45 -106c-37 -28 -74 -33 -107 -43c-37 -11 -48 -22 -48 -71h-48z" />
    <glyph glyph-name="at" unicode="@" horiz-adv-x="986" 
d="M546 463c-42 0 -73 -30 -104 -92c-39 -77 -57 -143 -57 -194c0 -53 25 -84 62 -84c41 0 81 40 117 119c30 68 42 132 42 170c0 52 -22 81 -60 81zM574 156c-40 -65 -86 -96 -144 -96c-92 0 -148 63 -148 167c0 74 33 146 95 204c45 42 98 64 151 64c62 0 97 -29 108 -89
l24 80h93l-85 -302c-4 -16 -8 -31 -8 -46c0 -31 15 -49 37 -49c18 0 56 15 89 43c67 57 104 143 104 245c0 180 -136 301 -331 301c-88 0 -170 -24 -239 -73c-113 -79 -176 -205 -176 -354c0 -219 149 -356 379 -356c109 0 207 33 306 101l19 -25
c-98 -73 -207 -110 -325 -110c-126 0 -232 33 -305 87c-98 73 -153 184 -153 313c0 102 35 197 100 275c94 113 229 176 382 176c228 0 375 -134 375 -338c0 -106 -40 -198 -112 -263c-39 -35 -84 -53 -129 -53c-63 0 -102 35 -107 98z" />
    <glyph glyph-name="A" unicode="A" horiz-adv-x="523" 
d="M0 0v49c40 7 47 47 64 121l114 493l-13 52h156l136 -554c18 -72 22 -110 66 -112v-49h-259v49c31 4 46 26 46 65c0 18 -3 36 -7 55l-22 93h-143l-22 -94c-3 -14 -5 -30 -5 -48c0 -43 18 -66 52 -71v-49h-163zM154 324h111l-59 234z" />
    <glyph glyph-name="B" unicode="B" horiz-adv-x="559" 
d="M27 0v49c42 4 54 21 54 67v484c0 47 -5 63 -54 67v48h260c142 0 220 -65 220 -172c0 -93 -44 -145 -145 -168c111 -25 167 -88 167 -182c0 -136 -74 -193 -233 -193h-269zM243 664v-266c80 2 100 43 100 145c0 81 -29 121 -89 121h-11zM243 130c0 -55 7 -80 40 -80
c44 0 71 48 71 138c0 107 -31 157 -111 159v-217z" />
    <glyph glyph-name="C" unicode="C" horiz-adv-x="510" 
d="M425 218h62v-181c-51 -33 -114 -51 -182 -51c-177 0 -275 129 -275 375c0 237 105 369 282 369c60 0 114 -19 170 -57v-161h-60c-18 108 -56 162 -113 162c-78 0 -101 -102 -101 -316c0 -215 24 -316 106 -316c57 0 90 58 111 176z" />
    <glyph glyph-name="D" unicode="D" horiz-adv-x="596" 
d="M27 0v49c42 4 54 21 54 67v484c0 47 -5 63 -54 67v48h212c217 0 327 -126 327 -376c0 -225 -102 -339 -304 -339h-235zM245 664v-536c0 -54 11 -77 46 -77c66 0 97 96 97 290c0 224 -25 324 -125 324c-6 0 -12 0 -18 -1z" />
    <glyph glyph-name="E" unicode="E" horiz-adv-x="509" 
d="M27 0v49c42 4 54 21 54 67v484c0 47 -5 63 -54 67v48h438v-161h-67c-26 74 -67 106 -140 106h-13v-260h8c53 0 83 30 95 93h59v-243h-61c-3 65 -34 97 -95 97h-6v-212c0 -55 11 -80 50 -80c48 0 85 45 117 136h67l-14 -191h-438z" />
    <glyph glyph-name="F" unicode="F" horiz-adv-x="486" 
d="M27 0v49c42 4 54 21 54 67v484c0 47 -5 63 -54 67v48h438v-161h-67c-26 74 -67 106 -140 106h-13v-260h8c53 0 83 30 95 93h59v-243h-61c-3 65 -34 97 -95 97h-6v-231c0 -46 12 -63 55 -67v-49h-273z" />
    <glyph glyph-name="G" unicode="G" horiz-adv-x="562" 
d="M343 44v182c0 54 -11 77 -57 80v50h264v-50c-44 -5 -50 -28 -50 -77v-204c-52 -25 -115 -39 -186 -39c-189 0 -284 126 -284 375c0 237 105 369 282 369c60 0 114 -19 170 -57v-161h-60c-18 108 -56 162 -113 162c-78 0 -101 -101 -101 -316c0 -216 23 -317 108 -317
c8 0 17 1 27 3z" />
    <glyph glyph-name="H" unicode="H" horiz-adv-x="624" 
d="M27 0v49c49 3 54 20 54 67v484c0 47 -5 63 -54 67v48h266v-48c-39 -6 -48 -25 -48 -67v-204h136v204c0 42 -9 61 -48 67v48h267v-48c-49 -4 -55 -20 -55 -67v-484c0 -22 0 -39 8 -50s24 -16 47 -17v-49h-267v49c39 6 48 24 48 67v220h-136v-220c0 -43 9 -61 48 -67v-49
h-266z" />
    <glyph glyph-name="I" unicode="I" horiz-adv-x="326" 
d="M27 0v49c42 4 54 21 54 67v484c0 47 -5 63 -54 67v48h273v-48c-49 -4 -55 -20 -55 -67v-484c0 -46 12 -63 55 -67v-49h-273z" />
    <glyph glyph-name="J" unicode="J" horiz-adv-x="326" 
d="M27 715h273v-48c-49 -4 -55 -20 -55 -67v-478c0 -83 -2 -146 -33 -199c-36 -63 -107 -101 -188 -101c-63 0 -96 27 -96 73c0 37 23 60 60 60c29 0 44 -14 50 -45c3 -16 7 -25 19 -25c21 0 24 17 24 54v661c0 47 -5 63 -54 67v48z" />
    <glyph glyph-name="K" unicode="K" horiz-adv-x="601" 
d="M243 339v-223c0 -46 11 -63 54 -67v-49h-270v49c42 4 54 21 54 67v484c0 47 -5 63 -54 67v48h270v-48c-49 -4 -54 -20 -54 -67v-213l132 190c11 15 16 29 16 44c0 23 -15 39 -44 46v48h215v-48c-46 0 -69 -28 -104 -78l-104 -148l172 -324c23 -43 42 -66 75 -68v-49h-190
z" />
    <glyph glyph-name="L" unicode="L" horiz-adv-x="484" 
d="M27 0v49c42 4 54 21 54 67v484c0 47 -5 63 -54 67v48h273v-48c-49 -4 -55 -20 -55 -67v-479c0 -45 11 -66 41 -66c41 0 78 47 114 138h70l-23 -193h-420z" />
    <glyph glyph-name="M" unicode="M" horiz-adv-x="671" 
d="M10 0v49c36 12 46 52 50 125l22 390c0 7 1 15 1 21c0 52 -15 78 -51 82v48h218c-2 -13 -3 -23 -3 -33c0 -15 2 -36 8 -60l77 -341l78 342c2 10 5 26 5 48c0 13 -2 28 -4 44h215v-48c-34 -7 -48 -29 -48 -71c0 -9 0 -20 1 -33l30 -422c4 -57 15 -85 53 -92v-49h-262v49
c42 9 58 30 58 75v8l-19 397l-122 -529h-57l-126 535l-15 -388v-13c0 -50 12 -74 57 -85v-49h-166z" />
    <glyph glyph-name="N" unicode="N" horiz-adv-x="582" 
d="M28 0v49c54 5 59 34 59 102v420c0 55 -14 83 -58 96v48h179l232 -389v245c0 63 -11 89 -71 96v48h185v-49c-54 -5 -59 -35 -59 -103v-563h-48l-305 519v-375c0 -64 20 -92 72 -96v-48h-186z" />
    <glyph glyph-name="O" unicode="O" horiz-adv-x="589" 
d="M294 729c157 0 265 -136 265 -372s-108 -371 -265 -371s-264 135 -264 371s107 372 264 372zM294 674c-75 0 -86 -100 -86 -314s11 -313 86 -313s87 99 87 313s-12 314 -87 314z" />
    <glyph glyph-name="P" unicode="P" horiz-adv-x="532" 
d="M27 0v49c42 4 54 21 54 67v484c0 47 -5 63 -54 67v48h254c157 0 236 -70 236 -204c0 -127 -77 -199 -199 -199c-33 0 -49 12 -49 32c0 26 31 23 47 36c31 25 32 64 32 132c0 106 -28 155 -101 155h-2v-551c0 -46 12 -63 55 -67v-49h-273z" />
    <glyph glyph-name="Q" unicode="Q" horiz-adv-x="589" 
d="M294 674c-75 0 -86 -100 -86 -314s11 -313 86 -313s87 99 87 313s-12 314 -87 314zM377 3c48 -36 110 -57 187 -66v-112c-155 2 -270 57 -355 174c-121 58 -179 175 -179 358c0 236 107 372 264 372s265 -136 265 -372c0 -190 -63 -310 -182 -354z" />
    <glyph glyph-name="R" unicode="R" horiz-adv-x="588" 
d="M243 667v-289h9c85 0 106 42 106 145s-22 144 -109 144h-6zM243 328v-212c0 -46 11 -63 54 -67v-49h-270v49c42 4 54 21 54 67v484c0 47 -5 63 -54 67v48h276c140 0 222 -74 222 -188c0 -85 -39 -138 -121 -167c29 -30 53 -88 84 -171c30 -80 41 -130 83 -140v-49h-167
c-51 88 -78 188 -113 286c-11 29 -21 42 -45 42h-3z" />
    <glyph glyph-name="S" unicode="S" horiz-adv-x="444" 
d="M33 32v186h65c31 -118 70 -177 125 -177c39 0 65 29 65 74c0 56 -49 111 -126 195c-72 78 -132 135 -132 234c0 115 74 186 181 186c63 0 118 -21 174 -64v-171h-56c-31 119 -73 179 -122 179c-36 0 -54 -20 -54 -58c0 -68 68 -128 165 -225c64 -64 96 -138 96 -214
c0 -119 -73 -191 -203 -191c-62 0 -120 15 -178 46z" />
    <glyph glyph-name="T" unicode="T" horiz-adv-x="484" 
d="M105 0v49c42 4 55 22 55 68v543c-47 0 -74 -32 -88 -100h-58v155h456v-155h-58c-14 64 -39 100 -86 100h-2v-543c0 -46 12 -64 54 -68v-49h-273z" />
    <glyph glyph-name="U" unicode="U" horiz-adv-x="562" 
d="M27 715h273v-48c-49 -4 -55 -20 -55 -67v-416c0 -90 20 -132 89 -132c76 0 92 46 92 144v391c0 52 -10 73 -58 80v48h170v-48c-48 -5 -57 -25 -57 -78v-393c0 -147 -50 -210 -205 -210c-139 0 -195 62 -195 201v413c0 47 -5 63 -54 67v48z" />
    <glyph glyph-name="V" unicode="V" horiz-adv-x="539" 
d="M0 715h279v-48h-3c-37 0 -57 -17 -57 -45c0 -7 2 -17 6 -31l102 -350l79 326c4 18 7 32 7 42c0 37 -20 56 -61 58v48h187v-48c-41 -6 -60 -44 -79 -116l-142 -551h-86l-166 586c-14 50 -29 77 -66 81v48z" />
    <glyph glyph-name="W" unicode="W" horiz-adv-x="817" 
d="M0 715h259v-48c-30 -3 -45 -20 -45 -46c0 -13 3 -28 8 -44l98 -327l70 271l-25 89c-10 35 -26 53 -56 57v48h269v-48c-38 -3 -57 -18 -57 -48c0 -13 4 -27 8 -42l90 -323l75 299c7 26 9 46 9 59c0 29 -22 50 -63 55v48h177v-48c-41 -14 -50 -55 -67 -120l-144 -547h-69
l-123 428l-102 -428h-79l-169 573c-16 53 -25 86 -64 94v48z" />
    <glyph glyph-name="X" unicode="X" horiz-adv-x="497" 
d="M0 0v49c59 12 72 61 103 121l82 160l-109 266c-18 43 -27 69 -62 71v48h254v-48c-26 -1 -40 -12 -40 -34c0 -8 2 -19 7 -30l45 -110l45 88c6 12 10 31 10 46c0 23 -12 37 -35 40v48h174v-48c-45 -12 -71 -42 -96 -94l-70 -146l118 -278c23 -54 34 -91 71 -100v-49h-270
v49c29 3 41 19 41 50c0 14 -3 33 -10 50l-46 116l-59 -122c-10 -20 -17 -36 -17 -51c0 -23 15 -38 43 -44v-48h-179z" />
    <glyph glyph-name="Y" unicode="Y" horiz-adv-x="501" 
d="M114 0v49c42 4 54 21 54 67v162l-105 305c-17 48 -33 76 -63 84v48h263v-48c-27 -8 -39 -21 -39 -43c0 -11 3 -24 8 -39l68 -219l71 202c6 17 9 32 9 47c0 25 -17 44 -48 52v48h169v-48c-39 -22 -57 -62 -77 -119l-91 -258v-174c0 -46 11 -63 54 -67v-49h-273z" />
    <glyph glyph-name="Z" unicode="Z" horiz-adv-x="448" 
d="M28 0v49l224 613c-77 -1 -128 -38 -152 -110h-58v163h378v-42l-228 -617h8c89 0 132 36 164 129h67l-31 -185h-372z" />
    <glyph glyph-name="bracketleft" unicode="[" horiz-adv-x="330" 
d="M81 729h192v-52c-42 0 -51 -18 -51 -67v-673c0 -47 5 -64 51 -66v-52h-192v910z" />
    <glyph glyph-name="backslash" unicode="\" horiz-adv-x="278" 
d="M302 -93h-86l-240 822h86z" />
    <glyph glyph-name="bracketright" unicode="]" horiz-adv-x="330" 
d="M249 -181h-192v52c42 0 51 18 51 67v674c0 48 -5 64 -51 65v52h192v-910z" />
    <glyph glyph-name="asciicircum" unicode="^" horiz-adv-x="1000" 
d="M442 714h115l240 -276h-55l-243 182l-243 -182h-55z" />
    <glyph glyph-name="underscore" unicode="_" 
d="M0 -136h500v-100h-500v100z" />
    <glyph glyph-name="quoteleft" unicode="&#x2018;" horiz-adv-x="243" 
d="M195 729v-54c-53 -17 -80 -54 -82 -115h3c61 0 93 -28 93 -77c0 -51 -32 -85 -79 -85c-55 0 -97 47 -97 124c0 109 64 192 162 207z" />
    <glyph glyph-name="a" unicode="a" horiz-adv-x="440" 
d="M52 305c-5 23 -7 42 -7 56c0 80 64 128 178 128c104 0 150 -49 150 -156v-198c0 -36 4 -53 20 -53c6 0 12 3 21 10v-61c-24 -27 -58 -43 -96 -43s-61 19 -70 57c-37 -37 -75 -55 -115 -55c-66 0 -105 41 -105 111c0 77 39 108 118 146l92 45v89c0 37 -8 54 -31 54
c-25 0 -38 -17 -38 -51c0 -8 1 -22 3 -41zM238 239l-39 -27c-31 -21 -44 -40 -44 -74c0 -39 18 -61 45 -61c26 0 38 19 38 57v105z" />
    <glyph glyph-name="b" unicode="b" horiz-adv-x="461" 
d="M54 612l-34 36v30l123 58h46v-311c29 42 61 63 95 63c89 0 151 -87 151 -239c0 -172 -68 -261 -195 -261c-61 0 -121 18 -186 52v572zM189 123c0 -54 17 -82 49 -82c51 0 54 52 54 166c0 121 -11 178 -59 178c-28 0 -44 -20 -44 -59v-203z" />
    <glyph glyph-name="c" unicode="c" horiz-adv-x="370" 
d="M304 145l46 -36c-25 -80 -75 -121 -149 -121c-105 0 -176 89 -176 242c0 160 80 258 191 258c70 0 121 -47 121 -108c0 -47 -22 -72 -64 -72c-34 0 -49 22 -56 70c-5 34 2 57 -22 57c-26 0 -44 -34 -44 -101c0 -157 39 -241 95 -241c23 0 40 17 58 52z" />
    <glyph glyph-name="d" unicode="d" horiz-adv-x="480" 
d="M274 468v148l-74 39v32l164 49h45v-607c0 -37 3 -49 39 -51v-51l-126 -39h-48v62c-22 -40 -57 -62 -96 -62c-92 0 -150 86 -150 239c0 169 69 261 184 261c22 0 43 -7 62 -20zM274 144v209c0 55 -14 83 -48 83c-50 0 -55 -50 -55 -156c0 -133 8 -195 59 -195
c29 0 44 20 44 59z" />
    <glyph glyph-name="e" unicode="e" horiz-adv-x="403" 
d="M335 146l43 -33c-35 -85 -86 -123 -168 -123c-106 0 -185 91 -185 242c0 159 83 257 191 257c96 0 159 -74 159 -205v-15h-213c3 -119 36 -180 97 -180c32 0 52 18 76 57zM161 322h84v23c0 60 -11 90 -37 90c-34 0 -47 -31 -47 -98v-15z" />
    <glyph glyph-name="f" unicode="f" horiz-adv-x="280" 
d="M31 0v49c34 2 36 19 36 58v303h-46v67c22 1 35 9 39 22c6 21 6 55 20 99c29 90 90 138 173 138c64 0 105 -33 105 -81c0 -36 -24 -61 -61 -61c-33 0 -49 17 -53 52c-2 20 -6 30 -18 30c-15 0 -25 -14 -25 -38v-161h63v-67h-63v-303c0 -39 2 -56 36 -58v-49h-206z" />
    <glyph glyph-name="g" unicode="g" horiz-adv-x="440" 
d="M425 475v-100l-54 6c7 -17 10 -36 10 -53c0 -88 -67 -144 -185 -144c-12 0 -24 1 -36 2c-12 -13 -18 -24 -18 -34c0 -30 31 -27 102 -33c55 -4 98 -4 130 -31c26 -22 41 -56 41 -96c0 -100 -76 -160 -215 -160c-120 0 -184 37 -184 96c0 37 25 64 74 86
c-37 10 -57 35 -57 70c0 46 34 83 101 114c-70 23 -106 69 -106 134c0 96 71 157 189 157c47 0 102 -16 170 -16c12 0 25 1 38 2zM203 441c-33 0 -45 -24 -45 -77c0 -88 14 -130 52 -130c32 0 43 21 43 69c0 92 -13 138 -50 138zM149 6c-28 -10 -41 -28 -41 -55
c0 -38 34 -60 98 -60c82 0 130 31 130 66c0 46 -61 35 -187 49z" />
    <glyph glyph-name="h" unicode="h" horiz-adv-x="491" 
d="M29 0v49c34 2 36 19 36 58v505l-35 36v30l124 58h45v-318c36 47 74 70 118 70c72 0 107 -53 107 -160v-221c0 -39 1 -56 35 -58v-49h-199v49c26 1 29 18 29 55v237c0 37 -4 53 -32 53c-20 0 -41 -11 -58 -33v-257c0 -37 2 -54 29 -55v-49h-199z" />
    <glyph glyph-name="i" unicode="i" horiz-adv-x="269" 
d="M31 0v49c34 2 36 19 36 58v257l-35 36v30l124 58h45v-381c0 -39 2 -56 36 -58v-49h-206zM49 638c0 42 35 77 77 77c43 0 77 -34 77 -77s-35 -76 -77 -76s-77 34 -77 76z" />
    <glyph glyph-name="j" unicode="j" horiz-adv-x="269" 
d="M201 488v-432c0 -84 -40 -148 -123 -225l-59 15c32 55 48 103 48 160v358l-35 36v30l124 58h45zM49 638c0 42 35 77 77 77c43 0 77 -34 77 -77s-35 -76 -77 -76s-77 34 -77 76z" />
    <glyph glyph-name="k" unicode="k" horiz-adv-x="450" 
d="M29 0v49c34 2 36 19 36 58v505l-35 36v30l124 58h45v-476l69 93c9 12 13 25 13 37c0 20 -14 31 -43 38v49h174v-49c-31 -7 -51 -25 -72 -55l-45 -64l96 -186c16 -31 29 -49 46 -52v-75c-19 -5 -35 -8 -51 -8c-57 0 -76 23 -105 80l-82 165v-129c0 -37 2 -53 29 -55v-49
h-199z" />
    <glyph glyph-name="l" unicode="l" horiz-adv-x="269" 
d="M31 0v49c34 2 36 19 36 58v505l-35 36v30l124 58h45v-629c0 -39 2 -56 36 -58v-49h-206z" />
    <glyph glyph-name="m" unicode="m" horiz-adv-x="704" 
d="M259 0v49c25 1 29 19 29 58v234c0 36 -4 53 -33 53c-20 0 -37 -11 -54 -33v-257c0 -37 2 -53 29 -55v-49h-196v49c34 2 35 19 35 58v257l-34 36v30l123 58h43v-71c38 48 80 71 121 71s78 -26 91 -72c42 48 82 71 121 71c69 0 105 -53 105 -159v-221c0 -40 3 -56 36 -58
v-49h-197v49c27 2 29 18 29 55v237c0 36 -5 53 -32 53c-20 0 -38 -11 -55 -33v-257c0 -37 2 -53 29 -55v-49h-190z" />
    <glyph glyph-name="n" unicode="n" horiz-adv-x="493" 
d="M34 0v49c34 2 35 19 35 58v257l-34 36v30l123 58h46v-70c36 47 74 70 118 70c72 0 106 -53 106 -160v-221c0 -39 2 -56 36 -58v-49h-199v49c26 1 29 18 29 55v237c0 37 -5 53 -32 53c-20 0 -41 -11 -58 -33v-257c0 -37 2 -54 29 -55v-49h-199z" />
    <glyph glyph-name="o" unicode="o" horiz-adv-x="435" 
d="M217 488c114 0 193 -92 193 -250s-78 -250 -193 -250c-114 0 -192 92 -192 250s78 250 192 250zM218 435c-43 0 -48 -62 -48 -197s5 -196 48 -196s47 61 47 196s-5 197 -47 197z" />
    <glyph glyph-name="p" unicode="p" horiz-adv-x="471" 
d="M29 -162v48c34 2 36 19 36 58v420l-35 36v30l124 58h45v-63c29 42 62 63 96 63c89 0 151 -86 151 -238c0 -169 -70 -261 -185 -261c-22 0 -42 4 -62 11v-56c0 -39 2 -56 36 -58v-48h-206zM199 332v-209c0 -55 14 -82 48 -82c50 0 55 49 55 155c0 133 -8 195 -59 195
c-28 0 -44 -20 -44 -59z" />
    <glyph glyph-name="q" unicode="q" horiz-adv-x="461" 
d="M370 488h36v-544c0 -39 2 -56 36 -58v-48h-206v48c34 2 36 19 36 58v107c-29 -42 -62 -63 -96 -63c-90 0 -151 87 -151 243c0 166 71 257 189 257c43 0 88 -13 137 -39zM272 353c0 55 -15 83 -49 83c-49 0 -54 -49 -54 -153c0 -131 9 -192 59 -192c29 0 44 20 44 59v203z
" />
    <glyph glyph-name="r" unicode="r" horiz-adv-x="354" 
d="M31 0v49c34 2 36 19 36 58v257l-35 36v30l124 58h45v-133l50 113c6 13 19 21 33 21c22 0 71 -58 71 -90c0 -7 -3 -14 -7 -23l-42 -83l-28 37c-8 10 -16 15 -25 15c-13 0 -19 -9 -28 -24l-24 -40v-174c0 -39 2 -56 36 -58v-49h-206z" />
    <glyph glyph-name="s" unicode="s" horiz-adv-x="355" 
d="M39 21v139h43c34 -79 70 -119 103 -119c27 0 42 17 42 48c0 49 -42 74 -99 117c-65 49 -102 88 -102 148c0 77 62 135 146 135c33 0 77 -11 130 -33v-125h-41c-30 68 -59 102 -92 102c-24 0 -37 -12 -37 -33c0 -33 36 -56 88 -95c68 -51 109 -90 109 -168
c0 -96 -54 -148 -157 -148c-51 0 -96 11 -133 32z" />
    <glyph glyph-name="t" unicode="t" horiz-adv-x="289" 
d="M21 412v53c50 18 90 62 115 130h60v-118h62v-65h-62v-300c0 -35 11 -51 38 -51c7 0 15 1 26 4v-54c-35 -15 -70 -23 -104 -23c-72 0 -95 31 -95 108v316h-40z" />
    <glyph glyph-name="u" unicode="u" horiz-adv-x="484" 
d="M192 488v-352c0 -36 5 -53 33 -53c19 0 40 11 57 33v229c0 38 -3 61 -29 76v44l117 23h47v-361c0 -45 6 -68 34 -78v-49l-169 -11v70c-36 -47 -78 -71 -118 -71c-69 0 -106 54 -106 161v196c0 44 -6 67 -36 76v44l124 23h46z" />
    <glyph glyph-name="v" unicode="v" horiz-adv-x="396" 
d="M0 477h199v-49c-16 -6 -24 -15 -24 -29c0 -11 4 -21 7 -32l54 -174l43 149c4 13 6 26 6 36c0 24 -11 39 -38 50v49h149v-49c-34 -12 -47 -39 -61 -82l-109 -346h-54l-125 358c-13 37 -20 62 -47 70v49z" />
    <glyph glyph-name="w" unicode="w" horiz-adv-x="618" 
d="M0 477h199v-49c-16 -7 -23 -17 -23 -33c0 -9 3 -18 6 -28l59 -180l41 143c-20 58 -36 91 -60 98v49h199v-49c-19 -4 -28 -14 -28 -33c0 -10 3 -19 6 -28l57 -183l45 158c4 13 6 26 6 36c0 24 -11 39 -38 50v49h149v-49c-35 -14 -48 -41 -61 -82l-108 -346h-54l-92 257
l-77 -257h-54l-125 358c-14 40 -23 64 -47 70v49z" />
    <glyph glyph-name="x" unicode="x" horiz-adv-x="394" 
d="M6 0v49c30 4 53 29 83 75l56 85l-101 170c-13 21 -23 39 -44 49v49h190v-49c-13 -7 -20 -13 -20 -22c0 -10 6 -17 11 -25l36 -63l27 39c8 12 12 24 12 33c0 18 -11 31 -34 38v49h155v-49c-23 -11 -41 -25 -54 -45l-76 -113l101 -167c13 -22 24 -42 46 -54v-49h-195v49
c13 5 20 13 20 26c0 10 -3 19 -10 30l-35 56l-29 -43c-8 -12 -12 -22 -12 -35c0 -17 7 -27 22 -34v-49h-149z" />
    <glyph glyph-name="y" unicode="y" horiz-adv-x="396" 
d="M0 477h199v-49c-17 -5 -24 -14 -24 -31c0 -7 3 -17 7 -30l54 -174l43 149c4 13 6 26 6 36c0 24 -11 39 -38 50v49h149v-49c-36 -16 -49 -42 -61 -82l-117 -377c-29 -93 -55 -138 -128 -138c-52 0 -87 32 -87 76c0 38 25 62 60 62c27 0 47 -11 62 -37c4 -1 7 -1 10 -1
c25 0 39 18 39 48c0 6 -1 13 -2 21l-125 358c-14 39 -23 63 -47 70v49z" />
    <glyph glyph-name="z" unicode="z" horiz-adv-x="381" 
d="M19 0v41l203 383c-6 0 -12 1 -18 1c-73 0 -113 -35 -129 -106h-40l5 174h44c11 -13 31 -16 65 -16h213v-58l-203 -366h14c75 0 125 37 152 114h47l-22 -167h-331z" />
    <glyph glyph-name="braceleft" unicode="{" 
d="M416 740v-30c-86 -1 -102 -36 -102 -129v-65c0 -124 -14 -181 -122 -206c108 -24 122 -80 122 -205v-66c0 -93 16 -128 102 -129v-29c-154 0 -198 39 -198 169v94c0 103 -25 138 -131 148v37c106 10 131 45 131 148v94c0 130 44 169 198 169z" />
    <glyph glyph-name="bar" unicode="|" 
d="M200 764h101v-1000h-101v1000z" />
    <glyph glyph-name="braceright" unicode="}" 
d="M84 740c154 0 199 -39 199 -169v-94c0 -103 25 -138 131 -148v-37c-106 -10 -131 -45 -131 -148v-94c0 -128 -45 -169 -193 -169h-6v29c85 1 102 36 102 129v66c0 125 14 181 122 205c-108 25 -122 82 -122 206v65c0 93 -17 128 -102 129v30z" />
    <glyph glyph-name="asciitilde" unicode="~" horiz-adv-x="833" 
d="M747 392v-108c-65 -44 -124 -67 -185 -67c-30 0 -60 5 -90 15c-69 23 -130 49 -197 49c-59 0 -118 -27 -188 -77v108c70 47 133 70 189 70c58 0 102 -15 144 -29c48 -16 93 -36 144 -36c59 0 116 26 183 75z" />
    <glyph glyph-name="exclamdown" unicode="&#xa1;" horiz-adv-x="255" 
d="M46 648c0 43 37 81 81 81s81 -37 81 -81s-38 -81 -81 -81s-81 38 -81 81zM152 493l52 -415c2 -12 4 -27 4 -43c0 -27 -10 -35 -39 -35h-74c-32 0 -45 4 -45 34c0 4 0 19 3 45l48 414h51z" />
    <glyph glyph-name="cent" unicode="&#xa2;" horiz-adv-x="486" 
d="M162 -116l20 124c-62 34 -98 112 -98 223c0 155 73 251 183 257l15 88h54l-17 -95c49 -18 77 -55 77 -101c0 -47 -22 -72 -64 -72c-34 0 -49 22 -56 70c-5 34 2 57 -22 57c-26 0 -44 -34 -44 -101c0 -157 38 -241 94 -241c23 0 41 17 59 52l45 -36
c-24 -78 -75 -121 -142 -121c-9 0 -20 1 -33 3l-18 -107h-53z" />
    <glyph glyph-name="sterling" unicode="&#xa3;" horiz-adv-x="486" 
d="M204 172c-10 58 -30 102 -55 140h-118v68h81c-39 63 -59 115 -59 163c0 107 82 186 198 186c45 0 92 -17 129 -49c42 -36 63 -79 63 -110c0 -44 -22 -67 -64 -67c-26 0 -44 11 -54 30c-13 26 -10 50 -13 72c-6 48 -24 70 -66 70c-41 0 -71 -31 -71 -78
c0 -68 55 -127 104 -217h112v-68h-89c2 -18 3 -33 3 -46c0 -44 -13 -85 -39 -129c14 -12 30 -17 48 -17c58 0 92 41 118 128l57 -21c-20 -161 -67 -240 -151 -240c-45 0 -78 20 -113 64c-36 -42 -83 -65 -133 -65c-67 0 -110 43 -110 111c0 72 46 119 112 119
c41 0 76 -15 110 -44zM180 101c-25 32 -53 48 -78 48c-31 0 -52 -20 -52 -51c0 -30 22 -50 53 -50c28 0 54 18 77 53z" />
    <glyph glyph-name="fraction" unicode="&#x2044;" horiz-adv-x="167" 
d="M271 729h62l-437 -743h-63z" />
    <glyph glyph-name="yen" unicode="&#xa5;" horiz-adv-x="494" 
d="M125 0v49c42 4 54 21 54 67v162l-17 48h-144v46h129l-25 70h-104v46h89l-33 95c-17 48 -33 76 -63 84v48h244v-48c-32 -5 -46 -18 -46 -43c0 -11 4 -23 9 -39l67 -219l71 202c6 17 10 32 10 47c0 25 -17 44 -48 52v48h169v-48c-39 -22 -58 -62 -78 -119l-21 -60h92v-46
h-108l-25 -70h133v-46h-149l-13 -36v-174c0 -46 12 -63 55 -67v-49h-248z" />
    <glyph glyph-name="florin" unicode="&#x192;" horiz-adv-x="486" 
d="M139 -53l32 368h-114v67h120l8 94c15 174 68 253 195 253c69 0 114 -37 114 -87c0 -35 -24 -59 -55 -59c-34 0 -53 19 -58 58c-3 21 -7 31 -24 31c-16 0 -23 -12 -25 -38l-21 -252h115v-67h-119l-16 -218c-14 -187 -70 -278 -196 -278c-76 0 -122 38 -122 92
c0 41 23 66 60 66c31 0 45 -13 53 -44c7 -28 -5 -55 26 -55c18 0 23 22 27 69z" />
    <glyph glyph-name="section" unicode="&#xa7;" 
d="M437 682v-166h-70c-24 104 -64 156 -117 156c-37 0 -59 -21 -59 -55c0 -44 43 -77 106 -130c93 -79 152 -128 152 -206c0 -62 -33 -112 -100 -153c60 -49 89 -100 89 -156c0 -91 -73 -153 -195 -153c-62 0 -117 19 -180 48v167h70c24 -103 64 -156 117 -156
c37 0 59 20 59 55c0 44 -43 76 -106 129c-93 79 -153 129 -153 207c0 60 33 109 100 153c-59 51 -88 100 -88 156c0 91 76 152 195 152c64 0 118 -20 180 -48zM198 386c-26 -25 -40 -45 -40 -65c0 -33 30 -55 73 -94l70 -64c27 24 41 44 41 65c0 33 -29 54 -73 94z" />
    <glyph glyph-name="currency" unicode="&#xa4;" horiz-adv-x="486" 
d="M392 218h53v-181c-42 -33 -96 -51 -154 -51c-131 0 -211 98 -229 290h-65l17 47h45c0 11 -1 25 -1 43c0 3 1 11 1 26h-62l17 46h48c19 190 104 292 235 292c51 0 97 -19 145 -57v-161h-51c-15 108 -47 162 -96 162c-58 0 -79 -78 -83 -236h142l-17 -46h-127v-69h102
l-17 -47h-83c3 -159 25 -235 87 -235c49 0 75 58 93 177z" />
    <glyph glyph-name="quotesingle" unicode="'" horiz-adv-x="178" 
d="M99 416h-20l-39 225c-1 6 -2 13 -2 18c0 35 20 56 51 56s50 -20 50 -54c0 -6 0 -13 -1 -20z" />
    <glyph glyph-name="quotedblleft" unicode="&#x201c;" horiz-adv-x="486" 
d="M195 729v-54c-53 -17 -80 -54 -82 -115h3c61 0 93 -28 93 -77c0 -51 -32 -85 -79 -85c-55 0 -97 47 -97 124c0 109 64 192 162 207zM438 729v-54c-54 -17 -80 -54 -82 -115h3c61 0 94 -28 94 -77c0 -51 -33 -85 -80 -85c-55 0 -97 47 -97 124c0 109 64 192 162 207z" />
    <glyph glyph-name="guillemotleft" unicode="&#xab;" horiz-adv-x="407" 
d="M144 432h63l-76 -194l78 -194h-64l-126 194zM312 432h64l-76 -194l78 -194h-64l-127 194z" />
    <glyph glyph-name="guilsinglleft" unicode="&#x2039;" horiz-adv-x="238" 
d="M144 432h63l-76 -194l78 -194h-64l-126 194z" />
    <glyph glyph-name="guilsinglright" unicode="&#x203a;" horiz-adv-x="238" 
d="M95 44h-63l75 194l-78 194h64l127 -194z" />
    <glyph glyph-name="fi" unicode="&#xfb01;" horiz-adv-x="537" 
d="M31 0v49c34 2 36 19 36 58v303h-46v67c22 1 35 9 39 22c6 20 7 58 22 109c24 82 97 128 212 128c112 0 176 -41 176 -98c0 -46 -33 -76 -80 -76c-22 0 -40 8 -52 22c-15 17 -12 37 -16 51c-8 27 -28 41 -62 41c-41 0 -59 -27 -59 -83v-116h134l89 11h46v-381
c0 -39 2 -56 36 -58v-49h-206v49c34 2 35 19 35 58v303h-134v-303c0 -39 2 -56 36 -58v-49h-206z" />
    <glyph glyph-name="fl" unicode="&#xfb02;" horiz-adv-x="546" 
d="M31 0v49c34 2 36 19 36 58v303h-46v67c51 1 38 35 51 89c27 116 88 171 192 171c43 0 78 -9 108 -30l62 29h45v-629c0 -39 2 -56 36 -58v-49h-206v49c34 2 36 19 36 58v491c-4 -1 -9 -1 -13 -1c-22 0 -37 10 -48 29c-12 22 -13 50 -47 50c-26 0 -36 -16 -36 -51v-148h63
v-67h-63v-303c0 -39 2 -56 36 -58v-49h-206z" />
    <glyph glyph-name="endash" unicode="&#x2013;" 
d="M0 283h500v-89h-500v89z" />
    <glyph glyph-name="dagger" unicode="&#x2020;" 
d="M173 659c-2 10 -5 19 -5 27c0 22 13 29 45 29h73c30 0 43 -8 43 -31c0 -10 -2 -20 -4 -28l-40 -198l124 39c8 2 16 4 25 4c20 0 27 -10 27 -32v-93c0 -22 -6 -33 -22 -33c-8 0 -21 2 -34 6l-120 37l43 -495c2 -28 3 -42 3 -44c0 -21 -10 -28 -36 -28h-85
c-32 0 -47 8 -47 31c0 7 2 25 5 51l48 485l-116 -37c-13 -4 -25 -6 -33 -6c-22 0 -28 12 -28 39v84c0 24 8 36 28 36c8 0 19 -2 30 -5l119 -39z" />
    <glyph glyph-name="daggerdbl" unicode="&#x2021;" 
d="M216 494l-43 165c-2 9 -5 18 -5 27c0 22 13 29 45 29h73c30 0 43 -8 43 -31c0 -8 -2 -17 -5 -28l-39 -162l124 40c8 2 16 3 25 3c20 0 27 -10 27 -32v-93c0 -22 -6 -32 -22 -32c-8 0 -21 1 -34 5l-120 37l29 -148l-29 -148l120 37c14 4 26 6 34 6c16 0 22 -11 22 -33v-93
c0 -22 -8 -32 -29 -32c-8 0 -15 1 -23 3l-124 39l40 -175c3 -12 4 -21 4 -28c0 -23 -13 -31 -43 -31h-73c-32 0 -45 8 -45 30c0 8 3 17 5 27l43 177l-119 -38c-11 -4 -22 -5 -30 -5c-20 0 -28 12 -28 36v84c0 27 7 39 29 39c8 0 19 -2 32 -6l116 -38l-29 149l29 149
l-116 -38c-13 -4 -25 -6 -33 -6c-22 0 -28 12 -28 39v85c0 24 8 35 28 35c8 0 19 -2 30 -5z" />
    <glyph glyph-name="periodcentered" unicode="&#xb7;" horiz-adv-x="243" 
d="M49 364c0 40 33 73 72 73c40 0 73 -33 73 -73s-33 -72 -73 -72c-39 0 -72 32 -72 72z" />
    <glyph glyph-name="paragraph" unicode="&#xb6;" 
d="M480 722v-54h-55v-668h-74v668h-78v-668h-74v383c-111 4 -179 73 -179 169c0 100 73 170 191 170h269z" />
    <glyph glyph-name="bullet" unicode="&#x2022;" horiz-adv-x="590" 
d="M150 372c0 80 65 144 145 144c79 0 144 -64 144 -144c0 -79 -65 -145 -145 -145s-144 65 -144 145z" />
    <glyph glyph-name="quotesinglbase" unicode="&#x201a;" horiz-adv-x="243" 
d="M48 -181v54c53 17 79 54 82 115c-63 0 -96 28 -96 78c0 51 33 85 77 85c58 0 99 -48 99 -125c0 -109 -64 -192 -162 -207z" />
    <glyph glyph-name="quotedblbase" unicode="&#x201e;" horiz-adv-x="486" 
d="M48 -181v54c53 17 79 54 82 115c-63 0 -96 28 -96 78c0 51 33 85 77 85c58 0 99 -48 99 -125c0 -109 -64 -192 -162 -207zM291 -181v54c53 17 79 54 82 115c-63 0 -96 28 -96 78c0 51 33 85 77 85c58 0 99 -48 99 -125c0 -109 -64 -192 -162 -207z" />
    <glyph glyph-name="quotedblright" unicode="&#x201d;" horiz-adv-x="486" 
d="M291 398v54c53 16 79 54 82 115h-3c-61 0 -93 28 -93 77c0 51 33 85 77 85c58 0 99 -47 99 -124c0 -109 -65 -192 -162 -207zM48 398v54c53 16 79 54 82 115h-3c-61 0 -93 28 -93 77c0 51 33 85 77 85c58 0 99 -47 99 -124c0 -109 -65 -192 -162 -207z" />
    <glyph glyph-name="guillemotright" unicode="&#xbb;" horiz-adv-x="407" 
d="M261 44h-63l76 194l-78 194h63l127 -194zM92 44h-63l76 194l-78 194h64l126 -194z" />
    <glyph glyph-name="ellipsis" unicode="&#x2026;" horiz-adv-x="1000" 
d="M86 69c0 43 36 81 80 81s82 -37 82 -81s-39 -81 -82 -81s-80 38 -80 81zM419 69c0 43 36 81 80 81s82 -37 82 -81s-39 -81 -82 -81s-80 38 -80 81zM753 69c0 43 36 81 80 81s82 -37 82 -81s-39 -81 -82 -81s-80 38 -80 81z" />
    <glyph glyph-name="perthousand" unicode="&#x2030;" horiz-adv-x="1000" 
d="M488 299c-38 0 -48 -44 -48 -138s10 -138 48 -138s48 44 48 138s-10 138 -48 138zM488 336c84 0 146 -70 146 -175c0 -106 -62 -175 -146 -175s-146 69 -146 175s62 175 146 175zM169 692c-38 0 -48 -44 -48 -138s10 -137 48 -137s48 43 48 137s-10 138 -48 138zM169 729
c84 0 146 -70 146 -175c0 -106 -62 -174 -146 -174s-146 68 -146 174s62 175 146 175zM128 0l341 715h62l-340 -715h-63zM831 336c84 0 146 -70 146 -175c0 -106 -62 -175 -146 -175s-146 69 -146 175s62 175 146 175zM831 299c-38 0 -48 -44 -48 -138s10 -138 48 -138
s48 44 48 138s-10 138 -48 138z" />
    <glyph glyph-name="questiondown" unicode="&#xbf;" horiz-adv-x="373" 
d="M160 648c0 43 37 81 81 81s81 -37 81 -81s-38 -81 -81 -81s-81 38 -81 81zM272 498c13 -94 30 -147 30 -161c0 -34 -15 -36 -64 -45c-91 -17 -134 -32 -134 -98c0 -59 43 -102 101 -102c34 0 63 17 88 17c32 0 51 -21 51 -58c0 -39 -30 -63 -85 -63c-45 0 -97 23 -143 66
c-58 55 -92 136 -92 217c0 75 31 120 101 141c65 20 100 17 100 78v8h47z" />
    <glyph glyph-name="grave" unicode="`" 
d="M247 687l135 -144h-55l-159 79c-34 17 -51 34 -51 59c0 30 23 53 53 53c27 0 49 -17 77 -47z" />
    <glyph glyph-name="acute" unicode="&#xb4;" 
d="M345 622l-160 -79h-55l136 144c28 30 49 47 76 47c30 0 53 -23 53 -53c0 -25 -16 -42 -50 -59z" />
    <glyph glyph-name="circumflex" unicode="&#x2c6;" 
d="M205 723h90l112 -180h-49l-108 83l-108 -83h-49z" />
    <glyph glyph-name="tilde" unicode="&#x2dc;" 
d="M369 708h40c-17 -86 -56 -130 -111 -130c-11 0 -22 2 -34 5l-57 15c-13 4 -23 5 -28 5c-25 0 -42 -16 -48 -46h-41c17 87 53 130 113 130c12 0 24 -1 38 -5l59 -16c9 -2 16 -3 22 -3c24 0 38 14 47 45z" />
    <glyph glyph-name="macron" unicode="&#xaf;" 
d="M100 674h300v-83h-300v83z" />
    <glyph glyph-name="breve" unicode="&#x2d8;" 
d="M90 708h46c13 -45 48 -60 114 -60c67 0 101 16 113 60h46c-14 -97 -71 -150 -159 -150s-145 52 -160 150z" />
    <glyph glyph-name="dotaccent" unicode="&#x2d9;" 
d="M250 706c41 0 73 -33 73 -73c0 -42 -31 -73 -73 -73c-39 0 -72 33 -72 73c0 39 34 73 72 73z" />
    <glyph glyph-name="dieresis" unicode="&#xa8;" 
d="M155 703c39 0 69 -32 69 -70c0 -41 -29 -70 -69 -70c-39 0 -71 30 -71 69c0 38 33 71 71 71zM345 703c39 0 70 -32 70 -70c0 -41 -30 -70 -70 -70c-39 0 -71 30 -71 69c0 38 33 71 71 71z" />
    <glyph glyph-name="ring" unicode="&#x2da;" 
d="M250 793c73 0 130 -58 130 -130c0 -73 -57 -130 -130 -130s-129 57 -129 130c0 72 57 130 129 130zM250 723c-33 0 -59 -26 -59 -60s25 -59 59 -59c33 0 60 26 60 59s-27 60 -60 60z" />
    <glyph glyph-name="cedilla" unicode="&#xb8;" 
d="M217 0h42v-56c12 2 23 3 33 3c57 0 91 -32 91 -83c0 -56 -41 -92 -111 -92c-46 0 -98 17 -162 44l24 49c44 -25 83 -37 116 -37c25 0 42 14 42 37c0 26 -16 40 -45 40c-8 0 -18 -1 -30 -4v99z" />
    <glyph glyph-name="hungarumlaut" unicode="&#x2dd;" 
d="M291 640l-110 -97h-44l72 132c21 38 37 59 66 59c26 0 45 -19 45 -44c0 -16 -9 -32 -29 -50zM456 634l-142 -91h-44l109 140c24 30 40 50 71 50c24 0 45 -20 45 -46c0 -19 -13 -36 -39 -53z" />
    <glyph glyph-name="ogonek" unicode="&#x2db;" 
d="M290 15h28c-54 -44 -81 -83 -81 -129c0 -32 16 -51 42 -51c23 0 37 10 54 34l17 -10c-23 -51 -60 -87 -116 -87c-52 0 -84 29 -84 74c0 59 47 114 140 169z" />
    <glyph glyph-name="caron" unicode="&#x2c7;" 
d="M93 723h49l108 -83l108 83h49l-112 -180h-90z" />
    <glyph glyph-name="emdash" unicode="&#x2014;" horiz-adv-x="1000" 
d="M0 283h1000v-89h-1000v89z" />
    <glyph glyph-name="AE" unicode="&#xc6;" horiz-adv-x="796" 
d="M0 0v49c52 5 70 48 100 121l166 406c7 17 16 33 16 52s-16 33 -48 39v48h518v-161h-67c-26 74 -67 106 -140 106h-13v-260h8c54 0 84 31 95 93h59v-243h-61c-3 65 -34 97 -95 97h-6v-212c0 -55 11 -79 49 -79c41 0 80 45 111 135h74l-14 -191h-439v49c42 4 55 21 55 67
v146h-171l-36 -94c-15 -38 -26 -64 -26 -81c0 -21 18 -36 50 -38v-49h-185zM222 324h146v343h-15z" />
    <glyph glyph-name="ordfeminine" unicode="&#xaa;" horiz-adv-x="330" 
d="M39 594c-4 17 -5 30 -5 40c0 56 48 89 133 89c78 0 113 -34 113 -109v-139c0 -25 3 -37 15 -37c4 0 9 2 16 7v-42c-18 -19 -44 -30 -72 -30c-29 0 -46 13 -53 39c-28 -25 -56 -38 -86 -38c-50 0 -79 29 -79 78c0 54 29 75 89 102l69 31v63c0 26 -6 37 -24 37
s-28 -11 -28 -35c0 -6 1 -16 2 -29zM179 548l-30 -19c-23 -14 -33 -28 -33 -51c0 -28 14 -43 34 -43s29 13 29 40v73z" />
    <glyph glyph-name="Lslash" unicode="&#x141;" horiz-adv-x="507" 
d="M50 0v49c42 4 54 21 54 67v189l-81 -58v65l81 57v231c0 47 -5 63 -54 67v48h273v-48c-49 -4 -54 -20 -54 -67v-151l112 80v-65l-112 -79v-264c0 -45 10 -66 40 -66c41 0 78 47 114 138h70l-23 -193h-420z" />
    <glyph glyph-name="Oslash" unicode="&#xd8;" horiz-adv-x="589" 
d="M78 -37l46 96c-60 60 -94 161 -94 298c0 236 107 372 264 372c47 0 91 -14 132 -41l31 67h54l-48 -98c63 -62 96 -163 96 -300c0 -236 -108 -371 -265 -371c-46 0 -90 13 -133 41l-30 -64h-53zM212 229l155 351c-5 61 -32 94 -73 94c-75 0 -86 -98 -86 -310
c0 -30 1 -75 4 -135zM376 490l-154 -349c6 -62 31 -94 72 -94c73 0 87 95 87 301c0 24 -2 71 -5 142z" />
    <glyph glyph-name="OE" unicode="&#x152;" horiz-adv-x="788" 
d="M366 715h378v-161h-67c-26 74 -67 106 -140 106h-13v-260h8c53 0 83 30 95 93h59v-243h-61c-3 65 -34 97 -95 97h-6v-212c0 -55 11 -79 49 -79c41 0 80 45 111 135h74l-14 -191h-359c-83 0 -152 1 -212 30c-89 43 -143 157 -143 329c0 171 59 287 158 330
c53 23 111 26 178 26zM360 584c0 55 -8 78 -48 78c-76 0 -108 -102 -108 -310c0 -203 28 -302 102 -302c43 0 54 28 54 90v444z" />
    <glyph glyph-name="ordmasculine" unicode="&#xba;" horiz-adv-x="326" 
d="M163 723c85 0 145 -65 145 -175c0 -111 -59 -175 -145 -175s-144 64 -144 175c0 110 58 175 144 175zM164 685c-33 0 -36 -43 -36 -137c0 -95 3 -138 36 -138c32 0 35 43 35 138c0 94 -4 137 -35 137z" />
    <glyph glyph-name="ae" unicode="&#xe6;" horiz-adv-x="613" 
d="M238 239l-39 -27c-31 -21 -44 -40 -44 -74c0 -39 18 -61 45 -61c26 0 38 19 38 57v105zM371 322h85c0 9 1 17 1 24c0 61 -12 89 -41 89c-33 0 -45 -33 -45 -104v-9zM279 67c-47 -50 -96 -76 -146 -76c-67 0 -105 39 -105 110c0 77 39 108 118 146l92 45v89
c0 37 -8 54 -31 54c-25 0 -38 -17 -38 -51c0 -8 1 -22 3 -41l-120 -38c-5 23 -7 42 -7 56c0 76 65 127 161 127c48 0 83 -9 112 -35c33 24 69 36 107 36c98 0 160 -73 160 -205v-15h-211c1 -119 34 -180 95 -180c32 0 53 18 77 57l43 -33c-35 -85 -87 -123 -169 -123
c-56 0 -103 26 -141 77z" />
    <glyph glyph-name="dotlessi" unicode="&#x131;" horiz-adv-x="269" 
d="M31 0v49c34 2 36 19 36 58v257l-35 36v30l124 58h45v-381c0 -39 2 -56 36 -58v-49h-206z" />
    <glyph glyph-name="lslash" unicode="&#x142;" horiz-adv-x="315" 
d="M54 0v49c34 2 36 19 36 58v214l-67 -48v63l67 47v229l-34 36v30l123 58h46v-294l67 46v-62l-67 -47v-272c0 -39 1 -56 35 -58v-49h-206z" />
    <glyph glyph-name="oslash" unicode="&#xf8;" horiz-adv-x="435" 
d="M52 -32l39 72c-42 39 -66 107 -66 198c0 158 78 250 192 250c38 0 70 -10 99 -30l27 51h45l-42 -76c43 -44 64 -108 64 -195c0 -158 -78 -250 -193 -250c-29 0 -61 9 -96 27l-24 -47h-45zM166 162l100 217c-4 41 -20 61 -48 61c-44 0 -53 -57 -53 -179c0 -29 0 -62 1 -99
zM271 309l-99 -213c4 -38 21 -58 46 -58c46 0 54 60 54 189c0 25 -1 52 -1 82z" />
    <glyph glyph-name="oe" unicode="&#x153;" horiz-adv-x="648" 
d="M218 435c-43 0 -48 -62 -48 -197s5 -196 48 -196s47 61 47 196s-5 197 -47 197zM341 34c-40 -31 -83 -46 -124 -46c-116 0 -192 91 -192 245c0 163 77 255 192 255c48 0 90 -16 125 -50c35 34 74 51 119 51c96 0 159 -74 159 -205v-15h-211c1 -119 34 -180 95 -180
c32 0 53 18 77 57l43 -33c-34 -83 -87 -124 -164 -124c-45 0 -85 15 -119 45zM406 322h85v23c0 60 -11 90 -37 90c-34 0 -48 -32 -48 -99v-14z" />
    <glyph glyph-name="germandbls" unicode="&#xdf;" horiz-adv-x="522" 
d="M31 0v49c34 2 36 19 36 58v303h-43v67c47 3 36 37 48 89c27 115 87 170 186 170c117 0 183 -58 183 -153c0 -74 -41 -119 -122 -132c121 -11 178 -88 178 -235s-62 -228 -165 -228c-20 0 -39 3 -58 9v58c11 -5 19 -7 24 -7c48 0 58 46 58 147c0 142 -34 212 -119 215v67
c51 1 73 34 73 107c0 64 -19 96 -60 96c-31 0 -49 -20 -49 -56v-517c0 -39 2 -56 36 -58v-49h-206z" />
    <glyph glyph-name="Aacute" unicode="&#xc1;" horiz-adv-x="523" 
d="M0 0v49c40 7 47 47 64 121l114 493l-13 52h156l136 -554c18 -72 22 -110 66 -112v-49h-259v49c31 4 46 26 46 65c0 18 -3 36 -7 55l-22 93h-143l-22 -94c-3 -14 -5 -30 -5 -48c0 -43 18 -66 52 -71v-49h-163zM154 324h111l-59 234zM349 863l-160 -79h-55l136 144
c28 30 49 47 76 47c30 0 53 -23 53 -53c0 -25 -16 -42 -50 -59z" />
    <glyph glyph-name="Acircumflex" unicode="&#xc2;" horiz-adv-x="523" 
d="M0 0v49c40 7 47 47 64 121l114 493l-13 52h156l136 -554c18 -72 22 -110 66 -112v-49h-259v49c31 4 46 26 46 65c0 18 -3 36 -7 55l-22 93h-143l-22 -94c-3 -14 -5 -30 -5 -48c0 -43 18 -66 52 -71v-49h-163zM154 324h111l-59 234zM209 964h90l112 -180h-49l-108 83
l-108 -83h-49z" />
    <glyph glyph-name="Adieresis" unicode="&#xc4;" horiz-adv-x="523" 
d="M0 0v49c40 7 47 47 64 121l114 493l-13 52h156l136 -554c18 -72 22 -110 66 -112v-49h-259v49c31 4 46 26 46 65c0 18 -3 36 -7 55l-22 93h-143l-22 -94c-3 -14 -5 -30 -5 -48c0 -43 18 -66 52 -71v-49h-163zM154 324h111l-59 234zM159 944c39 0 69 -32 69 -70
c0 -41 -29 -70 -69 -70c-39 0 -71 30 -71 69c0 38 33 71 71 71zM349 944c39 0 70 -32 70 -70c0 -41 -30 -70 -70 -70c-39 0 -71 30 -71 69c0 38 33 71 71 71z" />
    <glyph glyph-name="Agrave" unicode="&#xc0;" horiz-adv-x="523" 
d="M0 0v49c40 7 47 47 64 121l114 493l-13 52h156l136 -554c18 -72 22 -110 66 -112v-49h-259v49c31 4 46 26 46 65c0 18 -3 36 -7 55l-22 93h-143l-22 -94c-3 -14 -5 -30 -5 -48c0 -43 18 -66 52 -71v-49h-163zM154 324h111l-59 234zM251 928l135 -144h-55l-159 79
c-34 17 -51 34 -51 59c0 30 23 53 53 53c27 0 49 -17 77 -47z" />
    <glyph glyph-name="Aring" unicode="&#xc5;" horiz-adv-x="523" 
d="M0 0v49c40 7 47 47 64 121l114 493l-13 52h156l136 -554c18 -72 22 -110 66 -112v-49h-259v49c31 4 46 26 46 65c0 18 -3 36 -7 55l-22 93h-143l-22 -94c-3 -14 -5 -30 -5 -48c0 -43 18 -66 52 -71v-49h-163zM154 324h111l-59 234zM261 1023c73 0 130 -58 130 -130
c0 -73 -57 -130 -130 -130s-129 57 -129 130c0 72 57 130 129 130zM262 952c-33 0 -60 -25 -60 -59s25 -60 59 -60c33 0 60 27 60 60s-26 59 -59 59z" />
    <glyph glyph-name="Atilde" unicode="&#xc3;" horiz-adv-x="523" 
d="M0 0v49c40 7 47 47 64 121l114 493l-13 52h156l136 -554c18 -72 22 -110 66 -112v-49h-259v49c31 4 46 26 46 65c0 18 -3 36 -7 55l-22 93h-143l-22 -94c-3 -14 -5 -30 -5 -48c0 -43 18 -66 52 -71v-49h-163zM154 324h111l-59 234zM373 949h40
c-17 -86 -56 -130 -111 -130c-11 0 -22 2 -34 5l-57 15c-13 4 -23 5 -28 5c-25 0 -42 -16 -48 -46h-41c17 87 53 130 113 130c12 0 24 -1 38 -5l59 -16c9 -2 16 -3 22 -3c24 0 38 14 47 45z" />
    <glyph glyph-name="Ccedilla" unicode="&#xc7;" horiz-adv-x="510" 
d="M425 218h62v-181c-51 -33 -114 -51 -182 -51c-177 0 -275 129 -275 375c0 237 105 369 282 369c60 0 114 -19 170 -57v-161h-60c-18 108 -56 162 -113 162c-78 0 -101 -102 -101 -316c0 -215 24 -316 106 -316c57 0 90 58 111 176zM250 0h42v-56c12 2 23 3 33 3
c57 0 91 -32 91 -83c0 -56 -41 -92 -111 -92c-46 0 -98 17 -162 44l24 49c44 -25 83 -37 116 -37c25 0 42 14 42 37c0 26 -16 40 -45 40c-8 0 -18 -1 -30 -4v99z" />
    <glyph glyph-name="Eacute" unicode="&#xc9;" horiz-adv-x="509" 
d="M27 0v49c42 4 54 21 54 67v484c0 47 -5 63 -54 67v48h438v-161h-67c-26 74 -67 106 -140 106h-13v-260h8c53 0 83 30 95 93h59v-243h-61c-3 65 -34 97 -95 97h-6v-212c0 -55 11 -80 50 -80c48 0 85 45 117 136h67l-14 -191h-438zM350 863l-160 -79h-55l136 144
c28 30 49 47 76 47c30 0 53 -23 53 -53c0 -25 -16 -42 -50 -59z" />
    <glyph glyph-name="Ecircumflex" unicode="&#xca;" horiz-adv-x="509" 
d="M27 0v49c42 4 54 21 54 67v484c0 47 -5 63 -54 67v48h438v-161h-67c-26 74 -67 106 -140 106h-13v-260h8c53 0 83 30 95 93h59v-243h-61c-3 65 -34 97 -95 97h-6v-212c0 -55 11 -80 50 -80c48 0 85 45 117 136h67l-14 -191h-438zM210 964h90l112 -180h-49l-108 83
l-108 -83h-49z" />
    <glyph glyph-name="Edieresis" unicode="&#xcb;" horiz-adv-x="509" 
d="M27 0v49c42 4 54 21 54 67v484c0 47 -5 63 -54 67v48h438v-161h-67c-26 74 -67 106 -140 106h-13v-260h8c53 0 83 30 95 93h59v-243h-61c-3 65 -34 97 -95 97h-6v-212c0 -55 11 -80 50 -80c48 0 85 45 117 136h67l-14 -191h-438zM160 944c39 0 69 -32 69 -70
c0 -41 -29 -70 -69 -70c-39 0 -71 30 -71 69c0 38 33 71 71 71zM350 944c39 0 70 -32 70 -70c0 -41 -30 -70 -70 -70c-39 0 -71 30 -71 69c0 38 33 71 71 71z" />
    <glyph glyph-name="Egrave" unicode="&#xc8;" horiz-adv-x="509" 
d="M27 0v49c42 4 54 21 54 67v484c0 47 -5 63 -54 67v48h438v-161h-67c-26 74 -67 106 -140 106h-13v-260h8c53 0 83 30 95 93h59v-243h-61c-3 65 -34 97 -95 97h-6v-212c0 -55 11 -80 50 -80c48 0 85 45 117 136h67l-14 -191h-438zM252 928l135 -144h-55l-159 79
c-34 17 -51 34 -51 59c0 30 23 53 53 53c27 0 49 -17 77 -47z" />
    <glyph glyph-name="Eth" unicode="&#xd0;" horiz-adv-x="619" 
d="M269 336v-208c0 -54 10 -77 45 -77c66 0 97 96 97 290c0 224 -24 324 -124 324c-6 0 -12 0 -18 -1v-268h73v-60h-73zM50 0v49c42 4 54 21 54 67v220h-81v60h81v204c0 47 -5 63 -54 67v48h212c217 0 328 -126 328 -376c0 -225 -102 -339 -304 -339h-236z" />
    <glyph glyph-name="Euro" unicode="&#x20ac;" horiz-adv-x="486" 
d="M392 218h53v-181c-42 -33 -96 -51 -154 -51c-131 0 -211 98 -229 290h-65l17 47h45c0 11 -1 25 -1 43c0 3 1 11 1 26h-62l17 46h48c19 190 104 292 235 292c51 0 97 -19 145 -57v-161h-51c-15 108 -47 162 -96 162c-58 0 -79 -78 -83 -236h142l-17 -46h-127v-69h102
l-17 -47h-83c3 -159 25 -235 87 -235c49 0 75 58 93 177z" />
    <glyph glyph-name="Iacute" unicode="&#xcd;" horiz-adv-x="326" 
d="M27 0v49c42 4 54 21 54 67v484c0 47 -5 63 -54 67v48h273v-48c-49 -4 -55 -20 -55 -67v-484c0 -46 12 -63 55 -67v-49h-273zM258 863l-160 -79h-55l136 144c28 30 49 47 76 47c30 0 53 -23 53 -53c0 -25 -16 -42 -50 -59z" />
    <glyph glyph-name="Icircumflex" unicode="&#xce;" horiz-adv-x="326" 
d="M27 0v49c42 4 54 21 54 67v484c0 47 -5 63 -54 67v48h273v-48c-49 -4 -55 -20 -55 -67v-484c0 -46 12 -63 55 -67v-49h-273zM118 964h90l112 -180h-49l-108 83l-108 -83h-49z" />
    <glyph glyph-name="Idieresis" unicode="&#xcf;" horiz-adv-x="326" 
d="M27 0v49c42 4 54 21 54 67v484c0 47 -5 63 -54 67v48h273v-48c-49 -4 -55 -20 -55 -67v-484c0 -46 12 -63 55 -67v-49h-273zM68 944c39 0 69 -32 69 -70c0 -41 -29 -70 -69 -70c-39 0 -71 30 -71 69c0 38 33 71 71 71zM258 944c39 0 70 -32 70 -70c0 -41 -30 -70 -70 -70
c-39 0 -71 30 -71 69c0 38 33 71 71 71z" />
    <glyph glyph-name="Igrave" unicode="&#xcc;" horiz-adv-x="326" 
d="M27 0v49c42 4 54 21 54 67v484c0 47 -5 63 -54 67v48h273v-48c-49 -4 -55 -20 -55 -67v-484c0 -46 12 -63 55 -67v-49h-273zM160 928l135 -144h-55l-159 79c-34 17 -51 34 -51 59c0 30 23 53 53 53c27 0 49 -17 77 -47z" />
    <glyph glyph-name="Ntilde" unicode="&#xd1;" horiz-adv-x="582" 
d="M28 0v49c54 5 59 34 59 102v420c0 55 -14 83 -58 96v48h179l232 -389v245c0 63 -11 89 -71 96v48h185v-49c-54 -5 -59 -35 -59 -103v-563h-48l-305 519v-375c0 -64 20 -92 72 -96v-48h-186zM410 949h40c-17 -86 -56 -130 -111 -130c-11 0 -22 2 -34 5l-57 15
c-13 4 -23 5 -28 5c-25 0 -42 -16 -48 -46h-41c17 87 53 130 113 130c12 0 24 -1 38 -5l59 -16c9 -2 16 -3 22 -3c24 0 38 14 47 45z" />
    <glyph glyph-name="Oacute" unicode="&#xd3;" horiz-adv-x="589" 
d="M294 729c157 0 265 -136 265 -372s-108 -371 -265 -371s-264 135 -264 371s107 372 264 372zM294 674c-75 0 -86 -100 -86 -314s11 -313 86 -313s87 99 87 313s-12 314 -87 314zM390 863l-160 -79h-55l136 144c28 30 49 47 76 47c30 0 53 -23 53 -53
c0 -25 -16 -42 -50 -59z" />
    <glyph glyph-name="Ocircumflex" unicode="&#xd4;" horiz-adv-x="589" 
d="M294 729c157 0 265 -136 265 -372s-108 -371 -265 -371s-264 135 -264 371s107 372 264 372zM294 674c-75 0 -86 -100 -86 -314s11 -313 86 -313s87 99 87 313s-12 314 -87 314zM250 964h90l112 -180h-49l-108 83l-108 -83h-49z" />
    <glyph glyph-name="Odieresis" unicode="&#xd6;" horiz-adv-x="589" 
d="M294 729c157 0 265 -136 265 -372s-108 -371 -265 -371s-264 135 -264 371s107 372 264 372zM294 674c-75 0 -86 -100 -86 -314s11 -313 86 -313s87 99 87 313s-12 314 -87 314zM200 944c39 0 69 -32 69 -70c0 -41 -29 -70 -69 -70c-39 0 -71 30 -71 69c0 38 33 71 71 71
zM390 944c39 0 70 -32 70 -70c0 -41 -30 -70 -70 -70c-39 0 -71 30 -71 69c0 38 33 71 71 71z" />
    <glyph glyph-name="Ograve" unicode="&#xd2;" horiz-adv-x="589" 
d="M294 729c157 0 265 -136 265 -372s-108 -371 -265 -371s-264 135 -264 371s107 372 264 372zM294 674c-75 0 -86 -100 -86 -314s11 -313 86 -313s87 99 87 313s-12 314 -87 314zM292 928l135 -144h-55l-159 79c-34 17 -51 34 -51 59c0 30 23 53 53 53c27 0 49 -17 77 -47
z" />
    <glyph glyph-name="Otilde" unicode="&#xd5;" horiz-adv-x="589" 
d="M294 729c157 0 265 -136 265 -372s-108 -371 -265 -371s-264 135 -264 371s107 372 264 372zM294 674c-75 0 -86 -100 -86 -314s11 -313 86 -313s87 99 87 313s-12 314 -87 314zM414 949h40c-17 -86 -56 -130 -111 -130c-11 0 -22 2 -34 5l-57 15c-13 4 -23 5 -28 5
c-25 0 -42 -16 -48 -46h-41c17 87 53 130 113 130c12 0 24 -1 38 -5l59 -16c9 -2 16 -3 22 -3c24 0 38 14 47 45z" />
    <glyph glyph-name="Scaron" unicode="&#x160;" horiz-adv-x="444" 
d="M33 32v186h65c31 -118 70 -177 125 -177c39 0 65 29 65 74c0 56 -49 111 -126 195c-72 78 -132 135 -132 234c0 115 74 186 181 186c63 0 118 -21 174 -64v-171h-56c-31 119 -73 179 -122 179c-36 0 -54 -20 -54 -58c0 -68 68 -128 165 -225c64 -64 96 -138 96 -214
c0 -119 -73 -191 -203 -191c-62 0 -120 15 -178 46zM65 964h49l108 -83l108 83h49l-112 -180h-90z" />
    <glyph glyph-name="Thorn" unicode="&#xde;" horiz-adv-x="532" 
d="M27 0v49c42 4 54 21 54 67v484c0 47 -5 63 -54 67v48h273v-48c-49 -4 -55 -20 -55 -67v-28h36c157 0 236 -71 236 -205c0 -127 -77 -198 -199 -198c-33 0 -49 11 -49 31c0 26 31 23 47 36c31 25 32 65 32 133c0 106 -28 154 -101 154h-2v-407c0 -46 12 -63 55 -67v-49
h-273z" />
    <glyph glyph-name="Uacute" unicode="&#xda;" horiz-adv-x="562" 
d="M27 715h273v-48c-49 -4 -55 -20 -55 -67v-416c0 -90 20 -132 89 -132c76 0 92 46 92 144v391c0 52 -10 73 -58 80v48h170v-48c-48 -5 -57 -25 -57 -78v-393c0 -147 -50 -210 -205 -210c-139 0 -195 62 -195 201v413c0 47 -5 63 -54 67v48zM392 863l-160 -79h-55l136 144
c28 30 49 47 76 47c30 0 53 -23 53 -53c0 -25 -16 -42 -50 -59z" />
    <glyph glyph-name="Ucircumflex" unicode="&#xdb;" horiz-adv-x="562" 
d="M27 715h273v-48c-49 -4 -55 -20 -55 -67v-416c0 -90 20 -132 89 -132c76 0 92 46 92 144v391c0 52 -10 73 -58 80v48h170v-48c-48 -5 -57 -25 -57 -78v-393c0 -147 -50 -210 -205 -210c-139 0 -195 62 -195 201v413c0 47 -5 63 -54 67v48zM252 964h90l112 -180h-49
l-108 83l-108 -83h-49z" />
    <glyph glyph-name="Udieresis" unicode="&#xdc;" horiz-adv-x="562" 
d="M27 715h273v-48c-49 -4 -55 -20 -55 -67v-416c0 -90 20 -132 89 -132c76 0 92 46 92 144v391c0 52 -10 73 -58 80v48h170v-48c-48 -5 -57 -25 -57 -78v-393c0 -147 -50 -210 -205 -210c-139 0 -195 62 -195 201v413c0 47 -5 63 -54 67v48zM202 944c39 0 69 -32 69 -70
c0 -41 -29 -70 -69 -70c-39 0 -71 30 -71 69c0 38 33 71 71 71zM392 944c39 0 70 -32 70 -70c0 -41 -30 -70 -70 -70c-39 0 -71 30 -71 69c0 38 33 71 71 71z" />
    <glyph glyph-name="Ugrave" unicode="&#xd9;" horiz-adv-x="562" 
d="M27 715h273v-48c-49 -4 -55 -20 -55 -67v-416c0 -90 20 -132 89 -132c76 0 92 46 92 144v391c0 52 -10 73 -58 80v48h170v-48c-48 -5 -57 -25 -57 -78v-393c0 -147 -50 -210 -205 -210c-139 0 -195 62 -195 201v413c0 47 -5 63 -54 67v48zM294 928l135 -144h-55l-159 79
c-34 17 -51 34 -51 59c0 30 23 53 53 53c27 0 49 -17 77 -47z" />
    <glyph glyph-name="Yacute" unicode="&#xdd;" horiz-adv-x="501" 
d="M114 0v49c42 4 54 21 54 67v162l-105 305c-17 48 -33 76 -63 84v48h263v-48c-27 -8 -39 -21 -39 -43c0 -11 3 -24 8 -39l68 -219l71 202c6 17 9 32 9 47c0 25 -17 44 -48 52v48h169v-48c-39 -22 -57 -62 -77 -119l-91 -258v-174c0 -46 11 -63 54 -67v-49h-273zM346 863
l-160 -79h-55l136 144c28 30 49 47 76 47c30 0 53 -23 53 -53c0 -25 -16 -42 -50 -59z" />
    <glyph glyph-name="Ydieresis" unicode="&#x178;" horiz-adv-x="501" 
d="M114 0v49c42 4 54 21 54 67v162l-105 305c-17 48 -33 76 -63 84v48h263v-48c-27 -8 -39 -21 -39 -43c0 -11 3 -24 8 -39l68 -219l71 202c6 17 9 32 9 47c0 25 -17 44 -48 52v48h169v-48c-39 -22 -57 -62 -77 -119l-91 -258v-174c0 -46 11 -63 54 -67v-49h-273zM156 944
c39 0 69 -32 69 -70c0 -41 -29 -70 -69 -70c-39 0 -71 30 -71 69c0 38 33 71 71 71zM346 944c39 0 70 -32 70 -70c0 -41 -30 -70 -70 -70c-39 0 -71 30 -71 69c0 38 33 71 71 71z" />
    <glyph glyph-name="Zcaron" unicode="&#x17d;" horiz-adv-x="448" 
d="M28 0v49l224 613c-77 -1 -128 -38 -152 -110h-58v163h378v-42l-228 -617h8c89 0 132 36 164 129h67l-31 -185h-372zM67 964h49l108 -83l108 83h49l-112 -180h-90z" />
    <glyph glyph-name="aacute" unicode="&#xe1;" horiz-adv-x="440" 
d="M52 305c-5 23 -7 42 -7 56c0 80 64 128 178 128c104 0 150 -49 150 -156v-198c0 -36 4 -53 20 -53c6 0 12 3 21 10v-61c-24 -27 -58 -43 -96 -43s-61 19 -70 57c-37 -37 -75 -55 -115 -55c-66 0 -105 41 -105 111c0 77 39 108 118 146l92 45v89c0 37 -8 54 -31 54
c-25 0 -38 -17 -38 -51c0 -8 1 -22 3 -41zM238 239l-39 -27c-31 -21 -44 -40 -44 -74c0 -39 18 -61 45 -61c26 0 38 19 38 57v105zM309 622l-160 -79h-55l136 144c28 30 49 47 76 47c30 0 53 -23 53 -53c0 -25 -16 -42 -50 -59z" />
    <glyph glyph-name="acircumflex" unicode="&#xe2;" horiz-adv-x="440" 
d="M52 305c-5 23 -7 42 -7 56c0 80 64 128 178 128c104 0 150 -49 150 -156v-198c0 -36 4 -53 20 -53c6 0 12 3 21 10v-61c-24 -27 -58 -43 -96 -43s-61 19 -70 57c-37 -37 -75 -55 -115 -55c-66 0 -105 41 -105 111c0 77 39 108 118 146l92 45v89c0 37 -8 54 -31 54
c-25 0 -38 -17 -38 -51c0 -8 1 -22 3 -41zM238 239l-39 -27c-31 -21 -44 -40 -44 -74c0 -39 18 -61 45 -61c26 0 38 19 38 57v105zM169 723h90l112 -180h-49l-108 83l-108 -83h-49z" />
    <glyph glyph-name="adieresis" unicode="&#xe4;" horiz-adv-x="440" 
d="M52 305c-5 23 -7 42 -7 56c0 80 64 128 178 128c104 0 150 -49 150 -156v-198c0 -36 4 -53 20 -53c6 0 12 3 21 10v-61c-24 -27 -58 -43 -96 -43s-61 19 -70 57c-37 -37 -75 -55 -115 -55c-66 0 -105 41 -105 111c0 77 39 108 118 146l92 45v89c0 37 -8 54 -31 54
c-25 0 -38 -17 -38 -51c0 -8 1 -22 3 -41zM238 239l-39 -27c-31 -21 -44 -40 -44 -74c0 -39 18 -61 45 -61c26 0 38 19 38 57v105zM119 703c39 0 69 -32 69 -70c0 -41 -29 -70 -69 -70c-39 0 -71 30 -71 69c0 38 33 71 71 71zM309 703c39 0 70 -32 70 -70
c0 -41 -30 -70 -70 -70c-39 0 -71 30 -71 69c0 38 33 71 71 71z" />
    <glyph glyph-name="agrave" unicode="&#xe0;" horiz-adv-x="440" 
d="M52 305c-5 23 -7 42 -7 56c0 80 64 128 178 128c104 0 150 -49 150 -156v-198c0 -36 4 -53 20 -53c6 0 12 3 21 10v-61c-24 -27 -58 -43 -96 -43s-61 19 -70 57c-37 -37 -75 -55 -115 -55c-66 0 -105 41 -105 111c0 77 39 108 118 146l92 45v89c0 37 -8 54 -31 54
c-25 0 -38 -17 -38 -51c0 -8 1 -22 3 -41zM238 239l-39 -27c-31 -21 -44 -40 -44 -74c0 -39 18 -61 45 -61c26 0 38 19 38 57v105zM211 687l135 -144h-55l-159 79c-34 17 -51 34 -51 59c0 30 23 53 53 53c27 0 49 -17 77 -47z" />
    <glyph glyph-name="aring" unicode="&#xe5;" horiz-adv-x="440" 
d="M238 239l-39 -27c-31 -21 -44 -40 -44 -74c0 -39 18 -61 45 -61c26 0 38 19 38 57v105zM52 305c-5 23 -7 42 -7 56c0 80 64 128 178 128c104 0 150 -49 150 -156v-198c0 -36 4 -53 20 -53c6 0 12 3 21 10v-61c-24 -27 -58 -43 -96 -43s-61 19 -70 57
c-37 -37 -75 -55 -115 -55c-66 0 -105 41 -105 111c0 77 39 108 118 146l92 45v89c0 37 -8 54 -31 54c-25 0 -38 -17 -38 -51c0 -8 1 -22 3 -41zM206 780c73 0 131 -57 131 -129c0 -73 -58 -130 -131 -130s-129 57 -129 130c0 72 57 129 129 129zM207 710
c-33 0 -60 -26 -60 -60s25 -59 59 -59c33 0 60 26 60 59s-26 60 -59 60z" />
    <glyph glyph-name="atilde" unicode="&#xe3;" horiz-adv-x="440" 
d="M52 305c-5 23 -7 42 -7 56c0 80 64 128 178 128c104 0 150 -49 150 -156v-198c0 -36 4 -53 20 -53c6 0 12 3 21 10v-61c-24 -27 -58 -43 -96 -43s-61 19 -70 57c-37 -37 -75 -55 -115 -55c-66 0 -105 41 -105 111c0 77 39 108 118 146l92 45v89c0 37 -8 54 -31 54
c-25 0 -38 -17 -38 -51c0 -8 1 -22 3 -41zM238 239l-39 -27c-31 -21 -44 -40 -44 -74c0 -39 18 -61 45 -61c26 0 38 19 38 57v105zM333 708h40c-17 -86 -56 -130 -111 -130c-11 0 -22 2 -34 5l-57 15c-13 4 -23 5 -28 5c-25 0 -42 -16 -48 -46h-41c17 87 53 130 113 130
c12 0 24 -1 38 -5l59 -16c9 -2 16 -3 22 -3c24 0 38 14 47 45z" />
    <glyph glyph-name="brokenbar" unicode="&#xa6;" 
d="M200 699h101v-370h-101v370zM200 199h101v-370h-101v370z" />
    <glyph glyph-name="ccedilla" unicode="&#xe7;" horiz-adv-x="370" 
d="M304 145l46 -36c-25 -80 -75 -121 -149 -121c-105 0 -176 89 -176 242c0 160 80 258 191 258c70 0 121 -47 121 -108c0 -47 -22 -72 -64 -72c-34 0 -49 22 -56 70c-5 34 2 57 -22 57c-26 0 -44 -34 -44 -101c0 -157 39 -241 95 -241c23 0 40 17 58 52zM157 0h42v-56
c12 2 23 3 33 3c57 0 91 -32 91 -83c0 -56 -41 -92 -111 -92c-46 0 -98 17 -162 44l24 49c44 -25 83 -37 116 -37c25 0 42 14 42 37c0 26 -16 40 -45 40c-8 0 -18 -1 -30 -4v99z" />
    <glyph glyph-name="copyright" unicode="&#xa9;" horiz-adv-x="822" 
d="M412 690c93 0 184 -39 251 -105c66 -66 106 -160 106 -254c0 -93 -38 -184 -106 -253c-67 -68 -156 -104 -252 -104s-183 36 -252 104c-68 68 -105 157 -105 253c0 95 36 185 104 253c67 67 159 106 254 106zM412 639c-82 0 -159 -32 -217 -91s-89 -135 -89 -217
c0 -83 31 -159 89 -217c59 -59 133 -89 216 -89c82 0 158 31 215 89c58 59 90 137 90 217c0 82 -32 162 -89 218c-57 57 -136 90 -215 90zM550 538h22v-159h-23c-21 87 -69 133 -129 133c-77 0 -114 -58 -114 -178c0 -121 42 -184 120 -184c51 0 96 28 133 85l22 -14
c-41 -70 -99 -105 -170 -105c-122 0 -211 92 -211 208c0 126 90 216 208 216c66 0 96 -32 114 -32c15 0 24 9 28 30z" />
    <glyph glyph-name="degree" unicode="&#xb0;" horiz-adv-x="329" 
d="M165 715c82 0 148 -67 148 -149c0 -81 -66 -148 -149 -148c-82 0 -147 65 -147 148s66 149 148 149zM165 652c-47 0 -86 -38 -86 -85c0 -48 38 -86 86 -86s85 40 85 86c0 47 -38 85 -85 85z" />
    <glyph glyph-name="divide" unicode="&#xf7;" horiz-adv-x="833" 
d="M417 564c40 0 74 -33 74 -74c0 -40 -32 -74 -74 -74c-41 0 -74 33 -74 74c0 42 34 74 74 74zM124 347h585v-97h-585v97zM417 180c40 0 74 -33 74 -74c0 -39 -33 -73 -74 -73s-74 32 -74 73c0 42 34 74 74 74z" />
    <glyph glyph-name="eacute" unicode="&#xe9;" horiz-adv-x="403" 
d="M335 146l43 -33c-35 -85 -86 -123 -168 -123c-106 0 -185 91 -185 242c0 159 83 257 191 257c96 0 159 -74 159 -205v-15h-213c3 -119 36 -180 97 -180c32 0 52 18 76 57zM161 322h84v23c0 60 -11 90 -37 90c-34 0 -47 -31 -47 -98v-15zM306 622l-160 -79h-55l136 144
c28 30 49 47 76 47c30 0 53 -23 53 -53c0 -25 -16 -42 -50 -59z" />
    <glyph glyph-name="ecircumflex" unicode="&#xea;" horiz-adv-x="403" 
d="M335 146l43 -33c-35 -85 -86 -123 -168 -123c-106 0 -185 91 -185 242c0 159 83 257 191 257c96 0 159 -74 159 -205v-15h-213c3 -119 36 -180 97 -180c32 0 52 18 76 57zM161 322h84v23c0 60 -11 90 -37 90c-34 0 -47 -31 -47 -98v-15zM166 723h90l112 -180h-49l-108 83
l-108 -83h-49z" />
    <glyph glyph-name="edieresis" unicode="&#xeb;" horiz-adv-x="403" 
d="M335 146l43 -33c-35 -85 -86 -123 -168 -123c-106 0 -185 91 -185 242c0 159 83 257 191 257c96 0 159 -74 159 -205v-15h-213c3 -119 36 -180 97 -180c32 0 52 18 76 57zM161 322h84v23c0 60 -11 90 -37 90c-34 0 -47 -31 -47 -98v-15zM116 703c39 0 69 -32 69 -70
c0 -41 -29 -70 -69 -70c-39 0 -71 30 -71 69c0 38 33 71 71 71zM306 703c39 0 70 -32 70 -70c0 -41 -30 -70 -70 -70c-39 0 -71 30 -71 69c0 38 33 71 71 71z" />
    <glyph glyph-name="egrave" unicode="&#xe8;" horiz-adv-x="403" 
d="M335 146l43 -33c-35 -85 -86 -123 -168 -123c-106 0 -185 91 -185 242c0 159 83 257 191 257c96 0 159 -74 159 -205v-15h-213c3 -119 36 -180 97 -180c32 0 52 18 76 57zM161 322h84v23c0 60 -11 90 -37 90c-34 0 -47 -31 -47 -98v-15zM208 687l135 -144h-55l-159 79
c-34 17 -51 34 -51 59c0 30 23 53 53 53c27 0 49 -17 77 -47z" />
    <glyph glyph-name="eth" unicode="&#xf0;" horiz-adv-x="435" 
d="M236 462c-9 27 -22 55 -38 85l-133 -36l-15 53l120 32c-18 29 -44 67 -78 114l46 26c51 -39 90 -78 122 -114l120 30l14 -53l-97 -25c70 -112 105 -225 105 -348c0 -150 -74 -237 -184 -237s-185 87 -185 237c0 148 78 238 176 238c9 0 18 -1 27 -2zM218 413
c-41 0 -46 -58 -46 -187s5 -187 46 -187c40 0 45 58 45 187c0 128 -5 187 -45 187z" />
    <glyph glyph-name="iacute" unicode="&#xed;" horiz-adv-x="269" 
d="M31 0v49c34 2 36 19 36 58v257l-35 36v30l124 58h45v-381c0 -39 2 -56 36 -58v-49h-206zM234 622l-160 -79h-55l136 144c28 30 49 47 76 47c30 0 53 -23 53 -53c0 -25 -16 -42 -50 -59z" />
    <glyph glyph-name="icircumflex" unicode="&#xee;" horiz-adv-x="269" 
d="M31 0v49c34 2 36 19 36 58v257l-35 36v30l124 58h45v-381c0 -39 2 -56 36 -58v-49h-206zM94 723h90l112 -180h-49l-108 83l-108 -83h-49z" />
    <glyph glyph-name="idieresis" unicode="&#xef;" horiz-adv-x="269" 
d="M31 0v49c34 2 36 19 36 58v257l-35 36v30l124 58h45v-381c0 -39 2 -56 36 -58v-49h-206zM44 703c39 0 69 -32 69 -70c0 -41 -29 -70 -69 -70c-39 0 -71 30 -71 69c0 38 33 71 71 71zM234 703c39 0 70 -32 70 -70c0 -41 -30 -70 -70 -70c-39 0 -71 30 -71 69
c0 38 33 71 71 71z" />
    <glyph glyph-name="igrave" unicode="&#xec;" horiz-adv-x="269" 
d="M31 0v49c34 2 36 19 36 58v257l-35 36v30l124 58h45v-381c0 -39 2 -56 36 -58v-49h-206zM136 687l135 -144h-55l-159 79c-34 17 -51 34 -51 59c0 30 23 53 53 53c27 0 49 -17 77 -47z" />
    <glyph glyph-name="logicalnot" unicode="&#xac;" horiz-adv-x="833" 
d="M124 422h585v-245h-97v149h-488v96z" />
    <glyph glyph-name="minus" unicode="&#x2212;" horiz-adv-x="833" 
d="M124 348h585v-99h-585v99z" />
    <glyph glyph-name="mu" unicode="&#xb5;" horiz-adv-x="587" 
d="M87 102c-28 -211 -18 -309 -90 -309c-35 0 -56 21 -56 56c0 48 47 155 85 333l53 250h125l-48 -224c-7 -32 -11 -56 -11 -72c0 -38 21 -61 56 -61c47 0 75 35 90 107l53 250h125l-56 -260c-5 -23 -8 -40 -8 -54c0 -31 11 -43 36 -43s41 10 54 38c16 35 19 58 37 58
c10 0 16 -7 16 -19c0 -16 -8 -56 -29 -93c-26 -47 -63 -71 -115 -71c-56 0 -84 31 -90 97c-26 -68 -61 -97 -121 -97s-99 40 -106 114z" />
    <glyph glyph-name="multiply" unicode="&#xd7;" horiz-adv-x="833" 
d="M203 587l220 -220l220 220l69 -68l-220 -221l220 -220l-69 -68l-220 220l-220 -220l-68 68l220 220l-220 221z" />
    <glyph glyph-name="ntilde" unicode="&#xf1;" horiz-adv-x="493" 
d="M34 0v49c34 2 35 19 35 58v257l-34 36v30l123 58h46v-70c36 47 74 70 118 70c72 0 106 -53 106 -160v-221c0 -39 2 -56 36 -58v-49h-199v49c26 1 29 18 29 55v237c0 37 -5 53 -32 53c-20 0 -41 -11 -58 -33v-257c0 -37 2 -54 29 -55v-49h-199zM366 708h40
c-17 -86 -56 -130 -111 -130c-11 0 -22 2 -34 5l-57 15c-13 4 -23 5 -28 5c-25 0 -42 -16 -48 -46h-41c17 87 53 130 113 130c12 0 24 -1 38 -5l59 -16c9 -2 16 -3 22 -3c24 0 38 14 47 45z" />
    <glyph glyph-name="oacute" unicode="&#xf3;" horiz-adv-x="435" 
d="M217 488c114 0 193 -92 193 -250s-78 -250 -193 -250c-114 0 -192 92 -192 250s78 250 192 250zM218 435c-43 0 -48 -62 -48 -197s5 -196 48 -196s47 61 47 196s-5 197 -47 197zM313 622l-160 -79h-55l136 144c28 30 49 47 76 47c30 0 53 -23 53 -53
c0 -25 -16 -42 -50 -59z" />
    <glyph glyph-name="ocircumflex" unicode="&#xf4;" horiz-adv-x="435" 
d="M217 488c114 0 193 -92 193 -250s-78 -250 -193 -250c-114 0 -192 92 -192 250s78 250 192 250zM218 435c-43 0 -48 -62 -48 -197s5 -196 48 -196s47 61 47 196s-5 197 -47 197zM173 723h90l112 -180h-49l-108 83l-108 -83h-49z" />
    <glyph glyph-name="odieresis" unicode="&#xf6;" horiz-adv-x="435" 
d="M217 488c114 0 193 -92 193 -250s-78 -250 -193 -250c-114 0 -192 92 -192 250s78 250 192 250zM218 435c-43 0 -48 -62 -48 -197s5 -196 48 -196s47 61 47 196s-5 197 -47 197zM123 703c39 0 69 -32 69 -70c0 -41 -29 -70 -69 -70c-39 0 -71 30 -71 69c0 38 33 71 71 71
zM313 703c39 0 70 -32 70 -70c0 -41 -30 -70 -70 -70c-39 0 -71 30 -71 69c0 38 33 71 71 71z" />
    <glyph glyph-name="ograve" unicode="&#xf2;" horiz-adv-x="435" 
d="M217 488c114 0 193 -92 193 -250s-78 -250 -193 -250c-114 0 -192 92 -192 250s78 250 192 250zM218 435c-43 0 -48 -62 -48 -197s5 -196 48 -196s47 61 47 196s-5 197 -47 197zM215 687l135 -144h-55l-159 79c-34 17 -51 34 -51 59c0 30 23 53 53 53c27 0 49 -17 77 -47
z" />
    <glyph glyph-name="onehalf" unicode="&#xbd;" horiz-adv-x="779" 
d="M69 315v27c37 1 50 17 50 55v223h-59v32c45 7 77 30 92 71h54v-322c0 -42 10 -59 47 -59h2v-27h-186zM577 729h62l-437 -743h-63zM496 0v38c100 109 150 191 150 247c0 34 -23 54 -58 54c-25 0 -44 -8 -67 -25l-25 23c43 48 86 71 138 71c58 0 96 -37 96 -90
c0 -47 -24 -90 -66 -140c-20 -24 -56 -62 -102 -116h101c33 0 46 11 61 46h38l-43 -108h-223z" />
    <glyph glyph-name="onequarter" unicode="&#xbc;" horiz-adv-x="779" 
d="M69 315v27c37 1 50 17 50 55v223h-59v32c45 7 77 30 92 71h54v-322c0 -42 10 -59 47 -59h2v-27h-186zM577 729h62l-437 -743h-63zM629 0v106h-136v55l155 247h63v-248h49v-54h-49v-106h-82zM532 160h97v153z" />
    <glyph glyph-name="onesuperior" unicode="&#xb9;" horiz-adv-x="321" 
d="M72 286v29c39 1 52 18 52 59v238h-61v35c48 7 81 33 96 76h57v-345c0 -45 10 -63 50 -63h2v-29h-196z" />
    <glyph glyph-name="otilde" unicode="&#xf5;" horiz-adv-x="435" 
d="M217 488c114 0 193 -92 193 -250s-78 -250 -193 -250c-114 0 -192 92 -192 250s78 250 192 250zM218 435c-43 0 -48 -62 -48 -197s5 -196 48 -196s47 61 47 196s-5 197 -47 197zM337 708h40c-17 -86 -56 -130 -111 -130c-11 0 -22 2 -34 5l-57 15c-13 4 -23 5 -28 5
c-25 0 -42 -16 -48 -46h-41c17 87 53 130 113 130c12 0 24 -1 38 -5l59 -16c9 -2 16 -3 22 -3c24 0 38 14 47 45z" />
    <glyph glyph-name="plusminus" unicode="&#xb1;" horiz-adv-x="833" 
d="M367 597h99v-159h243v-97h-243v-159h-99v159h-243v97h243v159zM124 96h585v-97h-585v97z" />
    <glyph glyph-name="registered" unicode="&#xae;" horiz-adv-x="822" 
d="M412 690c95 0 190 -41 257 -110c63 -65 99 -156 99 -255c0 -89 -41 -184 -113 -254c-65 -63 -151 -97 -244 -97c-71 0 -138 20 -196 59c-102 68 -161 176 -161 298c0 95 37 185 104 253c66 67 158 106 254 106zM412 639c-82 0 -160 -33 -217 -91
c-58 -59 -89 -135 -89 -217c0 -83 31 -159 89 -217c59 -59 133 -89 216 -89c82 0 158 31 215 89c58 59 90 137 90 217c0 81 -33 162 -90 218c-57 57 -135 90 -214 90zM227 536h197c101 0 157 -44 157 -97c0 -58 -42 -86 -136 -102c61 -14 96 -44 107 -95
c9 -38 -2 -77 27 -77c18 0 28 19 28 57v6h25v-11c0 -57 -29 -88 -84 -88c-32 0 -55 10 -68 27c-20 28 -13 64 -19 98c-9 52 -35 75 -81 75h-9v-120c0 -31 11 -40 48 -45v-25h-192v25c39 2 52 12 52 45v255c0 33 -13 43 -52 46v26zM371 353c7 -1 14 -1 21 -1
c62 0 94 29 94 88c0 36 -29 71 -73 71c-28 0 -42 -10 -42 -32v-126z" />
    <glyph glyph-name="scaron" unicode="&#x161;" horiz-adv-x="355" 
d="M39 21v139h43c34 -79 70 -119 103 -119c27 0 42 17 42 48c0 49 -42 74 -99 117c-65 49 -102 88 -102 148c0 77 62 135 146 135c33 0 77 -11 130 -33v-125h-41c-30 68 -59 102 -92 102c-24 0 -37 -12 -37 -33c0 -33 36 -56 88 -95c68 -51 109 -90 109 -168
c0 -96 -54 -148 -157 -148c-51 0 -96 11 -133 32zM21 723h49l108 -83l108 83h49l-112 -180h-90z" />
    <glyph glyph-name="thorn" unicode="&#xfe;" horiz-adv-x="465" 
d="M24 -162v48c34 2 36 19 36 58v668l-35 36v30l124 58h45v-311c29 42 62 63 96 63c89 0 151 -86 151 -238c0 -169 -69 -261 -184 -261c-22 0 -43 4 -63 11v-56c0 -39 2 -56 36 -58v-48h-206zM194 332v-209c0 -55 15 -82 49 -82c50 0 55 49 55 155c0 133 -9 195 -60 195
c-28 0 -44 -20 -44 -59z" />
    <glyph glyph-name="threequarters" unicode="&#xbe;" horiz-adv-x="779" 
d="M35 659c32 42 76 64 124 64c59 0 94 -29 94 -74c0 -41 -22 -71 -68 -91c58 -21 83 -56 83 -112c0 -77 -71 -139 -173 -139c-43 0 -64 10 -64 31c0 16 15 27 37 27c26 0 40 -21 65 -21c32 0 47 24 47 75c0 60 -29 85 -100 85h-7v34c64 4 96 29 96 74c0 32 -23 54 -55 54
c-22 0 -40 -9 -58 -29zM577 729h62l-437 -743h-63zM629 0v106h-136v55l155 247h63v-248h49v-54h-49v-106h-82zM532 160h97v153z" />
    <glyph glyph-name="threesuperior" unicode="&#xb3;" horiz-adv-x="321" 
d="M37 654c34 46 79 69 130 69c61 0 98 -31 98 -79c0 -44 -23 -77 -72 -98c61 -22 88 -60 88 -120c0 -82 -75 -148 -181 -148c-46 0 -68 10 -68 33c0 16 16 29 39 29c28 0 43 -23 68 -23c34 0 50 26 50 81c0 63 -31 90 -105 90h-7v37c66 4 101 31 101 80c0 33 -25 57 -59 57
c-23 0 -41 -10 -60 -31z" />
    <glyph glyph-name="trademark" unicode="&#x2122;" horiz-adv-x="822" 
d="M116 710h220l6 -94h-16c-5 51 -24 74 -64 74h-3v-205c0 -15 6 -23 17 -25l15 -2v-16h-130v16l15 2c11 2 17 10 17 25v205h-5c-39 0 -57 -23 -62 -74h-16zM370 710h103l64 -180l63 180h97v-13l-13 -2c-13 -2 -18 -10 -18 -25v-185c0 -15 5 -23 18 -25l13 -2v-16h-124v16
l15 2c12 2 18 10 18 25v178l-76 -222h-18l-81 226v-182c0 -15 6 -23 18 -25l17 -2v-16h-96v16l17 2c12 2 18 10 18 25v182c0 15 -6 23 -18 25l-17 2v16z" />
    <glyph glyph-name="twosuperior" unicode="&#xb2;" horiz-adv-x="321" 
d="M24 286v41c105 117 157 204 157 264c0 36 -24 59 -60 59c-27 0 -47 -9 -71 -28l-26 25c45 52 90 76 145 76c61 0 100 -39 100 -96c0 -51 -25 -96 -69 -151c-20 -25 -58 -65 -106 -123h105c35 0 48 12 64 48h40l-45 -115h-234z" />
    <glyph glyph-name="uacute" unicode="&#xfa;" horiz-adv-x="484" 
d="M192 488v-352c0 -36 5 -53 33 -53c19 0 40 11 57 33v229c0 38 -3 61 -29 76v44l117 23h47v-361c0 -45 6 -68 34 -78v-49l-169 -11v70c-36 -47 -78 -71 -118 -71c-69 0 -106 54 -106 161v196c0 44 -6 67 -36 76v44l124 23h46zM334 622l-160 -79h-55l136 144
c28 30 49 47 76 47c30 0 53 -23 53 -53c0 -25 -16 -42 -50 -59z" />
    <glyph glyph-name="ucircumflex" unicode="&#xfb;" horiz-adv-x="484" 
d="M192 488v-352c0 -36 5 -53 33 -53c19 0 40 11 57 33v229c0 38 -3 61 -29 76v44l117 23h47v-361c0 -45 6 -68 34 -78v-49l-169 -11v70c-36 -47 -78 -71 -118 -71c-69 0 -106 54 -106 161v196c0 44 -6 67 -36 76v44l124 23h46zM194 723h90l112 -180h-49l-108 83l-108 -83
h-49z" />
    <glyph glyph-name="udieresis" unicode="&#xfc;" horiz-adv-x="484" 
d="M192 488v-352c0 -36 5 -53 33 -53c19 0 40 11 57 33v229c0 38 -3 61 -29 76v44l117 23h47v-361c0 -45 6 -68 34 -78v-49l-169 -11v70c-36 -47 -78 -71 -118 -71c-69 0 -106 54 -106 161v196c0 44 -6 67 -36 76v44l124 23h46zM144 703c39 0 69 -32 69 -70
c0 -41 -29 -70 -69 -70c-39 0 -71 30 -71 69c0 38 33 71 71 71zM334 703c39 0 70 -32 70 -70c0 -41 -30 -70 -70 -70c-39 0 -71 30 -71 69c0 38 33 71 71 71z" />
    <glyph glyph-name="ugrave" unicode="&#xf9;" horiz-adv-x="484" 
d="M192 488v-352c0 -36 5 -53 33 -53c19 0 40 11 57 33v229c0 38 -3 61 -29 76v44l117 23h47v-361c0 -45 6 -68 34 -78v-49l-169 -11v70c-36 -47 -78 -71 -118 -71c-69 0 -106 54 -106 161v196c0 44 -6 67 -36 76v44l124 23h46zM236 687l135 -144h-55l-159 79
c-34 17 -51 34 -51 59c0 30 23 53 53 53c27 0 49 -17 77 -47z" />
    <glyph glyph-name="yacute" unicode="&#xfd;" horiz-adv-x="396" 
d="M0 477h199v-49c-17 -5 -24 -14 -24 -31c0 -7 3 -17 7 -30l54 -174l43 149c4 13 6 26 6 36c0 24 -11 39 -38 50v49h149v-49c-36 -16 -49 -42 -61 -82l-117 -377c-29 -93 -55 -138 -128 -138c-52 0 -87 32 -87 76c0 38 25 62 60 62c27 0 47 -11 62 -37c4 -1 7 -1 10 -1
c25 0 39 18 39 48c0 6 -1 13 -2 21l-125 358c-14 39 -23 63 -47 70v49zM293 622l-160 -79h-55l136 144c28 30 49 47 76 47c30 0 53 -23 53 -53c0 -25 -16 -42 -50 -59z" />
    <glyph glyph-name="ydieresis" unicode="&#xff;" horiz-adv-x="396" 
d="M0 477h199v-49c-17 -5 -24 -14 -24 -31c0 -7 3 -17 7 -30l54 -174l43 149c4 13 6 26 6 36c0 24 -11 39 -38 50v49h149v-49c-36 -16 -49 -42 -61 -82l-117 -377c-29 -93 -55 -138 -128 -138c-52 0 -87 32 -87 76c0 38 25 62 60 62c27 0 47 -11 62 -37c4 -1 7 -1 10 -1
c25 0 39 18 39 48c0 6 -1 13 -2 21l-125 358c-14 39 -23 63 -47 70v49zM103 703c39 0 69 -32 69 -70c0 -41 -29 -70 -69 -70c-39 0 -71 30 -71 69c0 38 33 71 71 71zM293 703c39 0 70 -32 70 -70c0 -41 -30 -70 -70 -70c-39 0 -71 30 -71 69c0 38 33 71 71 71z" />
    <glyph glyph-name="zcaron" unicode="&#x17e;" horiz-adv-x="381" 
d="M19 0v41l203 383c-6 0 -12 1 -18 1c-73 0 -113 -35 -129 -106h-40l5 174h44c11 -13 31 -16 65 -16h213v-58l-203 -366h14c75 0 125 37 152 114h47l-22 -167h-331zM34 723h49l108 -83l108 83h49l-112 -180h-90z" />
    </font>
</defs>
</svg>
