<?xml version="1.0" encoding="utf-8"?>
<!-- Generator: Adobe Illustrator 17.0.0, SVG Export Plug-In . SVG Version: 6.00 Build 0)  -->
<!DOCTYPE svg PUBLIC "-//W3C//DTD SVG 1.1//EN" "http://www.w3.org/Graphics/SVG/1.1/DTD/svg11.dtd">
<svg version="1.1" id="Layer_1" xmlns="http://www.w3.org/2000/svg" xmlns:xlink="http://www.w3.org/1999/xlink" x="0px" y="0px"
	 width="864px" height="190.489px" viewBox="0 0 864 190.489" enable-background="new 0 0 864 190.489" xml:space="preserve">
<g>
	<g>
		<linearGradient id="SVGID_1_" gradientUnits="userSpaceOnUse" x1="632.7026" y1="234.9828" x2="632.7026" y2="48.9921">
			<stop  offset="0" style="stop-color:#888F95"/>
			<stop  offset="1" style="stop-color:#BABFC6"/>
		</linearGradient>
		<path fill="url(#SVGID_1_)" d="M553.511,175.628V18.09c0-1.203,0.427-2.331,1.29-3.386c0.858-1.051,2.232-1.58,4.126-1.58h85.623
			c9.111,0,17.408,1.619,24.887,4.852c7.479,3.238,13.926,7.487,19.343,12.752c5.416,5.269,9.583,11.25,12.508,17.943
			c2.922,6.697,4.384,13.581,4.384,20.651c0,9.028-2.881,17.682-8.639,25.956c-5.763,8.277-13.371,15.048-22.824,20.313
			l36.88,60.036c0.858,1.206,1.032,2.334,0.516,3.385c-0.516,1.055-1.721,1.58-3.611,1.58h-46.422c-1.894,0-3.268-0.3-4.127-0.903
			c-0.862-0.599-1.805-1.88-2.836-3.837l-30.69-51.008h-20.632v50.783c0,3.311-1.894,4.965-5.674,4.965h-38.685
			C555.317,180.593,553.511,178.939,553.511,175.628z M631.913,47.882h-28.627v40.852h28.627c3.437,0,6.532-0.564,9.284-1.693
			c2.748-1.128,5.158-2.631,7.221-4.514c2.063-1.88,3.651-4.063,4.771-6.545c1.116-2.483,1.677-5.001,1.677-7.562
			c0-2.405-0.561-4.852-1.677-7.335c-1.12-2.483-2.708-4.701-4.771-6.658c-2.063-1.954-4.473-3.534-7.221-4.74
			C638.445,48.485,635.35,47.882,631.913,47.882z"/>
	</g>
	<g>
		<linearGradient id="SVGID_2_" gradientUnits="userSpaceOnUse" x1="792.9486" y1="234.9828" x2="792.9486" y2="48.9921">
			<stop  offset="0" style="stop-color:#888F95"/>
			<stop  offset="1" style="stop-color:#BABFC6"/>
		</linearGradient>
		<path fill="url(#SVGID_2_)" d="M721.897,176.939V19.401c0-3.308,1.89-4.966,5.674-4.966h128.177c3.78,0,5.674,1.658,5.674,4.966
			V48.29c0,3.311-1.894,4.965-5.674,4.965h-84.075v27.761h63.959c4.127,0,6.19,1.732,6.19,5.192v23.246
			c0,3.312-2.063,4.966-6.19,4.966h-63.959v28.889h86.654c3.78,0,5.674,1.658,5.674,4.966v28.664c0,3.311-1.894,4.965-5.674,4.965
			H727.571C723.787,181.904,721.897,180.25,721.897,176.939z"/>
	</g>
	<linearGradient id="SVGID_3_" gradientUnits="userSpaceOnUse" x1="401.0115" y1="234.9828" x2="401.0115" y2="48.9921">
		<stop  offset="0" style="stop-color:#888F95"/>
		<stop  offset="1" style="stop-color:#BABFC6"/>
	</linearGradient>
	<path fill="url(#SVGID_3_)" d="M383.861,121.547v51.46c0,3.311-1.894,4.965-5.674,4.965h-38.685c-3.61,0-5.416-1.654-5.416-4.965
		V15.469c0-3.308,1.805-4.966,5.416-4.966h123.019c3.61,0,5.416,1.658,5.416,4.966v28.889c0,3.311-1.805,4.965-5.416,4.965h-78.66
		v34.758h57.512h16.463v34.756h-74.273L383.861,121.547z"/>
	<linearGradient id="SVGID_4_" gradientUnits="userSpaceOnUse" x1="511.6003" y1="234.9828" x2="511.6003" y2="48.9921">
		<stop  offset="0" style="stop-color:#888F95"/>
		<stop  offset="1" style="stop-color:#BABFC6"/>
	</linearGradient>
	<path fill="url(#SVGID_4_)" d="M486.713,173.007V15.469c0-3.308,1.805-4.966,5.416-4.966h38.685c3.78,0,5.674,1.658,5.674,4.966
		v157.538c0,3.311-1.894,4.965-5.674,4.965h-38.685C488.518,177.972,486.713,176.318,486.713,173.007z"/>
</g>
<path fill="#303030" d="M113.989,143.573H52.274v-29.905h52.218V79.092H52.274V50.356h56.989
	c0.719-1.363,16.647-31.254,35.224-39.292c-0.965-0.592-2.267-0.893-3.916-0.893H5.958C1.984,10.171,0,11.888,0,15.311v163.073
	c0,3.428,1.984,5.14,5.958,5.14h135.125C129.949,175.657,117,149.802,113.989,143.573z"/>
<rect x="250.089" y="127.794" fill="#242424" width="2.84" height="16.384"/>
<rect x="190.452" y="128.668" fill="#242424" width="2.84" height="16.384"/>
<rect x="244.426" y="107.441" fill="#242424" width="0.1" height="0.002"/>
<line fill="none" stroke="#242424" stroke-width="0" stroke-linecap="round" stroke-linejoin="round" x1="244.525" y1="107.441" x2="244.426" y2="107.441"/>
<g>
	<g>
		<g>
			<path fill="#242424" d="M244.525,107.441V97.35c-1.599-16.216-21.742-18.71-21.742-18.71
				c-22.861-1.069-24.779,20.136-24.779,20.136v8.665h16.866v4.277h-16.866v2.94h16.866v4.277h-16.866v2.807h16.866v4.277h-16.866
				v24.791l46.521,1.069v-25.843c-0.061,0-0.115-0.01-0.172-0.017H227.48v-4.277h16.636v-0.001h-0.078l-0.188-0.203h0.675v-2.604
				h-0.1v0.002H227.48v-4.277h16.448v-0.007h0.597v-2.927h-0.207v-0.007H227.48v-4.277H244.525z"/>
		</g>
		<polygon fill="#242424" points="244.038,121.739 244.116,121.739 244.525,121.739 244.525,121.713 244.525,121.536 
			243.85,121.536 		"/>
	</g>
</g>
<path fill="#303030" d="M221.472,0c-53.085,0-96.118,42.642-96.118,95.245s43.034,95.245,96.118,95.245s96.118-42.642,96.118-95.245
	S274.557,0,221.472,0z M220.817,149.42c-30.041,0-54.394-23.375-54.394-52.21c0-28.835,24.353-52.21,54.394-52.21
	s54.394,23.375,54.394,52.21C275.211,126.045,250.858,149.42,220.817,149.42z"/>
<path fill="#B2B1B2" d="M215.27,74.959c-5.276-0.799-10.551-13.269-10.551-13.269c0,7.514-5.116,13.589-5.116,13.589
	c-0.959,1.439,0.16,6.555,0.16,6.555C207.756,74.16,215.27,74.959,215.27,74.959z"/>
<path fill="#666666" d="M218.627,74.799c29.895,0.16,29.575,20.303,29.575,20.303c9.752-14.708-3.837-37.089-3.837-37.089
	c-2.718-3.517-3.757-13.589-3.757-13.589c-2.078,5.995-2.638,3.837-2.638,3.837c-11.67-14.388,0.639-27.017,0.639-27.017
	c-15.347,7.354-18.225,22.221-18.225,22.221c-0.32,5.915-3.037,4.796-3.037,4.796c-1.759-1.279-1.599-7.833-1.599-7.833
	c-5.435,10.231-2.238,23.5-2.238,23.5c-3.357-7.993-16.147-17.106-16.147-17.106c3.037,18.544-4.796,23.34-4.796,23.34
	c-4.796,17.905,2.398,21.262,2.398,21.262c0-4.316,2.558-6.714,2.558-6.714C204.079,74.639,218.627,74.799,218.627,74.799z
	 M218.467,58.813c0,0,3.037,3.197,5.755,4.476c0,0-2.878-11.83,3.037-21.902c0,0,11.031,15.347,9.752,25.738
	c0,0,0.799,1.759,1.759-0.959c0,0,1.279-3.357,1.279-6.235c0,0,7.674,20.783,2.398,22.381c0,0-5.276-7.034-19.823-7.674
	C222.624,74.639,217.508,65.847,218.467,58.813z M199.603,75.279c0,0,5.116-6.075,5.116-13.589c0,0,5.276,12.47,10.551,13.269
	c0,0-7.514-0.799-15.507,6.874C199.763,81.833,198.644,76.718,199.603,75.279z"/>
<path fill="#B2B1B2" d="M242.447,82.313c5.276-1.599-2.398-22.381-2.398-22.381c0,2.878-1.279,6.235-1.279,6.235
	c-0.959,2.718-1.759,0.959-1.759,0.959c1.279-10.391-9.752-25.738-9.752-25.738c-5.915,10.072-3.037,21.902-3.037,21.902
	c-2.718-1.279-5.755-4.476-5.755-4.476c-0.959,7.034,4.157,15.827,4.157,15.827C237.172,75.279,242.447,82.313,242.447,82.313z"/>
</svg>
