<?xml version="1.0" standalone="no"?>
<!DOCTYPE svg PUBLIC "-//W3C//DTD SVG 1.1//EN" "http://www.w3.org/Graphics/SVG/1.1/DTD/svg11.dtd" >
<svg xmlns="http://www.w3.org/2000/svg">
<metadata>Generated by IcoMoon</metadata>
<defs>
<font id="icomoon" horiz-adv-x="1024">
<font-face units-per-em="1024" ascent="960" descent="-64" />
<missing-glyph horiz-adv-x="1024" />
<glyph unicode="&#x20;" horiz-adv-x="512" d="" />
<glyph unicode="&#xe601;" glyph-name="menu2" d="M839.68 512h-655.36c-28.262 0-30.72-22.886-30.72-51.2s2.458-51.2 30.72-51.2h655.36c28.262 0 30.72 22.886 30.72 51.2s-2.458 51.2-30.72 51.2zM839.68 307.2h-655.36c-28.262 0-30.72-22.886-30.72-51.2s2.458-51.2 30.72-51.2h655.36c28.262 0 30.72 22.886 30.72 51.2s-2.458 51.2-30.72 51.2zM184.32 614.4h655.36c28.262 0 30.72 22.886 30.72 51.2s-2.458 51.2-30.72 51.2h-655.36c-28.262 0-30.72-22.886-30.72-51.2s2.458-51.2 30.72-51.2z" />
<glyph unicode="&#xe602;" glyph-name="cross" d="M810.667 768q18.333 0 30.5-12.167t12.167-30.5q0-18-12.333-30.333l-268.667-268.333 268.667-268.333q12.333-12.333 12.333-30.333 0-18.333-12.167-30.5t-30.5-12.167q-18 0-30.333 12.333l-268.333 268.667-268.333-268.667q-12.333-12.333-30.333-12.333-18.333 0-30.5 12.167t-12.167 30.5q0 18 12.333 30.333l268.667 268.333-268.667 268.333q-12.333 12.333-12.333 30.333 0 18.333 12.167 30.5t30.5 12.167q18 0 30.333-12.333l268.333-268.667 268.333 268.667q12.333 12.333 30.333 12.333z" />
<glyph unicode="&#xe900;" glyph-name="bookmark" d="M220.724 927.905c-16.177-1.745-28.661-15.326-28.661-31.823 0-0.060 0-0.12 0-0.18v-895.814c0-0.042 0-0.092 0-0.142 0-17.672 14.325-31.997 31.997-31.997 8.207 0 15.693 3.090 21.356 8.17l266.584 236.927 266.614-236.953c5.634-5.053 13.119-8.143 21.326-8.143 17.672 0 31.997 14.325 31.997 31.997 0 0.050 0 0.1 0 0.149v895.816c-0.002 17.668-14.324 31.992-31.994 31.994h-575.886c-0.498 0.028-1.080 0.044-1.666 0.044s-1.169-0.016-1.747-0.047zM256.051 863.918h511.899v-792.51l-234.62 208.625c-5.634 5.055-13.12 8.146-21.329 8.146s-15.695-3.091-21.359-8.172l-234.59-208.599v792.51z" />
<glyph unicode="&#xe901;" glyph-name="thin-plus" d="M552.96 488.96v286.72h-81.92v-286.72h-286.72v-81.92h286.72v-286.72h81.92v286.72h286.72v81.92z" />
<glyph unicode="&#xe902;" glyph-name="pane-hide" horiz-adv-x="1032" d="M143.36 852.48v-808.96h89.6v808.96h-89.6zM529.92 581.12l-176.64-133.12 176.64-133.12v89.6h355.84v89.6h-355.84v87.040z" />
<glyph unicode="&#xe903;" glyph-name="thick-star" d="M1015.808 591.36c-2.048 12.288-12.288 18.432-24.576 20.48l-329.728 20.48-122.88 307.2c-4.096 12.288-16.384 20.48-30.72 18.432-12.288-2.048-20.48-8.192-24.576-18.432l-122.88-305.152-329.728-22.528c-10.24-2.048-20.48-10.24-24.576-20.48s0-22.528 8.192-30.72l253.952-210.944-79.872-321.536c-2.048-10.24 2.048-22.528 12.288-30.72 4.096-4.096 10.24-6.144 16.384-6.144s10.24 2.048 16.384 6.144l278.528 174.080 282.624-178.176c10.24-6.144 22.528-4.096 32.768 2.048 8.192 6.144 12.288 18.432 10.24 30.72l-79.872 321.536 251.904 210.944c6.144 10.24 10.24 22.528 6.144 32.768zM528.384 230.912c-6.144 2.048-10.24 4.096-16.384 4.096s-10.24 0-16.384-4.096l-235.52-147.456 67.584 268.288c2.048 12.288-2.048 22.528-10.24 30.72l-210.944 176.128 276.48 20.48c12.288 0 22.528 8.192 26.624 18.432l102.4 256 104.448-256c4.096-10.24 14.336-18.432 24.576-18.432l276.48-18.432-210.944-178.176c-10.24-8.192-12.288-20.48-10.24-30.72l67.584-270.336-235.52 149.504z" />
<glyph unicode="&#xe904;" glyph-name="Lock" d="M814.069 547.415h-70.738v87.944c0 128.093-103.239 233.243-233.243 233.243s-231.331-103.239-231.331-231.331v-87.944h-68.826c-34.413 0-63.090-28.677-63.090-63.090v-453.104c0-34.413 28.677-63.090 63.090-63.090h604.138c34.413 0 63.090 28.677 63.090 63.090v453.104c0 34.413-28.677 61.179-63.090 61.179zM512 820.807c101.327 0 183.536-82.209 183.536-183.536v-87.944h-367.071v87.944c0 101.327 82.209 183.536 183.536 183.536zM196.548 486.237c0 7.647 5.735 13.383 13.383 13.383h604.138c7.647 0 13.383-5.735 13.383-13.383v-453.104c0-7.647-5.735-13.383-13.383-13.383h-604.138c-7.647 0-13.383 5.735-13.383 13.383v453.104zM468.028 201.374c0-24.854 19.118-43.972 43.972-43.972s43.972 19.118 43.972 43.972v51.619c11.471 11.471 19.118 26.766 19.118 43.972 0 36.325-26.766 63.090-63.090 63.090s-63.090-26.766-63.090-63.090c0-17.206 7.647-32.501 19.118-43.972v-51.619z" />
<glyph unicode="&#xe905;" glyph-name="a" d="M136.601-32v960h406.861l343.835-343.835v-616.063h-750.696zM190.025 21.424h643.95v504.516h-348.636v348.636h-295.313v-853.152zM538.661 579.262h277.948l-277.948 278.050v-278.050zM276.137 107.536v53.424h471.828v-53.424h-471.828zM276.137 246.97v53.424h471.828v-53.424h-471.828zM276.137 386.404v53.424h471.828v-53.424h-471.828z" />
<glyph unicode="&#xe906;" glyph-name="arrow-right" d="M597.333 789.333q18 0 30.333-12.333l298.667-298.667q12.333-12.333 12.333-30.333t-12.333-30.333l-298.667-298.667q-12.333-12.333-30.333-12.333-18.333 0-30.5 12.167t-12.167 30.5q0 18 12.333 30.333l226 225.667h-665q-17.667 0-30.167 12.5t-12.5 30.167 12.5 30.167 30.167 12.5h665l-226 225.667q-12.333 12.333-12.333 30.333 0 18.333 12.167 30.5t30.5 12.167z" />
<glyph unicode="&#xe907;" glyph-name="triangle-right" d="M280.32 715.52l463.359-267.52-463.359-267.52z" />
<glyph unicode="&#xe908;" glyph-name="book" d="M977.859 59.109v676.508c0 10.127-8.102 16.204-16.204 16.204h-44.56v-587.387c0-12.153-8.102-20.255-20.255-20.255-149.885 0-243.057-20.255-299.77-38.484-28.357-10.127-46.586-18.229-56.713-26.331-6.076-4.051-10.127-6.076-12.153-8.102s-2.025-2.025-4.051-4.051-6.076-4.051-8.102-4.051c0 0 0 0 0 0-6.076 0-14.178 2.025-18.229 6.076-2.025 2.025-4.051 4.051-14.178 8.102-12.153 6.076-28.357 16.204-56.713 26.331-56.713 20.255-149.885 40.509-299.77 40.509-12.153 0-20.255 8.102-20.255 20.255v587.387h-44.56c-8.102 0-16.204-8.102-16.204-16.204v-674.482c0-10.127 8.102-18.229 16.204-18.229h348.381c8.102 0 14.178-4.051 18.229-10.127 0 0 28.357-50.637 83.044-50.637s83.044 50.637 83.044 50.637c4.051 6.076 10.127 10.127 18.229 10.127h348.381c8.102 0 16.204 8.102 16.204 16.204zM125.135 913.859c0 0 2.025 0 0 0 155.961 0 257.235-30.382 317.999-62.79 30.382-16.204 50.637-32.408 64.815-44.56 2.025-2.025 2.025-2.025 4.051-4.051 2.025 2.025 2.025 2.025 4.051 4.051 14.178 12.153 34.433 28.357 64.815 44.56 60.764 32.408 162.038 62.79 315.974 62.79 12.153 0 20.255-8.102 20.255-20.255v-101.274h44.56c32.408 0 56.713-26.331 56.713-56.713v-674.482c0-32.408-26.331-56.713-56.713-56.713h-338.254c-10.127-14.178-42.535-60.764-111.401-60.764s-101.274 46.586-111.401 60.764h-338.254c-30.382-2.025-56.713 24.306-56.713 54.688v676.508c0 30.382 26.331 56.713 56.713 56.713h44.56v101.274c0 10.127 6.076 18.229 18.229 20.255-2.025 0 0 0 0 0zM147.415 182.663c139.758-2.025 234.955-20.255 291.668-40.509 24.306-8.102 38.484-16.204 52.662-24.306v646.126c-2.025 2.025-2.025 4.051-10.127 12.153-10.127 10.127-30.382 24.306-56.713 38.484-52.662 28.357-141.783 54.688-277.49 56.713v-688.66zM599.095 814.61c-28.357-14.178-46.586-28.357-56.713-38.484-8.102-8.102-10.127-10.127-10.127-12.153v-644.1c14.178 8.102 28.357 16.204 52.662 24.306 58.739 20.255 151.91 38.484 291.668 40.509v688.66c-135.707-4.051-224.827-30.382-277.49-58.739zM512-64.444c-62.79 0-97.223 36.458-113.426 60.764h-336.228c-34.433 0-62.79 28.357-62.79 62.79v676.508c0 34.433 28.357 62.79 62.79 62.79h38.484v95.197c0 12.153 8.102 24.306 20.255 26.331 2.025 0 2.025 0 2.025 0s2.025 0 2.025 0c0 0 0 0 0 0 162.038 0 263.311-34.433 317.999-64.815 28.357-14.178 50.637-28.357 68.866-44.56 18.229 16.204 40.509 30.382 66.841 44.56 54.688 30.382 155.961 64.815 317.999 64.815 14.178 0 26.331-12.153 26.331-26.331v-95.197h38.484c34.433 0 62.79-28.357 62.79-62.79v-674.482c0-34.433-28.357-62.79-62.79-62.79h-336.228c-16.204-26.331-50.637-62.79-113.426-62.79zM62.345 786.254c-28.357 0-52.662-22.28-52.662-52.662v-674.482c0-28.357 22.28-52.662 52.662-52.662h338.254c2.025 0 4.051-2.025 4.051-2.025 14.178-22.28 46.586-58.739 105.325-58.739s91.146 36.458 105.325 58.739c2.025 2.025 2.025 2.025 4.051 2.025h338.254c28.357 0 52.662 22.28 52.662 52.662v676.508c0 28.357-22.28 52.662-52.662 52.662h-40.509c-4.051 0-6.076 2.025-6.076 6.076v99.248c0 8.102-6.076 14.178-14.178 14.178-160.012 0-259.26-34.433-313.948-62.79-26.331-14.178-46.586-28.357-64.815-42.535 0 0-2.025-2.025-2.025-2.025l-2.025-2.025c-2.025-2.025-6.076-2.025-8.102 0l-2.025 2.025c0 0-2.025 2.025-2.025 2.025-16.204 16.204-38.484 30.382-64.815 42.535-50.637 28.357-149.885 62.79-309.897 62.79 0 0-2.025 0-2.025 0h-2.025c-6.076 0-10.127-6.076-10.127-14.178v-101.274c0-4.051-2.025-6.076-6.076-6.076h-44.56zM512-23.935c-58.739 0-87.095 50.637-89.121 52.662-2.025 4.051-8.102 8.102-12.153 8.102 0 0 0 0 0 0h-348.381c-12.153 0-22.28 10.127-22.28 22.28v676.508c0 12.153 10.127 22.28 22.28 22.28h44.56c4.051 0 6.076-2.025 6.076-6.076v-587.387c0-8.102 6.076-14.178 14.178-14.178 153.936 0 249.133-22.28 301.795-40.509 22.28-6.076 42.535-16.204 56.713-26.331 8.102-4.051 12.153-8.102 14.178-10.127 4.051-4.051 8.102-6.076 12.153-4.051 2.025 0 4.051 2.025 6.076 2.025s2.025 2.025 4.051 2.025 6.076 4.051 10.127 6.076l4.051 2.025c16.204 10.127 36.458 18.229 58.739 26.331 52.662 18.229 145.834 40.509 301.795 40.509 8.102 0 14.178 6.076 14.178 14.178v589.412c0 4.051 2.025 6.076 6.076 6.076h44.56c12.153 0 22.28-10.127 22.28-22.28v-674.482c0-12.153-10.127-22.28-22.28-22.28h-348.381c-6.076 0-10.127-2.025-12.153-8.102-2.025-2.025-30.382-54.688-89.121-54.688zM410.726 48.982c10.127 0 18.229-4.051 22.28-12.153 0 0 28.357-48.611 78.993-48.611s78.993 46.586 78.993 48.611c4.051 8.102 14.178 12.153 22.28 12.153 0 0 0 0 0 0h348.381c6.076 0 12.153 4.051 12.153 12.153v674.482c0 6.076-4.051 12.153-12.153 12.153h-38.484v-583.336c0-14.178-12.153-26.331-26.331-26.331-153.936 0-247.108-20.255-297.744-38.484-22.28-8.102-40.509-16.204-56.713-26.331l-4.051-2.025c-4.051-2.025-6.076-4.051-8.102-6.076 0-2.025-2.025-2.025-4.051-4.051s-6.076-4.051-10.127-4.051c0 0-2.025 0-2.025 0-8.102-2.025-16.204 2.025-22.28 8.102 0 0-4.051 2.025-12.153 8.102-16.204 10.127-34.433 18.229-56.713 26.331-50.637 18.229-143.809 38.484-297.744 38.484-14.178 0-26.331 12.153-26.331 26.331v581.31h-36.458c-6.076 0-12.153-4.051-12.153-12.153v-674.482c0-6.076 4.051-12.153 12.153-12.153h348.381c0 2.025 0 2.025 0 2.025zM491.745 113.797c0 0-2.025 0-2.025 0-14.178 8.102-28.357 16.204-50.637 24.306-48.611 16.204-139.758 38.484-289.642 40.509-4.051 0-6.076 2.025-6.076 6.076v688.66c0 2.025 0 4.051 2.025 4.051 0 0 0 0 2.025 0 145.834-2.025 230.904-32.408 279.515-56.713 22.28-12.153 42.535-24.306 58.739-40.509 6.076-8.102 8.102-10.127 10.127-12.153 0 0 2.025-2.025 2.025-4.051v-644.1c0-2.025-2.025-4.051-2.025-4.051-2.025-2.025-2.025-2.025-4.051-2.025zM153.491 188.74c147.859-2.025 239.006-24.306 287.617-40.509 20.255-6.076 32.408-14.178 44.56-20.255v633.973c-2.025 2.025-4.051 4.051-8.102 10.127-14.178 14.178-34.433 26.331-54.688 38.484-46.586 22.28-129.63 52.662-269.388 54.688v-676.508zM532.255 113.797c0 0-2.025 0-2.025 0-2.025 2.025-4.051 2.025-4.051 4.051v646.126c0 2.025 0 2.025 2.025 4.051s4.051 4.051 10.127 12.153c16.204 14.178 36.458 28.357 58.739 40.509v0c46.586 24.306 133.681 54.688 279.515 56.713 2.025 0 4.051 0 4.051-2.025 2.025-2.025 2.025-2.025 2.025-4.051v-688.66c0-4.051-2.025-6.076-6.076-6.076-149.885-2.025-241.031-22.28-289.642-40.509-24.306-8.102-38.484-16.204-50.637-22.28-2.025 0-2.025 0-4.051 0zM538.331 761.948v-633.973c12.153 6.076 26.331 12.153 44.56 20.255 50.637 16.204 139.758 38.484 287.617 40.509v676.508c-139.758-4.051-222.802-32.408-267.362-56.713v0c-22.28-10.127-40.509-24.306-54.688-38.484-8.102-4.051-10.127-6.076-10.127-8.102z" />
<glyph unicode="&#xe909;" glyph-name="send" d="M611.2 691.84c-9.631-1.794-16.826-10.134-16.826-20.153 0-5.942 2.53-11.293 6.572-15.035l188.173-188.172h-604.8c-0.287 0.014-0.622 0.023-0.96 0.023s-0.673-0.008-1.007-0.024c-10.855-0.525-19.495-9.493-19.495-20.478 0-11.323 9.179-20.502 20.502-20.502 0.338 0 0.673 0.008 1.007 0.024l604.753-0.002-188.16-188.16c-4.67-3.785-7.63-9.521-7.63-15.948 0-11.312 9.17-20.482 20.482-20.482 6.427 0 12.163 2.96 15.918 7.592l223.39 222.758 14.080 14.72-14.080 14.72-223.36 222.72c-3.746 3.987-9.053 6.471-14.94 6.471-0.598 0-1.191-0.026-1.776-0.076-0.21 0.020-0.546 0.028-0.884 0.028s-0.673-0.008-1.007-0.024z" />
<glyph unicode="&#xe90a;" glyph-name="triangle-down" d="M764.67 666.819l-252.67-437.637-252.67 437.637z" />
<glyph unicode="&#xe90b;" glyph-name="splitter" horiz-adv-x="256" d="M127.994 676.038c-5.542 0-11.072 2.24-15.117 6.17-3.942 4.045-6.17 9.472-6.17 15.117s2.24 11.072 6.17 15.014c8.090 7.987 22.246 7.987 30.131 0 4.045-3.942 6.285-9.37 6.285-15.014s-2.24-11.072-6.285-15.014c-3.942-4.045-9.382-6.272-15.014-6.272zM127.994 550.944c-5.542 0-11.072 2.24-15.117 6.17-3.942 4.045-6.17 9.472-6.17 15.117s2.24 11.072 6.17 15.014c8.090 7.987 22.246 7.872 30.131 0 4.045-3.942 6.285-9.37 6.285-15.014s-2.24-11.072-6.285-15.014c-3.942-4.032-9.382-6.272-15.014-6.272zM127.994 425.862c-5.542 0-11.072 2.24-15.117 6.285-3.942 3.942-6.17 9.37-6.17 15.014s2.24 11.072 6.17 15.014c8.090 7.987 22.246 7.987 30.131 0 4.045-3.942 6.285-9.37 6.285-15.014s-2.24-11.072-6.285-15.014c-3.942-4.058-9.382-6.285-15.014-6.285zM127.994 300.768c-5.542 0-11.072 2.24-15.117 6.17-3.942 4.045-6.17 9.574-6.17 15.117 0 5.645 2.24 11.072 6.17 15.014 8.090 7.987 22.246 7.987 30.131 0 4.045-3.942 6.285-9.37 6.285-15.014s-2.24-11.072-6.17-15.117c-4.058-3.942-9.498-6.17-15.13-6.17zM127.994 175.674c-5.542 0-11.072 2.24-15.117 6.17-3.942 4.045-6.17 9.472-6.17 15.117 0 5.542 2.24 11.072 6.17 15.014 8.090 7.987 22.246 7.987 30.131 0 4.045-3.942 6.285-9.472 6.285-15.014 0-5.645-2.24-11.072-6.17-15.117-4.058-3.93-9.498-6.17-15.13-6.17z" />
<glyph unicode="&#xe90c;" glyph-name="parent" d="M696.32 448c0-101.797-82.523-184.32-184.32-184.32s-184.32 82.523-184.32 184.32c0 101.797 82.523 184.32 184.32 184.32s184.32-82.523 184.32-184.32zM512 88.32c-198.336 0-359.68 161.344-359.68 359.68s161.344 359.68 359.68 359.68 359.68-161.344 359.68-359.68-161.344-359.68-359.68-359.68zM512 743.68c-163.040 0-295.68-132.64-295.68-295.68s132.64-295.68 295.68-295.68c163.040 0 295.68 132.64 295.68 295.68s-132.64 295.68-295.68 295.68z" />
<glyph unicode="&#xe90d;" glyph-name="child" d="M716.8 448c0-113.108-91.692-204.8-204.8-204.8s-204.8 91.692-204.8 204.8c0 113.108 91.692 204.8 204.8 204.8s204.8-91.692 204.8-204.8z" />
<glyph unicode="&#xe90e;" glyph-name="image" horiz-adv-x="960" d="M320 608c0-26.666-9.334-49.334-28-68s-41.334-28-68-28-49.334 9.334-68 28-28 41.334-28 68 9.334 49.334 28 68 41.334 28 68 28 49.334-9.334 68-28 28-41.334 28-68zM832 416v-224h-704v96l160 160 80-80 256 256 208-208zM880 768h-800c-4.334 0-8.084-1.583-11.25-4.75s-4.75-6.917-4.75-11.25v-608c0-4.333 1.584-8.083 4.75-11.25s6.916-4.75 11.25-4.75h800c4.333 0 8.083 1.583 11.25 4.75s4.75 6.917 4.75 11.25v608c0 4.333-1.583 8.084-4.75 11.25s-6.917 4.75-11.25 4.75zM960 752v-608c0-22-7.833-40.833-23.5-56.5s-34.5-23.5-56.5-23.5h-800c-22 0-40.834 7.833-56.5 23.5s-23.5 34.5-23.5 56.5v608c0 22 7.833 40.834 23.5 56.5s34.5 23.5 56.5 23.5h800c22 0 40.833-7.833 56.5-23.5s23.5-34.5 23.5-56.5z" />
<glyph unicode="&#xe90f;" glyph-name="Settings" d="M1019.904 536.064l-145.408 24.576c-6.144 22.528-16.384 45.056-28.672 69.632l75.776 104.448 10.24 14.336c2.048 2.048 2.048 6.144 0 8.192l-108.544 108.544c-2.048 2.048-6.144 2.048-8.192 0l-120.832-88.064c-22.528 10.24-45.056 20.48-71.68 28.672l-22.528 129.024-4.096 16.384c0 2.048-4.096 4.096-6.144 4.096h-155.648c-4.096 0-6.144-2.048-6.144-4.096l-24.576-143.36c-26.624-8.192-51.2-18.432-71.68-28.672l-106.496 77.824-14.336 10.24c-2.048 2.048-6.144 2.048-8.192 0l-110.592-110.592c-2.048-2.048-2.048-6.144 0-8.192l86.016-120.832c-10.24-22.528-20.48-45.056-28.672-71.68l-126.976-22.528-16.384-2.048c-2.048 0-4.096-4.096-4.096-6.144v-155.648c0-4.096 2.048-6.144 4.096-6.144l145.408-26.624c6.144-24.576 16.384-49.152 28.672-71.68l-75.776-104.448-10.24-14.336c-2.048-2.048-2.048-6.144 0-8.192l108.544-108.544c2.048-2.048 6.144-2.048 8.192 0l118.784 86.016c20.48-10.24 45.056-20.48 71.68-28.672l22.528-129.024 2.048-16.384c0-2.048 4.096-4.096 6.144-4.096h155.648c2.048 0 4.096 2.048 8.192 6.144l26.624 145.408c22.528 8.192 45.056 16.384 69.632 30.72l120.832-86.016c2.048-2.048 6.144-2.048 8.192 0l108.544 108.544c2.048 2.048 2.048 6.144 0 8.192l-88.064 120.832c12.288 20.48 20.48 45.056 28.672 69.632l131.072 22.528 16.384 4.096c2.048 0 4.096 4.096 4.096 6.144v155.648c2.048 4.096 0 6.144-2.048 6.144zM315.392 730.624l10.24-8.192c2.048-2.048 4.096-2.048 6.144 0l12.288 6.144c26.624 16.384 57.344 28.672 90.112 36.864l14.336 4.096c2.048 0 4.096 2.048 4.096 4.096l20.48 129.024h77.824l22.528-120.832v-12.288c0-2.048 2.048-4.096 4.096-4.096l14.336-4.096c30.72-6.144 61.44-20.48 90.112-36.864l12.288-6.144c2.048-2.048 4.096-2.048 6.144 0l110.592 81.92 55.296-55.296-71.68-100.352-8.192-10.24c0-2.048-2.048-4.096 0-6.144l6.144-12.288c16.384-26.624 28.672-57.344 36.864-90.112l4.096-12.288c0-2.048 2.048-4.096 4.096-4.096l135.168-24.576v-77.824l-122.88-22.528-14.336-2.048c-2.048 0-4.096-2.048-4.096-4.096l-4.096-12.288c-8.192-32.768-20.48-61.44-36.864-90.112l-6.144-12.288c-2.048-2.048-2.048-4.096 0-6.144l81.92-110.592-55.296-55.296-100.352 71.68-10.24 8.192c-2.048 2.048-4.096 2.048-6.144 0l-12.288-6.144c-28.672-16.384-59.392-28.672-90.112-36.864l-12.288-4.096c-2.048 0-4.096-2.048-4.096-4.096l-24.576-135.168h-79.872l-16.384 122.88-2.048 14.336c0 2.048-2.048 4.096-4.096 4.096l-14.336 4.096c-32.768 8.192-63.488 20.48-90.112 36.864l-10.24 6.144c-2.048 2.048-4.096 2.048-6.144 0l-112.64-79.872-55.296 55.296 79.872 110.592c0 2.048 2.048 4.096 0 6.144l-6.144 12.288c-18.432 28.672-30.72 59.392-38.912 90.112l-4.096 12.288c0 2.048-2.048 4.096-4.096 4.096l-133.12 24.576v79.872l120.832 20.48 14.336 2.048c2.048 0 4.096 2.048 4.096 4.096l4.096 12.288c8.192 32.768 20.48 63.488 36.864 92.16l6.144 12.288c2.048 2.048 2.048 4.096 0 6.144l-79.872 110.592 55.296 55.296 100.352-73.728zM512 259.584c102.4 0 188.416 86.016 188.416 188.416s-86.016 188.416-188.416 188.416-188.416-86.016-188.416-188.416 86.016-188.416 188.416-188.416zM512 583.168c75.776 0 135.168-61.44 135.168-135.168s-61.44-135.168-135.168-135.168-135.168 61.44-135.168 135.168 59.392 135.168 135.168 135.168z" />
<glyph unicode="&#xe910;" glyph-name="bell2" d="M933.888 261.632c-6.144 8.192-14.336 14.336-22.528 20.48l-6.144 4.096c-14.336 10.24-30.72 20.48-47.104 38.912-51.2 55.296-75.776 141.312-75.776 268.288 0 122.88-73.728 225.28-186.368 258.048 2.048 8.192 4.096 18.432 4.096 26.624 0 49.152-38.912 88.064-88.064 88.064s-88.064-38.912-88.064-88.064c0-10.24 2.048-18.432 4.096-26.624-110.592-34.816-184.32-133.12-184.32-260.096 0-124.928-24.576-212.992-75.776-268.288-16.384-16.384-32.768-28.672-47.104-38.912l-6.144-4.096c-8.192-6.144-16.384-12.288-22.528-20.48-6.144-6.144-14.336-18.432-14.336-34.816 0-28.672 16.384-55.296 45.056-73.728 22.528-14.336 53.248-26.624 94.208-34.816 43.008-8.192 98.304-14.336 169.984-18.432-4.096-14.336-6.144-26.624-6.144-38.912 0-71.68 57.344-126.976 126.976-126.976s126.976 57.344 131.072 126.976c0 14.336-2.048 26.624-6.144 38.912 71.68 4.096 126.976 10.24 169.984 18.432s73.728 20.48 94.208 34.816c28.672 18.432 45.056 45.056 45.056 73.728 6.144 18.432-4.096 30.72-8.192 36.864zM231.424 169.472c-32.768 8.192-61.44 18.432-77.824 28.672s-20.48 16.384-20.48 26.624c2.048 2.048 4.096 6.144 14.336 12.288l6.144 6.144c14.336 10.24 34.816 24.576 55.296 47.104 59.392 65.536 88.064 161.792 88.064 301.056 0 110.592 65.536 192.512 167.936 212.992 28.672-20.48 67.584-22.528 96.256 0 102.4-20.48 167.936-100.352 167.936-212.992 0-137.216 28.672-237.568 88.064-301.056 20.48-22.528 40.96-36.864 55.296-49.152l6.144-4.096c10.24-8.192 12.288-10.24 14.336-12.288 0-8.192-4.096-16.384-20.48-26.624-16.384-12.288-45.056-22.528-77.824-28.672-63.488-14.336-155.648-20.48-280.576-20.48s-221.184 8.192-282.624 20.48zM512 839.168c-20.48 0-34.816 16.384-34.816 34.816s14.336 34.816 34.816 34.816 34.816-14.336 34.816-34.816c0-20.48-14.336-34.816-34.816-34.816zM458.752 99.84c34.816 0 71.68 0 106.496 0h12.288c4.096-12.288 8.192-24.576 8.192-36.864 0-40.96-34.816-75.776-75.776-75.776s-75.776 34.816-75.776 75.776c0 14.336 2.048 26.624 8.192 36.864h16.384z" />
<glyph unicode="&#xe911;" glyph-name="globe" d="M491.745 427.745h-202.547c2.025-72.917 12.153-141.783 26.331-202.547 54.688 12.153 113.426 18.229 174.191 20.255v182.292zM526.178 954.368c273.439-8.102 492.19-230.904 492.19-506.368 0-279.515-226.853-506.368-506.368-506.368s-506.368 226.853-506.368 506.368 226.853 506.368 506.368 506.368c4.051 0 10.127 0 14.178 0zM746.955 680.929c16.204-64.815 26.331-135.707 28.357-212.675h202.547c-4.051 99.248-38.484 190.394-97.223 265.337-38.484-22.28-83.044-40.509-133.681-52.662zM143.364 162.408c38.484 22.28 83.044 38.484 133.681 52.662-16.204 64.815-26.331 135.707-28.357 212.675h-202.547c4.051-99.248 40.509-190.394 97.223-265.337zM746.955 215.071c50.637-14.178 95.197-30.382 133.681-52.662 56.713 72.917 91.146 164.063 97.223 263.311h-202.547c-2.025-74.942-12.153-145.834-28.357-210.649zM46.141 468.255h202.547c2.025 76.968 10.127 147.859 28.357 212.675-50.637 12.153-95.197 30.382-133.681 50.637-56.713-72.917-93.172-164.063-97.223-263.311zM532.255 650.547v-182.292h202.547c-2.025 72.917-12.153 141.783-26.331 202.547-56.713-12.153-113.426-18.229-176.216-20.255zM532.255 245.453c60.764-2.025 119.503-8.102 174.191-20.255 16.204 60.764 26.331 129.63 26.331 202.547h-200.522v-182.292zM289.198 468.255h202.547v182.292c-60.764 2.025-119.503 8.102-174.191 20.255-16.204-60.764-26.331-129.63-28.357-202.547zM702.394 800.432c12.153-24.306 24.306-52.662 32.408-81.019 44.56 12.153 85.070 28.357 119.503 46.586-58.739 60.764-133.681 107.35-218.751 131.656 24.306-26.331 46.586-58.739 66.841-97.223zM169.695 132.026c58.739-62.79 133.681-109.375 218.751-133.681-26.331 26.331-48.611 58.739-66.841 97.223-12.153 24.306-24.306 52.662-32.408 81.019-44.56-12.153-85.070-26.331-119.503-44.56zM169.695 763.974c34.433-18.229 74.942-32.408 119.503-44.56 10.127 28.357 20.255 56.713 32.408 81.019 18.229 38.484 42.535 70.892 66.841 97.223-85.070-24.306-160.012-70.892-218.751-133.681zM702.394 95.568c-18.229-38.484-42.535-70.892-66.841-97.223 85.070 22.28 162.038 70.892 218.751 133.681-34.433 18.229-74.942 32.408-119.503 44.56-10.127-28.357-20.255-56.713-32.408-81.019zM358.064 782.203c-10.127-22.28-20.255-46.586-30.382-72.917 50.637-10.127 105.325-16.204 164.063-18.229v220.776c0 0 0 0 0 0-48.611-10.127-97.223-54.688-133.681-129.63zM532.255 691.057c58.739 2.025 113.426 8.102 164.063 18.229-8.102 26.331-18.229 50.637-30.382 72.917-36.458 74.942-85.070 119.503-133.681 129.63v-220.776zM327.682 186.714c8.102-26.331 18.229-50.637 30.382-72.917 36.458-74.942 85.070-119.503 133.681-129.63v220.776c-58.739-2.025-113.426-8.102-164.063-18.229zM532.255-15.833c48.611 10.127 97.223 54.688 133.681 129.63 10.127 22.28 20.255 46.586 30.382 72.917-50.637 10.127-105.325 16.204-164.063 18.229v-220.776zM512-64.444c-281.541 0-512.444 230.904-512.444 512.444s230.904 512.444 512.444 512.444c4.051 0 10.127 0 14.178 0 279.515-8.102 498.266-232.929 498.266-512.444 0-281.541-230.904-512.444-512.444-512.444zM512 948.292c-275.464 0-500.292-224.827-500.292-500.292s224.827-500.292 500.292-500.292c275.464 0 500.292 224.827 500.292 500.292 0 273.439-212.675 492.19-486.113 500.292 0 0 0 0 0 0-4.051 0-10.127 0-14.178 0zM532.255-21.91c-2.025 0-2.025 0-4.051 2.025s-2.025 2.025-2.025 4.051v220.776c0 2.025 0 4.051 2.025 4.051 2.025 2.025 2.025 2.025 4.051 2.025 56.713-2.025 111.401-8.102 164.063-18.229 2.025 0 4.051-2.025 4.051-2.025 0-2.025 0-4.051 0-4.051-8.102-26.331-18.229-50.637-30.382-72.917-36.458-78.993-85.070-125.579-137.732-135.707 0 0 0 0 0 0zM538.331 198.867v-206.598c44.56 12.153 89.121 56.713 121.528 123.554 10.127 20.255 20.255 42.535 26.331 64.815-46.586 10.127-97.223 16.204-147.859 18.229zM491.745-21.91c0 0 0 0 0 0-52.662 10.127-101.274 56.713-139.758 131.656-10.127 22.28-20.255 46.586-30.382 74.942 0 2.025 0 4.051 0 4.051s2.025 2.025 4.051 2.025c50.637 10.127 105.325 16.204 164.063 18.229 2.025 0 4.051 0 4.051-2.025 2.025-2.025 2.025-2.025 2.025-4.051v-220.776c0-2.025 0-4.051-2.025-4.051 0 0 0 0-2.025 0zM335.784 182.663c8.102-24.306 18.229-46.586 26.331-66.841 34.433-68.866 76.968-111.401 121.528-123.554v206.598c-50.637-2.025-101.274-8.102-147.859-16.204zM635.554-7.731c-2.025 0-4.051 2.025-4.051 2.025-2.025 2.025 0 6.076 0 6.076 24.306 24.306 46.586 56.713 66.841 95.197v0c12.153 24.306 22.28 50.637 32.408 81.019 0 2.025 4.051 4.051 6.076 4.051 44.56-12.153 85.070-26.331 121.528-44.56 2.025 0 2.025-2.025 4.051-4.051 0-2.025 0-4.051-2.025-4.051-62.79-64.815-139.758-111.401-224.827-135.707 0 0 0 0 0 0zM706.445 93.542c-16.204-32.408-34.433-58.739-52.662-83.044 72.917 24.306 137.732 64.815 190.394 119.503-30.382 14.178-66.841 28.357-105.325 38.484-10.127-26.331-20.255-52.662-32.408-74.942v0zM388.446-7.731c0 0 0 0 0 0-87.095 24.306-164.063 70.892-224.827 135.707-2.025 2.025-2.025 4.051-2.025 4.051 0 2.025 2.025 4.051 4.051 4.051 34.433 18.229 76.968 34.433 121.528 46.586 2.025 0 6.076 0 6.076-4.051 10.127-30.382 20.255-56.713 32.408-81.019 20.255-38.484 42.535-70.892 66.841-95.197 2.025-2.025 2.025-4.051 0-6.076 0-2.025-2.025-4.051-4.051-4.051zM179.823 130.001c52.662-54.688 117.477-95.197 190.394-119.503-20.255 22.28-38.484 50.637-52.662 83.044-12.153 22.28-22.28 48.611-32.408 76.968-38.484-12.153-74.942-24.306-105.325-40.509zM143.364 156.332c-2.025 0-4.051 0-4.051 2.025-60.764 78.993-95.197 170.14-99.248 269.388 0 2.025 0 4.051 2.025 4.051 2.025 2.025 4.051 2.025 4.051 2.025h202.547c4.051 0 6.076-2.025 6.076-6.076 2.025-76.968 10.127-147.859 28.357-210.649 0-4.051-2.025-6.076-4.051-8.102-50.637-14.178-95.197-30.382-133.681-52.662 0 2.025-2.025 0-2.025 0zM52.218 421.669c6.076-91.146 36.458-178.242 91.146-251.159 36.458 20.255 78.993 36.458 125.579 48.611-16.204 60.764-24.306 129.63-26.331 202.547h-190.394zM880.636 158.358c0 0-2.025 0-2.025 0-40.509 20.255-85.070 38.484-133.681 50.637-4.051 0-4.051 4.051-4.051 8.102 16.204 62.79 26.331 133.681 28.357 210.649 0 4.051 2.025 6.076 6.076 6.076h202.547c2.025 0 4.051 0 4.051-2.025 2.025-2.025 2.025-2.025 2.025-4.051-4.051-97.223-38.484-190.394-97.223-267.362-2.025-2.025-4.051-2.025-6.076-2.025zM753.031 219.122c44.56-12.153 87.095-28.357 125.579-48.611 54.688 72.917 87.095 160.012 91.146 251.159h-190.394c0-72.917-10.127-141.783-26.331-202.547zM706.445 219.122c0 0 0 0 0 0-56.713 12.153-113.426 18.229-174.191 20.255-4.051 0-6.076 2.025-6.076 6.076v182.292c0 4.051 2.025 6.076 6.076 6.076h202.547c2.025 0 4.051 0 4.051-2.025 2.025-2.025 2.025-2.025 2.025-4.051-2.025-72.917-10.127-141.783-28.357-204.573 0-2.025-2.025-4.051-6.076-4.051zM538.331 251.529c56.713-2.025 113.426-8.102 164.063-18.229 14.178 58.739 24.306 121.528 26.331 190.394h-190.394v-172.165zM317.555 219.122c-2.025 0-4.051 2.025-6.076 4.051-16.204 62.79-26.331 131.656-28.357 204.573 0 2.025 0 4.051 2.025 4.051 2.025 2.025 2.025 2.025 4.051 2.025h202.547c4.051 0 6.076-2.025 6.076-6.076v-182.292c0-4.051-2.025-6.076-6.076-6.076-60.764-2.025-117.477-8.102-174.191-20.255 0 0 0 0 0 0zM295.274 421.669c2.025-66.841 10.127-131.656 26.331-190.394 52.662 10.127 107.35 16.204 164.063 18.229v172.165h-190.394zM977.859 462.178h-202.547c-4.051 0-6.076 2.025-6.076 6.076-2.025 76.968-10.127 147.859-28.357 210.649 0 4.051 2.025 6.076 4.051 8.102 50.637 14.178 95.197 30.382 133.681 52.662 2.025 2.025 6.076 0 8.102-2.025 58.739-76.968 93.172-170.14 97.223-267.362 0-2.025 0-4.051-2.025-4.051-2.025-4.051-4.051-4.051-4.051-4.051zM781.388 474.331h190.394c-6.076 91.146-36.458 178.242-91.146 251.159-36.458-20.255-78.993-36.458-125.579-48.611 14.178-60.764 24.306-129.63 26.331-202.547zM734.802 462.178h-202.547c-4.051 0-6.076 2.025-6.076 6.076v182.292c0 4.051 2.025 6.076 6.076 6.076 60.764 2.025 119.503 8.102 174.191 20.255 2.025 0 6.076-2.025 6.076-4.051 16.204-62.79 26.331-131.656 28.357-204.573 0-2.025 0-4.051-2.025-4.051-2.025-2.025-4.051-2.025-4.051-2.025zM538.331 474.331h190.394c-2.025 66.841-10.127 131.656-26.331 190.394-52.662-10.127-107.35-16.204-164.063-18.229v-172.165zM491.745 462.178h-202.547c-2.025 0-4.051 0-4.051 2.025-2.025 2.025-2.025 2.025-2.025 4.051 2.025 72.917 10.127 141.783 28.357 204.573 0 2.025 4.051 4.051 6.076 4.051 54.688-12.153 113.426-18.229 174.191-20.255 4.051 0 6.076-2.025 6.076-6.076v-182.292c0-4.051-2.025-6.076-6.076-6.076zM295.274 474.331h190.394v172.165c-56.713 2.025-113.426 8.102-164.063 18.229-16.204-58.739-24.306-123.554-26.331-190.394zM248.689 462.178h-202.547c-2.025 0-4.051 0-4.051 2.025-2.025 2.025-2.025 2.025-2.025 4.051 4.051 97.223 38.484 190.394 97.223 267.362 2.025 2.025 4.051 2.025 8.102 2.025 40.509-20.255 85.070-38.484 133.681-50.637 4.051 0 4.051-4.051 4.051-8.102-16.204-62.79-26.331-133.681-28.357-210.649 0-4.051-2.025-6.076-6.076-6.076zM52.218 474.331h190.394c2.025 72.917 10.127 141.783 26.331 202.547-44.56 12.153-87.095 28.357-125.579 48.611-54.688-72.917-85.070-160.012-91.146-251.159zM532.255 684.98c-2.025 0-2.025 0-4.051 2.025s-2.025 2.025-2.025 4.051v220.776c0 2.025 0 4.051 2.025 4.051 2.025 2.025 4.051 2.025 4.051 2.025 50.637-10.127 99.248-56.713 137.732-131.656 10.127-22.28 20.255-46.586 30.382-74.942 0-2.025 0-4.051 0-4.051 0-2.025-2.025-2.025-4.051-2.025-50.637-12.153-105.325-18.229-164.063-20.255 0 0 0 0 0 0zM538.331 903.731v-206.598c52.662 2.025 103.299 6.076 149.885 16.204-8.102 24.306-18.229 46.586-28.357 66.841-32.408 68.866-76.968 111.401-121.528 123.554zM491.745 684.98c0 0 0 0 0 0-56.713 2.025-111.401 8.102-164.063 18.229-2.025 0-4.051 2.025-4.051 2.025 0 2.025 0 4.051 0 4.051 8.102 26.331 18.229 50.637 30.382 72.917 36.458 74.942 85.070 121.528 137.732 131.656 0 0 2.025 0 2.025 0 2.025 0 2.025 0 4.051-2.025s2.025-2.025 2.025-4.051v-216.726c0-2.025 0-4.051-2.025-4.051-4.051 0-4.051-2.025-6.076-2.025zM335.784 715.362c48.611-10.127 99.248-16.204 149.885-16.204v206.598c-44.56-12.153-87.095-56.713-121.528-125.579-10.127-20.255-20.255-42.535-28.357-64.815zM734.802 713.337c-2.025 0-4.051 2.025-6.076 4.051-10.127 30.382-20.255 56.713-32.408 81.019v0c-20.255 38.484-42.535 70.892-66.841 95.197-2.025 2.025-2.025 4.051 0 6.076s4.051 4.051 6.076 2.025c85.070-24.306 162.038-68.866 222.802-133.681 2.025-2.025 2.025-4.051 2.025-4.051 0-2.025-2.025-4.051-4.051-4.051-34.433-20.255-74.942-34.433-121.528-46.586 0 0 0 0 0 0zM706.445 802.458c12.153-22.28 22.28-48.611 32.408-76.968 38.484 10.127 74.942 24.306 105.325 40.509-52.662 54.688-117.477 95.197-190.394 119.503 20.255-22.28 36.458-50.637 52.662-83.044v0zM289.198 713.337c0 0 0 0 0 0-46.586 12.153-87.095 26.331-121.528 44.56-2.025 0-2.025 2.025-4.051 4.051 0 2.025 0 4.051 2.025 4.051 60.764 64.815 137.732 111.401 222.802 135.707 2.025 0 6.076 0 6.076-2.025 2.025-2.025 0-6.076 0-6.076-24.306-24.306-46.586-56.713-66.841-95.197-12.153-24.306-22.28-50.637-32.408-81.019-2.025-2.025-4.051-4.051-6.076-4.051zM179.823 765.999c30.382-14.178 66.841-28.357 105.325-38.484 10.127 28.357 20.255 52.662 32.408 76.968 16.204 32.408 34.433 60.764 52.662 83.044-72.917-24.306-137.732-66.841-190.394-121.528z" />
<glyph unicode="&#xe912;" glyph-name="expand-right" d="M943.759 462.539c-0.6 2.553-2.457 4.917-4.581 6.544l-281.391 216.278c-4.1 3.167-9.948 3.113-14.070 0-4.122-3.102-5.825-8.293-3.926-13.088l56.605-143.313h-331.779c-6.346 0-11.452-5.434-11.452-11.779v-114.847c0-6.346 5.106-11.452 11.452-11.452h331.779l-56.605-142.986c-1.887-4.805-0.195-10.64 3.926-13.742 2.050-1.551 4.758-2.29 7.198-2.29 2.473 0 4.483 0.707 6.544 2.29l281.718 216.605c2.831 2.169 4.581 5.593 4.581 9.162 0 0.892 0.2 1.767 0 2.618zM289.69 757.999c0 11.975-9.947 21.595-21.922 21.595h-146.258c-11.975 0-21.595-9.62-21.595-21.595v-596.155c0-11.975 9.609-21.606 21.595-21.595h146.258c11.975 0 21.922 9.62 21.922 21.595v596.155z" />
<glyph unicode="&#xe913;" glyph-name="minus" d="M819.2 460.8c0-28.314-2.458-51.2-30.771-51.2h-552.858c-28.262 0-30.771 22.886-30.771 51.2s2.509 51.2 30.771 51.2h552.909c28.262 0 30.72-22.886 30.72-51.2z" />
<glyph unicode="&#xe914;" glyph-name="sticky-note-o2" horiz-adv-x="1272" d="M1093.955 223.937h-179.683v-144.557c13.949 3.93 23.966 8.115 29.673 12.807l134.031 107.911c5.832 4.692 11.159 12.68 15.977 23.839zM891.068 298.752h208.719v522.561h-927.576v-746.499h649.24v167.889c0 15.471 6.721 28.784 20.289 39.69 13.569 10.778 30.052 16.358 49.328 16.358v0zM1192.482 839.953v-597.249c0-15.471-4.819-32.715-14.455-51.357s-21.303-33.477-34.744-44.255l-133.399-107.403c-13.569-10.905-31.829-20.162-55.033-28.023-23.205-7.735-44.382-11.666-63.783-11.666h-741.934c-19.274 0-35.759 5.453-49.328 16.358-13.569 10.778-20.289 23.966-20.289 39.563v784.033c0 15.471 6.721 28.784 20.289 39.69s29.925 16.358 49.328 16.358h973.86c19.274 0 35.759-5.453 49.328-16.358s20.162-24.22 20.162-39.69v0zM797.612 509.5c0 47.172 38.169 85.339 85.339 85.339s85.339-38.169 85.339-85.339c0-47.045-38.169-85.212-85.339-85.212-47.045-0.127-85.339 38.169-85.339 85.212zM546.539 509.5c0 47.172 38.169 85.339 85.339 85.339s85.339-38.169 85.339-85.339c0-47.045-38.169-85.212-85.339-85.212-47.045-0.127-85.339 38.169-85.339 85.212zM295.594 509.5c0 47.172 38.169 85.339 85.339 85.339s85.339-38.169 85.339-85.339c0-47.045-38.169-85.212-85.339-85.212-47.172-0.127-85.339 38.169-85.339 85.212z" />
<glyph unicode="&#xe915;" glyph-name="pane-mobile-trigger" d="M512-64c-281.6 0-512 230.4-512 512s230.4 512 512 512c281.6 0 512-230.4 512-512s-230.4-512-512-512zM512 874.667c-234.667 0-426.667-192-426.667-426.667s192-426.667 426.667-426.667c234.667 0 426.667 192 426.667 426.667s-192 426.667-426.667 426.667zM512 277.333c-12.8 0-21.333 4.267-29.867 12.8l-213.333 213.333c-17.067 17.067-17.067 42.667 0 59.733s42.667 17.067 59.733 0l183.467-183.467 183.467 183.467c17.067 17.067 42.667 17.067 59.733 0s17.067-42.667 0-59.733l-213.333-213.333c-8.533-8.533-17.067-12.8-29.867-12.8z" />
<glyph unicode="&#xe916;" glyph-name="trolley" d="M491.111 423.596l98.748-248.768 353.212 140.525-98.748 246.868-332.324-132.929-20.889-5.697zM225.253 879.353l319.030-807.071 408.282 159.515c9.495 3.798 20.889-1.899 24.687-11.394s-1.899-20.889-11.394-24.687l-425.374-167.112c-3.798-1.899-9.495-1.899-15.192 0-3.798 1.899-7.596 5.697-9.495 11.394l-320.929 810.869c-43.677-1.899-74.060-17.091-93.050-32.283-20.889-17.091-28.485-30.384-28.485-30.384-3.798-9.495-15.192-13.293-24.687-9.495s-13.293 15.192-9.495 24.687c0 0 11.394 22.788 37.979 43.677s70.262 43.677 131.031 43.677c7.596 0 15.192-3.798 17.091-11.394zM741.778 890.747c7.596 0 17.091-3.798 18.99-11.394l110.141-279.151c0-1.899 1.899-1.899 1.899-3.798 0 0 0 0 0 0l112.041-281.051c1.899-3.798 1.899-9.495 0-15.192-1.899-3.798-5.697-7.596-11.394-9.495l-387.394-153.818c-3.798-1.899-9.495-1.899-15.192 0-3.798 1.899-7.596 5.697-9.495 11.394l-53.172 136.727-56.97 142.424c0 1.899-1.899 1.899-1.899 3.798s0 1.899-1.899 3.798l-110.141 275.353c-3.798 9.495 1.899 20.889 11.394 24.687l387.394 155.717c0 0 1.899 0 5.697 0-1.899 0-1.899 0 0 0zM379.071 706.545l49.373-125.333 47.475-121.535 353.212 140.525-98.748 246.868-351.313-140.525zM493.010 36.202c0-51.273-43.677-94.95-94.95-94.95s-94.95 43.677-94.95 94.95 43.677 94.95 94.95 94.95 94.95-43.677 94.95-94.95zM667.717 755.919c1.899-9.495-3.798-20.889-13.293-22.788l-140.525-55.071c-5.697-3.798-15.192-3.798-20.889 1.899s-9.495 11.394-7.596 18.99c1.899 7.596 7.596 13.293 15.192 15.192l140.525 56.97c1.899 0 1.899 0 3.798 1.899 0 0 1.899 0 1.899 0 9.495 0 18.99-5.697 20.889-17.091zM781.657 474.869c1.899-9.495-5.697-20.889-15.192-22.788l-140.525-56.97c-9.495-3.798-20.889 0-24.687 11.394s0 20.889 11.394 24.687l140.525 55.071c1.899 0 3.798 1.899 5.697 1.899 0 0 1.899 0 1.899 0 9.495 3.798 18.99-3.798 20.889-13.293v0zM341.091 36.202c0-32.283 24.687-56.97 56.97-56.97s56.97 24.687 56.97 56.97-24.687 56.97-56.97 56.97-56.97-24.687-56.97-56.97zM398.061-64.444c-55.071 0-100.646 45.575-100.646 100.646s45.575 100.646 100.646 100.646 100.646-45.575 100.646-100.646c0-55.071-45.575-100.646-100.646-100.646zM398.061 125.455c-49.373 0-89.252-39.879-89.252-89.252s39.879-89.252 89.252-89.252c49.373 0 89.252 39.879 89.252 89.252s-39.879 89.252-89.252 89.252zM398.061-26.465c-34.181 0-62.667 28.485-62.667 62.667s28.485 62.667 62.667 62.667c34.181 0 62.667-28.485 62.667-62.667s-28.485-62.667-62.667-62.667zM398.061 87.474c-28.485 0-51.273-22.788-51.273-51.273s22.788-51.273 51.273-51.273c28.485 0 51.273 22.788 51.273 51.273s-22.788 51.273-51.273 51.273zM532.889 22.909c-3.798 0-5.697 0-9.495 1.899-5.697 1.899-11.394 7.596-13.293 13.293l-317.131 807.071c-47.475-3.798-75.96-20.889-87.354-30.384-18.99-15.192-26.586-28.485-26.586-30.384-3.798-5.697-7.596-9.495-15.192-11.394-5.697-1.899-13.293-1.899-18.99 1.899-5.697 1.899-9.495 5.697-11.394 13.293s-1.899 13.293 1.899 18.99c0 1.899 13.293 24.687 39.879 45.575 22.788 18.99 66.465 43.677 132.929 43.677 9.495 0 18.99-5.697 22.788-15.192 0 0 0 0 0 0l315.232-803.273 402.586 157.616c13.293 5.697 26.586-1.899 32.283-13.293 5.697-13.293-1.899-26.586-13.293-32.283l-425.374-165.212c-1.899-1.899-5.697-1.899-9.495-1.899zM194.869 856.566c1.899 0 3.798-1.899 5.697-3.798l319.030-810.869c1.899-3.798 3.798-5.697 7.596-7.596s7.596-1.899 11.394 0l425.374 167.112c3.798 1.899 5.697 3.798 7.596 7.596s1.899 7.596 0 9.495c-1.899 7.596-11.394 11.394-17.091 7.596l-408.282-159.515c-1.899-1.899-5.697 0-7.596 3.798l-317.131 807.071c-1.899 3.798-7.596 7.596-13.293 7.596 0 0 0 0 0 0-62.667 0-104.444-22.788-127.233-41.777-24.687-18.99-36.081-41.777-36.081-41.777-3.798-5.697 0-15.192 5.697-18.99 3.798-1.899 7.596-1.899 9.495 0 3.798 1.899 5.697 3.798 7.596 7.596 0 0 7.596 15.192 28.485 34.181 15.192 9.495 45.575 28.485 98.748 32.283 0 0 0 0 0 0zM580.364 129.253c-3.798 0-5.697 0-9.495 1.899-5.697 1.899-11.394 7.596-13.293 13.293l-110.141 279.151c0 0-1.899 1.899-1.899 3.798s-1.899 1.899-1.899 3.798l-112.041 277.253c-3.798 11.394 1.899 26.586 13.293 30.384l387.394 155.717c1.899 0 1.899 1.899 3.798 1.899s1.899 0 3.798 0c9.495 0 20.889-5.697 24.687-15.192l110.141-279.151c0 0 0-1.899 1.899-1.899 0 0 0-1.899 1.899-1.899l112.041-281.051c1.899-5.697 1.899-13.293 0-18.99s-7.596-11.394-13.293-13.293l-389.293-155.717c-1.899 0-5.697 0-7.596 0zM739.879 885.051v0c-1.899 0-1.899 0-1.899 0l-387.394-155.717c-7.596-1.899-9.495-11.394-7.596-17.091l112.041-279.151c0-1.899 0-1.899 1.899-3.798 0-1.899 0-1.899 1.899-3.798l110.141-279.151c1.899-3.798 3.798-5.697 7.596-7.596s7.596-1.899 11.394 0l387.394 153.818c3.798 1.899 5.697 3.798 7.596 7.596s1.899 7.596 0 9.495l-112.041 281.051c0 0 0 1.899-1.899 1.899 0 0 0 1.899-1.899 1.899l-112.041 282.949c-1.899 5.697-7.596 7.596-15.192 7.596 1.899 0 1.899 0 0 0zM589.858 171.030c-1.899 0-3.798 1.899-5.697 3.798l-98.748 246.868c0 1.899 0 3.798 0 3.798 0 1.899 1.899 1.899 3.798 3.798l20.889 7.596 332.324 132.929c1.899 0 3.798 0 3.798 0 1.899 0 1.899-1.899 3.798-3.798l98.748-246.868c1.899-1.899 0-5.697-3.798-7.596l-353.212-140.525c0 1.899 0 0-1.899 0zM498.707 421.697l94.95-237.374 341.818 136.727-93.050 237.374-343.717-136.727zM618.343 389.414c-3.798 0-5.697 0-9.495 1.899-5.697 1.899-11.394 7.596-13.293 13.293-5.697 13.293 1.899 26.586 13.293 32.283l140.525 55.071c1.899 0 3.798 1.899 5.697 1.899 0 0 1.899 0 1.899 0 13.293 1.899 26.586-5.697 28.485-18.99v0c1.899-13.293-5.697-26.586-18.99-28.485l-140.525-56.97c0 0-3.798 0-7.596 0zM764.566 484.364c0 0-1.899 0-1.899 0s-1.899 0-1.899 0-1.899 0-3.798-1.899l-142.424-56.97c-7.596-1.899-11.394-9.495-7.596-17.091 1.899-3.798 3.798-5.697 7.596-7.596s7.596-1.899 11.394 0l140.525 56.97c7.596 1.899 13.293 9.495 11.394 15.192-1.899 7.596-7.596 11.394-13.293 11.394zM477.819 453.979c0 0-1.899 0-1.899 0-1.899 0-1.899 1.899-3.798 3.798l-98.748 246.868c0 1.899 0 3.798 0 3.798 0 1.899 1.899 1.899 3.798 3.798l353.212 140.525c1.899 1.899 5.697 0 7.596-3.798l98.748-246.868c1.899-1.899 0-5.697-3.798-7.596l-47.475-18.99-305.737-121.535c0 0-1.899 0-1.899 0zM386.667 704.647l93.050-237.374 343.717 136.727-94.95 237.374-341.818-136.727zM504.404 670.464c-5.697 0-9.495 1.899-15.192 3.798-7.596 5.697-11.394 15.192-9.495 24.687s9.495 17.091 18.99 18.99l140.525 56.97c0 0 1.899 0 3.798 1.899 0 0 1.899 0 3.798 0 13.293 1.899 26.586-5.697 28.485-18.99v0c3.798-13.293-5.697-26.586-18.99-28.485l-140.525-55.071c-3.798-3.798-7.596-3.798-11.394-3.798zM650.626 765.414c0 0-1.899 0-1.899 0s-1.899 0-1.899 0c0 0-1.899 0-1.899 0l-142.424-56.97c-5.697-1.899-9.495-5.697-11.394-11.394s1.899-11.394 5.697-13.293c3.798-3.798 9.495-3.798 15.192 0l142.424 56.97c5.697 0 9.495 7.596 9.495 15.192 0 0 0 0 0 0-1.899 5.697-7.596 9.495-13.293 9.495z" />
<glyph unicode="&#xe917;" glyph-name="megaphone" d="M797.592 907.782c4.051 4.051 10.127 6.076 16.204 6.076 8.102 0 16.204-4.051 20.255-8.102s8.102-10.127 12.153-18.229c4.051-14.178 10.127-32.408 14.178-62.79 8.102-48.611 14.178-129.63 16.204-255.209h10.127c50.637 0 91.146-42.535 91.146-93.172 0-2.025 0-6.076-2.025-8.102-4.051-46.586-42.535-81.019-89.121-81.019h-10.127c-2.025-113.426-6.076-188.369-12.153-234.955-4.051-30.382-8.102-48.611-14.178-62.79-2.025-6.076-6.076-12.153-10.127-18.229s-12.153-10.127-20.255-10.127h-4.051c-16.204 0-28.357 8.102-38.484 18.229s-18.229 22.28-26.331 36.458c-18.229 26.331-36.458 60.764-64.815 95.197-54.688 66.841-141.783 133.681-313.948 133.681 0 0 0 0 0 0-2.025 0-4.051 0-6.076 0h-16.204c0-62.79 2.025-117.477 6.076-155.961 2.025-22.28 4.051-38.484 6.076-50.637s8.102-18.229 4.051-14.178c24.306-20.255 44.56-44.56 44.56-81.019 0-16.204-4.051-34.433-16.204-46.586s-30.382-14.178-48.611-14.178h-66.841c-22.28 0-42.535 6.076-56.713 20.255-12.153 14.178-18.229 30.382-22.28 46.586-16.204 89.121-32.408 160.012-46.586 212.675s-32.408 83.044-38.484 89.121c-2.025 0-2.025 2.025-4.051 4.051-36.458 14.178-64.815 50.637-64.815 93.172v101.274c0 54.688 44.56 101.274 101.274 101.274h220.776c0 0 2.025 0 2.025 0 172.165 0 259.26 62.79 313.948 125.579 28.357 30.382 46.586 62.79 64.815 89.121 8.102 12.153 16.204 24.306 26.331 32.408 6.076 4.051 14.178 6.076 22.28 10.127v0zM803.668 867.273c-6.076-6.076-12.153-14.178-20.255-26.331-16.204-24.306-36.458-58.739-68.866-93.172-58.739-66.841-155.961-133.681-324.076-137.732v-222.802c172.165-4.051 269.388-76.968 328.126-147.859 30.382-36.458 50.637-72.917 66.841-99.248 8.102-12.153 16.204-22.28 20.255-28.357 2.025-4.051 4.051-2.025 4.051-4.051 4.051 8.102 8.102 24.306 10.127 50.637 10.127 54.688 16.204 155.961 16.204 330.152s-6.076 273.439-16.204 330.152c-4.051 28.357-8.102 44.56-12.153 52.662-2.025-2.025-2.025-2.025-4.051-4.051v0zM194.001 271.784c14.178-54.688 30.382-127.605 46.586-214.7 2.025-12.153 6.076-22.28 10.127-26.331s12.153-8.102 26.331-8.102h66.841c14.178 0 18.229 2.025 20.255 4.051s4.051 4.051 4.051 16.204c0 20.255-10.127 32.408-32.408 54.688-10.127 10.127-12.153 20.255-14.178 34.433s-6.076 32.408-8.102 54.688c-4.051 40.509-6.076 95.197-6.076 157.987h-139.758c10.127-18.229 16.204-42.535 26.331-72.917v0zM86.651 549.274v-101.274c0-34.433 26.331-60.764 60.764-60.764h178.242c2.025 0 2.025 0 4.051 0s2.025 0 4.051 0h16.204v222.802h-202.547c-34.433 0-60.764-26.331-60.764-60.764v0zM876.585 488.509c0-22.28 0-40.509 0-60.764h10.127c28.357 0 50.637 20.255 50.637 48.611s-22.28 52.662-50.637 52.662h-10.127c0-14.178 0-26.331 0-40.509zM345.911-23.935h-66.841c-24.306 0-46.586 8.102-60.764 22.28-16.204 16.204-20.255 36.458-24.306 50.637-14.178 76.968-30.382 155.961-44.56 210.649-14.178 52.662-32.408 83.044-36.458 85.070-2.025 0-2.025 2.025-4.051 4.051-40.509 16.204-68.866 56.713-68.866 99.248v101.274c0 58.739 48.611 107.35 107.35 107.35h220.776c0 0 2.025 0 2.025 0 180.267 0 263.311 70.892 309.897 123.554 22.28 24.306 38.484 50.637 52.662 72.917 4.051 6.076 8.102 10.127 10.127 16.204 8.102 12.153 16.204 24.306 26.331 34.433 6.076 4.051 12.153 6.076 18.229 10.127 2.025 0 4.051 2.025 4.051 2.025 4.051 4.051 12.153 8.102 18.229 8.102 8.102 0 18.229-4.051 24.306-10.127 4.051-4.051 8.102-10.127 12.153-18.229 6.076-14.178 12.153-34.433 16.204-64.815 8.102-54.688 14.178-137.732 14.178-251.159h4.051c52.662 0 97.223-44.56 97.223-99.248 0-4.051 0-6.076-2.025-10.127-4.051-48.611-46.586-85.070-95.197-85.070h-4.051c-2.025-101.274-6.076-180.267-12.153-228.878-4.051-30.382-8.102-50.637-14.178-64.815-4.051-8.102-8.102-14.178-12.153-20.255-6.076-6.076-14.178-10.127-24.306-10.127h2.025c-14.178 0-28.357 6.076-42.535 20.255-10.127 10.127-18.229 24.306-26.331 36.458-4.051 6.076-8.102 12.153-10.127 18.229-14.178 24.306-30.382 50.637-52.662 76.968-46.586 56.713-129.63 131.656-309.897 131.656-2.025 0-6.076 0-8.102 0h-10.127c0-62.79 2.025-113.426 6.076-149.885 2.025-20.255 4.051-38.484 6.076-48.611 2.025-6.076 2.025-10.127 4.051-12.153 0 0 0-2.025 0-2.025 22.28-22.28 44.56-48.611 44.56-85.070 0-22.28-6.076-38.484-18.229-50.637-12.153-14.178-30.382-20.255-52.662-20.255zM813.795 907.782c-4.051 0-8.102-2.025-10.127-4.051 0 0-2.025-2.025-2.025-2.025-2.025 0-4.051-2.025-6.076-2.025-6.076-2.025-10.127-4.051-14.178-6.076-10.127-8.102-18.229-20.255-26.331-32.408-4.051-4.051-6.076-10.127-10.127-16.204-14.178-22.28-32.408-48.611-54.688-72.917-48.611-54.688-133.681-127.605-317.999-127.605 0 0-2.025 0-2.025 0h-222.802c-52.662 0-95.197-42.535-95.197-95.197v-101.274c0-38.484 24.306-74.942 60.764-89.121 0 0 2.025 0 2.025-2.025 0 0 2.025-2.025 2.025-2.025 10.127-6.076 28.357-42.535 40.509-91.146 16.204-54.688 30.382-135.707 46.586-212.675 4.051-20.255 10.127-34.433 20.255-44.56 12.153-12.153 30.382-18.229 50.637-18.229h66.841c20.255 0 34.433 4.051 44.56 14.178 12.153 12.153 14.178 28.357 14.178 40.509 0 34.433-20.255 56.713-42.535 78.993v0c0 0 0 0 0 0-2.025 2.025-2.025 4.051-2.025 6.076-2.025 2.025-2.025 8.102-4.051 12.153-2.025 12.153-4.051 30.382-6.076 50.637-4.051 36.458-4.051 89.121-6.076 155.961 0 2.025 0 4.051 2.025 4.051 2.025 2.025 2.025 2.025 4.051 2.025h16.204c2.025 0 4.051 0 6.076 0 0 0 2.025 0 2.025 0 184.318 0 269.388-76.968 317.999-135.707 22.28-26.331 38.484-54.688 54.688-78.993 4.051-6.076 8.102-12.153 10.127-18.229 8.102-12.153 16.204-24.306 26.331-34.433s22.28-16.204 34.433-16.204h2.025c6.076 0 12.153 4.051 16.204 8.102s6.076 8.102 10.127 16.204c6.076 14.178 10.127 32.408 14.178 60.764 6.076 50.637 10.127 129.63 12.153 232.929 0 4.051 2.025 6.076 6.076 6.076h10.127c44.56 0 78.993 32.408 83.044 76.968 0 0 0 2.025 0 2.025 0 2.025 2.025 4.051 2.025 6.076 0 48.611-38.484 87.095-85.070 87.095h-8.102c-4.051 0-6.076 2.025-6.076 6.076-2.025 115.452-6.076 200.522-14.178 255.209-4.051 28.357-10.127 48.611-16.204 60.764-4.051 6.076-6.076 12.153-10.127 16.204-4.051 0-10.127 4.051-16.204 4.051zM345.911 16.574h-66.841c-14.178 0-24.306 2.025-30.382 10.127-6.076 6.076-10.127 16.204-12.153 28.357-18.229 91.146-32.408 162.038-46.586 214.7-8.102 32.408-16.204 54.688-24.306 72.917 0 2.025 0 4.051 0 6.076 2.025 2.025 2.025 2.025 4.051 2.025h141.783c4.051 0 6.076-2.025 6.076-6.076 0-66.841 2.025-119.503 6.076-157.987 2.025-22.28 4.051-40.509 8.102-54.688v-4.051c2.025-12.153 4.051-20.255 12.153-28.357 22.28-22.28 34.433-36.458 34.433-58.739 0-10.127-2.025-16.204-6.076-20.255-4.051 0-12.153-4.051-26.331-4.051zM177.797 340.65c8.102-18.229 14.178-38.484 22.28-66.841v0c14.178-54.688 30.382-125.579 46.586-216.726 2.025-14.178 6.076-20.255 10.127-22.28 4.051-4.051 8.102-6.076 22.28-6.076h66.841c14.178 0 16.204 2.025 16.204 2.025 2.025 2.025 2.025 8.102 2.025 12.153 0 18.229-8.102 28.357-30.382 50.637-10.127 10.127-14.178 22.28-16.204 34.433v4.051c-2.025 14.178-6.076 32.408-8.102 54.688-4.051 36.458-4.051 89.121-6.076 153.936h-125.579zM811.77 99.619c0 0-2.025 0-2.025 0-2.025 0-4.051 2.025-6.076 4.051-6.076 6.076-12.153 16.204-22.28 30.382-4.051 6.076-6.076 10.127-10.127 16.204-14.178 24.306-32.408 52.662-56.713 81.019-76.968 93.172-186.343 143.809-324.076 145.834-4.051 0-6.076 2.025-6.076 6.076v226.853c0 4.051 2.025 6.076 6.076 6.076 135.707 4.051 243.057 50.637 320.025 135.707 24.306 28.357 42.535 54.688 56.713 76.968 4.051 6.076 6.076 10.127 10.127 14.178 10.127 14.178 16.204 22.28 22.28 28.357v0c2.025 2.025 4.051 2.025 6.076 4.051 2.025 0 4.051 0 4.051 0 2.025 0 2.025-2.025 4.051-4.051 2.025-6.076 8.102-22.28 12.153-52.662 10.127-66.841 16.204-178.242 16.204-330.152 0-153.936-4.051-265.337-14.178-332.177-4.051-32.408-8.102-46.586-12.153-52.662 0 0 0-2.025-4.051-4.051 2.025 2.025 0 0 0 0zM396.548 393.312c139.758-4.051 249.133-54.688 328.126-149.885 24.306-30.382 42.535-58.739 56.713-83.044 4.051-6.076 8.102-12.153 10.127-16.204 8.102-12.153 14.178-20.255 18.229-26.331 2.025 8.102 6.076 20.255 8.102 42.535 8.102 64.815 12.153 176.216 12.153 330.152 0 149.885-6.076 263.311-16.204 330.152-4.051 22.28-6.076 36.458-10.127 42.535-4.051-4.051-10.127-12.153-18.229-22.28-4.051-4.051-6.076-10.127-10.127-14.178-14.178-22.28-34.433-50.637-58.739-78.993-76.968-87.095-186.343-133.681-322.050-139.758v-214.7zM349.962 381.159h-16.204c-4.051 0-4.051 0-6.076 0h-180.267c-36.458 0-66.841 30.382-66.841 66.841v101.274c0 36.458 30.382 66.841 66.841 66.841h202.547c4.051 0 6.076-2.025 6.076-6.076v-222.802c0-4.051-2.025-6.076-6.076-6.076zM329.708 393.312c2.025 0 4.051 0 6.076 0h10.127v210.649h-198.496c-30.382 0-54.688-24.306-54.688-54.688v-101.274c0-30.382 24.306-54.688 54.688-54.688h178.242c0 0 2.025 0 4.051 0 0 0 0 0 0 0zM886.712 421.669h-10.127c-2.025 0-4.051 0-4.051 2.025-2.025 2.025-2.025 2.025-2.025 4.051v20.255c0 12.153 0 26.331 0 40.509 0 8.102 0 16.204 0 24.306v16.204c0 2.025 0 4.051 2.025 4.051 2.025 2.025 2.025 2.025 4.051 2.025h10.127c30.382 0 56.713-26.331 56.713-58.739-2.025-30.382-26.331-54.688-56.713-54.688zM882.661 433.822h4.051c26.331 0 44.56 18.229 44.56 42.535s-20.255 46.586-44.56 46.586h-4.051v-10.127c0-8.102 0-16.204 0-24.306 0-14.178 0-28.357 0-40.509v-14.178z" />
<glyph unicode="&#xe918;" glyph-name="hashtag" d="M364.739 266.445l-14.121-141.21h-40.346l14.121 141.21h-147.261l4.035 40.346h147.261l24.207 262.246h-147.261l4.035 40.346h147.261l14.121 161.382h40.346l-16.138-161.382h262.246l16.138 161.382h40.346l-16.138-161.382h157.348l-4.035-40.346h-157.348l-24.207-262.246h157.348l-4.035-40.346h-157.348l-12.104-141.21h-40.346l14.121 141.21h-262.246zM366.756 306.79h262.246l24.207 262.246h-262.246l-24.207-262.246zM653.21 117.166h-40.346c-2.017 0-4.035 0-6.052 2.017s-2.017 4.035-2.017 6.052l12.104 133.14h-246.108l-12.104-133.14c0-4.035-4.035-8.069-8.069-8.069h-40.346c-2.017 0-4.035 0-6.052 2.017s-2.017 4.035-2.017 6.052l12.104 133.14h-137.175c-2.017 0-4.035 0-6.052 2.017s-2.017 4.035-2.017 6.052l4.035 40.346c0 4.035 4.035 8.069 8.069 8.069h139.192l22.19 246.108h-137.175c-2.017 0-4.035 0-6.052 2.017s-2.017 4.035-2.017 6.052l4.035 40.346c0 4.035 4.035 8.069 8.069 8.069h139.192l14.121 153.313c0 4.035 4.035 8.069 8.069 8.069h40.346c2.017 0 4.035 0 6.052-2.017s2.017-4.035 2.017-6.052l-14.121-153.313h246.108l14.121 153.313c0 4.035 4.035 8.069 8.069 8.069h40.346c2.017 0 4.035 0 6.052-2.017s2.017-4.035 2.017-6.052l-14.121-153.313h147.261c2.017 0 4.035 0 6.052-2.017s2.017-4.035 2.017-6.052l-4.035-40.346c0-4.035-4.035-8.069-8.069-8.069h-149.279l-22.19-246.108h147.261c2.017 0 4.035 0 6.052-2.017s2.017-4.035 2.017-6.052l-4.035-40.346c0-4.035-4.035-8.069-8.069-8.069h-149.279l-12.104-133.14c0-4.035-4.035-8.069-8.069-8.069zM620.933 133.304h24.207l12.104 133.14c0 4.035 4.035 8.069 8.069 8.069h149.279l2.017 24.207h-147.261c-2.017 0-4.035 0-6.052 2.017s-2.017 4.035-2.017 6.052l24.207 262.246c0 4.035 4.035 8.069 8.069 8.069h149.279l2.017 24.207h-147.261c-2.017 0-4.035 0-6.052 2.017s-2.017 4.035-2.017 6.052l14.121 153.313h-24.207l-14.121-153.313c0-4.035-4.035-8.069-8.069-8.069h-262.246c-2.017 0-4.035 0-6.052 2.017s-2.017 4.035-2.017 6.052l14.121 153.313h-24.207l-14.121-153.313c0-4.035-4.035-8.069-8.069-8.069h-139.192l-2.017-24.207h137.175c2.017 0 4.035 0 6.052-2.017s2.017-4.035 2.017-6.052l-24.207-262.246c0-4.035-4.035-8.069-8.069-8.069h-139.192l-2.017-24.207h137.175c2.017 0 4.035 0 6.052-2.017s2.017-4.035 2.017-6.052l-12.104-133.14h24.207l12.104 133.14c0 4.035 4.035 8.069 8.069 8.069h262.246c2.017 0 4.035 0 6.052-2.017s2.017-4.035 2.017-6.052l-12.104-133.14zM629.002 298.721h-262.246c-2.017 0-4.035 0-6.052 2.017s-2.017 4.035-2.017 6.052l24.207 262.246c0 4.035 4.035 8.069 8.069 8.069h262.246c2.017 0 4.035 0 6.052-2.017s2.017-4.035 2.017-6.052l-24.207-262.246c0-4.035-4.035-8.069-8.069-8.069zM376.842 314.86h246.108l22.19 246.108h-246.108l-22.19-246.108z" />
<glyph unicode="&#xe919;" glyph-name="arrow-left" d="M426.667 768q17.667 0 30.167-12.5t12.5-30.167q0-18-12.667-30.333l-225.667-225.667h665q17.667 0 30.167-12.5t12.5-30.167-12.5-30.167-30.167-12.5h-665l225.667-225.667q12.667-12.333 12.667-30.333 0-17.667-12.5-30.167t-30.167-12.5q-18 0-30.333 12.333l-298.667 298.667q-12.333 13-12.333 30.333t12.333 30.333l298.667 298.667q12.667 12.333 30.333 12.333z" />
<glyph unicode="&#xe91a;" glyph-name="lock2" horiz-adv-x="658" d="M182.857 512h292.571v109.714q0 60.571-42.857 103.429t-103.429 42.857-103.429-42.857-42.857-103.429v-109.714zM658.286 457.143v-329.143q0-22.857-16-38.857t-38.857-16h-548.571q-22.857 0-38.857 16t-16 38.857v329.143q0 22.857 16 38.857t38.857 16h18.286v109.714q0 105.143 75.429 180.571t180.571 75.429 180.571-75.429 75.429-180.571v-109.714h18.286q22.857 0 38.857-16t16-38.857z" />
<glyph unicode="&#xe91b;" glyph-name="infinite" d="M783.988 207.988c-64.104 0-124.372 24.96-169.7 70.288l-102.288 102.282-102.276-102.27c-45.332-45.336-105.6-70.3-169.706-70.3-64.118 0-124.39 24.964-169.722 70.3-45.332 45.334-70.296 105.604-70.296 169.712s24.964 124.38 70.296 169.714c45.334 45.332 105.608 70.296 169.714 70.296 64.108 0 124.38-24.964 169.712-70.296l102.278-102.276 102.276 102.276c45.332 45.332 105.604 70.298 169.712 70.298 64.112 0 124.384-24.966 169.71-70.298 45.338-45.334 70.302-105.606 70.302-169.714 0-64.112-24.964-124.382-70.3-169.71-45.326-45.336-105.598-70.302-169.712-70.302zM681.72 345.712c27.322-27.31 63.64-42.354 102.268-42.352 38.634 0 74.958 15.044 102.276 42.362 27.316 27.322 42.364 63.644 42.364 102.278s-15.046 74.956-42.364 102.274c-27.32 27.318-63.64 42.364-102.276 42.364-38.632 0-74.956-15.044-102.278-42.364l-102.268-102.274 102.278-102.288zM240.012 592.638c-38.634 0-74.956-15.044-102.274-42.364-27.32-27.318-42.364-63.64-42.364-102.274 0-38.632 15.044-74.954 42.364-102.276 27.32-27.316 63.642-42.364 102.274-42.364 38.634 0 74.956 15.044 102.272 42.362l102.276 102.278-102.276 102.274c-27.318 27.32-63.64 42.366-102.272 42.364v0z" />
<glyph unicode="&#xe91c;" glyph-name="attachment2" d="M658.88 594.199l-50.145 50.121-250.761-250.709c-41.545-41.528-41.545-108.893 0-150.424 41.539-41.528 108.901-41.528 150.446 0l300.913 300.864c69.26 69.22 69.26 181.473 0 250.696-69.224 69.254-181.512 69.254-250.737 0l-315.932-315.893c-0.225-0.235-0.474-0.445-0.676-0.654-96.582-96.577-96.582-253.112 0-349.654 96.544-96.544 253.121-96.544 349.717 0 0.212 0.212 0.396 0.438 0.632 0.676l0.024-0.026 215.65 215.62-50.171 50.121-215.65-215.597c-0.227-0.207-0.435-0.44-0.654-0.652-68.766-68.754-180.638-68.754-249.423 0-68.758 68.742-68.758 180.592 0 249.346 0.235 0.235 0.466 0.448 0.685 0.654l-0.035 0.045 315.971 315.885c41.466 41.488 108.966 41.488 150.455 0 41.466-41.484 41.466-108.97 0-150.42l-300.913-300.856c-13.847-13.837-36.328-13.837-50.16 0-13.814 13.809-13.814 36.31 0 50.121l250.757 250.737z" />
<glyph unicode="&#xe91d;" glyph-name="color-label" d="M222.392 634.844c18.685-16.816 46.711-31.764 80.343-42.974 57.922-18.685 130.791-28.026 196.186-29.895 7.474 11.211 18.685 16.816 31.764 16.816 20.553 0 37.369-16.816 37.369-37.369s-16.816-37.369-37.369-37.369c-14.947 0-26.158 7.474-33.632 20.553-69.132 1.868-143.871 9.342-207.397 31.764-20.553 7.474-39.237 14.947-57.922 26.158l-102.764-102.764c-5.605-11.211-9.342-20.553-9.342-31.764s3.737-20.553 11.211-28.026l295.214-295.214c14.947-14.947 42.974-14.947 57.922 0l336.319 336.319-205.529 205.529c-1.868 1.868-1.868 1.868-3.737 3.737l-143.871 143.871-179.371-179.371c-11.211 5.605-24.29 11.211-33.632 18.685l149.475 147.607c-59.79-3.737-110.239-14.947-145.739-31.764-44.843-20.553-63.528-44.843-63.528-72.869 0-24.29 9.342-44.843 28.026-61.658zM482.105 853.452l158.818-158.818c46.711-20.553 127.054-56.053 198.055-104.633 72.869-52.317 140.133-119.58 140.133-201.792v-201.792c0-29.895-26.158-56.053-56.053-56.053s-56.053 26.158-56.053 56.053c0 54.185 18.685 132.66 18.685 173.765 0 26.158-18.685 52.317-37.369 72.869l-336.319-336.319c-14.947-14.947-35.5-22.421-56.053-22.421-22.421 0-41.106 7.474-56.053 22.421l-295.214 295.214c-14.947 14.947-22.421 35.5-22.421 56.053s7.474 41.106 22.421 56.053l99.028 99.028c-1.868 1.868-3.737 3.737-5.605 5.605-26.158 22.421-41.106 52.317-41.106 87.817 0 46.711 33.632 84.080 84.080 106.501s119.58 35.5 201.792 37.369l13.079 13.079c3.737 3.737 7.474 5.605 13.079 5.605s9.342-1.868 13.079-5.605zM788.529 545.159l71.001-71.001c20.553-20.553 61.658-59.79 61.658-113.975 0-52.317-18.685-128.922-18.685-173.765 0-11.211 7.474-18.685 18.685-18.685s18.685 7.474 18.685 18.685v199.923c0 61.658-54.185 123.317-123.317 171.897-31.764 22.421-67.264 42.974-99.028 59.79l71.001-72.869zM455.947 66.838c-24.29 0-44.843 7.474-61.658 24.29l-295.214 295.214c-14.947 14.947-24.29 37.369-24.29 61.658s9.342 44.843 24.29 61.658l93.422 93.422c-28.026 26.158-42.974 59.79-42.974 95.29 0 46.711 31.764 87.817 89.685 113.975 50.448 22.421 117.712 35.5 201.792 37.369l9.342 9.342c11.211 11.211 26.158 9.342 37.369 0v0l158.818-158.818c76.606-31.764 143.871-67.264 198.055-104.633 97.159-67.264 143.871-136.396 143.871-209.265v-199.923c0-35.5-28.026-63.528-63.528-63.528s-63.528 28.026-63.528 63.528c0 29.895 5.605 65.396 11.211 99.028 3.737 28.026 7.474 56.053 7.474 74.738 0 16.816-9.342 39.237-29.895 61.658l-332.583-330.715c-16.816-14.947-37.369-24.29-61.658-24.29zM469.026 851.583c-3.737 0-5.605-1.868-7.474-3.737l-13.079-13.079c-1.868-1.868-3.737-1.868-5.605-1.868-80.343-1.868-149.475-13.079-198.055-35.5-52.317-24.29-80.343-59.79-80.343-100.896 0-39.237 20.553-67.264 37.369-84.080 0 0 1.868-1.868 1.868-1.868 1.868 0 1.868-1.868 3.737-1.868 1.868-1.868 1.868-3.737 1.868-5.605s0-3.737-1.868-5.605l-99.028-99.028c-11.211-13.079-18.685-29.895-18.685-50.448s7.474-37.369 20.553-50.448l295.214-295.214c13.079-13.079 29.895-20.553 50.448-20.553s37.369 7.474 50.448 20.553l336.319 336.319c1.868 1.868 3.737 1.868 5.605 1.868s3.737-1.868 5.605-1.868c26.158-29.895 39.237-54.185 39.237-78.475 0-20.553-3.737-46.711-9.342-76.606-5.605-33.632-9.342-69.132-9.342-97.159 0-26.158 22.421-48.579 48.579-48.579s48.579 22.421 48.579 48.579v199.923c0 67.264-44.843 132.66-136.396 196.186-52.317 37.369-119.58 72.869-196.186 104.633 0 0-1.868 0-1.868 1.868l-158.818 158.818c-3.737 1.868-7.474 3.737-9.342 3.737zM455.947 106.075c-13.079 0-26.158 5.605-33.632 13.079l-297.083 295.214c-9.342 9.342-13.079 20.553-13.079 33.632s3.737 24.29 13.079 33.632l104.633 104.633c1.868 1.868 5.605 3.737 9.342 1.868 16.816-9.342 35.5-18.685 56.053-24.29 54.185-18.685 123.317-28.026 203.661-31.764 1.868 0 5.605-1.868 5.605-3.737 5.605-9.342 14.947-16.816 26.158-16.816 16.816 0 29.895 13.079 29.895 29.895s-13.079 29.895-29.895 29.895c-11.211 0-20.553-5.605-26.158-14.947-1.868-1.868-3.737-3.737-5.605-3.737-54.185 1.868-132.66 7.474-198.055 29.895-35.5 11.211-63.528 28.026-82.211 44.843v0c-20.553 20.553-31.764 41.106-31.764 67.264 0 31.764 22.421 59.79 67.264 80.343 37.369 16.816 87.817 28.026 147.607 31.764 3.737 0 5.605-1.868 7.474-3.737s0-5.605-1.868-7.474l-143.871-142.001c5.605-3.737 11.211-5.605 18.685-9.342l1.868-1.868 175.633 175.633c3.737 3.737 7.474 3.737 11.211 0l143.871-143.871c1.868-1.868 1.868-3.737 3.737-3.737l205.529-205.529c1.868-1.868 1.868-3.737 1.868-5.605s0-3.737-1.868-5.605l-336.319-336.319c-7.474-5.605-18.685-11.211-31.764-11.211zM235.471 571.317l-99.028-99.028c-5.605-7.474-9.342-14.947-9.342-24.29s3.737-16.816 9.342-22.421l295.214-295.214c13.079-13.079 35.5-13.079 46.711 0l330.715 330.715-199.923 199.923c-1.868 1.868-3.737 3.737-3.737 5.605l-138.265 136.396-173.765-173.765c-1.868-1.868-5.605-1.868-9.342-1.868l-7.474 3.737c-9.342 5.605-20.553 9.342-28.026 16.816-1.868 1.868-1.868 3.737-1.868 5.605s0 3.737 1.868 5.605l134.528 134.528c-50.448-5.605-91.554-14.947-123.317-29.895-39.237-18.685-57.922-39.237-57.922-67.264 0-22.421 7.474-39.237 26.158-56.053v0c16.816-16.816 44.843-31.764 76.606-42.974 61.658-20.553 136.396-28.026 190.582-29.895 7.474 11.211 20.553 16.816 35.5 16.816 24.29 0 44.843-20.553 44.843-44.843s-20.553-44.843-44.843-44.843c-14.947 0-28.026 7.474-37.369 20.553-82.211 1.868-149.475 13.079-205.529 31.764-16.816 7.474-35.5 14.947-52.317 24.29zM923.058 160.26c-14.947 0-26.158 11.211-26.158 26.158 0 22.421 3.737 52.317 9.342 82.211 5.605 31.764 9.342 65.396 9.342 91.554 0 48.579-37.369 87.817-57.922 108.369 0 0-1.868 0-1.868 1.868l-71.001 71.001c0 0 0 0 0 0l-71.001 71.001c-1.868 1.868-3.737 7.474 0 9.342 1.868 3.737 5.605 3.737 9.342 1.868 41.106-20.553 72.869-39.237 100.896-59.79 57.922-41.106 127.054-104.633 127.054-177.502v-199.923c-1.868-14.947-13.079-26.158-28.026-26.158zM865.136 479.764c0 0 1.868 0 0 0 24.29-24.29 65.396-65.396 65.396-119.58 0-28.026-5.605-59.79-9.342-93.422-3.737-29.895-9.342-59.79-9.342-80.343 0-5.605 5.605-11.211 11.211-11.211s11.211 5.605 11.211 11.211v199.923c0 67.264-65.396 127.054-121.449 166.292-16.816 11.211-35.5 22.421-56.053 35.5l108.369-108.369z" />
<glyph unicode="&#xe91e;" glyph-name="inbox" d="M50.043 415.724v0c0 2.017 2.017 2.017 2.017 2.017l119.020 359.076c2.017 8.069 8.069 14.121 16.138 14.121 0 0 2.017 0 2.017 0h645.53c8.069 0 16.138-6.052 18.156-14.121l119.020-359.076c0 0 0-2.017 2.017-2.017v0c0 0 0 0 0 0 2.017-4.035 2.017-10.086 0-14.121v-296.54c0-12.104-8.069-20.173-20.173-20.173h-885.586c-12.104 0-20.173 8.069-20.173 20.173v292.506c-2.017 4.035-2.017 8.069 0 12.104 0 0 0 0 0 0s0 0 0 2.017c0 0 0 0 0 0s0 0 0 2.017c0 0 0 0 0 0l2.017 2.017c0 0 0 0 0 0zM96.44 427.827h274.35c12.104 0 20.173-8.069 20.173-20.173 0-66.57 54.467-121.037 121.037-121.037s121.037 54.467 121.037 121.037c0 12.104 8.069 20.173 20.173 20.173h274.35l-106.916 322.765h-617.288l-106.916-322.765zM88.371 125.235h847.258v262.246h-266.281c-10.086-78.674-76.657-141.21-157.348-141.21s-147.261 62.536-157.348 141.21h-266.281v-262.246zM955.802 76.82h-887.603c-16.138 0-28.242 12.104-28.242 28.242v292.506c-2.017 4.035-2.017 8.069 0 14.121 0 0 0 2.017 0 2.017 0 2.017 0 2.017 0 4.035 0 0 0 2.017 0 2.017s0 2.017 0 2.017v2.017c0 0 0 0 0 0s0 0 0 0l123.054 355.041c4.035 10.086 12.104 18.156 24.207 20.173 0 0 2.017 0 4.035 0h645.53c12.104 0 22.19-8.069 26.225-20.173l119.020-359.076c0 0 0 0 2.017-2.017 0 0 0 0 0 0s0 0 0 0c2.017-6.052 2.017-12.104 2.017-18.156v-294.523c-2.017-16.138-14.121-28.242-30.259-28.242zM56.095 409.672c0 0 0-2.017 0-2.017 0-2.017 0-4.035 0-6.052 0 0 0-2.017 0-2.017v-294.523c0-6.052 6.052-12.104 12.104-12.104h887.603c6.052 0 12.104 6.052 12.104 12.104v294.523c0 0 0 2.017 0 2.017 0 2.017 0 6.052 0 8.069 0 0 0 2.017-2.017 2.017 0 0-2.017 2.017-2.017 2.017l-117.002 361.093c-2.017 4.035-6.052 8.069-12.104 8.069h-645.53c-6.052 0-10.086-4.035-12.104-8.069l-119.020-359.076c0 0-2.017-2.017-2.017-4.035 0 0 0 0 0-2.017 0 0 0 0 0 0zM52.060 415.724v0zM935.629 117.166h-847.258c-4.035 0-8.069 4.035-8.069 8.069v262.246c0 4.035 4.035 8.069 8.069 8.069h266.281c4.035 0 8.069-2.017 8.069-6.052 10.086-76.657 74.639-135.158 149.279-135.158s139.192 58.501 149.279 135.158c0 4.035 4.035 6.052 8.069 6.052h266.281c4.035 0 8.069-4.035 8.069-8.069v-262.246c0-4.035-4.035-8.069-8.069-8.069zM96.44 133.304h831.119v246.108h-252.16c-14.121-80.691-82.708-141.21-163.4-141.21s-151.296 60.518-163.4 141.21h-252.16v-246.108zM512 278.548c-70.605 0-129.106 58.501-129.106 129.106 0 6.052-6.052 12.104-12.104 12.104h-274.35c-2.017 0-4.035 2.017-6.052 4.035s-2.017 4.035-2.017 6.052l106.916 322.765c2.017 4.035 4.035 6.052 8.069 6.052h617.288c4.035 0 6.052-2.017 8.069-6.052l106.916-322.765c0-2.017 0-6.052-2.017-8.069s-4.035-4.035-6.052-4.035h-274.35c-6.052 0-12.104-6.052-12.104-12.104 0-68.588-58.501-127.089-129.106-127.089zM106.527 435.896h264.264c16.138 0 28.242-12.104 28.242-28.242 0-62.536 50.432-112.968 112.968-112.968s112.968 50.432 112.968 112.968c0 16.138 12.104 28.242 28.242 28.242h264.264l-102.881 306.627h-605.184l-102.881-306.627z" />
<glyph unicode="&#xe91f;" glyph-name="method-draw-image-1" d="M342.208 784.699l124.102-134.68h460.048v-538.722h-828.712v673.4h244.56zM367.9 852.041h-332.306v-808.082h952.812v673.4h-496.406l-124.102 134.68z" />
<glyph unicode="&#xe920;" glyph-name="calendar" horiz-adv-x="951" d="M148.648 91.425h133.718v133.718h-133.718v-133.718zM312.075 91.425h148.576v133.718h-148.576v-133.718zM148.648 254.851h133.718v148.576h-133.718v-148.576zM312.075 254.851h148.576v148.576h-148.576v-148.576zM148.648 433.151h133.718v133.718h-133.718v-133.718zM490.351 91.425h148.576v133.718h-148.576v-133.718zM312.075 433.151h148.576v133.718h-148.576v-133.718zM668.652 91.425h133.718v133.718h-133.718v-133.718zM490.351 254.851h148.576v148.576h-148.576v-148.576zM326.924 656.006v133.718q0 6.039-4.407 10.444t-10.444 4.407h-29.718q-6.039 0-10.444-4.407t-4.407-10.444v-133.718q0-6.039 4.407-10.444t10.444-4.407h29.718q6.039 0 10.444 4.407t4.407 10.444zM668.652 254.851h133.718v148.576h-133.718v-148.576zM490.351 433.151h148.576v133.718h-148.576v-133.718zM668.652 433.151h133.718v133.718h-133.718v-133.718zM683.503 656.006v133.718q0 6.039-4.407 10.444t-10.444 4.407h-29.718q-6.039 0-10.444-4.407t-4.407-10.444v-133.718q0-6.039 4.407-10.444t10.444-4.407h29.718q6.039 0 10.444 4.407t4.407 10.444zM861.779 685.716v-594.282q0-24.15-17.65-41.782t-41.782-17.65h-653.714q-24.15 0-41.782 17.65t-17.65 41.782v594.282q0 24.15 17.65 41.782t41.782 17.65h59.426v44.575q0 30.65 21.814 52.462t52.462 21.814h29.718q30.65 0 52.462-21.814t21.814-52.462v-44.575h178.282v44.575q0 30.65 21.814 52.462t52.462 21.814h29.718q30.65 0 52.462-21.814t21.814-52.462v-44.575h59.426q24.15 0 41.782-17.65t17.65-41.782z" />
<glyph unicode="&#xe921;" glyph-name="upload" d="M171.838 618.079h188.98c7.56 0 13.229-3.779 17.008-9.45s3.779-13.229 0-18.897c-3.779-5.668-9.45-9.45-17.008-9.45h-151.182v-566.936h604.734v566.936h-151.182c-7.56 0-13.229 3.779-17.008 9.45s-3.779 13.229 0 18.897c3.779 5.668 9.45 9.45 17.008 9.45h188.98v-642.527h-680.325v642.527zM525.229 895.879l151.182-151.182c7.56-7.56 7.56-18.897 0-26.458s-18.897-7.56-26.458 0l-119.057 119.057v-521.581c0-7.56-3.779-13.229-9.45-17.008s-13.229-3.779-18.897 0c-5.668 3.779-9.45 9.45-9.45 17.008v521.581l-119.057-119.057c-7.56-7.56-18.897-7.56-26.458 0s-7.56 18.897 0 26.458l164.411 164.411 13.229-13.229zM852.162-32.005h-680.325c-3.779 0-7.56 3.779-7.56 7.56v642.527c0 3.779 3.779 7.56 7.56 7.56h188.98c0 0 0 0 0 0 9.45 0 18.897-5.668 22.679-13.229s3.779-18.897 0-26.458c-5.668-7.56-13.229-13.229-22.679-13.229h-143.625v-551.818h589.615v551.818h-143.625c-9.45 0-18.897 5.668-22.679 13.229s-3.779 18.897 0 26.458c5.668 7.56 13.229 13.229 22.679 13.229h188.98c3.779 0 7.56-3.779 7.56-7.56v-642.527c0-3.779-3.779-7.56-7.56-7.56zM179.399-16.887h665.207v627.409h-181.419c-3.779 0-7.56-1.889-9.45-5.668s-1.889-7.56 0-11.34c1.889-3.779 5.668-5.668 9.45-5.668 0 0 0 0 0 0h151.182c3.779 0 7.56-3.779 7.56-7.56v-566.936c0-3.779-3.779-7.56-7.56-7.56h-604.734c-3.779 0-7.56 3.779-7.56 7.56v566.936c0 3.779 3.779 7.56 7.56 7.56h151.182c3.779 0 7.56 1.889 9.45 5.668s1.889 7.56 0 11.34c-1.889 3.779-5.668 5.668-9.45 5.668h-181.419v-627.409zM512 289.256c-3.779 0-9.45 1.889-13.229 3.779-7.56 5.668-13.229 13.229-13.229 22.679v502.684l-105.828-105.828c-9.45-9.45-26.458-9.45-37.798 0-9.45 9.45-9.45 26.458 0 37.798l164.411 164.411c3.779 1.889 7.56 1.889 9.45 0l15.118-13.229c0 0 0 0 0 0l151.182-151.182c9.45-9.45 9.45-26.458 0-37.798-9.45-9.45-26.458-9.45-37.798 0l-105.828 105.828v-502.684c0-9.45-5.668-18.897-13.229-22.679-3.779-1.889-9.45-3.779-13.229-3.779zM493.103 844.857c1.889 0 1.889 0 1.889 0 1.889-1.889 3.779-3.779 3.779-7.56v-521.581c0-3.779 1.889-7.56 5.668-9.45s7.56-1.889 11.34 0c3.779 1.889 5.668 5.668 5.668 9.45v521.581c0 3.779 1.889 5.668 3.779 7.56 5.668 0 9.45 0 11.34-3.779l119.057-119.057c3.779-3.779 11.34-3.779 17.008 0s3.779 11.34 0 17.008l-160.633 160.633-158.744-158.744c-3.779-3.779-3.779-11.34 0-17.008 3.779-3.779 11.34-3.779 17.008 0l119.057 119.057c0 0 1.889 1.889 3.779 1.889z" />
<glyph unicode="&#xe922;" glyph-name="num_sort" d="M320.358 575.089h-229.97c0 28.242 6.052 52.449 20.173 72.622s32.276 38.328 54.467 54.467c10.086 8.069 22.19 16.138 34.294 24.207s22.19 16.138 32.276 24.207 18.156 18.156 24.207 28.242 10.086 22.19 10.086 36.311c0 6.052 0 12.104-2.017 20.173s-4.035 14.121-8.069 20.173c-4.035 6.052-10.086 10.086-16.138 14.121-8.069 2.017-18.156 4.035-30.259 4.035s-20.173-2.017-28.242-6.052c-6.052-4.035-12.104-10.086-16.138-18.156s-8.069-16.138-10.086-26.225-4.035-22.19-4.035-34.294h-54.467c0 18.156 2.017 36.311 8.069 52.449s10.086 30.259 20.173 42.363 22.19 20.173 36.311 26.225c14.121 6.052 32.276 10.086 50.432 10.086 20.173 0 38.328-4.035 52.449-10.086s24.207-16.138 34.294-26.225 14.121-22.19 18.156-34.294 6.052-24.207 6.052-34.294c0-14.121-2.017-26.225-6.052-36.311s-10.086-20.173-16.138-30.259-16.138-18.156-24.207-26.225c-8.069-8.069-18.156-14.121-28.242-22.19s-20.173-14.121-28.242-20.173-22.19-10.086-30.259-16.138-14.121-12.104-20.173-18.156c-6.052-6.052-10.086-14.121-12.104-22.19h165.417v-48.415zM828.713 786.903c4.035-4.035 6.052-10.086 6.052-16.138v-595.098l145.244 145.244c4.035 6.052 12.104 8.069 20.173 6.052s14.121-8.069 16.138-16.138c2.017-8.069-2.017-16.138-6.052-20.173l-179.538-179.538-16.138-12.104-193.659 193.659c-6.052 6.052-8.069 14.121-4.035 22.19s10.086 12.104 18.156 12.104c6.052 0 10.086-2.017 14.121-6.052l145.244-145.244v595.098c0 10.086 6.052 18.156 16.138 20.173 0 0 2.017 0 2.017 0 6.052 2.017 12.104 0 16.138-4.035zM239.667 333.015v-338.903h-60.518v238.039h-82.708v44.38c12.104 0 22.19 0 34.294 2.017s22.19 6.052 30.259 10.086c8.069 6.052 16.138 10.086 22.19 18.156s10.086 16.138 12.104 26.225h44.38zM239.667-13.957h-60.518c-4.035 0-8.069 4.035-8.069 8.069v231.987h-74.639c-4.035 0-8.069 2.017-8.069 6.052v44.38c0 2.017 0 4.035 2.017 6.052s4.035 2.017 6.052 2.017c12.104 0 22.19 0 32.276 2.017s20.173 4.035 28.242 10.086c8.069 4.035 14.121 10.086 20.173 16.138 4.035 6.052 8.069 14.121 10.086 22.19 0 4.035 4.035 6.052 8.069 6.052h46.397c4.035 0 8.069-4.035 8.069-8.069v-338.903c-2.017-4.035-6.052-8.069-10.086-8.069zM187.218 2.181h44.38v322.765h-30.259c-2.017-10.086-6.052-18.156-12.104-24.207-6.052-8.069-14.121-14.121-24.207-18.156-10.086-6.052-22.19-8.069-32.276-10.086-8.069-2.017-16.138-2.017-26.225-2.017v-28.242h74.639c4.035 0 8.069-4.035 8.069-8.069v-231.987zM814.592 90.941c-2.017 0-4.035 0-6.052 2.017l-193.659 193.659c-8.069 8.069-10.086 20.173-6.052 30.259s14.121 18.156 26.225 18.156c8.069 0 14.121-4.035 20.173-8.069l131.123-131.123v574.925c0 12.104 8.069 24.207 22.19 28.242 0 0 2.017 0 2.017 0 8.069 0 16.138-2.017 22.19-8.069s10.086-14.121 8.069-22.19v-576.942l131.123 131.123c6.052 8.069 16.138 12.104 28.242 10.086 10.086-2.017 18.156-10.086 20.173-20.173s-2.017-22.19-10.086-28.242l-193.659-193.659c2.017 0 0 0-2.017 0zM635.054 318.894c-4.035 0-10.086-4.035-12.104-8.069s0-10.086 2.017-14.121l187.607-187.607 187.607 187.607c4.035 4.035 6.052 8.069 4.035 12.104s-4.035 8.069-10.086 10.086c-4.035 2.017-10.086 0-12.104-4.035l-145.244-145.244c-2.017-2.017-6.052-2.017-8.069-2.017-2.017 2.017-4.035 4.035-4.035 8.069v595.098c0 4.035-2.017 8.069-4.035 10.086v0c-2.017 2.017-6.052 4.035-10.086 4.035-8.069-2.017-12.104-6.052-12.104-12.104v-595.098c0-4.035-2.017-6.052-4.035-8.069s-6.052 0-8.069 2.017l-145.244 145.244c0 0-2.017 2.017-6.052 2.017zM320.358 567.020h-229.97c-2.017 0-4.035 0-6.052 2.017s-2.017 4.035-2.017 6.052c0 30.259 8.069 54.467 22.19 76.657s32.276 40.346 56.484 56.484c12.104 10.086 24.207 18.156 34.294 24.207 12.104 8.069 22.19 16.138 32.276 24.207s16.138 16.138 22.19 26.225c6.052 8.069 8.069 20.173 8.069 30.259 0 6.052 0 12.104-2.017 18.156s-4.035 10.086-8.069 16.138c-4.035 4.035-8.069 8.069-14.121 12.104s-16.138 6.052-26.225 6.052c-10.086 0-18.156-2.017-22.19-6.052-6.052-2.017-10.086-8.069-14.121-14.121s-6.052-14.121-8.069-24.207c-2.017-10.086-4.035-20.173-4.035-32.276 0-4.035-4.035-8.069-8.069-8.069h-54.467c-4.035 0-8.069 4.035-8.069 8.069 0 20.173 2.017 36.311 8.069 54.467s12.104 32.276 22.19 44.38c10.086 12.104 24.207 22.19 38.328 28.242 16.138 8.069 34.294 10.086 54.467 10.086 22.19 0 40.346-4.035 54.467-10.086s26.225-16.138 36.311-28.242c10.086-12.104 16.138-24.207 20.173-36.311 6.052-12.104 8.069-24.207 8.069-36.311 0-14.121-2.017-28.242-6.052-40.346s-10.086-22.19-18.156-32.276c-8.069-10.086-16.138-18.156-26.225-26.225-10.086-6.052-20.173-14.121-30.259-20.173s-20.173-14.121-30.259-20.173c-10.086-6.052-18.156-12.104-26.225-18.156s-14.121-12.104-20.173-18.156c-2.017-2.017-4.035-6.052-6.052-8.069h153.313c4.035 0 8.069-4.035 8.069-8.069v-48.415c0-4.035-4.035-8.069-8.069-8.069zM98.458 583.158h215.849v34.294h-159.365c-2.017 0-4.035 2.017-6.052 4.035 0 0-2.017 2.017 0 4.035 2.017 8.069 8.069 18.156 14.121 24.207s14.121 14.121 22.19 20.173c8.069 6.052 18.156 12.104 28.242 18.156s18.156 12.104 28.242 20.173c10.086 6.052 18.156 14.121 26.225 20.173 8.069 8.069 16.138 16.138 24.207 24.207 6.052 8.069 12.104 18.156 16.138 28.242s6.052 22.19 6.052 34.294c0 10.086-2.017 20.173-6.052 32.276-4.035 10.086-8.069 20.173-16.138 30.259s-18.156 18.156-30.259 24.207c-14.121 8.069-30.259 10.086-48.415 10.086s-34.294-2.017-48.415-8.069c-14.121-8.069-24.207-16.138-34.294-26.225-8.069-10.086-16.138-22.19-20.173-38.328-4.035-14.121-6.052-26.225-6.052-42.363h38.328c0 10.086 2.017 18.156 4.035 26.225 2.017 12.104 6.052 20.173 10.086 28.242 6.052 8.069 12.104 16.138 20.173 20.173 8.069 8.069 18.156 10.086 32.276 10.086 12.104 0 24.207-2.017 34.294-8.069 8.069-4.035 14.121-10.086 20.173-16.138 4.035-6.052 6.052-14.121 8.069-22.19 2.017-6.052 2.017-14.121 2.017-20.173 0-14.121-4.035-28.242-12.104-40.346-6.052-10.086-16.138-20.173-26.225-30.259-10.086-8.069-20.173-16.138-34.294-24.207-10.086-6.052-22.19-14.121-34.294-24.207-22.19-14.121-40.346-32.276-52.449-52.449-10.086-18.156-16.138-38.328-16.138-60.518z" />
<glyph unicode="&#xe923;" glyph-name="Menu" d="M1017.856 474.624h-1011.712c-4.096 0-6.144-2.048-6.144-6.144v-40.96c0-4.096 2.048-6.144 6.144-6.144h1011.712c4.096 0 6.144 2.048 6.144 6.144v40.96c0 4.096-2.048 6.144-6.144 6.144zM1017.856 171.52h-1011.712c-4.096 0-6.144-2.048-6.144-6.144v-40.96c0-4.096 2.048-6.144 6.144-6.144h1011.712c4.096 0 6.144 2.048 6.144 6.144v40.96c0 4.096-2.048 6.144-6.144 6.144zM1017.856 777.728h-1011.712c-4.096 0-6.144-2.048-6.144-6.144v-40.96c0-4.096 2.048-6.144 6.144-6.144h1011.712c4.096 0 6.144 2.048 6.144 6.144v40.96c0 4.096-2.048 6.144-6.144 6.144z" />
<glyph unicode="&#xe924;" glyph-name="Search" d="M960.512 67.072l-260.096 260.096c53.248 61.44 81.92 141.312 81.92 223.232 0 192.512-157.696 350.208-350.208 350.208s-352.256-157.696-352.256-350.208 157.696-350.208 350.208-350.208c73.728 0 141.312 22.528 200.704 63.488l264.192-264.192c2.048-2.048 2.048-2.048 4.096-2.048s2.048 0 4.096 4.096l57.344 57.344c2.048 2.048 2.048 6.144 0 8.192zM430.080 847.36c163.84 0 296.96-133.12 296.96-296.96s-133.12-296.96-296.96-296.96c-163.84 0-296.96 133.12-296.96 296.96s133.12 296.96 296.96 296.96z" />
<glyph unicode="&#xe925;" glyph-name="eye2" d="M512 615.936c-59.392 0-106.496-49.152-106.496-106.496s49.152-106.496 106.496-106.496 106.496 49.152 106.496 106.496-47.104 106.496-106.496 106.496zM997.376 466.432c-4.096 4.096-215.040 251.904-485.376 251.904s-483.328-249.856-485.376-251.904c-8.192-10.24-8.192-24.576 0-34.816 2.048-4.096 215.040-253.952 485.376-253.952s483.328 249.856 485.376 253.952c8.192 10.24 8.192 24.576 0 34.816zM512 312.832c-106.496 0-196.608 88.064-196.608 196.608 0 49.152 18.432 92.16 49.152 129.024 51.2 18.432 98.304 26.624 147.456 26.624 47.104 0 96.256-8.192 147.456-26.624 30.72-36.864 49.152-83.968 49.152-129.024 0-108.544-90.112-196.608-196.608-196.608zM280.576 599.552c-12.288-28.672-18.432-61.44-18.432-92.16 0-137.216 110.592-249.856 249.856-249.856s249.856 112.64 249.856 251.904c0 30.72-6.144 63.488-18.432 92.16 100.352-53.248 172.032-124.928 198.656-151.552-43.008-45.056-219.136-217.088-430.080-217.088s-387.072 169.984-430.080 215.040c24.576 26.624 98.304 96.256 198.656 151.552z" />
<glyph unicode="&#xe926;" glyph-name="back" d="M378.114 448l348.806 348.806c1.762 0 1.762 1.762 1.762 3.524s0 1.762-1.762 3.524l-36.994 36.994c-1.762 1.762-5.285 1.762-7.046 0l-389.324-389.324c-1.762-1.762-1.762-5.285 0-7.046l389.324-387.562c1.762-1.762 1.762-1.762 3.524-1.762s1.762 0 3.524 0l36.994 36.994c1.762 0 1.762 1.762 1.762 3.524s0 1.762-1.762 3.524l-348.806 348.806z" />
<glyph unicode="&#xe927;" glyph-name="star" d="M1001.472 587.264l-356.352 20.48-108.544 284.672-18.432 47.104c0 4.096-8.192 4.096-10.24 0l-126.976-331.776-305.152-16.384-53.248-2.048c-4.096 0-6.144-2.048-6.144-4.096s0-4.096 2.048-6.144l276.48-225.28-79.872-292.864-10.24-51.2c0-2.048 0-4.096 2.048-6.144s2.048-2.048 4.096-2.048c0 0 2.048 0 4.096 0l296.96 194.56 303.104-194.56c2.048-2.048 4.096-2.048 6.144 0s2.048 4.096 2.048 6.144l-92.16 344.064 235.52 192.512 40.96 32.768c2.048 2.048 2.048 4.096 2.048 6.144-4.096 2.048-6.144 4.096-8.192 4.096zM350.208 355.84l4.096 12.288c0 2.048 0 4.096-2.048 6.144l-206.848 167.936 251.904 16.384h14.336c4.096 0 6.144 2.048 6.144 4.096l4.096 12.288 90.112 235.52 90.112-237.568 6.144-12.288c2.048-2.048 4.096-4.096 6.144-4.096l266.24-12.288-206.848-167.936c-2.048-2.048-2.048-4.096-2.048-6.144l65.536-256-223.232 143.36c-2.048 2.048-4.096 2.048-6.144 0l-223.232-143.36 65.536 241.664z" />
<glyph unicode="&#xe928;" glyph-name="Plus" d="M835.584 495.104h-276.48v276.48c0 4.096-2.048 6.144-6.144 6.144h-81.92c-4.096 0-6.144-2.048-6.144-6.144v-276.48h-276.48c-4.096 0-6.144-2.048-6.144-6.144v-81.92c0-4.096 2.048-6.144 6.144-6.144h276.48v-276.48c0-4.096 2.048-6.144 6.144-6.144h81.92c4.096 0 6.144 2.048 6.144 6.144v276.48h276.48c4.096 0 6.144 2.048 6.144 6.144v81.92c0 4.096-2.048 6.144-6.144 6.144z" />
<glyph unicode="&#xe929;" glyph-name="filled_star" d="M1007.616 585.216c-2.048 2.048-4.096 4.096-6.144 4.096l-356.352 18.432-126.976 331.776c0 4.096-8.192 4.096-10.24 0l-126.976-331.776-356.352-18.432c-4.096 0-6.144-2.048-6.144-4.096s0-4.096 2.048-6.144l276.48-227.328-92.16-344.064c0-2.048 0-4.096 2.048-6.144s4.096-2.048 6.144 0l299.008 194.56 296.96-194.56c2.048 0 2.048 0 4.096 0s2.048 0 4.096 2.048 2.048 4.096 2.048 6.144l-92.16 344.064 276.48 225.28c4.096 2.048 4.096 4.096 4.096 6.144z" />
<glyph unicode="&#xe92a;" glyph-name="gift2" d="M997.376 697.856h-200.704c6.144 4.096 10.24 6.144 16.384 10.24 45.056 30.72 69.632 77.824 69.632 124.928 0 28.672-8.192 53.248-24.576 71.68-18.432 22.528-51.2 34.816-88.064 34.816s-73.728-14.336-102.4-40.96c-24.576-26.624-45.056-57.344-59.392-83.968l-2.048-2.048c-16.384-26.624-30.72-51.2-47.104-69.632s-30.72-26.624-49.152-26.624-32.768 8.192-49.152 26.624c-16.384 16.384-30.72 43.008-47.104 69.632l-2.048 2.048c-14.336 26.624-32.768 59.392-59.392 83.968-24.576 26.624-59.392 40.96-98.304 40.96s-67.584-14.336-88.064-34.816c-16.384-18.432-24.576-43.008-24.576-71.68 0-49.152 26.624-94.208 69.632-124.928 6.144-4.096 10.24-6.144 16.384-10.24h-200.704c-4.096 0-6.144-2.048-6.144-6.144v-223.232c0-4.096 2.048-6.144 6.144-6.144h34.816v-499.712c-2.048-4.096 0-6.144 4.096-6.144h890.88c4.096 0 6.144 2.048 6.144 6.144v499.712h34.816c4.096 0 6.144 2.048 6.144 6.144v223.232c0 4.096-2.048 6.144-6.144 6.144zM911.36 462.336v-454.656h-272.384v454.656h272.384zM952.32 644.608v-129.024h-313.344v129.024h313.344zM645.12 779.776l6.144 8.192c14.336 24.576 30.72 53.248 51.2 71.68 20.48 20.48 38.912 28.672 65.536 28.672 32.768 0 45.056-10.24 51.2-18.432 10.24-10.24 12.288-26.624 12.288-36.864 0-34.816-16.384-61.44-47.104-83.968-28.672-20.48-69.632-32.768-108.544-32.768h-67.584c14.336 18.432 26.624 40.96 36.864 63.488zM587.776 644.608v-151.552c0-2.048 0-2.048 0-2.048 0-2.048 0-2.048 0-2.048s0-2.048 0-4.096v-475.136h-149.504v475.136c0 2.048 0 4.096 0 4.096v155.648h149.504zM194.56 833.024c0 10.24 2.048 26.624 10.24 36.864 8.192 8.192 20.48 18.432 51.2 20.48 26.624 0 45.056-8.192 65.536-28.672 18.432-18.432 36.864-47.104 51.2-71.68l6.144-10.24c12.288-20.48 24.576-43.008 40.96-63.488h-67.584c-38.912 0-81.92 12.288-108.544 32.768-32.768 22.528-49.152 49.152-49.152 83.968zM385.024 462.336v-454.656h-272.384v454.656h272.384zM385.024 644.608v-129.024h-313.344v129.024h313.344z" />
<glyph unicode="&#xe92b;" glyph-name="help2" d="M512 960c-280.576 0-512-231.424-512-512s231.424-512 512-512c280.576 0 512 231.424 512 512s-231.424 512-512 512zM512-12.8c-253.952 0-460.8 206.848-460.8 460.8s206.848 460.8 460.8 460.8 460.8-206.848 460.8-460.8-206.848-460.8-460.8-460.8zM540.672 280.064h-55.296c-8.192 0-14.336-4.096-14.336-12.288v-63.488c0-6.144 6.144-12.288 14.336-12.288h55.296c8.192 0 14.336 6.144 14.336 12.288v63.488c0 6.144-6.144 12.288-14.336 12.288zM516.096 710.144c-75.776 0-129.024-47.104-141.312-120.832-2.048-8.192 2.048-12.288 10.24-14.336l47.104-8.192c6.144-2.048 12.288 2.048 14.336 10.24 8.192 43.008 32.768 65.536 69.632 65.536 40.96 0 65.536-24.576 65.536-63.488 0-24.576-8.192-38.912-32.768-73.728l-49.152-67.584c-14.336-20.48-22.528-36.864-22.528-69.632v-30.72c0-2.048 2.048-6.144 4.096-8.192 4.096-2.048 6.144-4.096 10.24-4.096h45.056c8.192 0 14.336 4.096 14.336 12.288v24.576c0 22.528 4.096 32.768 18.432 51.2l49.152 67.584c24.576 34.816 38.912 61.44 38.912 98.304-4.096 77.824-59.392 131.072-141.312 131.072z" />
<glyph unicode="&#xe92c;" glyph-name="Document" d="M303.104 509.44v-40.96c0-4.096 2.048-6.144 6.144-6.144h405.504c4.096 0 6.144 2.048 6.144 6.144v40.96c0 4.096-2.048 6.144-6.144 6.144h-405.504c-4.096 0-6.144-2.048-6.144-6.144zM309.248 341.504h323.584c4.096 0 6.144 2.048 6.144 6.144v40.96c0 4.096-2.048 6.144-6.144 6.144h-323.584c-4.096 0-6.144-2.048-6.144-6.144v-40.96c0-4.096 2.048-6.144 6.144-6.144zM880.64 663.040l-256 253.952c-2.048 2.048-2.048 2.048-4.096 2.048h-473.088c-4.096 0-6.144-2.048-6.144-6.144v-931.84c0-2.048 2.048-4.096 6.144-4.096h729.088c4.096 0 6.144 2.048 6.144 6.144v675.84c0 2.048-2.048 2.048-2.048 4.096zM638.976 677.376v153.6l153.6-153.6h-153.6zM593.92 624.128h237.568v-595.968h-636.928v839.68h393.216v-237.568c0-4.096 2.048-6.144 6.144-6.144zM714.752 271.872h-405.504c-4.096 0-6.144-2.048-6.144-6.144v-40.96c0-4.096 2.048-6.144 6.144-6.144h405.504c4.096 0 6.144 2.048 6.144 6.144v40.96c0 4.096-2.048 6.144-6.144 6.144z" />
<glyph unicode="&#xe92d;" glyph-name="image2" d="M980.307 848.052h-936.615c-3.792 0-5.688-1.896-5.688-5.688v-786.832c0-3.792 1.896-5.688 5.688-5.688h936.615c3.792 0 5.688 1.896 5.688 5.688v786.832c0 3.792-1.896 5.688-5.688 5.688zM938.596 798.756v-701.513h-853.191v701.513h853.191zM130.908 148.435c0-3.792 1.896-5.688 5.688-5.688h750.808c3.792 0 5.688 1.896 5.688 5.688v191.494c0 3.792 0 5.688 0 7.584v400.052c0 3.792-1.896 5.688-5.688 5.688h-750.808c-3.792 0-5.688-1.896-5.688-5.688v-382.988c-3.792-7.584-3.792-15.168 0-20.856v-195.286zM180.203 349.409l178.222 210.454 170.638-238.894c7.584-9.48 18.96-13.272 30.336-7.584l140.303 72.047 144.095-58.775v-134.615h-663.593v157.366zM841.901 377.849l-134.615 54.983c-5.688 3.792-13.272 3.792-18.96 0l-130.823-66.359-176.326 246.478c-3.792 5.688-11.376 9.48-18.96 9.48-1.896 0-1.896 0-3.792-1.896-5.688 0-11.376-3.792-15.168-7.584l-163.054-191.494v282.501h661.697v-326.109zM661.782 480.232c45.504 0 81.527 36.024 81.527 81.527s-36.024 81.527-81.527 81.527-81.527-36.024-81.527-81.527 36.024-81.527 81.527-81.527zM661.782 592.095c18.96 0 32.232-13.272 32.232-32.232 0-17.064-13.272-32.232-32.232-32.232-17.064 0-32.232 13.272-32.232 32.232 0 17.064 13.272 32.232 32.232 32.232z" />
<glyph unicode="&#xe92e;" glyph-name="infinity" d="M753.664 718.336c-126.976 0-188.416-90.112-227.328-165.888 0-2.048 0-4.096 0-6.144 4.096-8.192 6.144-16.384 10.24-24.576s8.192-16.384 12.288-24.576c2.048-2.048 4.096-4.096 6.144-4.096 4.096 0 6.144 2.048 6.144 4.096 47.104 98.304 96.256 165.888 194.56 165.888 118.784 0 215.040-92.16 217.088-212.992 0-2.048 0-4.096 0-4.096 0-118.784-96.256-217.088-217.088-217.088-59.392 0-98.304 20.48-135.168 67.584-34.816 43.008-59.392 100.352-83.968 159.744v2.048c-26.624 61.44-53.248 122.88-92.16 172.032-47.104 57.344-104.448 86.016-176.128 86.016-147.456 0-268.288-122.88-268.288-270.336v-2.048c2.048-147.456 120.832-268.288 270.336-268.288 129.024 0 188.416 92.16 227.328 167.936 0 2.048 0 4.096 0 6.144-4.096 8.192-6.144 16.384-10.24 24.576s-8.192 16.384-12.288 24.576c-2.048 2.048-4.096 4.096-6.144 4.096-4.096 0-6.144-2.048-6.144-4.096-45.056-100.352-94.208-167.936-192.512-167.936-120.832 0-217.088 94.208-219.136 212.992 0 2.048 0 4.096 0 4.096 0 118.784 96.256 217.088 217.088 217.088 59.392 0 98.304-20.48 135.168-67.584 34.816-43.008 59.392-100.352 83.968-159.744v-2.048c26.624-61.44 53.248-122.88 92.16-172.032 47.104-57.344 104.448-86.016 176.128-86.016 147.456 0 270.336 120.832 268.288 270.336v2.048c-4.096 147.456-122.88 268.288-270.336 268.288z" />
<glyph unicode="&#xe92f;" glyph-name="Calendar" d="M215.215 129.538h593.574c11.671 0 21.677 10.004 20.008 21.677v346.808c0 11.671-10.004 21.677-21.677 21.677h-595.24c0 0 0 0-1.668 0-10.004-1.668-16.673-11.671-16.673-21.677v-346.808c0-11.671 10.004-21.677 21.677-21.677zM341.931 244.583v-73.364h-105.043v73.364h105.043zM236.887 287.937v73.364h105.043v-73.364h-105.043zM236.887 402.982v73.364h105.043v-73.364h-105.043zM490.323 244.583v-73.364h-105.043v73.364h105.043zM385.282 287.937v73.364h105.043v-73.364h-105.043zM385.282 402.982v73.364h105.043v-73.364h-105.043zM638.718 244.583v-73.364h-105.043v73.364h105.043zM533.677 287.937v73.364h105.043v-73.364h-105.043zM533.677 402.982v73.364h105.043v-73.364h-105.043zM787.113 244.583v-73.364h-105.043v73.364h105.043zM682.069 287.937v73.364h105.043v-73.364h-105.043zM682.069 402.982v73.364h105.043v-73.364h-105.043zM917.165 789.804c-6.669 6.669-16.673 10.004-26.678 10.004h-115.045v26.678c0 6.669-1.668 15.007-6.669 20.008-1.668 1.668-3.335 5.001-5.001 6.669-6.669 6.669-16.673 10.004-26.678 10.004h-33.347c-10.004 0-20.008-3.335-26.678-10.004s-10.004-16.673-10.004-26.678v-28.346h-318.462v28.346c0 10.004-3.335 20.008-10.004 26.678s-16.673 10.004-26.678 10.004h-33.347c-10.004 0-20.008-3.335-26.678-10.004s-10.004-16.673-10.004-26.678v-28.346h-108.376c-10.004 0-20.008-3.335-26.678-10.004s-10.004-16.673-10.004-26.678v-693.613c0-10.004 3.335-20.008 10.004-26.678s16.673-10.004 26.678-10.004h758.639c10.004 0 20.008 3.335 26.678 13.339 6.669 6.669 10.004 16.673 10.004 26.678v691.946c-1.668 10.004-5.001 20.008-11.671 26.678zM286.91 733.115v90.036h23.342v-88.368h-23.342zM715.417 733.115v90.036h23.342v-88.368h-23.342zM887.151 591.392v-518.542h-750.303v518.542h750.303zM256.896 701.436c6.669-6.669 16.673-10.004 26.678-10.004h33.347c10.004 0 20.008 3.335 26.678 10.004s10.004 16.673 10.004 26.678v28.346h323.463v-28.346c0-10.004 3.335-20.008 10.004-26.678s16.673-10.004 26.678-10.004h33.347c10.004 0 20.008 3.335 26.678 10.004s10.004 16.673 10.004 26.678v28.346h105.043v-121.715h-751.97v121.715h105.043v-28.346c1.668-10.004 5.001-20.008 15.007-26.678z" />
<glyph unicode="&#xe930;" glyph-name="Bookmark-Ribbon" d="M755.712 919.040h-489.472c-2.048 0-2.048 0-4.096 0-12.288-2.048-20.48-14.336-20.48-26.624v-890.88c0-8.192 4.096-18.432 12.288-22.528s18.432-4.096 26.624 0l231.424 135.168 231.424-133.12c4.096-2.048 8.192-4.096 12.288-4.096s8.192 2.048 14.336 4.096c8.192 4.096 12.288 12.288 12.288 22.528v890.88c0 14.336-12.288 24.576-26.624 24.576zM731.136 867.84v-821.248l-204.8 118.784c-8.192 4.096-18.432 4.096-26.624 0l-204.8-118.784v821.248h436.224z" />
<glyph unicode="&#xe931;" glyph-name="collaboration" d="M1028.096 138.752c-2.048 43.008-18.432 79.872-45.056 104.448-24.576 26.624-57.344 40.96-83.968 53.248-12.288 6.144-22.528 10.24-34.816 14.336-16.384 6.144-30.72 12.288-43.008 18.432-18.432 8.192-30.72 18.432-34.816 28.672-2.048 20.48-2.048 36.864-2.048 55.296 0 0 2.048 2.048 4.096 4.096 4.096 8.192 10.24 16.384 14.336 24.576 6.144 14.336 10.24 30.72 14.336 49.152h2.048c4.096 2.048 8.192 4.096 12.288 8.192 10.24 12.288 16.384 28.672 18.432 51.2 2.048 20.48-4.096 32.768-10.24 43.008 12.288 43.008 16.384 81.92 14.336 114.688-2.048 28.672-10.24 53.248-24.576 73.728-14.336 22.528-38.912 36.864-69.632 43.008-20.48 22.528-51.2 32.768-90.112 32.768-47.104-2.048-88.064-12.288-114.688-34.816-12.288 8.192-26.624 12.288-40.96 16.384-20.48 26.624-57.344 38.912-106.496 38.912-92.16-2.048-157.696-38.912-186.368-102.4-22.528-51.2-22.528-116.736-2.048-202.752-12.288-14.336-16.384-30.72-14.336-51.2 2.048-26.624 10.24-45.056 20.48-59.392 6.144-6.144 10.24-8.192 16.384-10.24 0-2.048 2.048-2.048 2.048-2.048 4.096-22.528 10.24-43.008 18.432-59.392 4.096-10.24 10.24-20.48 16.384-28.672 2.048-2.048 4.096-4.096 6.144-6.144 0-2.048 2.048-2.048 2.048-2.048 0-24.576 0-45.056-2.048-69.632-6.144-12.288-20.48-24.576-45.056-36.864-16.384-8.192-34.816-16.384-55.296-24.576-12.288-6.144-26.624-10.24-38.912-16.384-30.72-14.336-69.632-30.72-96.256-61.44-28.672-30.72-47.104-71.68-49.152-120.832l-2.048-22.528c0-2.048 0-2.048 2.048-4.096 0-2.048 2.048-2.048 4.096-2.048h815.104c0 0 2.048 0 4.096 6.144 2.048 0 2.048 2.048 2.048 4.096l-2.048 22.528c-2.048 30.72-8.192 57.344-22.528 81.92h225.28c2.048 0 2.048 0 4.096 2.048 2.048 0 2.048 2.048 2.048 4.096l-4.096 22.528zM477.184 798.208l4.096-8.192c0 0 2.048-2.048 4.096-2.048l10.24-2.048c24.576-2.048 40.96-12.288 53.248-28.672 10.24-14.336 16.384-34.816 18.432-59.392 4.096-45.056-8.192-96.256-18.432-129.024l-4.096-16.384c-2.048-2.048 0-4.096 2.048-6.144l10.24-6.144 4.096-4.096c0 0 2.048-2.048 4.096-8.192 0-2.048 0-4.096 0-6.144-4.096-22.528-8.192-30.72-10.24-32.768-2.048 0-2.048 0-2.048 0l-16.384-2.048c-4.096-2.048-6.144-4.096-6.144-6.144l-2.048-16.384c-2.048-16.384-8.192-36.864-16.384-55.296-4.096-8.192-8.192-16.384-12.288-20.48-2.048-4.096-2.048-4.096-4.096-6.144l-10.24-4.096c-2.048-2.048-4.096-4.096-4.096-6.144v-12.288c0-6.144 0-12.288 0-18.432 0-22.528 0-43.008 2.048-69.632v-4.096l2.048-2.048c14.336-36.864 47.104-57.344 71.68-69.632 18.432-10.24 36.864-16.384 57.344-24.576 14.336-6.144 26.624-10.24 38.912-16.384 28.672-12.288 51.2-26.624 69.632-40.96 2.048-2.048 2.048-2.048 2.048-2.048 2.048 0 2.048-2.048 4.096-2.048 2.048-2.048 2.048-4.096 4.096-4.096 0-2.048 2.048-2.048 2.048-2.048 14.336-14.336 24.576-34.816 30.72-59.392h-708.608c6.144 24.576 16.384 45.056 32.768 61.44 18.432 18.432 45.056 34.816 81.92 51.2 12.288 4.096 26.624 10.24 38.912 14.336 18.432 8.192 38.912 16.384 57.344 24.576 24.576 12.288 57.344 32.768 71.68 69.632l2.048 6.144c2.048 26.624 2.048 47.104 2.048 69.632 0 6.144 0 12.288 0 18.432v12.288c0 4.096-2.048 4.096-4.096 6.144l-12.288 4.096c-2.048 2.048-4.096 4.096-6.144 6.144-4.096 6.144-8.192 12.288-12.288 20.48-8.192 18.432-14.336 38.912-16.384 55.296l-2.048 16.384c-2.048 4.096-4.096 6.144-6.144 6.144l-16.384 2.048c0 0 0 0-2.048 2.048-2.048 4.096-8.192 12.288-10.24 32.768 0 10.24 2.048 14.336 4.096 16.384l12.288 8.192c2.048 0 2.048 4.096 2.048 6.144l-4.096 14.336c-20.48 77.824-20.48 139.264-2.048 182.272 20.48 47.104 65.536 69.632 139.264 71.68 38.912-2.048 63.488-14.336 69.632-24.576zM673.792 798.208c32.768 0 51.2-10.24 55.296-16.384l4.096-8.192c2.048-2.048 2.048-2.048 4.096-4.096l10.24-2.048c20.48-4.096 32.768-10.24 40.96-22.528s12.288-28.672 14.336-49.152c2.048-38.912-8.192-86.016-16.384-106.496l-4.096-14.336c-2.048-2.048 0-4.096 2.048-6.144l16.384-8.192c0 0 2.048-4.096 2.048-10.24-2.048-16.384-6.144-22.528-8.192-24.576l-14.336-2.048c-4.096 0-6.144-4.096-6.144-6.144l-2.048-16.384c-2.048-12.288-6.144-28.672-14.336-45.056-2.048-6.144-6.144-12.288-8.192-16.384l-2.048-2.048c-2.048 0-2.048-2.048-2.048-2.048l-2.048-2.048-8.192-4.096c-2.048-2.048-4.096-4.096-4.096-6.144v-24.576c0-18.432 0-36.864 2.048-61.44v-4.096l2.048-2.048c10.24-30.72 38.912-47.104 61.44-59.392 16.384-8.192 34.816-16.384 51.2-22.528 10.24-4.096 20.48-8.192 30.72-12.288 32.768-12.288 53.248-26.624 67.584-40.96 10.24-10.24 16.384-24.576 22.528-43.008h-212.992c-28.672 26.624-59.392 40.96-79.872 49.152-14.336 6.144-26.624 12.288-38.912 16.384-20.48 8.192-38.912 16.384-55.296 24.576-24.576 12.288-38.912 22.528-45.056 36.864-2.048 24.576-2.048 45.056-2.048 69.632 0 2.048 2.048 2.048 2.048 2.048 2.048 2.048 4.096 4.096 6.144 6.144 6.144 8.192 10.24 16.384 16.384 28.672 8.192 16.384 14.336 36.864 18.432 59.392h2.048c6.144 2.048 12.288 4.096 16.384 10.24 10.24 14.336 18.432 34.816 20.48 59.392s-6.144 40.96-14.336 51.2c16.384 49.152 22.528 94.208 18.432 135.168-2.048 32.768-10.24 59.392-24.576 81.92 18.432 8.192 45.056 14.336 77.824 14.336zM528.384 433.664c-2.048-8.192-6.144-16.384-8.192-22.528-2.048-2.048-2.048-6.144-4.096-8.192-4.096-6.144-6.144-12.288-10.24-16.384 0 0-2.048-2.048-2.048-2.048s0 0 0 0c4.096 6.144 8.192 14.336 12.288 22.528 6.144 12.288 12.288 26.624 14.336 38.912 0-4.096-2.048-8.192-2.048-12.288zM499.712 378.368v0c0 0 0 2.048 0 0 0 2.048 0 0 0 0zM489.472 370.176v0 0 0 0zM759.808 814.592c28.672-6.144 49.152-18.432 63.488-38.912 2.048-2.048 4.096-6.144 4.096-8.192-2.048 2.048-2.048 4.096-4.096 4.096-4.096 4.096-8.192 8.192-12.288 12.288-10.24 16.384-28.672 26.624-51.2 30.72-2.048 0-2.048 0-2.048 0s-2.048 2.048-2.048 2.048c0 0 2.048 0 2.048-2.048 0 0 0 0 2.048 0zM749.568 822.784c0 0-2.048 2.048-4.096 2.048-18.432 14.336-43.008 20.48-73.728 20.48 0 0 0 0 2.048 0 32.768 0 57.344-8.192 75.776-22.528z" />
<glyph unicode="&#xe932;" glyph-name="export2" d="M653.312 171.52h-40.96c-4.096 0-6.144-2.048-6.144-6.144v-176.128h-555.008v919.552h555.008v-176.128c0-4.096 2.048-6.144 6.144-6.144h40.96c4.096 0 6.144 2.048 6.144 6.144v200.704c0 14.336-12.288 26.624-26.624 26.624h-606.208c-2.048 0-4.096 0-6.144 0-12.288-2.048-20.48-14.336-20.48-26.624v-972.8c0-12.288 12.288-24.576 26.624-24.576h608.256c14.336 0 26.624 12.288 26.624 26.624v202.752c-2.048 4.096-4.096 6.144-8.192 6.144zM1007.616 452.096l-194.56 194.56c-4.096 6.144-12.288 8.192-20.48 8.192 0 0 0 0-2.048 0-10.24-2.048-18.432-8.192-20.48-18.432s0-20.48 8.192-26.624l135.168-137.216h-585.728c-8.192 0-14.336-2.048-18.432-8.192-4.096-4.096-6.144-12.288-6.144-18.432 0-8.192 2.048-14.336 8.192-18.432 4.096-4.096 12.288-6.144 18.432-6.144h581.632l-133.12-135.168c-6.144-6.144-10.24-16.384-8.192-26.624s10.24-18.432 20.48-20.48c2.048 0 4.096 0 6.144 0 8.192 0 16.384 4.096 20.48 10.24l192.512 194.56c0 2.048 0 6.144-2.048 8.192z" />
<glyph unicode="&#xe933;" glyph-name="trash" d="M397.432 661.861v0c-13.366-3.819-21.004-13.366-21.004-24.823v-471.64c0-7.638 3.819-17.185 11.457-21.004 3.819-1.909 7.638-3.819 11.457-3.819s7.638 1.909 13.366 3.819c7.638 3.819 11.457 11.457 11.457 21.004v471.64c0 7.638-1.909 13.366-7.638 19.095-3.819 3.819-11.457 5.728-19.095 5.728zM510.091 661.861v0c-13.366-3.819-21.004-13.366-21.004-24.823v-471.64c0-7.638 3.819-17.185 11.457-21.004 3.819-1.909 7.638-3.819 11.457-3.819s7.638 1.909 13.366 3.819c7.638 3.819 11.457 11.457 11.457 21.004v471.64c0 7.638-1.909 13.366-7.638 19.095-3.819 3.819-11.457 5.728-19.095 5.728zM853.795 782.158c-3.819 7.638-11.457 11.457-21.004 11.457h-181.4v32.461c0 34.37-28.642 63.013-63.013 63.013h-150.848c-34.37 0-63.013-28.642-63.013-63.013v-34.37h-141.301c-3.819 0-7.638 0-9.547 0h-34.37c-7.638 0-13.366-3.819-17.185-7.638s-5.728-11.457-5.728-17.185 1.909-11.457 7.638-17.185c3.819-3.819 11.457-5.728 17.185-5.728h13.366v-674.044c0-34.37 28.642-63.013 63.013-63.013h490.734c34.37 0 63.013 28.642 63.013 63.013v675.953h13.366c7.638 0 17.185 3.819 21.004 11.457 1.909 7.638 1.909 17.185-1.909 24.823zM435.621 839.442h152.758c7.638 0 13.366-5.728 13.366-13.366v-32.461h-177.581v32.461c0 7.638 3.819 13.366 11.457 13.366zM758.322 56.558h-492.644c-7.638 0-13.366 5.728-13.366 13.366v674.044h517.467v-674.044c0-7.638-3.819-13.366-11.457-13.366zM622.749 661.861v0c-13.366-3.819-21.004-13.366-21.004-24.823v-471.64c0-7.638 3.819-17.185 11.457-21.004 3.819-1.909 7.638-3.819 11.457-3.819s7.638 1.909 13.366 3.819c7.638 3.819 11.457 11.457 11.457 21.004v471.64c0 7.638-1.909 13.366-7.638 19.095-3.819 3.819-11.457 5.728-19.095 5.728z" />
<glyph unicode="&#xe934;" glyph-name="pencil2" d="M937.984 878.080c-16.384 16.384-38.912 26.624-63.488 26.624s-47.104-10.24-63.488-26.624l-14.336-14.336c-6.144 0-10.24 0-14.336 0-4.096-2.048-8.192-4.096-12.288-8.192l-634.88-636.928c-2.048-2.048-4.096-4.096-6.144-8.192l-67.584-178.176c-4.096-10.24-2.048-20.48 6.144-28.672 4.096-6.144 12.288-8.192 18.432-8.192 4.096 0 6.144 0 10.24 2.048l178.176 67.584c2.048 2.048 6.144 4.096 8.192 6.144l636.928 638.976c6.144 8.192 8.192 18.432 4.096 28.672l14.336 14.336c34.816 32.768 34.816 90.112 0 124.928zM169.984 146.944c4.096-6.144 12.288-8.192 18.432-8.192h14.336v-14.336c0-6.144 4.096-12.288 8.192-18.432l6.144-6.144-65.536-24.576-12.288 12.288 24.576 65.536 6.144-6.144zM782.336 642.56l-518.144-516.096-10.24 10.24v28.672c0 14.336-12.288 26.624-26.624 26.624h-26.624l-10.24 10.24 516.096 516.096 75.776-75.776zM788.48 800.256l75.776-75.776-47.104-47.104-75.776 75.776 47.104 47.104zM888.832 773.632l-53.248 53.248 12.288 12.288c14.336 14.336 38.912 14.336 53.248 0 6.144-6.144 10.24-16.384 10.24-26.624s-4.096-20.48-10.24-26.624l-12.288-12.288z" />
<glyph unicode="&#xe935;" glyph-name="copy" d="M1021.952 704l-253.952 253.952c0 2.048-2.048 2.048-4.096 2.048h-372.736c-4.096 0-6.144-2.048-6.144-6.144v-120.832c0-2.048 0-2.048 2.048-4.096l40.96-40.96c2.048-2.048 4.096-2.048 6.144-2.048 2.048 2.048 4.096 4.096 4.096 6.144v116.736h290.816v-237.568c0-4.096 2.048-6.144 6.144-6.144h237.568v-514.048h-299.008c-4.096 0-6.144-2.048-6.144-6.144v-40.96c0-4.096 2.048-6.144 6.144-6.144h344.064c4.096 0 6.144 2.048 6.144 6.144v595.968c0 2.048 0 2.048-2.048 4.096zM935.936 718.336h-153.6v153.6l153.6-153.6zM389.12 790.016l-6.144 6.144c-2.048 2.048-2.048 2.048-4.096 2.048h-372.736c-4.096 0-6.144-2.048-6.144-6.144v-849.92c0-4.096 2.048-6.144 6.144-6.144h628.736c4.096 0 6.144 2.048 6.144 6.144v595.968c0 2.048-2.048 2.048-2.048 4.096l-249.856 247.808zM397.312 554.496v153.6l153.6-153.6h-153.6zM350.208 503.296h237.568v-514.048h-536.576v757.76h290.816v-237.568c2.048-4.096 4.096-6.144 8.192-6.144z" />
<glyph unicode="&#xe936;" glyph-name="new-folder" d="M573.44 46.592c0 2.048-2.048 2.048-4.096 2.048h-503.808c-8.192 0-14.336 6.144-14.336 14.336v339.968c0 2.048 0 4.096 0 4.096v223.232c0 8.192 6.144 14.336 14.336 14.336h811.008c8.192 0 14.336-6.144 14.336-14.336v-229.376c0-2.048 0-2.048 2.048-4.096l40.96-26.624c2.048 0 4.096-2.048 6.144 0s4.096 4.096 4.096 6.144v249.856c0 2.048 0 4.096 0 4.096v120.832c0 36.864-30.72 67.584-67.584 67.584h-503.808c-4.096 4.096-16.384 22.528-20.48 28.672-16.384 24.576-32.768 53.248-63.488 53.248h-223.232c-34.816 0-65.536-30.72-65.536-67.584v-770.048c0-36.864 30.72-67.584 67.584-67.584h532.48c4.096 0 6.144 2.048 6.144 4.096 2.048 2.048 2.048 4.096 0 6.144l-32.768 40.96zM65.536 847.36h221.184c2.048-2.048 10.24-12.288 20.48-28.672 16.384-24.576 34.816-53.248 63.488-53.248h505.856c8.192 0 14.336-6.144 14.336-14.336v-57.344c-4.096 2.048-10.24 2.048-14.336 2.048h-811.008c-4.096 0-10.24 0-14.336-2.048v139.264c0 8.192 6.144 14.336 14.336 14.336zM794.624 392.704c-124.928 0-229.376-102.4-229.376-229.376 0-124.928 102.4-229.376 229.376-229.376 126.976 2.048 229.376 104.448 229.376 231.424 0 124.928-102.4 227.328-229.376 227.328zM794.624-12.8c-96.256 0-176.128 79.872-176.128 176.128s79.872 176.128 176.128 176.128 176.128-79.872 176.128-176.128-77.824-176.128-176.128-176.128zM919.552 177.664c-4.096 8.192-14.336 12.288-22.528 12.288h-77.824v75.776c0 8.192-2.048 14.336-8.192 20.48-4.096 4.096-12.288 6.144-20.48 6.144h-2.048c-12.288-4.096-20.48-14.336-20.48-26.624v-77.824h-77.824c-8.192 0-14.336-2.048-18.432-8.192-4.096-4.096-6.144-12.288-6.144-18.432 0-14.336 12.288-24.576 26.624-24.576h77.824v-75.776c0-8.192 4.096-18.432 12.288-22.528 4.096-2.048 8.192-4.096 12.288-4.096s8.192 2.048 14.336 4.096c8.192 4.096 12.288 12.288 12.288 22.528v79.872h75.776c8.192 0 18.432 4.096 22.528 12.288s4.096 18.432 0 24.576z" />
</font>
</defs>
</svg>
