<svg width="166" height="38" viewBox="0 0 166 38" fill="none" xmlns="http://www.w3.org/2000/svg">
<g clip-path="url(#clip0)">
<path d="M51.4566 23.3655L56.7502 11.5917C56.8415 11.5004 56.9328 11.4092 57.024 11.4092H57.2066C57.3891 11.4092 57.4804 11.5004 57.4804 11.5917L62.774 23.3655C62.8653 23.5481 62.774 23.8219 62.5002 23.8219H61.7701C61.5875 23.8219 61.4963 23.7306 61.4963 23.6393L60.2185 20.7187H54.0121L52.7344 23.6393C52.7344 23.7306 52.5518 23.8219 52.4606 23.8219H51.7304C51.4566 23.8219 51.3653 23.5481 51.4566 23.3655ZM59.7621 19.6235C58.9407 17.7068 58.028 15.7901 57.2066 13.8735H57.024L54.4685 19.6235H59.7621Z" fill="white"/>
<path d="M64.5081 21.9049C64.5993 21.8136 64.6906 21.7224 64.7819 21.5398C64.9644 21.3573 65.1469 21.1748 65.4208 21.3573C65.512 21.4486 66.7898 22.7263 68.3414 22.7263C69.8017 22.7263 70.7144 21.8136 70.7144 20.8097C70.7144 19.6232 69.6192 18.893 67.6112 18.0716C65.6946 17.2502 64.5081 16.4287 64.5081 14.4208C64.5081 13.2343 65.4208 11.3176 68.2501 11.3176C69.9842 11.3176 71.262 12.2303 71.262 12.2303C71.3533 12.3216 71.5358 12.5041 71.3533 12.8692C71.262 12.9605 71.1707 13.0518 71.1707 13.2343C70.9882 13.5081 70.8057 13.5081 70.5319 13.4168C70.4406 13.3256 69.3454 12.5954 68.2501 12.5954C66.4247 12.5954 65.8771 13.7819 65.8771 14.5121C65.8771 15.6986 66.7898 16.3375 68.2501 16.9764C70.6231 17.9803 72.1747 18.8017 72.1747 20.9009C72.1747 22.7263 70.4406 24.0954 68.4327 24.0954C66.3335 24.0954 64.9644 22.9089 64.7819 22.6351C64.4168 22.4525 64.2342 22.27 64.5081 21.9049Z" fill="white"/>
<path d="M74.1828 11.9568C74.1828 11.7743 74.3653 11.5005 74.6391 11.5005H75.1868C75.3693 11.5005 75.6431 11.683 75.6431 11.9568V16.8854L81.1193 11.683C81.2106 11.5918 81.3018 11.5005 81.4844 11.5005H82.1233C82.3971 11.5005 82.5796 11.8656 82.3058 12.1394L76.8296 17.3418L82.5796 23.2743C82.6709 23.3656 82.6709 23.8219 82.3058 23.8219H81.3931C81.3018 23.8219 81.1193 23.7306 81.1193 23.7306L75.4606 17.8894V23.4568C75.4606 23.6394 75.278 23.9132 75.0042 23.9132H74.4566C74.1828 23.9132 74.0002 23.7306 74.0002 23.4568V11.9568H74.1828Z" fill="white"/>
<path d="M90.8851 11.5914C90.8851 11.4089 91.0676 11.3176 91.1589 11.3176H91.4327C91.524 11.3176 91.7065 11.4089 91.7065 11.5002L95.1748 21.1748H95.2661L98.643 11.5002C98.643 11.4089 98.8256 11.3176 98.9168 11.3176H99.1906C99.3732 11.3176 99.4645 11.4089 99.4645 11.5914L101.746 23.3652C101.837 23.639 101.655 23.8216 101.472 23.8216H100.742C100.56 23.8216 100.468 23.7303 100.468 23.5478L98.9168 14.5121H98.8256L95.7224 23.7303C95.7224 23.8216 95.5399 23.9129 95.4486 23.9129H95.1748C95.0835 23.9129 94.901 23.8216 94.901 23.7303L91.6153 14.5121H91.524L89.9724 23.5478C89.9724 23.639 89.7899 23.8216 89.6986 23.8216H88.9684C88.6946 23.8216 88.6034 23.639 88.6946 23.3652L90.8851 11.5914Z" fill="white"/>
<path d="M104.302 11.8656C104.302 11.683 104.484 11.5005 104.667 11.5005H111.603C111.786 11.5005 111.968 11.683 111.968 11.8656V12.4132C111.968 12.5957 111.786 12.7783 111.603 12.7783H105.762V17.0679H110.782C110.964 17.0679 111.147 17.2505 111.147 17.433V17.9806C111.147 18.1632 110.964 18.3457 110.782 18.3457H105.762V22.8179H111.603C111.786 22.8179 111.968 23.0005 111.968 23.183V23.7306C111.968 23.9132 111.786 24.0957 111.603 24.0957H104.667C104.484 24.0957 104.302 23.9132 104.302 23.7306V11.8656Z" fill="white"/>
<path d="M117.262 12.687H114.25C114.068 12.687 113.885 12.5045 113.885 12.3219V11.8656C113.885 11.683 114.068 11.5005 114.25 11.5005H121.643C121.825 11.5005 122.008 11.683 122.008 11.8656V12.4132C122.008 12.5957 121.825 12.7783 121.643 12.7783H118.631V23.5481C118.631 23.7306 118.448 23.9132 118.266 23.9132H117.627C117.445 23.9132 117.262 23.7306 117.262 23.5481V12.687Z" fill="white"/>
<path d="M124.29 11.8656C124.29 11.683 124.472 11.5005 124.655 11.5005H125.294C125.476 11.5005 125.659 11.683 125.659 11.8656V16.9767H132.778V11.8656C132.778 11.683 132.96 11.5005 133.143 11.5005H133.782C133.964 11.5005 134.147 11.683 134.147 11.8656V23.4568C134.147 23.6394 133.964 23.8219 133.782 23.8219H133.143C132.96 23.8219 132.778 23.6394 132.778 23.4568V18.1632H125.659V23.4568C125.659 23.6394 125.476 23.8219 125.294 23.8219H124.655C124.472 23.8219 124.29 23.6394 124.29 23.4568V11.8656Z" fill="white"/>
<path d="M142.544 11.3176C146.012 11.3176 148.841 14.147 148.841 17.6152C148.841 21.0835 146.012 23.9129 142.544 23.9129C139.075 23.9129 136.246 21.1748 136.246 17.6152C136.246 14.147 138.984 11.3176 142.544 11.3176ZM142.544 22.7263C145.282 22.7263 147.655 20.4446 147.655 17.7065C147.655 14.9684 145.373 12.5954 142.544 12.5954C139.806 12.5954 137.524 14.8771 137.524 17.7065C137.433 20.4446 139.714 22.7263 142.544 22.7263Z" fill="white"/>
<path d="M150.941 11.8656C150.941 11.683 151.123 11.5005 151.214 11.5005H155.139C158.516 11.5005 161.254 14.2386 161.254 17.6156C161.254 20.9925 158.516 23.7306 155.139 23.7306H151.214C151.032 23.7306 150.941 23.5481 150.941 23.3656V11.8656ZM154.865 22.5441C157.695 22.5441 159.794 20.5362 159.794 17.6156C159.794 14.7862 157.695 12.687 154.865 12.687H152.218V22.5441H154.865Z" fill="white"/>
<path d="M55.3812 29.2983C56.4764 29.2983 57.2978 29.6634 58.028 30.3023C58.1193 30.3936 58.1193 30.4848 58.028 30.5761L57.7542 30.8499C57.6629 30.9412 57.5717 30.9412 57.4804 30.8499C56.9328 30.3936 56.1113 30.0285 55.3812 30.0285C53.6471 30.0285 52.3693 31.4888 52.3693 33.2229C52.3693 34.8658 53.6471 36.3261 55.3812 36.3261C56.2939 36.3261 56.9328 35.961 57.4804 35.5047C57.5717 35.4134 57.6629 35.4134 57.7542 35.5047L58.1193 35.7785C58.2105 35.8698 58.2105 35.961 58.1193 36.0523C57.3891 36.7825 56.4764 37.1475 55.4724 37.1475C53.282 37.1475 51.5479 35.4134 51.5479 33.2229C51.5479 31.0325 53.1907 29.2983 55.3812 29.2983Z" fill="white"/>
<path d="M72.3575 29.2979C74.5479 29.2979 76.2821 31.032 76.2821 33.2225C76.2821 35.4129 74.5479 37.1471 72.3575 37.1471C70.167 37.1471 68.4329 35.4129 68.4329 33.2225C68.4329 31.032 70.167 29.2979 72.3575 29.2979ZM72.3575 36.4169C74.0916 36.4169 75.5519 34.9566 75.5519 33.2225C75.5519 31.4883 74.0916 30.028 72.3575 30.028C70.6233 30.028 69.163 31.4883 69.163 33.2225C69.2543 34.9566 70.6233 36.4169 72.3575 36.4169Z" fill="white"/>
<path d="M88.1471 29.4804C88.1471 29.3891 88.2384 29.2979 88.3296 29.2979H88.5122C88.6034 29.2979 88.6947 29.3891 88.6947 29.3891L90.8852 35.4129C90.8852 35.4129 90.8852 35.4129 90.9764 35.4129L93.0756 29.3891C93.0756 29.2979 93.1669 29.2979 93.2582 29.2979H93.4407C93.532 29.2979 93.6233 29.3891 93.6233 29.4804L94.9923 36.8732C94.9923 37.0558 94.9923 37.1471 94.8098 37.1471H94.3534C94.2622 37.1471 94.1709 37.0558 94.1709 36.9645L93.1669 31.3058L91.159 37.0558C91.159 37.147 91.0677 37.1471 90.9764 37.1471H90.7939C90.7026 37.1471 90.6114 37.0558 90.6114 37.0558L88.6034 31.3058L87.6907 36.9645C87.6907 37.0558 87.5995 37.1471 87.5082 37.1471H87.0518C86.8693 37.1471 86.778 37.0558 86.8693 36.8732L88.1471 29.4804Z" fill="white"/>
<path d="M106.036 29.5715C106.036 29.4802 106.127 29.3889 106.218 29.3889H108.591C109.96 29.3889 111.056 30.4842 111.056 31.7619C111.056 33.131 109.96 34.2262 108.591 34.2262H106.766V36.7818C106.766 36.873 106.675 36.9643 106.583 36.9643H106.127C106.036 36.9643 105.945 36.873 105.945 36.7818V29.5715H106.036ZM108.591 33.4961C109.504 33.4961 110.234 32.7659 110.234 31.8532C110.234 30.9405 109.504 30.3016 108.591 30.3016H106.857V33.4961H108.591Z" fill="white"/>
<path d="M120.73 36.782L124.016 29.3891C124.016 29.2979 124.107 29.2979 124.198 29.2979H124.29C124.381 29.2979 124.472 29.3891 124.472 29.3891L127.758 36.782C127.849 36.9645 127.758 37.0558 127.575 37.0558H127.119C127.028 37.0558 126.937 36.9645 126.937 36.9645L126.115 35.1391H122.191L121.369 36.9645C121.369 37.0558 121.278 37.0558 121.187 37.0558H120.73C120.821 37.0558 120.73 36.8732 120.73 36.782ZM125.933 34.409C125.385 33.2225 124.837 32.0359 124.381 30.8494H124.29L122.738 34.409H125.933Z" fill="white"/>
<path d="M138.345 29.4804C138.345 29.3891 138.437 29.2979 138.528 29.2979H138.802L143.73 35.4129V29.5717C143.73 29.4804 143.822 29.3891 143.913 29.3891H144.278C144.369 29.3891 144.461 29.4804 144.461 29.5717V36.9645C144.461 37.0558 144.369 37.1471 144.278 37.1471H144.187L139.167 30.8494V36.782C139.167 36.8732 139.076 36.9645 138.984 36.9645H138.619C138.528 36.9645 138.437 36.8732 138.437 36.782V29.4804H138.345Z" fill="white"/>
<path d="M157.695 33.4053L155.048 29.7545C154.956 29.572 155.048 29.4807 155.23 29.4807H155.778C155.869 29.4807 155.96 29.572 155.96 29.572L158.151 32.5839L160.341 29.572C160.341 29.572 160.433 29.4807 160.524 29.4807H161.072C161.254 29.4807 161.345 29.6633 161.254 29.7545L158.607 33.4053V36.8736C158.607 36.9648 158.516 37.0561 158.425 37.0561H157.877C157.786 37.0561 157.695 36.9648 157.695 36.8736V33.4053Z" fill="white"/>
<path d="M92.8931 0.548351H91.3415C91.2502 0.548351 91.1589 0.457081 91.1589 0.365811V0.183272C91.1589 0.0920022 91.2502 0.000732422 91.3415 0.000732422H95.0835C95.1748 0.000732422 95.2661 0.0920022 95.2661 0.183272V0.457081C95.2661 0.548351 95.1748 0.639621 95.0835 0.639621H93.5319V6.02454C93.5319 6.1158 93.4407 6.20707 93.3494 6.20707H93.0756C92.9843 6.20707 92.8931 6.1158 92.8931 6.02454V0.548351Z" fill="white"/>
<path d="M103.389 0.182539C103.389 0.0912697 103.48 0 103.572 0H103.937C104.028 0 104.119 0.0912697 104.119 0.182539V2.73809H107.679V0.182539C107.679 0.0912697 107.77 0 107.861 0H108.226C108.318 0 108.409 0.0912697 108.409 0.182539V5.93253C108.409 6.0238 108.318 6.11507 108.226 6.11507H107.861C107.77 6.11507 107.679 6.0238 107.679 5.93253V3.28571H104.119V5.93253C104.119 6.0238 104.028 6.11507 103.937 6.11507H103.572C103.48 6.11507 103.389 6.0238 103.389 5.93253V0.182539Z" fill="white"/>
<path d="M117.262 0.182539C117.262 0.0912697 117.353 0 117.444 0H120.913C121.004 0 121.095 0.0912697 121.095 0.182539V0.456349C121.095 0.547618 121.004 0.638888 120.913 0.638888H117.992V2.73809H120.548C120.639 2.73809 120.73 2.82936 120.73 2.92063V3.19444C120.73 3.28571 120.639 3.37698 120.548 3.37698H117.992V5.56745H120.913C121.004 5.56745 121.095 5.65872 121.095 5.74999V6.0238C121.095 6.11507 121.004 6.20634 120.913 6.20634H117.444C117.353 6.20634 117.262 6.11507 117.262 6.0238V0.182539Z" fill="white"/>
<path d="M84.77 3.46876H51.7304C51.5478 3.46876 51.4565 3.28622 51.4565 3.19495C51.4565 3.01241 51.6391 2.92114 51.7304 2.92114H84.77C84.9525 2.92114 85.0438 3.10368 85.0438 3.19495C85.0438 3.37749 84.9525 3.46876 84.77 3.46876Z" fill="white"/>
<path d="M161.163 3.46876H128.123C127.941 3.46876 127.849 3.28622 127.849 3.19495C127.849 3.01241 128.032 2.92114 128.123 2.92114H161.163C161.345 2.92114 161.437 3.10368 161.437 3.19495C161.528 3.37749 161.345 3.46876 161.163 3.46876Z" fill="white"/>
<path d="M163.079 13.8733V12.8693H163.718C164.083 12.8693 164.357 12.9606 164.357 13.3257C164.357 13.5995 164.083 13.782 163.81 13.782H163.079V13.8733ZM162.806 14.9685C162.806 14.9685 162.897 15.0598 162.806 14.9685L162.988 15.0598C163.079 15.0598 163.079 15.0598 163.079 14.9685V14.1471H163.627H163.718L164.175 14.9685L164.266 15.0598H164.448C164.54 15.0598 164.54 14.9685 164.54 14.9685L164.083 14.1471C164.357 14.0558 164.631 13.8733 164.631 13.4169C164.631 12.9606 164.266 12.6868 163.81 12.6868H162.897C162.897 12.6868 162.806 12.6868 162.806 12.7781V14.9685ZM161.619 13.8733C161.619 12.7781 162.532 11.8654 163.627 11.8654C164.722 11.8654 165.635 12.7781 165.635 13.8733C165.635 14.9685 164.722 15.8812 163.627 15.8812C162.532 15.8812 161.619 14.9685 161.619 13.8733ZM161.437 13.8733C161.437 15.1511 162.44 16.155 163.718 16.155C164.996 16.155 166 15.1511 166 13.8733C166 12.5955 164.996 11.5916 163.718 11.5916C162.44 11.6828 161.437 12.6868 161.437 13.8733Z" fill="white"/>
<path d="M20.8811 0.547677L0.0716111 36.6905C-0.110928 36.9643 0.0716111 37.3294 0.43669 37.3294H42.7858C43.0597 37.3294 43.2422 36.9643 43.1509 36.6905L22.2502 0.547677C21.9763 5.82933e-05 21.1549 5.82933e-05 20.8811 0.547677ZM14.401 35.6865H3.99621H3.08351C2.8097 35.6865 2.62716 35.3214 2.71843 35.0476L3.17478 34.2262L12.393 18.3453L21.2462 3.01196C21.4287 2.73815 21.7938 2.73815 21.9763 3.01196L30.8295 18.3453L34.2065 24.2778L40.4128 35.0476C40.5954 35.3214 40.4128 35.6865 40.0478 35.6865H17.6867H14.401Z" fill="white"/>
<path d="M37.8573 33.9524L37.5835 34.1349H37.9486L37.8573 33.9524Z" fill="white"/>
<path d="M37.3098 33.04L35.4844 34.1353H35.8495L37.401 33.2226L37.3098 33.04Z" fill="white"/>
<path d="M36.762 32.1272L33.2937 34.1351H33.6588L36.8532 32.2185L36.762 32.1272Z" fill="white"/>
<path d="M36.2144 31.1235L31.1033 34.1354H31.4684L36.3056 31.3061L36.2144 31.1235Z" fill="white"/>
<path d="M35.6668 30.2107L28.9128 34.1353H29.3692L35.7581 30.3932L35.6668 30.2107Z" fill="white"/>
<path d="M35.2105 29.2979L26.8137 34.1352H27.1788L35.3018 29.4804L35.2105 29.2979Z" fill="white"/>
<path d="M34.6627 28.2939L24.623 34.1352H24.9881L34.754 28.4765L34.6627 28.2939Z" fill="white"/>
<path d="M34.1151 27.3816L22.4326 34.1356H22.7977L34.2064 27.5641L34.1151 27.3816Z" fill="white"/>
<path d="M33.5676 26.5598L20.4248 34.1352H20.7899L33.6589 26.6511L33.5676 26.5598Z" fill="white"/>
<path d="M32.7461 25.0995L32.6548 24.917L16.6826 34.1352H17.0477L32.7461 25.0995Z" fill="white"/>
<path d="M32.4725 24.5518L15.9526 34.1351H16.3177L32.5637 24.7343L32.4725 24.5518Z" fill="white"/>
<path d="M32.2899 24.2783L15.2224 34.1355H15.5875L32.3811 24.4609L32.2899 24.2783Z" fill="white"/>
<path d="M32.1072 24.0042L14.4922 34.1351H14.8573L32.1985 24.0954L32.1072 24.0042Z" fill="white"/>
<path d="M31.9246 23.6392L13.762 34.1352H14.127L32.0159 23.8217L31.9246 23.6392Z" fill="white"/>
<path d="M31.7423 23.3655L13.032 34.1353H13.4883L31.8335 23.4567L31.7423 23.3655Z" fill="white"/>
<path d="M31.5597 23.0002L12.3931 34.1352H12.7581L31.651 23.1828L31.5597 23.0002Z" fill="white"/>
<path d="M31.3771 22.7268L11.6628 34.1355H12.0279L31.4684 22.9093L31.3771 22.7268Z" fill="white"/>
<path d="M31.1945 22.3616L10.9326 34.1354H11.2977L31.2858 22.5441L31.1945 22.3616Z" fill="white"/>
<path d="M31.0121 22.0874L10.2026 34.135H10.5677L31.1034 22.2699L31.0121 22.0874Z" fill="white"/>
<path d="M30.8295 21.814L9.47241 34.1354H9.83749L30.9208 21.9052L30.8295 21.814Z" fill="white"/>
<path d="M30.6469 21.4487L8.74219 34.1352H9.10727L30.7382 21.6313L30.6469 21.4487Z" fill="white"/>
<path d="M30.4643 21.1746L8.01196 34.1349H8.37704L30.5556 21.2658L30.4643 21.1746Z" fill="white"/>
<path d="M30.282 20.8098L7.28198 34.1352H7.64706L30.3732 20.9924L30.282 20.8098Z" fill="white"/>
<path d="M21.4286 23.6389L29.2778 19.0754L29.1866 18.9841L21.2461 23.5476L21.4286 23.6389Z" fill="white"/>
<path d="M19.8772 24.552L19.6946 24.4607L6.278 32.2186L6.09546 32.4924L19.8772 24.552Z" fill="white"/>
<path d="M21.0636 23.4567L29.0954 18.8019L29.0041 18.6194L20.8811 23.3654L21.0636 23.4567Z" fill="white"/>
<path d="M18.9646 24.0955L7.00822 30.9407L6.82568 31.2145L19.1471 24.1867L18.9646 24.0955Z" fill="white"/>
<path d="M20.3334 23.0001L28.7302 18.1628L28.639 17.9802L20.1509 22.9088L20.3334 23.0001Z" fill="white"/>
<path d="M19.9684 22.8176L28.5478 17.8891L28.4565 17.7065L19.7859 22.7264L19.9684 22.8176Z" fill="white"/>
<path d="M18.2342 23.6392L7.7382 29.663L7.55566 30.028L18.4168 23.7304L18.2342 23.6392Z" fill="white"/>
<path d="M19.3295 22.3615L28.1826 17.2504L28.0914 17.0679L19.0557 22.2702L19.3295 22.3615Z" fill="white"/>
<path d="M17.5041 23.1826L8.46843 28.385L8.28589 28.7501L17.6867 23.3652L17.5041 23.1826Z" fill="white"/>
<path d="M18.9645 22.1786L28.0002 16.9762L27.909 16.7937L18.782 22.0873L18.9645 22.1786Z" fill="white"/>
<path d="M16.774 22.8179L9.19865 27.1988L9.01611 27.4726L16.9566 22.9091L16.774 22.8179Z" fill="white"/>
<path d="M18.2343 21.8138L27.6351 16.3376L27.5438 16.155L18.0518 21.6312L18.2343 21.8138Z" fill="white"/>
<path d="M17.8693 21.5398L27.4526 15.9723L27.3614 15.7898L17.6868 21.4485L17.8693 21.5398Z" fill="white"/>
<path d="M16.044 22.3616L9.92888 25.9211L9.74634 26.2862L16.2265 22.5441L16.044 22.3616Z" fill="white"/>
<path d="M17.1391 21.1747L27.1788 15.3335L27.0875 15.2422L16.9565 21.0834L17.1391 21.1747Z" fill="white"/>
<path d="M15.3136 21.9968L10.6589 24.6436L10.4763 25.0087L15.4962 22.0881L15.3136 21.9968Z" fill="white"/>
<path d="M16.7741 20.9012L26.9963 15.06L26.905 14.8774L16.5916 20.81L16.7741 20.9012Z" fill="white"/>
<path d="M14.5835 21.5403L11.3891 23.4569L11.2065 23.7308L14.7661 21.6316L14.5835 21.5403Z" fill="white"/>
<path d="M16.0439 20.5361L26.6312 14.4211L26.5399 14.2385L15.8613 20.4449L16.0439 20.5361Z" fill="white"/>
<path d="M15.6786 20.3535L26.4485 14.1471L26.3572 13.9646L15.4961 20.1709L15.6786 20.3535Z" fill="white"/>
<path d="M13.8534 21.1746L12.1193 22.1785L11.9368 22.5436L14.036 21.2658L13.8534 21.1746Z" fill="white"/>
<path d="M14.9487 19.8971L26.0836 13.5082L25.9923 13.3257L14.7661 19.8058L14.9487 19.8971Z" fill="white"/>
<path d="M13.1233 20.7183L12.7582 20.9008L12.5757 21.2659L13.3058 20.8095L13.1233 20.7183Z" fill="white"/>
<path d="M25.9009 13.143L25.8096 13.0518L14.4009 19.6232L14.5834 19.7144L25.9009 13.143Z" fill="white"/>
<path d="M25.4445 12.4131L13.8532 19.0758L13.762 19.2583H13.8532L25.5358 12.5956L25.4445 12.4131Z" fill="white"/>
<path d="M25.2621 12.0479L14.2184 18.4367L14.0359 18.7105L25.3533 12.2304L25.2621 12.0479Z" fill="white"/>
<path d="M24.8971 11.4089L14.9487 17.1589L14.7661 17.524L24.9883 11.5915L24.8971 11.4089Z" fill="white"/>
<path d="M24.7144 11.135L15.3136 16.5199L15.1311 16.885L24.8057 11.3175L24.7144 11.135Z" fill="white"/>
<path d="M24.3494 10.4966L16.0439 15.3339L15.8613 15.6077L24.4407 10.6791L24.3494 10.4966Z" fill="white"/>
<path d="M24.1668 10.2227L16.4089 14.6949L16.2263 14.9687L24.2581 10.4052L24.1668 10.2227Z" fill="white"/>
<path d="M23.8018 9.58374L17.1391 13.4171L16.9565 13.7821L23.893 9.76628L23.8018 9.58374Z" fill="white"/>
<path d="M23.6191 9.30981L17.5041 12.7781L17.3215 13.1431L23.7104 9.40108L23.6191 9.30981Z" fill="white"/>
<path d="M23.2541 8.6709L18.2343 11.5003L18.0518 11.8653L23.3454 8.76217L23.2541 8.6709Z" fill="white"/>
<path d="M23.0715 8.30615L18.5993 10.953L18.4167 11.2268L23.1628 8.48869L23.0715 8.30615Z" fill="white"/>
<path d="M22.7065 7.66699L19.3295 9.67493L19.147 9.94874L22.7978 7.84953L22.7065 7.66699Z" fill="white"/>
<path d="M22.5239 7.39331L19.6945 9.03616L19.512 9.40124L22.6151 7.57585L22.5239 7.39331Z" fill="white"/>
<path d="M22.1589 6.75415L20.4247 7.75812L20.2422 8.1232L22.2501 6.93669L22.1589 6.75415Z" fill="white"/>
<path d="M21.9764 6.48047L20.7899 7.21063L20.5161 7.48444L22.0677 6.57174L21.9764 6.48047Z" fill="white"/>
<path d="M21.6112 5.8418L21.4286 5.93307L21.2461 6.20688L21.7024 6.02434L21.6112 5.8418Z" fill="white"/>
</g>
<defs>
<clipPath id="clip0">
<rect width="166" height="37.3294" fill="white"/>
</clipPath>
</defs>
</svg>
