<svg xmlns="http://www.w3.org/2000/svg" fill="none" viewBox="0 0 333 234"><defs/><path fill="#fff" d="M194.2 67.6c18.17 0 32.9-14.73 32.9-32.9 0-18.17-14.73-32.9-32.9-32.9-18.17 0-32.9 14.73-32.9 32.9 0 18.17 14.73 32.9 32.9 32.9z"/><path fill="#425371" d="M194.2 68.9c-18.9 0-34.2-15.4-34.2-34.2C160 15.9 175.3.5 194.2.5c18.9 0 34.2 15.3 34.2 34.2 0 18.9-15.4 34.2-34.2 34.2zm0-65.8c-17.4 0-31.6 14.2-31.6 31.6 0 17.4 14.2 31.6 31.6 31.6 17.4 0 31.6-14.2 31.6-31.6 0-17.4-14.2-31.6-31.6-31.6z"/><path fill="#F47D24" d="M194.2 5.1c-16.3 0-29.4 13.2-29.4 29.6 0 16.4 13.1 29.6 29.4 29.6 16.3 0 29.4-13.2 29.4-29.6 0-16.4-13.2-29.6-29.4-29.6zm13.3 42.7c-.9 4.1-4.6 7.4-8.8 7.4h-9.2c-4.2 0-7.8-3.4-8.8-7.4v-.4l-2.6-10.2c3.5 2.8 7.7 5.3 11.7 6.3.5 1 1.7 2.3 2.9 2.3h2.9c1.4 0 2.4-1.4 3-2.4 4-.8 7.9-2.9 11.4-5.7l-2.5 10.1zm6.2-24.3l-2 7.8c-3.4 3.9-8.4 7.1-13.2 8.3-.6-.8-1.6-1-2.6-1H193c-1.1 0-2.1.3-2.7 1.2-4.9-1.2-10-4.3-13.4-8.2l-2-7.8v-.3.1c0-1.9 1.6-2.8 3.4-2.8h32.2c1.9 0 3.2.6 3.2 2.5"/><path fill="#425371" d="M104.3 66.7l37.5-65c.3-.6 1.2-.6 1.5 0l37.5 65c.3.6-.1 1.3-.8 1.3h-75c-.6 0-1-.7-.7-1.3z"/><path fill="#425371" d="M165 44.9l-6.1-10.5L142.6 6l-16.4 28.4-16.4 28.4-1.4 2.5h68.5L165 44.9z"/><path fill="#7BA3C8" d="M142.6 11.8l-13.9 24 13.9 8.1 13.9-8.1-13.9-24z"/><path fill="#4E73A6" d="M127.2 38.3l-12.4 21.6 2.4-1.4 22.5-13-12.5-7.2z"/><path fill="#FEE000" d="M116.2 62.4h18.6l27.7-16-4.6-8.1-6.7 3.9-35 20.2z"/><path fill="#425371" d="M164 48.9l-23.5 13.5h31.3L164 48.9z"/><path fill="#fff" d="M165 44.9l-6.1-10.5L142.6 6l-16.4 28.4-16.4 28.4-1.4 2.5h68.5L165 44.9zm-1 4l7.8 13.5h-31.2L164 48.9zm-7.5-13.1l-13.9 8-13.9-8 13.9-24.1 13.9 24.1zm-29.3 2.5l12.5 7.2-22.5 13-2.4 1.4 12.4-21.6zm24 3.9l6.7-3.8 4.6 8-27.8 16h-18.6l35.1-20.2z"/><path fill="#333" d="M124.3 106.7H1.1c-.6 0-1.1-.6-1.1-1.3 0-.7.5-1.3 1.1-1.3h123.2c.6 0 1.1.6 1.1 1.3 0 .7-.5 1.3-1.1 1.3zM331.4 106.7H208.3c-.6 0-1.1-.6-1.1-1.3 0-.7.5-1.3 1.1-1.3h123.2c.6 0 1.1.6 1.1 1.3-.1.7-.6 1.3-1.2 1.3zM145.4 114.6h-1.8V98.4h-6v-1.7h13.7v1.7h-6v16.2h.1zM159.1 96.8h1.8v7.7h9.7v-7.7h1.8v17.8h-1.8v-8.4h-9.7v8.4h-1.8V96.8zM184.1 112.9h9.5v1.7h-11.4V96.8h11v1.7H184v6.1h8.6v1.7H184v6.6h.1zM38.8 162.1H18.4c-2.6 0-5.1-.4-7.3-1.2-2.2-.8-4.2-1.9-5.8-3.4-1.6-1.5-2.9-3.3-3.8-5.4-.9-2.1-1.4-4.5-1.4-7.3 0-2.5.5-4.9 1.4-7 .9-2.1 2.2-3.9 3.8-5.5 1.6-1.5 3.5-2.7 5.7-3.5 2.2-.8 4.5-1.3 7-1.3s4.8.4 7 1.3 4.1 2 5.7 3.6c1.6 1.5 2.9 3.3 3.8 5.4.9 2.1 1.4 4.4 1.4 7 0 1.2-.1 2.4-.4 3.5-.3 1.1-.7 2.2-1.2 3.2s-1.2 1.9-2.1 2.7c-.9.8-1.9 1.5-3 2v.1h9.4v5.8h.2zM7.9 144.9c0 1.5.3 2.8.8 4.1.5 1.3 1.3 2.4 2.2 3.3.9.9 2 1.7 3.3 2.2 1.2.5 2.6.8 4 .8s2.8-.3 4-.8c1.2-.5 2.3-1.3 3.3-2.2.9-.9 1.7-2 2.2-3.3.5-1.3.8-2.6.8-4.1 0-1.5-.3-2.8-.8-4.1-.5-1.3-1.3-2.4-2.2-3.3-.9-.9-2-1.7-3.3-2.2-1.2-.5-2.6-.8-4-.8s-2.8.3-4 .8c-1.2.5-2.3 1.3-3.3 2.2-.9.9-1.7 2-2.2 3.3-.6 1.3-.8 2.6-.8 4.1zM71.3 149.1c0 2-.3 3.8-.9 5.5-.6 1.7-1.5 3.1-2.7 4.4-1.2 1.2-2.7 2.2-4.4 2.9-1.8.7-3.8 1-6.1 1s-4.4-.3-6.2-1c-1.8-.7-3.3-1.7-4.4-2.9-1.2-1.2-2.1-2.7-2.7-4.4-.6-1.7-.9-3.5-.9-5.5v-20.6h7.4v20.4c0 1 .2 2 .5 2.9.3.9.8 1.7 1.4 2.3.6.7 1.3 1.2 2.2 1.5.8.4 1.8.5 2.7.5.9 0 1.9-.2 2.7-.5.8-.4 1.5-.9 2.1-1.5.6-.6 1.1-1.4 1.4-2.3.3-.9.5-1.9.5-2.9v-20.4h7.4v20.6zM78.6 128.5H86v33.7h-7.4v-33.7zM91.4 155.3l17.1-20.3H92.1v-6.5h25.4v6.6l-16.7 20.3h17.3v6.8H91.4v-6.9zM138.5 128.5H161v6.8h-15.2v6.8h14v6.8h-14V162h-7.4v-33.5h.1zM195.2 149.1c0 2-.3 3.8-.9 5.5-.6 1.7-1.5 3.1-2.7 4.4-1.2 1.2-2.7 2.2-4.4 2.9-1.8.7-3.8 1-6.1 1s-4.4-.3-6.2-1c-1.8-.7-3.3-1.7-4.4-2.9-1.2-1.2-2.1-2.7-2.7-4.4-.6-1.7-.9-3.5-.9-5.5v-20.6h7.4v20.4c0 1 .2 2 .5 2.9.3.9.8 1.7 1.4 2.3.6.7 1.3 1.2 2.2 1.5.8.4 1.8.5 2.7.5.9 0 1.9-.2 2.7-.5.8-.4 1.5-.9 2.1-1.5.6-.6 1.1-1.4 1.4-2.3.3-.9.5-1.9.5-2.9v-20.4h7.4v20.6zM202.5 128.5h10.1l14.3 23.4h.1v-23.4h7.4v33.7h-9.7l-14.7-24v24h-7.4v-33.7h-.1zM241.8 128.5h10.1l14.3 23.4h.1v-23.4h7.4v33.7H264l-14.7-24h-.1v24h-7.4v-33.7zM281.3 128.5h22.9v6.8h-15.5v6.3h14.6v6.8h-14.6v6.8H305v6.8h-23.7v-33.5zM311.7 128.5h7.4v26.8h13.7v6.8h-21.2v-33.6h.1zM27.5 194.4l7.4-17.7h3.4v21.8h-2.2v-18.8H36l-7.9 18.8H27l-7.9-18.8H19v18.8h-2.2v-21.8h3.4l7.3 17.7zM53 198.5h-2.6l9.5-21.8h2.2l9.5 21.8H69l-2.4-5.7H55.4l-2.4 5.7zm3.3-7.8h9.4L61 179.3l-4.7 11.4zM94 180.3c-1-1.4-2.4-2.1-4.2-2.1-.6 0-1.1.1-1.7.2-.6.2-1.1.4-1.5.7-.4.3-.8.7-1.1 1.2-.3.5-.4 1.1-.4 1.8 0 1 .3 1.7.8 2.3.6.5 1.2 1 2.1 1.3.8.3 1.7.7 2.7.9 1 .3 1.9.6 2.7 1.1.8.5 1.5 1.1 2.1 1.8.6.7.8 1.8.8 3.1 0 1-.2 1.9-.6 2.7-.4.8-1 1.5-1.7 2s-1.5.9-2.3 1.2c-.9.3-1.7.4-2.6.4-1.3 0-2.6-.3-3.8-.8-1.2-.5-2.2-1.3-3.1-2.5l2-1.4c.5.8 1.1 1.4 2 1.9.8.5 1.8.7 3 .7.6 0 1.1-.1 1.7-.3.6-.2 1-.4 1.5-.8.4-.3.8-.8 1.1-1.2.3-.5.4-1.1.4-1.7 0-.8-.2-1.4-.5-1.9s-.7-.9-1.3-1.3c-.5-.3-1.1-.6-1.8-.8-.7-.2-1.4-.5-2.1-.7-.7-.2-1.4-.5-2.1-.8-.7-.3-1.3-.7-1.8-1.1-.5-.4-.9-1-1.3-1.7-.3-.7-.5-1.5-.5-2.5s.2-2 .6-2.7c.4-.8.9-1.4 1.6-1.9.7-.5 1.4-.9 2.3-1.1.9-.2 1.7-.4 2.6-.4 1.2 0 2.3.2 3.4.6 1.1.4 1.9 1.1 2.8 2.1l-1.8 1.7zM117.1 198.5h-2.2v-19.8h-7.3v-2h16.8v2h-7.3v19.8zM139.2 196.5h11.7v2H137v-21.8h13.5v2h-11.3v7.4h10.6v2h-10.6v8.4zM166.6 198.5h-2.2v-21.8h6.7c2.2 0 4 .5 5.2 1.4 1.3 1 1.9 2.4 1.9 4.4 0 1.5-.5 2.8-1.4 3.8-1 1-2.3 1.6-4.1 1.8l6.3 10.4h-2.7l-6-10.1h-3.7v10.1zm0-12.2h3.9c1 0 1.8-.1 2.5-.3.7-.2 1.2-.5 1.6-.8.4-.3.7-.7.9-1.2.2-.5.3-1 .3-1.5s-.1-1-.3-1.5c-.2-.5-.5-.9-.9-1.2-.4-.3-1-.6-1.6-.8-.7-.2-1.5-.3-2.5-.3h-3.9v7.6zM209.8 195c-.4.6-.8 1.1-1.4 1.6-.6.5-1.2.9-1.9 1.3s-1.5.6-2.3.8c-.8.2-1.7.3-2.6.3-1.6 0-3.1-.3-4.5-.9-1.4-.6-2.6-1.4-3.6-2.4s-1.8-2.2-2.4-3.6c-.6-1.4-.9-2.9-.9-4.6 0-1.7.3-3.2.9-4.6.6-1.4 1.4-2.6 2.4-3.6s2.2-1.8 3.6-2.4c1.4-.6 2.9-.9 4.5-.9 1.4 0 2.7.3 4.1.8 1.4.5 2.5 1.4 3.5 2.6l-1.9 1.4c-.2-.3-.5-.7-.9-1-.4-.3-.8-.7-1.3-.9-.5-.3-1-.5-1.6-.6-.6-.2-1.1-.2-1.7-.2-1.4 0-2.6.3-3.8.8-1.2.5-2 1.2-2.8 2.1-.8.9-1.4 1.9-1.8 3-.4 1.1-.6 2.3-.6 3.6 0 1.3.2 2.4.6 3.6.4 1.1 1 2.1 1.8 3 .8.9 1.7 1.5 2.8 2.1 1.1.5 2.4.8 3.8.8.6 0 1.1-.1 1.7-.2.6-.1 1.1-.3 1.7-.5.5-.2 1.1-.6 1.5-1 .5-.4.9-.9 1.3-1.6l1.8 1.2zM225 196.5h10.2v2h-12.4v-21.8h2.2v19.8zM247 198.5h-2.6l9.5-21.8h2.2l9.5 21.8H263l-2.4-5.7h-11.1l-2.5 5.7zm3.3-7.8h9.4l-4.7-11.4-4.7 11.4zM288 180.3c-1-1.4-2.4-2.1-4.2-2.1-.6 0-1.1.1-1.7.2-.6.2-1.1.4-1.5.7-.4.3-.8.7-1.1 1.2-.3.5-.4 1.1-.4 1.8 0 1 .3 1.7.8 2.3.6.5 1.2 1 2.1 1.3.8.3 1.7.7 2.7.9 1 .3 1.9.6 2.7 1.1.8.5 1.5 1.1 2.1 1.8.6.7.8 1.8.8 3.1 0 1-.2 1.9-.6 2.7-.4.8-1 1.5-1.7 2s-1.5.9-2.3 1.2c-.9.3-1.7.4-2.6.4-1.3 0-2.6-.3-3.8-.8-1.2-.5-2.2-1.3-3.1-2.5l2-1.4c.5.8 1.1 1.4 2 1.9.8.5 1.8.7 3 .7.6 0 1.1-.1 1.7-.3.6-.2 1-.4 1.5-.8.4-.3.8-.8 1.1-1.2.3-.5.4-1.1.4-1.7 0-.8-.2-1.4-.5-1.9s-.7-.9-1.3-1.3c-.5-.3-1.1-.6-1.8-.8-.7-.2-1.4-.5-2.1-.7-.7-.2-1.4-.5-2.1-.8-.7-.3-1.3-.7-1.8-1.1-.5-.4-.9-1-1.3-1.7-.3-.7-.5-1.5-.5-2.5s.2-2 .6-2.7c.4-.8.9-1.4 1.6-1.9.7-.5 1.4-.9 2.3-1.1.9-.2 1.7-.4 2.6-.4 1.2 0 2.3.2 3.4.6 1.1.4 1.9 1.1 2.8 2.1l-1.8 1.7zM314.4 180.3c-1-1.4-2.4-2.1-4.2-2.1-.6 0-1.1.1-1.7.2-.6.2-1.1.4-1.5.7-.4.3-.8.7-1.1 1.2-.3.5-.4 1.1-.4 1.8 0 1 .3 1.7.8 2.3.6.5 1.2 1 2.1 1.3.8.3 1.7.7 2.7.9 1 .3 1.9.6 2.7 1.1.8.5 1.5 1.1 2.1 1.8.6.7.8 1.8.8 3.1 0 1-.2 1.9-.6 2.7-.4.8-1 1.5-1.7 2s-1.5.9-2.3 1.2c-.9.3-1.7.4-2.6.4-1.3 0-2.6-.3-3.8-.8-1.2-.5-2.2-1.3-3.1-2.5l2-1.4c.5.8 1.1 1.4 2 1.9.8.5 1.8.7 3 .7.6 0 1.1-.1 1.7-.3.6-.2 1-.4 1.5-.8.4-.3.8-.8 1.1-1.2.3-.5.4-1.1.4-1.7 0-.8-.2-1.4-.5-1.9s-.7-.9-1.3-1.3c-.5-.3-1.1-.6-1.8-.8-.7-.2-1.4-.5-2.1-.7-.7-.2-1.4-.5-2.1-.8-.7-.3-1.3-.7-1.8-1.1-.5-.4-.9-1-1.3-1.7-.3-.7-.5-1.5-.5-2.5s.2-2 .6-2.7c.4-.8.9-1.4 1.6-1.9.7-.5 1.4-.9 2.3-1.1.9-.2 1.7-.4 2.6-.4 1.2 0 2.3.2 3.4.6 1.1.4 1.9 1.1 2.8 2.1l-1.8 1.7zM31.1 225.9h2.4c.3 0 .6 0 1 .1.3.1.6.2.8.3l.6.6c.1.3.2.6.2.9 0 .4-.1.8-.4 1.1-.2.3-.6.5-1 .6.6 0 1 .2 1.3.6.3.3.5.8.5 1.4 0 .1 0 .3-.1.6-.1.2-.2.5-.4.7-.2.2-.5.5-.9.6-.4.2-.9.3-1.5.3h-2.4v-7.8h-.1zm.8 3.5h1.6c.2 0 .4 0 .6-.1.2 0 .4-.1.5-.2.2-.1.3-.3.4-.4.1-.1.1-.4.1-.6 0-.1 0-.2-.1-.3-.1-.1-.1-.3-.2-.4-.1-.1-.3-.3-.5-.4-.2-.1-.5-.2-.9-.2h-1.5v2.6zm0 3.7h1.5c.3 0 .6 0 .8-.1.2-.1.5-.2.7-.3.2-.1.3-.3.4-.5.1-.2.2-.4.2-.7 0-.5-.2-.9-.5-1.2-.3-.3-.8-.4-1.5-.4h-1.6v3.2zM40.8 233.8H40v-3.4l-3-4.5h1l2.4 3.7 2.4-3.7h1l-3 4.5v3.4zM50.7 233.8h-.8v-7.2h-2.6v-.7h6.1v.7h-2.6v7.2h-.1zM54.7 225.9h.8v3.4h4.3v-3.4h.8v7.9h-.8v-3.7h-4.3v3.7h-.8v-7.9zM63.7 233.1h4.2v.7h-5v-7.9h4.9v.7h-4.1v2.7h3.8v.7h-3.8v3.1zM72.8 233.8h-.9l3.4-7.9h.8l3.4 7.9h-.9l-.9-2.1h-4l-.9 2.1zM74 231h3.4l-1.7-4.2L74 231zM84.5 227.2c-.4-.5-.9-.8-1.5-.8-.2 0-.4 0-.6.1-.2.1-.4.1-.5.3-.2.1-.3.3-.4.4-.1.1-.1.4-.1.6 0 .4.1.6.3.8.2.2.5.4.7.5.3.1.6.2 1 .3.4.1.7.2 1 .4.3.2.5.4.7.7.2.3.3.7.3 1.1 0 .4-.1.7-.2 1-.2.3-.4.5-.6.7-.2.2-.5.3-.8.4-.3.1-.6.2-.9.2-.5 0-.9-.1-1.4-.3-.4-.2-.8-.5-1.1-.9l.7-.5c.2.3.4.5.7.7.3.2.7.3 1.1.3.2 0 .4 0 .6-.1.2-.1.4-.2.5-.3.2-.1.3-.3.4-.5.1-.2.2-.4.2-.6 0-.3-.1-.5-.2-.7-.1-.2-.3-.3-.5-.5l-.6-.3c-.2-.1-.5-.2-.7-.2-.2 0-.5-.2-.7-.3-.2-.1-.5-.2-.6-.4-.2-.2-.3-.4-.5-.6-.2-.2-.2-.5-.2-.9s.1-.7.2-1c.1-.3.3-.5.6-.7.3-.2.5-.3.8-.4.3-.1.6-.1.9-.1.4 0 .9.1 1.2.2.4.1.7.4 1 .7l-.8.7zM87.9 229.4h.1l3.7-3.4h1.2l-4 3.6 4.2 4.3h-1.2l-3.9-4.1h-.1v4.1h-.8V226h.8v3.4zM101.4 232.4l2.7-6.4h1.2v7.9h-.8v-6.8l-2.9 6.8h-.4l-2.9-6.8v6.8h-.8V226h1.2l2.7 6.4zM108.4 233.1h4.2v.7h-5v-7.9h4.9v.7h-4.1v2.7h3.8v.7h-3.8v3.1zM116.9 233.8h-.8v-7.2h-2.6v-.7h6.1v.7H117v7.2h-.1zM121 225.9h.8v3.4h4.3v-3.4h.8v7.9h-.8v-3.7h-4.3v3.7h-.8v-7.9zM136.9 229.9c0 .6-.1 1.2-.3 1.7-.2.5-.5.9-.9 1.3s-.8.7-1.3.9c-.5.2-1 .3-1.6.3-.6 0-1.1-.1-1.6-.3-.5-.2-.9-.5-1.3-.9s-.7-.8-.9-1.3c-.2-.5-.3-1.1-.3-1.7 0-.6.1-1.2.3-1.7.2-.5.5-.9.9-1.3s.8-.7 1.3-.9c.5-.2 1-.3 1.6-.3.6 0 1.1.1 1.6.3.5.2.9.5 1.3.9s.7.8.9 1.3c.2.5.3 1.1.3 1.7zm-.9 0c0-.5-.1-.9-.2-1.3s-.4-.8-.6-1.1c-.3-.3-.6-.6-1-.7-.4-.2-.9-.3-1.4-.3-.5 0-1 .1-1.4.3-.4.2-.7.4-1 .7-.3.3-.5.7-.6 1.1-.1.4-.2.8-.2 1.3s.1.9.2 1.3.4.8.6 1.1c.2.3.6.6 1 .7.4.2.9.3 1.4.3.5 0 1-.1 1.4-.3.4-.2.7-.4 1-.7.3-.3.5-.7.6-1.1.1-.4.2-.9.2-1.3zM138.5 225.9h2.6c.5 0 1 .1 1.5.2.5.2.9.4 1.3.7.4.3.7.7 1 1.2.2.5.4 1.1.4 1.7 0 .7-.1 1.2-.4 1.7-.2.5-.6.9-1 1.2-.4.3-.8.6-1.3.7-.5.2-1 .2-1.5.2h-2.6v-7.6zm.8 7.2h1.6c.6 0 1.1-.1 1.6-.3.4-.2.8-.4 1.1-.7.3-.3.5-.6.7-1 .2-.4.2-.8.2-1.2 0-.4-.1-.8-.2-1.2-.1-.4-.4-.7-.7-1-.3-.3-.7-.5-1.1-.7-.4-.2-1-.3-1.6-.3h-1.6v6.4zM146.1 227.6c0-.2 0-.4.1-.6.1-.2.2-.4.4-.5.2-.1.3-.3.5-.3.2-.1.4-.1.6-.1.2 0 .4 0 .6.1.2.1.4.2.5.3.1.1.3.3.4.5.1.2.1.4.1.6 0 .2 0 .4-.1.6-.1.2-.2.4-.4.5-.2.1-.3.3-.5.3-.2.1-.4.1-.6.1-.2 0-.4 0-.6-.1-.2-.1-.4-.2-.5-.3-.1-.1-.3-.3-.4-.5-.1-.2-.1-.4-.1-.6zm.3 0c0 .2 0 .4.1.5.1.2.2.3.3.4.1.1.3.2.4.3.1.1.3.1.5.1s.4 0 .5-.1c.1-.1.3-.2.4-.3.1-.1.2-.3.3-.4.1-.2.1-.4.1-.5 0-.2 0-.4-.1-.5-.1-.1-.2-.3-.3-.4-.1-.1-.3-.2-.4-.3-.1-.1-.3-.1-.5-.1s-.4 0-.5.1c-.2.1-.3.2-.4.3-.1.1-.2.3-.3.4-.1.1-.1.3-.1.5zm.7-.9h.7c.2 0 .4 0 .5.1.1.1.2.2.2.4s0 .3-.1.4c-.1.1-.2.1-.4.1l.5.8h-.3l-.5-.8h-.3v.8h-.3v-1.8zm.3.8h.7l.1-.1v-.2-.2l-.1-.1h-.1H147.4v.6zM160.4 232.6c-.1.2-.3.4-.5.6-.2.2-.4.3-.7.5-.3.1-.5.2-.8.3-.3.1-.6.1-.9.1-.6 0-1.1-.1-1.6-.3-.5-.2-.9-.5-1.3-.9s-.7-.8-.9-1.3c-.2-.5-.3-1.1-.3-1.7 0-.6.1-1.2.3-1.7.2-.5.5-.9.9-1.3s.8-.7 1.3-.9c.5-.2 1-.3 1.6-.3.5 0 1 .1 1.5.3.5.2.9.5 1.3 1l-.7.5c-.1-.1-.2-.3-.3-.4-.1-.1-.3-.2-.5-.3-.2-.1-.4-.2-.6-.2-.2-.1-.4-.1-.6-.1-.5 0-1 .1-1.4.3-.4.2-.7.4-1 .7-.3.3-.5.7-.6 1.1-.1.4-.2.8-.2 1.3s.1.9.2 1.3.4.8.6 1.1c.2.3.6.6 1 .7.4.2.9.3 1.4.3.2 0 .4 0 .6-.1.2 0 .4-.1.6-.2.2-.1.4-.2.6-.4.2-.2.3-.3.5-.6l.5.6zM169.6 229.9c0 .6-.1 1.2-.3 1.7-.2.5-.5.9-.9 1.3s-.8.7-1.3.9c-.5.2-1 .3-1.6.3-.6 0-1.1-.1-1.6-.3-.5-.2-.9-.5-1.3-.9s-.7-.8-.9-1.3c-.2-.5-.3-1.1-.3-1.7 0-.6.1-1.2.3-1.7.2-.5.5-.9.9-1.3s.8-.7 1.3-.9c.5-.2 1-.3 1.6-.3.6 0 1.1.1 1.6.3.5.2.9.5 1.3.9s.7.8.9 1.3c.2.5.3 1.1.3 1.7zm-.9 0c0-.5-.1-.9-.2-1.3s-.4-.8-.6-1.1c-.3-.3-.6-.6-1-.7-.4-.2-.9-.3-1.4-.3-.5 0-1 .1-1.4.3-.4.2-.7.4-1 .7-.3.3-.5.7-.6 1.1-.1.4-.2.8-.2 1.3s.1.9.2 1.3.4.8.6 1.1c.2.3.6.6 1 .7.4.2.9.3 1.4.3.5 0 1-.1 1.4-.3.4-.2.7-.4 1-.7.3-.3.5-.7.6-1.1.1-.4.2-.9.2-1.3zM175.2 232.4l2.7-6.4h1.2v7.9h-.8v-6.8l-2.9 6.8h-.4l-2.9-6.8v6.8h-.8V226h1.2l2.7 6.4zM181.4 225.9h2.3c.8 0 1.4.2 1.9.5.5.4.7.9.7 1.6 0 .7-.2 1.2-.7 1.6-.5.4-1.1.5-1.9.5h-1.5v3.7h-.8v-7.9zm.8 3.5h1.3c.4 0 .7 0 .9-.1l.6-.3c.1-.1.3-.3.3-.4.1-.2.1-.3.1-.5s0-.4-.1-.5c-.1-.2-.2-.3-.3-.4-.1-.1-.3-.2-.6-.3-.2-.1-.6-.1-.9-.1h-1.3v2.6zM187 233.8h-.9l3.4-7.9h.8l3.4 7.9h-.9l-.9-2.1h-4l-.9 2.1zm1.2-2.8h3.4l-1.7-4.2-1.7 4.2zM200.7 232.6v-6.7h.8v7.9h-1l-4.7-6.8v6.8h-.8v-7.9h1l4.7 6.7zM206.3 233.8h-.8v-3.4l-3-4.5h1l2.4 3.7 2.4-3.7h1l-3 4.5v3.4zM213.5 233.8h-.9l3.4-7.9h.8l3.4 7.9h-.9l-.9-2.1h-4l-.9 2.1zm1.1-2.8h3.4l-1.7-4.2-1.7 4.2zM227.1 232.6v-6.7h.8v7.9h-1l-4.7-6.8v6.8h-.8v-7.9h1l4.7 6.7zM230.1 225.9h2.6c.5 0 1 .1 1.5.2.5.2.9.4 1.3.7.4.3.7.7 1 1.2.2.5.4 1.1.4 1.7 0 .7-.1 1.2-.4 1.7-.2.5-.6.9-1 1.2-.4.3-.8.6-1.3.7-.5.2-1 .2-1.5.2h-2.6v-7.6zm.8 7.2h1.6c.6 0 1.1-.1 1.6-.3.4-.2.8-.4 1.1-.7.3-.3.5-.6.7-1 .2-.4.2-.8.2-1.2 0-.4-.1-.8-.2-1.2-.1-.4-.4-.7-.7-1-.3-.3-.7-.5-1.1-.7-.4-.2-1-.3-1.6-.3h-1.6v6.4zM241.9 225.9h2.4c.3 0 .6 0 1 .1.3.1.6.2.8.3l.6.6c.1.3.2.6.2.9 0 .4-.1.8-.4 1.1-.2.3-.6.5-1 .6.6 0 1 .2 1.3.6.3.3.5.8.5 1.4 0 .1 0 .3-.1.6-.1.2-.2.5-.4.7-.2.2-.5.5-.9.6-.4.2-.9.3-1.5.3H242v-7.8h-.1zm.8 3.5h1.6c.2 0 .4 0 .6-.1.2 0 .4-.1.5-.2.2-.1.3-.3.4-.4.1-.1.1-.4.1-.6 0-.1 0-.2-.1-.3-.1-.1-.1-.3-.2-.4-.1-.1-.3-.3-.5-.4-.2-.1-.5-.2-.9-.2h-1.5v2.6zm0 3.7h1.5c.3 0 .6 0 .8-.1.2-.1.5-.2.7-.3.2-.1.3-.3.4-.5.1-.2.2-.4.2-.7 0-.5-.2-.9-.5-1.2-.3-.3-.8-.4-1.5-.4h-1.6v3.2zM254.8 230.9c0 .3 0 .7-.1 1-.1.3-.2.7-.4 1-.2.3-.5.6-.9.8-.4.2-.9.3-1.4.3-.6 0-1.1-.1-1.5-.3-.4-.2-.7-.5-.9-.8-.2-.3-.4-.7-.4-1 0-.3-.1-.7-.1-1v-5h.8v4.9c0 .4 0 .7.1 1 .1.3.2.5.3.7.1.2.3.3.4.4.2.1.3.2.5.3.2.1.3.1.4.1h.8c.2 0 .3-.1.4-.1.2-.1.3-.1.5-.3.2-.1.3-.3.4-.4.1-.2.2-.4.3-.7.1-.3.1-.6.1-1v-4.9h.8v5h-.1zM263.4 232.6c-.1.2-.3.4-.5.6-.2.2-.4.3-.7.5-.3.1-.5.2-.8.3-.3.1-.6.1-.9.1-.6 0-1.1-.1-1.6-.3-.5-.2-.9-.5-1.3-.9s-.7-.8-.9-1.3c-.2-.5-.3-1.1-.3-1.7 0-.6.1-1.2.3-1.7.2-.5.5-.9.9-1.3s.8-.7 1.3-.9c.5-.2 1-.3 1.6-.3.5 0 1 .1 1.5.3.5.2.9.5 1.3 1l-.7.5c-.1-.1-.2-.3-.3-.4-.1-.1-.3-.2-.5-.3-.2-.1-.4-.2-.6-.2-.2-.1-.4-.1-.6-.1-.5 0-1 .1-1.4.3-.4.2-.7.4-1 .7-.3.3-.5.7-.6 1.1-.1.4-.2.8-.2 1.3s.1.9.2 1.3.4.8.6 1.1c.2.3.6.6 1 .7.4.2.9.3 1.4.3.2 0 .4 0 .6-.1.2 0 .4-.1.6-.2.2-.1.4-.2.6-.4.2-.2.3-.3.5-.6l.5.6zM265.7 229.4h.1l3.7-3.4h1.2l-4 3.6 4.2 4.3h-1.2l-3.9-4.1h-.1v4.1h-.8V226h.8v3.4zM272.9 233.1h4.2v.7h-5v-7.9h4.9v.7h-4.1v2.7h3.8v.7h-3.8v3.1zM281.4 233.8h-.8v-7.2H278v-.7h6.1v.7h-2.6v7.2h-.1zM285.3 233.3c0 .2-.1.3-.2.4-.1.1-.3.2-.4.2-.1 0-.3-.1-.4-.2-.1-.1-.2-.3-.2-.4 0-.1.1-.3.2-.4.1-.1.3-.2.4-.2.1 0 .3.1.4.2.1.1.2.2.2.4zM288.3 233.8h-.8v-7.9h.8v7.9zM298.3 229.9c0 .6-.1 1.2-.3 1.7-.2.5-.5.9-.9 1.3s-.8.7-1.3.9c-.5.2-1 .3-1.6.3-.6 0-1.1-.1-1.6-.3-.5-.2-.9-.5-1.3-.9s-.7-.8-.9-1.3c-.2-.5-.3-1.1-.3-1.7 0-.6.1-1.2.3-1.7.2-.5.5-.9.9-1.3s.8-.7 1.3-.9c.5-.2 1-.3 1.6-.3.6 0 1.1.1 1.6.3.5.2.9.5 1.3.9s.7.8.9 1.3c.2.5.3 1.1.3 1.7zm-.9 0c0-.5-.1-.9-.2-1.3s-.4-.8-.6-1.1c-.3-.3-.6-.6-1-.7-.4-.2-.9-.3-1.4-.3-.5 0-1 .1-1.4.3-.4.2-.7.4-1 .7-.3.3-.5.7-.6 1.1-.1.4-.2.8-.2 1.3s.1.9.2 1.3.4.8.6 1.1c.2.3.6.6 1 .7.4.2.9.3 1.4.3.5 0 1-.1 1.4-.3.4-.2.7-.4 1-.7.3-.3.5-.7.6-1.1.1-.4.2-.9.2-1.3zM299.1 227.6c0-.2 0-.4.1-.6.1-.2.2-.4.4-.5.2-.1.3-.3.5-.3.2-.1.4-.1.6-.1.2 0 .4 0 .6.1.2.1.4.2.5.3.1.1.3.3.4.5.1.2.1.4.1.6 0 .2 0 .4-.1.6-.1.2-.2.4-.4.5-.2.1-.3.3-.5.3-.2.1-.4.1-.6.1-.2 0-.4 0-.6-.1-.2-.1-.4-.2-.5-.3-.1-.1-.3-.3-.4-.5-.1-.2-.1-.4-.1-.6zm.2 0c0 .2 0 .4.1.5.1.2.2.3.3.4.1.1.3.2.4.3.1.1.3.1.5.1s.4 0 .5-.1c.1-.1.3-.2.4-.3.1-.1.2-.3.3-.4.1-.2.1-.4.1-.5 0-.2 0-.4-.1-.5-.1-.1-.2-.3-.3-.4-.1-.1-.3-.2-.4-.3-.1-.1-.3-.1-.5-.1s-.4 0-.5.1c-.2.1-.3.2-.4.3-.1.1-.2.3-.3.4 0 .1-.1.3-.1.5zm.8-.9h.7c.2 0 .4 0 .5.1.1.1.2.2.2.4s0 .3-.1.4c-.1.1-.2.1-.4.1l.5.8h-.3l-.5-.8h-.3v.8h-.3v-1.8zm.2.8h.7l.1-.1v-.2-.2l-.1-.1h-.1H300.3v.6z"/></svg>