<svg width="92" height="11" fill="none" xmlns="http://www.w3.org/2000/svg"><path d="M3.564 10.132c-.432 0-.82-.036-1.164-.108a17.253 17.253 0 01-1.152-.288 3.721 3.721 0 00-.564-.132l.108-2.22h.972l.264 1.548c.104.112.288.212.552.3.272.088.58.132.924.132.536 0 .936-.116 1.2-.348.272-.24.408-.572.408-.996 0-.28-.08-.52-.24-.72a2.184 2.184 0 00-.66-.552c-.28-.168-.664-.36-1.152-.576-.664-.304-1.216-.664-1.656-1.08-.432-.424-.648-.996-.648-1.716 0-.448.116-.852.348-1.212.232-.368.576-.656 1.032-.864C2.6 1.084 3.164.976 3.828.976c.392 0 .736.028 1.032.084.304.056.632.132.984.228.208.056.364.092.468.108l-.072 2.1h-.96L5.028 2.02c-.072-.072-.216-.14-.432-.204a2.267 2.267 0 00-.72-.108c-.48 0-.844.112-1.092.336-.24.216-.36.508-.36.876 0 .296.088.552.264.768.184.216.404.4.66.552.256.144.66.352 1.212.624.448.216.832.428 1.152.636.32.208.596.48.828.816.232.328.348.716.348 1.164 0 .44-.112.86-.336 1.26-.216.4-.576.732-1.08.996-.496.264-1.132.396-1.908.396zm3.45-9.048h3.6v.744l-1.044.156 1.512 5.412.276 1.332.276-1.332 1.284-4.392-.335-1.02-.793-.156v-.744h3.757v.744l-1.152.156 1.5 5.412.323 1.44.253-1.44 1.367-5.412-1.08-.156v-.744h2.893v.744l-.768.156-2.28 8.076h-1.585l-1.655-5.604-1.585 5.604h-1.56L7.747 1.996l-.732-.168v-.744zm13.988.9l-1.02-.156v-.744h3.84v.744l-1.056.156V9.16l1.056.132V10h-3.84v-.72l1.02-.12V1.984zm4.79 0l-.9-.156v-.744h1.811c.168 0 .428-.008.78-.024.464-.032.884-.048 1.26-.048.832 0 1.488.104 1.968.312.488.2.832.492 1.032.876.208.376.312.856.312 1.44 0 1.008-.316 1.792-.948 2.352-.624.56-1.492.84-2.604.84-.44 0-.756-.012-.948-.036V9.16l1.608.12V10h-4.32v-.72l.948-.12V1.984zm1.751 4.044c.184.04.496.06.936.06.536 0 .964-.184 1.284-.552.328-.376.492-.996.492-1.86 0-.672-.148-1.16-.444-1.464-.288-.312-.732-.468-1.332-.468-.224 0-.456.016-.696.048a1.948 1.948 0 01-.24.024v4.212zm6.17-4.044l-.96-.156v-.744h6.396l.156 2.016h-.84l-.396-1.188-2.592-.108v3.228l1.668-.036.192-.984h.768v2.904h-.768l-.192-1.032-1.668-.036v3.384l2.904-.144.696-1.536.9.252L39.665 10h-6.9v-.72l.948-.12V1.984zm15.315 3.792l-.972.132a4.515 4.515 0 01-.24 1.548c-.168.488-.4.888-.696 1.2.272.248.524.432.756.552.232.12.5.188.804.204v.528c-.072.04-.204.072-.396.096-.184.024-.34.036-.468.036-.28 0-.536-.052-.768-.156-.224-.104-.484-.28-.78-.528a3.042 3.042 0 01-1.044.552c-.392.112-.78.168-1.164.168-.976 0-1.752-.208-2.328-.624-.568-.416-.852-.992-.852-1.728 0-.512.164-.952.492-1.32.336-.368.772-.664 1.308-.888-.696-.88-1.044-1.704-1.044-2.472 0-.376.104-.724.312-1.044.208-.32.492-.576.852-.768a2.606 2.606 0 011.224-.288c.464 0 .856.08 1.176.24.328.16.572.368.732.624.16.256.24.52.24.792 0 .456-.084.844-.252 1.164-.168.32-.388.592-.66.816-.272.224-.656.496-1.152.816a47.34 47.34 0 002.208 2.46l.3.288c.2-.256.344-.552.432-.888a4.196 4.196 0 00.12-1.38l-.972-.132v-.66h2.832v.66zM42.824 2.92c0 .408.084.776.252 1.104.176.32.4.636.672.948.496-.4.844-.76 1.044-1.08.2-.32.3-.72.3-1.2 0-.296-.08-.564-.24-.804-.16-.248-.44-.372-.84-.372-.336 0-.62.132-.852.396-.224.264-.336.6-.336 1.008zm1.332 6.516c.28 0 .56-.04.84-.12.28-.088.528-.212.744-.372a16.36 16.36 0 01-1.056-1.056 125.46 125.46 0 01-1.416-1.632l-.204-.24c-.68.528-1.02 1.08-1.02 1.656 0 .512.184.936.552 1.272.368.328.888.492 1.56.492zm6.502-7.452l-.924-.156v-.744h3.84v.744l-1.151.156v7.164l2.567-.108.756-2.244.972.132L56.346 10h-6.635v-.72l.947-.12V1.984zm7.64 0l-.96-.156v-.744h6.397L63.89 3.1h-.84l-.396-1.188-2.592-.108v3.228l1.668-.036.192-.984h.768v2.904h-.768l-.192-1.032-1.668-.036v3.384l2.904-.144.696-1.536.9.252L64.25 10h-6.9v-.72l.948-.12V1.984zm9.724-.948h1.836L72.63 9.16l.696.12V10h-3.54v-.72l.9-.12-.468-1.56H67.11l-.468 1.572.972.108V10h-3.06l-.012-.72.72-.12 2.76-8.124zm.828 2.028l-.216-.936-.228.948-1.068 3.684h2.64L68.85 3.064zm4.79 6.216l.948-.12V1.984l-.9-.168v-.732h1.74c.152 0 .32-.004.504-.012s.324-.016.42-.024c.416-.032.76-.048 1.032-.048.824 0 1.484.084 1.98.252.496.168.856.424 1.08.768.224.344.336.796.336 1.356 0 .552-.148 1.064-.444 1.536-.296.472-.724.796-1.284.972.32.136.604.384.852.744s.512.828.792 1.404c.2.392.352.676.456.852.112.168.22.264.324.288l.396.12V10h-2.04c-.128 0-.264-.128-.408-.384a15.558 15.558 0 01-.54-1.236 18.038 18.038 0 00-.684-1.536c-.192-.368-.396-.596-.612-.684h-1.236v3l1.104.12V10H73.64v-.72zm3.816-3.852c.456 0 .812-.164 1.068-.492.256-.328.384-.82.384-1.476 0-.584-.128-1.016-.384-1.296-.248-.28-.68-.42-1.296-.42-.224 0-.416.012-.576.036a3.676 3.676 0 01-.3.024v3.6c.096.016.328.024.696.024h.408zm5.792-3.444l-.948-.156v-.744h2.724l3.576 5.4.672 1.368V1.984l-1.032-.156v-.744h2.976v.744l-.924.156V10H88.84l-3.732-5.676-.84-1.584v6.42l1.212.12V10H82.3v-.72l.948-.12V1.984z" fill="#858585"/></svg>