<?xml version="1.0" standalone="no"?>
<!DOCTYPE svg PUBLIC "-//W3C//DTD SVG 20010904//EN"
 "http://www.w3.org/TR/2001/REC-SVG-20010904/DTD/svg10.dtd">
<svg version="1.0" xmlns="http://www.w3.org/2000/svg"
 width="16.000000pt" height="16.000000pt" viewBox="0 0 16.000000 16.000000"
 preserveAspectRatio="xMidYMid meet">
<metadata>
Created by potrace 1.11, written by Peter Selinger 2001-2013
</metadata>
<g transform="translate(0.000000,16.000000) scale(0.003941,-0.003941)"
fill="#000000" stroke="none">
<path d="M2004 3782 c-11 -7 -1985 -3422 -1997 -3453 -3 -9 1 -26 9 -38 l15
-21 1990 0 c1353 0 1997 3 2010 10 10 6 19 21 19 34 0 21 -1952 3418 -1988
3459 -16 18 -39 22 -58 9z m932 -1808 l894 -1549 -1797 -3 c-988 -1 -1798 0
-1800 2 -2 2 400 703 894 1559 494 855 902 1552 906 1548 5 -5 411 -705 903
-1557z"/>
<path d="M1667 2599 c-295 -511 -356 -624 -345 -634 35 -32 701 -407 716 -402
30 8 707 404 707 413 0 11 -708 1243 -715 1243 -3 1 -166 -279 -363 -620z"/>
<path d="M1181 1763 c-140 -237 -599 -1039 -596 -1041 5 -6 1275 729 1275 738
0 6 -623 370 -634 370 -3 0 -23 -30 -45 -67z"/>
<path d="M2554 934 c-329 -190 -603 -350 -609 -355 -5 -5 316 -9 803 -9 447 0
812 2 812 6 0 5 -374 656 -395 686 -10 16 -73 -18 -611 -328z"/>
</g>
</svg>
