<svg xmlns="http://www.w3.org/2000/svg" fill="none" viewBox="0 0 365 352"><defs/><g filter="url(#filter0_d)"><mask id="a" width="351" height="338" x="7" y="2" fill="#000" maskUnits="userSpaceOnUse"><path fill="#fff" d="M7 2h351v338H7z"/><path fill-rule="evenodd" d="M213.778 85.293v-5.178c4.999-7.649 7.733-16.936 7.324-26.918C220.038 27.25 198.114 6 172.146 6h-16.905c-13.672 0-25.74 5.89-33.947 15.255C115.043 12.08 104.506 6 92.8 6H81.274c-12.018 0-22.273 6.41-27.662 15.994C30.042 22.202 11 41.374 11 64.992v20.3c0 23.749 19.252 43.001 43 43.001h102.243c4.204 3.235 9.197 5.472 14.593 6.338a42.97 42.97 0 00-2.024 13.076v1.311c-7.724-5.119-16.91-8.118-26.665-8.118h-16.905c-15.965 0-29.74 8.032-37.734 20.248H61.15c-23.748 0-43 19.252-43 43v10.719c0 20.052 13.725 36.898 32.293 41.657 8.942 9.067 21.284 14.743 34.706 14.743h16.904c12.746 0 24.095-5.119 32.222-13.4h26.064c3.687 0 7.265-.464 10.68-1.336a43.234 43.234 0 00-.802 8.309v10.928a42.84 42.84 0 003.961 18.05c-7.218.482-12.69 6.501-12.386 13.855.317 7.669 6.796 13.886 14.472 13.886h4.846c5.453 0 10.042-3.137 12.13-7.704a42.805 42.805 0 0019.977 4.913h36.214C254.395 328.924 264.889 336 276.743 336h22.391c13.977 0 25.248-9.837 27.527-22.959 12.877-7.429 21.544-21.339 21.544-37.273V264.84c0-23.749-19.252-43-43-43h-47.923c-5.495-3.777-12.107-5.996-19.146-5.996h-25.174a32.17 32.17 0 00-9.693 1.476c.046-.812.069-1.629.069-2.453v-10.719c0-1.207-.05-2.403-.147-3.586 2.785.567 5.668.864 8.621.864H311c23.748 0 43-19.251 43-43v-10.719c0-16.298-9.068-30.479-22.435-37.772-7.88-16.818-25.026-28.678-44.427-28.678h-16.904c-17.322 0-32.065 9.454-39.645 23.45h-18.777c-.907 0-1.806.029-2.699.084a42.816 42.816 0 004.665-19.498z" clip-rule="evenodd"/></mask><path fill="#fff" fill-rule="evenodd" d="M213.778 85.293v-5.178c4.999-7.649 7.733-16.936 7.324-26.918C220.038 27.25 198.114 6 172.146 6h-16.905c-13.672 0-25.74 5.89-33.947 15.255C115.043 12.08 104.506 6 92.8 6H81.274c-12.018 0-22.273 6.41-27.662 15.994C30.042 22.202 11 41.374 11 64.992v20.3c0 23.749 19.252 43.001 43 43.001h102.243c4.204 3.235 9.197 5.472 14.593 6.338a42.97 42.97 0 00-2.024 13.076v1.311c-7.724-5.119-16.91-8.118-26.665-8.118h-16.905c-15.965 0-29.74 8.032-37.734 20.248H61.15c-23.748 0-43 19.252-43 43v10.719c0 20.052 13.725 36.898 32.293 41.657 8.942 9.067 21.284 14.743 34.706 14.743h16.904c12.746 0 24.095-5.119 32.222-13.4h26.064c3.687 0 7.265-.464 10.68-1.336a43.234 43.234 0 00-.802 8.309v10.928a42.84 42.84 0 003.961 18.05c-7.218.482-12.69 6.501-12.386 13.855.317 7.669 6.796 13.886 14.472 13.886h4.846c5.453 0 10.042-3.137 12.13-7.704a42.805 42.805 0 0019.977 4.913h36.214C254.395 328.924 264.889 336 276.743 336h22.391c13.977 0 25.248-9.837 27.527-22.959 12.877-7.429 21.544-21.339 21.544-37.273V264.84c0-23.749-19.252-43-43-43h-47.923c-5.495-3.777-12.107-5.996-19.146-5.996h-25.174a32.17 32.17 0 00-9.693 1.476c.046-.812.069-1.629.069-2.453v-10.719c0-1.207-.05-2.403-.147-3.586 2.785.567 5.668.864 8.621.864H311c23.748 0 43-19.251 43-43v-10.719c0-16.298-9.068-30.479-22.435-37.772-7.88-16.818-25.026-28.678-44.427-28.678h-16.904c-17.322 0-32.065 9.454-39.645 23.45h-18.777c-.907 0-1.806.029-2.699.084a42.816 42.816 0 004.665-19.498z" clip-rule="evenodd"/><path fill="#ACACAC" fill-opacity=".15" d="M213.778 80.115l-2.654-1.734-.516.79v.944h3.17zm7.324-26.918l-3.167.13 3.167-.13zm-99.808-31.942l-2.62 1.785 2.305 3.383 2.698-3.079-2.383-2.09zm-67.682.739l.028 3.17 1.835-.017.9-1.6-2.763-1.553zm102.631 106.299l1.934-2.512-.855-.658h-1.079v3.17zm14.593 6.338l3.02.963 1.119-3.509-3.637-.584-.502 3.13zm-2.024 14.387l-1.752 2.643 4.921 3.262v-5.905h-3.169zm-81.304 12.13v3.17h1.714l.939-1.434-2.653-1.736zm-37.066 95.376l2.257-2.226-.618-.627-.852-.218-.787 3.071zm83.832 1.343v-3.169h-1.331l-.931.949 2.262 2.22zm36.744-1.336l3.111.609.964-4.923-4.86 1.242.785 3.072zm3.159 37.287l.211 3.162 4.604-.308-1.939-4.187-2.876 1.333zm-12.386 13.855l-3.167.13v.001l3.167-.131zm31.448 6.182l1.475-2.806-2.965-1.558-1.393 3.046 2.883 1.318zm56.191 4.913l2.847-1.393-.869-1.777h-1.978v3.17zm77.231-5.727l-1.584-2.746-1.285.741-.254 1.462 3.123.543zm-69.379-91.201l-1.795 2.612.811.558h.984v-3.17zm-54.013-4.52l-3.165-.178-.257 4.581 4.376-1.38-.954-3.023zm-.078-16.758l.632-3.106-4.139-.843.347 4.21 3.16-.261zm8.621.864v3.17-3.17zm99.188 0v-3.169 3.169zm20.565-91.491l-2.87 1.345.44.94.912.498 1.518-2.783zm-100.976-5.228v3.17h1.889l.899-1.66-2.788-1.51zm-21.476.084l-2.824-1.44-2.521 4.947 5.541-.343-.196-3.164zm1.495-24.675v5.177h6.34v-5.178h-6.34zm7.327-26.789c.382 9.313-2.168 17.95-6.811 25.054l5.307 3.469c5.355-8.195 8.275-18.132 7.838-28.782l-6.334.26zM172.146 9.17c24.25 0 44.793 19.891 45.789 44.157l6.334-.26C223.136 25.44 199.832 2.83 172.146 2.83v6.34zm-16.905 0h16.905V2.83h-16.905v6.34zm-31.564 14.174c7.622-8.696 18.829-14.174 31.564-14.174V2.83c-14.609 0-27.538 6.302-36.331 16.336l4.767 4.178zM92.8 9.17c10.592 0 20.176 5.507 25.874 13.87l5.239-3.57C117.11 9.486 105.621 2.83 92.8 2.83v6.34zm-11.526 0H92.8V2.83H81.274v6.34zM56.375 23.547c4.838-8.604 14.048-14.377 24.9-14.377V2.83c-13.186 0-24.487 7.046-30.426 17.61l5.526 3.107zM14.17 64.992c0-21.877 17.639-39.636 39.47-39.828l-.056-6.34C28.276 19.048 7.83 39.632 7.83 64.992h6.34zm0 20.3v-20.3H7.83v20.3h6.34zM54 125.124c-21.998 0-39.83-17.833-39.83-39.83H7.83c0 25.499 20.671 46.17 46.17 46.17v-6.34zm102.243 0H54v6.34h102.243v-6.34zm15.095 6.378c-4.853-.779-9.358-2.793-13.161-5.72l-3.867 5.024c4.604 3.544 10.085 6.003 16.023 6.956l1.005-6.26zm.643 16.206c0-4.228.658-8.297 1.875-12.113l-6.04-1.926a46.143 46.143 0 00-2.174 14.039h6.339zm0 1.311v-1.311h-6.339v1.311h6.339zm-29.834-4.948c9.097 0 17.679 2.795 24.913 7.591l3.503-5.285c-8.213-5.444-18.003-8.646-28.416-8.646v6.34zm-16.905 0h16.905v-6.34h-16.905v6.34zm-35.081 18.814c7.425-11.348 20.216-18.814 35.081-18.814v-6.34c-17.065 0-31.824 8.597-40.386 21.683l5.305 3.471zm-29.012 1.434h26.36v-6.339h-26.36v6.339zm-39.83 39.83c0-21.997 17.833-39.83 39.83-39.83v-6.339c-25.498 0-46.17 20.671-46.17 46.169h6.34zm0 10.719v-10.719h-6.34v10.719h6.34zm29.91 38.586c-17.2-4.408-29.91-20.017-29.91-38.586h-6.34c0 21.534 14.74 39.618 34.676 44.727l1.574-6.141zm33.919 14.644c-12.513 0-24.06-5.292-32.45-13.799l-4.513 4.452c9.494 9.626 22.633 15.687 36.963 15.687v-6.34zm16.904 0H85.148v6.34h16.904v-6.34zm29.96-12.45c-7.546 7.688-18.086 12.45-29.96 12.45v6.34c13.617 0 25.776-5.476 34.484-14.349l-4.524-4.441zm28.326-.949h-26.064v6.339h26.064v-6.339zm9.895-1.239a39.895 39.895 0 01-9.895 1.239v6.339c3.954 0 7.796-.497 11.465-1.435l-1.57-6.143zm3.153 11.381c0-2.637.256-5.211.743-7.7l-6.221-1.218a46.338 46.338 0 00-.862 8.918h6.34zm0 10.928V264.84h-6.34v10.928h6.34zm3.667 16.717a39.67 39.67 0 01-3.667-16.717h-6.34a46.017 46.017 0 004.254 19.382l5.753-2.665zm-12.095 15.057c-.233-5.632 3.924-10.193 9.43-10.562l-.423-6.325c-8.929.597-15.717 8.073-15.341 17.148l6.334-.261zm11.305 10.847c-5.976 0-11.058-4.876-11.305-10.847l-6.334.262c.387 9.367 8.264 16.925 17.639 16.925v-6.34zm4.846 0h-4.846v6.34h4.846v-6.34zm9.247-5.852c-1.581 3.458-5.056 5.852-9.247 5.852v6.34c6.715 0 12.419-3.881 15.013-9.556l-5.766-2.636zm22.86 3.061a39.642 39.642 0 01-18.502-4.549l-2.95 5.612a45.98 45.98 0 0021.452 5.277v-6.34zm36.214 0h-36.214v6.34h36.214v-6.34zm27.313 17.232c-10.578 0-20.002-6.326-24.466-15.455l-5.695 2.785c5.468 11.183 17.03 19.01 30.161 19.01v-6.34zm22.391 0h-22.391v6.34h22.391v-6.34zm24.404-20.332c-2.017 11.617-11.981 20.332-24.404 20.332v6.34c15.532 0 28.11-10.958 30.65-25.587l-6.246-1.085zm21.497-36.73c0 14.755-8.022 27.641-19.958 34.527l3.168 5.491c13.818-7.971 23.13-22.905 23.13-40.018h-6.34zm0-10.928v10.928h6.34V264.84h-6.34zm-39.83-39.83c21.998 0 39.83 17.832 39.83 39.83h6.34c0-25.499-20.671-46.17-46.17-46.17v6.34zm-47.923 0h47.923v-6.34h-47.923v6.34zm-19.146-5.996c6.364 0 12.356 2.006 17.351 5.438l3.591-5.225c-5.995-4.12-13.228-6.553-20.942-6.553v6.34zm-25.174 0h25.174v-6.34h-25.174v6.34zm-8.739 1.329a28.984 28.984 0 018.739-1.329v-6.34c-3.72 0-7.297.566-10.646 1.623l1.907 6.046zm-4.055-5.476c0 .764-.021 1.523-.064 2.275l6.33.356c.049-.871.074-1.748.074-2.631h-6.34zm0-10.719v10.719h6.34v-10.719h-6.34zm-.137-3.325a40.18 40.18 0 01.137 3.325h6.34c0-1.294-.053-2.578-.158-3.847l-6.319.522zm11.781-2.566c-2.74 0-5.411-.276-7.989-.801l-1.265 6.212a46.37 46.37 0 009.254.928v-6.339zm99.188 0h-99.188v6.339H311v-6.339zm39.83-39.831c0 21.998-17.832 39.831-39.83 39.831v6.339c25.499 0 46.17-20.671 46.17-46.17h-6.34zm0-10.719v10.719h6.34v-10.719h-6.34zm-20.783-34.989c12.389 6.759 20.783 19.896 20.783 34.989h6.34c0-17.504-9.743-32.729-24.086-40.555l-3.037 5.566zm-42.909-28.291c18.092 0 34.164 11.075 41.557 26.853l5.741-2.69c-8.368-17.859-26.589-30.503-47.298-30.503v6.34zm-16.904 0h16.904v-6.34h-16.904v6.34zm-36.857 21.79c7.042-13.003 20.732-21.79 36.857-21.79v-6.34c-18.519 0-34.315 10.122-42.432 25.111l5.575 3.019zm-21.565 1.66h18.777v-6.339h-18.777v6.339zm-2.503.078a39.893 39.893 0 012.503-.078v-6.339c-.972 0-1.937.03-2.895.089l.392 6.328zm1.299-22.662a39.642 39.642 0 01-4.319 18.058l5.649 2.879a45.994 45.994 0 005.01-20.937h-6.34z" mask="url(#a)"/></g><path fill="#333" d="M88.36 70.035h-1.585V58.707h7.072V60.1H88.36v3.52h5.136v1.36H88.36v5.056zm8.348 0h-1.504v-7.584h1.504v7.584zm.256-10.32a.883.883 0 01-.304.688.987.987 0 01-.704.272.987.987 0 01-.704-.272.94.94 0 01-.288-.688c0-.277.096-.507.288-.688a.958.958 0 01.704-.288c.277 0 .512.096.704.288.203.181.304.41.304.688zm3.405 2.736a14.518 14.518 0 01.064 1.248h.048a2.18 2.18 0 01.384-.56c.17-.181.362-.336.576-.464.213-.139.448-.245.704-.32.256-.074.522-.112.8-.112.49 0 .912.085 1.264.256.352.16.645.379.88.656.234.277.405.603.512.976.117.373.176.773.176 1.2v4.704h-1.504v-4.208c0-.31-.027-.602-.08-.88a2.014 2.014 0 00-.256-.736 1.431 1.431 0 00-.528-.512c-.224-.128-.512-.192-.864-.192-.598 0-1.088.23-1.472.688-.374.448-.56 1.05-.56 1.808v4.032h-1.504v-5.952a24.372 24.372 0 00-.064-1.632h1.424zm13.68 6.384c-.288.459-.683.81-1.184 1.056a3.555 3.555 0 01-1.552.352 3.957 3.957 0 01-1.584-.304 3.65 3.65 0 01-1.2-.864 3.856 3.856 0 01-.768-1.28 4.495 4.495 0 01-.272-1.568c0-.555.091-1.072.272-1.552.181-.49.437-.917.768-1.28a3.62 3.62 0 011.216-.848 3.874 3.874 0 011.552-.304c.619 0 1.157.133 1.616.4.459.256.821.57 1.088.944h.032V57.94h1.504v12.096h-1.456v-1.2h-.032zm-4.992-2.608c0 .352.053.694.16 1.024.107.33.267.624.48.88.213.256.475.464.784.624.309.15.672.224 1.088.224a2.36 2.36 0 001.04-.224c.32-.15.592-.346.816-.592.224-.256.395-.55.512-.88.128-.33.192-.677.192-1.04 0-.362-.064-.71-.192-1.04a2.681 2.681 0 00-.512-.88 2.442 2.442 0 00-.816-.608 2.36 2.36 0 00-1.04-.224c-.416 0-.779.075-1.088.224-.309.15-.571.352-.784.608-.213.256-.373.55-.48.88-.107.33-.16.672-.16 1.024zm10.3 3.808h-1.504v-7.584h1.504v7.584zm.256-10.32a.882.882 0 01-.304.688.986.986 0 01-.704.272.988.988 0 01-.704-.272.94.94 0 01-.288-.688c0-.277.096-.507.288-.688a.958.958 0 01.704-.288c.278 0 .512.096.704.288.203.181.304.41.304.688zm3.405 2.736a12.903 12.903 0 01.064 1.248h.048a2.18 2.18 0 01.384-.56c.171-.181.363-.336.576-.464.213-.139.448-.245.704-.32.256-.074.523-.112.8-.112.491 0 .912.085 1.264.256.352.16.645.379.88.656s.405.603.512.976c.117.373.176.773.176 1.2v4.704h-1.504v-4.208c0-.31-.027-.602-.08-.88a2.014 2.014 0 00-.256-.736 1.431 1.431 0 00-.528-.512c-.224-.128-.512-.192-.864-.192-.597 0-1.088.23-1.472.688-.373.448-.56 1.05-.56 1.808v4.032h-1.504v-5.952a23.523 23.523 0 00-.064-1.632h1.424zm8.225 8.88c.33.373.741.672 1.232.896a3.728 3.728 0 001.536.336c.501 0 .922-.075 1.264-.224.341-.138.613-.336.816-.592.213-.245.362-.538.448-.88.096-.341.144-.71.144-1.104v-.976h-.032a2.674 2.674 0 01-1.136.976c-.48.224-.992.336-1.536.336a4.033 4.033 0 01-1.584-.304c-.47-.203-.87-.48-1.2-.832a3.746 3.746 0 01-.768-1.232 4.295 4.295 0 01-.272-1.536c0-.544.09-1.056.272-1.536a3.71 3.71 0 01.768-1.248c.33-.363.73-.645 1.2-.848.469-.213.992-.32 1.568-.32.544 0 1.061.117 1.552.352.501.235.896.592 1.184 1.072h.032v-1.216h1.456v7.2c0 .555-.07 1.083-.208 1.584a3.4 3.4 0 01-.704 1.344c-.331.395-.763.71-1.296.944-.534.235-1.195.352-1.984.352a5.8 5.8 0 01-2-.368 4.977 4.977 0 01-1.712-1.008l.96-1.168zm.464-5.168c0 .352.053.688.16 1.008.117.32.282.603.496.848.224.245.49.443.8.592.309.15.661.224 1.056.224.384 0 .736-.07 1.056-.208.32-.138.592-.325.816-.56.224-.245.394-.528.512-.848a2.9 2.9 0 00.192-1.056c0-.362-.064-.704-.192-1.024a2.437 2.437 0 00-.528-.848 2.358 2.358 0 00-.816-.576 2.362 2.362 0 00-1.04-.224c-.395 0-.747.075-1.056.224-.31.139-.576.33-.8.576a2.456 2.456 0 00-.496.848c-.107.32-.16.662-.16 1.024zm-64.03 21.872v3.04c0 .373.069.656.207.848.15.181.411.272.784.272.128 0 .262-.01.4-.032.15-.021.273-.053.368-.096l.032 1.92c-.18.064-.41.118-.688.16a4.4 4.4 0 01-.832.08c-.533 0-.98-.064-1.343-.192a2.26 2.26 0 01-.88-.576 2.393 2.393 0 01-.465-.896 4.434 4.434 0 01-.144-1.168v-3.36h-1.28v-1.968H65.1v-2.096h2.577v2.096h1.871v1.968h-1.871zm8.033 6v-4.32c0-.224-.016-.437-.048-.64a1.355 1.355 0 00-.192-.528.9.9 0 00-.352-.368c-.15-.096-.342-.144-.576-.144-.459 0-.811.166-1.056.496-.246.32-.368.72-.368 1.2v4.304h-2.624V81.94h2.624v5.136h.032c.181-.32.469-.603.864-.848.394-.256.869-.384 1.424-.384.544 0 .997.096 1.36.288.373.192.672.443.896.752.234.299.4.645.496 1.04.106.395.16.79.16 1.184v4.928h-2.64zm9.795-4.896c0-.416-.134-.773-.4-1.072-.256-.298-.646-.448-1.168-.448-.256 0-.491.043-.704.128-.214.075-.4.181-.56.32a1.59 1.59 0 00-.384.496c-.096.181-.15.373-.16.576h3.376zm2.416 1.008v.32c0 .107-.006.208-.016.304h-5.776c.021.224.085.427.192.608.117.181.261.341.432.48a2.164 2.164 0 001.28.416c.416 0 .768-.074 1.056-.224.288-.16.522-.362.704-.608l1.824 1.152c-.374.544-.87.966-1.488 1.264-.608.288-1.318.432-2.128.432-.598 0-1.163-.09-1.696-.272a4.395 4.395 0 01-1.408-.816 4.01 4.01 0 01-.944-1.328c-.224-.522-.336-1.12-.336-1.792 0-.65.112-1.237.336-1.76a4.001 4.001 0 012.272-2.208 4.65 4.65 0 011.696-.304c.586 0 1.125.101 1.616.304.49.192.912.475 1.264.848.352.374.624.827.816 1.36.202.534.304 1.142.304 1.824zm10.155-1.936a2.03 2.03 0 00-.352-.064 3.204 3.204 0 00-.32-.016c-.352 0-.65.064-.896.192a1.932 1.932 0 00-.576.464c-.139.181-.24.379-.304.592-.064.213-.096.4-.096.56v4.096h-2.624v-7.968h2.528v1.152h.032c.203-.405.49-.736.864-.992a2.236 2.236 0 011.296-.384c.107 0 .208.005.304.016.107.01.192.027.256.048l-.112 2.304zm3.704-4.688c0 .203-.043.395-.128.576-.075.17-.182.32-.32.448a1.37 1.37 0 01-.48.304 1.504 1.504 0 01-.576.112c-.427 0-.784-.138-1.072-.416a1.4 1.4 0 01-.432-1.024c0-.192.037-.373.112-.544.074-.181.181-.336.32-.464.138-.128.298-.23.48-.304.181-.085.378-.128.592-.128.202 0 .394.038.576.112.192.075.352.176.48.304.138.128.245.283.32.464.085.17.128.358.128.56zm-2.816 10.512v-7.968h2.624v7.968h-2.624zm12.83-.752c0 .779-.112 1.456-.336 2.032a3.748 3.748 0 01-.944 1.424 3.721 3.721 0 01-1.488.848 6.046 6.046 0 01-1.92.288 7.908 7.908 0 01-2.176-.32 5.956 5.956 0 01-1.92-.928l1.312-1.872a3.75 3.75 0 001.264.752c.469.17.928.256 1.376.256.768 0 1.333-.203 1.696-.608.373-.405.56-.944.56-1.616v-.48h-.048c-.245.32-.576.576-.992.768-.416.192-.891.288-1.424.288-.608 0-1.147-.106-1.616-.32a3.735 3.735 0 01-1.2-.896 3.985 3.985 0 01-.736-1.296 4.873 4.873 0 01-.256-1.584c0-.555.085-1.083.256-1.584.171-.501.416-.944.736-1.328a3.63 3.63 0 011.2-.912c.469-.234 1.003-.352 1.6-.352.501 0 .981.102 1.44.304.459.203.827.517 1.104.944h.032v-1.024h2.48v7.216zm-2.496-3.28c0-.266-.048-.522-.144-.768a1.76 1.76 0 00-.384-.64 1.802 1.802 0 00-1.408-.608c-.299 0-.565.053-.8.16-.224.107-.416.25-.576.432-.16.181-.283.395-.368.64a2.378 2.378 0 00-.128.784c0 .267.043.523.128.768s.208.464.368.656c.16.181.352.33.576.448.235.107.501.16.8.16.299 0 .565-.053.8-.16.245-.117.448-.266.608-.448.171-.181.299-.395.384-.64.096-.245.144-.507.144-.784zm9.507 4.032v-4.32c0-.224-.016-.437-.048-.64a1.355 1.355 0 00-.192-.528.895.895 0 00-.352-.368c-.149-.096-.341-.144-.576-.144-.458 0-.81.166-1.056.496-.245.32-.368.72-.368 1.2v4.304h-2.624V81.94h2.624v5.136h.032c.182-.32.47-.603.864-.848.395-.256.87-.384 1.424-.384.544 0 .998.096 1.36.288.374.192.672.443.896.752.235.299.4.645.496 1.04.107.395.16.79.16 1.184v4.928h-2.64zm7.155-6v3.04c0 .373.07.656.208.848.15.181.411.272.784.272.128 0 .262-.01.4-.032.15-.021.272-.053.368-.096l.032 1.92c-.181.064-.41.118-.688.16-.277.053-.554.08-.832.08-.533 0-.981-.064-1.344-.192a2.265 2.265 0 01-.88-.576 2.397 2.397 0 01-.464-.896 4.434 4.434 0 01-.144-1.168v-3.36h-1.28v-1.968h1.264v-2.096h2.576v2.096h1.872v1.968h-1.872zm9.313 0v3.04c0 .373.07.656.208.848.15.181.411.272.784.272.128 0 .262-.01.4-.032.15-.021.272-.053.368-.096l.032 1.92c-.181.064-.41.118-.688.16-.277.053-.554.08-.832.08-.533 0-.981-.064-1.344-.192a2.265 2.265 0 01-.88-.576 2.397 2.397 0 01-.464-.896 4.434 4.434 0 01-.144-1.168v-3.36h-1.28v-1.968h1.264v-2.096h2.576v2.096h1.872v1.968h-1.872zm11.234 1.984c0 .65-.118 1.243-.352 1.776-.235.523-.555.97-.96 1.344a4.484 4.484 0 01-1.408.848 4.783 4.783 0 01-1.712.304 4.863 4.863 0 01-1.712-.304 4.462 4.462 0 01-1.408-.848 4.174 4.174 0 01-.944-1.344 4.358 4.358 0 01-.352-1.776c0-.65.117-1.237.352-1.76.234-.522.549-.965.944-1.328.405-.362.874-.64 1.408-.832a5.103 5.103 0 011.712-.288 5.02 5.02 0 011.712.288c.533.192 1.002.47 1.408.832.405.363.725.806.96 1.328.234.523.352 1.11.352 1.76zm-2.528 0c0-.256-.043-.507-.128-.752a1.908 1.908 0 00-.368-.64 1.825 1.825 0 00-.592-.464 1.803 1.803 0 00-.816-.176c-.31 0-.582.059-.816.176a1.814 1.814 0 00-.592.464 2.04 2.04 0 00-.352.64 2.558 2.558 0 000 1.504c.085.245.208.47.368.672.16.192.357.347.592.464.234.118.506.176.816.176.309 0 .581-.058.816-.176.234-.117.432-.272.592-.464.16-.203.277-.427.352-.672.085-.245.128-.496.128-.752zm12.317 0c0 .65-.117 1.243-.352 1.776-.235.523-.555.97-.96 1.344a4.473 4.473 0 01-1.408.848 4.78 4.78 0 01-1.712.304 4.867 4.867 0 01-1.712-.304 4.473 4.473 0 01-1.408-.848 4.19 4.19 0 01-.944-1.344 4.358 4.358 0 01-.352-1.776c0-.65.117-1.237.352-1.76.235-.522.549-.965.944-1.328.405-.362.875-.64 1.408-.832a5.107 5.107 0 011.712-.288c.608 0 1.179.096 1.712.288.533.192 1.003.47 1.408.832.405.363.725.806.96 1.328.235.523.352 1.11.352 1.76zm-2.528 0c0-.256-.043-.507-.128-.752a1.891 1.891 0 00-.368-.64 1.814 1.814 0 00-.592-.464 1.803 1.803 0 00-.816-.176c-.309 0-.581.059-.816.176a1.814 1.814 0 00-.592.464 2.06 2.06 0 00-.352.64 2.558 2.558 0 000 1.504c.085.245.208.47.368.672.16.192.357.347.592.464.235.118.507.176.816.176.309 0 .581-.058.816-.176.235-.117.432-.272.592-.464.16-.203.277-.427.352-.672.085-.245.128-.496.128-.752zm3.901 4.016V81.94h2.656v12.096h-2.656zM209.446 129.201h1.584v4.736h5.728v-4.736h1.6v11.328h-1.6v-5.184h-5.728v5.184h-1.584v-11.328zm15.976 6.416c0-.565-.171-.981-.512-1.248-.342-.277-.795-.416-1.36-.416a2.97 2.97 0 00-1.216.256c-.374.16-.688.368-.944.624l-.8-.96a4.05 4.05 0 011.36-.832 4.969 4.969 0 011.744-.304c.544 0 1.013.08 1.408.24.405.15.736.358.992.624.256.267.448.582.576.944.128.363.192.752.192 1.168v3.312c0 .256.005.528.016.816.021.278.053.507.096.688h-1.36a4.693 4.693 0 01-.128-1.088h-.048c-.278.406-.63.72-1.056.944-.416.224-.912.336-1.488.336-.299 0-.614-.042-.944-.128a2.57 2.57 0 01-.88-.384 2.28 2.28 0 01-.672-.72c-.171-.298-.256-.666-.256-1.104 0-.576.154-1.029.464-1.36.309-.341.714-.597 1.216-.768a6.658 6.658 0 011.696-.352c.629-.053 1.264-.08 1.904-.08v-.208zm-.368 1.296c-.374 0-.763.016-1.168.048a5.481 5.481 0 00-1.088.192c-.32.096-.587.24-.8.432-.214.192-.32.448-.32.768 0 .224.042.411.128.56.096.15.218.272.368.368.149.096.314.166.496.208.181.032.368.048.56.048.704 0 1.242-.208 1.616-.624.384-.426.576-.96.576-1.6v-.4h-.368zm7.568 3.616h-1.632l-3.088-7.584h1.664l2.224 5.968h.032l2.24-5.968h1.6l-3.04 7.584zm5.694 0h-1.504v-7.584h1.504v7.584zm.256-10.32a.88.88 0 01-.304.688.985.985 0 01-.704.272.985.985 0 01-.704-.272.938.938 0 01-.288-.688c0-.277.096-.506.288-.688a.958.958 0 01.704-.288c.277 0 .512.096.704.288a.884.884 0 01.304.688zm3.405 2.736a14.537 14.537 0 01.064 1.248h.048c.096-.202.224-.389.384-.56a2.66 2.66 0 01.576-.464c.213-.138.448-.245.704-.32.256-.074.522-.112.8-.112.49 0 .912.086 1.264.256.352.16.645.379.88.656.234.278.405.603.512.976.117.374.176.774.176 1.2v4.704h-1.504v-4.208a4.69 4.69 0 00-.08-.88 2.022 2.022 0 00-.256-.736 1.434 1.434 0 00-.528-.512c-.224-.128-.512-.192-.864-.192-.598 0-1.088.23-1.472.688-.374.448-.56 1.051-.56 1.808v4.032h-1.504v-5.952c0-.202-.006-.464-.016-.784-.011-.32-.027-.602-.048-.848h1.424zm8.224 8.88a3.64 3.64 0 001.232.896 3.735 3.735 0 001.536.336c.502 0 .923-.074 1.264-.224.342-.138.614-.336.816-.592.214-.245.363-.538.448-.88a4.06 4.06 0 00.144-1.104v-.976h-.032a2.665 2.665 0 01-1.136.976c-.48.224-.992.336-1.536.336a4.026 4.026 0 01-1.584-.304 3.557 3.557 0 01-1.2-.832 3.771 3.771 0 01-.768-1.232 4.317 4.317 0 01-.272-1.536c0-.544.091-1.056.272-1.536.182-.48.438-.896.768-1.248a3.474 3.474 0 011.2-.848c.47-.213.992-.32 1.568-.32a3.56 3.56 0 011.552.352c.502.235.896.592 1.184 1.072h.032v-1.216h1.456v7.2a5.9 5.9 0 01-.208 1.584c-.138.512-.373.96-.704 1.344-.33.395-.762.71-1.296.944-.533.235-1.194.352-1.984.352a5.788 5.788 0 01-2-.368 4.964 4.964 0 01-1.712-1.008l.96-1.168zm.464-5.168c0 .352.054.688.16 1.008.118.32.283.603.496.848.224.246.491.443.8.592.31.15.662.224 1.056.224.384 0 .736-.069 1.056-.208.32-.138.592-.325.816-.56.224-.245.395-.528.512-.848.128-.33.192-.682.192-1.056 0-.362-.064-.704-.192-1.024a2.414 2.414 0 00-.528-.848 2.369 2.369 0 00-.816-.576 2.365 2.365 0 00-1.04-.224c-.394 0-.746.075-1.056.224a2.413 2.413 0 00-.8.576 2.498 2.498 0 00-.496.848 3.24 3.24 0 00-.16 1.024zm14.99-2.128v3.04c0 .374.069.656.208.848.149.182.41.272.784.272.128 0 .261-.01.4-.032.149-.021.272-.053.368-.096l.032 1.92a3.847 3.847 0 01-.688.16 4.35 4.35 0 01-.832.08c-.534 0-.982-.064-1.344-.192a2.242 2.242 0 01-.88-.576 2.378 2.378 0 01-.464-.896 4.432 4.432 0 01-.144-1.168v-3.36h-1.28v-1.968h1.264v-2.096h2.576v2.096h1.872v1.968h-1.872zm8.033 6v-4.32c0-.224-.016-.437-.048-.64a1.363 1.363 0 00-.192-.528.912.912 0 00-.352-.368c-.15-.096-.342-.144-.576-.144-.459 0-.811.166-1.056.496-.246.32-.368.72-.368 1.2v4.304h-2.624v-12.096h2.624v5.136h.032c.181-.32.469-.602.864-.848.394-.256.869-.384 1.424-.384.544 0 .997.096 1.36.288.373.192.672.443.896.752.234.299.4.646.496 1.04.106.395.16.79.16 1.184v4.928h-2.64zm9.795-4.896c0-.416-.134-.773-.4-1.072-.256-.298-.646-.448-1.168-.448-.256 0-.491.043-.704.128-.214.075-.4.182-.56.32-.16.139-.288.304-.384.496-.096.182-.15.374-.16.576h3.376zm2.416 1.008v.32c0 .107-.006.208-.016.304h-5.776c.021.224.085.427.192.608.117.182.261.342.432.48.181.128.378.23.592.304.224.075.453.112.688.112.416 0 .768-.074 1.056-.224a2.17 2.17 0 00.704-.608l1.824 1.152c-.374.544-.87.966-1.488 1.264-.608.288-1.318.432-2.128.432a5.21 5.21 0 01-1.696-.272 4.383 4.383 0 01-1.408-.816 3.983 3.983 0 01-.944-1.328c-.224-.522-.336-1.12-.336-1.792 0-.65.112-1.237.336-1.76a3.9 3.9 0 01.912-1.344 4.01 4.01 0 011.36-.864 4.662 4.662 0 011.696-.304c.586 0 1.125.102 1.616.304.49.192.912.475 1.264.848.352.374.624.827.816 1.36.202.534.304 1.142.304 1.824zm10.155-1.936a2.069 2.069 0 00-.352-.064 3.428 3.428 0 00-.32-.016c-.352 0-.651.064-.896.192a1.93 1.93 0 00-.576.464 1.84 1.84 0 00-.304.592 1.99 1.99 0 00-.096.56v4.096h-2.624v-7.968h2.528v1.152h.032c.203-.405.491-.736.864-.992a2.234 2.234 0 011.296-.384c.107 0 .208.006.304.016.107.011.192.027.256.048l-.112 2.304zm3.704-4.688c0 .203-.043.395-.128.576a1.34 1.34 0 01-.32.448 1.36 1.36 0 01-.48.304 1.497 1.497 0 01-.576.112c-.427 0-.784-.138-1.072-.416a1.399 1.399 0 01-.432-1.024c0-.192.037-.373.112-.544.074-.181.181-.336.32-.464.138-.128.298-.229.48-.304.181-.085.378-.128.592-.128.202 0 .394.038.576.112.192.075.352.176.48.304.138.128.245.283.32.464.085.171.128.358.128.56zm-2.816 10.512v-7.968h2.624v7.968h-2.624zm12.83-.752c0 .779-.112 1.456-.336 2.032a3.745 3.745 0 01-.944 1.424 3.717 3.717 0 01-1.488.848 6.046 6.046 0 01-1.92.288 7.881 7.881 0 01-2.176-.32 5.934 5.934 0 01-1.92-.928l1.312-1.872c.384.342.805.592 1.264.752.469.171.928.256 1.376.256.768 0 1.333-.202 1.696-.608.373-.405.56-.944.56-1.616v-.48h-.048c-.245.32-.576.576-.992.768-.416.192-.891.288-1.424.288-.608 0-1.147-.106-1.616-.32a3.725 3.725 0 01-1.2-.896 3.976 3.976 0 01-.736-1.296 4.87 4.87 0 01-.256-1.584c0-.554.085-1.082.256-1.584.171-.501.416-.944.736-1.328a3.63 3.63 0 011.2-.912c.469-.234 1.003-.352 1.6-.352.501 0 .981.102 1.44.304.459.203.827.518 1.104.944h.032v-1.024h2.48v7.216zm-2.496-3.28c0-.266-.048-.522-.144-.768a1.769 1.769 0 00-.384-.64 1.807 1.807 0 00-.608-.448 1.924 1.924 0 00-.8-.16c-.299 0-.565.054-.8.16a1.789 1.789 0 00-.576.432c-.16.182-.283.395-.368.64a2.383 2.383 0 00-.128.784c0 .267.043.523.128.768.085.246.208.464.368.656.16.182.352.331.576.448.235.107.501.16.8.16.299 0 .565-.053.8-.16.245-.117.448-.266.608-.448.171-.181.299-.394.384-.64.096-.245.144-.506.144-.784zm9.507 4.032v-4.32c0-.224-.016-.437-.048-.64a1.363 1.363 0 00-.192-.528.9.9 0 00-.352-.368c-.149-.096-.341-.144-.576-.144-.458 0-.81.166-1.056.496-.245.32-.368.72-.368 1.2v4.304h-2.624v-12.096h2.624v5.136h.032c.182-.32.47-.602.864-.848.395-.256.87-.384 1.424-.384.544 0 .998.096 1.36.288.374.192.672.443.896.752.235.299.4.646.496 1.04.107.395.16.79.16 1.184v4.928h-2.64zm7.155-6v3.04c0 .374.07.656.208.848.15.182.411.272.784.272.128 0 .262-.01.4-.032.15-.021.272-.053.368-.096l.032 1.92c-.181.064-.41.118-.688.16-.277.054-.554.08-.832.08-.533 0-.981-.064-1.344-.192a2.25 2.25 0 01-.88-.576 2.392 2.392 0 01-.464-.896 4.432 4.432 0 01-.144-1.168v-3.36h-1.28v-1.968h1.264v-2.096h2.576v2.096h1.872v1.968h-1.872zm-90.484 24v3.04c0 .374.07.656.208.848.15.182.411.272.784.272.128 0 .262-.01.4-.032.15-.021.272-.053.368-.096l.032 1.92c-.181.064-.41.118-.688.16-.277.054-.554.08-.832.08-.533 0-.981-.064-1.344-.192a2.25 2.25 0 01-.88-.576 2.392 2.392 0 01-.464-.896 4.432 4.432 0 01-.144-1.168v-3.36h-1.28v-1.968h1.264v-2.096h2.576v2.096h1.872v1.968h-1.872zm8.273 1.104c0-.416-.133-.773-.4-1.072-.256-.298-.645-.448-1.168-.448-.256 0-.49.043-.704.128-.213.075-.4.182-.56.32-.16.139-.288.304-.384.496a1.382 1.382 0 00-.16.576h3.376zm2.416 1.008v.32c0 .107-.005.208-.016.304h-5.776c.022.224.086.427.192.608.118.182.262.342.432.48.182.128.379.23.592.304.224.075.454.112.688.112.416 0 .768-.074 1.056-.224a2.16 2.16 0 00.704-.608l1.824 1.152a3.729 3.729 0 01-1.488 1.264c-.608.288-1.317.432-2.128.432a5.22 5.22 0 01-1.696-.272 4.405 4.405 0 01-1.408-.816 4.011 4.011 0 01-.944-1.328c-.224-.522-.336-1.12-.336-1.792 0-.65.112-1.237.336-1.76a3.9 3.9 0 01.912-1.344 4.02 4.02 0 011.36-.864 4.666 4.666 0 011.696-.304c.587 0 1.126.102 1.616.304.491.192.912.475 1.264.848.352.374.624.827.816 1.36.203.534.304 1.142.304 1.824zm11.484 3.888v-4.352c0-.224-.016-.437-.048-.64a1.569 1.569 0 00-.176-.544.944.944 0 00-.352-.352c-.139-.096-.326-.144-.56-.144-.224 0-.422.048-.592.144-.16.096-.299.224-.416.384-.107.16-.187.347-.24.56-.054.203-.08.416-.08.64v4.304h-2.624v-4.544c0-.458-.091-.821-.272-1.088-.182-.266-.47-.4-.864-.4-.416 0-.742.166-.976.496-.224.331-.336.736-.336 1.216v4.32h-2.64v-7.968h2.544v1.104h.032c.096-.17.213-.336.352-.496a2.28 2.28 0 01.528-.416c.202-.128.426-.229.672-.304.256-.074.533-.112.832-.112.576 0 1.061.118 1.456.352.405.235.72.571.944 1.008a3.034 3.034 0 011.024-.992c.416-.245.922-.368 1.52-.368.544 0 .997.102 1.36.304.373.192.672.448.896.768.224.31.384.662.48 1.056.106.384.16.763.16 1.136v4.928h-2.624zm13.149-4.016c0 .555-.085 1.088-.256 1.6a4.12 4.12 0 01-.752 1.36c-.32.384-.715.694-1.184.928-.469.235-1.003.352-1.6.352-.491 0-.955-.096-1.392-.288-.437-.202-.779-.474-1.024-.816h-.032v4.72h-2.624v-11.808h2.496v.976h.048c.245-.32.581-.597 1.008-.832.437-.245.949-.368 1.536-.368.576 0 1.099.112 1.568.336a3.46 3.46 0 011.184.912c.331.384.581.832.752 1.344.181.502.272 1.03.272 1.584zm-2.544 0c0-.256-.043-.506-.128-.752a1.716 1.716 0 00-.352-.64 1.655 1.655 0 00-.576-.464 1.808 1.808 0 00-.816-.176 1.77 1.77 0 00-.8.176 2.015 2.015 0 00-.608.464c-.16.192-.288.411-.384.656a2.285 2.285 0 000 1.504c.096.246.224.464.384.656.171.192.373.347.608.464.235.118.501.176.8.176.309 0 .581-.058.816-.176.235-.117.427-.272.576-.464.16-.192.277-.41.352-.656.085-.256.128-.512.128-.768zm3.908 4.016v-12.096h2.656v12.096h-2.656zm9.117-3.472h-.336c-.288 0-.581.016-.88.048-.288.022-.549.07-.784.144-.224.075-.41.187-.56.336a.73.73 0 00-.224.56c0 .15.032.278.096.384a.895.895 0 00.272.256c.107.064.23.112.368.144.139.022.272.032.4.032.534 0 .939-.144 1.216-.432.288-.298.432-.698.432-1.2v-.272zm-4.816-3.408a4.62 4.62 0 011.632-1.008 5.693 5.693 0 011.92-.336c.672 0 1.238.086 1.696.256.47.16.848.416 1.136.768.288.342.496.779.624 1.312.139.523.208 1.147.208 1.872v4.016h-2.4v-.848h-.048c-.202.331-.512.587-.928.768a3.203 3.203 0 01-1.328.272c-.32 0-.65-.042-.992-.128a2.996 2.996 0 01-.944-.416 2.297 2.297 0 01-.688-.768c-.181-.32-.272-.714-.272-1.184 0-.576.155-1.04.464-1.392.32-.352.726-.624 1.216-.816a6.565 6.565 0 011.664-.384c.608-.064 1.2-.096 1.776-.096v-.128c0-.394-.138-.682-.416-.864-.277-.192-.618-.288-1.024-.288-.373 0-.736.08-1.088.24-.341.16-.634.352-.88.576l-1.328-1.424zm11.546.88v3.04c0 .374.07.656.208.848.15.182.411.272.784.272.128 0 .262-.01.4-.032.15-.021.272-.053.368-.096l.032 1.92c-.181.064-.41.118-.688.16-.277.054-.554.08-.832.08-.533 0-.981-.064-1.344-.192a2.25 2.25 0 01-.88-.576 2.392 2.392 0 01-.464-.896 4.432 4.432 0 01-.144-1.168v-3.36h-1.28v-1.968h1.264v-2.096h2.576v2.096h1.872v1.968h-1.872zm8.274 1.104c0-.416-.134-.773-.4-1.072-.256-.298-.646-.448-1.168-.448-.256 0-.491.043-.704.128-.214.075-.4.182-.56.32-.16.139-.288.304-.384.496-.096.182-.15.374-.16.576h3.376zm2.416 1.008v.32c0 .107-.006.208-.016.304h-5.776c.021.224.085.427.192.608.117.182.261.342.432.48.181.128.378.23.592.304.224.075.453.112.688.112.416 0 .768-.074 1.056-.224a2.17 2.17 0 00.704-.608l1.824 1.152c-.374.544-.87.966-1.488 1.264-.608.288-1.318.432-2.128.432a5.21 5.21 0 01-1.696-.272 4.383 4.383 0 01-1.408-.816 3.983 3.983 0 01-.944-1.328c-.224-.522-.336-1.12-.336-1.792 0-.65.112-1.237.336-1.76a3.9 3.9 0 01.912-1.344 4.01 4.01 0 011.36-.864 4.662 4.662 0 011.696-.304c.586 0 1.125.102 1.616.304.49.192.912.475 1.264.848.352.374.624.827.816 1.36.202.534.304 1.142.304 1.824zm5.995-1.728a2.96 2.96 0 00-.752-.512 2.085 2.085 0 00-.912-.208c-.246 0-.475.048-.688.144-.203.096-.304.262-.304.496 0 .224.112.384.336.48.234.096.608.203 1.12.32.298.064.597.155.896.272.309.118.586.272.832.464.245.192.442.427.592.704.149.278.224.608.224.992 0 .502-.102.928-.304 1.28-.203.342-.47.619-.8.832-.32.214-.683.368-1.088.464a5.267 5.267 0 01-1.216.144 6.214 6.214 0 01-1.92-.304c-.619-.213-1.136-.522-1.552-.928l1.472-1.552c.234.256.522.47.864.64.341.171.704.256 1.088.256.213 0 .421-.048.624-.144.213-.106.32-.288.32-.544 0-.245-.128-.426-.384-.544-.256-.117-.656-.24-1.2-.368a6.11 6.11 0 01-.832-.256 2.719 2.719 0 01-.752-.432 2.177 2.177 0 01-.528-.672c-.139-.266-.208-.586-.208-.96 0-.48.101-.885.304-1.216a2.55 2.55 0 01.784-.832c.32-.213.672-.368 1.056-.464.394-.106.784-.16 1.168-.16.597 0 1.178.096 1.744.288a3.712 3.712 0 011.456.832l-1.44 1.488zM71.171 201.857a5.163 5.163 0 01-1.744 1.488c-.714.374-1.573.56-2.576.56a6.53 6.53 0 01-2.4-.432 5.83 5.83 0 01-1.887-1.232 5.835 5.835 0 01-1.233-1.888 6.364 6.364 0 01-.448-2.416c0-.885.15-1.69.448-2.416.31-.736.731-1.36 1.264-1.872a5.786 5.786 0 011.92-1.216 6.53 6.53 0 012.4-.432c.384 0 .774.038 1.168.112a5.86 5.86 0 011.136.336c.363.15.694.336.993.56.298.214.554.464.767.752l-1.248.96c-.277-.384-.671-.698-1.183-.944a3.536 3.536 0 00-1.633-.384c-.66 0-1.258.123-1.791.368a3.97 3.97 0 00-1.344.976 4.44 4.44 0 00-.864 1.456 4.957 4.957 0 00-.304 1.744c0 .64.096 1.238.288 1.792.202.555.485 1.04.848 1.456.373.406.82.726 1.343.96a4.357 4.357 0 001.777.352c.64 0 1.22-.128 1.744-.384a3.355 3.355 0 001.296-1.12l1.263.864zm1.217-4.192a24.41 24.41 0 00-.064-1.632h1.424a14.457 14.457 0 01.064 1.28h.048c.213-.448.522-.805.928-1.072.416-.277.88-.416 1.392-.416.234 0 .432.022.592.064l-.064 1.392a2.846 2.846 0 00-.688-.08c-.363 0-.678.07-.944.208-.267.128-.491.304-.672.528-.171.224-.299.486-.384.784a3.195 3.195 0 00-.128.912v3.984h-1.504v-5.952zm10.747 1.488a2.625 2.625 0 00-.16-.832 1.78 1.78 0 00-.4-.688 1.714 1.714 0 00-.656-.448 2.179 2.179 0 00-.912-.176 2.4 2.4 0 00-.912.176 2.356 2.356 0 00-.736.448 2.581 2.581 0 00-.512.688 2.193 2.193 0 00-.224.832h4.512zm1.52.608v.256c0 .086-.005.171-.016.256h-6.016c.01.32.08.624.208.912.139.278.32.523.544.736.224.203.48.363.768.48.299.118.614.176.944.176.512 0 .955-.112 1.328-.336.374-.224.667-.496.88-.816l1.056.848a3.799 3.799 0 01-1.44 1.184c-.544.246-1.152.368-1.824.368-.576 0-1.11-.096-1.6-.288a3.749 3.749 0 01-1.264-.8 3.83 3.83 0 01-.832-1.264 4.23 4.23 0 01-.304-1.632c0-.586.096-1.125.288-1.616a3.8 3.8 0 01.832-1.28 3.671 3.671 0 011.248-.816 3.96 3.96 0 011.552-.304c.555 0 1.056.091 1.504.272.459.182.843.443 1.152.784.32.342.566.758.736 1.248.17.48.256 1.024.256 1.632zm6.406-1.056c0-.565-.17-.981-.512-1.248-.34-.277-.794-.416-1.36-.416-.426 0-.832.086-1.216.256-.373.16-.688.368-.944.624l-.8-.96a4.06 4.06 0 011.36-.832 4.97 4.97 0 011.744-.304c.544 0 1.014.08 1.408.24.406.15.736.358.992.624.256.267.448.582.576.944.128.363.192.752.192 1.168v3.312c0 .256.006.528.016.816.022.278.054.507.096.688h-1.36a4.731 4.731 0 01-.128-1.088h-.048c-.277.406-.629.72-1.056.944-.416.224-.912.336-1.488.336a3.75 3.75 0 01-.944-.128 2.577 2.577 0 01-.88-.384 2.288 2.288 0 01-.672-.72c-.17-.298-.256-.666-.256-1.104 0-.576.155-1.029.464-1.36.31-.341.715-.597 1.216-.768a6.667 6.667 0 011.696-.352c.63-.053 1.264-.08 1.904-.08v-.208zm-.368 1.296c-.373 0-.762.016-1.168.048a5.494 5.494 0 00-1.088.192 2.06 2.06 0 00-.8.432c-.213.192-.32.448-.32.768 0 .224.043.411.128.56.096.15.22.272.368.368.15.096.315.166.496.208.182.032.368.048.56.048.704 0 1.243-.208 1.616-.624.384-.426.576-.96.576-1.6v-.4h-.368zm7.556-2.736h-2.016v3.952c0 .459.085.79.256.992.17.192.443.288.816.288.139 0 .288-.016.448-.048.16-.032.304-.08.432-.144l.048 1.232a3.178 3.178 0 01-.608.144 3.395 3.395 0 01-.672.064c-.715 0-1.264-.197-1.648-.592-.373-.394-.56-.986-.56-1.776v-4.112h-1.456v-1.232h1.456v-2.176h1.488v2.176h2.016v1.232zm2.754 6.352h-1.504v-7.584h1.504v7.584zm.256-10.32a.884.884 0 01-.304.688.985.985 0 01-.704.272.985.985 0 01-.704-.272.938.938 0 01-.288-.688c0-.277.096-.506.288-.688a.958.958 0 01.704-.288c.277 0 .512.096.704.288a.887.887 0 01.304.688zm3.404 2.736c.022.192.038.411.048.656.011.235.016.432.016.592h.048c.096-.202.224-.389.384-.56a2.71 2.71 0 01.576-.464c.214-.138.448-.245.704-.32.256-.074.523-.112.8-.112.491 0 .912.086 1.264.256a2.474 2.474 0 011.392 1.632c.118.374.176.774.176 1.2v4.704h-1.504v-4.208c0-.309-.026-.602-.08-.88a2.003 2.003 0 00-.256-.736 1.434 1.434 0 00-.528-.512c-.224-.128-.512-.192-.864-.192-.597 0-1.088.23-1.472.688-.373.448-.56 1.051-.56 1.808v4.032h-1.504v-5.952a23.558 23.558 0 00-.064-1.632h1.424zm8.225 8.88c.33.374.741.672 1.232.896a3.728 3.728 0 001.536.336c.501 0 .922-.074 1.264-.224a1.95 1.95 0 00.816-.592c.213-.245.362-.538.448-.88a4.06 4.06 0 00.144-1.104v-.976h-.032a2.671 2.671 0 01-1.136.976c-.48.224-.992.336-1.536.336a4.026 4.026 0 01-1.584-.304c-.47-.202-.87-.48-1.2-.832a3.738 3.738 0 01-.768-1.232 4.295 4.295 0 01-.272-1.536c0-.544.09-1.056.272-1.536a3.71 3.71 0 01.768-1.248c.33-.362.73-.645 1.2-.848a3.75 3.75 0 011.568-.32c.544 0 1.061.118 1.552.352a2.68 2.68 0 011.184 1.072h.032v-1.216h1.456v7.2a5.94 5.94 0 01-.208 1.584 3.4 3.4 0 01-.704 1.344c-.331.395-.763.71-1.296.944-.534.235-1.195.352-1.984.352a5.783 5.783 0 01-2-.368 4.955 4.955 0 01-1.712-1.008l.96-1.168zm.464-5.168c0 .352.053.688.16 1.008.117.32.282.603.496.848.224.246.49.443.8.592.309.15.661.224 1.056.224.384 0 .736-.069 1.056-.208.32-.138.592-.325.816-.56a2.55 2.55 0 00.512-.848c.128-.33.192-.682.192-1.056 0-.362-.064-.704-.192-1.024a2.443 2.443 0 00-.528-.848 2.369 2.369 0 00-.816-.576 2.368 2.368 0 00-1.04-.224c-.395 0-.747.075-1.056.224-.31.139-.576.331-.8.576a2.466 2.466 0 00-.496.848c-.107.32-.16.662-.16 1.024zm21.005-.144c0 .555-.085 1.088-.256 1.6a4.12 4.12 0 01-.752 1.36c-.32.384-.715.694-1.184.928-.469.235-1.003.352-1.6.352-.491 0-.955-.096-1.392-.288-.437-.202-.779-.474-1.024-.816h-.032v4.72h-2.624v-11.808h2.496v.976h.048c.245-.32.581-.597 1.008-.832.437-.245.949-.368 1.536-.368.576 0 1.099.112 1.568.336a3.46 3.46 0 011.184.912c.331.384.581.832.752 1.344.181.502.272 1.03.272 1.584zm-2.544 0c0-.256-.043-.506-.128-.752a1.716 1.716 0 00-.352-.64 1.655 1.655 0 00-.576-.464 1.808 1.808 0 00-.816-.176 1.77 1.77 0 00-.8.176 2.015 2.015 0 00-.608.464c-.16.192-.288.411-.384.656a2.285 2.285 0 000 1.504c.096.246.224.464.384.656.171.192.373.347.608.464.235.118.501.176.8.176.309 0 .581-.058.816-.176.235-.117.427-.272.576-.464.16-.192.277-.41.352-.656.085-.256.128-.512.128-.768zm8.58.544h-.336c-.288 0-.582.016-.88.048-.288.022-.55.07-.784.144a1.411 1.411 0 00-.56.336c-.15.139-.224.326-.224.56 0 .15.032.278.096.384a.872.872 0 00.272.256c.106.064.229.112.368.144.138.022.272.032.4.032.533 0 .938-.144 1.216-.432.288-.298.432-.698.432-1.2v-.272zm-4.816-3.408a4.603 4.603 0 011.632-1.008 5.684 5.684 0 011.92-.336c.672 0 1.237.086 1.696.256.469.16.848.416 1.136.768.288.342.496.779.624 1.312.138.523.208 1.147.208 1.872v4.016h-2.4v-.848h-.048c-.203.331-.512.587-.928.768a3.206 3.206 0 01-1.328.272 4.05 4.05 0 01-.992-.128 2.986 2.986 0 01-.944-.416 2.276 2.276 0 01-.688-.768c-.182-.32-.272-.714-.272-1.184 0-.576.154-1.04.464-1.392.32-.352.725-.624 1.216-.816a6.555 6.555 0 011.664-.384c.608-.064 1.2-.096 1.776-.096v-.128c0-.394-.139-.682-.416-.864-.278-.192-.619-.288-1.024-.288a2.6 2.6 0 00-1.088.24c-.342.16-.635.352-.88.576l-1.328-1.424zm17.302 6.128c0 .779-.112 1.456-.336 2.032-.224.576-.538 1.051-.944 1.424a3.717 3.717 0 01-1.488.848 6.046 6.046 0 01-1.92.288 7.881 7.881 0 01-2.176-.32 5.934 5.934 0 01-1.92-.928l1.312-1.872c.384.342.806.592 1.264.752.47.171.928.256 1.376.256.768 0 1.334-.202 1.696-.608.374-.405.56-.944.56-1.616v-.48h-.048c-.245.32-.576.576-.992.768-.416.192-.89.288-1.424.288-.608 0-1.146-.106-1.616-.32a3.725 3.725 0 01-1.2-.896 3.976 3.976 0 01-.736-1.296 4.896 4.896 0 01-.256-1.584c0-.554.086-1.082.256-1.584.171-.501.416-.944.736-1.328a3.63 3.63 0 011.2-.912c.47-.234 1.003-.352 1.6-.352.502 0 .982.102 1.44.304.459.203.827.518 1.104.944h.032v-1.024h2.48v7.216zm-2.496-3.28c0-.266-.048-.522-.144-.768a1.769 1.769 0 00-.384-.64 1.797 1.797 0 00-1.408-.608c-.298 0-.565.054-.8.16a1.789 1.789 0 00-.576.432c-.16.182-.282.395-.368.64a2.383 2.383 0 00-.128.784c0 .267.043.523.128.768.086.246.208.464.368.656.16.182.352.331.576.448.235.107.502.16.8.16.299 0 .566-.053.8-.16.246-.117.448-.266.608-.448.171-.181.299-.394.384-.64.096-.245.144-.506.144-.784zm9.748-.864c0-.416-.134-.773-.4-1.072-.256-.298-.646-.448-1.168-.448-.256 0-.491.043-.704.128-.214.075-.4.182-.56.32-.16.139-.288.304-.384.496-.096.182-.15.374-.16.576h3.376zm2.416 1.008v.32c0 .107-.006.208-.016.304h-5.776c.021.224.085.427.192.608.117.182.261.342.432.48.181.128.378.23.592.304.224.075.453.112.688.112.416 0 .768-.074 1.056-.224a2.17 2.17 0 00.704-.608l1.824 1.152c-.374.544-.87.966-1.488 1.264-.608.288-1.318.432-2.128.432a5.21 5.21 0 01-1.696-.272 4.383 4.383 0 01-1.408-.816 3.983 3.983 0 01-.944-1.328c-.224-.522-.336-1.12-.336-1.792 0-.65.112-1.237.336-1.76a3.9 3.9 0 01.912-1.344 4.01 4.01 0 011.36-.864 4.662 4.662 0 011.696-.304c.586 0 1.125.102 1.616.304.49.192.912.475 1.264.848.352.374.624.827.816 1.36.202.534.304 1.142.304 1.824zm5.995-1.728a2.96 2.96 0 00-.752-.512 2.085 2.085 0 00-.912-.208c-.246 0-.475.048-.688.144-.203.096-.304.262-.304.496 0 .224.112.384.336.48.234.096.608.203 1.12.32.298.064.597.155.896.272.309.118.586.272.832.464.245.192.442.427.592.704.149.278.224.608.224.992 0 .502-.102.928-.304 1.28-.203.342-.47.619-.8.832-.32.214-.683.368-1.088.464a5.267 5.267 0 01-1.216.144 6.214 6.214 0 01-1.92-.304c-.619-.213-1.136-.522-1.552-.928l1.472-1.552c.234.256.522.47.864.64.341.171.704.256 1.088.256.213 0 .421-.048.624-.144.213-.106.32-.288.32-.544 0-.245-.128-.426-.384-.544-.256-.117-.656-.24-1.2-.368a6.11 6.11 0 01-.832-.256 2.719 2.719 0 01-.752-.432 2.177 2.177 0 01-.528-.672c-.139-.266-.208-.586-.208-.96 0-.48.101-.885.304-1.216a2.55 2.55 0 01.784-.832c.32-.213.672-.368 1.056-.464.394-.106.784-.16 1.168-.16.597 0 1.178.096 1.744.288a3.712 3.712 0 011.456.832l-1.44 1.488zm-94.23 23.616v3.04c0 .374.069.656.207.848.15.182.41.272.784.272.128 0 .261-.01.4-.032.15-.021.272-.053.368-.096l.032 1.92c-.181.064-.41.118-.688.16-.277.054-.555.08-.832.08-.533 0-.981-.064-1.344-.192a2.245 2.245 0 01-.88-.576 2.388 2.388 0 01-.464-.896 4.432 4.432 0 01-.144-1.168v-3.36h-1.28v-1.968h1.264v-2.096h2.576v2.096h1.872v1.968h-1.872zm8.032 6v-4.32c0-.224-.016-.437-.048-.64a1.363 1.363 0 00-.192-.528.906.906 0 00-.352-.368c-.15-.096-.341-.144-.576-.144-.458 0-.81.166-1.056.496-.245.32-.368.72-.368 1.2v4.304h-2.624v-12.096h2.624v5.136h.032c.182-.32.47-.602.864-.848.395-.256.87-.384 1.424-.384.544 0 .998.096 1.36.288.374.192.672.443.896.752.235.299.4.646.496 1.04.107.395.16.79.16 1.184v4.928h-2.64zm9.011-3.472h-.336c-.288 0-.581.016-.88.048a3.49 3.49 0 00-.784.144c-.224.075-.41.187-.56.336a.728.728 0 00-.224.56c0 .15.032.278.096.384a.882.882 0 00.272.256c.107.064.23.112.368.144.139.022.272.032.4.032.534 0 .939-.144 1.216-.432.288-.298.432-.698.432-1.2v-.272zm-4.816-3.408a4.608 4.608 0 011.632-1.008 5.687 5.687 0 011.92-.336c.672 0 1.238.086 1.696.256.47.16.848.416 1.136.768.288.342.496.779.624 1.312.139.523.208 1.147.208 1.872v4.016h-2.4v-.848h-.048c-.202.331-.512.587-.928.768a3.204 3.204 0 01-1.328.272c-.32 0-.65-.042-.992-.128a2.992 2.992 0 01-.944-.416 2.286 2.286 0 01-.688-.768c-.181-.32-.272-.714-.272-1.184 0-.576.155-1.04.464-1.392.32-.352.726-.624 1.216-.816a6.558 6.558 0 011.664-.384c.608-.064 1.2-.096 1.776-.096v-.128c0-.394-.138-.682-.416-.864-.277-.192-.618-.288-1.024-.288-.373 0-.736.08-1.088.24-.341.16-.634.352-.88.576l-1.328-1.424zm11.546.88v3.04c0 .374.07.656.209.848.149.182.41.272.784.272.127 0 .26-.01.4-.032.149-.021.272-.053.368-.096l.031 1.92c-.18.064-.41.118-.688.16-.277.054-.554.08-.831.08-.534 0-.982-.064-1.345-.192a2.245 2.245 0 01-.88-.576 2.388 2.388 0 01-.463-.896 4.432 4.432 0 01-.145-1.168v-3.36h-1.28v-1.968h1.264v-2.096h2.576v2.096h1.873v1.968h-1.873zm11.954.608a1.604 1.604 0 00-.608-.464 1.871 1.871 0 00-.784-.176c-.278 0-.528.059-.752.176a1.688 1.688 0 00-.576.448c-.16.182-.288.395-.384.64a2.357 2.357 0 00-.128.784c0 .278.042.539.128.784.085.246.208.464.368.656.17.182.368.326.592.432.234.107.496.16.784.16.266 0 .528-.048.784-.144.266-.106.48-.256.64-.448l1.456 1.776c-.331.32-.758.571-1.28.752a5.028 5.028 0 01-1.664.272c-.63 0-1.216-.096-1.76-.288a4.203 4.203 0 01-1.424-.832 4.165 4.165 0 01-.944-1.344c-.224-.522-.336-1.114-.336-1.776 0-.65.112-1.237.336-1.76.234-.522.549-.965.944-1.328.405-.373.88-.656 1.424-.848a4.969 4.969 0 012.592-.224c.288.054.56.128.816.224.266.086.506.198.72.336.224.128.416.272.576.432l-1.52 1.76zm10.687 1.376c0 .651-.118 1.243-.352 1.776a4.074 4.074 0 01-.96 1.344 4.464 4.464 0 01-1.408.848 4.774 4.774 0 01-1.712.304 4.854 4.854 0 01-1.712-.304 4.442 4.442 0 01-1.408-.848 4.165 4.165 0 01-.944-1.344 4.355 4.355 0 01-.352-1.776c0-.65.117-1.237.352-1.76.234-.522.549-.965.944-1.328.405-.362.874-.64 1.408-.832a5.103 5.103 0 011.712-.288 5.02 5.02 0 011.712.288c.533.192 1.002.47 1.408.832.405.363.725.806.96 1.328.234.523.352 1.11.352 1.76zm-2.528 0c0-.256-.043-.506-.128-.752a1.919 1.919 0 00-.368-.64 1.834 1.834 0 00-.592-.464 1.808 1.808 0 00-.816-.176c-.31 0-.582.059-.816.176a1.824 1.824 0 00-.592.464c-.15.182-.267.395-.352.64a2.561 2.561 0 000 1.504c.085.246.208.47.368.672.16.192.357.347.592.464.234.118.506.176.816.176.309 0 .581-.058.816-.176.234-.117.432-.272.592-.464.16-.202.277-.426.352-.672a2.28 2.28 0 00.128-.752zm9.101 4.016v-4.352a3.08 3.08 0 00-.064-.64 1.557 1.557 0 00-.176-.528.877.877 0 00-.368-.368c-.149-.096-.341-.144-.576-.144-.235 0-.443.048-.624.144a1.192 1.192 0 00-.432.368c-.117.16-.208.347-.272.56-.053.203-.08.416-.08.64v4.32h-2.64v-7.968h2.544v1.104h.032c.096-.17.219-.336.368-.496.16-.17.341-.314.544-.432.213-.117.443-.213.688-.288.245-.074.507-.112.784-.112.533 0 .987.096 1.36.288.373.192.672.443.896.752.235.299.4.646.496 1.04.107.395.16.79.16 1.184v4.928h-2.64zm9.235 0h-2.832l-3.136-7.968h2.896l1.68 5.168h.048l1.68-5.168h2.8l-3.136 7.968zm9.318-4.896c0-.416-.133-.773-.4-1.072-.256-.298-.645-.448-1.168-.448-.256 0-.49.043-.704.128-.213.075-.4.182-.56.32-.16.139-.288.304-.384.496a1.382 1.382 0 00-.16.576h3.376zm2.416 1.008v.32c0 .107-.005.208-.016.304h-5.776c.022.224.086.427.192.608.118.182.262.342.432.48.182.128.379.23.592.304.224.075.454.112.688.112.416 0 .768-.074 1.056-.224a2.16 2.16 0 00.704-.608l1.824 1.152a3.729 3.729 0 01-1.488 1.264c-.608.288-1.317.432-2.128.432a5.22 5.22 0 01-1.696-.272 4.405 4.405 0 01-1.408-.816 4.011 4.011 0 01-.944-1.328c-.224-.522-.336-1.12-.336-1.792 0-.65.112-1.237.336-1.76a3.9 3.9 0 01.912-1.344 4.02 4.02 0 011.36-.864 4.666 4.666 0 011.696-.304c.587 0 1.126.102 1.616.304.491.192.912.475 1.264.848.352.374.624.827.816 1.36.203.534.304 1.142.304 1.824zm6.476-1.936a2.087 2.087 0 00-.352-.064 3.445 3.445 0 00-.32-.016c-.352 0-.651.064-.896.192a1.93 1.93 0 00-.576.464 1.84 1.84 0 00-.304.592 1.99 1.99 0 00-.096.56v4.096h-2.624v-7.968h2.528v1.152h.032c.202-.405.49-.736.864-.992a2.234 2.234 0 011.296-.384c.106 0 .208.006.304.016.106.011.192.027.256.048l-.112 2.304zm3.516-.176v3.04c0 .374.069.656.208.848.149.182.411.272.784.272.128 0 .261-.01.4-.032.149-.021.272-.053.368-.096l.032 1.92a3.826 3.826 0 01-.688.16c-.277.054-.555.08-.832.08-.533 0-.981-.064-1.344-.192a2.242 2.242 0 01-.88-.576 2.392 2.392 0 01-.464-.896 4.432 4.432 0 01-.144-1.168v-3.36h-1.28v-1.968h1.264v-2.096h2.576v2.096h1.872v1.968h-1.872zM220.313 254.317h3.904c.427 0 .853.048 1.28.144.427.096.805.256 1.136.48.341.224.613.517.816.88.213.362.32.816.32 1.36 0 .629-.181 1.157-.544 1.584-.363.426-.843.72-1.44.88v.032c.363.042.699.138 1.008.288.309.138.576.325.8.56.224.234.395.512.512.832.128.32.192.677.192 1.072 0 .544-.112 1.018-.336 1.424a2.956 2.956 0 01-.912 1.008 4.529 4.529 0 01-1.36.592 6.777 6.777 0 01-1.648.192h-3.728v-11.328zm1.584 4.784h2.064c.299 0 .581-.032.848-.096.277-.075.517-.182.72-.32.203-.15.363-.331.48-.544.117-.224.176-.491.176-.8 0-.608-.224-1.04-.672-1.296-.448-.267-1.051-.4-1.808-.4h-1.808v3.456zm0 5.2h1.984c.331 0 .661-.027.992-.08a2.99 2.99 0 00.912-.32c.277-.15.496-.347.656-.592.171-.256.256-.576.256-.96 0-.672-.229-1.158-.688-1.456-.459-.299-1.12-.448-1.984-.448h-2.128v3.856zm13.626 1.344a13.96 13.96 0 01-.064-1.248h-.032c-.192.405-.518.752-.976 1.04-.448.277-.95.416-1.504.416-.491 0-.918-.08-1.28-.24a2.474 2.474 0 01-.88-.656 3.123 3.123 0 01-.512-.992 4.345 4.345 0 01-.16-1.2v-4.704h1.504v4.192c0 .309.021.608.064.896.053.277.144.522.272.736.128.213.304.384.528.512.224.128.512.192.864.192.608 0 1.098-.224 1.472-.672.373-.459.56-1.067.56-1.824v-4.032h1.504v5.952a23.558 23.558 0 00.064 1.632h-1.424zm5.168 0h-1.504v-7.584h1.504v7.584zm.256-10.32a.884.884 0 01-.304.688.987.987 0 01-.704.272.99.99 0 01-.704-.272.94.94 0 01-.288-.688c0-.278.096-.507.288-.688a.958.958 0 01.704-.288c.278 0 .512.096.704.288a.88.88 0 01.304.688zm3.581 10.32h-1.504v-12.096h1.504v12.096zm8.348-1.2c-.288.458-.683.81-1.184 1.056a3.564 3.564 0 01-1.552.352 3.967 3.967 0 01-1.584-.304 3.668 3.668 0 01-1.2-.864 3.865 3.865 0 01-.768-1.28 4.499 4.499 0 01-.272-1.568c0-.555.091-1.072.272-1.552.181-.491.437-.918.768-1.28a3.607 3.607 0 011.216-.848 3.868 3.868 0 011.552-.304c.619 0 1.157.133 1.616.4.459.256.821.57 1.088.944h.032v-5.648h1.504v12.096h-1.456v-1.2h-.032zm-4.992-2.608c0 .352.053.693.16 1.024.107.33.267.624.48.88.213.256.475.464.784.624a2.48 2.48 0 001.088.224c.384 0 .731-.075 1.04-.224.32-.15.592-.347.816-.592.224-.256.395-.55.512-.88a2.86 2.86 0 00.192-1.04c0-.363-.064-.71-.192-1.04a2.678 2.678 0 00-.512-.88 2.438 2.438 0 00-.816-.608 2.351 2.351 0 00-1.04-.224c-.416 0-.779.074-1.088.224a2.315 2.315 0 00-.784.608 2.62 2.62 0 00-.48.88c-.107.33-.16.672-.16 1.024zm10.3 3.808h-1.504v-7.584h1.504v7.584zm.256-10.32a.884.884 0 01-.304.688.987.987 0 01-.704.272.99.99 0 01-.704-.272.94.94 0 01-.288-.688c0-.278.096-.507.288-.688a.958.958 0 01.704-.288c.278 0 .512.096.704.288a.88.88 0 01.304.688zm3.405 2.736a12.881 12.881 0 01.064 1.248h.048c.096-.203.224-.39.384-.56.171-.182.363-.336.576-.464.213-.139.448-.246.704-.32.256-.075.523-.112.8-.112.491 0 .912.085 1.264.256a2.471 2.471 0 011.392 1.632c.117.373.176.773.176 1.2v4.704h-1.504v-4.208c0-.31-.027-.603-.08-.88a2.009 2.009 0 00-.256-.736 1.426 1.426 0 00-.528-.512c-.224-.128-.512-.192-.864-.192-.597 0-1.088.229-1.472.688-.373.448-.56 1.05-.56 1.808v4.032h-1.504v-5.952a23.507 23.507 0 00-.064-1.632h1.424zm8.224 8.88c.331.373.742.672 1.232.896a3.735 3.735 0 001.536.336c.502 0 .923-.075 1.264-.224.342-.139.614-.336.816-.592.214-.246.363-.539.448-.88a4.07 4.07 0 00.144-1.104v-.976h-.032a2.672 2.672 0 01-1.136.976c-.48.224-.992.336-1.536.336a4.044 4.044 0 01-1.584-.304 3.572 3.572 0 01-1.2-.832 3.782 3.782 0 01-.768-1.232 4.317 4.317 0 01-.272-1.536c0-.544.091-1.056.272-1.536.182-.48.438-.896.768-1.248a3.448 3.448 0 011.2-.848c.47-.214.992-.32 1.568-.32.544 0 1.062.117 1.552.352a2.67 2.67 0 011.184 1.072h.032v-1.216h1.456v7.2a5.91 5.91 0 01-.208 1.584c-.138.512-.373.96-.704 1.344-.33.394-.762.709-1.296.944-.533.234-1.194.352-1.984.352a5.811 5.811 0 01-2-.368 4.996 4.996 0 01-1.712-1.008l.96-1.168zm.464-5.168c0 .352.054.688.16 1.008.118.32.283.602.496.848.224.245.491.442.8.592.31.149.662.224 1.056.224.384 0 .736-.07 1.056-.208.32-.139.592-.326.816-.56.224-.246.395-.528.512-.848.128-.331.192-.683.192-1.056a2.73 2.73 0 00-.192-1.024 2.405 2.405 0 00-.528-.848 2.342 2.342 0 00-.816-.576 2.351 2.351 0 00-1.04-.224c-.394 0-.746.074-1.056.224-.309.138-.576.33-.8.576a2.479 2.479 0 00-.496.848c-.106.32-.16.661-.16 1.024zm20.094.064c0 .586-.107 1.125-.32 1.616a3.79 3.79 0 01-.864 1.28 3.99 3.99 0 01-1.296.832 4.479 4.479 0 01-1.616.288 4.479 4.479 0 01-1.616-.288 3.99 3.99 0 01-1.296-.832 4.105 4.105 0 01-.864-1.28 4.19 4.19 0 01-.304-1.616c0-.587.101-1.12.304-1.6a3.9 3.9 0 01.864-1.264 3.78 3.78 0 011.296-.816 4.263 4.263 0 011.616-.304c.576 0 1.115.101 1.616.304a3.78 3.78 0 011.296.816c.373.352.661.773.864 1.264.213.48.32 1.013.32 1.6zm-1.568 0c0-.363-.059-.71-.176-1.04a2.447 2.447 0 00-.48-.864 2.272 2.272 0 00-.8-.608 2.428 2.428 0 00-1.072-.224c-.405 0-.768.074-1.088.224a2.315 2.315 0 00-.784.608 2.647 2.647 0 00-.496.864c-.107.33-.16.677-.16 1.04 0 .362.053.709.16 1.04.117.33.283.624.496.88.213.256.475.458.784.608.32.149.683.224 1.088.224s.763-.075 1.072-.224c.32-.15.587-.352.8-.608a2.63 2.63 0 00.48-.88 3.1 3.1 0 00.176-1.04zm8.677 3.808a10.449 10.449 0 01-.048-.64c-.01-.246-.016-.448-.016-.608h-.032c-.192.405-.517.752-.976 1.04a2.802 2.802 0 01-1.504.416c-.49 0-.917-.08-1.28-.24a2.483 2.483 0 01-.88-.656 3.143 3.143 0 01-.512-.992 4.383 4.383 0 01-.16-1.2v-4.704h1.504v4.192c0 .309.022.608.064.896.054.277.144.522.272.736.128.213.304.384.528.512.224.128.512.192.864.192.608 0 1.099-.224 1.472-.672.374-.459.56-1.067.56-1.824v-4.032h1.504v5.952c0 .202.006.464.016.784.011.32.027.602.048.848h-1.424zm7.361-6.352h-2.016v3.952c0 .458.085.789.256.992.171.192.443.288.816.288.139 0 .288-.016.448-.048.16-.032.304-.08.432-.144l.048 1.232a3.173 3.173 0 01-.608.144 3.467 3.467 0 01-.672.064c-.715 0-1.264-.198-1.648-.592-.373-.395-.56-.987-.56-1.776v-4.112h-1.456v-1.232h1.456v-2.176h1.488v2.176h2.016v1.232zm-73.905 31.552c-.16.416-.342.784-.544 1.104-.192.33-.427.608-.704.832-.267.234-.587.41-.96.528-.363.117-.795.176-1.296.176-.246 0-.502-.016-.768-.048a4.77 4.77 0 01-.672-.128l.288-2.208c.128.042.266.074.416.096.16.032.304.048.432.048.405 0 .698-.096.88-.288.181-.182.336-.443.464-.784l.256-.656-3.328-7.84h2.912l1.776 5.12h.048l1.584-5.12h2.784l-3.568 9.168zm12.71-5.216c0 .65-.117 1.242-.352 1.776-.235.522-.555.97-.96 1.344a4.49 4.49 0 01-1.408.848 4.792 4.792 0 01-1.712.304 4.88 4.88 0 01-1.712-.304 4.49 4.49 0 01-1.408-.848 4.203 4.203 0 01-.944-1.344 4.362 4.362 0 01-.352-1.776c0-.651.117-1.238.352-1.76.235-.523.549-.966.944-1.328.405-.363.875-.64 1.408-.832a5.107 5.107 0 011.712-.288c.608 0 1.179.096 1.712.288a4.238 4.238 0 011.408.832 3.9 3.9 0 01.96 1.328c.235.522.352 1.109.352 1.76zm-2.528 0a2.28 2.28 0 00-.128-.752 1.882 1.882 0 00-.368-.64 1.81 1.81 0 00-.592-.464 1.795 1.795 0 00-.816-.176c-.309 0-.581.058-.816.176a1.81 1.81 0 00-.592.464 2.05 2.05 0 00-.352.64 2.556 2.556 0 000 1.504c.085.245.208.469.368.672.16.192.357.346.592.464.235.117.507.176.816.176.309 0 .581-.059.816-.176.235-.118.432-.272.592-.464.16-.203.277-.427.352-.672.085-.246.128-.496.128-.752zm9.117 4.016v-1.104h-.032a2.15 2.15 0 01-.384.512c-.149.16-.33.298-.544.416a3.12 3.12 0 01-.688.288 2.696 2.696 0 01-.784.112c-.533 0-.986-.096-1.36-.288a2.787 2.787 0 01-.896-.736 3.245 3.245 0 01-.496-1.04 5.063 5.063 0 01-.144-1.2v-4.928h2.64v4.32c0 .224.016.437.048.64.032.202.091.384.176.544.096.16.219.288.368.384.15.085.347.128.592.128.459 0 .806-.171 1.04-.512a2 2 0 00.368-1.2v-4.304h2.624v7.968h-2.528zm9.428-5.824a1.959 1.959 0 00-.352-.064 3.103 3.103 0 00-.32-.016c-.352 0-.65.064-.896.192a1.94 1.94 0 00-.576.464 1.84 1.84 0 00-.304.592c-.064.213-.096.4-.096.56v4.096h-2.624v-7.968h2.528v1.152h.032c.203-.406.491-.736.864-.992a2.239 2.239 0 011.296-.384c.107 0 .208.005.304.016.107.01.192.026.256.048l-.112 2.304zm10.136 5.824c-.896 0-1.717-.128-2.464-.384a5.369 5.369 0 01-1.92-1.12 5.363 5.363 0 01-1.232-1.824c-.288-.726-.432-1.552-.432-2.48 0-.864.155-1.654.464-2.368a5.48 5.48 0 011.28-1.84 5.837 5.837 0 011.952-1.184 6.827 6.827 0 012.448-.432c.875 0 1.685.144 2.432.432a5.659 5.659 0 011.936 1.184 5.138 5.138 0 011.264 1.824c.309.704.464 1.482.464 2.336 0 .437-.048.848-.144 1.232a4.872 4.872 0 01-.384 1.024c-.16.309-.341.586-.544.832a4.528 4.528 0 01-.608.592v.048l2.384-.048v2.176h-6.896zm3.296-5.776c0-.491-.08-.944-.24-1.36a2.956 2.956 0 00-.656-1.072 2.772 2.772 0 00-1.008-.688 3.227 3.227 0 00-1.296-.256c-.459 0-.885.085-1.28.256a2.97 2.97 0 00-1.008.688 3.15 3.15 0 00-.672 1.072c-.16.416-.24.869-.24 1.36 0 .512.075.981.224 1.408a3.5 3.5 0 00.656 1.088c.288.298.624.533 1.008.704.395.16.827.24 1.296.24.459 0 .885-.08 1.28-.24a3.145 3.145 0 001.024-.704c.288-.31.512-.672.672-1.088.16-.427.24-.896.24-1.408zm9.751 5.776v-1.104h-.032a2.15 2.15 0 01-.384.512c-.149.16-.331.298-.544.416a3.14 3.14 0 01-.688.288 2.701 2.701 0 01-.784.112c-.533 0-.987-.096-1.36-.288a2.776 2.776 0 01-.896-.736 3.245 3.245 0 01-.496-1.04 5.063 5.063 0 01-.144-1.2v-4.928h2.64v4.32c0 .224.016.437.048.64.032.202.091.384.176.544.096.16.219.288.368.384.149.085.347.128.592.128.459 0 .805-.171 1.04-.512.245-.342.368-.742.368-1.2v-4.304h2.624v7.968h-2.528zm7.108-10.512c0 .202-.043.394-.128.576-.075.17-.181.32-.32.448a1.375 1.375 0 01-.48.304 1.508 1.508 0 01-.576.112c-.427 0-.784-.139-1.072-.416a1.4 1.4 0 01-.432-1.024c0-.192.037-.374.112-.544.075-.182.181-.336.32-.464s.299-.23.48-.304a1.49 1.49 0 011.168-.016c.192.074.352.176.48.304.139.128.245.282.32.464.085.17.128.357.128.56zm-2.816 10.512v-7.968h2.624v7.968h-2.624zm3.902 0v-2.048l3.744-3.904h-3.6v-2.016h6.8v1.968l-3.856 3.968h4.016v2.032h-7.104z"/><defs><filter id="filter0_d" width="363.34" height="350.34" x=".828" y=".83" color-interpolation-filters="sRGB" filterUnits="userSpaceOnUse"><feFlood flood-opacity="0" result="BackgroundImageFix"/><feColorMatrix in="SourceAlpha" values="0 0 0 0 0 0 0 0 0 0 0 0 0 0 0 0 0 0 127 0"/><feOffset dy="5"/><feGaussianBlur stdDeviation="3.5"/><feColorMatrix values="0 0 0 0 0 0 0 0 0 0 0 0 0 0 0 0 0 0 0.05 0"/><feBlend in2="BackgroundImageFix" result="effect1_dropShadow"/><feBlend in="SourceGraphic" in2="effect1_dropShadow" result="shape"/></filter></defs></svg>