<svg xmlns="http://www.w3.org/2000/svg" fill="none" viewBox="0 0 388 352"><defs/><g filter="url(#filter0_d)"><mask id="a" width="374" height="338" x="7" y="2" fill="#000" maskUnits="userSpaceOnUse"><path fill="#fff" d="M7 2h374v338H7z"/><path fill-rule="evenodd" d="M169.182 22.004h16.382c23.748 0 43 19.252 43 43v20.38c0 .422-.006.842-.018 1.26 6.345-3.403 13.636-5.33 21.453-5.33h16.911c17.318 0 32.841 9.465 41.578 23.467h17.307c23.748 0 43 19.252 43 43v10.791c0 23.748-19.252 43-43 43h-85.34c6.524 5.474 11.659 12.591 14.71 20.667h19.607c7.042-6.276 16.386-10.069 26.773-10.069h31.987c23.036 0 42.481 18.658 43.432 41.674.564 13.641-5.495 25.751-15.32 33.354-4.46 16.628-18.639 29.279-36.075 31.489C318.427 329.174 306.372 336 292.438 336h-31.987c-13.78 0-26.276-6.677-34.296-16.97h-5.246a42.815 42.815 0 01-26.02-8.762c-1.76 5.267-6.691 9.015-12.653 9.015h-4.829c-7.681 0-14.165-6.221-14.482-13.896-.317-7.675 5.653-13.897 13.334-13.897h4.513a42.715 42.715 0 01-2.585-10.536c-10.783-4.416-19.774-12.621-25.235-22.899H75.923c-23.748 0-43-19.252-43-43v-10.791c0-20.845 14.832-38.226 34.518-42.164 8.124-11.314 21.375-18.654 36.625-18.654h16.912c14.87 0 28.417 6.98 37.481 17.818h16.664c2.951 0 5.833.297 8.617.863a43.547 43.547 0 01-.145-3.555v-9.484h-3.817c-13.535 0-25.407-8.642-30.175-20.704H78.921c-5.661 5.383-13.364 8.667-21.97 8.667H45.468c-18.267 0-33.686-14.795-34.44-33.047-.495-11.972 5.444-22.457 14.745-28.255V65.004c0-23.748 19.252-43 43-43h13.039C90.026 12.207 102.36 6 116.385 6h16.912c14.024 0 26.868 6.207 35.885 16.004zm-32.202 299.95c-.185-4.48 3.3-8.112 7.784-8.112h2.818c4.484 0 8.269 3.632 8.454 8.112.185 4.48-3.3 8.112-7.784 8.112h-2.818c-4.484 0-8.269-3.632-8.454-8.112z" clip-rule="evenodd"/></mask><path fill="#fff" fill-rule="evenodd" d="M169.182 22.004h16.382c23.748 0 43 19.252 43 43v20.38c0 .422-.006.842-.018 1.26 6.345-3.403 13.636-5.33 21.453-5.33h16.911c17.318 0 32.841 9.465 41.578 23.467h17.307c23.748 0 43 19.252 43 43v10.791c0 23.748-19.252 43-43 43h-85.34c6.524 5.474 11.659 12.591 14.71 20.667h19.607c7.042-6.276 16.386-10.069 26.773-10.069h31.987c23.036 0 42.481 18.658 43.432 41.674.564 13.641-5.495 25.751-15.32 33.354-4.46 16.628-18.639 29.279-36.075 31.489C318.427 329.174 306.372 336 292.438 336h-31.987c-13.78 0-26.276-6.677-34.296-16.97h-5.246a42.815 42.815 0 01-26.02-8.762c-1.76 5.267-6.691 9.015-12.653 9.015h-4.829c-7.681 0-14.165-6.221-14.482-13.896-.317-7.675 5.653-13.897 13.334-13.897h4.513a42.715 42.715 0 01-2.585-10.536c-10.783-4.416-19.774-12.621-25.235-22.899H75.923c-23.748 0-43-19.252-43-43v-10.791c0-20.845 14.832-38.226 34.518-42.164 8.124-11.314 21.375-18.654 36.625-18.654h16.912c14.87 0 28.417 6.98 37.481 17.818h16.664c2.951 0 5.833.297 8.617.863a43.547 43.547 0 01-.145-3.555v-9.484h-3.817c-13.535 0-25.407-8.642-30.175-20.704H78.921c-5.661 5.383-13.364 8.667-21.97 8.667H45.468c-18.267 0-33.686-14.795-34.44-33.047-.495-11.972 5.444-22.457 14.745-28.255V65.004c0-23.748 19.252-43 43-43h13.039C90.026 12.207 102.36 6 116.385 6h16.912c14.024 0 26.868 6.207 35.885 16.004zm-32.202 299.95c-.185-4.48 3.3-8.112 7.784-8.112h2.818c4.484 0 8.269 3.632 8.454 8.112.185 4.48-3.3 8.112-7.784 8.112h-2.818c-4.484 0-8.269-3.632-8.454-8.112z" clip-rule="evenodd"/><path fill="#ACACAC" fill-opacity=".15" d="M169.182 22.004l-2.333 2.147.942 1.023h1.391v-3.17zm59.364 64.64l-3.169-.09-.157 5.472 4.824-2.588-1.498-2.793zm79.942 18.137l-2.689 1.678.931 1.492h1.758v-3.17zm-68.033 96.791v-3.17h-8.709l6.672 5.598 2.037-2.428zm14.71 20.667l-2.965 1.121.774 2.049h2.191v-3.17zm19.607 0v3.17h1.208l.901-.803-2.109-2.367zm102.192 31.605l-3.167.131 3.167-.131zm-15.32 33.354l-1.94-2.507-.845.654-.277 1.032 3.062.821zm-36.075 31.489l-.399-3.145-1.417.18-.804 1.181 2.62 1.784zm-99.414.343l2.501-1.948-.952-1.222h-1.549v3.17zm-31.266-8.762l1.92-2.523-3.523-2.681-1.403 4.199 3.006 1.005zm-31.964-4.881l-3.167.131 3.167-.131zm17.847-13.897v3.17h4.619l-1.662-4.31-2.957 1.14zm-2.585-10.536l3.15-.359-.213-1.864-1.735-.711-1.202 2.934zm-25.235-22.899l2.8-1.488-.894-1.682h-1.906v3.17zM67.442 162.1l.621 3.108 1.225-.245.728-1.014-2.575-1.849zm91.017-.836l-2.432 2.033.951 1.137h1.481v-3.17zm25.281.863l-.632 3.107 4.136.841-.345-4.206-3.159.258zm-.145-13.039h3.17v-3.17h-3.17v3.17zm-33.992-20.704l2.948-1.165-.792-2.005h-2.156v3.17zm-70.682 0v-3.17h-1.266l-.918.873 2.184 2.297zm-67.892-24.38l3.167-.131-3.167.131zm14.745-28.255l1.677 2.69 1.493-.93v-1.76h-3.17zm56.039-53.745v3.17h1.479l.95-1.133-2.43-2.037zm103.751-3.17h-16.382v6.34h16.382v-6.34zm46.17 46.17c0-25.499-20.671-46.17-46.17-46.17v6.34c21.998 0 39.83 17.833 39.83 39.83h6.34zm0 20.38v-20.38h-6.34v20.38h6.34zm-.019 1.352c.013-.45.019-.9.019-1.352h-6.34c0 .391-.005.781-.017 1.17l6.338.182zm18.284-8.593c-8.345 0-16.15 2.06-22.951 5.709l2.996 5.586c5.889-3.158 12.666-4.955 19.955-4.955v-6.34zm16.911 0h-16.911v6.34h16.911v-6.34zm44.268 24.96c-9.274-14.86-25.776-24.96-44.268-24.96v6.34c16.145 0 30.687 8.833 38.889 21.976l5.379-3.356zm14.617-1.492h-17.307v6.34h17.307v-6.34zm46.17 46.17c0-25.499-20.671-46.17-46.17-46.17v6.34c21.998 0 39.83 17.832 39.83 39.83h6.34zm0 10.791v-10.791h-6.34v10.791h6.34zm-46.17 46.17c25.499 0 46.17-20.671 46.17-46.17h-6.34c0 21.998-17.832 39.83-39.83 39.83v6.34zm-85.34 0h85.34v-6.34h-85.34v6.34zm17.675 16.377c-3.248-8.597-8.708-16.161-15.637-21.975L238.418 204c6.118 5.134 10.927 11.805 13.782 19.36l5.93-2.241zm16.642-2.05h-19.607v6.34h19.607v-6.34zM301.545 209c-11.176 0-21.268 4.087-28.882 10.873l4.218 4.733c6.47-5.767 15.066-9.266 24.664-9.266V209zm31.987 0h-31.987v6.34h31.987V209zm46.6 44.714C379.11 228.999 358.268 209 333.532 209v6.34c21.336 0 39.384 17.317 40.265 38.635l6.335-.261zm-16.548 35.991c10.622-8.219 17.154-21.305 16.548-35.991l-6.335.261c.52 12.595-5.065 23.73-14.093 30.716l3.88 5.014zm-37.617 32.127c18.73-2.374 33.95-15.957 38.739-33.813l-6.124-1.642c-4.13 15.401-17.27 27.119-33.412 29.165l.797 6.29zm-33.529 17.338c15.002 0 28.03-7.361 35.751-18.699l-5.24-3.568c-6.563 9.637-17.646 15.927-30.511 15.927v6.34zm-31.987 0h31.987v-6.34h-31.987v6.34zm-36.796-18.192c8.581 11.013 21.976 18.192 36.796 18.192v-6.34c-12.741 0-24.336-6.175-31.795-15.748l-5.001 3.896zm-2.746 1.222h5.246v-6.34h-5.246v6.34zm-27.94-9.41a45.982 45.982 0 0027.94 9.41v-6.34a39.641 39.641 0 01-24.1-8.115l-3.84 5.045zm-10.733 9.663c7.345 0 13.474-4.639 15.66-11.181l-6.013-2.009c-1.334 3.992-5.068 6.85-9.647 6.85v6.34zm-4.829 0h4.829v-6.34h-4.829v6.34zm-17.649-16.935c.387 9.373 8.268 16.935 17.649 16.935v-6.34c-5.981 0-11.068-4.881-11.315-10.857l-6.334.262zm16.501-17.198c-9.483 0-16.893 7.722-16.501 17.198l6.334-.262c-.242-5.874 4.288-10.596 10.167-10.596v-6.34zm4.513 0h-4.513v6.34h4.513v-6.34zm-5.734-7.007a45.858 45.858 0 002.776 11.317l5.915-2.28a39.603 39.603 0 01-2.392-9.755l-6.299.718zm-24.885-21.771c5.804 10.924 15.355 19.645 26.833 24.345l2.403-5.867c-10.09-4.131-18.519-11.82-23.637-21.453l-5.599 2.975zm-74.23 1.683h77.029v-6.34H75.923v6.34zm-46.17-46.17c0 25.499 20.671 46.17 46.17 46.17v-6.34c-21.997 0-39.83-17.833-39.83-39.83h-6.34zm0-10.791v10.791h6.34v-10.791h-6.34zm37.067-45.272c-21.14 4.229-37.067 22.887-37.067 45.272h6.34c0-19.305 13.737-35.408 31.97-39.056l-1.243-6.216zm37.246-18.716c-16.301 0-30.498 7.857-39.2 19.975l5.15 3.698c7.546-10.509 19.851-17.333 34.05-17.333v-6.34zm16.912 0h-16.912v6.34h16.912v-6.34zm39.913 18.954c-9.62-11.503-24.034-18.954-39.913-18.954v6.34c13.862 0 26.541 6.508 35.049 16.681l4.864-4.067zm14.232-1.136h-16.664v6.34h16.664v-6.34zm9.249.927a46.393 46.393 0 00-9.249-.927v6.34c2.738 0 5.408.275 7.985.8l1.264-6.213zm-3.947-.449c0 1.284.053 2.555.156 3.814l6.318-.517a40.387 40.387 0 01-.134-3.297h-6.34zm0-9.484v9.484h6.34v-9.484h-6.34zm3.17-3.17h-3.817v6.34h3.817v-6.34zm-3.817 0c-12.173 0-22.914-7.788-27.227-18.699l-5.896 2.33c5.223 13.214 18.225 22.709 33.123 22.709v-6.34zM78.921 131.554h70.682v-6.34H78.921v6.34zm-21.97 8.667c9.431 0 17.913-3.606 24.155-9.54l-4.369-4.594c-5.081 4.831-12.006 7.794-19.787 7.794v6.34zm-11.482 0H56.95v-6.34H45.47v6.34zM7.861 104.135c.825 19.95 17.641 36.086 37.608 36.086v-6.34c-16.567 0-30.59-13.455-31.273-30.008l-6.335.262zm16.236-31.076c-10.251 6.39-16.778 17.943-16.236 31.076l6.335-.262c-.447-10.81 4.904-20.229 13.255-25.434l-3.354-5.38zm-1.493-8.055V75.75h6.34V65.004h-6.34zm46.17-46.17c-25.5 0-46.17 20.671-46.17 46.17h6.34c0-21.997 17.832-39.83 39.83-39.83v-6.34zm13.039 0h-13.04v6.34h13.04v-6.34zM116.385 2.83c-14.988 0-28.203 6.643-37.002 17.138l4.859 4.073c7.628-9.1 19.083-14.871 32.143-14.871V2.83zm16.912 0h-16.912v6.34h16.912V2.83zm38.217 17.028c-9.571-10.4-23.242-17.028-38.217-17.028v6.34c13.072 0 25.091 5.787 33.552 14.98l4.665-4.292zm-26.75 290.814c-6.286 0-11.211 5.132-10.951 11.413l6.334-.262c-.11-2.68 1.935-4.811 4.617-4.811v-6.34zm2.818 0h-2.818v6.34h2.818v-6.34zm11.622 11.151c-.256-6.178-5.438-11.151-11.622-11.151v6.34c2.784 0 5.172 2.291 5.287 5.073l6.335-.262zm-10.952 11.413c6.286 0 11.211-5.132 10.952-11.413l-6.335.262c.111 2.679-1.935 4.811-4.617 4.811v6.34zm-2.818 0h2.818v-6.34h-2.818v6.34zm-11.621-11.151c.255 6.178 5.437 11.151 11.621 11.151v-6.34c-2.784 0-5.172-2.291-5.287-5.073l-6.334.262z" mask="url(#a)"/></g><path fill="#333" d="M52.876 67.766h.032l2.656-9.024h1.744l2.64 9.024h.032l2.496-9.024h1.68L60.828 70.07H59.18l-2.752-9.104h-.032l-2.752 9.104h-1.648l-3.328-11.328h1.712l2.496 9.024zm14.308-4.128c.181-.373.49-.693.928-.96a2.77 2.77 0 011.472-.4c.49 0 .912.086 1.264.256a2.477 2.477 0 011.392 1.632c.118.374.176.774.176 1.2v4.704h-1.504v-4.192c0-.309-.027-.602-.08-.88a2.01 2.01 0 00-.256-.736 1.432 1.432 0 00-.528-.512c-.213-.128-.496-.192-.848-.192-.597 0-1.088.23-1.472.688-.384.448-.576 1.051-.576 1.808v4.016h-1.504V57.974h1.504v5.664h.032zm12.496 1.52c0-.565-.17-.981-.512-1.248-.341-.277-.795-.416-1.36-.416a2.96 2.96 0 00-1.216.256c-.373.16-.688.368-.944.624l-.8-.96c.373-.352.827-.629 1.36-.832a4.955 4.955 0 011.744-.304c.544 0 1.013.08 1.408.24.405.15.736.358.992.624.256.267.448.582.576.944.128.363.192.752.192 1.168v3.312c0 .256.005.528.016.816.021.278.053.507.096.688h-1.36a4.738 4.738 0 01-.128-1.088h-.048c-.277.406-.63.72-1.056.944-.416.224-.912.336-1.488.336-.299 0-.613-.042-.944-.128a2.604 2.604 0 01-.88-.384 2.296 2.296 0 01-.672-.72c-.17-.298-.256-.666-.256-1.104 0-.576.155-1.029.464-1.36.31-.341.715-.597 1.216-.768a6.625 6.625 0 011.696-.352c.63-.053 1.264-.08 1.904-.08v-.208zm-.368 1.296c-.373 0-.763.016-1.168.048a5.496 5.496 0 00-1.088.192c-.32.096-.587.24-.8.432-.213.192-.32.448-.32.768 0 .224.043.411.128.56.096.15.219.272.368.368.15.096.315.166.496.208.181.032.368.048.56.048.704 0 1.243-.208 1.616-.624.384-.426.576-.96.576-1.6v-.4h-.368zm7.876-2.736h-2.016v3.952c0 .459.085.79.256.992.17.192.442.288.816.288.138 0 .288-.016.448-.048.16-.032.304-.08.432-.144l.048 1.232a3.18 3.18 0 01-.608.144 3.42 3.42 0 01-.672.064c-.715 0-1.264-.197-1.648-.592-.374-.394-.56-.986-.56-1.776v-4.112h-1.456v-1.232h1.456V60.31h1.488v2.176h2.016v1.232zm9.65.688a1.906 1.906 0 00-.72-.672 2.019 2.019 0 00-1.04-.272c-.172 0-.342.022-.513.064-.17.032-.325.091-.464.176a.967.967 0 00-.32.304.82.82 0 00-.112.448c0 .32.144.56.432.72.288.15.72.288 1.296.416.363.086.699.187 1.008.304.31.118.576.267.8.448.235.171.416.379.544.624.128.246.192.534.192.864 0 .448-.085.827-.256 1.136-.17.31-.4.566-.688.768-.277.192-.597.331-.96.416a4.876 4.876 0 01-1.12.128 4.492 4.492 0 01-1.696-.336 3.313 3.313 0 01-1.36-1.024l1.072-.912c.203.299.48.55.832.752.363.203.757.304 1.184.304.192 0 .374-.016.544-.048.181-.042.342-.106.48-.192a.97.97 0 00.352-.336.993.993 0 00.128-.528c0-.352-.17-.613-.512-.784-.33-.17-.821-.33-1.472-.48a12.615 12.615 0 01-.784-.224 2.811 2.811 0 01-.704-.384 2.007 2.007 0 01-.528-.592c-.128-.245-.192-.544-.192-.896 0-.405.08-.752.24-1.04.17-.298.39-.538.656-.72.267-.192.57-.33.912-.416a3.966 3.966 0 012.624.176c.512.214.907.523 1.184.928l-1.04.88zm4.581-.768c.181-.373.49-.693.928-.96a2.77 2.77 0 011.472-.4c.49 0 .912.086 1.264.256.352.16.645.379.88.656.234.278.405.603.512.976.117.374.176.774.176 1.2v4.704h-1.504v-4.192c0-.309-.027-.602-.08-.88a2.015 2.015 0 00-.256-.736 1.432 1.432 0 00-.528-.512c-.214-.128-.496-.192-.848-.192-.598 0-1.088.23-1.472.688-.384.448-.576 1.051-.576 1.808v4.016h-1.504V57.974h1.504v5.664h.032zm15.455 2.624c0 .587-.106 1.126-.32 1.616-.202.491-.49.918-.864 1.28-.362.352-.794.63-1.296.832a4.479 4.479 0 01-1.616.288 4.483 4.483 0 01-1.616-.288 3.986 3.986 0 01-1.296-.832 4.128 4.128 0 01-.864-1.28 4.205 4.205 0 01-.304-1.616c0-.586.102-1.12.304-1.6.214-.49.502-.912.864-1.264a3.78 3.78 0 011.296-.816 4.273 4.273 0 011.616-.304c.576 0 1.115.102 1.616.304.502.192.934.464 1.296.816.374.352.662.774.864 1.264.214.48.32 1.014.32 1.6zm-1.568 0c0-.362-.058-.709-.176-1.04a2.421 2.421 0 00-.48-.864 2.276 2.276 0 00-.8-.608 2.435 2.435 0 00-1.072-.224c-.405 0-.768.075-1.088.224-.309.15-.57.352-.784.608a2.671 2.671 0 00-.496.864c-.106.331-.16.678-.16 1.04 0 .363.054.71.16 1.04.118.331.283.624.496.88.214.256.475.459.784.608.32.15.683.224 1.088.224.406 0 .763-.074 1.072-.224.32-.149.587-.352.8-.608a2.59 2.59 0 00.48-.88 3.07 3.07 0 00.176-1.04zm8.998 3.808a13.933 13.933 0 01-.064-1.248h-.032c-.192.406-.517.752-.976 1.04a2.8 2.8 0 01-1.504.416c-.491 0-.917-.08-1.28-.24a2.48 2.48 0 01-.88-.656 3.12 3.12 0 01-.512-.992 4.337 4.337 0 01-.16-1.2v-4.704h1.504v4.192c0 .31.021.608.064.896.053.278.144.523.272.736.128.214.304.384.528.512.224.128.512.192.864.192.608 0 1.099-.224 1.472-.672.373-.458.56-1.066.56-1.824v-4.032h1.504v5.952a23.523 23.523 0 00.064 1.632h-1.424zm5.504 0h-1.504V57.974h1.504V70.07zm8.669-1.2c-.288.459-.683.811-1.184 1.056a3.554 3.554 0 01-1.552.352 3.955 3.955 0 01-1.584-.304 3.627 3.627 0 01-1.2-.864 3.855 3.855 0 01-.768-1.28 4.472 4.472 0 01-.272-1.568c0-.554.09-1.072.272-1.552.181-.49.437-.917.768-1.28a3.611 3.611 0 011.216-.848 3.87 3.87 0 011.552-.304c.618 0 1.157.134 1.616.4.458.256.821.571 1.088.944h.032v-5.648h1.504V70.07h-1.456v-1.2h-.032zm-4.992-2.608c0 .352.053.694.16 1.024.106.331.266.624.48.88.213.256.474.464.784.624.309.15.672.224 1.088.224.384 0 .73-.074 1.04-.224.32-.149.592-.346.816-.592.224-.256.394-.549.512-.88.128-.33.192-.677.192-1.04 0-.362-.064-.709-.192-1.04a2.699 2.699 0 00-.512-.88 2.442 2.442 0 00-.816-.608 2.364 2.364 0 00-1.04-.224c-.416 0-.779.075-1.088.224a2.31 2.31 0 00-.784.608 2.59 2.59 0 00-.48.88c-.107.331-.16.672-.16 1.024zm14.572-2.528c.192-.405.496-.746.912-1.024.427-.288.928-.432 1.504-.432.512 0 .971.118 1.376.352.416.235.741.624.976 1.168a2.65 2.65 0 011.072-1.12c.459-.266.96-.4 1.504-.4.491 0 .912.086 1.264.256.352.16.645.379.88.656.235.278.405.603.512.976.117.374.176.774.176 1.2v4.704h-1.504v-4.208c0-.309-.027-.602-.08-.88a2.233 2.233 0 00-.272-.736 1.474 1.474 0 00-.512-.512c-.213-.128-.485-.192-.816-.192a1.66 1.66 0 00-.88.224 1.8 1.8 0 00-.608.56c-.149.224-.261.48-.336.768a4.044 4.044 0 00-.096.88v4.096h-1.504v-4.512c0-.298-.027-.57-.08-.816a1.583 1.583 0 00-.272-.624 1.251 1.251 0 00-.496-.416c-.203-.106-.453-.16-.752-.16-.555 0-1.019.23-1.392.688-.363.448-.544 1.051-.544 1.808v4.032h-1.504v-5.952a23.523 23.523 0 00-.064-1.632h1.424a12.906 12.906 0 01.064 1.248h.048zm15.595 4.704h.032l2.096-5.952h1.6l-3.68 9.376c-.128.32-.266.603-.416.848-.149.256-.325.47-.528.64a2.08 2.08 0 01-.72.416 2.837 2.837 0 01-.96.144c-.16 0-.325-.01-.496-.032a2.824 2.824 0 01-.496-.08l.144-1.328c.256.086.507.128.752.128.395 0 .688-.112.88-.336.192-.213.368-.522.528-.928l.48-1.264-3.248-7.584h1.68l2.352 5.952zm21.231 1.632h-6.656a6.622 6.622 0 01-2.384-.416 5.546 5.546 0 01-1.856-1.168 5.16 5.16 0 01-1.216-1.824c-.288-.714-.432-1.514-.432-2.4 0-.853.149-1.632.448-2.336a5.523 5.523 0 011.232-1.84 5.623 5.623 0 011.856-1.2 6.36 6.36 0 012.368-.432c.843 0 1.621.144 2.336.432a5.623 5.623 0 011.856 1.2 5.324 5.324 0 011.216 1.84c.299.704.448 1.483.448 2.336 0 1.014-.213 1.899-.64 2.656a4.897 4.897 0 01-1.696 1.792v.032h3.12v1.328zm-10.832-5.808c0 .619.096 1.2.288 1.744.203.534.485.998.848 1.392.363.395.8.71 1.312.944.512.224 1.088.336 1.728.336.619 0 1.184-.112 1.696-.336.523-.234.965-.549 1.328-.944a4.28 4.28 0 00.848-1.392 4.947 4.947 0 00.304-1.744c0-.608-.096-1.178-.288-1.712a4.063 4.063 0 00-.832-1.392 3.946 3.946 0 00-1.312-.96c-.512-.234-1.088-.352-1.728-.352-.64 0-1.216.118-1.728.352a4.115 4.115 0 00-1.328.96 4.28 4.28 0 00-.848 1.392 5.016 5.016 0 00-.288 1.712zm17.659 5.808a10.406 10.406 0 01-.048-.64 15.73 15.73 0 01-.016-.608h-.032c-.192.406-.517.752-.976 1.04a2.8 2.8 0 01-1.504.416c-.49 0-.917-.08-1.28-.24a2.48 2.48 0 01-.88-.656 3.14 3.14 0 01-.512-.992 4.375 4.375 0 01-.16-1.2v-4.704h1.504v4.192c0 .31.022.608.064.896.054.278.144.523.272.736.128.214.304.384.528.512.224.128.512.192.864.192.608 0 1.099-.224 1.472-.672.374-.458.56-1.066.56-1.824v-4.032h1.504v5.952c0 .203.006.464.016.784.011.32.027.603.048.848h-1.424zm5.489 0h-1.504v-7.584h1.504v7.584zm.256-10.32a.885.885 0 01-.304.688.988.988 0 01-.704.272.986.986 0 01-.704-.272.939.939 0 01-.288-.688c0-.277.096-.506.288-.688a.957.957 0 01.704-.288c.277 0 .512.096.704.288.202.182.304.411.304.688zm7.772 3.968l-4.32 5.088h4.496v1.264h-6.352v-1.232l4.288-5.12h-4.08v-1.232h5.968v1.232zM77.929 87.078h-2.304l1.424-4.336h2.016l-1.136 4.336zm-3.36 0h-2.288l1.456-4.336h2.016l-1.184 4.336zm15.15 3.696c0 .619-.123 1.142-.368 1.568-.246.416-.571.752-.976 1.008a4.38 4.38 0 01-1.392.56c-.512.107-1.04.16-1.584.16h-4.512V82.742h4.512c.437 0 .885.048 1.344.144.458.086.874.24 1.248.464.373.214.677.507.912.88.234.374.352.848.352 1.424 0 .63-.171 1.152-.512 1.568-.342.406-.79.699-1.344.88v.032c.32.054.618.155.896.304.288.139.533.32.736.544.213.224.378.486.496.784.128.299.192.635.192 1.008zm-3.104-4.752c0-.384-.15-.661-.448-.832-.288-.181-.72-.272-1.296-.272h-1.344v2.336h1.472c.512 0 .906-.101 1.184-.304.288-.213.432-.522.432-.928zm.368 4.496c0-.469-.176-.794-.528-.976-.352-.181-.822-.272-1.408-.272h-1.52v2.592h1.536c.213 0 .432-.016.656-.048.234-.042.442-.112.624-.208.192-.096.346-.229.464-.4.117-.181.176-.41.176-.688zm7.248-6.96c0 .203-.042.395-.128.576-.074.171-.181.32-.32.448a1.37 1.37 0 01-.48.304 1.497 1.497 0 01-.576.112c-.426 0-.784-.138-1.072-.416a1.4 1.4 0 01-.432-1.024c0-.192.038-.373.112-.544.075-.181.182-.336.32-.464a1.6 1.6 0 01.48-.304 1.497 1.497 0 011.168-.016c.192.075.352.176.48.304.139.128.246.283.32.464.086.171.128.358.128.56zM91.415 94.07v-7.968h2.624v7.968h-2.624zm13.151-.752c0 .779-.112 1.456-.336 2.032a3.747 3.747 0 01-.944 1.424 3.734 3.734 0 01-1.488.848 6.047 6.047 0 01-1.92.288c-.704 0-1.43-.106-2.176-.32a5.954 5.954 0 01-1.92-.928l1.312-1.872c.384.342.805.592 1.264.752.469.171.928.256 1.376.256.768 0 1.333-.202 1.696-.608.373-.405.56-.944.56-1.616v-.48h-.048c-.246.32-.576.576-.992.768-.416.192-.891.288-1.424.288-.608 0-1.147-.106-1.616-.32a3.728 3.728 0 01-1.2-.896 3.977 3.977 0 01-.736-1.296 4.883 4.883 0 01-.256-1.584c0-.554.085-1.082.256-1.584.17-.501.416-.944.736-1.328.33-.384.73-.688 1.2-.912.469-.234 1.002-.352 1.6-.352.501 0 .981.102 1.44.304.458.203.826.518 1.104.944h.032v-1.024h2.48v7.216zm-2.496-3.28c0-.266-.048-.522-.144-.768a1.789 1.789 0 00-.384-.64 1.813 1.813 0 00-.608-.448 1.916 1.916 0 00-.8-.16c-.299 0-.566.054-.8.16a1.78 1.78 0 00-.576.432c-.16.182-.283.395-.368.64a2.37 2.37 0 00-.128.784c0 .267.042.523.128.768.085.246.208.464.368.656.16.182.352.331.576.448.234.107.501.16.8.16.298 0 .565-.053.8-.16.245-.117.448-.266.608-.448.17-.181.298-.394.384-.64.096-.245.144-.506.144-.784zm8.723 4.032V82.742h2.752V94.07h-2.752zm10.982 0v-1.04h-.032c-.256.406-.624.72-1.104.944-.47.214-.971.32-1.504.32-.598 0-1.131-.117-1.6-.352a3.803 3.803 0 01-1.2-.928 4.28 4.28 0 01-.736-1.36 5.017 5.017 0 01-.256-1.6c0-.554.085-1.082.256-1.584.181-.512.432-.96.752-1.344.33-.384.725-.688 1.184-.912a3.593 3.593 0 011.568-.336c.586 0 1.082.112 1.488.336.405.224.72.47.944.736h.032v-4.976h2.624V94.07h-2.416zm-.096-4c0-.256-.048-.506-.144-.752a1.956 1.956 0 00-.384-.656 1.768 1.768 0 00-1.392-.64c-.31 0-.582.059-.816.176a1.814 1.814 0 00-.592.464c-.16.182-.283.395-.368.64a2.558 2.558 0 00-.112.752c0 .256.037.512.112.768.085.246.208.464.368.656s.357.347.592.464c.234.118.506.176.816.176a1.768 1.768 0 001.392-.64c.17-.192.298-.41.384-.656.096-.245.144-.496.144-.752zm10.083-.896c0-.416-.133-.773-.4-1.072-.256-.298-.645-.448-1.168-.448-.256 0-.491.043-.704.128-.213.075-.4.182-.56.32-.16.139-.288.304-.384.496a1.376 1.376 0 00-.16.576h3.376zm2.416 1.008v.32c0 .107-.005.208-.016.304h-5.776c.021.224.085.427.192.608.117.182.261.342.432.48a2.16 2.16 0 001.28.416c.416 0 .768-.074 1.056-.224.288-.16.523-.362.704-.608l1.824 1.152a3.734 3.734 0 01-1.488 1.264c-.608.288-1.317.432-2.128.432-.597 0-1.163-.09-1.696-.272a4.394 4.394 0 01-1.408-.816 4.007 4.007 0 01-.944-1.328c-.224-.522-.336-1.12-.336-1.792 0-.65.112-1.237.336-1.76a4 4 0 012.272-2.208 4.651 4.651 0 011.696-.304c.587 0 1.125.102 1.616.304a3.43 3.43 0 011.264.848c.352.374.624.827.816 1.36.203.534.304 1.142.304 1.824zm6.237.416h-.336c-.288 0-.581.016-.88.048-.288.022-.549.07-.784.144-.224.075-.41.187-.56.336a.728.728 0 00-.224.56c0 .15.032.278.096.384a.898.898 0 00.272.256c.107.064.23.112.368.144.139.022.272.032.4.032.534 0 .939-.144 1.216-.432.288-.298.432-.698.432-1.2v-.272zm-4.816-3.408a4.62 4.62 0 011.632-1.008 5.693 5.693 0 011.92-.336c.672 0 1.238.086 1.696.256.47.16.848.416 1.136.768.288.342.496.779.624 1.312.139.523.208 1.147.208 1.872v4.016h-2.4v-.848h-.048c-.202.331-.512.587-.928.768a3.214 3.214 0 01-1.328.272c-.32 0-.65-.042-.992-.128a3.003 3.003 0 01-.944-.416 2.297 2.297 0 01-.688-.768c-.181-.32-.272-.714-.272-1.184 0-.576.155-1.04.464-1.392.32-.352.726-.624 1.216-.816a6.565 6.565 0 011.664-.384c.608-.064 1.2-.096 1.776-.096v-.128c0-.394-.138-.682-.416-.864-.277-.192-.618-.288-1.024-.288-.373 0-.736.08-1.088.24-.341.16-.634.352-.88.576l-1.328-1.424zm13.76-.112h-2.032l1.184-4.336h2.288l-1.44 4.336zm-3.328 0h-2.016l1.152-4.336h2.288l-1.424 4.336zm12.222 5.792v1.2h-1.456V81.974h1.504v5.648h.048c.256-.373.613-.688 1.072-.944.458-.266 1.002-.4 1.632-.4.565 0 1.077.102 1.536.304.469.203.869.486 1.2.848.341.363.602.79.784 1.28.181.48.272.998.272 1.552 0 .555-.091 1.078-.272 1.568-.182.491-.438.918-.768 1.28-.331.363-.731.651-1.2.864-.47.203-.998.304-1.584.304a3.55 3.55 0 01-1.552-.352 2.97 2.97 0 01-1.184-1.056h-.032zm5.04-2.608c0-.352-.054-.693-.16-1.024a2.624 2.624 0 00-.48-.88 2.285 2.285 0 00-.8-.608 2.48 2.48 0 00-1.088-.224c-.384 0-.736.075-1.056.224-.31.15-.576.352-.8.608-.224.256-.4.55-.528.88a3.07 3.07 0 00-.176 1.04c0 .363.058.71.176 1.04.128.331.304.624.528.88.224.246.49.443.8.592.32.15.672.224 1.056.224a2.48 2.48 0 001.088-.224c.32-.16.586-.368.8-.624.213-.256.373-.549.48-.88.106-.33.16-.672.16-1.024zm9.196-.656a2.63 2.63 0 00-.16-.832 1.786 1.786 0 00-.4-.688 1.718 1.718 0 00-.656-.448 2.174 2.174 0 00-.912-.176c-.32 0-.624.059-.912.176a2.34 2.34 0 00-.736.448 2.551 2.551 0 00-.512.688 2.184 2.184 0 00-.224.832h4.512zm1.52.608v.256a2.2 2.2 0 01-.016.256h-6.016c.01.32.08.624.208.912.138.278.32.523.544.736.224.203.48.363.768.48.298.118.613.176.944.176.512 0 .954-.112 1.328-.336a2.72 2.72 0 00.88-.816l1.056.848a3.815 3.815 0 01-1.44 1.184c-.544.246-1.152.368-1.824.368a4.35 4.35 0 01-1.6-.288 3.757 3.757 0 01-1.264-.8 3.824 3.824 0 01-.832-1.264 4.23 4.23 0 01-.304-1.632c0-.586.096-1.125.288-1.616.202-.501.48-.928.832-1.28a3.671 3.671 0 011.248-.816c.48-.202.997-.304 1.552-.304.554 0 1.056.091 1.504.272.458.182.842.443 1.152.784.32.342.565.758.736 1.248.17.48.256 1.024.256 1.632zm5.619.64h-1.504v-.768c0-.277.027-.528.08-.752.054-.224.128-.426.224-.608.107-.181.23-.352.368-.512.15-.17.315-.341.496-.512l.592-.56c.235-.202.427-.421.576-.656.16-.245.24-.554.24-.928 0-.512-.165-.917-.496-1.216-.32-.309-.736-.464-1.248-.464-.533 0-.96.171-1.28.512a2.11 2.11 0 00-.56 1.248l-1.536-.176c.064-.458.198-.869.4-1.232a3.32 3.32 0 01.752-.944 3.19 3.19 0 011.056-.576 3.786 3.786 0 011.264-.208c.448 0 .864.064 1.248.192.395.128.742.32 1.04.576.299.246.534.555.704.928.171.363.256.784.256 1.264 0 .342-.037.64-.112.896-.074.256-.181.491-.32.704a2.99 2.99 0 01-.48.576c-.192.182-.4.368-.624.56a9.566 9.566 0 00-.544.496 1.87 1.87 0 00-.352.432c-.085.15-.149.315-.192.496a3.954 3.954 0 00-.048.672v.56zm.4 2.256c0 .278-.101.523-.304.736-.202.214-.458.32-.768.32-.298 0-.554-.101-.768-.304a1.04 1.04 0 01-.304-.736c0-.288.102-.533.304-.736.203-.213.459-.32.768-.32.31 0 .566.102.768.304.203.203.304.448.304.736zM226.526 138.311h.032l2.656-9.024h1.744l2.64 9.024h.032l2.496-9.024h1.68l-3.328 11.328h-1.648l-2.752-9.104h-.032l-2.752 9.104h-1.648l-3.328-11.328h1.712l2.496 9.024zm14.309-4.128c.181-.373.491-.693.928-.96.437-.266.928-.4 1.472-.4.491 0 .912.086 1.264.256.352.16.645.379.88.656a2.6 2.6 0 01.512.976c.117.374.176.774.176 1.2v4.704h-1.504v-4.192a4.69 4.69 0 00-.08-.88 2.022 2.022 0 00-.256-.736 1.434 1.434 0 00-.528-.512c-.213-.128-.496-.192-.848-.192-.597 0-1.088.23-1.472.688-.384.448-.576 1.051-.576 1.808v4.016h-1.504v-12.096h1.504v5.664h.032zm12.496 1.52c0-.565-.171-.981-.512-1.248-.342-.277-.795-.416-1.36-.416a2.97 2.97 0 00-1.216.256c-.374.16-.688.368-.944.624l-.8-.96a4.05 4.05 0 011.36-.832 4.969 4.969 0 011.744-.304c.544 0 1.013.08 1.408.24.405.15.736.358.992.624.256.267.448.582.576.944.128.363.192.752.192 1.168v3.312c0 .256.005.528.016.816.021.278.053.507.096.688h-1.36a4.693 4.693 0 01-.128-1.088h-.048c-.278.406-.63.72-1.056.944-.416.224-.912.336-1.488.336-.299 0-.614-.042-.944-.128a2.57 2.57 0 01-.88-.384 2.28 2.28 0 01-.672-.72c-.171-.298-.256-.666-.256-1.104 0-.576.154-1.029.464-1.36.309-.341.714-.597 1.216-.768a6.658 6.658 0 011.696-.352c.629-.053 1.264-.08 1.904-.08v-.208zm-.368 1.296c-.374 0-.763.016-1.168.048a5.481 5.481 0 00-1.088.192c-.32.096-.587.24-.8.432-.214.192-.32.448-.32.768 0 .224.042.411.128.56.096.15.218.272.368.368.149.096.314.166.496.208.181.032.368.048.56.048.704 0 1.242-.208 1.616-.624.384-.426.576-.96.576-1.6v-.4h-.368zm7.875-2.736h-2.016v3.952c0 .459.086.79.256.992.171.192.443.288.816.288.139 0 .288-.016.448-.048.16-.032.304-.08.432-.144l.048 1.232a3.173 3.173 0 01-.608.144 3.39 3.39 0 01-.672.064c-.714 0-1.264-.197-1.648-.592-.373-.394-.56-.986-.56-1.776v-4.112h-1.456v-1.232h1.456v-2.176h1.488v2.176h2.016v1.232zm9.65.688a1.915 1.915 0 00-.72-.672 2.02 2.02 0 00-1.04-.272c-.171 0-.341.022-.512.064a1.359 1.359 0 00-.464.176.967.967 0 00-.32.304.82.82 0 00-.112.448c0 .32.144.56.432.72.288.15.72.288 1.296.416.363.086.699.187 1.008.304.309.118.576.267.8.448.235.171.416.379.544.624.128.246.192.534.192.864 0 .448-.085.827-.256 1.136-.171.31-.4.566-.688.768a2.78 2.78 0 01-.96.416 4.84 4.84 0 01-1.12.128 4.494 4.494 0 01-1.696-.336 3.313 3.313 0 01-1.36-1.024l1.072-.912c.203.299.48.55.832.752.363.203.757.304 1.184.304.192 0 .373-.016.544-.048.181-.042.341-.106.48-.192a.964.964 0 00.352-.336.993.993 0 00.128-.528c0-.352-.171-.613-.512-.784-.331-.17-.821-.33-1.472-.48a12.223 12.223 0 01-.784-.224 2.806 2.806 0 01-.704-.384 2.014 2.014 0 01-.528-.592c-.128-.245-.192-.544-.192-.896 0-.405.08-.752.24-1.04.171-.298.389-.538.656-.72.267-.192.571-.33.912-.416a3.97 3.97 0 012.624.176c.512.214.907.523 1.184.928l-1.04.88zm4.581-.768c.182-.373.491-.693.928-.96.438-.266.928-.4 1.472-.4.491 0 .912.086 1.264.256a2.474 2.474 0 011.392 1.632c.118.374.176.774.176 1.2v4.704h-1.504v-4.192c0-.309-.026-.602-.08-.88a2.003 2.003 0 00-.256-.736 1.434 1.434 0 00-.528-.512c-.213-.128-.496-.192-.848-.192-.597 0-1.088.23-1.472.688-.384.448-.576 1.051-.576 1.808v4.016h-1.504v-12.096h1.504v5.664h.032zm15.456 2.624c0 .587-.107 1.126-.32 1.616a3.77 3.77 0 01-.864 1.28c-.363.352-.795.63-1.296.832a4.479 4.479 0 01-1.616.288 4.479 4.479 0 01-1.616-.288 3.974 3.974 0 01-1.296-.832 4.082 4.082 0 01-.864-1.28 4.183 4.183 0 01-.304-1.616c0-.586.101-1.12.304-1.6a3.91 3.91 0 01.864-1.264 3.78 3.78 0 011.296-.816 4.282 4.282 0 011.616-.304c.576 0 1.115.102 1.616.304a3.78 3.78 0 011.296.816c.373.352.661.774.864 1.264.213.48.32 1.014.32 1.6zm-1.568 0a3.1 3.1 0 00-.176-1.04 2.464 2.464 0 00-.48-.864 2.284 2.284 0 00-.8-.608 2.442 2.442 0 00-1.072-.224 2.55 2.55 0 00-1.088.224c-.309.15-.571.352-.784.608a2.668 2.668 0 00-.496.864c-.107.331-.16.678-.16 1.04 0 .363.053.71.16 1.04.117.331.283.624.496.88.213.256.475.459.784.608.32.15.683.224 1.088.224s.763-.074 1.072-.224c.32-.149.587-.352.8-.608a2.62 2.62 0 00.48-.88 3.09 3.09 0 00.176-1.04zm8.998 3.808a13.922 13.922 0 01-.064-1.248h-.032c-.192.406-.518.752-.976 1.04-.448.278-.95.416-1.504.416-.491 0-.918-.08-1.28-.24a2.462 2.462 0 01-.88-.656 3.112 3.112 0 01-.512-.992 4.334 4.334 0 01-.16-1.2v-4.704h1.504v4.192c0 .31.021.608.064.896.053.278.144.523.272.736.128.214.304.384.528.512.224.128.512.192.864.192.608 0 1.098-.224 1.472-.672.373-.458.56-1.066.56-1.824v-4.032h1.504v5.952a23.507 23.507 0 00.064 1.632h-1.424zm5.504 0h-1.504v-12.096h1.504v12.096zm8.668-1.2a2.833 2.833 0 01-1.184 1.056 3.546 3.546 0 01-1.552.352 3.957 3.957 0 01-1.584-.304 3.639 3.639 0 01-1.2-.864 3.878 3.878 0 01-.768-1.28 4.49 4.49 0 01-.272-1.568c0-.554.091-1.072.272-1.552.182-.49.438-.917.768-1.28a3.646 3.646 0 011.216-.848c.47-.202.987-.304 1.552-.304.619 0 1.158.134 1.616.4.459.256.822.571 1.088.944h.032v-5.648h1.504v12.096h-1.456v-1.2h-.032zm-4.992-2.608c0 .352.054.694.16 1.024a2.517 2.517 0 001.264 1.504c.31.15.672.224 1.088.224.384 0 .731-.074 1.04-.224.32-.149.592-.346.816-.592.224-.256.395-.549.512-.88.128-.33.192-.677.192-1.04a2.86 2.86 0 00-.192-1.04 2.688 2.688 0 00-.512-.88 2.451 2.451 0 00-.816-.608 2.365 2.365 0 00-1.04-.224c-.416 0-.778.075-1.088.224-.309.15-.57.352-.784.608a2.63 2.63 0 00-.48.88c-.106.331-.16.672-.16 1.024zm14.573-2.528c.192-.405.496-.746.912-1.024.426-.288.928-.432 1.504-.432.512 0 .97.118 1.376.352.416.235.741.624.976 1.168.256-.49.613-.864 1.072-1.12.458-.266.96-.4 1.504-.4.49 0 .912.086 1.264.256.352.16.645.379.88.656.234.278.405.603.512.976.117.374.176.774.176 1.2v4.704h-1.504v-4.208a4.69 4.69 0 00-.08-.88 2.264 2.264 0 00-.272-.736 1.476 1.476 0 00-.512-.512c-.214-.128-.486-.192-.816-.192-.342 0-.635.075-.88.224a1.801 1.801 0 00-.608.56c-.15.224-.262.48-.336.768a4.049 4.049 0 00-.096.88v4.096h-1.504v-4.512c0-.298-.027-.57-.08-.816a1.601 1.601 0 00-.272-.624 1.26 1.26 0 00-.496-.416 1.612 1.612 0 00-.752-.16c-.555 0-1.019.23-1.392.688-.363.448-.544 1.051-.544 1.808v4.032h-1.504v-5.952c0-.202-.006-.464-.016-.784-.011-.32-.027-.602-.048-.848h1.424a14.537 14.537 0 01.064 1.248h.048zm15.595 4.704h.032l2.096-5.952h1.6l-3.68 9.376c-.128.32-.266.603-.416.848-.149.256-.325.47-.528.64a2.07 2.07 0 01-.72.416 2.837 2.837 0 01-.96.144c-.16 0-.325-.01-.496-.032a2.734 2.734 0 01-.496-.08l.144-1.328c.256.086.507.128.752.128.395 0 .688-.112.88-.336.192-.213.368-.522.528-.928l.48-1.264-3.248-7.584h1.68l2.352 5.952zm-102.249 29.472v-4.72h-.032a2.664 2.664 0 01-1.04.816 3.317 3.317 0 01-1.376.288c-.608 0-1.147-.117-1.616-.352a3.621 3.621 0 01-1.184-.928 4.272 4.272 0 01-.736-1.36 5.015 5.015 0 01-.256-1.6c0-.554.085-1.082.256-1.584.181-.512.432-.96.752-1.344.33-.384.725-.688 1.184-.912a3.593 3.593 0 011.568-.336c.597 0 1.109.123 1.536.368.437.235.778.512 1.024.832h.048v-.976h2.48v11.808h-2.608zm.096-7.84a2.05 2.05 0 00-.144-.752 1.959 1.959 0 00-.384-.656 1.772 1.772 0 00-1.392-.64c-.31 0-.582.059-.816.176a1.824 1.824 0 00-.592.464c-.16.182-.283.395-.368.64a2.561 2.561 0 00-.112.752c0 .256.037.512.112.768.085.246.208.464.368.656s.357.347.592.464c.234.118.506.176.816.176a1.759 1.759 0 001.392-.64c.17-.192.298-.41.384-.656.096-.245.144-.496.144-.752zm9.827 4v-1.104h-.032a2.13 2.13 0 01-.384.512c-.149.16-.33.299-.544.416a3.026 3.026 0 01-.688.288 2.663 2.663 0 01-.784.112c-.533 0-.986-.096-1.36-.288a2.774 2.774 0 01-.896-.736 3.235 3.235 0 01-.496-1.04 5.051 5.051 0 01-.144-1.2v-4.928h2.64v4.32c0 .224.016.438.048.64.032.203.091.384.176.544.096.16.219.288.368.384.15.086.347.128.592.128.459 0 .806-.17 1.04-.512.246-.341.368-.741.368-1.2v-4.304h2.624v7.968h-2.528zm10.068-4.896c0-.416-.133-.773-.4-1.072-.256-.298-.645-.448-1.168-.448-.256 0-.49.043-.704.128-.213.075-.4.182-.56.32-.16.139-.288.304-.384.496a1.382 1.382 0 00-.16.576h3.376zm2.416 1.008v.32c0 .107-.005.208-.016.304h-5.776c.022.224.086.427.192.608.118.182.262.342.432.48.182.128.379.23.592.304.224.075.454.112.688.112.416 0 .768-.074 1.056-.224a2.16 2.16 0 00.704-.608l1.824 1.152a3.729 3.729 0 01-1.488 1.264c-.608.288-1.317.432-2.128.432a5.22 5.22 0 01-1.696-.272 4.405 4.405 0 01-1.408-.816 4.011 4.011 0 01-.944-1.328c-.224-.522-.336-1.12-.336-1.792 0-.65.112-1.237.336-1.76a3.9 3.9 0 01.912-1.344 4.02 4.02 0 011.36-.864 4.666 4.666 0 011.696-.304c.587 0 1.126.102 1.616.304.491.192.912.475 1.264.848.352.374.624.827.816 1.36.203.534.304 1.142.304 1.824zm6.316-1.728a2.96 2.96 0 00-.752-.512 2.085 2.085 0 00-.912-.208c-.246 0-.475.048-.688.144-.203.096-.304.262-.304.496 0 .224.112.384.336.48.234.096.608.203 1.12.32.298.064.597.155.896.272.309.118.586.272.832.464.245.192.442.427.592.704.149.278.224.608.224.992 0 .502-.102.928-.304 1.28-.203.342-.47.619-.8.832-.32.214-.683.368-1.088.464a5.267 5.267 0 01-1.216.144 6.214 6.214 0 01-1.92-.304c-.619-.213-1.136-.522-1.552-.928l1.472-1.552c.234.256.522.47.864.64.341.171.704.256 1.088.256.213 0 .421-.048.624-.144.213-.106.32-.288.32-.544 0-.245-.128-.426-.384-.544-.256-.117-.656-.24-1.2-.368a6.11 6.11 0 01-.832-.256 2.719 2.719 0 01-.752-.432 2.177 2.177 0 01-.528-.672c-.139-.266-.208-.586-.208-.96 0-.48.101-.885.304-1.216a2.55 2.55 0 01.784-.832c.32-.213.672-.368 1.056-.464.394-.106.784-.16 1.168-.16.597 0 1.178.096 1.744.288a3.712 3.712 0 011.456.832l-1.44 1.488zm5.707-.384v3.04c0 .374.069.656.208.848.149.182.41.272.784.272.128 0 .261-.01.4-.032.149-.021.272-.053.368-.096l.032 1.92a3.847 3.847 0 01-.688.16 4.35 4.35 0 01-.832.08c-.534 0-.982-.064-1.344-.192a2.242 2.242 0 01-.88-.576 2.378 2.378 0 01-.464-.896 4.432 4.432 0 01-.144-1.168v-3.36h-1.28v-1.968h1.264v-2.096h2.576v2.096h1.872v1.968h-1.872zm5.953-4.512c0 .203-.043.395-.128.576a1.34 1.34 0 01-.32.448 1.36 1.36 0 01-.48.304 1.497 1.497 0 01-.576.112c-.427 0-.784-.138-1.072-.416a1.399 1.399 0 01-.432-1.024c0-.192.037-.373.112-.544.074-.181.181-.336.32-.464.138-.128.298-.229.48-.304.181-.085.378-.128.592-.128.202 0 .394.038.576.112.192.075.352.176.48.304.138.128.245.283.32.464.085.171.128.358.128.56zm-2.816 10.512v-7.968h2.624v7.968h-2.624zm13.15-4.016c0 .651-.117 1.243-.352 1.776a4.074 4.074 0 01-.96 1.344 4.453 4.453 0 01-1.408.848 4.77 4.77 0 01-1.712.304 4.858 4.858 0 01-1.712-.304 4.453 4.453 0 01-1.408-.848 4.18 4.18 0 01-.944-1.344 4.355 4.355 0 01-.352-1.776c0-.65.117-1.237.352-1.76.235-.522.549-.965.944-1.328.405-.362.875-.64 1.408-.832a5.107 5.107 0 011.712-.288c.608 0 1.179.096 1.712.288.533.192 1.003.47 1.408.832.405.363.725.806.96 1.328.235.523.352 1.11.352 1.76zm-2.528 0c0-.256-.043-.506-.128-.752a1.902 1.902 0 00-.368-.64 1.824 1.824 0 00-.592-.464 1.808 1.808 0 00-.816-.176c-.309 0-.581.059-.816.176a1.824 1.824 0 00-.592.464 2.072 2.072 0 00-.352.64 2.561 2.561 0 000 1.504c.085.246.208.47.368.672.16.192.357.347.592.464.235.118.507.176.816.176.309 0 .581-.058.816-.176a1.81 1.81 0 00.592-.464c.16-.202.277-.426.352-.672a2.28 2.28 0 00.128-.752zm9.421 4.016v-4.352a3.08 3.08 0 00-.064-.64 1.536 1.536 0 00-.176-.528.877.877 0 00-.368-.368c-.149-.096-.341-.144-.576-.144-.234 0-.442.048-.624.144-.17.086-.314.208-.432.368-.117.16-.208.347-.272.56-.053.203-.08.416-.08.64v4.32h-2.64v-7.968h2.544v1.104h.032c.096-.17.219-.336.368-.496.16-.17.342-.314.544-.432.214-.117.443-.213.688-.288.246-.074.507-.112.784-.112.534 0 .987.096 1.36.288.374.192.672.443.896.752.235.299.4.646.496 1.04.107.395.16.79.16 1.184v4.928h-2.64zm9.316-5.616a2.942 2.942 0 00-.752-.512 2.085 2.085 0 00-.912-.208c-.245 0-.475.048-.688.144-.203.096-.304.262-.304.496 0 .224.112.384.336.48.235.096.608.203 1.12.32.299.064.597.155.896.272.309.118.587.272.832.464s.443.427.592.704c.149.278.224.608.224.992 0 .502-.101.928-.304 1.28a2.478 2.478 0 01-.8.832c-.32.214-.683.368-1.088.464a5.26 5.26 0 01-1.216.144 6.214 6.214 0 01-1.92-.304c-.619-.213-1.136-.522-1.552-.928l1.472-1.552c.235.256.523.47.864.64.341.171.704.256 1.088.256.213 0 .421-.048.624-.144.213-.106.32-.288.32-.544 0-.245-.128-.426-.384-.544-.256-.117-.656-.24-1.2-.368a6.153 6.153 0 01-.832-.256 2.733 2.733 0 01-.752-.432 2.207 2.207 0 01-.528-.672c-.139-.266-.208-.586-.208-.96 0-.48.101-.885.304-1.216.203-.341.464-.618.784-.832.32-.213.672-.368 1.056-.464.395-.106.784-.16 1.168-.16.597 0 1.179.096 1.744.288a3.712 3.712 0 011.456.832l-1.44 1.488zm8.619 4.416v1.2h-1.456v-12.096h1.504v5.648h.048c.256-.373.613-.688 1.072-.944.458-.266 1.002-.4 1.632-.4.565 0 1.077.102 1.536.304.469.203.869.486 1.2.848.341.363.602.79.784 1.28.181.48.272.998.272 1.552a4.49 4.49 0 01-.272 1.568 3.878 3.878 0 01-.768 1.28 3.639 3.639 0 01-1.2.864c-.47.203-.998.304-1.584.304a3.546 3.546 0 01-1.552-.352 2.965 2.965 0 01-1.184-1.056h-.032zm5.04-2.608c0-.352-.054-.693-.16-1.024a2.63 2.63 0 00-.48-.88 2.293 2.293 0 00-.8-.608 2.484 2.484 0 00-1.088-.224c-.384 0-.736.075-1.056.224-.31.15-.576.352-.8.608-.224.256-.4.55-.528.88a3.074 3.074 0 00-.176 1.04c0 .363.058.71.176 1.04.128.331.304.624.528.88.224.246.49.443.8.592.32.15.672.224 1.056.224.416 0 .778-.074 1.088-.224.32-.16.586-.368.8-.624a2.62 2.62 0 00.48-.88c.106-.33.16-.672.16-1.024zm9.196-.656a2.634 2.634 0 00-.16-.832 1.791 1.791 0 00-.4-.688 1.721 1.721 0 00-.656-.448 2.179 2.179 0 00-.912-.176 2.4 2.4 0 00-.912.176 2.345 2.345 0 00-.736.448 2.562 2.562 0 00-.512.688 2.187 2.187 0 00-.224.832h4.512zm1.52.608v.256c0 .086-.006.171-.016.256h-6.016c.01.32.08.624.208.912.138.278.32.523.544.736.224.203.48.363.768.48.298.118.613.176.944.176.512 0 .954-.112 1.328-.336a2.72 2.72 0 00.88-.816l1.056.848a3.808 3.808 0 01-1.44 1.184c-.544.246-1.152.368-1.824.368a4.35 4.35 0 01-1.6-.288 3.746 3.746 0 01-1.264-.8 3.82 3.82 0 01-.832-1.264 4.225 4.225 0 01-.304-1.632c0-.586.096-1.125.288-1.616a3.79 3.79 0 01.832-1.28 3.671 3.671 0 011.248-.816 3.96 3.96 0 011.552-.304c.554 0 1.056.091 1.504.272.458.182.842.443 1.152.784.32.342.565.758.736 1.248.17.48.256 1.024.256 1.632zm5.619.64h-1.504v-.768c0-.277.027-.528.08-.752.054-.224.128-.426.224-.608.107-.181.23-.352.368-.512.15-.17.315-.341.496-.512l.592-.56c.235-.202.427-.421.576-.656.16-.245.24-.554.24-.928 0-.512-.165-.917-.496-1.216-.32-.309-.736-.464-1.248-.464-.533 0-.96.171-1.28.512-.32.342-.506.758-.56 1.248l-1.536-.176a3.51 3.51 0 01.4-1.232c.203-.373.454-.688.752-.944a3.19 3.19 0 011.056-.576 3.804 3.804 0 011.264-.208c.448 0 .864.064 1.248.192.395.128.742.32 1.04.576.299.246.534.555.704.928.171.363.256.784.256 1.264 0 .342-.037.64-.112.896a2.604 2.604 0 01-.32.704 2.973 2.973 0 01-.48.576c-.192.182-.4.368-.624.56a9.957 9.957 0 00-.544.496 1.884 1.884 0 00-.352.432c-.085.15-.149.315-.192.496a3.966 3.966 0 00-.048.672v.56zm.4 2.256c0 .278-.101.523-.304.736a1.01 1.01 0 01-.768.32c-.298 0-.554-.101-.768-.304a1.039 1.039 0 01-.304-.736c0-.288.102-.533.304-.736.203-.213.459-.32.768-.32.31 0 .566.102.768.304.203.203.304.448.304.736zM64.7 201.448h.033l2.656-9.024h1.744l2.64 9.024h.032l2.496-9.024h1.68l-3.328 11.328h-1.648l-2.752-9.104h-.032l-2.752 9.104H63.82l-3.328-11.328h1.712l2.496 9.024zm14.31-4.128c.18-.373.49-.693.927-.96.438-.267.928-.4 1.472-.4.49 0 .912.085 1.264.256.352.16.646.379.88.656.235.277.406.603.512.976.118.373.176.773.176 1.2v4.704h-1.504v-4.192a4.65 4.65 0 00-.08-.88 2.008 2.008 0 00-.256-.736 1.434 1.434 0 00-.528-.512c-.213-.128-.496-.192-.848-.192-.597 0-1.088.229-1.472.688-.384.448-.576 1.051-.576 1.808v4.016h-1.504v-12.096h1.504v5.664h.032zm12.495 1.52c0-.565-.17-.981-.512-1.248-.341-.277-.795-.416-1.36-.416-.427 0-.832.085-1.216.256-.373.16-.688.368-.944.624l-.8-.96a4.059 4.059 0 011.36-.832 4.947 4.947 0 011.744-.304c.544 0 1.013.08 1.408.24.405.149.736.357.992.624s.448.581.576.944c.128.363.192.752.192 1.168v3.312c0 .256.005.528.016.816.021.277.053.507.096.688h-1.36a4.732 4.732 0 01-.128-1.088h-.048c-.277.405-.63.72-1.056.944-.416.224-.912.336-1.488.336-.299 0-.613-.043-.944-.128a2.615 2.615 0 01-.88-.384 2.288 2.288 0 01-.672-.72c-.17-.299-.256-.667-.256-1.104 0-.576.155-1.029.464-1.36.31-.341.715-.597 1.216-.768a6.624 6.624 0 011.696-.352c.63-.053 1.264-.08 1.904-.08v-.208zm-.368 1.296c-.373 0-.763.016-1.168.048a5.493 5.493 0 00-1.088.192 2.06 2.06 0 00-.8.432c-.213.192-.32.448-.32.768 0 .224.043.411.128.56.096.149.219.272.368.368.15.096.315.165.496.208.181.032.368.048.56.048.704 0 1.243-.208 1.616-.624.384-.427.576-.96.576-1.6v-.4h-.368zm7.876-2.736h-2.016v3.952c0 .459.085.789.256.992.17.192.442.288.816.288.138 0 .288-.016.448-.048.16-.032.304-.08.432-.144l.048 1.232a3.178 3.178 0 01-.608.144 3.395 3.395 0 01-.672.064c-.715 0-1.264-.197-1.648-.592-.374-.395-.56-.987-.56-1.776V197.4h-1.456v-1.232h1.456v-2.176h1.488v2.176h2.016v1.232zm13.729 2.336c0 .651-.117 1.243-.352 1.776a4.045 4.045 0 01-.96 1.344 4.46 4.46 0 01-1.408.848 4.77 4.77 0 01-1.712.304 4.858 4.858 0 01-1.712-.304 4.483 4.483 0 01-1.408-.848 4.196 4.196 0 01-.944-1.344 4.372 4.372 0 01-.352-1.776c0-.651.118-1.237.352-1.76.235-.523.55-.965.944-1.328.406-.363.875-.64 1.408-.832a5.107 5.107 0 011.712-.288c.608 0 1.179.096 1.712.288a4.228 4.228 0 011.408.832c.406.363.726.805.96 1.328.235.523.352 1.109.352 1.76zm-2.528 0c0-.256-.042-.507-.128-.752a1.892 1.892 0 00-.368-.64 1.81 1.81 0 00-.592-.464 1.802 1.802 0 00-.816-.176c-.309 0-.581.059-.816.176a1.821 1.821 0 00-.592.464 2.081 2.081 0 00-.352.64 2.59 2.59 0 000 1.504c.086.245.208.469.368.672.16.192.358.347.592.464.235.117.507.176.816.176.31 0 .582-.059.816-.176a1.81 1.81 0 00.592-.464c.16-.203.278-.427.352-.672.086-.245.128-.496.128-.752zm9.358-1.808a2.087 2.087 0 00-.352-.064 3.13 3.13 0 00-.32-.016c-.352 0-.651.064-.896.192a1.93 1.93 0 00-.576.464 1.83 1.83 0 00-.304.592c-.064.213-.096.4-.096.56v4.096h-2.624v-7.968h2.528v1.152h.032c.202-.405.49-.736.864-.992a2.234 2.234 0 011.296-.384c.106 0 .208.005.304.016.106.011.192.027.256.048l-.112 2.304zm6.926 5.824v-1.04h-.032c-.256.405-.624.72-1.104.944-.469.213-.971.32-1.504.32-.597 0-1.131-.117-1.6-.352a3.83 3.83 0 01-1.2-.928 4.303 4.303 0 01-.736-1.36 5.015 5.015 0 01-.256-1.6c0-.555.085-1.083.256-1.584.181-.512.432-.96.752-1.344a3.673 3.673 0 011.184-.912 3.593 3.593 0 011.568-.336c.587 0 1.083.112 1.488.336.405.224.72.469.944.736h.032v-4.976h2.624v12.096h-2.416zm-.096-4c0-.256-.048-.507-.144-.752a1.926 1.926 0 00-.384-.656 1.77 1.77 0 00-1.392-.64c-.309 0-.581.059-.816.176a1.81 1.81 0 00-.592.464c-.16.181-.283.395-.368.64a2.556 2.556 0 00-.112.752c0 .256.037.512.112.768.085.245.208.464.368.656s.357.347.592.464c.235.117.507.176.816.176a1.77 1.77 0 001.392-.64c.171-.192.299-.411.384-.656.096-.245.144-.496.144-.752zm10.083-.896c0-.416-.133-.773-.4-1.072-.256-.299-.645-.448-1.168-.448-.256 0-.49.043-.704.128-.213.075-.4.181-.56.32-.16.139-.288.304-.384.496a1.373 1.373 0 00-.16.576h3.376zm2.416 1.008v.32c0 .107-.005.208-.016.304h-5.776c.022.224.086.427.192.608.118.181.262.341.432.48.182.128.379.229.592.304.224.075.454.112.688.112.416 0 .768-.075 1.056-.224.288-.16.523-.363.704-.608l1.824 1.152a3.737 3.737 0 01-1.488 1.264c-.608.288-1.317.432-2.128.432a5.246 5.246 0 01-1.696-.272 4.405 4.405 0 01-1.408-.816 4.021 4.021 0 01-.944-1.328c-.224-.523-.336-1.12-.336-1.792 0-.651.112-1.237.336-1.76a3.9 3.9 0 01.912-1.344 4.02 4.02 0 011.36-.864 4.645 4.645 0 011.696-.304c.587 0 1.126.101 1.616.304.491.192.912.475 1.264.848s.624.827.816 1.36c.203.533.304 1.141.304 1.824zm6.796-1.936a2.087 2.087 0 00-.352-.064 3.13 3.13 0 00-.32-.016c-.352 0-.651.064-.896.192a1.93 1.93 0 00-.576.464 1.83 1.83 0 00-.304.592c-.064.213-.096.4-.096.56v4.096h-2.624v-7.968h2.528v1.152h.032c.202-.405.49-.736.864-.992a2.234 2.234 0 011.296-.384c.106 0 .208.005.304.016.106.011.192.027.256.048l-.112 2.304zm9.543.16a1.9 1.9 0 00-.72-.672 2.02 2.02 0 00-1.04-.272c-.17 0-.341.021-.512.064-.17.032-.325.091-.464.176a.977.977 0 00-.32.304.826.826 0 00-.112.448c0 .32.144.56.432.72.288.149.72.288 1.296.416.363.085.699.187 1.008.304.31.117.576.267.8.448.235.171.416.379.544.624.128.245.192.533.192.864 0 .448-.085.827-.256 1.136-.17.309-.4.565-.688.768a2.78 2.78 0 01-.96.416 4.888 4.888 0 01-1.12.128 4.494 4.494 0 01-1.696-.336 3.313 3.313 0 01-1.36-1.024l1.072-.912c.203.299.48.549.832.752.363.203.758.304 1.184.304.192 0 .374-.016.544-.048.182-.043.342-.107.48-.192a.956.956 0 00.352-.336.988.988 0 00.128-.528c0-.352-.17-.613-.512-.784-.33-.171-.821-.331-1.472-.48a12.907 12.907 0 01-.784-.224 2.824 2.824 0 01-.704-.384 2.014 2.014 0 01-.528-.592c-.128-.245-.192-.544-.192-.896 0-.405.08-.752.24-1.04a2.14 2.14 0 01.656-.72c.267-.192.571-.331.912-.416a3.97 3.97 0 012.624.176c.512.213.907.523 1.184.928l-1.04.88zm4.582-.768c.181-.373.49-.693.928-.96.437-.267.928-.4 1.472-.4.49 0 .912.085 1.264.256.352.16.645.379.88.656.234.277.405.603.512.976.117.373.176.773.176 1.2v4.704h-1.504v-4.192c0-.309-.027-.603-.08-.88a2.015 2.015 0 00-.256-.736 1.434 1.434 0 00-.528-.512c-.214-.128-.496-.192-.848-.192-.598 0-1.088.229-1.472.688-.384.448-.576 1.051-.576 1.808v4.016h-1.504v-12.096h1.504v5.664h.032zm15.455 2.624c0 .587-.106 1.125-.32 1.616-.202.491-.49.917-.864 1.28a3.97 3.97 0 01-1.296.832 4.479 4.479 0 01-1.616.288 4.483 4.483 0 01-1.616-.288 3.99 3.99 0 01-1.296-.832 4.128 4.128 0 01-.864-1.28 4.205 4.205 0 01-.304-1.616c0-.587.102-1.12.304-1.6.214-.491.502-.912.864-1.264a3.78 3.78 0 011.296-.816 4.267 4.267 0 011.616-.304c.576 0 1.115.101 1.616.304.502.192.934.464 1.296.816.374.352.662.773.864 1.264.214.48.32 1.013.32 1.6zm-1.568 0a3.07 3.07 0 00-.176-1.04 2.416 2.416 0 00-.48-.864 2.272 2.272 0 00-.8-.608 2.44 2.44 0 00-1.072-.224 2.55 2.55 0 00-1.088.224c-.309.149-.57.352-.784.608a2.665 2.665 0 00-.496.864c-.106.331-.16.677-.16 1.04s.054.709.16 1.04c.118.331.283.624.496.88.214.256.475.459.784.608.32.149.683.224 1.088.224a2.44 2.44 0 001.072-.224c.32-.149.587-.352.8-.608.214-.256.374-.549.48-.88a3.07 3.07 0 00.176-1.04zm8.998 3.808a13.922 13.922 0 01-.064-1.248h-.032c-.192.405-.517.752-.976 1.04a2.802 2.802 0 01-1.504.416c-.491 0-.917-.08-1.28-.24a2.483 2.483 0 01-.88-.656 3.123 3.123 0 01-.512-.992 4.334 4.334 0 01-.16-1.2v-4.704h1.504v4.192c0 .309.021.608.064.896.053.277.144.523.272.736.128.213.304.384.528.512.224.128.512.192.864.192.608 0 1.099-.224 1.472-.672.373-.459.56-1.067.56-1.824v-4.032h1.504v5.952a23.507 23.507 0 00.064 1.632h-1.424zm5.505 0h-1.504v-12.096h1.504v12.096zm8.668-1.2a2.84 2.84 0 01-1.184 1.056 3.55 3.55 0 01-1.552.352 3.95 3.95 0 01-1.584-.304 3.639 3.639 0 01-1.2-.864 3.855 3.855 0 01-.768-1.28 4.495 4.495 0 01-.272-1.568c0-.555.091-1.072.272-1.552.181-.491.437-.917.768-1.28a3.621 3.621 0 011.216-.848 3.868 3.868 0 011.552-.304c.619 0 1.157.133 1.616.4.459.256.821.571 1.088.944h.032v-5.648h1.504v12.096h-1.456v-1.2h-.032zm-4.992-2.608c0 .352.053.693.16 1.024.107.331.267.624.48.88.213.256.475.464.784.624a2.48 2.48 0 001.088.224c.384 0 .731-.075 1.04-.224.32-.149.592-.347.816-.592.224-.256.395-.549.512-.88.128-.331.192-.677.192-1.04s-.064-.709-.192-1.04a2.678 2.678 0 00-.512-.88 2.438 2.438 0 00-.816-.608 2.365 2.365 0 00-1.04-.224 2.48 2.48 0 00-1.088.224 2.315 2.315 0 00-.784.608 2.62 2.62 0 00-.48.88c-.107.331-.16.672-.16 1.024zM82.73 227.752h-1.584v-11.328h1.584v11.328zm8.184 3.84H89.41v-11.424h1.472v1.184h.048c.245-.405.603-.736 1.072-.992.48-.267 1.035-.4 1.664-.4.565 0 1.077.101 1.536.304.47.203.87.485 1.2.848.341.363.603.789.784 1.28.181.48.272.997.272 1.552s-.09 1.077-.272 1.568a3.868 3.868 0 01-.768 1.28c-.33.363-.73.651-1.2.864-.47.203-.997.304-1.584.304a3.447 3.447 0 01-1.536-.352 2.78 2.78 0 01-1.136-.992h-.048v4.976zm4.992-7.648c0-.352-.053-.693-.16-1.024a2.61 2.61 0 00-.48-.88 2.276 2.276 0 00-.8-.608 2.482 2.482 0 00-1.088-.224c-.384 0-.736.075-1.056.224-.31.149-.576.352-.8.608-.224.256-.4.549-.528.88a3.085 3.085 0 00-.176 1.04c0 .363.059.709.176 1.04.128.331.304.624.528.88.224.245.49.443.8.592.32.149.672.224 1.056.224.416 0 .779-.075 1.088-.224.32-.16.587-.368.8-.624a2.61 2.61 0 00.48-.88c.107-.331.16-.672.16-1.024zm8.989 3.808a13.922 13.922 0 01-.064-1.248h-.032c-.192.405-.518.752-.976 1.04-.448.277-.95.416-1.504.416-.491 0-.918-.08-1.28-.24a2.474 2.474 0 01-.88-.656 3.121 3.121 0 01-.512-.992 4.346 4.346 0 01-.16-1.2v-4.704h1.504v4.192c0 .309.021.608.064.896.053.277.144.523.272.736.128.213.304.384.528.512.224.128.512.192.864.192.608 0 1.098-.224 1.472-.672.373-.459.56-1.067.56-1.824v-4.032h1.504v5.952a23.507 23.507 0 00.064 1.632h-1.424zm7.68-6.352h-2.016v3.952c0 .459.085.789.256.992.171.192.443.288.816.288.139 0 .288-.016.448-.048.16-.032.304-.08.432-.144l.048 1.232a3.173 3.173 0 01-.608.144 3.39 3.39 0 01-.672.064c-.715 0-1.264-.197-1.648-.592-.373-.395-.56-.987-.56-1.776V221.4h-1.456v-1.232h1.456v-2.176h1.488v2.176h2.016v1.232zm9.266 0h-2.016v3.952c0 .459.085.789.256.992.17.192.442.288.816.288.138 0 .288-.016.448-.048.16-.032.304-.08.432-.144l.048 1.232a3.19 3.19 0 01-.608.144 3.405 3.405 0 01-.672.064c-.715 0-1.264-.197-1.648-.592-.374-.395-.56-.987-.56-1.776V221.4h-1.456v-1.232h1.456v-2.176h1.488v2.176h2.016v1.232zm3.121-.08c.182-.373.491-.693.928-.96a2.77 2.77 0 011.472-.4c.491 0 .912.085 1.264.256a2.474 2.474 0 011.392 1.632c.118.373.176.773.176 1.2v4.704h-1.504v-4.192a4.6 4.6 0 00-.08-.88 1.997 1.997 0 00-.256-.736 1.434 1.434 0 00-.528-.512c-.213-.128-.496-.192-.848-.192-.597 0-1.088.229-1.472.688-.384.448-.576 1.051-.576 1.808v4.016h-1.504v-12.096h1.504v5.664h.032zm13.328 1.968a2.628 2.628 0 00-.16-.832 1.771 1.771 0 00-.4-.688 1.714 1.714 0 00-.656-.448 2.179 2.179 0 00-.912-.176 2.4 2.4 0 00-.912.176 2.357 2.357 0 00-.736.448 2.568 2.568 0 00-.512.688 2.182 2.182 0 00-.224.832h4.512zm1.52.608v.256a2 2 0 01-.016.256h-6.016c.011.32.08.624.208.912.139.277.32.523.544.736.224.203.48.363.768.48.299.117.613.176.944.176.512 0 .955-.112 1.328-.336a2.71 2.71 0 00.88-.816l1.056.848a3.802 3.802 0 01-1.44 1.184 4.393 4.393 0 01-1.824.368 4.354 4.354 0 01-1.6-.288 3.761 3.761 0 01-1.264-.8 3.836 3.836 0 01-.832-1.264 4.232 4.232 0 01-.304-1.632c0-.587.096-1.125.288-1.616.203-.501.48-.928.832-1.28a3.671 3.671 0 011.248-.816c.48-.203.997-.304 1.552-.304s1.056.091 1.504.272c.459.181.843.443 1.152.784.32.341.565.757.736 1.248.171.48.256 1.024.256 1.632zm3.572-2.48c.192-.405.496-.747.912-1.024.427-.288.928-.432 1.504-.432.512 0 .971.117 1.376.352.416.235.741.624.976 1.168a2.65 2.65 0 011.072-1.12c.459-.267.96-.4 1.504-.4.491 0 .912.085 1.264.256.352.16.645.379.88.656s.405.603.512.976c.117.373.176.773.176 1.2v4.704h-1.504v-4.208c0-.309-.027-.603-.08-.88a2.233 2.233 0 00-.272-.736 1.476 1.476 0 00-.512-.512c-.213-.128-.485-.192-.816-.192-.341 0-.635.075-.88.224a1.8 1.8 0 00-.608.56c-.149.224-.261.48-.336.768a4.042 4.042 0 00-.096.88v4.096h-1.504v-4.512c0-.299-.027-.571-.08-.816a1.587 1.587 0 00-.272-.624 1.254 1.254 0 00-.496-.416c-.203-.107-.453-.16-.752-.16-.555 0-1.019.229-1.392.688-.363.448-.544 1.051-.544 1.808v4.032h-1.504V221.8a23.507 23.507 0 00-.064-1.632h1.424a12.917 12.917 0 01.064 1.248h.048zm18.235 6.336h-1.504v-7.584h1.504v7.584zm.256-10.32a.882.882 0 01-.304.688.987.987 0 01-.704.272.99.99 0 01-.704-.272.938.938 0 01-.288-.688c0-.277.096-.507.288-.688a.958.958 0 01.704-.288c.278 0 .512.096.704.288a.882.882 0 01.304.688zm3.725 2.736a12.917 12.917 0 01.064 1.248h.048c.096-.203.224-.389.384-.56a2.71 2.71 0 01.576-.464c.213-.139.448-.245.704-.32.256-.075.523-.112.8-.112.491 0 .912.085 1.264.256.352.16.645.379.88.656s.405.603.512.976c.117.373.176.773.176 1.2v4.704h-1.504v-4.208c0-.309-.027-.603-.08-.88a2.015 2.015 0 00-.256-.736 1.434 1.434 0 00-.528-.512c-.224-.128-.512-.192-.864-.192-.597 0-1.088.229-1.472.688-.373.448-.56 1.051-.56 1.808v4.032h-1.504V221.8a23.507 23.507 0 00-.064-1.632h1.424zm11.473 4.368h-1.504v-.768c0-.277.026-.528.08-.752.053-.224.128-.427.224-.608a3.4 3.4 0 01.368-.512c.149-.171.314-.341.496-.512l.592-.56a3.03 3.03 0 00.576-.656c.16-.245.24-.555.24-.928 0-.512-.166-.917-.496-1.216-.32-.309-.736-.464-1.248-.464-.534 0-.96.171-1.28.512-.32.341-.507.757-.56 1.248l-1.536-.176c.064-.459.197-.869.4-1.232a3.29 3.29 0 01.752-.944 3.17 3.17 0 011.056-.576 3.775 3.775 0 011.264-.208c.448 0 .864.064 1.248.192.394.128.741.32 1.04.576.298.245.533.555.704.928.17.363.256.784.256 1.264 0 .341-.038.64-.112.896a2.666 2.666 0 01-.32.704 2.973 2.973 0 01-.48.576c-.192.181-.4.368-.624.56a8.925 8.925 0 00-.544.496c-.15.139-.267.283-.352.432-.086.149-.15.315-.192.496a3.95 3.95 0 00-.048.672v.56zm.4 2.256c0 .277-.102.523-.304.736-.203.213-.459.32-.768.32a1.036 1.036 0 01-1.072-1.04c0-.288.101-.533.304-.736.202-.213.458-.32.768-.32a1.04 1.04 0 011.072 1.04zM202.734 254.496h1.584v4.736h5.728v-4.736h1.6v11.328h-1.6v-5.184h-5.728v5.184h-1.584v-11.328zm19.256 7.52c0 .587-.106 1.126-.32 1.616-.202.491-.49.918-.864 1.28-.362.352-.794.63-1.296.832a4.479 4.479 0 01-1.616.288 4.483 4.483 0 01-1.616-.288 3.974 3.974 0 01-1.296-.832 4.116 4.116 0 01-.864-1.28 4.202 4.202 0 01-.304-1.616c0-.586.102-1.12.304-1.6.214-.49.502-.912.864-1.264a3.78 3.78 0 011.296-.816 4.286 4.286 0 011.616-.304c.576 0 1.115.102 1.616.304.502.192.934.464 1.296.816.374.352.662.774.864 1.264.214.48.32 1.014.32 1.6zm-1.568 0c0-.362-.058-.709-.176-1.04a2.433 2.433 0 00-.48-.864 2.284 2.284 0 00-.8-.608 2.44 2.44 0 00-1.072-.224 2.55 2.55 0 00-1.088.224c-.309.15-.57.352-.784.608a2.686 2.686 0 00-.496.864c-.106.331-.16.678-.16 1.04 0 .363.054.71.16 1.04.118.331.283.624.496.88.214.256.475.459.784.608.32.15.683.224 1.088.224.406 0 .763-.074 1.072-.224.32-.149.587-.352.8-.608.214-.256.374-.549.48-.88.118-.33.176-.677.176-1.04zm4.214-3.776l1.712 5.792h.032l1.808-5.792h1.584l1.84 5.792h.032l1.712-5.792h1.584l-2.512 7.584h-1.568l-1.872-5.696h-.032l-1.856 5.696h-1.568l-2.528-7.584h1.632zm21.863 6.384a2.84 2.84 0 01-1.184 1.056 3.55 3.55 0 01-1.552.352 3.95 3.95 0 01-1.584-.304 3.639 3.639 0 01-1.2-.864 3.845 3.845 0 01-.768-1.28 4.49 4.49 0 01-.272-1.568c0-.554.091-1.072.272-1.552.181-.49.437-.917.768-1.28a3.636 3.636 0 011.216-.848 3.886 3.886 0 011.552-.304c.619 0 1.157.134 1.616.4.459.256.821.571 1.088.944h.032v-5.648h1.504v12.096h-1.456v-1.2h-.032zm-4.992-2.608c0 .352.053.694.16 1.024.107.331.267.624.48.88.213.256.475.464.784.624.309.15.672.224 1.088.224.384 0 .731-.074 1.04-.224.32-.149.592-.346.816-.592.224-.256.395-.549.512-.88.128-.33.192-.677.192-1.04a2.86 2.86 0 00-.192-1.04 2.688 2.688 0 00-.512-.88 2.451 2.451 0 00-.816-.608 2.365 2.365 0 00-1.04-.224 2.48 2.48 0 00-1.088.224c-.309.15-.571.352-.784.608a2.63 2.63 0 00-.48.88c-.107.331-.16.672-.16 1.024zm16.78 0c0 .587-.107 1.126-.32 1.616a3.77 3.77 0 01-.864 1.28c-.363.352-.795.63-1.296.832a4.479 4.479 0 01-1.616.288 4.479 4.479 0 01-1.616-.288 3.974 3.974 0 01-1.296-.832 4.082 4.082 0 01-.864-1.28 4.183 4.183 0 01-.304-1.616c0-.586.101-1.12.304-1.6a3.91 3.91 0 01.864-1.264 3.78 3.78 0 011.296-.816 4.282 4.282 0 011.616-.304c.576 0 1.115.102 1.616.304a3.78 3.78 0 011.296.816c.373.352.661.774.864 1.264.213.48.32 1.014.32 1.6zm-1.568 0a3.1 3.1 0 00-.176-1.04 2.464 2.464 0 00-.48-.864 2.284 2.284 0 00-.8-.608 2.442 2.442 0 00-1.072-.224 2.55 2.55 0 00-1.088.224c-.309.15-.571.352-.784.608a2.668 2.668 0 00-.496.864c-.107.331-.16.678-.16 1.04 0 .363.053.71.16 1.04.117.331.283.624.496.88.213.256.475.459.784.608.32.15.683.224 1.088.224s.763-.074 1.072-.224c.32-.149.587-.352.8-.608a2.62 2.62 0 00.48-.88 3.09 3.09 0 00.176-1.04zm9.318 3.808h-1.584v-11.328h1.584v11.328zm7.272 1.296c.33.374.741.672 1.232.896a3.728 3.728 0 001.536.336c.501 0 .922-.074 1.264-.224a1.95 1.95 0 00.816-.592c.213-.245.362-.538.448-.88a4.06 4.06 0 00.144-1.104v-.976h-.032a2.671 2.671 0 01-1.136.976c-.48.224-.992.336-1.536.336a4.026 4.026 0 01-1.584-.304c-.47-.202-.87-.48-1.2-.832a3.738 3.738 0 01-.768-1.232 4.295 4.295 0 01-.272-1.536c0-.544.09-1.056.272-1.536a3.71 3.71 0 01.768-1.248c.33-.362.73-.645 1.2-.848a3.75 3.75 0 011.568-.32c.544 0 1.061.118 1.552.352a2.68 2.68 0 011.184 1.072h.032v-1.216h1.456v7.2a5.94 5.94 0 01-.208 1.584 3.4 3.4 0 01-.704 1.344c-.331.395-.763.71-1.296.944-.534.235-1.195.352-1.984.352a5.783 5.783 0 01-2-.368 4.955 4.955 0 01-1.712-1.008l.96-1.168zm.464-5.168c0 .352.053.688.16 1.008.117.32.282.603.496.848.224.246.49.443.8.592.309.15.661.224 1.056.224.384 0 .736-.069 1.056-.208.32-.138.592-.325.816-.56a2.55 2.55 0 00.512-.848c.128-.33.192-.682.192-1.056 0-.362-.064-.704-.192-1.024a2.443 2.443 0 00-.528-.848 2.369 2.369 0 00-.816-.576 2.368 2.368 0 00-1.04-.224c-.395 0-.747.075-1.056.224-.31.139-.576.331-.8.576a2.466 2.466 0 00-.496.848c-.107.32-.16.662-.16 1.024zm14.605-.592a2.634 2.634 0 00-.16-.832 1.779 1.779 0 00-.4-.688 1.714 1.714 0 00-.656-.448 2.179 2.179 0 00-.912-.176 2.4 2.4 0 00-.912.176 2.357 2.357 0 00-.736.448 2.584 2.584 0 00-.512.688 2.187 2.187 0 00-.224.832h4.512zm1.52.608v.256c0 .086-.005.171-.016.256h-6.016c.011.32.08.624.208.912.139.278.32.523.544.736.224.203.48.363.768.48.299.118.613.176.944.176.512 0 .955-.112 1.328-.336a2.71 2.71 0 00.88-.816l1.056.848a3.793 3.793 0 01-1.44 1.184c-.544.246-1.152.368-1.824.368a4.354 4.354 0 01-1.6-.288 3.746 3.746 0 01-1.264-.8 3.836 3.836 0 01-.832-1.264 4.225 4.225 0 01-.304-1.632c0-.586.096-1.125.288-1.616.203-.501.48-.928.832-1.28a3.671 3.671 0 011.248-.816 3.96 3.96 0 011.552-.304c.555 0 1.056.091 1.504.272.459.182.843.443 1.152.784.32.342.565.758.736 1.248.171.48.256 1.024.256 1.632zm5.812-2.496h-2.016v3.952c0 .459.085.79.256.992.17.192.442.288.816.288.138 0 .288-.016.448-.048.16-.032.304-.08.432-.144l.048 1.232a3.19 3.19 0 01-.608.144 3.405 3.405 0 01-.672.064c-.715 0-1.264-.197-1.648-.592-.374-.394-.56-.986-.56-1.776v-4.112h-1.456v-1.232h1.456v-2.176h1.488v2.176h2.016v1.232zm7.057 10.192h-1.504V258.24h1.472v1.184h.048c.246-.405.603-.736 1.072-.992.48-.266 1.035-.4 1.664-.4.566 0 1.078.102 1.536.304.47.203.87.486 1.2.848.342.363.603.79.784 1.28.182.48.272.998.272 1.552 0 .555-.09 1.078-.272 1.568a3.845 3.845 0 01-.768 1.28c-.33.363-.73.651-1.2.864a3.95 3.95 0 01-1.584.304 3.447 3.447 0 01-1.536-.352 2.777 2.777 0 01-1.136-.992h-.048v4.976zm4.992-7.648c0-.352-.053-.693-.16-1.024a2.596 2.596 0 00-.48-.88 2.284 2.284 0 00-.8-.608 2.48 2.48 0 00-1.088-.224c-.384 0-.736.075-1.056.224-.309.15-.576.352-.8.608-.224.256-.4.55-.528.88a3.1 3.1 0 00-.176 1.04c0 .363.059.71.176 1.04.128.331.304.624.528.88.224.246.491.443.8.592.32.15.672.224 1.056.224.416 0 .779-.074 1.088-.224.32-.16.587-.368.8-.624.214-.256.374-.549.48-.88.107-.33.16-.672.16-1.024zm9.197-.656a2.634 2.634 0 00-.16-.832 1.779 1.779 0 00-.4-.688 1.714 1.714 0 00-.656-.448 2.179 2.179 0 00-.912-.176 2.4 2.4 0 00-.912.176 2.357 2.357 0 00-.736.448 2.584 2.584 0 00-.512.688 2.187 2.187 0 00-.224.832h4.512zm1.52.608v.256c0 .086-.005.171-.016.256h-6.016c.011.32.08.624.208.912.139.278.32.523.544.736.224.203.48.363.768.48.299.118.613.176.944.176.512 0 .955-.112 1.328-.336a2.71 2.71 0 00.88-.816l1.056.848a3.793 3.793 0 01-1.44 1.184c-.544.246-1.152.368-1.824.368a4.354 4.354 0 01-1.6-.288 3.746 3.746 0 01-1.264-.8 3.836 3.836 0 01-.832-1.264 4.225 4.225 0 01-.304-1.632c0-.586.096-1.125.288-1.616.203-.501.48-.928.832-1.28a3.671 3.671 0 011.248-.816 3.96 3.96 0 011.552-.304c.555 0 1.056.091 1.504.272.459.182.843.443 1.152.784.32.342.565.758.736 1.248.171.48.256 1.024.256 1.632zm9.78.048c0 .587-.107 1.126-.32 1.616a3.77 3.77 0 01-.864 1.28c-.363.352-.795.63-1.296.832a4.479 4.479 0 01-1.616.288 4.479 4.479 0 01-1.616-.288 3.974 3.974 0 01-1.296-.832 4.082 4.082 0 01-.864-1.28 4.183 4.183 0 01-.304-1.616c0-.586.101-1.12.304-1.6a3.91 3.91 0 01.864-1.264 3.78 3.78 0 011.296-.816 4.282 4.282 0 011.616-.304c.576 0 1.115.102 1.616.304a3.78 3.78 0 011.296.816c.373.352.661.774.864 1.264.213.48.32 1.014.32 1.6zm-1.568 0a3.1 3.1 0 00-.176-1.04 2.464 2.464 0 00-.48-.864 2.284 2.284 0 00-.8-.608 2.442 2.442 0 00-1.072-.224 2.55 2.55 0 00-1.088.224c-.309.15-.571.352-.784.608a2.668 2.668 0 00-.496.864c-.107.331-.16.678-.16 1.04 0 .363.053.71.16 1.04.117.331.283.624.496.88.213.256.475.459.784.608.32.15.683.224 1.088.224s.763-.074 1.072-.224c.32-.149.587-.352.8-.608a2.62 2.62 0 00.48-.88 3.09 3.09 0 00.176-1.04zm5.158 7.648h-1.504V258.24h1.472v1.184h.048c.245-.405.602-.736 1.072-.992.48-.266 1.034-.4 1.664-.4.565 0 1.077.102 1.536.304.469.203.869.486 1.2.848.341.363.602.79.784 1.28.181.48.272.998.272 1.552a4.49 4.49 0 01-.272 1.568 3.878 3.878 0 01-.768 1.28 3.639 3.639 0 01-1.2.864c-.47.203-.998.304-1.584.304a3.447 3.447 0 01-1.536-.352 2.77 2.77 0 01-1.136-.992h-.048v4.976zm4.992-7.648c0-.352-.054-.693-.16-1.024a2.63 2.63 0 00-.48-.88 2.293 2.293 0 00-.8-.608 2.484 2.484 0 00-1.088-.224c-.384 0-.736.075-1.056.224-.31.15-.576.352-.8.608-.224.256-.4.55-.528.88a3.074 3.074 0 00-.176 1.04c0 .363.058.71.176 1.04.128.331.304.624.528.88.224.246.49.443.8.592.32.15.672.224 1.056.224.416 0 .778-.074 1.088-.224.32-.16.586-.368.8-.624a2.62 2.62 0 00.48-.88c.106-.33.16-.672.16-1.024zm5.18 3.808h-1.504v-12.096h1.504v12.096zm8.172-4.464a2.606 2.606 0 00-.16-.832 1.766 1.766 0 00-.4-.688 1.706 1.706 0 00-.656-.448 2.179 2.179 0 00-.912-.176 2.4 2.4 0 00-.912.176 2.368 2.368 0 00-.736.448 2.605 2.605 0 00-.512.688 2.206 2.206 0 00-.224.832h4.512zm1.52.608v.256c0 .086-.005.171-.016.256h-6.016c.011.32.08.624.208.912.139.278.32.523.544.736.224.203.48.363.768.48.299.118.614.176.944.176.512 0 .955-.112 1.328-.336a2.7 2.7 0 00.88-.816l1.056.848a3.793 3.793 0 01-1.44 1.184c-.544.246-1.152.368-1.824.368a4.354 4.354 0 01-1.6-.288 3.756 3.756 0 01-1.264-.8 3.836 3.836 0 01-.832-1.264 4.244 4.244 0 01-.304-1.632c0-.586.096-1.125.288-1.616.203-.501.48-.928.832-1.28a3.671 3.671 0 011.248-.816c.48-.202.998-.304 1.552-.304.555 0 1.056.091 1.504.272.459.182.843.443 1.152.784.32.342.566.758.736 1.248.171.48.256 1.024.256 1.632zm-118.539 21.504h-2.016v3.952c0 .459.085.79.256.992.17.192.442.288.816.288.138 0 .288-.016.448-.048.16-.032.304-.08.432-.144l.048 1.232a3.19 3.19 0 01-.608.144 3.405 3.405 0 01-.672.064c-.715 0-1.264-.197-1.648-.592-.374-.394-.56-.986-.56-1.776v-4.112h-1.456v-1.232h1.456v-2.176h1.488v2.176h2.016v1.232zm9.233 2.544c0 .587-.106 1.126-.32 1.616-.202.491-.49.918-.864 1.28-.362.352-.794.63-1.296.832a4.479 4.479 0 01-1.616.288 4.483 4.483 0 01-1.616-.288 3.974 3.974 0 01-1.296-.832 4.116 4.116 0 01-.864-1.28 4.202 4.202 0 01-.304-1.616c0-.586.102-1.12.304-1.6.214-.49.502-.912.864-1.264a3.78 3.78 0 011.296-.816 4.286 4.286 0 011.616-.304c.576 0 1.115.102 1.616.304.502.192.934.464 1.296.816.374.352.662.774.864 1.264.214.48.32 1.014.32 1.6zm-1.568 0c0-.362-.058-.709-.176-1.04a2.433 2.433 0 00-.48-.864 2.284 2.284 0 00-.8-.608 2.44 2.44 0 00-1.072-.224 2.55 2.55 0 00-1.088.224c-.309.15-.57.352-.784.608a2.686 2.686 0 00-.496.864c-.106.331-.16.678-.16 1.04 0 .363.054.71.16 1.04.118.331.283.624.496.88.214.256.475.459.784.608.32.15.683.224 1.088.224.406 0 .763-.074 1.072-.224.32-.149.587-.352.8-.608.214-.256.374-.549.48-.88.118-.33.176-.677.176-1.04zm16.262-.208c0 .555-.085 1.088-.256 1.6a4.12 4.12 0 01-.752 1.36c-.32.384-.715.694-1.184.928-.469.235-1.003.352-1.6.352-.533 0-1.04-.106-1.52-.32a2.547 2.547 0 01-1.088-.944h-.032v1.04h-2.416v-12.096h2.624v4.976h.032c.224-.266.539-.512.944-.736.405-.224.901-.336 1.488-.336.576 0 1.093.112 1.552.336a3.46 3.46 0 011.184.912c.331.384.581.832.752 1.344.181.502.272 1.03.272 1.584zm-2.528 0c0-.256-.043-.506-.128-.752a1.716 1.716 0 00-.352-.64 1.824 1.824 0 00-.592-.464 1.808 1.808 0 00-.816-.176 1.77 1.77 0 00-.8.176 2.015 2.015 0 00-.608.464c-.16.192-.288.411-.384.656a2.285 2.285 0 000 1.504c.096.246.224.464.384.656.171.192.373.347.608.464.235.118.501.176.8.176.309 0 .581-.058.816-.176a1.81 1.81 0 00.944-1.12c.085-.256.128-.512.128-.768zm9.443 4.016v-1.104h-.032a2.13 2.13 0 01-.384.512 2.17 2.17 0 01-.544.416 3.046 3.046 0 01-.688.288 2.673 2.673 0 01-.784.112c-.534 0-.987-.096-1.36-.288a2.753 2.753 0 01-.896-.736 3.214 3.214 0 01-.496-1.04 5.051 5.051 0 01-.144-1.2v-4.928h2.64v4.32c0 .224.016.438.048.64.032.203.09.384.176.544.096.16.218.288.368.384.149.086.346.128.592.128.458 0 .805-.17 1.04-.512.245-.341.368-.741.368-1.2v-4.304h2.624v7.968h-2.528zm9.076 1.2c-.16.416-.341.784-.544 1.104a2.979 2.979 0 01-.704.832 2.618 2.618 0 01-.96.528c-.363.118-.795.176-1.296.176a6.46 6.46 0 01-.768-.048 4.631 4.631 0 01-.672-.128l.288-2.208c.128.043.267.075.416.096.16.032.304.048.432.048.405 0 .699-.096.88-.288.181-.181.336-.442.464-.784l.256-.656-3.328-7.84h2.912l1.776 5.12h.048l1.584-5.12h2.784l-3.568 9.168zm13.286-4.672h-.336c-.288 0-.581.016-.88.048-.288.022-.549.07-.784.144a1.411 1.411 0 00-.56.336.73.73 0 00-.224.56c0 .15.032.278.096.384a.883.883 0 00.272.256c.107.064.229.112.368.144.139.022.272.032.4.032.533 0 .939-.144 1.216-.432.288-.298.432-.698.432-1.2v-.272zm-4.816-3.408a4.603 4.603 0 011.632-1.008 5.684 5.684 0 011.92-.336c.672 0 1.237.086 1.696.256.469.16.848.416 1.136.768.288.342.496.779.624 1.312.139.523.208 1.147.208 1.872v4.016h-2.4v-.848h-.048c-.203.331-.512.587-.928.768a3.203 3.203 0 01-1.328.272 4.05 4.05 0 01-.992-.128 2.996 2.996 0 01-.944-.416 2.287 2.287 0 01-.688-.768c-.181-.32-.272-.714-.272-1.184 0-.576.155-1.04.464-1.392.32-.352.725-.624 1.216-.816a6.555 6.555 0 011.664-.384c.608-.064 1.2-.096 1.776-.096v-.128c0-.394-.139-.682-.416-.864-.277-.192-.619-.288-1.024-.288-.373 0-.736.08-1.088.24a3.49 3.49 0 00-.88.576l-1.328-1.424zm14.119-3.28a2.369 2.369 0 00-.72-.112c-.246 0-.443.043-.592.128a.93.93 0 00-.352.352 1.348 1.348 0 00-.176.48 3.133 3.133 0 00-.048.544v.8h1.776v1.968h-1.776v6h-2.624v-6h-1.456v-1.968h1.456v-.768c0-.49.053-.954.16-1.392.106-.448.288-.837.544-1.168a2.668 2.668 0 011.056-.8c.448-.202 1.002-.304 1.664-.304.224 0 .442.016.656.048.224.022.426.059.608.112l-.176 2.08zm3.341 4.16v3.04c0 .374.069.656.208.848.149.182.411.272.784.272.128 0 .261-.01.4-.032.149-.021.272-.053.368-.096l.032 1.92a3.826 3.826 0 01-.688.16c-.277.054-.555.08-.832.08-.533 0-.981-.064-1.344-.192a2.242 2.242 0 01-.88-.576 2.392 2.392 0 01-.464-.896 4.432 4.432 0 01-.144-1.168v-3.36h-1.28v-1.968h1.264v-2.096h2.576v2.096h1.872v1.968h-1.872zm8.593 1.104c0-.416-.133-.773-.4-1.072-.256-.298-.645-.448-1.168-.448-.256 0-.49.043-.704.128-.213.075-.4.182-.56.32-.16.139-.288.304-.384.496a1.382 1.382 0 00-.16.576h3.376zm2.416 1.008v.32c0 .107-.005.208-.016.304h-5.776c.022.224.086.427.192.608.118.182.262.342.432.48.182.128.379.23.592.304.224.075.454.112.688.112.416 0 .768-.074 1.056-.224a2.16 2.16 0 00.704-.608l1.824 1.152a3.729 3.729 0 01-1.488 1.264c-.608.288-1.317.432-2.128.432a5.22 5.22 0 01-1.696-.272 4.405 4.405 0 01-1.408-.816 4.011 4.011 0 01-.944-1.328c-.224-.522-.336-1.12-.336-1.792 0-.65.112-1.237.336-1.76a3.9 3.9 0 01.912-1.344 4.02 4.02 0 011.36-.864 4.666 4.666 0 011.696-.304c.587 0 1.126.102 1.616.304.491.192.912.475 1.264.848.352.374.624.827.816 1.36.203.534.304 1.142.304 1.824zm6.795-1.936a2.051 2.051 0 00-.352-.064 3.411 3.411 0 00-.32-.016c-.352 0-.65.064-.896.192a1.956 1.956 0 00-.576.464 1.86 1.86 0 00-.304.592 1.99 1.99 0 00-.096.56v4.096h-2.624v-7.968h2.528v1.152h.032c.203-.405.491-.736.864-.992a2.239 2.239 0 011.296-.384c.107 0 .208.006.304.016.107.011.192.027.256.048l-.112 2.304zm8.584-2.608c0 .352-.042.662-.128.928a2.631 2.631 0 01-.368.736 3.41 3.41 0 01-.56.64c-.213.192-.458.395-.736.608-.17.139-.314.262-.432.368a1.513 1.513 0 00-.256.336 1.29 1.29 0 00-.144.352 2.51 2.51 0 00-.032.432v.416h-2.496v-.608c0-.277.027-.522.08-.736.054-.224.134-.426.24-.608.107-.181.235-.357.384-.528.16-.17.347-.346.56-.528l.528-.496a3.28 3.28 0 00.464-.496 1.08 1.08 0 00.192-.64c0-.341-.106-.613-.32-.816-.202-.202-.485-.304-.848-.304-.448 0-.784.155-1.008.464-.224.299-.346.64-.368 1.024l-2.544-.272a4.372 4.372 0 01.432-1.52c.235-.437.534-.8.896-1.088a3.683 3.683 0 011.232-.64 4.685 4.685 0 011.456-.224c.48 0 .944.064 1.392.192.459.118.864.31 1.216.576.352.256.635.587.848.992.214.406.32.886.32 1.44zm-2.336 7.072c0 .427-.149.79-.448 1.088a1.527 1.527 0 01-1.104.432c-.213 0-.416-.037-.608-.112a1.64 1.64 0 01-.496-.32 1.7 1.7 0 01-.336-.48 1.374 1.374 0 01-.128-.592c0-.202.038-.394.112-.576.086-.192.198-.357.336-.496.15-.138.32-.245.512-.32.192-.085.395-.128.608-.128.214 0 .411.043.592.128.192.075.358.182.496.32.15.128.262.288.336.48.086.182.128.374.128.576z"/><defs><filter id="filter0_d" width="386.34" height="350.34" x=".828" y=".83" color-interpolation-filters="sRGB" filterUnits="userSpaceOnUse"><feFlood flood-opacity="0" result="BackgroundImageFix"/><feColorMatrix in="SourceAlpha" values="0 0 0 0 0 0 0 0 0 0 0 0 0 0 0 0 0 0 127 0"/><feOffset dy="5"/><feGaussianBlur stdDeviation="3.5"/><feColorMatrix values="0 0 0 0 0 0 0 0 0 0 0 0 0 0 0 0 0 0 0.05 0"/><feBlend in2="BackgroundImageFix" result="effect1_dropShadow"/><feBlend in="SourceGraphic" in2="effect1_dropShadow" result="shape"/></filter></defs></svg>