<?xml version="1.0" standalone="no"?>
<!DOCTYPE svg PUBLIC "-//W3C//DTD SVG 1.1//EN" "http://www.w3.org/Graphics/SVG/1.1/DTD/svg11.dtd" >
<svg>
<metadata>
Created by FontForge 20120731 at Sun Jul 28 06:47:32 2019
 By www
Copyright (c) 2000 Adobe Systems Incorporated. All Rights Reserved. Patent Des. pending.Warnock is a trademark of Adobe Systems Incorporated.
</metadata>
<defs>
<font id="WarnockPro-SemiboldIt" horiz-adv-x="386" >
  <font-face 
    font-family="Warnock Pro"
    font-weight="600"
    font-style="italic"
    font-stretch="normal"
    units-per-em="1000"
    panose-1="2 10 7 3 6 5 11 9 2 4"
    ascent="735"
    descent="-265"
    x-height="455"
    cap-height="659"
    bbox="-218 -579 1573 1006"
    underline-thickness="50"
    underline-position="-75"
    slope="-15"
    stemh="44"
    stemv="117"
    unicode-range="U+0020-FB06"
  />
<missing-glyph horiz-adv-x="500" 
d="M0 0v700h500v-700h-500zM250 395l170 255h-340zM280 350l170 -255v510zM80 50h340l-170 255zM50 605v-510l170 255z" />
    <glyph glyph-name="fi" unicode="fi" horiz-adv-x="584" 
d="M59 438h74c23 75 60 154 139 210c46 34 101 51 159 51c47 0 94 -15 114 -44c-19 -42 -45 -83 -62 -101l-19 -8c-12 34 -26 89 -29 113c-5 2 -11 3 -20 3c-42 0 -115 -24 -163 -226h172c24 8 92 17 119 16l1 -2c-88 -278 -118 -382 -125 -404l2 -2c44 12 109 87 133 113
l6 -11c-11 -60 -73 -157 -190 -157c-45 0 -68 30 -45 108c7 26 48 153 90 298l-174 -8c-26 -100 -42 -170 -76 -300c-36 -137 -73 -200 -139 -256c-49 -43 -98 -62 -137 -62c-40 0 -74 16 -88 41l46 73l10 1c22 -32 62 -56 92 -56c25 0 45 14 71 123c31 129 50 222 103 438
l-81 16z" />
    <glyph glyph-name="fl" unicode="fl" horiz-adv-x="587" 
d="M365 436l-18 -36l-103 -14c-26 -104 -43 -172 -75 -293c-37 -143 -73 -207 -138 -261c-56 -45 -101 -63 -140 -63c-38 0 -74 15 -88 40l46 74l10 1c26 -32 62 -56 91 -56c23 0 47 11 71 111c33 138 53 227 105 449l-81 16l18 31h72c25 82 55 151 129 207
c50 41 109 57 155 57c44 0 77 -8 99 -26c21 8 69 22 95 25l3 -3c-15 -47 -46 -142 -100 -329c-55 -187 -85 -298 -93 -326l2 -1c39 10 108 93 133 128l8 -12c-8 -71 -74 -166 -184 -166c-49 0 -75 30 -53 107c47 172 97 344 147 516c-12 27 -42 46 -73 46
c-41 0 -100 -15 -147 -222h109z" />
    <glyph glyph-name="ff" unicode="ff" horiz-adv-x="584" 
d="M62 437h74c17 54 47 136 124 193c48 35 102 52 153 52c44 0 89 -11 120 -44c44 38 97 61 160 61c36 0 71 -9 90 -31c-13 -30 -37 -78 -54 -96l-16 -5c-7 17 -24 71 -27 93c-4 1 -9 2 -15 2c-30 0 -85 -19 -133 -226h112l-16 -36l-107 -11c-25 -104 -41 -175 -72 -287
c-38 -142 -73 -204 -155 -263c-49 -36 -99 -50 -134 -50c-48 0 -92 13 -131 53c-40 -45 -104 -73 -146 -73c-39 0 -77 13 -91 39l44 72l14 2c21 -31 60 -58 88 -58c23 0 48 17 74 118c33 134 53 227 106 448l-79 14zM254 436h166c14 47 34 99 70 147c-15 32 -54 62 -97 62
c-40 0 -95 -21 -139 -209zM408 389h-166c-27 -104 -45 -179 -77 -296c-24 -90 -47 -145 -78 -190c33 -41 81 -62 122 -62s74 20 101 127c28 112 48 201 98 421z" />
    <glyph glyph-name="ffi" unicode="ffi" horiz-adv-x="867" 
d="M64 437h73c15 49 47 132 121 189c51 39 106 56 165 56c43 0 89 -11 122 -43c46 36 106 60 170 60c53 0 100 -15 122 -44c-11 -30 -47 -85 -62 -102l-19 -7c-9 27 -25 88 -28 113c-5 2 -9 4 -23 4c-43 0 -122 -25 -165 -227h173c26 8 93 17 117 16l2 -3
c-89 -277 -119 -380 -126 -404l2 -1c43 11 107 83 132 112l7 -10c-11 -61 -73 -157 -190 -157c-44 0 -68 30 -45 108c8 26 48 152 90 297l-173 -6c-24 -103 -41 -174 -70 -285c-37 -141 -73 -207 -151 -263c-52 -38 -99 -51 -135 -51c-50 0 -93 13 -132 52
c-46 -44 -106 -72 -146 -72c-39 0 -76 15 -91 41l45 72l12 1c24 -37 61 -58 89 -58c24 0 46 12 72 118c32 127 52 224 104 446l-79 14zM255 436h169c13 48 36 105 72 150c-17 32 -57 59 -97 59c-45 0 -100 -19 -144 -209zM411 388h-169c-25 -107 -43 -179 -74 -296
c-23 -88 -46 -144 -78 -189c37 -43 85 -62 122 -62c43 0 75 18 101 121c29 115 48 202 98 426z" />
    <glyph glyph-name="ffl" unicode="ffl" horiz-adv-x="869" 
d="M651 436l-18 -36l-106 -13c-25 -103 -40 -175 -71 -292c-35 -133 -73 -198 -152 -255c-52 -39 -94 -51 -131 -51c-49 0 -97 13 -134 53c-44 -45 -106 -73 -145 -73c-40 0 -76 13 -92 39l44 72l13 1c20 -29 61 -56 89 -56c22 0 46 13 71 116c33 131 54 226 106 448l-80 14
l17 34h75c15 49 46 128 121 186c51 39 112 56 159 56c44 0 86 -11 117 -44c43 36 104 60 163 60c41 0 74 -7 97 -24c29 10 70 20 106 25l3 -2c-16 -48 -47 -143 -101 -329c-55 -187 -87 -299 -94 -325l2 -1c37 11 109 93 135 127l7 -11c-8 -70 -75 -166 -185 -166
c-50 0 -74 30 -53 107c46 172 98 337 148 512c-11 25 -43 48 -78 48c-39 0 -97 -15 -144 -220h111zM253 436h168c13 48 34 95 70 144c-17 28 -53 59 -101 59c-46 0 -93 -21 -137 -203zM409 388h-168c-26 -107 -43 -179 -73 -296c-23 -87 -45 -143 -77 -189
c31 -38 84 -62 119 -62c47 0 77 20 104 129c27 110 45 198 95 418z" />
    <glyph glyph-name="f_j" unicode="fj" horiz-adv-x="560" 
d="M63 437h74c22 73 59 155 138 211c47 34 103 51 158 51c47 0 95 -15 116 -44c-20 -42 -44 -83 -60 -101l-19 -7c-13 34 -27 89 -31 113c-4 2 -11 3 -18 3c-43 0 -117 -24 -165 -228h171c26 8 93 16 120 17l1 -2c-36 -154 -78 -307 -96 -370c-19 -69 -39 -120 -75 -164
c-70 -86 -147 -117 -170 -123l-18 26c39 22 96 55 139 217c25 92 54 207 91 358l-174 -8c-26 -99 -43 -170 -77 -300c-35 -137 -73 -199 -137 -255c-50 -42 -99 -62 -136 -62c-38 0 -73 14 -88 39l46 72l11 1c23 -32 60 -54 90 -54c23 0 44 13 69 118c32 132 51 227 103 443
l-80 16z" />
    <glyph glyph-name="f_f_j" unicode="ffj" horiz-adv-x="844" 
d="M63 438h73c15 48 46 130 120 187c50 38 106 57 163 57c46 0 91 -11 123 -43c50 36 106 60 174 60c49 0 98 -15 120 -45c-20 -42 -46 -81 -61 -99l-20 -8c-9 26 -25 88 -29 113c-4 2 -11 3 -20 3c-47 0 -121 -27 -167 -227h174c26 8 85 16 120 16l1 -2
c-36 -154 -81 -306 -97 -366c-20 -73 -39 -124 -75 -167c-69 -86 -147 -118 -170 -124l-19 27c39 23 97 55 139 214c26 94 54 210 91 361l-175 -6c-24 -103 -40 -175 -69 -286c-38 -142 -74 -206 -152 -263c-52 -38 -97 -51 -136 -51c-48 0 -93 13 -132 53
c-45 -45 -106 -73 -145 -73s-76 15 -91 41l44 71l13 3c22 -36 60 -59 91 -59c23 0 44 14 69 115c33 133 53 227 105 450l-80 15zM254 436h169c12 47 36 105 72 150c-16 33 -56 58 -95 58c-46 0 -102 -19 -146 -208zM410 389h-169c-25 -107 -43 -180 -72 -297
c-23 -89 -48 -144 -80 -188c36 -43 87 -63 124 -63c47 0 74 19 99 121c29 116 48 203 98 427z" />
    <glyph glyph-name="T_h" unicode="Th" horiz-adv-x="1113" 
d="M125 25l107 34c11 30 29 93 78 275l76 277l-165 6c-24 -32 -76 -90 -100 -114l-17 -3c6 33 29 133 39 168l5 3c12 0 56 -7 79 -13h442l84 11c2 4 3 9 4 13l111 17l10 -1c-12 -39 -48 -155 -139 -477l3 -1c64 94 144 180 212 213c18 9 58 22 91 22c34 0 42 -9 28 -59
c-39 -128 -84 -286 -89 -320l92 3l-13 -32c-57 -17 -182 -54 -213 -66l-8 10c5 27 100 317 115 373c4 13 1 17 -7 17c-34 0 -125 -98 -184 -194c-37 -61 -53 -103 -83 -187l-111 -8c22 75 52 175 96 344c26 98 48 179 69 266l-74 16l-160 -7l-63 -245
c-66 -250 -71 -281 -76 -308l117 -32l-12 -27c-60 0 -120 1 -181 1c-58 0 -117 -1 -174 -1z" />
    <glyph glyph-name="T_h.commaaccent" unicode="&#x162;h" horiz-adv-x="1113" 
d="M125 25l107 34c11 30 29 93 78 275l76 277l-165 6c-24 -32 -76 -90 -100 -114l-17 -3c6 33 29 133 39 168l5 3c12 0 56 -7 79 -13h442l84 11c2 4 3 9 4 13l111 17l10 -1c-12 -39 -48 -155 -139 -477l3 -1c64 94 144 180 212 213c18 9 58 22 91 22c34 0 42 -9 28 -59
c-39 -128 -84 -286 -89 -320l92 3l-13 -32c-57 -17 -182 -54 -213 -66l-8 10c5 27 100 317 115 373c4 13 1 17 -7 17c-34 0 -125 -98 -184 -194c-37 -61 -53 -103 -83 -187l-111 -8c22 75 52 175 96 344c26 98 48 179 69 266l-74 16l-160 -7l-63 -245
c-66 -250 -71 -281 -76 -308l117 -32l-12 -27c-60 0 -120 1 -181 1c-58 0 -117 -1 -174 -1zM203 -227l-16 25c29 22 54 46 58 71c2 14 0 23 -8 32l-22 17l3 18l62 32h15c15 -9 28 -33 25 -69c-4 -50 -50 -101 -117 -126z" />
    <glyph glyph-name="T_h.caron" unicode="&#x164;h" horiz-adv-x="1113" 
d="M125 25l107 34c11 30 29 93 78 275l76 277l-165 6c-24 -32 -76 -90 -100 -114l-17 -3c6 33 29 133 39 168l5 3c12 0 56 -7 79 -13h442l84 11c2 4 3 9 4 13l111 17l10 -1c-12 -39 -48 -155 -139 -477l3 -1c64 94 144 180 212 213c18 9 58 22 91 22c34 0 42 -9 28 -59
c-39 -128 -84 -286 -89 -320l92 3l-13 -32c-57 -17 -182 -54 -213 -66l-8 10c5 27 100 317 115 373c4 13 1 17 -7 17c-34 0 -125 -98 -184 -194c-37 -61 -53 -103 -83 -187l-111 -8c22 75 52 175 96 344c26 98 48 179 69 266l-74 16l-160 -7l-63 -245
c-66 -250 -71 -281 -76 -308l117 -32l-12 -27c-60 0 -120 1 -181 1c-58 0 -117 -1 -174 -1zM485 702h-32c-36 39 -73 77 -110 115l23 25c39 -19 77 -39 116 -59c51 20 101 40 151 59l16 -26c-54 -37 -109 -75 -164 -114z" />
    <glyph glyph-name=".notdef" horiz-adv-x="500" 
d="M0 0v700h500v-700h-500zM250 395l170 255h-340zM280 350l170 -255v510zM80 50h340l-170 255zM50 605v-510l170 255z" />
    <glyph glyph-name="space" unicode=" " horiz-adv-x="229" 
 />
    <glyph glyph-name="exclam" unicode="!" horiz-adv-x="258" 
d="M145 223l-38 -14c27 182 43 275 51 356l-8 49c20 15 100 40 165 39l5 -9c-13 -36 -81 -200 -175 -421zM106 145h8c15 -12 42 -58 47 -80l-1 -7c-10 -22 -64 -67 -85 -75h-7c-18 14 -44 54 -54 84l2 4c31 42 74 67 90 74z" />
    <glyph glyph-name="quotedbl" unicode="&#x22;" horiz-adv-x="370" 
d="M165 426l-42 -18c13 70 30 151 35 212l-9 35c26 15 80 32 120 36l11 -4c-10 -32 -77 -190 -115 -261zM338 431l-42 -18c10 68 28 149 34 212l-9 34c27 16 76 32 120 37l11 -6c-10 -32 -78 -188 -114 -259z" />
    <glyph glyph-name="numbersign" unicode="#" horiz-adv-x="529" 
d="M372 398h-111l-48 -125h111zM155 478h95l59 156l45 5l-62 -161h111l59 156l45 5l-62 -161h96l-42 -81l-85 1l-49 -125h96l-41 -79l-83 1l-67 -174l-44 -6l68 180h-110l-68 -174l-44 -6l69 180l-107 -1l42 79h94l49 125h-105z" />
    <glyph glyph-name="dollar" unicode="$" horiz-adv-x="529" 
d="M359 636l26 92l36 5l-29 -103c28 -8 46 -19 64 -37c24 14 55 25 78 31l8 -5c-8 -33 -46 -131 -67 -163l-17 -5c-5 19 -16 72 -18 106c-7 8 -23 25 -60 35l-62 -220c73 -45 145 -92 146 -186c1 -139 -144 -193 -251 -186l-28 -98l-39 -9l31 109c-82 13 -145 55 -174 85
c3 18 44 92 68 122l15 4c7 -35 11 -91 15 -143c20 -17 57 -26 86 -31l68 231c-74 46 -143 93 -144 184c-1 131 120 198 248 182zM288 389l60 209c-73 6 -136 -33 -136 -109c0 -39 23 -66 76 -100zM284 253l-61 -216c85 2 133 49 133 110c0 48 -34 82 -72 106z" />
    <glyph glyph-name="percent" unicode="%" horiz-adv-x="794" 
d="M313 655h1c71 0 117 -48 117 -133c0 -105 -82 -224 -205 -224c-67 0 -118 44 -119 128c-1 99 80 229 206 229zM311 622h-1c-73 0 -116 -164 -116 -226c0 -36 13 -67 37 -67c66 0 114 165 114 232c0 39 -13 61 -34 61zM690 664l29 -27c-111 -130 -385 -451 -574 -677
l-28 30c192 223 405 475 573 674zM626 344h1c70 0 116 -48 116 -133c0 -104 -82 -223 -205 -223c-67 0 -118 44 -119 128c-1 98 80 228 207 228zM624 311h-1c-72 0 -117 -164 -117 -225c0 -36 13 -67 37 -67c67 0 115 165 115 231c0 40 -13 61 -34 61z" />
    <glyph glyph-name="ampersand" unicode="&#x26;" horiz-adv-x="733" 
d="M351 191l-16 28c43 56 108 104 208 104c63 0 94 -2 114 -4c28 24 49 44 71 59l22 -20c-29 -43 -61 -98 -82 -139c-22 7 -39 10 -77 15c-36 -183 -181 -248 -307 -248c-148 0 -239 83 -239 196c0 91 61 156 185 194v2c-32 18 -58 57 -58 105c0 98 94 172 230 172
c60 0 120 -22 148 -50c-2 -19 -36 -85 -57 -105l-23 -6c-7 19 -17 80 -20 115c-10 4 -22 6 -38 6c-71 0 -126 -44 -126 -118c0 -46 27 -85 109 -105l-20 -36c-12 3 -19 3 -34 3c-89 -1 -166 -55 -166 -147c0 -82 59 -147 162 -147s188 69 212 173c-22 2 -38 3 -60 3
c-40 0 -93 -11 -138 -50z" />
    <glyph glyph-name="quoteright" unicode="&#x2019;" horiz-adv-x="228" 
d="M107 409l-17 28c54 29 103 75 103 132c0 12 -3 21 -7 30l-40 24l2 15l78 52h15c13 -7 39 -35 39 -83c0 -97 -74 -161 -173 -198z" />
    <glyph glyph-name="parenleft" unicode="(" horiz-adv-x="320" 
d="M400 721l17 -24c-162 -113 -280 -328 -280 -580c0 -134 33 -226 58 -276l-26 -18c-70 76 -122 194 -121 340c2 234 139 454 352 558z" />
    <glyph glyph-name="parenright" unicode=")" horiz-adv-x="323" 
d="M-42 -177l-18 24c165 110 279 340 279 576c0 143 -34 232 -59 281l28 17c69 -77 120 -201 119 -342c-2 -229 -127 -449 -349 -556z" />
    <glyph glyph-name="asterisk" unicode="*" horiz-adv-x="389" 
d="M279 471l7 4l100 -46l23 -5c-4 -27 -37 -66 -60 -72l-9 22zM261 504l-13 -5l-98 45l-26 4c3 27 38 70 62 76l9 -23zM252 488l-3 -13l-91 -64l-17 -19c-16 10 -37 70 -29 91l22 -5zM285 488l3 13l90 68l16 17c20 -17 38 -76 34 -94l-25 6zM282 511l-12 -2l-11 118l-5 22
c14 8 82 -2 93 -17l-15 -18zM260 465l9 4l13 -117l8 -28c-20 -4 -83 6 -98 20l18 22z" />
    <glyph glyph-name="plus" unicode="+" horiz-adv-x="628" 
d="M355 -9l-71 -10v223h-199l10 62h189v192l71 11v-203h199l-10 -62h-189v-213z" />
    <glyph glyph-name="comma" unicode="," horiz-adv-x="239" 
d="M-29 -136l-19 28c57 33 108 89 108 147c0 17 -4 26 -9 35l-41 26l1 16l86 55h17c14 -8 40 -38 40 -90c0 -101 -74 -177 -183 -217z" />
    <glyph glyph-name="hyphen" unicode="-" horiz-adv-x="365" 
d="M286 226l-249 -33l43 86l53 -2l202 13l2 -8z" />
    <glyph glyph-name="period" unicode="." horiz-adv-x="239" 
d="M99 149h8c15 -12 42 -60 47 -82l-1 -8c-11 -22 -64 -68 -85 -76h-7c-17 14 -44 55 -54 86l2 4c31 43 73 69 90 76z" />
    <glyph glyph-name="slash" unicode="/" horiz-adv-x="392" 
d="M41 -38h-66l443 711h65z" />
    <glyph glyph-name="zero" unicode="0" horiz-adv-x="529" 
d="M360 655h1c106 0 170 -83 170 -225c0 -169 -92 -443 -308 -443c-98 0 -176 71 -176 228c0 174 107 440 313 440zM359 619h-1c-105 0 -196 -304 -196 -472c0 -94 29 -123 64 -123c113 0 193 339 193 477c0 84 -22 118 -60 118z" />
    <glyph glyph-name="one" unicode="1" horiz-adv-x="529" 
d="M313 567h-120l10 24c19 6 135 37 229 64h12c-21 -81 -145 -575 -150 -600l119 -30l-13 -26c-58 0 -117 2 -175 2c-63 0 -127 -2 -190 -2l12 26l120 30c15 41 69 228 146 512z" />
    <glyph glyph-name="two" unicode="2" horiz-adv-x="529" 
d="M6 15l45 63c10 3 16 5 28 13c64 43 134 100 204 176c69 75 98 146 98 212c0 83 -42 124 -107 124c-22 0 -42 -5 -62 -15c-9 -42 -31 -111 -47 -141l-17 -9c-13 24 -38 91 -40 120c51 48 134 97 222 97c99 0 179 -58 179 -174c0 -99 -73 -173 -210 -277
c-67 -50 -114 -84 -161 -115l-1 -2c49 1 198 4 246 5c15 14 48 49 83 78l20 -20c-15 -41 -51 -118 -77 -155c-44 0 -157 5 -247 5h-159z" />
    <glyph glyph-name="three" unicode="3" horiz-adv-x="529" 
d="M173 478l-16 -7c-7 12 -30 73 -36 105c61 46 139 79 210 79c89 0 165 -47 166 -138c0 -95 -96 -141 -195 -167l-1 -4c114 -16 172 -69 172 -154c1 -126 -132 -205 -280 -205c-79 0 -154 32 -190 64c12 30 51 94 68 113l17 6c7 -22 17 -90 21 -133c14 -5 35 -9 60 -9
c100 0 174 73 174 167c0 79 -47 120 -104 123c-45 -9 -75 -13 -91 -15l-5 10c7 19 29 46 44 55c23 -1 45 -4 62 -5c88 28 125 83 124 142c-1 68 -39 104 -103 104c-23 0 -40 -6 -50 -11c-10 -31 -30 -92 -47 -120z" />
    <glyph glyph-name="four" unicode="4" horiz-adv-x="529" 
d="M389 198l-34 -144l81 -29l-10 -26c-48 0 -95 2 -142 2c-51 0 -102 -2 -152 -2l9 26l94 29c8 22 24 72 42 141l-245 -3l-15 31c78 110 331 385 366 409c19 9 78 19 123 23l-106 -417h42c29 29 52 47 69 57l14 1c-4 -22 -43 -131 -53 -149l-16 -6c-8 15 -17 39 -22 58z
M288 239l101 344h-5c-147 -162 -196 -222 -283 -339c43 -3 116 -5 187 -5z" />
    <glyph glyph-name="five" unicode="5" horiz-adv-x="529" 
d="M104 349l-6 12c13 42 86 235 104 282c86 -3 191 -3 234 -2c13 0 40 9 83 27l13 -21c-13 -19 -52 -65 -79 -85c-13 -9 -29 -14 -48 -15c-34 -3 -129 -5 -186 -5c-10 -23 -31 -68 -55 -127c32 -8 74 -21 117 -35c133 -42 185 -89 186 -179c1 -120 -111 -214 -262 -214
c-80 0 -157 39 -185 67c12 33 50 93 67 111l16 5c6 -20 18 -110 21 -131c15 -6 35 -10 62 -10c96 0 162 66 161 144c-1 64 -45 101 -136 137c-38 15 -78 28 -107 39z" />
    <glyph glyph-name="six" unicode="6" horiz-adv-x="529" 
d="M530 665l11 -31c-34 -8 -115 -29 -197 -87c-87 -62 -137 -138 -159 -215l2 -2c59 43 109 59 154 59c74 0 153 -50 153 -170c0 -121 -97 -232 -249 -232c-121 0 -203 82 -203 227c0 110 48 234 171 330c101 80 235 118 317 121zM249 23h1c70 0 125 101 124 187
c-1 89 -45 118 -92 118c-33 0 -77 -16 -107 -44c-8 -19 -16 -62 -16 -107c0 -97 35 -154 90 -154z" />
    <glyph glyph-name="seven" unicode="7" horiz-adv-x="529" 
d="M96 -14l-7 12c22 45 99 144 189 253c79 96 147 182 228 293l1 2c-33 1 -77 1 -148 1c-76 0 -121 -1 -155 -2c-28 -42 -43 -65 -56 -82l-27 -6c9 60 28 168 33 191c50 -6 59 -6 74 -6c140 0 256 0 369 1l-10 -42c-24 -78 -344 -477 -370 -545l-13 -56z" />
    <glyph glyph-name="eight" unicode="8" horiz-adv-x="529" 
d="M359 345v-2c54 -44 112 -88 112 -170c0 -95 -90 -186 -237 -186c-126 0 -206 73 -207 155c-1 76 51 119 175 178v3c-52 40 -85 89 -85 145c0 111 96 187 212 187c107 0 177 -65 177 -148c0 -82 -70 -120 -147 -162zM321 619h-1c-63 0 -103 -55 -103 -110
c0 -60 50 -102 111 -143c45 28 84 78 84 144c0 58 -33 109 -91 109zM246 23h1c68 0 114 52 114 116c0 61 -60 111 -127 159c-57 -37 -99 -90 -99 -155c1 -72 49 -120 111 -120z" />
    <glyph glyph-name="nine" unicode="9" horiz-adv-x="529" 
d="M337 655h1c122 0 195 -89 195 -228c0 -112 -43 -235 -182 -339c-97 -73 -212 -103 -281 -111l-13 28c41 14 103 37 179 93s129 130 155 195l-1 2c-45 -32 -97 -47 -133 -47c-80 0 -165 53 -165 175c0 118 104 232 245 232zM334 619h-1c-73 0 -121 -92 -121 -182
c0 -92 54 -129 103 -129c26 0 63 9 84 31c12 34 21 78 21 129c0 104 -34 151 -86 151z" />
    <glyph glyph-name="colon" unicode=":" horiz-adv-x="239" 
d="M101 149h7c15 -12 43 -60 47 -82l-1 -7c-11 -23 -64 -69 -85 -77h-7c-18 14 -44 55 -54 86l2 3c31 44 74 70 91 77zM168 437h7c15 -12 43 -60 48 -82l-1 -7c-11 -23 -64 -69 -85 -78h-7c-18 15 -45 56 -54 87l2 3c31 44 73 70 90 77z" />
    <glyph glyph-name="semicolon" unicode=";" horiz-adv-x="239" 
d="M163 437h7c15 -12 43 -60 48 -82l-1 -8c-11 -22 -64 -68 -85 -76h-7c-18 14 -45 55 -54 86l1 4c32 43 74 69 91 76zM-29 -135l-19 28c57 32 108 89 108 147c0 17 -3 26 -8 35l-42 26l1 16l86 55h17c14 -8 40 -38 40 -90c0 -101 -74 -177 -183 -217z" />
    <glyph glyph-name="less" unicode="&#x3c;" horiz-adv-x="610" 
d="M69 194l5 74l422 208l-8 -72l-358 -173v-2l366 -176l-8 -69z" />
    <glyph glyph-name="equal" unicode="=" horiz-adv-x="628" 
d="M547 175l-11 -62h-450l11 62h450zM547 358l-11 -62h-450l11 62h450z" />
    <glyph glyph-name="greater" unicode="&#x3e;" horiz-adv-x="610" 
d="M540 268l-5 -74l-422 -209l9 72l350 173v3l-359 173l9 70z" />
    <glyph glyph-name="question" unicode="?" horiz-adv-x="429" 
d="M182 481l-16 -5c-14 27 -26 69 -30 108c50 34 120 62 177 62c75 0 150 -42 150 -132c0 -66 -44 -103 -100 -141c-67 -45 -122 -81 -126 -107c-3 -16 -2 -29 3 -45l-26 -14c-26 9 -74 58 -65 117c20 33 51 60 122 112c51 38 90 62 90 103c0 35 -30 65 -80 65
c-14 0 -26 -3 -37 -7c-20 -47 -45 -92 -62 -116zM192 145h7c15 -11 43 -58 47 -80v-7c-12 -22 -64 -67 -85 -75h-7c-18 14 -45 54 -54 84l2 4c31 42 73 68 90 74z" />
    <glyph glyph-name="at" unicode="@" horiz-adv-x="830" 
d="M504 358h-1c-21 0 -46 -3 -89 -45c-53 -52 -98 -138 -98 -204c0 -17 5 -27 16 -27c22 0 78 36 138 118c33 43 56 86 74 140c-10 12 -26 18 -40 18zM649 407l4 -5l-32 -55c-31 -95 -60 -201 -75 -266c-3 -12 -1 -15 4 -15c99 0 183 89 183 224c0 150 -106 241 -256 241
c-224 0 -350 -169 -350 -359c0 -196 132 -297 295 -297c106 0 204 36 297 127l20 -29c-111 -121 -235 -154 -344 -154c-210 0 -346 134 -346 343c0 230 184 410 435 410c176 0 309 -102 309 -278c0 -168 -141 -278 -304 -274c-16 0 -34 2 -43 5c10 35 36 110 50 154h-5
c-69 -98 -156 -159 -212 -159c-36 0 -57 32 -57 81c0 74 49 187 146 251c51 35 93 47 125 47c26 0 48 -8 64 -25l8 21z" />
    <glyph glyph-name="A" unicode="A" horiz-adv-x="690" 
d="M396 634l111 49l4 -8c-5 -16 -8 -39 -6 -70c3 -44 14 -175 52 -508c7 -43 17 -47 84 -71l-8 -27c-44 0 -88 1 -133 1c-39 0 -78 -1 -117 -1l6 23l48 29c0 32 -8 97 -14 180c-37 -4 -84 -8 -219 -6c-52 -84 -75 -123 -101 -166l84 -34l-8 -26c-39 0 -80 1 -121 1
c-36 0 -72 -1 -109 -1l9 26l74 34c43 56 224 333 356 534c8 12 9 19 8 28v13zM400 538h-2c-90 -147 -115 -187 -159 -258c43 0 146 -3 181 -3c-8 105 -15 180 -20 261z" />
    <glyph glyph-name="B" unicode="B" horiz-adv-x="642" 
d="M138 627l13 26c53 5 160 13 229 13c150 0 244 -38 244 -148c0 -96 -93 -152 -212 -166l-1 -5c122 -17 185 -70 185 -153c-1 -138 -150 -199 -357 -196c-84 1 -175 1 -260 3l10 27l83 30c4 10 29 93 66 229l86 322zM345 626l-66 -261c134 1 219 51 219 151
c0 81 -57 110 -138 110h-15zM270 327c-24 -93 -50 -185 -72 -289c87 1 161 11 203 45c37 28 61 67 61 117c0 75 -42 127 -192 127z" />
    <glyph glyph-name="C" unicode="C" horiz-adv-x="683" 
d="M642 168l11 -27c-24 -39 -60 -92 -92 -123c-50 -20 -123 -37 -181 -37c-187 0 -310 109 -310 293c0 219 183 401 431 401c66 0 118 -20 142 -40c23 12 54 21 83 26l7 -9c-16 -50 -61 -152 -75 -175l-17 -5c-6 38 -11 86 -14 127c-24 17 -62 26 -107 26
c-198 0 -318 -169 -318 -345c0 -149 77 -245 220 -245c18 0 38 2 58 6c57 49 108 90 162 127z" />
    <glyph glyph-name="D" unicode="D" horiz-adv-x="744" 
d="M140 628l15 26c25 2 121 12 226 12c228 0 352 -98 352 -288c0 -186 -130 -317 -316 -362c-71 -18 -159 -20 -284 -19c-59 1 -113 2 -155 3l9 27l85 30c7 9 36 119 81 286l72 266zM346 623l-72 -280c-43 -166 -74 -291 -76 -306c84 0 171 9 249 58c111 69 154 185 154 304
c0 54 -15 108 -45 144c-48 60 -125 80 -210 80z" />
    <glyph glyph-name="E" unicode="E" horiz-adv-x="598" 
d="M136 634l11 25c45 0 90 -1 133 -1h244c17 3 69 10 94 10l4 -5c-4 -18 -30 -117 -47 -158l-16 -8c-17 41 -30 88 -39 119l-178 -8l-62 -242c81 1 180 4 244 12l6 -14c-8 -11 -63 -57 -71 -57c-10 0 -176 10 -192 10c-18 -65 -50 -186 -68 -264l210 -11
c45 43 98 98 135 128l17 -8c-8 -23 -44 -122 -68 -165c-90 3 -151 3 -209 3h-163c-51 0 -101 -1 -152 -1l11 26l90 34c4 8 36 115 82 284l71 259z" />
    <glyph glyph-name="F" unicode="F" horiz-adv-x="554" 
d="M140 633l13 26c42 0 83 -1 124 -1h256c12 3 72 10 98 10l5 -8c-7 -27 -35 -117 -54 -163l-16 -7c-12 39 -30 103 -35 126l-188 -8l-68 -259c83 1 188 4 250 11l6 -13c-6 -10 -61 -57 -69 -57c-9 0 -176 10 -200 10c-45 -170 -58 -230 -59 -240l111 -35l-11 -26
c-58 0 -116 1 -175 1c-47 0 -95 -1 -143 -1l10 26l75 34c6 10 31 101 81 283l70 259z" />
    <glyph glyph-name="G" unicode="G" horiz-adv-x="736" 
d="M574 -19h-5c-44 9 -61 20 -70 33c-34 -20 -86 -31 -137 -31c-175 0 -293 113 -293 288c0 222 173 404 438 404c65 0 118 -20 142 -40c20 9 76 22 93 23l5 -8c-7 -28 -57 -147 -77 -179l-16 -5c-6 27 -15 94 -19 129c-26 21 -71 31 -118 31c-202 0 -316 -180 -316 -348
c0 -151 84 -241 218 -241c28 0 55 5 82 15c21 73 43 133 66 207l-191 6l-2 11l49 34c62 5 210 9 291 9c-22 -80 -122 -312 -140 -338z" />
    <glyph glyph-name="H" unicode="H" horiz-adv-x="767" 
d="M142 633l12 26c42 0 84 -1 126 -1c40 0 81 1 120 1l-8 -26l-53 -34l-58 -221h288l59 222l-46 35l9 24c32 0 64 -1 95 -1c51 0 100 1 150 1l-11 -27l-78 -33c-20 -67 -44 -162 -69 -258c-28 -113 -66 -271 -65 -281l81 -33l-13 -28c-46 0 -93 1 -141 1
c-40 0 -81 -1 -122 -1l9 27l54 34c28 94 50 178 76 276c-49 -8 -92 -10 -139 -10h-151c-21 -80 -43 -164 -67 -267l49 -35l-8 -25c-39 0 -78 1 -118 1c-47 0 -95 -1 -143 -1l10 27l79 33c7 13 52 166 85 288l66 253z" />
    <glyph glyph-name="I" unicode="I" horiz-adv-x="362" 
d="M148 633l11 26c41 0 82 -1 123 -1c49 0 98 1 147 1l-9 -27l-79 -32l-68 -257c-42 -161 -69 -275 -70 -285l85 -33l-12 -26c-49 0 -99 1 -149 1c-49 0 -99 -1 -149 -1l10 26l83 33c6 12 37 119 82 285l71 257z" />
    <glyph glyph-name="J" unicode="J" horiz-adv-x="340" 
d="M131 633l13 26c46 0 91 -2 139 -2c50 0 97 2 145 2l-11 -27l-78 -33c-19 -75 -102 -387 -121 -457c-14 -54 -29 -94 -51 -129c-58 -96 -164 -142 -214 -157l-23 23l3 11c29 11 59 28 86 58c31 33 50 84 71 161c18 63 34 133 70 272c42 164 51 201 55 218z" />
    <glyph glyph-name="K" unicode="K" horiz-adv-x="686" 
d="M792 658l-11 -26c-22 -9 -81 -27 -113 -36c-8 -2 -16 -7 -31 -18c-56 -43 -121 -101 -236 -205v-2c42 -75 100 -172 151 -252c47 -72 74 -107 84 -123l-12 -11c-99 3 -140 28 -181 85c-35 47 -105 159 -154 254l1 7c174 156 245 225 292 276c-7 15 -11 35 -15 53
c95 3 179 -1 225 -2zM148 633l11 26c44 0 88 -1 131 -1c47 0 93 1 139 1l-8 -27l-79 -32l-68 -257c-44 -166 -71 -274 -71 -284l82 -34l-9 -26c-49 0 -99 1 -150 1c-49 0 -98 -1 -147 -1l10 26l82 34c6 11 37 118 82 284l69 257z" />
    <glyph glyph-name="L" unicode="L" horiz-adv-x="568" 
d="M145 633l11 26c45 0 90 -1 134 -1c47 0 94 1 141 1l-11 -27l-78 -32l-68 -255c-42 -159 -73 -286 -74 -292l177 -12c47 47 105 109 145 141l16 -10c-10 -28 -48 -128 -71 -175c-33 0 -102 3 -333 3c-51 0 -105 -1 -153 -1l7 26l84 34c3 8 38 129 80 285l70 256z" />
    <glyph glyph-name="M" unicode="M" horiz-adv-x="940" 
d="M179 632l14 26c65 1 131 2 195 2c-6 -23 -5 -37 -3 -49c8 -48 38 -210 74 -414h3c36 56 154 228 282 422c6 11 8 20 10 41c71 0 144 -1 214 -1l-11 -28l-90 -28c-24 -111 -75 -505 -79 -545l87 -33l-10 -26c-48 0 -95 1 -142 1c-49 0 -97 -1 -146 -1l11 26l72 32
c32 171 63 339 94 506h-2c-82 -131 -189 -293 -352 -566l-32 -8c-18 130 -33 250 -73 533h-2c-44 -115 -125 -314 -177 -462l88 -35l-11 -26c-43 0 -86 1 -128 1c-35 0 -69 -1 -105 -1l9 26l77 35c62 125 161 353 231 520c-5 29 -19 32 -98 52z" />
    <glyph glyph-name="N" unicode="N" horiz-adv-x="733" 
d="M214 25l-10 -26c-40 0 -81 1 -122 1c-37 0 -74 -1 -112 -1l9 26l87 39c17 40 69 202 154 495c-30 55 -45 59 -108 73l14 25c55 3 135 4 181 5c3 -20 9 -33 24 -63c84 -177 160 -339 221 -468h2c18 64 102 408 115 466l-80 36l14 26c35 0 71 -1 106 -1c40 0 81 1 121 1
l-11 -29l-85 -33c-19 -44 -94 -315 -151 -531l61 -52l-5 -14l-152 -11c-26 53 -126 269 -238 517h-2c-46 -166 -104 -398 -112 -443z" />
    <glyph glyph-name="O" unicode="O" horiz-adv-x="750" 
d="M468 675h1c117 0 268 -78 269 -298c0 -173 -126 -394 -396 -394c-135 0 -275 85 -275 288c0 194 158 404 401 404zM468 636h-2c-153 0 -268 -219 -268 -397c0 -149 54 -218 146 -218c154 0 263 233 263 408c0 144 -59 207 -139 207z" />
    <glyph glyph-name="P" unicode="P" horiz-adv-x="598" 
d="M135 626l15 26c63 7 146 14 219 14c129 0 257 -38 257 -190c0 -137 -127 -217 -271 -217c-25 0 -45 5 -56 9l-4 27c111 6 204 71 204 194c0 101 -69 136 -154 134l-67 -268c-63 -248 -72 -283 -73 -295l100 -35l-11 -26c-53 0 -107 1 -161 1c-50 0 -101 -1 -151 -1l7 26
l83 35c6 15 22 65 84 292l69 254z" />
    <glyph glyph-name="Q" unicode="Q" horiz-adv-x="751" 
d="M713 -171l-10 -12c-68 -13 -146 6 -206 34c-48 23 -100 53 -199 116c-18 12 -31 19 -48 26c-95 38 -182 118 -182 273c0 201 159 409 401 409c120 0 269 -83 269 -288c0 -208 -130 -341 -296 -387v-1c125 -77 204 -124 271 -170zM471 636h-1c-166 0 -271 -242 -271 -403
c0 -131 55 -199 141 -219c171 18 267 253 267 416c0 142 -53 206 -136 206z" />
    <glyph glyph-name="R" unicode="R" horiz-adv-x="635" 
d="M139 617l13 29c53 10 155 20 229 20c173 0 243 -63 243 -158c0 -114 -93 -166 -199 -197l-1 -2c22 -48 67 -138 114 -223c32 -58 44 -78 52 -91l-11 -10c-80 2 -126 28 -158 76c-35 50 -80 134 -126 236l6 11c110 26 198 76 198 188c0 88 -57 128 -155 127l-78 -304
c-36 -137 -56 -215 -65 -258l91 -36l-11 -26c-50 0 -101 1 -152 1c-50 0 -99 -1 -149 -1l9 26l80 34c12 35 40 128 77 259l81 286z" />
    <glyph glyph-name="S" unicode="S" horiz-adv-x="519" 
d="M335 675h1c58 0 94 -17 119 -39c22 12 60 26 77 30l11 -6c-9 -34 -46 -140 -62 -168l-17 -7c-9 29 -18 77 -22 111c-8 11 -37 32 -90 32c-80 0 -123 -57 -123 -111c0 -36 13 -61 44 -89c30 -26 68 -55 122 -101c59 -50 79 -94 79 -147c0 -118 -104 -197 -246 -197
c-97 0 -184 47 -219 83c3 18 47 121 73 153h15c7 -27 12 -123 18 -171c23 -12 57 -19 96 -19c94 0 143 54 143 116c0 34 -15 65 -51 97c-36 31 -75 63 -110 95c-52 46 -73 92 -73 146c0 120 101 192 215 192z" />
    <glyph glyph-name="T" unicode="T" horiz-adv-x="657" 
d="M235 658h404c26 5 78 12 100 13l6 -3c-14 -41 -59 -137 -83 -186l-18 -4c-5 41 -11 104 -13 140l-141 -7l-65 -249c-65 -251 -68 -277 -74 -303l116 -33l-12 -27c-60 0 -120 1 -180 1c-58 0 -117 -1 -175 -1l11 26l107 34c12 30 29 89 78 271l76 281l-137 6
c-24 -29 -85 -104 -115 -133l-21 -3c14 54 43 155 55 187l5 3c13 0 54 -7 76 -13z" />
    <glyph glyph-name="U" unicode="U" horiz-adv-x="763" 
d="M213 598l-77 35l12 26c34 0 79 -2 114 -2c40 0 84 2 124 2l-10 -26l-48 -40c-7 -23 -101 -340 -115 -419c-18 -100 27 -119 75 -119c98 0 187 71 218 108l127 437l-49 33l13 26c35 -1 76 -2 118 -2c44 0 83 1 124 2l-13 -27l-78 -34c-16 -48 -142 -515 -143 -538l91 -20
l-13 -27c-71 -10 -179 -21 -219 -30l-5 3l36 116h-2c-51 -45 -146 -119 -263 -119c-42 0 -78 8 -106 28c-39 28 -60 83 -31 190c36 132 109 360 120 397z" />
    <glyph glyph-name="V" unicode="V" horiz-adv-x="678" 
d="M106 633l11 26c41 0 83 -1 124 -1c37 0 74 0 110 1l-10 -27l-39 -33c3 -38 11 -119 47 -459h2c74 111 191 292 288 460l-38 33l11 26c27 0 56 -1 83 -1c34 0 69 1 104 1l-9 -26c-57 -25 -77 -36 -92 -50c-56 -73 -264 -390 -363 -544c-18 -19 -45 -44 -68 -58h-16
c-6 63 -37 327 -69 603c-8 18 -18 25 -76 49z" />
    <glyph glyph-name="W" unicode="W" horiz-adv-x="964" 
d="M109 634l11 25c38 0 79 -1 118 -1c32 0 63 1 94 1l-8 -26l-27 -28c5 -53 27 -181 70 -465h2c39 55 75 109 141 209c-13 86 -31 179 -44 238c-8 16 -26 27 -71 46l12 26c38 0 78 -1 115 -1c24 0 47 1 70 1l-1 -5l-8 -48c2 -24 5 -46 24 -156h2c49 76 71 109 95 153l12 52
l3 4c16 0 37 -1 54 -1c30 0 63 1 93 1l-12 -26c-60 -26 -81 -35 -98 -50c-18 -22 -56 -71 -138 -190c3 -23 18 -112 40 -246h2c62 102 188 309 270 453l-19 33l11 26c24 0 49 -1 73 -1c32 0 64 1 96 1l-10 -26c-62 -28 -75 -34 -96 -55c-41 -53 -195 -298 -338 -525
c-16 -26 -43 -52 -64 -72h-13c-8 39 -27 175 -50 304h-2c-73 -107 -114 -162 -162 -233c-20 -25 -46 -52 -69 -71h-12c-12 64 -74 486 -96 606c-7 16 -15 23 -70 47z" />
    <glyph glyph-name="X" unicode="X" horiz-adv-x="657" 
d="M111 633l11 26c44 0 88 -1 131 -1c37 0 74 1 111 1l-10 -27l-31 -32c27 -83 54 -143 69 -184h2c47 52 87 98 151 187l-31 30l12 26c23 0 50 -1 76 -1c39 0 79 1 120 1l-11 -27l-99 -37c-47 -46 -98 -103 -203 -223c35 -97 91 -240 118 -309l93 -38l-11 -26
c-48 0 -96 1 -144 1c-32 0 -64 -1 -96 -1l30 58c-6 26 -34 103 -79 226h-2c-66 -80 -90 -104 -184 -225l46 -33l-10 -26c-29 0 -60 1 -90 1c-41 0 -81 0 -122 -1l11 26l90 39c36 33 108 112 243 267c-40 112 -78 204 -104 267z" />
    <glyph glyph-name="Y" unicode="Y" horiz-adv-x="604" 
d="M98 633l12 26c39 0 80 -2 120 -2c37 0 75 2 111 2l-11 -27l-35 -25c6 -29 34 -107 77 -253l3 -1c62 76 143 184 189 252l-37 28l12 26c22 0 50 -2 74 -2c40 0 78 2 118 2l-12 -27l-84 -33c-49 -51 -121 -134 -232 -277c-9 -12 -15 -24 -19 -41
c-40 -149 -55 -211 -56 -223l105 -33l-10 -26c-57 0 -113 1 -169 1s-111 -1 -167 -1l11 26l98 32c6 12 27 69 70 226c4 16 4 27 1 39c-13 43 -56 168 -90 268c-9 13 -21 19 -79 43z" />
    <glyph glyph-name="Z" unicode="Z" horiz-adv-x="636" 
d="M668 658l2 -18c-42 -47 -318 -369 -502 -588v-2c21 0 249 -7 290 -8c43 46 93 100 138 147l16 -8c-12 -47 -43 -142 -63 -185c-64 0 -302 4 -559 4l-7 15c79 90 358 410 517 594v2c-66 1 -188 3 -262 3c-24 -35 -58 -83 -96 -128l-22 -6c7 41 28 166 34 190l6 4
c42 -7 75 -14 85 -16h423z" />
    <glyph glyph-name="bracketleft" unicode="[" horiz-adv-x="323" 
d="M299 657l-200 -770l101 -25l-12 -28h-184l228 876h183l-12 -29z" />
    <glyph glyph-name="backslash" unicode="\" horiz-adv-x="460" 
d="M369 -38h-61l-147 711h61z" />
    <glyph glyph-name="bracketright" unicode="]" horiz-adv-x="323" 
d="M58 -114l201 772l-101 25l12 27h183l-227 -876h-183l12 26z" />
    <glyph glyph-name="asciicircum" unicode="^" horiz-adv-x="536" 
d="M492 265l-71 -9l-140 323l-133 -314l-73 -9l173 386l69 1z" />
    <glyph glyph-name="underscore" unicode="_" horiz-adv-x="483" 
d="M426 -100v-48h-483v48h483z" />
    <glyph glyph-name="quoteleft" unicode="&#x2018;" horiz-adv-x="227" 
d="M286 695l15 -28c-54 -27 -101 -75 -101 -132c0 -14 3 -21 8 -30l39 -25l-2 -15l-78 -52h-15c-13 8 -39 40 -39 85c0 95 74 161 173 197z" />
    <glyph glyph-name="a" unicode="a" horiz-adv-x="557" 
d="M412 447l120 12l4 -9l-42 -56c-35 -102 -71 -246 -91 -332l3 -1c51 15 97 68 117 95l7 -9c-4 -74 -88 -160 -208 -160c-12 0 -27 2 -35 4c11 44 39 141 54 195h-3c-77 -109 -166 -199 -251 -199c-47 0 -73 40 -73 101c0 85 50 214 165 299c53 40 107 57 157 57
c31 0 53 -10 68 -22zM148 57h1c26 0 81 33 163 156c40 61 56 102 76 175c-8 7 -19 11 -37 11c-26 0 -67 -14 -112 -62c-69 -74 -109 -180 -109 -242c0 -29 10 -38 18 -38z" />
    <glyph glyph-name="b" unicode="b" horiz-adv-x="536" 
d="M120 644l8 22c47 16 158 32 189 32l4 -2c-12 -43 -52 -164 -123 -400h4c91 119 167 159 224 159c55 0 91 -49 91 -118c0 -194 -165 -349 -330 -349c-59 0 -136 36 -161 53c57 213 134 490 160 590zM187 26h1c115 0 212 197 210 311c0 36 -12 55 -29 55
c-19 0 -52 -15 -112 -83c-62 -68 -109 -176 -112 -244c1 -27 18 -39 42 -39z" />
    <glyph glyph-name="c" unicode="c" horiz-adv-x="423" 
d="M383 142l8 -34c-45 -62 -114 -121 -219 -121c-102 0 -144 73 -144 158c0 68 28 158 103 228c62 55 131 82 198 82c52 0 86 -16 96 -27c-3 -19 -34 -96 -51 -118l-18 -8c-8 15 -20 62 -30 114c-3 0 -7 1 -11 1c-25 0 -60 -14 -94 -53c-50 -57 -73 -136 -73 -206
c0 -68 28 -106 78 -106c67 0 130 61 155 91z" />
    <glyph glyph-name="d" unicode="d" horiz-adv-x="570" 
d="M386 644l12 23c39 15 126 31 195 32l2 -2c-53 -165 -146 -485 -178 -635l2 -2c66 27 105 82 115 96l9 -10c-7 -79 -92 -159 -201 -159c-20 0 -36 3 -46 6c13 45 39 138 53 190h-4c-78 -113 -160 -196 -245 -196c-48 0 -81 49 -81 118c0 164 152 350 306 350
c37 0 61 -14 80 -34c24 82 44 154 58 209zM339 406h-1c-97 0 -203 -182 -203 -303c0 -28 9 -45 25 -45c24 0 86 37 157 147c39 60 55 108 76 176c-12 14 -32 25 -54 25z" />
    <glyph glyph-name="e" unicode="e" horiz-adv-x="443" 
d="M399 145l5 -37c-53 -75 -135 -121 -223 -121c-79 0 -151 37 -153 155c-2 127 108 313 286 313c80 0 121 -47 123 -107c0 -28 -11 -54 -31 -69c-33 -37 -172 -75 -252 -88c-5 -20 -7 -36 -6 -54c0 -44 17 -88 75 -88c66 0 137 52 174 96h2zM301 418h-1
c-45 0 -110 -76 -140 -189c49 10 131 33 154 69c12 18 18 42 18 71c0 36 -14 49 -31 49z" />
    <glyph glyph-name="f" unicode="f" horiz-adv-x="298" 
d="M63 437h72c16 59 47 145 120 206c49 41 101 57 146 57c38 0 68 -8 89 -30c-14 -36 -40 -82 -57 -102l-19 -5c-5 16 -18 65 -23 97c-3 1 -7 2 -12 2c-28 0 -81 -20 -125 -227h110l-18 -36l-104 -13c-24 -101 -40 -171 -73 -296c-37 -142 -73 -203 -141 -259
c-52 -43 -98 -62 -137 -62s-74 18 -87 42l45 72l13 1c23 -33 60 -55 89 -55c24 0 46 11 70 112c34 140 54 227 103 447l-80 16z" />
    <glyph glyph-name="g" unicode="g" horiz-adv-x="448" 
d="M504 471l-44 -74l-72 -5l-1 -2c9 -14 21 -38 21 -77c0 -94 -75 -195 -214 -195c-16 0 -35 2 -49 8c-7 -7 -11 -18 -9 -26s14 -22 45 -35c39 -16 94 -39 146 -63c45 -20 70 -50 70 -81c-1 -96 -151 -152 -235 -152c-183 0 -222 101 -222 134c0 11 4 21 15 29
c27 20 74 45 129 68v1c-21 17 -33 45 -33 64s33 52 66 74c-47 28 -63 74 -63 118c0 102 94 205 231 198c13 -1 30 -4 54 -8c26 -6 47 -11 65 -14l93 50zM270 419h-1c-57 0 -114 -123 -114 -209c0 -41 17 -57 38 -57c64 0 112 136 112 204c0 42 -12 62 -35 62zM201 -187h1
c62 0 98 29 98 59c0 17 -11 29 -47 46c-38 20 -93 44 -143 64c-35 -19 -72 -43 -71 -72c0 -37 57 -97 162 -97z" />
    <glyph glyph-name="h" unicode="h" horiz-adv-x="552" 
d="M122 0l-112 -8c22 76 51 177 97 345c45 171 67 254 75 293l-72 14l11 22c39 16 157 32 194 32l2 -2c-13 -41 -49 -157 -140 -474h3c63 95 143 177 211 210c18 10 58 23 91 23c34 0 44 -8 29 -57c-39 -130 -84 -287 -89 -324l92 6l-13 -33c-57 -17 -182 -53 -212 -66l-9 9
c5 28 99 317 114 373c4 13 1 17 -7 17c-33 0 -124 -91 -183 -191c-36 -61 -54 -108 -82 -189z" />
    <glyph glyph-name="i" unicode="i" horiz-adv-x="317" 
d="M255 669h6c12 -11 35 -53 37 -74l-2 -6c-11 -21 -60 -62 -78 -69h-6c-15 12 -35 49 -42 77l1 3c29 39 68 62 84 69zM137 372l-67 11l10 24c33 17 149 47 187 48l3 -3c-59 -190 -114 -371 -122 -409l2 -1c39 8 103 77 127 104l4 -17c-8 -45 -61 -142 -180 -142
c-43 0 -72 30 -49 114c9 28 45 151 85 271z" />
    <glyph glyph-name="j" unicode="j" horiz-adv-x="280" 
d="M133 385l-71 11l11 25c36 13 145 34 188 34l2 -1c-37 -158 -79 -311 -96 -374c-25 -92 -45 -145 -80 -189c-67 -83 -141 -114 -167 -122l-20 25c42 27 95 62 137 219c42 158 49 182 96 372zM246 669h5c13 -11 36 -53 38 -74l-2 -6c-11 -20 -60 -62 -77 -69h-7
c-15 12 -35 49 -42 77l1 3c29 39 68 62 84 69z" />
    <glyph glyph-name="k" unicode="k" horiz-adv-x="496" 
d="M539 442l-16 -28c-74 -17 -87 -21 -114 -35c-26 -18 -58 -44 -103 -87l-1 -2c20 -46 112 -219 152 -302l-9 -7c-72 4 -117 13 -160 90c-35 61 -79 154 -84 172l2 5c46 45 81 74 146 143c19 20 19 26 29 64c25 4 143 -8 158 -13zM188 631l-66 13l8 23c40 15 158 32 192 32
l2 -3c-26 -81 -126 -430 -200 -691c-26 -3 -85 -8 -118 -11c67 217 148 501 182 637z" />
    <glyph glyph-name="l" unicode="l" horiz-adv-x="306" 
d="M190 630l-68 14l10 24c40 15 158 31 191 31l2 -2c-20 -65 -46 -147 -99 -332c-53 -186 -78 -286 -89 -321l1 -2c38 9 101 76 127 111l9 -13c-8 -58 -69 -153 -182 -153c-47 0 -74 31 -53 110c15 57 116 409 151 533z" />
    <glyph glyph-name="m" unicode="m" horiz-adv-x="840" 
d="M135 0l-112 -8c25 68 108 357 108 383l-72 8l7 24c34 14 160 46 190 48l3 -3c-7 -29 -38 -132 -70 -233h3c67 105 142 183 209 213c20 10 57 23 101 23c24 0 30 -6 15 -62s-29 -104 -51 -169l3 -1c62 94 133 174 207 209c21 10 60 23 102 23c29 0 35 -7 20 -58
c-38 -128 -83 -286 -89 -323l92 6l-13 -33c-56 -17 -182 -54 -212 -66l-8 11c5 27 100 317 115 373c4 13 1 17 -6 17c-36 0 -125 -89 -186 -192c-36 -60 -52 -106 -82 -190l-112 -8c19 58 98 303 110 373c3 13 1 17 -6 17c-36 0 -119 -79 -185 -193
c-35 -59 -52 -105 -81 -189z" />
    <glyph glyph-name="n" unicode="n" horiz-adv-x="565" 
d="M135 0l-112 -8c25 68 108 358 108 383l-72 9l8 23c32 14 162 46 191 49l2 -3c-4 -22 -38 -132 -70 -236h2c65 99 137 181 210 215c22 11 59 23 98 23c36 0 40 -6 25 -58c-38 -128 -83 -286 -89 -323l92 6l-13 -33c-56 -17 -183 -54 -212 -66l-9 11c6 27 100 316 115 372
c4 13 2 17 -5 17c-45 0 -127 -97 -183 -188c-38 -62 -57 -106 -86 -193z" />
    <glyph glyph-name="o" unicode="o" horiz-adv-x="502" 
d="M310 455h1c95 0 158 -70 158 -180c0 -148 -118 -288 -276 -288c-90 0 -159 65 -160 173c0 159 130 295 277 295zM302 418h-1c-75 0 -150 -176 -150 -300c0 -64 20 -94 51 -94c75 0 149 173 149 302c0 51 -14 92 -49 92z" />
    <glyph glyph-name="p" unicode="p" horiz-adv-x="554" 
d="M133 376l-73 8l8 23c26 15 154 51 190 53l2 -2l-58 -193h2c104 149 190 190 246 190c55 0 84 -49 84 -118c0 -192 -164 -349 -316 -349c-25 0 -53 8 -73 22c-10 -34 -19 -67 -41 -160l80 -26l-13 -27c-38 -2 -196 -11 -262 -11l10 27l65 32c9 21 35 111 64 217
c35 125 70 257 85 314zM206 26h1c106 0 207 194 206 314c0 30 -9 49 -25 49c-25 0 -66 -26 -126 -106c-51 -67 -83 -146 -101 -217c7 -26 27 -40 45 -40z" />
    <glyph glyph-name="q" unicode="q" horiz-adv-x="534" 
d="M161 -215l6 25c19 10 48 23 71 32c19 46 35 102 104 322h-2c-103 -139 -191 -177 -243 -177c-35 0 -80 26 -80 111c0 179 170 357 308 357c45 0 71 -32 79 -51l2 1l11 25c27 10 91 21 120 25l5 -10l-36 -52c-30 -84 -116 -409 -151 -549l81 -27l-9 -24
c-57 -5 -198 -8 -266 -8zM337 408h-1c-97 0 -204 -212 -204 -318c0 -25 9 -40 23 -40c35 0 99 56 150 125c43 58 58 90 87 191c-12 23 -31 42 -55 42z" />
    <glyph glyph-name="r" unicode="r" horiz-adv-x="404" 
d="M54 384l6 23c33 18 130 45 165 48l2 -1c2 -31 -3 -91 -23 -172h3c85 158 152 173 190 173c17 0 31 -5 40 -12c-1 -28 -35 -116 -53 -141l-15 -8c-8 15 -18 44 -30 84c-2 1 -4 1 -6 1c-14 0 -59 -25 -123 -170c-23 -51 -42 -116 -68 -209l-115 -8c55 174 95 340 99 381z
" />
    <glyph glyph-name="s" unicode="s" horiz-adv-x="377" 
d="M252 455h1c46 0 94 -17 113 -36c-9 -32 -37 -87 -50 -105l-15 -6c-5 19 -15 58 -20 103c-5 3 -14 6 -33 6c-47 0 -79 -30 -79 -64c0 -33 31 -57 80 -97c61 -51 79 -81 79 -129c0 -66 -64 -140 -185 -140c-69 0 -134 34 -153 54c11 28 32 76 58 114l16 5
c5 -17 16 -68 24 -125c12 -6 28 -10 51 -10c53 0 86 29 86 63c0 29 -18 51 -69 92c-66 55 -81 91 -81 128c0 92 85 147 177 147z" />
    <glyph glyph-name="t" unicode="t" horiz-adv-x="344" 
d="M178 532l123 60l6 -6l-46 -149h126l-18 -36l-121 -12c-19 -67 -64 -215 -93 -343l2 -2c55 11 112 55 162 117l5 -25c-41 -125 -159 -149 -210 -149c-60 0 -82 28 -68 85c13 54 67 241 89 317l-78 12l21 36h71z" />
    <glyph glyph-name="u" unicode="u" horiz-adv-x="584" 
d="M136 372l-76 13l8 21c42 16 156 43 199 49l8 -1c-28 -70 -104 -314 -117 -370c-5 -17 -3 -24 7 -24c47 0 130 90 190 195c32 55 50 101 77 183c37 7 84 14 126 18l4 -7l-41 -56c-22 -59 -62 -216 -91 -331l2 -2c64 17 98 66 111 84l7 -18c-10 -56 -73 -139 -198 -139
c-18 0 -32 2 -44 6c13 42 34 113 66 219h-4c-59 -89 -121 -165 -189 -200c-28 -15 -61 -25 -92 -25c-30 0 -64 9 -43 82c29 103 73 246 90 303z" />
    <glyph glyph-name="v" unicode="v" horiz-adv-x="466" 
d="M100 373l-65 9l5 24c33 18 152 49 171 49l3 -2c1 -117 2 -231 8 -350h2c46 46 103 122 127 177c19 44 30 87 25 159c21 13 51 20 76 21l2 -1c7 -11 14 -38 14 -64c1 -105 -195 -286 -278 -380c-13 -13 -49 -26 -64 -29l-4 2c-2 31 -8 185 -14 295c-3 55 -7 85 -8 90z" />
    <glyph glyph-name="w" unicode="w" horiz-adv-x="698" 
d="M105 371l-70 11l2 24c37 17 160 49 179 49l2 -3c-1 -109 -2 -213 -3 -323h2c24 38 71 105 139 219c-4 48 -5 62 -5 70c19 15 85 37 115 38l2 -4c-2 -16 -7 -38 -8 -66c1 -111 12 -261 15 -275h3c47 53 84 115 106 166c18 45 28 99 26 162c28 15 56 20 75 20l2 -1
c6 -9 12 -36 12 -63c0 -103 -180 -293 -255 -378c-18 -15 -49 -28 -61 -31l-4 2c-5 25 -16 206 -19 288h-2c-63 -95 -127 -192 -177 -259c-17 -15 -48 -28 -61 -31l-4 2c-1 28 0 186 -5 294c-2 56 -5 84 -6 89z" />
    <glyph glyph-name="x" unicode="x" horiz-adv-x="501" 
d="M-20 120l17 20c19 -28 47 -57 68 -73c29 12 107 106 143 155c-22 87 -38 135 -47 151c-17 -9 -66 -50 -100 -94l-14 20c25 69 99 153 187 156c23 -22 41 -94 58 -147h2c28 36 47 59 67 84c33 39 58 62 78 69h10c26 -19 45 -77 46 -138l-21 -18c-14 27 -34 63 -52 73
c-20 -7 -89 -81 -116 -116c18 -62 39 -142 50 -176c3 -8 5 -12 9 -12c6 0 51 26 99 94l12 -22c-27 -104 -117 -159 -206 -159c-11 44 -24 96 -49 189h-2c-40 -56 -74 -105 -97 -134c-33 -42 -59 -62 -69 -66h-14c-24 20 -53 89 -59 144z" />
    <glyph glyph-name="y" unicode="y" horiz-adv-x="463" 
d="M53 279l-23 23c45 113 112 153 153 154c28 -2 57 -29 75 -114c15 -69 21 -169 21 -249h2c38 59 101 228 104 282l-30 42l2 11c28 15 66 26 95 27c8 0 15 -3 14 -9c-10 -60 -27 -113 -63 -198c-57 -136 -133 -245 -193 -319c-93 -115 -170 -160 -186 -160
c-12 0 -47 26 -63 99l4 12c30 -1 65 -11 109 -30c7 3 40 28 66 65c34 48 44 86 44 153c0 91 -19 211 -41 272c-5 16 -11 25 -17 25c-9 0 -41 -36 -73 -86z" />
    <glyph glyph-name="z" unicode="z" horiz-adv-x="447" 
d="M411 161l19 -28c-72 -137 -115 -158 -131 -164c-22 1 -56 15 -98 33c-35 15 -60 24 -78 29c-29 8 -48 5 -64 -8c-11 -8 -21 -19 -35 -38h-11c-8 10 -11 33 0 59c9 23 34 47 57 63c88 80 230 224 248 245l-1 2c-36 -7 -55 -7 -98 -3c-27 2 -43 4 -61 6
c-22 -12 -79 -71 -94 -91l-21 24c28 59 90 152 110 168c17 -5 104 -27 187 -27c37 0 64 5 104 39l16 -29c-11 -25 -188 -205 -316 -328l1 -3c22 3 50 -2 86 -13c31 -9 54 -20 75 -26c26 9 61 40 105 90z" />
    <glyph glyph-name="braceleft" unicode="{" horiz-adv-x="319" 
d="M244 334l-107 -56v-2l78 -52c-17 -55 -48 -161 -62 -214c-21 -84 -7 -122 51 -161l-15 -26c-80 21 -148 89 -124 182c14 58 52 137 84 210l-80 59l7 11l105 58c1 66 -2 138 16 213c20 80 137 152 207 165l6 -29c-76 -35 -109 -78 -127 -151c-14 -56 -34 -160 -39 -207z
" />
    <glyph glyph-name="bar" unicode="|" horiz-adv-x="324" 
d="M111 724h76v-965h-76v965z" />
    <glyph glyph-name="braceright" unicode="}" horiz-adv-x="323" 
d="M118 225l104 54v2l-76 53c19 49 47 149 60 205c18 72 9 119 -49 155l14 27c76 -23 146 -92 126 -174c-15 -64 -54 -143 -85 -204l80 -59l-5 -13l-105 -57c-2 -65 -1 -150 -19 -224c-21 -88 -141 -152 -207 -167l-8 27c79 37 111 85 130 159c14 57 35 167 40 216z" />
    <glyph glyph-name="asciitilde" unicode="~" horiz-adv-x="593" 
d="M536 324l35 -22c-42 -97 -97 -141 -157 -141c-37 0 -76 22 -121 50c-41 25 -72 47 -102 47c-34 0 -71 -35 -109 -93l-37 22c48 98 102 138 161 138c43 0 86 -27 132 -55c38 -22 66 -37 91 -37c29 0 69 23 107 91z" />
    <glyph glyph-name="exclamdown" unicode="&#xa1;" horiz-adv-x="258" 
d="M146 286h-8c-15 11 -43 59 -47 80l1 7c10 23 64 68 85 75h7c18 -14 44 -53 54 -84l-2 -3c-31 -43 -74 -68 -90 -75zM107 208l38 15c-27 -183 -43 -275 -52 -357l9 -48c-20 -16 -100 -40 -165 -39l-5 9c13 36 81 200 175 420z" />
    <glyph glyph-name="cent" unicode="&#xa2;" horiz-adv-x="529" 
d="M372 542l22 81l36 5l-23 -84c58 -1 97 -20 108 -31c-3 -19 -37 -94 -51 -110l-15 -5c-7 19 -17 66 -23 106c-6 3 -11 5 -29 5l-95 -345c81 4 134 57 161 87l9 -33c-37 -51 -103 -100 -186 -111l-24 -85l-37 -8l26 92c-111 3 -162 71 -163 157c-1 150 135 267 284 279z
M268 165l92 338l-1 2c-97 -24 -155 -155 -154 -243c1 -57 23 -88 63 -97z" />
    <glyph glyph-name="sterling" unicode="&#xa3;" horiz-adv-x="529" 
d="M472 172l22 -15c-8 -25 -33 -90 -61 -162c-28 0 -125 5 -222 5h-220l3 16l42 45c15 4 27 12 38 20c26 24 57 81 77 227l-98 10l22 34h82l7 34c11 66 39 167 115 221c41 31 86 48 142 48s94 -23 104 -36c-7 -26 -44 -92 -58 -108l-19 -7c-7 26 -16 75 -21 112
c-6 2 -10 3 -18 3c-51 0 -99 -50 -120 -185c-6 -34 -10 -57 -13 -82h168l-18 -34l-157 -10c-19 -128 -75 -179 -142 -222v-2c68 -2 230 3 272 5c14 15 47 54 73 83z" />
    <glyph glyph-name="fraction" unicode="&#x2044;" horiz-adv-x="97" 
d="M328 663l29 -28c-183 -224 -389 -477 -547 -673l-28 29c183 224 388 475 546 672z" />
    <glyph glyph-name="yen" unicode="&#xa5;" horiz-adv-x="529" 
d="M105 346h118c-17 81 -36 167 -54 248l-61 25l10 24c34 0 76 -1 109 -1c41 0 81 1 122 1l-10 -24l-56 -25l36 -225l2 -1c43 59 82 111 158 225l-66 26l12 24c27 0 59 -1 90 -1c32 0 67 1 101 1l-10 -24l-65 -30c-59 -67 -124 -151 -192 -243h132l-20 -36h-129l-21 -80h139
l-19 -36h-129c-21 -84 -33 -131 -34 -143l80 -27l-10 -25c-45 0 -90 1 -135 1c-47 0 -95 -1 -143 -1l9 25l78 26c7 15 22 62 45 144h-137l20 36h127l21 80h-137z" />
    <glyph glyph-name="florin" unicode="&#x192;" horiz-adv-x="529" 
d="M136 368h86c32 126 65 183 118 232c41 38 96 62 149 62c34 0 63 -10 79 -25c-13 -36 -42 -82 -55 -99l-13 -6c-9 22 -18 64 -24 87c-1 4 -5 6 -10 6c-33 -2 -68 -38 -98 -152c-14 -54 -20 -82 -25 -105h128l-15 -34l-122 -12c-66 -311 -100 -375 -195 -441
c-40 -28 -81 -43 -113 -43c-28 0 -63 10 -81 34l46 79l10 2c22 -31 58 -62 79 -62c19 -1 32 10 45 48c12 37 26 79 88 383l-93 12z" />
    <glyph glyph-name="section" unicode="&#xa7;" horiz-adv-x="493" 
d="M82 350v1c0 106 71 186 190 242c26 17 58 27 87 27c26 0 45 -7 56 -15c9 5 43 15 67 21l9 -3c-6 -20 -38 -97 -59 -127h-15c-6 17 -13 45 -16 73c-8 7 -24 14 -49 14c-40 0 -70 -29 -70 -61c0 -13 2 -26 11 -44c10 -20 29 -54 87 -141c37 -61 55 -110 55 -157
c0 -101 -68 -177 -152 -234c-54 -37 -110 -53 -154 -53c-39 0 -92 12 -124 38c4 15 41 85 56 103l17 4c3 -15 8 -54 13 -101c10 -5 21 -8 42 -8c52 0 101 31 101 75c0 21 -9 46 -36 86c-25 38 -42 63 -74 120c-25 43 -42 85 -42 140zM149 393v-1c0 -28 7 -58 38 -111
c26 -43 55 -86 83 -134c31 -51 39 -82 39 -108c0 -13 -2 -26 -4 -35h2c39 37 56 89 56 129c0 31 -10 67 -35 109c-46 80 -68 111 -93 161c-14 27 -20 55 -20 81c0 16 3 33 10 49h-2c-57 -42 -74 -99 -74 -140z" />
    <glyph glyph-name="currency" unicode="&#xa4;" horiz-adv-x="529" 
d="M308 476h-1c-85 0 -138 -78 -145 -161s38 -137 101 -137c82 0 134 75 141 163c7 78 -31 135 -96 135zM532 507l-74 -59c16 -26 25 -63 20 -109c-5 -56 -30 -107 -65 -142l52 -54l-51 -47l-46 65c-30 -22 -79 -34 -117 -34c-36 0 -83 13 -110 38l-67 -68l-34 47l72 56
c-21 31 -29 71 -25 116c4 49 30 102 63 134l-52 55l51 48l46 -66c40 28 85 40 128 40c38 0 77 -12 104 -41l68 67z" />
    <glyph glyph-name="quotesingle" unicode="'" horiz-adv-x="198" 
d="M165 426l-42 -18c14 70 30 151 35 212l-10 34c26 16 80 33 120 37l12 -4c-10 -32 -78 -190 -115 -261z" />
    <glyph glyph-name="quotedblleft" unicode="&#x201c;" horiz-adv-x="404" 
d="M463 695l16 -28c-54 -29 -102 -76 -102 -132c0 -16 3 -21 7 -30l39 -25l-1 -15l-78 -52h-15c-13 8 -39 40 -39 85c0 95 74 160 173 197zM287 695l16 -28c-54 -27 -103 -76 -103 -132c0 -14 3 -21 7 -30l40 -25l-2 -15l-78 -52h-15c-13 8 -39 40 -39 85
c0 95 74 161 174 197z" />
    <glyph glyph-name="guillemotleft" unicode="&#xab;" horiz-adv-x="538" 
d="M235 52l-29 -16c-46 88 -113 167 -148 195c50 29 149 108 223 193l22 -18c-36 -64 -79 -129 -125 -178c24 -57 45 -122 57 -176zM436 52l-28 -16c-44 88 -114 167 -147 195c47 29 147 108 221 193l23 -18c-30 -58 -84 -132 -124 -178c24 -57 44 -120 55 -176z" />
    <glyph glyph-name="guilsinglleft" unicode="&#x2039;" horiz-adv-x="337" 
d="M234 52l-28 -16c-46 88 -113 167 -148 195c49 29 149 108 223 193l22 -18c-36 -64 -78 -129 -124 -178c23 -57 44 -122 55 -176z" />
    <glyph glyph-name="guilsinglright" unicode="&#x203a;" horiz-adv-x="337" 
d="M105 408l27 16c44 -88 114 -167 148 -195c-48 -29 -147 -108 -221 -193l-23 18c30 58 84 132 124 178c-24 57 -44 120 -55 176z" />
    <glyph glyph-name="endash" unicode="&#x2013;" horiz-adv-x="607" 
d="M543 199h-491l24 65h491z" />
    <glyph glyph-name="dagger" unicode="&#x2020;" horiz-adv-x="468" 
d="M172 -63l-37 -9l96 435l-159 -18l32 90l19 -1l8 -16l109 -14l40 191l94 8l2 -3l-62 -196l115 14l25 16l22 1l-32 -90l-142 18z" />
    <glyph glyph-name="daggerdbl" unicode="&#x2021;" horiz-adv-x="468" 
d="M374 602l-53 -171l115 15l24 17l25 1l-32 -89l-145 14l-48 -157l165 14l-33 -88l-21 1l-7 15l-117 17l-75 -251l-39 -8l59 259l-122 -16l-25 -16l-24 -1l33 88l148 -14l35 157l-154 -14l22 89l21 -1l8 -15l113 -17l37 165l87 8z" />
    <glyph glyph-name="periodcentered" unicode="&#xb7;" horiz-adv-x="227" 
d="M148 328h8c15 -12 42 -60 47 -82l-1 -7c-11 -23 -64 -68 -85 -77h-7c-17 15 -44 55 -54 86l2 3c31 43 73 70 90 77z" />
    <glyph glyph-name="paragraph" unicode="&#xb6;" horiz-adv-x="516" 
d="M535 654l-64 -117l-130 -513c-59 -231 -155 -269 -229 -269c-28 0 -49 9 -62 23c-12 13 -28 41 -33 63l9 11c14 -13 47 -25 85 -25c73 0 141 54 183 207l10 38c-27 -8 -39 -11 -47 -11c-88 0 -188 76 -188 205c-1 177 153 274 330 274h19l29 104l86 12z" />
    <glyph glyph-name="bullet" unicode="&#x2022;" horiz-adv-x="412" 
d="M244 383h13c28 -22 82 -112 92 -155l-1 -13c-21 -42 -121 -128 -160 -144h-14c-33 27 -83 104 -103 162l3 7c61 80 138 130 170 143z" />
    <glyph glyph-name="quotesinglbase" unicode="&#x201a;" horiz-adv-x="237" 
d="M-31 -130l-16 28c55 31 105 82 105 138c0 16 -3 24 -8 33l-41 26l2 15l83 54h16c13 -7 40 -37 40 -88c0 -98 -76 -167 -181 -206z" />
    <glyph glyph-name="quotedblbase" unicode="&#x201e;" horiz-adv-x="429" 
d="M-32 -130l-16 28c55 31 105 82 105 138c0 16 -3 24 -8 32l-41 27l2 15l83 54h16c13 -7 40 -37 40 -88c0 -98 -76 -167 -181 -206zM158 -130l-17 28c56 31 106 82 106 138c0 16 -3 24 -8 32l-41 27l2 15l83 54h16c13 -8 40 -37 40 -88c0 -98 -76 -167 -181 -206z" />
    <glyph glyph-name="quotedblright" unicode="&#x201d;" horiz-adv-x="404" 
d="M107 410l-16 28c53 29 102 75 102 132c0 15 -3 21 -7 29l-40 25l2 15l77 52h16c13 -7 38 -35 38 -83c0 -97 -73 -161 -172 -198zM283 410l-16 28c54 27 103 75 103 131c0 14 -3 22 -7 29l-40 26l1 15l78 52h16c13 -8 39 -35 39 -83c0 -97 -74 -162 -174 -198z" />
    <glyph glyph-name="guillemotright" unicode="&#xbb;" horiz-adv-x="538" 
d="M306 408l29 16c46 -88 113 -167 148 -195c-50 -29 -149 -108 -223 -193l-22 18c36 64 78 129 124 178c-24 57 -44 122 -56 176zM105 408l28 16c43 -88 114 -167 148 -195c-48 -29 -148 -108 -222 -193l-23 18c30 58 84 132 124 178c-24 57 -44 120 -55 176z" />
    <glyph glyph-name="ellipsis" unicode="&#x2026;" horiz-adv-x="904" 
d="M121 146h8c14 -12 41 -59 46 -81l-1 -7c-10 -22 -62 -66 -83 -75h-7c-17 14 -43 54 -53 85l2 3c30 42 72 68 88 75zM422 146h8c14 -12 41 -59 46 -81l-1 -7c-11 -22 -63 -66 -83 -75h-7c-18 14 -44 54 -53 85l2 3c30 42 72 68 88 75zM720 146h8c14 -12 41 -59 46 -81
l-1 -7c-11 -22 -62 -66 -83 -75h-7c-17 14 -43 54 -53 85l2 3c30 42 72 68 88 75z" />
    <glyph glyph-name="perthousand" unicode="&#x2030;" horiz-adv-x="1140" 
d="M971 344h1c71 0 117 -48 117 -133c0 -104 -82 -223 -205 -223c-67 0 -118 44 -119 128c-1 98 80 228 206 228zM626 344h1c70 0 116 -48 116 -133c0 -104 -82 -223 -205 -223c-67 0 -118 44 -119 128c-1 98 80 228 207 228zM689 664l30 -27c-111 -129 -385 -449 -575 -677
l-27 30c192 224 405 476 572 674zM313 655h1c71 0 117 -47 117 -133c0 -105 -82 -224 -205 -224c-67 0 -118 44 -119 128c-1 99 80 229 206 229zM969 311h-1c-72 0 -116 -165 -116 -227c0 -36 13 -63 37 -63c66 0 114 161 114 227c0 40 -14 63 -34 63zM624 311h-1
c-72 0 -117 -164 -117 -225c0 -36 13 -67 37 -67c67 0 115 165 115 231c0 40 -13 61 -34 61zM311 622h-1c-73 0 -116 -164 -116 -226c0 -36 13 -67 37 -67c66 0 114 165 114 232c0 39 -13 61 -34 61z" />
    <glyph glyph-name="questiondown" unicode="&#xbf;" horiz-adv-x="429" 
d="M250 286h-7c-15 11 -43 58 -47 80v7c12 22 64 67 85 75h7c18 -14 45 -54 54 -84l-2 -4c-31 -42 -73 -68 -90 -74zM259 -50l16 5c14 -27 26 -69 30 -108c-54 -34 -122 -62 -177 -62c-75 0 -150 42 -150 132c0 66 45 103 100 141c67 45 122 81 126 107c3 16 2 29 -3 45
l28 14c26 -9 72 -58 63 -118c-20 -32 -51 -59 -121 -111c-52 -38 -91 -65 -91 -105c0 -34 27 -64 76 -64c16 0 32 4 44 9c22 52 42 91 59 115z" />
    <glyph glyph-name="grave" unicode="`" 
d="M316 512l-30 -16l-123 172l3 10c22 11 68 18 97 15z" />
    <glyph glyph-name="acute" unicode="&#xb4;" 
d="M243 495l-20 24l111 153c23 4 75 -5 96 -16v-13z" />
    <glyph glyph-name="circumflex" unicode="&#x2c6;" 
d="M302 683l34 11l62 -178l-29 -19l-67 96l-120 -96l-20 24z" />
    <glyph glyph-name="tilde" unicode="&#x2dc;" 
d="M438 632l21 -21c-49 -70 -87 -87 -110 -87c-16 0 -34 9 -63 24c-26 12 -37 18 -51 18c-19 0 -45 -18 -70 -43l-23 23c49 66 86 85 112 85c15 0 30 -7 56 -20c20 -11 40 -22 55 -22c19 0 43 11 73 43z" />
    <glyph glyph-name="macron" unicode="&#xaf;" 
d="M407 547h-239l30 67h238z" />
    <glyph glyph-name="breve" unicode="&#x2d8;" 
d="M200 658l35 5c-2 -40 8 -80 64 -80c67 0 87 44 100 75l36 5c-15 -81 -53 -149 -146 -149c-92 0 -105 68 -89 144z" />
    <glyph glyph-name="dotaccent" unicode="&#x2d9;" 
d="M311 660h5c13 -11 34 -51 37 -71l-2 -6c-11 -19 -57 -59 -74 -66h-7c-14 13 -34 48 -41 74l1 3c29 37 66 59 81 66z" />
    <glyph glyph-name="dieresis" unicode="&#xa8;" 
d="M213 657h6c11 -10 34 -49 38 -66l-2 -7c-8 -19 -51 -56 -68 -63h-6c-14 13 -37 45 -43 71l1 3c27 35 60 56 74 62zM406 657h6c11 -10 34 -49 38 -66l-2 -7c-9 -19 -52 -56 -68 -63h-6c-15 13 -36 45 -43 71l1 3c26 35 60 56 74 62z" />
    <glyph glyph-name="ring" unicode="&#x2da;" 
d="M286 536h1c25 0 50 16 56 52c7 37 -11 53 -37 53c-25 0 -48 -16 -55 -53c-7 -36 10 -52 35 -52zM312 676h1c45 0 85 -32 74 -89c-11 -56 -60 -87 -106 -87s-87 31 -76 87c11 57 61 89 107 89z" />
    <glyph glyph-name="cedilla" unicode="&#xb8;" 
d="M132 -1h40l-50 -55c36 -21 47 -47 47 -67c0 -66 -85 -98 -140 -105l-9 24c36 11 81 33 81 65c0 16 -12 31 -50 47v3z" />
    <glyph glyph-name="hungarumlaut" unicode="&#x2dd;" 
d="M180 495l-24 22l91 158c29 3 69 -4 94 -17v-11zM347 495l-24 22l91 158c29 3 71 -4 94 -17v-11z" />
    <glyph glyph-name="ogonek" unicode="&#x2db;" 
d="M249 -121l11 -29c-29 -29 -67 -53 -112 -53c-47 0 -79 30 -79 72c0 49 53 101 114 136h43c-43 -34 -80 -80 -80 -110c0 -24 15 -33 42 -33c21 0 43 8 61 17z" />
    <glyph glyph-name="caron" unicode="&#x2c7;" 
d="M293 509l-35 -10l-61 177l26 19l68 -95l122 95l20 -23z" />
    <glyph glyph-name="emdash" unicode="&#x2014;" horiz-adv-x="960" 
d="M900 199h-850l24 65h849z" />
    <glyph glyph-name="AE" unicode="&#xc6;" horiz-adv-x="947" 
d="M480 298h-201c-30 -43 -74 -100 -168 -240l83 -32l-11 -27c-40 0 -81 1 -123 1c-36 0 -75 -1 -112 -1l9 27l76 32c142 180 283 364 421 548l-116 25l15 28c54 0 109 -1 167 -1h360c14 3 65 10 89 10l4 -5c-4 -18 -32 -115 -48 -152l-12 -5c-16 36 -28 78 -38 110l-209 -8
l-56 -262c86 1 185 3 250 11l5 -12c-7 -11 -64 -57 -72 -57c-9 0 -176 10 -195 10c-13 -68 -35 -167 -50 -245l214 -10c46 42 96 88 135 119l12 -5c-5 -18 -39 -117 -63 -160c-95 3 -153 3 -211 3h-164c-50 0 -100 -1 -151 -1l10 27l90 32c4 9 30 113 60 240zM314 346h178
l66 267h-49c-65 -86 -124 -168 -195 -267z" />
    <glyph glyph-name="ordfeminine" unicode="&#xaa;" horiz-adv-x="367" 
d="M382 563l-27 -39c-16 -47 -34 -117 -46 -167c27 8 53 35 67 49l5 -4c-1 -44 -54 -100 -142 -100c-7 0 -12 1 -16 4c6 23 21 76 28 98h-3c-37 -50 -91 -102 -145 -102c-33 0 -50 24 -50 59c0 50 34 121 102 168c28 20 58 31 85 31c28 0 44 -12 52 -26l7 20l80 13zM145 351
h1c11 0 37 13 82 71c29 38 39 63 48 87c-3 9 -12 21 -26 21s-30 -7 -47 -25c-38 -37 -68 -101 -68 -139c0 -9 3 -15 10 -15z" />
    <glyph glyph-name="Lslash" unicode="&#x141;" horiz-adv-x="577" 
d="M55 277l105 53l72 271l-78 32l11 26c44 0 87 -1 130 -1c49 0 97 1 144 1l-11 -26l-77 -32l-53 -199l144 73l-17 -55l-141 -72c-45 -173 -74 -290 -75 -297l177 -10c47 47 106 108 146 140l15 -10c-10 -28 -48 -127 -71 -175c-33 0 -102 4 -332 4c-44 0 -98 -1 -153 -1
l7 25l84 35c3 5 28 89 62 217l-104 -54z" />
    <glyph glyph-name="Oslash" unicode="&#xd8;" horiz-adv-x="750" 
d="M639 616l70 76l26 -26l-68 -76c42 -48 71 -117 71 -213c0 -172 -125 -394 -395 -394c-60 0 -128 18 -178 58l-82 -90l-24 30l79 87c-42 46 -70 114 -70 203c0 192 158 404 400 404c63 0 123 -19 171 -59zM211 139l373 422c-22 48 -55 76 -113 76
c-155 0 -274 -218 -274 -399c0 -37 5 -72 13 -97zM595 517l-372 -420c22 -48 64 -76 117 -76c159 0 269 225 269 402c0 36 -4 68 -11 93z" />
    <glyph glyph-name="OE" unicode="&#x152;" horiz-adv-x="1022" 
d="M504 50l146 556c-23 11 -66 19 -114 19c-217 0 -337 -163 -337 -350c0 -127 67 -242 227 -242c27 0 60 8 78 17zM742 658h207c13 3 69 10 93 10l4 -5c-4 -17 -30 -120 -46 -161l-17 -8c-16 39 -29 90 -38 122l-179 -8l-62 -242c80 1 180 4 245 12l4 -15
c-7 -10 -62 -56 -70 -56c-10 0 -177 10 -193 10c-17 -64 -47 -186 -66 -265l208 -10c46 42 103 99 139 129l14 -9c-8 -24 -43 -123 -67 -165c-99 3 -157 3 -215 3h-122c-43 0 -153 -6 -181 -6c-219 0 -333 119 -333 284c0 214 162 386 463 386c79 0 185 -6 212 -6z" />
    <glyph glyph-name="ordmasculine" unicode="&#xba;" horiz-adv-x="339" 
d="M241 563h1c71 0 110 -42 110 -103c0 -85 -74 -158 -177 -158c-71 0 -110 43 -110 98c0 84 79 163 176 163zM240 535h-1c-46 0 -86 -102 -86 -164c0 -30 13 -40 26 -40c51 0 86 108 86 161c0 29 -10 43 -25 43z" />
    <glyph glyph-name="ae" unicode="&#xe6;" horiz-adv-x="730" 
d="M125 81v-1c0 -22 9 -33 25 -33c22 0 105 44 176 173c27 63 51 116 116 170l-1 3c-51 2 -113 -11 -183 -69c-71 -59 -133 -176 -133 -243zM691 148l4 -35c-52 -77 -134 -126 -228 -126c-81 0 -147 43 -149 136c0 6 0 11 1 17l-3 1c-59 -81 -144 -154 -222 -154
c-51 0 -81 38 -81 97c0 78 55 210 197 291c86 48 169 59 279 51c36 17 71 29 115 29c81 0 118 -47 119 -99c0 -19 -5 -42 -15 -60c-6 -11 -16 -21 -34 -32c-20 -11 -120 -51 -236 -69c-6 -22 -8 -41 -7 -62c2 -41 21 -88 83 -88c67 0 143 63 174 103h3zM591 418h-1
c-47 0 -113 -76 -145 -185c22 3 78 17 105 27c28 10 43 24 54 40c12 20 19 48 19 73c-1 35 -15 45 -32 45z" />
    <glyph glyph-name="dotlessi" unicode="&#x131;" horiz-adv-x="317" 
d="M137 372l-67 11l10 24c33 17 149 47 187 48l3 -3c-59 -190 -114 -371 -122 -409l2 -1c39 8 103 77 127 104l4 -17c-8 -45 -61 -142 -180 -142c-43 0 -72 30 -49 114c9 28 45 151 85 271z" />
    <glyph glyph-name="lslash" unicode="&#x142;" horiz-adv-x="328" 
d="M54 330l88 54c26 90 54 188 70 247l-67 14l8 22c41 16 162 32 191 32l2 -3c-21 -64 -42 -136 -70 -232l116 71l-14 -51l-117 -71c-69 -243 -93 -335 -103 -370l2 -1c40 11 101 77 128 112l7 -15c-8 -58 -69 -152 -180 -152c-48 0 -75 30 -54 110c13 46 36 125 67 236
l-88 -54z" />
    <glyph glyph-name="oslash" unicode="&#xf8;" horiz-adv-x="501" 
d="M399 432l44 55l22 -25l-42 -51c29 -30 47 -75 47 -132c0 -151 -116 -292 -277 -292c-32 0 -66 9 -91 27l-47 -59l-22 29l43 53c-27 28 -44 72 -44 122c0 160 126 296 278 296c32 0 64 -7 89 -23zM145 113l204 265c-5 22 -19 41 -47 41c-81 0 -164 -168 -158 -305z
M356 331l-203 -263c7 -28 23 -45 47 -45c86 0 160 171 158 306z" />
    <glyph glyph-name="oe" unicode="&#x153;" horiz-adv-x="741" 
d="M312 419h-1c-92 0 -162 -233 -162 -315c0 -59 21 -80 46 -80c94 0 156 226 156 319c0 55 -15 76 -39 76zM315 455h1c63 0 105 -29 123 -79h2c46 48 108 79 168 79c89 0 125 -48 126 -105c1 -34 -13 -64 -51 -88c-39 -25 -126 -52 -238 -70c-5 -20 -7 -37 -6 -54
c0 -49 21 -91 79 -91c69 0 148 61 176 97l3 -2l6 -33c-55 -76 -135 -122 -223 -122c-49 0 -100 21 -127 77l-2 -1c-50 -53 -112 -76 -168 -76c-97 0 -154 67 -155 158c0 160 133 310 286 310zM600 419h-1c-38 0 -109 -75 -144 -189c28 5 71 17 96 27c55 20 80 72 79 117
c-1 34 -15 45 -30 45z" />
    <glyph glyph-name="germandbls" unicode="&#xdf;" horiz-adv-x="565" 
d="M64 436h70c27 81 62 150 134 204c52 38 109 56 165 56c89 0 152 -43 152 -133c0 -9 -2 -16 -4 -21c-93 -58 -142 -128 -142 -181c0 -26 16 -61 38 -100c27 -50 40 -80 40 -115c-1 -67 -66 -159 -197 -159c-40 0 -92 15 -114 41c10 25 30 60 56 89l17 4
c8 -25 12 -43 21 -91c8 -3 15 -5 26 -5c47 0 90 35 90 72c0 20 -7 43 -39 96c-31 52 -40 83 -41 118c0 77 76 141 150 205c3 10 7 21 7 39c0 71 -31 103 -75 103c-55 0 -130 -48 -185 -297c-19 -85 -32 -156 -58 -261c-36 -149 -74 -218 -141 -273c-51 -42 -98 -58 -134 -58
c-38 0 -73 13 -86 37l48 77l9 1c22 -32 62 -58 85 -58c24 0 47 16 70 115c35 141 50 228 97 446l-77 16z" />
    <glyph glyph-name="onesuperior" unicode="&#xb9;" horiz-adv-x="349" 
d="M266 701l-79 2l12 20c17 6 86 27 163 49h8c-16 -62 -73 -286 -78 -306l67 -21l-10 -20c-39 0 -75 1 -112 1c-40 0 -79 -1 -119 -1l8 20l67 21c14 39 53 169 73 235z" />
    <glyph glyph-name="logicalnot" unicode="&#xac;" horiz-adv-x="628" 
d="M454 54v220h-368l17 62h422v-268z" />
    <glyph glyph-name="mu" unicode="&#xb5;" horiz-adv-x="575" 
d="M421 439l132 16v-4l-42 -57c-22 -59 -63 -217 -91 -330l2 -2c62 15 97 66 111 82l7 -9c-6 -57 -75 -148 -200 -148c-17 0 -29 2 -41 6c9 37 31 108 60 205h-3c-33 -50 -139 -211 -212 -211c-12 0 -21 2 -29 8h-2c-24 -65 -48 -160 -55 -231l-7 -3c-60 10 -85 53 -58 163
c15 65 32 121 54 195c26 92 61 201 92 312c26 8 80 19 126 24l3 -3c-15 -37 -107 -298 -121 -351c-8 -34 0 -43 16 -43c47 0 123 81 184 193c30 55 47 105 74 188z" />
    <glyph glyph-name="trademark" unicode="&#x2122;" horiz-adv-x="498" 
d="M148 639h113c7 1 22 4 26 5c3 0 4 -2 4 -4c0 -5 -7 -37 -10 -47c-2 -4 -2 -5 -5 -5c-1 1 -6 7 -17 31l-33 -2v-121l31 -7l-3 -16h-107l6 16l27 7v121l-34 2c-14 -22 -17 -28 -20 -32c-2 0 -4 0 -8 2c-1 7 1 40 1 52c0 1 2 2 3 2c2 0 13 -2 26 -4zM307 623l3 16h77l3 -12
c6 -13 25 -52 42 -82c6 12 19 39 40 84l1 10h79l-3 -16l-22 -6c0 -21 3 -112 4 -122l26 -6l-6 -16h-90l5 16l18 4v119c-15 -36 -28 -66 -59 -138l-14 1c-12 28 -25 54 -58 129c-1 -31 -3 -77 -4 -108l29 -7l-4 -16h-77l5 15l21 8c5 35 7 80 11 116c-2 8 -4 8 -27 11z" />
    <glyph glyph-name="Eth" unicode="&#xd0;" horiz-adv-x="761" 
d="M84 369h92l65 242l-81 18l11 25c25 2 122 12 228 12c225 0 350 -97 350 -285c0 -183 -130 -319 -317 -365c-70 -18 -154 -20 -285 -19c-73 1 -117 3 -153 3l9 28l83 28c8 10 36 107 78 266h-99zM297 369h163l-24 -47h-151c-42 -161 -70 -272 -71 -286c83 0 168 9 246 60
c107 70 157 183 157 300c0 55 -12 105 -46 147c-47 61 -125 81 -209 81z" />
    <glyph glyph-name="onehalf" unicode="&#xbd;" horiz-adv-x="770" 
d="M220 584l-79 2l12 20c17 6 86 27 163 49h8c-16 -62 -73 -286 -78 -306l67 -21l-10 -20c-39 0 -75 1 -112 1c-40 0 -79 -1 -119 -1l8 20l67 21c14 39 53 169 73 235zM646 663l29 -28c-183 -224 -389 -477 -547 -673l-28 29c183 224 388 475 546 672zM388 0l31 40
c7 3 11 5 18 9c64 44 168 114 168 194c0 36 -21 57 -49 57c-9 0 -16 -2 -23 -5c-9 -23 -24 -65 -38 -85l-17 -8c-10 16 -21 62 -24 81c32 27 86 52 140 52c58 0 110 -32 110 -97c0 -53 -45 -89 -113 -128c-42 -24 -70 -41 -101 -58c17 0 110 4 135 5c10 9 28 26 52 45
l18 -12c-13 -30 -35 -78 -53 -104c-23 0 -98 3 -154 3h-103z" />
    <glyph glyph-name="plusminus" unicode="&#xb1;" horiz-adv-x="621" 
d="M530 62l-14 -62h-439l14 62h439zM336 126l-71 -13v194h-189l12 62h177v166l71 12v-178h189l-12 -62h-177v-181z" />
    <glyph glyph-name="Thorn" unicode="&#xde;" horiz-adv-x="591" 
d="M-6 25l77 33c6 11 18 54 86 303l65 241l-69 31l10 26c41 0 82 -1 122 -1c47 0 95 1 141 1l-10 -27l-79 -31l-21 -76c20 2 38 4 54 4c122 3 221 -38 221 -166c0 -114 -107 -205 -249 -205c-25 0 -45 4 -59 8l-4 29c112 2 185 64 185 175c0 77 -48 118 -122 118
c-12 0 -23 0 -35 -2l-33 -128c-65 -251 -72 -289 -74 -299l86 -33l-12 -27c-47 0 -93 1 -139 1c-49 0 -99 -1 -149 -1z" />
    <glyph glyph-name="onequarter" unicode="&#xbc;" horiz-adv-x="770" 
d="M229 584l-79 2l12 20c17 6 86 27 163 49h8c-16 -62 -73 -286 -78 -306l67 -21l-10 -20c-39 0 -75 1 -112 1c-40 0 -79 -1 -119 -1l8 20l67 21c14 39 53 169 73 235zM662 663l29 -28c-183 -224 -389 -477 -547 -673l-28 29c183 224 388 475 546 672zM604 87l-14 -58
l50 -21l-8 -20c-32 0 -65 1 -98 1c-35 0 -72 -1 -107 -1l9 20l61 21l19 56l-141 -1l-5 23c40 53 178 195 195 207c14 9 79 20 99 21l-53 -214l34 -1c10 10 26 20 38 26h9c-2 -19 -21 -72 -29 -86l-9 -2c-7 10 -14 21 -17 30zM524 122l49 157h-4c-60 -63 -92 -101 -138 -155z
" />
    <glyph glyph-name="divide" unicode="&#xf7;" horiz-adv-x="628" 
d="M91 265h459l-12 -62h-460zM313 144l8 1c14 -5 44 -39 53 -60l-2 -8c-10 -21 -41 -52 -56 -61l-9 -3c-22 12 -45 40 -54 61l1 9c17 23 42 50 59 61zM316 453l7 1c14 -5 44 -38 53 -60l-1 -9c-10 -20 -42 -52 -57 -60l-9 -3c-21 11 -45 40 -54 60l2 10c16 24 41 49 59 61z
" />
    <glyph glyph-name="brokenbar" unicode="&#xa6;" horiz-adv-x="324" 
d="M109 666h76v-366h-76v366zM109 -183v367h76v-367h-76z" />
    <glyph glyph-name="degree" unicode="&#xb0;" horiz-adv-x="287" 
d="M251 648h1c55 0 93 -37 93 -94c1 -73 -54 -123 -125 -123c-54 0 -92 38 -92 90c-1 68 51 127 123 127zM245 610h-1c-39 0 -66 -43 -66 -82c0 -35 18 -59 49 -59c46 0 68 44 68 81c0 35 -15 60 -50 60z" />
    <glyph glyph-name="thorn" unicode="&#xfe;" horiz-adv-x="541" 
d="M124 639l10 24c40 16 161 32 191 32l1 -2c-77 -232 -100 -312 -130 -417h2c97 140 179 179 237 179c55 0 88 -50 88 -116c0 -173 -144 -352 -299 -352c-30 0 -66 8 -91 36c-12 -42 -25 -94 -46 -178l94 -23l-8 -28c-36 -1 -212 -11 -278 -11l11 28l63 30
c20 47 97 346 139 486c30 102 61 221 83 300zM374 391h-1c-23 0 -69 -22 -139 -123c-47 -69 -68 -126 -89 -199c21 -31 41 -40 66 -40c110 0 192 207 191 307c0 40 -11 55 -28 55z" />
    <glyph glyph-name="threequarters" unicode="&#xbe;" horiz-adv-x="770" 
d="M183 548l-11 -5c-7 11 -21 51 -25 68c41 28 91 44 131 44c71 0 102 -37 102 -76c0 -46 -45 -69 -105 -84v-3c65 -9 95 -36 95 -79c0 -71 -86 -112 -177 -112c-44 0 -93 17 -115 35c5 18 37 68 45 76l13 4c5 -15 13 -58 17 -80c9 -3 16 -4 26 -4c46 0 94 31 94 84
c0 37 -22 54 -47 54c-17 -2 -40 -7 -49 -8l-4 5c2 12 13 34 23 40c12 0 27 -4 40 -5c37 12 54 38 54 65c0 35 -21 54 -51 54c-12 0 -21 -3 -26 -6c-6 -17 -22 -54 -30 -67zM669 663l29 -28c-183 -224 -389 -477 -547 -673l-28 29c183 224 388 475 546 672zM610 87l-14 -58
l50 -21l-8 -20c-32 0 -65 1 -98 1c-35 0 -72 -1 -107 -1l9 20l61 21l19 56l-141 -1l-5 23c40 53 178 195 195 207c14 9 79 20 99 21l-53 -214l34 -1c10 10 26 20 38 26h9c-2 -19 -21 -72 -29 -86l-9 -2c-7 10 -14 21 -17 30zM530 122l49 157h-4c-60 -63 -92 -101 -138 -155z
" />
    <glyph glyph-name="twosuperior" unicode="&#xb2;" horiz-adv-x="349" 
d="M91 437l31 40c7 3 11 5 18 9c64 44 168 114 168 194c0 36 -21 57 -49 57c-9 0 -16 -2 -23 -5c-9 -23 -24 -65 -38 -85l-17 -8c-10 16 -21 62 -24 81c32 27 86 52 140 52c58 0 110 -32 110 -97c0 -53 -45 -89 -113 -128c-42 -24 -70 -41 -101 -58c17 0 110 4 135 5
c10 9 28 26 52 45l18 -12c-13 -30 -35 -78 -53 -104c-23 0 -98 3 -154 3h-103z" />
    <glyph glyph-name="registered" unicode="&#xae;" horiz-adv-x="302" 
d="M230 654h1c66 0 119 -53 119 -123s-53 -124 -121 -124s-121 54 -121 124c0 69 54 123 122 123zM230 630h-1c-50 0 -91 -45 -91 -99s41 -99 92 -99c50 0 90 45 90 100c0 53 -40 98 -90 98zM173 575l3 12c16 4 35 5 52 5c35 0 49 -12 49 -29c0 -18 -14 -25 -22 -29
c4 -9 14 -23 23 -35c9 -15 12 -18 15 -22l-1 -3c-26 1 -34 7 -42 13c-8 8 -19 25 -28 45c15 6 23 11 23 25s-12 21 -28 20v-85l19 -5l-3 -10h-60l2 10l14 4v84h-16z" />
    <glyph glyph-name="minus" unicode="&#x2212;" horiz-adv-x="621" 
d="M108 284h437l-13 -62h-437z" />
    <glyph glyph-name="eth" unicode="&#xf0;" horiz-adv-x="483" 
d="M174 523l133 59c-26 39 -60 66 -104 87l22 27c52 -16 106 -48 144 -88l113 50l24 -33l-110 -48c43 -57 69 -131 69 -224c0 -99 -27 -198 -93 -275c-54 -61 -124 -91 -187 -91c-100 0 -156 70 -157 168c-1 70 28 148 85 208c64 69 134 92 188 92c24 0 44 -6 57 -17
c-2 42 -13 79 -30 113l-129 -57zM306 417h-1c-19 0 -41 -10 -65 -37c-55 -63 -96 -172 -96 -269c0 -60 22 -87 49 -87c25 0 50 16 78 54c32 44 82 158 82 280c0 18 -4 31 -11 41c-9 10 -21 18 -36 18z" />
    <glyph glyph-name="multiply" unicode="&#xd7;" horiz-adv-x="628" 
d="M524 396l-161 -165l160 -163l-46 -51l-162 165l-160 -165l-48 50l160 164l-161 162l49 51l160 -164l163 165z" />
    <glyph glyph-name="threesuperior" unicode="&#xb3;" horiz-adv-x="349" 
d="M202 665l-11 -5c-7 11 -21 51 -25 68c41 28 91 44 131 44c71 0 102 -37 102 -76c0 -46 -45 -69 -105 -84v-3c65 -9 95 -36 95 -79c0 -71 -86 -112 -177 -112c-44 0 -93 17 -115 35c5 18 37 68 45 76l13 4c5 -15 13 -58 17 -80c9 -3 16 -4 26 -4c46 0 94 31 94 84
c0 37 -22 54 -47 54c-17 -2 -40 -7 -49 -8l-4 5c2 12 13 34 23 40c12 0 27 -4 40 -5c37 12 54 38 54 65c0 35 -21 54 -51 54c-12 0 -21 -3 -26 -6c-6 -17 -22 -54 -30 -67z" />
    <glyph glyph-name="copyright" unicode="&#xa9;" horiz-adv-x="699" 
d="M372 627h1c168 0 302 -137 302 -312c0 -172 -134 -309 -303 -309c-172 0 -302 134 -302 309s133 312 302 312zM374 584h-1c-142 0 -250 -116 -250 -268c0 -149 108 -267 251 -267s248 118 248 267c0 152 -105 268 -248 268zM393 478h1c24 0 45 -4 60 -13
c14 6 38 11 49 14l7 -3c0 -17 -14 -92 -19 -100l-13 -8c-10 15 -24 48 -32 67c-10 7 -22 9 -37 9c-62 0 -107 -53 -107 -123c0 -72 44 -128 113 -128c16 0 15 1 23 3c23 20 52 49 63 56l13 -11c-4 -17 -27 -63 -36 -71c-13 -6 -52 -13 -82 -13c-114 0 -185 64 -185 158
c0 131 120 163 182 163z" />
    <glyph glyph-name="Aacute" unicode="&#xc1;" horiz-adv-x="690" 
d="M396 634l111 49l4 -8c-5 -16 -8 -39 -6 -70c3 -44 14 -175 52 -508c7 -43 17 -47 84 -71l-8 -27c-44 0 -88 1 -133 1c-39 0 -78 -1 -117 -1l6 23l48 29c0 32 -8 97 -14 180c-37 -4 -84 -8 -219 -6c-52 -84 -75 -123 -101 -166l84 -34l-8 -26c-39 0 -80 1 -121 1
c-36 0 -72 -1 -109 -1l9 26l74 34c43 56 224 333 356 534c8 12 9 19 8 28v13zM400 538h-2c-90 -147 -115 -187 -159 -258c43 0 146 -3 181 -3c-8 105 -15 180 -20 261zM421 704l-18 27l162 121c23 -3 56 -30 72 -63v-13z" />
    <glyph glyph-name="Acircumflex" unicode="&#xc2;" horiz-adv-x="690" 
d="M396 634l111 49l4 -8c-5 -16 -8 -39 -6 -70c3 -44 14 -175 52 -508c7 -43 17 -47 84 -71l-8 -27c-44 0 -88 1 -133 1c-39 0 -78 -1 -117 -1l6 23l48 29c0 32 -8 97 -14 180c-37 -4 -84 -8 -219 -6c-52 -84 -75 -123 -101 -166l84 -34l-8 -26c-39 0 -80 1 -121 1
c-36 0 -72 -1 -109 -1l9 26l74 34c43 56 224 333 356 534c8 12 9 19 8 28v13zM400 538h-2c-90 -147 -115 -187 -159 -258c43 0 146 -3 181 -3c-8 105 -15 180 -20 261zM475 845h32c38 -38 74 -76 111 -114l-23 -26c-38 20 -78 40 -118 59c-48 -19 -98 -39 -147 -59l-19 26
c55 38 110 76 164 114z" />
    <glyph glyph-name="Adieresis" unicode="&#xc4;" horiz-adv-x="690" 
d="M396 634l111 49l4 -8c-5 -16 -8 -39 -6 -70c3 -44 14 -175 52 -508c7 -43 17 -47 84 -71l-8 -27c-44 0 -88 1 -133 1c-39 0 -78 -1 -117 -1l6 23l48 29c0 32 -8 97 -14 180c-37 -4 -84 -8 -219 -6c-52 -84 -75 -123 -101 -166l84 -34l-8 -26c-39 0 -80 1 -121 1
c-36 0 -72 -1 -109 -1l9 26l74 34c43 56 224 333 356 534c8 12 9 19 8 28v13zM400 538h-2c-90 -147 -115 -187 -159 -258c43 0 146 -3 181 -3c-8 105 -15 180 -20 261zM392 854h5c13 -11 36 -52 41 -71l-2 -7c-9 -19 -54 -59 -72 -66h-7c-15 13 -38 48 -45 75l1 3
c28 37 64 59 79 66zM601 854h7c12 -11 36 -52 40 -71l-1 -7c-10 -19 -56 -59 -73 -66h-6c-16 13 -39 48 -46 75l1 3c28 37 64 59 78 66z" />
    <glyph glyph-name="Agrave" unicode="&#xc0;" horiz-adv-x="690" 
d="M396 634l111 49l4 -8c-5 -16 -8 -39 -6 -70c3 -44 14 -175 52 -508c7 -43 17 -47 84 -71l-8 -27c-44 0 -88 1 -133 1c-39 0 -78 -1 -117 -1l6 23l48 29c0 32 -8 97 -14 180c-37 -4 -84 -8 -219 -6c-52 -84 -75 -123 -101 -166l84 -34l-8 -26c-39 0 -80 1 -121 1
c-36 0 -72 -1 -109 -1l9 26l74 34c43 56 224 333 356 534c8 12 9 19 8 28v13zM400 538h-2c-90 -147 -115 -187 -159 -258c43 0 146 -3 181 -3c-8 105 -15 180 -20 261zM535 746l-19 -27l-206 67v13c14 30 39 62 63 68z" />
    <glyph glyph-name="Aring" unicode="&#xc5;" horiz-adv-x="690" 
d="M396 634l111 49l4 -8c-5 -16 -8 -39 -6 -70c3 -44 14 -175 52 -508c7 -43 17 -47 84 -71l-8 -27c-44 0 -88 1 -133 1c-39 0 -78 -1 -117 -1l6 23l48 29c0 32 -8 97 -14 180c-37 -4 -84 -8 -219 -6c-52 -84 -75 -123 -101 -166l84 -34l-8 -26c-39 0 -80 1 -121 1
c-36 0 -72 -1 -109 -1l9 26l74 34c43 56 224 333 356 534c8 12 9 19 8 28v13zM400 538h-2c-90 -147 -115 -187 -159 -258c43 0 146 -3 181 -3c-8 105 -15 180 -20 261zM471 740h1c25 0 48 15 54 52c7 36 -10 52 -36 52c-24 0 -47 -16 -54 -52c-7 -37 11 -52 35 -52zM497 880
h1c45 0 87 -32 75 -91c-11 -55 -61 -85 -107 -85s-87 30 -76 87c10 57 61 89 107 89z" />
    <glyph glyph-name="Atilde" unicode="&#xc3;" horiz-adv-x="690" 
d="M396 634l111 49l4 -8c-5 -16 -8 -39 -6 -70c3 -44 14 -175 52 -508c7 -43 17 -47 84 -71l-8 -27c-44 0 -88 1 -133 1c-39 0 -78 -1 -117 -1l6 23l48 29c0 32 -8 97 -14 180c-37 -4 -84 -8 -219 -6c-52 -84 -75 -123 -101 -166l84 -34l-8 -26c-39 0 -80 1 -121 1
c-36 0 -72 -1 -109 -1l9 26l74 34c43 56 224 333 356 534c8 12 9 19 8 28v13zM400 538h-2c-90 -147 -115 -187 -159 -258c43 0 146 -3 181 -3c-8 105 -15 180 -20 261zM620 829l23 -21c-51 -75 -92 -93 -116 -93c-18 0 -36 9 -66 24c-27 13 -39 19 -54 19
c-21 0 -46 -19 -72 -47l-24 25c51 68 89 91 116 91c15 0 32 -8 59 -21c21 -11 42 -21 58 -21c20 0 50 19 76 44z" />
    <glyph glyph-name="Ccedilla" unicode="&#xc7;" horiz-adv-x="683" 
d="M291 -89l64 70v1c-172 9 -285 115 -285 292c0 220 183 401 430 401c66 0 119 -19 143 -40c22 12 53 21 82 26l8 -9c-13 -50 -61 -151 -74 -170l-17 -5c-8 33 -12 81 -15 122c-24 17 -62 27 -107 27c-197 0 -318 -172 -318 -348c0 -147 78 -244 217 -244c17 0 39 2 62 7
c56 48 107 90 161 127l11 -28c-24 -39 -60 -92 -92 -122c-45 -18 -107 -33 -160 -36l-34 -37c35 -21 47 -47 47 -68c0 -66 -88 -101 -143 -108l-11 27c36 11 81 34 81 65c0 17 -11 31 -49 47z" />
    <glyph glyph-name="Eacute" unicode="&#xc9;" horiz-adv-x="598" 
d="M136 634l11 25c45 0 90 -1 133 -1h244c17 3 69 10 94 10l4 -5c-4 -18 -30 -117 -47 -158l-16 -8c-17 41 -30 88 -39 119l-178 -8l-62 -242c81 1 180 4 244 12l6 -14c-8 -11 -63 -57 -71 -57c-10 0 -176 10 -192 10c-18 -65 -50 -186 -68 -264l210 -11
c45 43 98 98 135 128l17 -8c-8 -23 -44 -122 -68 -165c-90 3 -151 3 -209 3h-163c-51 0 -101 -1 -152 -1l11 26l90 34c4 8 36 115 82 284l71 259zM369 704l-18 27l162 121c23 -3 56 -30 72 -63v-13z" />
    <glyph glyph-name="Ecircumflex" unicode="&#xca;" horiz-adv-x="598" 
d="M136 634l11 25c45 0 90 -1 133 -1h244c17 3 69 10 94 10l4 -5c-4 -18 -30 -117 -47 -158l-16 -8c-17 41 -30 88 -39 119l-178 -8l-62 -242c81 1 180 4 244 12l6 -14c-8 -11 -63 -57 -71 -57c-10 0 -176 10 -192 10c-18 -65 -50 -186 -68 -264l210 -11
c45 43 98 98 135 128l17 -8c-8 -23 -44 -122 -68 -165c-90 3 -151 3 -209 3h-163c-51 0 -101 -1 -152 -1l11 26l90 34c4 8 36 115 82 284l71 259zM434 848h32c38 -38 74 -76 111 -114l-23 -26c-38 20 -78 40 -118 59c-48 -19 -98 -39 -147 -59l-19 26c55 38 110 76 164 114z
" />
    <glyph glyph-name="Edieresis" unicode="&#xcb;" horiz-adv-x="598" 
d="M136 634l11 25c45 0 90 -1 133 -1h244c17 3 69 10 94 10l4 -5c-4 -18 -30 -117 -47 -158l-16 -8c-17 41 -30 88 -39 119l-178 -8l-62 -242c81 1 180 4 244 12l6 -14c-8 -11 -63 -57 -71 -57c-10 0 -176 10 -192 10c-18 -65 -50 -186 -68 -264l210 -11
c45 43 98 98 135 128l17 -8c-8 -23 -44 -122 -68 -165c-90 3 -151 3 -209 3h-163c-51 0 -101 -1 -152 -1l11 26l90 34c4 8 36 115 82 284l71 259zM342 854h5c13 -11 36 -52 41 -71l-2 -7c-9 -19 -54 -59 -72 -66h-7c-15 13 -38 48 -45 75l1 3c28 37 64 59 79 66zM551 854h7
c12 -11 36 -52 40 -71l-1 -7c-10 -19 -56 -59 -73 -66h-6c-16 13 -39 48 -46 75l1 3c28 37 64 59 78 66z" />
    <glyph glyph-name="Egrave" unicode="&#xc8;" horiz-adv-x="598" 
d="M136 634l11 25c45 0 90 -1 133 -1h244c17 3 69 10 94 10l4 -5c-4 -18 -30 -117 -47 -158l-16 -8c-17 41 -30 88 -39 119l-178 -8l-62 -242c81 1 180 4 244 12l6 -14c-8 -11 -63 -57 -71 -57c-10 0 -176 10 -192 10c-18 -65 -50 -186 -68 -264l210 -11
c45 43 98 98 135 128l17 -8c-8 -23 -44 -122 -68 -165c-90 3 -151 3 -209 3h-163c-51 0 -101 -1 -152 -1l11 26l90 34c4 8 36 115 82 284l71 259zM499 731l-19 -27l-206 67v13c14 30 39 62 63 68z" />
    <glyph glyph-name="Iacute" unicode="&#xcd;" horiz-adv-x="362" 
d="M148 633l11 26c41 0 82 -1 123 -1c49 0 98 1 147 1l-9 -27l-79 -32l-68 -257c-42 -161 -69 -275 -70 -285l85 -33l-12 -26c-49 0 -99 1 -149 1c-49 0 -99 -1 -149 -1l10 26l83 33c6 12 37 119 82 285l71 257zM264 705l-18 27l162 121c23 -3 56 -30 72 -63v-13z" />
    <glyph glyph-name="Icircumflex" unicode="&#xce;" horiz-adv-x="362" 
d="M148 633l11 26c41 0 82 -1 123 -1c49 0 98 1 147 1l-9 -27l-79 -32l-68 -257c-42 -161 -69 -275 -70 -285l85 -33l-12 -26c-49 0 -99 1 -149 1c-49 0 -99 -1 -149 -1l10 26l83 33c6 12 37 119 82 285l71 257zM322 850h32c38 -38 74 -76 111 -114l-23 -26
c-38 20 -78 40 -118 59c-48 -19 -98 -39 -147 -59l-19 26c55 38 110 76 164 114z" />
    <glyph glyph-name="Idieresis" unicode="&#xcf;" horiz-adv-x="362" 
d="M148 633l11 26c41 0 82 -1 123 -1c49 0 98 1 147 1l-9 -27l-79 -32l-68 -257c-42 -161 -69 -275 -70 -285l85 -33l-12 -26c-49 0 -99 1 -149 1c-49 0 -99 -1 -149 -1l10 26l83 33c6 12 37 119 82 285l71 257zM237 854h5c13 -11 36 -52 41 -71l-2 -7
c-9 -19 -54 -59 -72 -66h-7c-15 13 -38 48 -45 75l1 3c28 37 64 59 79 66zM446 854h7c12 -11 36 -52 40 -71l-1 -7c-10 -19 -56 -59 -73 -66h-6c-16 13 -39 48 -46 75l1 3c28 37 64 59 78 66z" />
    <glyph glyph-name="Igrave" unicode="&#xcc;" horiz-adv-x="362" 
d="M148 633l11 26c41 0 82 -1 123 -1c49 0 98 1 147 1l-9 -27l-79 -32l-68 -257c-42 -161 -69 -275 -70 -285l85 -33l-12 -26c-49 0 -99 1 -149 1c-49 0 -99 -1 -149 -1l10 26l83 33c6 12 37 119 82 285l71 257zM401 731l-19 -27l-206 67v13c14 30 39 62 63 68z" />
    <glyph glyph-name="Ntilde" unicode="&#xd1;" horiz-adv-x="733" 
d="M214 25l-10 -26c-40 0 -81 1 -122 1c-37 0 -74 -1 -112 -1l9 26l87 39c17 40 69 202 154 495c-30 55 -45 59 -108 73l14 25c55 3 135 4 181 5c3 -20 9 -33 24 -63c84 -177 160 -339 221 -468h2c18 64 102 408 115 466l-80 36l14 26c35 0 71 -1 106 -1c40 0 81 1 121 1
l-11 -29l-85 -33c-19 -44 -94 -315 -151 -531l61 -52l-5 -14l-152 -11c-26 53 -126 269 -238 517h-2c-46 -166 -104 -398 -112 -443zM651 826l23 -21c-51 -75 -92 -93 -116 -93c-18 0 -36 9 -66 24c-27 13 -39 19 -54 19c-21 0 -46 -19 -72 -47l-24 25c51 68 89 91 116 91
c15 0 32 -8 59 -21c21 -11 42 -21 58 -21c20 0 50 19 76 44z" />
    <glyph glyph-name="Oacute" unicode="&#xd3;" horiz-adv-x="750" 
d="M468 675h1c117 0 268 -78 269 -298c0 -173 -126 -394 -396 -394c-135 0 -275 85 -275 288c0 194 158 404 401 404zM468 636h-2c-153 0 -268 -219 -268 -397c0 -149 54 -218 146 -218c154 0 263 233 263 408c0 144 -59 207 -139 207zM433 714l-18 27l162 121
c23 -3 56 -30 72 -63v-13z" />
    <glyph glyph-name="Ocircumflex" unicode="&#xd4;" horiz-adv-x="750" 
d="M468 675h1c117 0 268 -78 269 -298c0 -173 -126 -394 -396 -394c-135 0 -275 85 -275 288c0 194 158 404 401 404zM468 636h-2c-153 0 -268 -219 -268 -397c0 -149 54 -218 146 -218c154 0 263 233 263 408c0 144 -59 207 -139 207zM493 846h32c38 -38 74 -76 111 -114
l-23 -26c-38 20 -78 40 -118 59c-48 -19 -98 -39 -147 -59l-19 26c55 38 110 76 164 114z" />
    <glyph glyph-name="Odieresis" unicode="&#xd6;" horiz-adv-x="750" 
d="M468 675h1c117 0 268 -78 269 -298c0 -173 -126 -394 -396 -394c-135 0 -275 85 -275 288c0 194 158 404 401 404zM468 636h-2c-153 0 -268 -219 -268 -397c0 -149 54 -218 146 -218c154 0 263 233 263 408c0 144 -59 207 -139 207zM419 856h5c13 -11 36 -52 41 -71
l-2 -7c-9 -19 -54 -59 -72 -66h-7c-15 13 -38 48 -45 75l1 3c28 37 64 59 79 66zM628 856h7c12 -11 36 -52 40 -71l-1 -7c-10 -19 -56 -59 -73 -66h-6c-16 13 -39 48 -46 75l1 3c28 37 64 59 78 66z" />
    <glyph glyph-name="Ograve" unicode="&#xd2;" horiz-adv-x="750" 
d="M468 675h1c117 0 268 -78 269 -298c0 -173 -126 -394 -396 -394c-135 0 -275 85 -275 288c0 194 158 404 401 404zM468 636h-2c-153 0 -268 -219 -268 -397c0 -149 54 -218 146 -218c154 0 263 233 263 408c0 144 -59 207 -139 207zM589 739l-19 -27l-206 67v13
c14 30 39 62 63 68z" />
    <glyph glyph-name="Otilde" unicode="&#xd5;" horiz-adv-x="750" 
d="M468 675h1c117 0 268 -78 269 -298c0 -173 -126 -394 -396 -394c-135 0 -275 85 -275 288c0 194 158 404 401 404zM468 636h-2c-153 0 -268 -219 -268 -397c0 -149 54 -218 146 -218c154 0 263 233 263 408c0 144 -59 207 -139 207zM646 837l23 -21
c-51 -75 -92 -93 -116 -93c-18 0 -36 9 -66 24c-27 13 -39 19 -54 19c-21 0 -46 -19 -72 -47l-24 25c51 68 89 91 116 91c15 0 32 -8 59 -21c21 -11 42 -21 58 -21c20 0 50 19 76 44z" />
    <glyph glyph-name="Scaron" unicode="&#x160;" horiz-adv-x="519" 
d="M335 675h1c58 0 94 -17 119 -39c22 12 60 26 77 30l11 -6c-9 -34 -46 -140 -62 -168l-17 -7c-9 29 -18 77 -22 111c-8 11 -37 32 -90 32c-80 0 -123 -57 -123 -111c0 -36 13 -61 44 -89c30 -26 68 -55 122 -101c59 -50 79 -94 79 -147c0 -118 -104 -197 -246 -197
c-97 0 -184 47 -219 83c3 18 47 121 73 153h15c7 -27 12 -123 18 -171c23 -12 57 -19 96 -19c94 0 143 54 143 116c0 34 -15 65 -51 97c-36 31 -75 63 -110 95c-52 46 -73 92 -73 146c0 120 101 192 215 192zM381 717h-32c-36 39 -73 77 -110 115l23 25
c39 -19 77 -39 116 -59c51 20 101 40 151 59l16 -26c-54 -37 -109 -75 -164 -114z" />
    <glyph glyph-name="Uacute" unicode="&#xda;" horiz-adv-x="763" 
d="M213 598l-77 35l12 26c34 0 79 -2 114 -2c40 0 84 2 124 2l-10 -26l-48 -40c-7 -23 -101 -340 -115 -419c-18 -100 27 -119 75 -119c98 0 187 71 218 108l127 437l-49 33l13 26c35 -1 76 -2 118 -2c44 0 83 1 124 2l-13 -27l-78 -34c-16 -48 -142 -515 -143 -538l91 -20
l-13 -27c-71 -10 -179 -21 -219 -30l-5 3l36 116h-2c-51 -45 -146 -119 -263 -119c-42 0 -78 8 -106 28c-39 28 -60 83 -31 190c36 132 109 360 120 397zM473 704l-18 27l162 121c23 -3 56 -30 72 -63v-13z" />
    <glyph glyph-name="Ucircumflex" unicode="&#xdb;" horiz-adv-x="763" 
d="M213 598l-77 35l12 26c34 0 79 -2 114 -2c40 0 84 2 124 2l-10 -26l-48 -40c-7 -23 -101 -340 -115 -419c-18 -100 27 -119 75 -119c98 0 187 71 218 108l127 437l-49 33l13 26c35 -1 76 -2 118 -2c44 0 83 1 124 2l-13 -27l-78 -34c-16 -48 -142 -515 -143 -538l91 -20
l-13 -27c-71 -10 -179 -21 -219 -30l-5 3l36 116h-2c-51 -45 -146 -119 -263 -119c-42 0 -78 8 -106 28c-39 28 -60 83 -31 190c36 132 109 360 120 397zM529 845h32c38 -38 74 -76 111 -114l-23 -26c-38 20 -78 40 -118 59c-48 -19 -98 -39 -147 -59l-19 26
c55 38 110 76 164 114z" />
    <glyph glyph-name="Udieresis" unicode="&#xdc;" horiz-adv-x="763" 
d="M213 598l-77 35l12 26c34 0 79 -2 114 -2c40 0 84 2 124 2l-10 -26l-48 -40c-7 -23 -101 -340 -115 -419c-18 -100 27 -119 75 -119c98 0 187 71 218 108l127 437l-49 33l13 26c35 -1 76 -2 118 -2c44 0 83 1 124 2l-13 -27l-78 -34c-16 -48 -142 -515 -143 -538l91 -20
l-13 -27c-71 -10 -179 -21 -219 -30l-5 3l36 116h-2c-51 -45 -146 -119 -263 -119c-42 0 -78 8 -106 28c-39 28 -60 83 -31 190c36 132 109 360 120 397zM438 854h5c13 -11 36 -52 41 -71l-2 -7c-9 -19 -54 -59 -72 -66h-7c-15 13 -38 48 -45 75l1 3c28 37 64 59 79 66z
M647 854h7c12 -11 36 -52 40 -71l-1 -7c-10 -19 -56 -59 -73 -66h-6c-16 13 -39 48 -46 75l1 3c28 37 64 59 78 66z" />
    <glyph glyph-name="Ugrave" unicode="&#xd9;" horiz-adv-x="763" 
d="M213 598l-77 35l12 26c34 0 79 -2 114 -2c40 0 84 2 124 2l-10 -26l-48 -40c-7 -23 -101 -340 -115 -419c-18 -100 27 -119 75 -119c98 0 187 71 218 108l127 437l-49 33l13 26c35 -1 76 -2 118 -2c44 0 83 1 124 2l-13 -27l-78 -34c-16 -48 -142 -515 -143 -538l91 -20
l-13 -27c-71 -10 -179 -21 -219 -30l-5 3l36 116h-2c-51 -45 -146 -119 -263 -119c-42 0 -78 8 -106 28c-39 28 -60 83 -31 190c36 132 109 360 120 397zM590 731l-19 -27l-206 67v13c14 30 39 62 63 68z" />
    <glyph glyph-name="Yacute" unicode="&#xdd;" horiz-adv-x="604" 
d="M98 633l12 26c39 0 80 -2 120 -2c37 0 75 2 111 2l-11 -27l-35 -25c6 -29 34 -107 77 -253l3 -1c62 76 143 184 189 252l-37 28l12 26c22 0 50 -2 74 -2c40 0 78 2 118 2l-12 -27l-84 -33c-49 -51 -121 -134 -232 -277c-9 -12 -15 -24 -19 -41
c-40 -149 -55 -211 -56 -223l105 -33l-10 -26c-57 0 -113 1 -169 1s-111 -1 -167 -1l11 26l98 32c6 12 27 69 70 226c4 16 4 27 1 39c-13 43 -56 168 -90 268c-9 13 -21 19 -79 43zM396 704l-18 27l162 121c23 -3 56 -30 72 -63v-13z" />
    <glyph glyph-name="Ydieresis" unicode="&#x178;" horiz-adv-x="604" 
d="M98 633l12 26c39 0 80 -2 120 -2c37 0 75 2 111 2l-11 -27l-35 -25c6 -29 34 -107 77 -253l3 -1c62 76 143 184 189 252l-37 28l12 26c22 0 50 -2 74 -2c40 0 78 2 118 2l-12 -27l-84 -33c-49 -51 -121 -134 -232 -277c-9 -12 -15 -24 -19 -41
c-40 -149 -55 -211 -56 -223l105 -33l-10 -26c-57 0 -113 1 -169 1s-111 -1 -167 -1l11 26l98 32c6 12 27 69 70 226c4 16 4 27 1 39c-13 43 -56 168 -90 268c-9 13 -21 19 -79 43zM373 854h5c13 -11 36 -52 41 -71l-2 -7c-9 -19 -54 -59 -72 -66h-7c-15 13 -38 48 -45 75
l1 3c28 37 64 59 79 66zM582 854h7c12 -11 36 -52 40 -71l-1 -7c-10 -19 -56 -59 -73 -66h-6c-16 13 -39 48 -46 75l1 3c28 37 64 59 78 66z" />
    <glyph glyph-name="Zcaron" unicode="&#x17d;" horiz-adv-x="636" 
d="M668 658l2 -18c-42 -47 -318 -369 -502 -588v-2c21 0 249 -7 290 -8c43 46 93 100 138 147l16 -8c-12 -47 -43 -142 -63 -185c-64 0 -302 4 -559 4l-7 15c79 90 358 410 517 594v2c-66 1 -188 3 -262 3c-24 -35 -58 -83 -96 -128l-22 -6c7 41 28 166 34 190l6 4
c42 -7 75 -14 85 -16h423zM423 706h-32c-36 39 -73 77 -110 115l23 25c39 -19 77 -39 116 -59c51 20 101 40 151 59l16 -26c-54 -37 -109 -75 -164 -114z" />
    <glyph glyph-name="aacute" unicode="&#xe1;" horiz-adv-x="557" 
d="M412 447l120 12l4 -9l-42 -56c-35 -102 -71 -246 -91 -332l3 -1c51 15 97 68 117 95l7 -9c-4 -74 -88 -160 -208 -160c-12 0 -27 2 -35 4c11 44 39 141 54 195h-3c-77 -109 -166 -199 -251 -199c-47 0 -73 40 -73 101c0 85 50 214 165 299c53 40 107 57 157 57
c31 0 53 -10 68 -22zM148 57h1c26 0 81 33 163 156c40 61 56 102 76 175c-8 7 -19 11 -37 11c-26 0 -67 -14 -112 -62c-69 -74 -109 -180 -109 -242c0 -29 10 -38 18 -38zM335 495l-20 24l111 153c23 4 75 -5 96 -16v-13z" />
    <glyph glyph-name="acircumflex" unicode="&#xe2;" horiz-adv-x="557" 
d="M412 447l120 12l4 -9l-42 -56c-35 -102 -71 -246 -91 -332l3 -1c51 15 97 68 117 95l7 -9c-4 -74 -88 -160 -208 -160c-12 0 -27 2 -35 4c11 44 39 141 54 195h-3c-77 -109 -166 -199 -251 -199c-47 0 -73 40 -73 101c0 85 50 214 165 299c53 40 107 57 157 57
c31 0 53 -10 68 -22zM148 57h1c26 0 81 33 163 156c40 61 56 102 76 175c-8 7 -19 11 -37 11c-26 0 -67 -14 -112 -62c-69 -74 -109 -180 -109 -242c0 -29 10 -38 18 -38zM373 683l34 11l62 -178l-29 -19l-67 96l-120 -96l-20 24z" />
    <glyph glyph-name="adieresis" unicode="&#xe4;" horiz-adv-x="557" 
d="M412 447l120 12l4 -9l-42 -56c-35 -102 -71 -246 -91 -332l3 -1c51 15 97 68 117 95l7 -9c-4 -74 -88 -160 -208 -160c-12 0 -27 2 -35 4c11 44 39 141 54 195h-3c-77 -109 -166 -199 -251 -199c-47 0 -73 40 -73 101c0 85 50 214 165 299c53 40 107 57 157 57
c31 0 53 -10 68 -22zM148 57h1c26 0 81 33 163 156c40 61 56 102 76 175c-8 7 -19 11 -37 11c-26 0 -67 -14 -112 -62c-69 -74 -109 -180 -109 -242c0 -29 10 -38 18 -38zM296 657h6c11 -10 34 -49 38 -66l-2 -7c-8 -19 -51 -56 -68 -63h-6c-14 13 -37 45 -43 71l1 3
c27 35 60 56 74 62zM489 657h6c11 -10 34 -49 38 -66l-2 -7c-9 -19 -52 -56 -68 -63h-6c-15 13 -36 45 -43 71l1 3c26 35 60 56 74 62z" />
    <glyph glyph-name="agrave" unicode="&#xe0;" horiz-adv-x="557" 
d="M412 447l120 12l4 -9l-42 -56c-35 -102 -71 -246 -91 -332l3 -1c51 15 97 68 117 95l7 -9c-4 -74 -88 -160 -208 -160c-12 0 -27 2 -35 4c11 44 39 141 54 195h-3c-77 -109 -166 -199 -251 -199c-47 0 -73 40 -73 101c0 85 50 214 165 299c53 40 107 57 157 57
c31 0 53 -10 68 -22zM148 57h1c26 0 81 33 163 156c40 61 56 102 76 175c-8 7 -19 11 -37 11c-26 0 -67 -14 -112 -62c-69 -74 -109 -180 -109 -242c0 -29 10 -38 18 -38zM399 512l-30 -16l-123 172l3 10c22 11 68 18 97 15z" />
    <glyph glyph-name="aring" unicode="&#xe5;" horiz-adv-x="557" 
d="M412 447l120 12l4 -9l-42 -56c-35 -102 -71 -246 -91 -332l3 -1c51 15 97 68 117 95l7 -9c-4 -74 -88 -160 -208 -160c-12 0 -27 2 -35 4c11 44 39 141 54 195h-3c-77 -109 -166 -199 -251 -199c-47 0 -73 40 -73 101c0 85 50 214 165 299c53 40 107 57 157 57
c31 0 53 -10 68 -22zM148 57h1c26 0 81 33 163 156c40 61 56 102 76 175c-8 7 -19 11 -37 11c-26 0 -67 -14 -112 -62c-69 -74 -109 -180 -109 -242c0 -29 10 -38 18 -38zM370 536h1c25 0 50 16 56 52c7 37 -11 53 -37 53c-25 0 -48 -16 -55 -53c-7 -36 10 -52 35 -52z
M396 676h1c45 0 85 -32 74 -89c-11 -56 -60 -87 -106 -87s-87 31 -76 87c11 57 61 89 107 89z" />
    <glyph glyph-name="atilde" unicode="&#xe3;" horiz-adv-x="557" 
d="M412 447l120 12l4 -9l-42 -56c-35 -102 -71 -246 -91 -332l3 -1c51 15 97 68 117 95l7 -9c-4 -74 -88 -160 -208 -160c-12 0 -27 2 -35 4c11 44 39 141 54 195h-3c-77 -109 -166 -199 -251 -199c-47 0 -73 40 -73 101c0 85 50 214 165 299c53 40 107 57 157 57
c31 0 53 -10 68 -22zM148 57h1c26 0 81 33 163 156c40 61 56 102 76 175c-8 7 -19 11 -37 11c-26 0 -67 -14 -112 -62c-69 -74 -109 -180 -109 -242c0 -29 10 -38 18 -38zM521 632l21 -21c-49 -70 -87 -87 -110 -87c-16 0 -34 9 -63 24c-26 12 -37 18 -51 18
c-19 0 -45 -18 -70 -43l-23 23c49 66 86 85 112 85c15 0 30 -7 56 -20c20 -11 40 -22 55 -22c19 0 43 11 73 43z" />
    <glyph glyph-name="ccedilla" unicode="&#xe7;" horiz-adv-x="423" 
d="M102 -87l65 73v1c-99 2 -139 75 -139 159c0 65 25 154 104 227c60 56 132 82 199 82c52 0 85 -16 94 -27c-2 -19 -34 -97 -51 -119l-17 -6c-10 20 -22 62 -31 112c-3 2 -7 2 -13 2c-23 0 -59 -16 -91 -54c-52 -59 -74 -136 -74 -206c0 -68 28 -106 78 -106
c68 0 131 63 156 91h2l7 -35c-39 -55 -97 -104 -177 -115l-39 -44c35 -21 46 -46 46 -67c0 -67 -87 -102 -142 -109l-9 28c36 11 81 32 81 64c0 16 -11 31 -50 46z" />
    <glyph glyph-name="eacute" unicode="&#xe9;" horiz-adv-x="443" 
d="M399 145l5 -37c-53 -75 -135 -121 -223 -121c-79 0 -151 37 -153 155c-2 127 108 313 286 313c80 0 121 -47 123 -107c0 -28 -11 -54 -31 -69c-33 -37 -172 -75 -252 -88c-5 -20 -7 -36 -6 -54c0 -44 17 -88 75 -88c66 0 137 52 174 96h2zM301 418h-1
c-45 0 -110 -76 -140 -189c49 10 131 33 154 69c12 18 18 42 18 71c0 36 -14 49 -31 49zM282 495l-20 24l111 153c23 4 75 -5 96 -16v-13z" />
    <glyph glyph-name="ecircumflex" unicode="&#xea;" horiz-adv-x="443" 
d="M399 145l5 -37c-53 -75 -135 -121 -223 -121c-79 0 -151 37 -153 155c-2 127 108 313 286 313c80 0 121 -47 123 -107c0 -28 -11 -54 -31 -69c-33 -37 -172 -75 -252 -88c-5 -20 -7 -36 -6 -54c0 -44 17 -88 75 -88c66 0 137 52 174 96h2zM301 418h-1
c-45 0 -110 -76 -140 -189c49 10 131 33 154 69c12 18 18 42 18 71c0 36 -14 49 -31 49zM344 683l34 11l62 -178l-29 -19l-67 96l-120 -96l-20 24z" />
    <glyph glyph-name="edieresis" unicode="&#xeb;" horiz-adv-x="443" 
d="M399 145l5 -37c-53 -75 -135 -121 -223 -121c-79 0 -151 37 -153 155c-2 127 108 313 286 313c80 0 121 -47 123 -107c0 -28 -11 -54 -31 -69c-33 -37 -172 -75 -252 -88c-5 -20 -7 -36 -6 -54c0 -44 17 -88 75 -88c66 0 137 52 174 96h2zM301 418h-1
c-45 0 -110 -76 -140 -189c49 10 131 33 154 69c12 18 18 42 18 71c0 36 -14 49 -31 49zM259 657h6c11 -10 34 -49 38 -66l-2 -7c-8 -19 -51 -56 -68 -63h-6c-14 13 -37 45 -43 71l1 3c27 35 60 56 74 62zM452 657h6c11 -10 34 -49 38 -66l-2 -7c-9 -19 -52 -56 -68 -63h-6
c-15 13 -36 45 -43 71l1 3c26 35 60 56 74 62z" />
    <glyph glyph-name="egrave" unicode="&#xe8;" horiz-adv-x="443" 
d="M399 145l5 -37c-53 -75 -135 -121 -223 -121c-79 0 -151 37 -153 155c-2 127 108 313 286 313c80 0 121 -47 123 -107c0 -28 -11 -54 -31 -69c-33 -37 -172 -75 -252 -88c-5 -20 -7 -36 -6 -54c0 -44 17 -88 75 -88c66 0 137 52 174 96h2zM301 418h-1
c-45 0 -110 -76 -140 -189c49 10 131 33 154 69c12 18 18 42 18 71c0 36 -14 49 -31 49zM355 512l-30 -16l-123 172l3 10c22 11 68 18 97 15z" />
    <glyph glyph-name="iacute" unicode="&#xed;" horiz-adv-x="317" 
d="M137 372l-67 11l10 24c33 17 149 47 187 48l3 -3c-59 -190 -114 -371 -122 -409l2 -1c39 8 103 77 127 104l4 -17c-8 -45 -61 -142 -180 -142c-43 0 -72 30 -49 114c9 28 45 151 85 271zM194 495l-20 24l111 153c23 4 75 -5 96 -16v-13z" />
    <glyph glyph-name="icircumflex" unicode="&#xee;" horiz-adv-x="317" 
d="M137 372l-67 11l10 24c33 17 149 47 187 48l3 -3c-59 -190 -114 -371 -122 -409l2 -1c39 8 103 77 127 104l4 -17c-8 -45 -61 -142 -180 -142c-43 0 -72 30 -49 114c9 28 45 151 85 271zM248 683l34 11l62 -178l-29 -19l-67 96l-120 -96l-20 24z" />
    <glyph glyph-name="idieresis" unicode="&#xef;" horiz-adv-x="317" 
d="M137 372l-67 11l10 24c33 17 149 47 187 48l3 -3c-59 -190 -114 -371 -122 -409l2 -1c39 8 103 77 127 104l4 -17c-8 -45 -61 -142 -180 -142c-43 0 -72 30 -49 114c9 28 45 151 85 271zM161 657h6c11 -10 34 -49 38 -66l-2 -7c-8 -19 -51 -56 -68 -63h-6
c-14 13 -37 45 -43 71l1 3c27 35 60 56 74 62zM354 657h6c11 -10 34 -49 38 -66l-2 -7c-9 -19 -52 -56 -68 -63h-6c-15 13 -36 45 -43 71l1 3c26 35 60 56 74 62z" />
    <glyph glyph-name="igrave" unicode="&#xec;" horiz-adv-x="317" 
d="M137 372l-67 11l10 24c33 17 149 47 187 48l3 -3c-59 -190 -114 -371 -122 -409l2 -1c39 8 103 77 127 104l4 -17c-8 -45 -61 -142 -180 -142c-43 0 -72 30 -49 114c9 28 45 151 85 271zM263 512l-30 -16l-123 172l3 10c22 11 68 18 97 15z" />
    <glyph glyph-name="ntilde" unicode="&#xf1;" horiz-adv-x="565" 
d="M135 0l-112 -8c25 68 108 358 108 383l-72 9l8 23c32 14 162 46 191 49l2 -3c-4 -22 -38 -132 -70 -236h2c65 99 137 181 210 215c22 11 59 23 98 23c36 0 40 -6 25 -58c-38 -128 -83 -286 -89 -323l92 6l-13 -33c-56 -17 -183 -54 -212 -66l-9 11c6 27 100 316 115 372
c4 13 2 17 -5 17c-45 0 -127 -97 -183 -188c-38 -62 -57 -106 -86 -193zM500 632l21 -21c-49 -70 -87 -87 -110 -87c-16 0 -34 9 -63 24c-26 12 -37 18 -51 18c-19 0 -45 -18 -70 -43l-23 23c49 66 86 85 112 85c15 0 30 -7 56 -20c20 -11 40 -22 55 -22c19 0 43 11 73 43z
" />
    <glyph glyph-name="oacute" unicode="&#xf3;" horiz-adv-x="502" 
d="M310 455h1c95 0 158 -70 158 -180c0 -148 -118 -288 -276 -288c-90 0 -159 65 -160 173c0 159 130 295 277 295zM302 418h-1c-75 0 -150 -176 -150 -300c0 -64 20 -94 51 -94c75 0 149 173 149 302c0 51 -14 92 -49 92zM295 495l-20 24l111 153c23 4 75 -5 96 -16v-13z
" />
    <glyph glyph-name="ocircumflex" unicode="&#xf4;" horiz-adv-x="502" 
d="M310 455h1c95 0 158 -70 158 -180c0 -148 -118 -288 -276 -288c-90 0 -159 65 -160 173c0 159 130 295 277 295zM302 418h-1c-75 0 -150 -176 -150 -300c0 -64 20 -94 51 -94c75 0 149 173 149 302c0 51 -14 92 -49 92zM352 683l34 11l62 -178l-29 -19l-67 96l-120 -96
l-20 24z" />
    <glyph glyph-name="odieresis" unicode="&#xf6;" horiz-adv-x="502" 
d="M310 455h1c95 0 158 -70 158 -180c0 -148 -118 -288 -276 -288c-90 0 -159 65 -160 173c0 159 130 295 277 295zM302 418h-1c-75 0 -150 -176 -150 -300c0 -64 20 -94 51 -94c75 0 149 173 149 302c0 51 -14 92 -49 92zM269 657h6c11 -10 34 -49 38 -66l-2 -7
c-8 -19 -51 -56 -68 -63h-6c-14 13 -37 45 -43 71l1 3c27 35 60 56 74 62zM462 657h6c11 -10 34 -49 38 -66l-2 -7c-9 -19 -52 -56 -68 -63h-6c-15 13 -36 45 -43 71l1 3c26 35 60 56 74 62z" />
    <glyph glyph-name="ograve" unicode="&#xf2;" horiz-adv-x="502" 
d="M310 455h1c95 0 158 -70 158 -180c0 -148 -118 -288 -276 -288c-90 0 -159 65 -160 173c0 159 130 295 277 295zM302 418h-1c-75 0 -150 -176 -150 -300c0 -64 20 -94 51 -94c75 0 149 173 149 302c0 51 -14 92 -49 92zM373 512l-30 -16l-123 172l3 10c22 11 68 18 97 15
z" />
    <glyph glyph-name="otilde" unicode="&#xf5;" horiz-adv-x="502" 
d="M310 455h1c95 0 158 -70 158 -180c0 -148 -118 -288 -276 -288c-90 0 -159 65 -160 173c0 159 130 295 277 295zM302 418h-1c-75 0 -150 -176 -150 -300c0 -64 20 -94 51 -94c75 0 149 173 149 302c0 51 -14 92 -49 92zM480 632l21 -21c-49 -70 -87 -87 -110 -87
c-16 0 -34 9 -63 24c-26 12 -37 18 -51 18c-19 0 -45 -18 -70 -43l-23 23c49 66 86 85 112 85c15 0 30 -7 56 -20c20 -11 40 -22 55 -22c19 0 43 11 73 43z" />
    <glyph glyph-name="scaron" unicode="&#x161;" horiz-adv-x="377" 
d="M252 455h1c46 0 94 -17 113 -36c-9 -32 -37 -87 -50 -105l-15 -6c-5 19 -15 58 -20 103c-5 3 -14 6 -33 6c-47 0 -79 -30 -79 -64c0 -33 31 -57 80 -97c61 -51 79 -81 79 -129c0 -66 -64 -140 -185 -140c-69 0 -134 34 -153 54c11 28 32 76 58 114l16 5
c5 -17 16 -68 24 -125c12 -6 28 -10 51 -10c53 0 86 29 86 63c0 29 -18 51 -69 92c-66 55 -81 91 -81 128c0 92 85 147 177 147zM265 509l-35 -10l-61 177l26 19l68 -95l122 95l20 -23z" />
    <glyph glyph-name="uacute" unicode="&#xfa;" horiz-adv-x="584" 
d="M136 372l-76 13l8 21c42 16 156 43 199 49l8 -1c-28 -70 -104 -314 -117 -370c-5 -17 -3 -24 7 -24c47 0 130 90 190 195c32 55 50 101 77 183c37 7 84 14 126 18l4 -7l-41 -56c-22 -59 -62 -216 -91 -331l2 -2c64 17 98 66 111 84l7 -18c-10 -56 -73 -139 -198 -139
c-18 0 -32 2 -44 6c13 42 34 113 66 219h-4c-59 -89 -121 -165 -189 -200c-28 -15 -61 -25 -92 -25c-30 0 -64 9 -43 82c29 103 73 246 90 303zM338 495l-20 24l111 153c23 4 75 -5 96 -16v-13z" />
    <glyph glyph-name="ucircumflex" unicode="&#xfb;" horiz-adv-x="584" 
d="M136 372l-76 13l8 21c42 16 156 43 199 49l8 -1c-28 -70 -104 -314 -117 -370c-5 -17 -3 -24 7 -24c47 0 130 90 190 195c32 55 50 101 77 183c37 7 84 14 126 18l4 -7l-41 -56c-22 -59 -62 -216 -91 -331l2 -2c64 17 98 66 111 84l7 -18c-10 -56 -73 -139 -198 -139
c-18 0 -32 2 -44 6c13 42 34 113 66 219h-4c-59 -89 -121 -165 -189 -200c-28 -15 -61 -25 -92 -25c-30 0 -64 9 -43 82c29 103 73 246 90 303zM385 683l34 11l62 -178l-29 -19l-67 96l-120 -96l-20 24z" />
    <glyph glyph-name="udieresis" unicode="&#xfc;" horiz-adv-x="584" 
d="M136 372l-76 13l8 21c42 16 156 43 199 49l8 -1c-28 -70 -104 -314 -117 -370c-5 -17 -3 -24 7 -24c47 0 130 90 190 195c32 55 50 101 77 183c37 7 84 14 126 18l4 -7l-41 -56c-22 -59 -62 -216 -91 -331l2 -2c64 17 98 66 111 84l7 -18c-10 -56 -73 -139 -198 -139
c-18 0 -32 2 -44 6c13 42 34 113 66 219h-4c-59 -89 -121 -165 -189 -200c-28 -15 -61 -25 -92 -25c-30 0 -64 9 -43 82c29 103 73 246 90 303zM290 657h6c11 -10 34 -49 38 -66l-2 -7c-8 -19 -51 -56 -68 -63h-6c-14 13 -37 45 -43 71l1 3c27 35 60 56 74 62zM483 657h6
c11 -10 34 -49 38 -66l-2 -7c-9 -19 -52 -56 -68 -63h-6c-15 13 -36 45 -43 71l1 3c26 35 60 56 74 62z" />
    <glyph glyph-name="ugrave" unicode="&#xf9;" horiz-adv-x="584" 
d="M136 372l-76 13l8 21c42 16 156 43 199 49l8 -1c-28 -70 -104 -314 -117 -370c-5 -17 -3 -24 7 -24c47 0 130 90 190 195c32 55 50 101 77 183c37 7 84 14 126 18l4 -7l-41 -56c-22 -59 -62 -216 -91 -331l2 -2c64 17 98 66 111 84l7 -18c-10 -56 -73 -139 -198 -139
c-18 0 -32 2 -44 6c13 42 34 113 66 219h-4c-59 -89 -121 -165 -189 -200c-28 -15 -61 -25 -92 -25c-30 0 -64 9 -43 82c29 103 73 246 90 303zM397 512l-30 -16l-123 172l3 10c22 11 68 18 97 15z" />
    <glyph glyph-name="yacute" unicode="&#xfd;" horiz-adv-x="463" 
d="M53 279l-23 23c45 113 112 153 153 154c28 -2 57 -29 75 -114c15 -69 21 -169 21 -249h2c38 59 101 228 104 282l-30 42l2 11c28 15 66 26 95 27c8 0 15 -3 14 -9c-10 -60 -27 -113 -63 -198c-57 -136 -133 -245 -193 -319c-93 -115 -170 -160 -186 -160
c-12 0 -47 26 -63 99l4 12c30 -1 65 -11 109 -30c7 3 40 28 66 65c34 48 44 86 44 153c0 91 -19 211 -41 272c-5 16 -11 25 -17 25c-9 0 -41 -36 -73 -86zM283 495l-20 24l111 153c23 4 75 -5 96 -16v-13z" />
    <glyph glyph-name="ydieresis" unicode="&#xff;" horiz-adv-x="463" 
d="M53 279l-23 23c45 113 112 153 153 154c28 -2 57 -29 75 -114c15 -69 21 -169 21 -249h2c38 59 101 228 104 282l-30 42l2 11c28 15 66 26 95 27c8 0 15 -3 14 -9c-10 -60 -27 -113 -63 -198c-57 -136 -133 -245 -193 -319c-93 -115 -170 -160 -186 -160
c-12 0 -47 26 -63 99l4 12c30 -1 65 -11 109 -30c7 3 40 28 66 65c34 48 44 86 44 153c0 91 -19 211 -41 272c-5 16 -11 25 -17 25c-9 0 -41 -36 -73 -86zM220 657h6c11 -10 34 -49 38 -66l-2 -7c-8 -19 -51 -56 -68 -63h-6c-14 13 -37 45 -43 71l1 3c27 35 60 56 74 62z
M413 657h6c11 -10 34 -49 38 -66l-2 -7c-9 -19 -52 -56 -68 -63h-6c-15 13 -36 45 -43 71l1 3c26 35 60 56 74 62z" />
    <glyph glyph-name="zcaron" unicode="&#x17e;" horiz-adv-x="447" 
d="M411 161l19 -28c-72 -137 -115 -158 -131 -164c-22 1 -56 15 -98 33c-35 15 -60 24 -78 29c-29 8 -48 5 -64 -8c-11 -8 -21 -19 -35 -38h-11c-8 10 -11 33 0 59c9 23 34 47 57 63c88 80 230 224 248 245l-1 2c-36 -7 -55 -7 -98 -3c-27 2 -43 4 -61 6
c-22 -12 -79 -71 -94 -91l-21 24c28 59 90 152 110 168c17 -5 104 -27 187 -27c37 0 64 5 104 39l16 -29c-11 -25 -188 -205 -316 -328l1 -3c22 3 50 -2 86 -13c31 -9 54 -20 75 -26c26 9 61 40 105 90zM303 509l-35 -10l-61 177l26 19l68 -95l122 95l20 -23z" />
    <glyph glyph-name="exclamsmall" unicode="&#xf721;" horiz-adv-x="265" 
d="M143 196l-38 -12c14 147 24 230 27 292l-13 39c30 22 124 43 174 39l7 -8c-14 -36 -74 -170 -157 -350zM111 145h7c15 -11 42 -59 47 -80l-1 -7c-11 -23 -62 -67 -83 -75h-7c-17 14 -43 53 -53 84l2 3c31 43 72 68 88 75z" />
    <glyph glyph-name="Hungarumlautsmall" unicode="&#xf6f8;" 
d="M166 526l-23 19l81 151c28 0 72 -12 97 -29v-10zM333 526l-23 19l81 151c28 0 76 -12 97 -29v-10z" />
    <glyph glyph-name="dollarsuperior" unicode="&#xf6e4;" horiz-adv-x="349" 
d="M306 764l14 48l30 5l-17 -57c19 -4 31 -11 41 -19c17 11 40 17 53 21l6 -7c-10 -27 -34 -81 -46 -95l-14 -5c-4 19 -9 46 -12 59c-3 5 -17 15 -35 19l-32 -101c47 -23 104 -49 104 -103c0 -82 -96 -110 -167 -107l-17 -53l-31 -6l20 61c-51 6 -99 32 -119 50
c7 19 31 57 48 76l13 4c4 -19 7 -50 10 -83c12 -8 33 -16 55 -18l34 107c-54 26 -91 53 -91 97c0 71 69 113 153 107zM269 644l29 92c-40 1 -66 -19 -66 -48c0 -21 15 -33 37 -44zM269 548l-30 -96c41 2 72 18 72 48c0 22 -17 36 -42 48z" />
    <glyph glyph-name="ampersandsmall" unicode="&#xf726;" horiz-adv-x="747" 
d="M294 451h-1c-32 0 -106 -72 -126 -197c55 20 97 39 113 50c24 27 38 67 38 104c0 26 -8 43 -24 43zM538 599l87 29c2 -9 2 -18 2 -26c-3 -90 -73 -194 -244 -287c-56 -33 -144 -76 -219 -102c-2 -68 33 -149 126 -149c100 0 188 73 227 163c-20 3 -41 4 -58 4
c-43 0 -86 -13 -123 -40l-2 30c35 45 107 78 181 78c50 0 99 -7 138 -14c29 27 56 54 84 76l17 -21c-26 -36 -57 -89 -87 -141c-33 9 -66 18 -107 22c-95 -182 -213 -233 -322 -233c-113 0 -185 76 -185 195c0 182 161 310 277 310c54 0 76 -42 74 -81c0 -16 -4 -33 -11 -47
l2 -1c105 71 136 148 142 209c1 11 1 16 1 26z" />
    <glyph glyph-name="Acutesmall" unicode="&#xf7b4;" 
d="M249 525l-21 25l114 141c23 1 73 -15 95 -30l-2 -13z" />
    <glyph glyph-name="parenleftsuperior" unicode="&#x207d;" horiz-adv-x="213" 
d="M321 816l13 -17c-79 -62 -143 -184 -142 -309c0 -68 16 -117 28 -144l-21 -15c-43 43 -75 118 -74 198c1 102 61 225 196 287z" />
    <glyph glyph-name="parenrightsuperior" unicode="&#x207e;" horiz-adv-x="213" 
d="M74 331l-14 19c79 61 144 182 143 307c0 69 -17 119 -28 146l20 13c44 -43 76 -117 75 -198c-1 -102 -60 -224 -196 -287z" />
    <glyph glyph-name="twodotenleader" unicode="&#x2025;" horiz-adv-x="552" 
d="M109 145h7c15 -11 42 -59 47 -80l-1 -7c-11 -23 -62 -67 -83 -75h-7c-17 14 -43 53 -53 84l2 3c30 43 72 68 88 75zM383 145h8c14 -11 41 -59 46 -80l-1 -7c-11 -23 -62 -67 -83 -75h-7c-17 14 -43 53 -53 84l2 3c31 43 72 68 88 75z" />
    <glyph glyph-name="onedotenleader" unicode="&#x2024;" horiz-adv-x="549" 
d="M248 145h8c14 -11 41 -59 46 -80l-1 -7c-11 -23 -62 -67 -83 -75h-7c-17 14 -43 53 -53 84l2 3c30 43 72 68 88 75z" />
    <glyph glyph-name="zerooldstyle" unicode="&#xf730;" horiz-adv-x="526" 
d="M316 459h1c99 0 168 -68 168 -190c0 -147 -114 -282 -272 -282c-106 0 -172 70 -172 182c0 151 116 290 275 290zM311 422h-1c-83 0 -153 -168 -153 -294c0 -64 26 -103 62 -103c84 0 150 171 150 297c0 74 -30 100 -58 100z" />
    <glyph glyph-name="oneoldstyle" unicode="&#xf731;" horiz-adv-x="401" 
d="M192 366l-113 1l11 24c26 10 136 38 224 68h11c-23 -85 -93 -373 -101 -403l99 -32l-12 -25c-53 0 -107 2 -162 2c-54 0 -108 -2 -162 -2l9 25l104 32c18 53 70 222 92 310z" />
    <glyph glyph-name="twooldstyle" unicode="&#xf732;" horiz-adv-x="501" 
d="M-7 11l48 57c13 5 22 9 35 16c98 54 225 141 225 240c0 51 -28 88 -80 88c-17 0 -31 -6 -42 -10c-8 -22 -34 -89 -52 -117l-18 -8c-10 17 -32 76 -36 100c51 40 125 83 201 83c84 0 154 -44 154 -133c0 -124 -188 -190 -287 -243v-2c37 0 173 5 211 6c17 15 60 57 82 74
l21 -17c-11 -27 -43 -98 -76 -150c-23 0 -137 5 -228 5h-160z" />
    <glyph glyph-name="threeoldstyle" unicode="&#xf733;" horiz-adv-x="477" 
d="M129 303l-18 -9c-8 12 -28 59 -35 94c60 46 128 71 184 71c105 0 147 -64 147 -121c0 -82 -80 -123 -161 -149l-1 -4c90 -16 139 -64 139 -139c0 -115 -125 -181 -247 -181c-73 0 -133 27 -165 55c12 29 54 89 68 102l14 6c7 -22 13 -71 18 -116c11 -4 24 -6 37 -6
c78 0 144 56 144 148c0 68 -34 98 -70 103c-33 -7 -67 -12 -82 -12l-5 9c3 13 23 42 37 53c18 -1 41 -5 60 -6c68 20 94 71 94 125c0 53 -29 87 -80 87c-16 0 -25 -4 -35 -7c-8 -24 -30 -80 -43 -103z" />
    <glyph glyph-name="fouroldstyle" unicode="&#xf734;" horiz-adv-x="550" 
d="M360 60l-42 -174c-18 -8 -108 -21 -123 -21l-5 5c7 27 19 62 54 189l-236 -4l-8 34c66 85 299 325 332 347c17 10 93 23 127 24l-89 -359h41c23 21 48 39 65 50h17c-7 -22 -40 -117 -53 -139l-17 -6c-7 14 -15 33 -22 55zM255 102l86 295h-2
c-132 -135 -179 -196 -256 -290c27 -3 100 -5 172 -5z" />
    <glyph glyph-name="fiveoldstyle" unicode="&#xf735;" horiz-adv-x="453" 
d="M55 177l-7 8c22 65 90 227 106 261c64 -1 170 -1 184 0c10 1 33 7 80 33l17 -17c-12 -22 -47 -69 -70 -90c-9 -7 -17 -11 -31 -13c-32 -4 -118 -7 -165 -8c-11 -20 -33 -66 -50 -107c23 -8 64 -21 109 -36c100 -34 142 -79 142 -152c0 -107 -104 -191 -235 -191
c-51 0 -111 19 -157 48c13 31 48 94 62 107l15 5c7 -18 18 -91 21 -115c9 -2 21 -4 34 -4c98 0 145 62 145 118c0 74 -71 107 -200 153z" />
    <glyph glyph-name="sixoldstyle" unicode="&#xf736;" horiz-adv-x="529" 
d="M520 601l9 -31c-29 -8 -100 -26 -168 -65c-83 -49 -134 -109 -161 -171l2 -1c56 33 98 50 136 50c69 0 140 -48 140 -163c0 -129 -103 -233 -241 -233c-118 0 -188 80 -188 203c0 104 51 222 170 307c99 69 227 103 301 104zM241 23h1c60 0 115 94 115 194
c0 86 -37 109 -76 109c-28 0 -58 -13 -92 -42c-11 -23 -22 -75 -22 -132c0 -80 29 -129 74 -129z" />
    <glyph glyph-name="sevenoldstyle" unicode="&#xf737;" horiz-adv-x="476" 
d="M40 -135l-6 11c21 41 83 118 159 209c69 83 149 182 209 265v2c-25 0 -60 1 -122 1c-64 0 -100 -1 -132 -2c-14 -15 -38 -48 -64 -72l-18 5c6 40 26 143 34 167l5 4c45 -9 57 -9 69 -9c109 0 226 0 325 1l-24 -63c-14 -29 -77 -117 -145 -207
c-76 -100 -156 -210 -169 -244l-13 -54z" />
    <glyph glyph-name="eightoldstyle" unicode="&#xf738;" horiz-adv-x="499" 
d="M339 320v-1c53 -43 97 -88 97 -159c0 -93 -86 -173 -223 -173c-120 0 -188 64 -188 139c0 72 50 110 158 168v2c-44 34 -74 77 -74 134c0 98 88 171 199 171c97 0 162 -59 162 -133c0 -68 -52 -104 -131 -148zM296 565h-1c-51 0 -86 -44 -86 -98c0 -53 43 -88 99 -127
c38 28 68 70 68 124c0 57 -30 101 -80 101zM225 22h1c61 0 101 45 101 104c0 62 -55 104 -113 147c-50 -33 -84 -80 -84 -139c0 -65 38 -112 95 -112z" />
    <glyph glyph-name="nineoldstyle" unicode="&#xf739;" horiz-adv-x="516" 
d="M291 459h1c100 0 177 -73 177 -205c0 -103 -45 -220 -179 -305c-88 -56 -188 -79 -256 -84l-9 32c32 10 93 29 154 69c70 43 113 92 144 146l-1 2c-42 -29 -84 -45 -124 -45c-78 0 -145 57 -145 162c0 121 110 228 238 228zM287 423h-2c-59 0 -115 -84 -115 -182
c0 -84 41 -114 86 -114c23 0 57 12 78 33c12 26 23 81 23 126c0 92 -28 137 -70 137z" />
    <glyph glyph-name="commasuperior" unicode="&#xf6e2;" horiz-adv-x="202" 
d="M74 330l-14 22c49 27 92 71 92 120c0 14 -3 22 -7 30l-35 22l1 11l73 46h14c12 -6 34 -32 34 -74c0 -84 -66 -143 -158 -177z" />
    <glyph glyph-name="threequartersemdash" unicode="&#xf6de;" horiz-adv-x="786" 
d="M720 198h-680l27 67h680z" />
    <glyph glyph-name="periodsuperior" unicode="&#xf6e8;" horiz-adv-x="202" 
d="M188 558h6c12 -10 35 -51 40 -69l-1 -7c-10 -19 -54 -57 -72 -64h-5c-15 12 -37 46 -46 73l2 2c25 38 62 59 76 65z" />
    <glyph glyph-name="questionsmall" unicode="&#xf73f;" horiz-adv-x="424" 
d="M164 402l-16 -5c-14 20 -29 68 -35 96c56 36 118 61 178 61c69 0 148 -35 148 -119c0 -51 -38 -81 -88 -115c-69 -45 -107 -75 -110 -101c-1 -7 -1 -15 2 -24l-27 -11c-30 9 -70 50 -71 99c19 31 53 56 118 103c43 31 69 52 69 80s-28 48 -66 48c-20 0 -35 -4 -43 -7
c-29 -54 -45 -88 -59 -105zM198 145h7c15 -11 42 -58 47 -80l-1 -7c-11 -22 -62 -67 -84 -75h-6c-18 14 -44 54 -53 84l2 4c31 41 72 68 88 74z" />
    <glyph glyph-name="asuperior" unicode="&#xf6e9;" horiz-adv-x="367" 
d="M382 563l-27 -39c-16 -47 -34 -117 -46 -167c27 8 53 35 67 49l5 -4c-1 -44 -54 -100 -142 -100c-7 0 -12 1 -16 4c6 23 21 76 28 98h-3c-37 -50 -91 -102 -145 -102c-33 0 -50 24 -50 59c0 50 34 121 102 168c28 20 58 31 85 31c28 0 44 -12 52 -26l7 20l80 13zM145 351
h1c11 0 37 13 82 71c29 38 39 63 48 87c-3 9 -12 21 -26 21s-30 -7 -47 -25c-38 -37 -68 -101 -68 -139c0 -9 3 -15 10 -15z" />
    <glyph glyph-name="bsuperior" unicode="&#xf6ea;" horiz-adv-x="362" 
d="M115 653l7 18c31 8 110 17 132 17c-6 -20 -29 -79 -70 -207h1c52 63 95 83 132 82c35 0 60 -27 60 -69c0 -107 -96 -192 -200 -192c-46 0 -97 23 -112 34c32 112 78 269 90 307zM177 332h1c56 0 110 105 111 163c0 14 -6 23 -15 23c-10 0 -25 -6 -48 -30
c-42 -43 -57 -80 -77 -149c8 -5 17 -7 28 -7z" />
    <glyph glyph-name="centsuperior" unicode="&#xf6e0;" horiz-adv-x="349" 
d="M269 511l56 183c-62 -11 -99 -67 -99 -124c0 -34 18 -53 43 -59zM333 721l13 48l30 3l-15 -51c40 -3 64 -15 69 -20c-2 -11 -24 -62 -32 -71l-14 -5c-5 12 -12 43 -19 67c-2 1 -5 3 -11 3l-56 -185c38 1 78 27 93 40l9 -22c-23 -27 -63 -52 -113 -58l-17 -55l-31 -5
l18 57c-73 2 -125 40 -125 104c1 88 89 148 201 150z" />
    <glyph glyph-name="dsuperior" unicode="&#xf6eb;" horiz-adv-x="383" 
d="M277 650l10 19c22 9 71 18 132 19c-6 -18 -76 -246 -98 -335c33 10 62 43 72 54l5 -10c-5 -48 -55 -95 -142 -95c-11 0 -25 2 -29 4c8 24 23 73 27 89h-3c-41 -52 -83 -93 -141 -93c-34 0 -55 28 -55 67c1 86 84 194 176 194c28 0 43 -14 54 -43c21 69 30 100 36 121z
M241 531h-1c-41 0 -101 -103 -101 -159c0 -16 5 -23 13 -23c14 0 50 17 84 71c21 31 27 54 27 71c1 22 -7 40 -22 40z" />
    <glyph glyph-name="esuperior" unicode="&#xf6ec;" horiz-adv-x="306" 
d="M306 395l3 -26c-32 -39 -83 -67 -143 -67c-61 0 -99 31 -100 94c0 70 62 167 179 167c57 0 84 -30 85 -64c0 -11 -3 -21 -8 -29c-4 -7 -9 -12 -21 -19c-19 -10 -72 -28 -146 -38c-1 -7 -2 -14 -2 -22c0 -22 14 -45 48 -45c36 0 80 24 105 49zM237 535h-1
c-18 0 -59 -32 -76 -95c19 3 39 9 53 13c16 6 27 13 32 22c6 11 9 22 9 36c0 17 -10 24 -17 24z" />
    <glyph glyph-name="isuperior" unicode="&#xf6ed;" horiz-adv-x="213" 
d="M208 720h4c11 -8 29 -39 31 -55l-1 -4c-7 -15 -43 -46 -56 -51h-6c-11 9 -28 36 -34 57l1 2c22 29 50 46 61 51zM122 509l-41 6l7 18c23 10 115 30 134 30c-51 -155 -67 -208 -71 -221c24 4 66 35 80 49l1 -6c-5 -27 -35 -83 -122 -83c-28 0 -50 16 -35 65
c3 11 26 82 47 142z" />
    <glyph glyph-name="lsuperior" unicode="&#xf6ee;" horiz-adv-x="215" 
d="M158 645l-41 8l9 18c26 8 113 17 132 17c-14 -33 -25 -70 -57 -176c-31 -106 -44 -153 -50 -175c23 7 61 39 77 59l4 -7c-4 -32 -31 -88 -120 -88c-35 0 -51 16 -39 60c6 19 60 203 85 284z" />
    <glyph glyph-name="msuperior" unicode="&#xf6ef;" horiz-adv-x="540" 
d="M538 358l-12 -24c-34 -11 -123 -29 -141 -37l-5 6c19 54 57 162 68 199c2 7 2 12 -3 12c-17 0 -69 -56 -96 -101c-20 -32 -30 -56 -47 -104l-84 -5c20 54 58 165 69 201c2 6 1 11 -3 11c-17 0 -70 -57 -95 -103c-20 -34 -31 -59 -48 -103l-84 -5c16 42 46 127 65 207
l-44 7l7 19c23 8 106 25 130 25c-12 -34 -25 -73 -40 -115h1c35 45 72 85 110 102c18 9 35 13 51 13c26 0 32 -15 26 -40c-6 -21 -15 -53 -24 -74h1c35 47 74 85 112 101c19 9 35 12 57 12c34 0 34 -14 24 -48c-20 -64 -44 -138 -48 -155z" />
    <glyph glyph-name="nsuperior" unicode="&#x207f;" horiz-adv-x="373" 
d="M378 359l-12 -24c-33 -11 -122 -29 -140 -37l-5 6c19 55 57 162 68 200c2 7 2 12 -2 12c-17 0 -71 -55 -97 -100c-19 -33 -30 -58 -46 -106l-84 -5c15 42 44 128 64 208l-44 7l8 18c22 8 105 25 129 25c-12 -34 -23 -69 -39 -111h1c38 47 75 82 114 99c19 9 34 12 57 12
c33 0 33 -14 23 -48c-20 -64 -44 -138 -48 -155z" />
    <glyph glyph-name="osuperior" unicode="&#xf6f0;" horiz-adv-x="339" 
d="M241 563h1c71 0 110 -42 110 -103c0 -85 -74 -158 -177 -158c-71 0 -110 43 -110 98c0 84 79 163 176 163zM240 535h-1c-46 0 -86 -102 -86 -164c0 -30 13 -40 26 -40c51 0 86 108 86 161c0 29 -10 43 -25 43z" />
    <glyph glyph-name="rsuperior" unicode="&#xf6f1;" horiz-adv-x="273" 
d="M80 517l4 17c17 11 90 27 112 30c1 -19 -1 -52 -13 -99h1c51 90 92 99 113 99c14 0 24 -3 33 -10c-2 -13 -27 -70 -38 -84l-16 -6c-5 12 -6 21 -14 44c-1 1 -3 1 -6 1c-8 0 -25 -6 -61 -77c-16 -33 -28 -71 -43 -123l-86 -5c32 97 56 187 58 206z" />
    <glyph glyph-name="ssuperior" unicode="&#xf6f2;" horiz-adv-x="263" 
d="M251 478l-12 -5c-4 11 -10 35 -16 59c-6 3 -10 5 -21 5c-24 0 -40 -15 -40 -30s16 -28 47 -50c38 -28 50 -44 50 -72c0 -41 -42 -83 -118 -83c-48 0 -87 20 -101 33c8 21 21 46 34 66l15 5c5 -11 11 -43 19 -71c8 -3 19 -5 30 -5c25 0 42 11 42 29c0 11 -5 22 -40 46
c-37 28 -48 47 -48 72c0 49 48 86 115 86c36 0 64 -13 79 -24c-7 -16 -24 -47 -35 -61z" />
    <glyph glyph-name="tsuperior" unicode="&#xf6f3;" horiz-adv-x="248" 
d="M154 610l87 39l8 -6l-27 -85h75l-13 -27l-71 -7c-12 -38 -18 -57 -54 -186c35 7 63 29 93 67l7 -9c-17 -79 -94 -94 -126 -94c-35 0 -59 13 -64 25c23 83 47 159 58 197l-45 7l14 27h40z" />
    <glyph glyph-name="parenleftinferior" unicode="&#x208d;" horiz-adv-x="213" 
d="M177 262l13 -17c-79 -62 -143 -184 -142 -309c0 -68 16 -117 28 -144l-21 -15c-43 43 -75 118 -74 198c1 102 61 225 196 287z" />
    <glyph glyph-name="parenrightinferior" unicode="&#x208e;" horiz-adv-x="213" 
d="M-70 -223l-14 19c79 61 144 182 143 307c0 69 -17 119 -28 146l20 13c44 -43 76 -117 75 -198c-1 -102 -60 -224 -196 -287z" />
    <glyph glyph-name="Circumflexsmall" unicode="&#xf6f6;" 
d="M302 698l29 9l76 -159l-26 -22l-80 82l-117 -82l-22 23z" />
    <glyph glyph-name="hyphensuperior" unicode="&#xf6e6;" horiz-adv-x="274" 
d="M299 554l-178 -28l32 72l43 -1l139 11l3 -7z" />
    <glyph glyph-name="Gravesmall" unicode="&#xf760;" 
d="M315 548l-26 -23l-155 144l1 11c18 16 62 32 95 35z" />
    <glyph glyph-name="Asmall" unicode="&#xf761;" horiz-adv-x="588" 
d="M301 460l102 36l5 -8c-4 -10 -7 -27 -5 -46c3 -35 15 -129 49 -366c3 -17 14 -29 68 -51l-10 -26c-35 0 -71 1 -106 1c-38 0 -75 -1 -112 -1l8 25l37 26c0 12 -6 56 -10 109c-28 -1 -64 -4 -163 -3c-34 -54 -49 -79 -60 -100l67 -32l-10 -25c-33 0 -67 1 -99 1
s-65 -1 -97 -1l10 26l59 30c27 30 166 235 261 376c5 9 6 16 6 21v8zM304 378h-3c-57 -92 -76 -121 -109 -175c29 0 105 -3 131 -3c-8 70 -15 133 -19 178z" />
    <glyph glyph-name="Bsmall" unicode="&#xf762;" horiz-adv-x="574" 
d="M106 447l12 24c32 3 126 11 196 11c142 0 209 -33 209 -106c0 -75 -73 -107 -164 -121v-3c99 -11 151 -46 151 -111c0 -98 -111 -145 -301 -144c-69 1 -150 2 -221 3l9 25l68 27c4 11 22 62 48 157l60 219zM289 446l-47 -179c89 1 161 33 161 104c0 52 -38 75 -94 75h-20
zM235 234l-4 -15c-14 -47 -39 -148 -48 -186c75 2 122 10 155 32c32 20 45 50 45 78c0 47 -29 88 -148 91z" />
    <glyph glyph-name="Csmall" unicode="&#xf763;" horiz-adv-x="570" 
d="M506 142l11 -21c-20 -37 -48 -81 -73 -106c-46 -18 -98 -28 -149 -28c-150 0 -245 85 -245 220c0 156 130 283 322 283c47 0 93 -14 116 -33c21 14 51 26 73 32l11 -5c-13 -47 -55 -140 -65 -154l-17 -5c-5 22 -15 71 -17 101c-18 12 -47 20 -82 20
c-130 0 -214 -111 -214 -236c0 -105 62 -174 159 -174c17 0 32 1 43 4c41 36 91 79 127 102z" />
    <glyph glyph-name="Dsmall" unicode="&#xf764;" horiz-adv-x="640" 
d="M107 448l11 25c28 1 99 9 184 9c199 0 296 -79 296 -215c0 -134 -93 -232 -261 -259c-46 -9 -109 -11 -170 -11c-72 0 -139 2 -174 3l9 24l66 23c8 17 25 81 58 201l50 183zM473 281v1c0 44 -14 80 -34 105c-36 44 -106 57 -149 57l-49 -196c-29 -119 -50 -198 -51 -215
c50 0 116 7 173 41c80 48 110 133 110 207z" />
    <glyph glyph-name="Esmall" unicode="&#xf765;" horiz-adv-x="533" 
d="M104 454l12 24c37 0 74 -1 110 -1h193c10 2 59 10 89 12l4 -3c-6 -23 -32 -109 -46 -141l-15 -4c-10 27 -24 75 -32 98l-134 -7l-42 -162c66 0 142 4 195 9l5 -12c-5 -8 -52 -50 -56 -50c-7 0 -130 7 -153 8c-12 -44 -33 -129 -46 -179l152 -8c36 33 87 79 125 109l14 -8
c-11 -35 -41 -111 -59 -141c-74 2 -119 2 -165 2h-138c-45 0 -89 -1 -134 -1l10 25l72 28c4 6 26 78 58 197l49 177z" />
    <glyph glyph-name="Fsmall" unicode="&#xf766;" horiz-adv-x="498" 
d="M101 453l15 24c38 0 76 -1 114 -1h196c11 3 61 11 89 14l5 -4c-5 -17 -30 -97 -49 -144l-17 -7c-10 31 -22 79 -29 103l-139 -8l-46 -173c63 0 144 3 195 9l6 -12c-5 -11 -50 -50 -54 -50c-8 0 -124 8 -156 8c-29 -119 -38 -150 -40 -159l93 -30l-13 -24
c-50 0 -101 1 -151 1c-41 0 -82 -1 -124 -1l8 23l63 32c3 8 20 62 56 193l49 179z" />
    <glyph glyph-name="Gsmall" unicode="&#xf767;" horiz-adv-x="620" 
d="M463 -14h-5c-40 5 -64 18 -70 24c-34 -15 -78 -23 -112 -23c-144 0 -228 89 -228 218c0 154 130 286 335 286c53 0 98 -14 121 -31c23 11 68 24 83 26l6 -6c-8 -33 -49 -127 -67 -153l-18 -7c-6 21 -14 79 -16 105c-16 12 -45 22 -88 22c-135 0 -229 -111 -229 -242
c0 -117 71 -170 153 -170c22 0 44 3 59 9c13 41 34 103 50 146l-142 6v9l40 30c45 5 173 7 240 7c-19 -57 -96 -233 -112 -256z" />
    <glyph glyph-name="Hsmall" unicode="&#xf768;" horiz-adv-x="673" 
d="M110 454l12 25c38 0 75 -1 112 -1c36 0 71 1 106 1l-9 -27l-45 -25l-38 -149h206l41 149l-38 27l10 25c30 0 61 -1 90 -1c40 0 81 1 123 1l-12 -27l-61 -25c-15 -56 -30 -118 -46 -179c-21 -83 -46 -184 -47 -194l63 -29l-12 -26c-41 0 -82 2 -124 2
c-34 0 -68 -2 -103 -2l8 26l45 27c19 58 34 117 52 184c-38 -3 -63 -5 -97 -5h-108c-16 -52 -30 -113 -46 -179l43 -27l-11 -26c-35 0 -69 2 -104 2c-41 0 -82 -1 -124 -2l11 26l60 28c5 12 35 110 59 198l48 177z" />
    <glyph glyph-name="Ismall" unicode="&#xf769;" horiz-adv-x="350" 
d="M113 455l10 24c38 0 75 -1 112 -1c40 0 80 1 121 1l-10 -27l-60 -28l-45 -174c-32 -121 -45 -187 -47 -196l68 -30l-10 -25c-44 0 -88 1 -133 1c-42 0 -85 -1 -128 -1l9 25l68 30c5 10 25 80 57 196l48 174z" />
    <glyph glyph-name="Jsmall" unicode="&#xf76a;" horiz-adv-x="332" 
d="M101 453l12 26c39 0 77 -1 116 -1c42 0 83 1 126 1l-11 -29l-58 -25c-11 -45 -75 -281 -87 -326c-10 -36 -22 -63 -38 -87c-44 -66 -136 -107 -184 -116l-17 24l2 4c17 7 45 23 65 44c22 24 36 57 53 115c32 111 60 231 88 343z" />
    <glyph glyph-name="Ksmall" unicode="&#xf76b;" horiz-adv-x="607" 
d="M646 477l-13 -27c-15 -7 -59 -19 -86 -26c-5 -1 -12 -4 -20 -11c-46 -31 -94 -70 -169 -134c-2 -2 -1 -4 -1 -5c32 -52 77 -125 117 -185c37 -55 56 -81 62 -93l-9 -8c-93 2 -129 22 -162 62c-29 36 -77 110 -112 182l1 5c137 117 188 166 219 198c-6 11 -10 28 -12 44
c90 2 159 -2 185 -2zM113 455l10 24c38 0 75 -1 113 -1c40 0 81 1 122 1l-11 -26l-60 -27l-46 -176c-31 -121 -46 -187 -47 -195l68 -31l-10 -25c-42 0 -84 1 -128 1s-88 -1 -133 -1l9 25l68 30c6 10 26 79 58 196l48 176z" />
    <glyph glyph-name="Lsmall" unicode="&#xf76c;" horiz-adv-x="502" 
d="M110 453l12 26c36 0 73 -1 110 -1c43 0 85 1 128 1l-14 -28l-61 -26l-48 -177c-30 -114 -50 -196 -51 -203l138 -8c21 23 92 92 113 108l12 -9c-10 -38 -42 -112 -54 -139c-30 0 -77 3 -257 3c-50 0 -100 -1 -149 -1l10 24l65 27c4 12 25 85 57 198l51 179z" />
    <glyph glyph-name="Msmall" unicode="&#xf76d;" horiz-adv-x="776" 
d="M129 451l11 26l171 1c-6 -16 -5 -25 -3 -36c9 -38 40 -157 67 -263h2c26 34 101 139 190 269c5 9 7 16 8 30l191 -2l-10 -26l-73 -23c-13 -72 -51 -348 -52 -374l69 -29l-10 -25c-43 0 -85 1 -127 1c-40 0 -80 -1 -120 -1l9 25l56 29c24 114 47 231 71 347h-3
c-61 -90 -141 -213 -256 -401l-28 -7c-16 89 -27 161 -68 369h-1c-31 -80 -75 -206 -109 -306l70 -32l-11 -24c-34 0 -69 1 -104 1c-30 0 -61 -1 -93 -1l10 25l63 30c40 83 106 236 156 358c-2 16 -16 22 -76 39z" />
    <glyph glyph-name="Nsmall" unicode="&#xf76e;" horiz-adv-x="635" 
d="M202 23l-11 -24c-36 0 -73 1 -111 1c-30 0 -60 -1 -93 -1l8 24l64 31c16 33 52 141 111 349c-14 28 -28 32 -84 51l11 23l164 4c3 -17 7 -27 19 -48c69 -133 127 -238 171 -315h1c10 34 72 275 78 307l-73 30l11 24c32 0 67 -1 99 -1s65 1 98 1l-10 -26l-64 -28
c-11 -25 -70 -222 -111 -371l53 -44l-6 -10l-139 -9c-23 38 -105 198 -188 363h-2c-29 -107 -69 -266 -74 -301z" />
    <glyph glyph-name="Osmall" unicode="&#xf76f;" horiz-adv-x="629" 
d="M353 490h1c112 0 234 -62 234 -224c0 -133 -93 -279 -304 -279c-120 0 -237 69 -237 224c0 138 116 279 306 279zM359 454h-1c-108 0 -186 -147 -186 -281c0 -95 41 -150 108 -150c111 0 183 160 183 280c0 105 -43 151 -104 151z" />
    <glyph glyph-name="Psmall" unicode="&#xf770;" horiz-adv-x="547" 
d="M99 444l15 26c54 7 120 12 188 12c119 0 225 -30 226 -145c0 -100 -98 -161 -219 -161c-23 0 -39 2 -48 5l-6 32h17c79 0 133 60 133 133c0 70 -50 95 -115 98l-47 -186c-45 -180 -47 -196 -49 -205l81 -29l-11 -25c-46 0 -93 1 -140 1c-42 0 -85 -1 -128 -1l8 25l65 31
c4 10 15 45 58 200l47 172z" />
    <glyph glyph-name="Qsmall" unicode="&#xf771;" horiz-adv-x="629" 
d="M595 -139l-10 -10c-73 -9 -137 6 -180 25c-42 18 -98 48 -167 97c-14 8 -27 17 -42 23c-79 29 -149 99 -149 208c0 148 115 286 309 286c114 0 233 -70 233 -231c0 -136 -99 -225 -220 -257v-2c112 -66 188 -112 226 -139zM357 454h-1c-109 0 -185 -153 -185 -279
c0 -95 42 -149 102 -164c120 15 191 164 191 291c0 103 -44 152 -107 152z" />
    <glyph glyph-name="Rsmall" unicode="&#xf772;" horiz-adv-x="573" 
d="M100 440l14 27c56 8 119 15 191 15c164 0 219 -48 219 -125c0 -72 -66 -111 -142 -128l-1 -2c18 -37 52 -103 85 -167c21 -38 30 -54 35 -66l-7 -6c-85 1 -121 25 -143 59c-32 47 -62 105 -92 174l2 8c82 13 143 43 143 124c0 65 -47 91 -121 91l-53 -213
c-24 -100 -37 -145 -42 -175l72 -31l-10 -26c-42 0 -85 1 -128 1c-44 0 -88 -1 -131 -1l10 26l65 31c10 23 26 78 52 174l54 198z" />
    <glyph glyph-name="Ssmall" unicode="&#xf773;" horiz-adv-x="460" 
d="M259 491h1c52 0 80 -15 97 -30c24 15 58 25 76 31l6 -5c-11 -45 -41 -132 -55 -153l-16 -2c-8 21 -16 62 -23 96c-10 8 -33 20 -68 20c-58 0 -89 -33 -89 -69c0 -25 14 -44 40 -62c30 -22 57 -38 104 -70c51 -35 68 -71 68 -107c0 -93 -79 -153 -208 -153
c-74 0 -152 36 -185 65c2 15 39 92 63 124l15 3c7 -24 16 -83 25 -138c20 -10 44 -14 71 -14c63 0 106 32 106 76c0 26 -10 43 -42 66c-36 26 -65 45 -97 69c-39 30 -62 66 -62 108c0 84 75 145 173 145z" />
    <glyph glyph-name="Tsmall" unicode="&#xf774;" horiz-adv-x="552" 
d="M184 476h307c20 3 63 9 92 12l4 -4c-7 -21 -43 -111 -64 -149l-17 -8c-6 31 -14 86 -18 112l-99 -7l-43 -167c-45 -175 -49 -193 -53 -209l95 -31l-12 -26c-51 0 -102 1 -153 1s-103 -1 -154 -1l12 26l86 31c8 20 25 80 55 186l53 191l-96 6c-24 -26 -75 -82 -101 -107
l-20 -3c14 53 37 129 46 154l5 4c15 0 56 -7 75 -11z" />
    <glyph glyph-name="Usmall" unicode="&#xf775;" horiz-adv-x="655" 
d="M162 426l-63 28l10 24c30 0 72 -1 105 -1c36 0 77 1 104 1l-10 -27l-35 -25c-5 -12 -58 -188 -77 -276c-16 -81 22 -98 57 -98c56 0 122 42 147 70l89 304l-44 26l9 26c32 -1 65 -1 99 -1c45 0 83 1 116 1l-10 -26l-60 -28c-10 -27 -98 -355 -98 -372l67 -18l-11 -25
c-49 -6 -150 -16 -186 -22l-4 2l25 83l-2 1c-37 -34 -106 -86 -195 -86c-29 0 -59 6 -82 20c-32 21 -58 60 -33 153c23 83 76 245 82 266z" />
    <glyph glyph-name="Vsmall" unicode="&#xf776;" horiz-adv-x="578" 
d="M300 478l-9 -25l-40 -25c3 -23 15 -113 42 -311c42 62 126 192 196 311l-37 26l10 24c24 0 49 -1 72 -1c32 0 64 1 96 1l-8 -24c-59 -25 -66 -31 -78 -43c-37 -43 -212 -305 -259 -378l-66 -50h-13c-7 48 -36 234 -68 423c-2 17 -9 22 -65 48l9 24c38 0 74 -1 110 -1
s71 1 108 1z" />
    <glyph glyph-name="Wsmall" unicode="&#xf777;" horiz-adv-x="802" 
d="M70 454l9 25c34 0 68 -1 101 -1c31 0 63 1 95 1l-8 -26l-28 -25c5 -30 15 -83 62 -309h2c28 38 54 71 94 132c-13 64 -29 129 -37 161c-5 15 -19 22 -56 42l10 25c31 0 62 -1 91 -1h70l-1 -3l-5 -37c-1 -17 3 -33 19 -104h2c30 46 48 72 62 100l10 41l2 3h40
c24 0 49 1 73 1l-9 -26c-45 -22 -59 -27 -68 -37c-11 -15 -40 -46 -101 -130c3 -20 19 -82 36 -163h2c47 72 130 196 190 305l-19 25l9 25h58c28 0 56 1 85 1l-10 -27c-54 -24 -62 -28 -75 -45c-25 -32 -136 -196 -249 -368c-15 -19 -37 -41 -57 -56h-12
c-7 29 -26 120 -49 217h-2c-45 -61 -78 -107 -117 -160c-15 -19 -38 -43 -57 -57h-13c-10 47 -66 326 -88 420c-5 20 -13 26 -61 51z" />
    <glyph glyph-name="Xsmall" unicode="&#xf778;" horiz-adv-x="575" 
d="M87 454l10 25c41 0 81 -2 121 -2c36 0 71 2 109 2l-8 -26l-41 -24c21 -50 40 -95 51 -120c36 38 61 65 106 121l-36 23l9 25c29 0 55 -1 80 -1c32 0 64 1 98 1l-9 -26c-63 -21 -74 -26 -87 -37c-23 -20 -58 -52 -144 -141c31 -76 74 -174 90 -209c5 -10 12 -12 27 -18
l59 -23l-12 -25c-43 0 -85 1 -127 1c-30 0 -61 -1 -91 -1c15 28 25 47 23 52c-8 22 -26 68 -58 148c-50 -57 -63 -71 -128 -149l34 -27l-10 -24c-27 0 -54 1 -81 1c-32 0 -65 -1 -98 -1l10 25l74 32c25 18 81 71 184 179c-30 73 -64 148 -78 178c-5 9 -10 14 -21 19z" />
    <glyph glyph-name="Ysmall" unicode="&#xf779;" horiz-adv-x="531" 
d="M72 453l11 25c37 0 74 -1 111 -1c30 0 70 1 103 1l-10 -26l-36 -24c5 -19 22 -70 55 -172h2c49 58 106 130 136 172l-30 26l11 24c22 0 45 -1 68 -1c29 0 60 1 91 1l-10 -26l-67 -30c-30 -28 -82 -79 -172 -190c-6 -8 -11 -15 -14 -27c-29 -108 -39 -146 -39 -153l84 -28
l-12 -25c-49 0 -99 1 -149 1c-44 0 -88 -1 -132 -1l10 26l76 26c5 9 16 40 49 153c3 9 1 20 -3 30c-12 33 -42 118 -68 179c-4 10 -11 15 -65 40z" />
    <glyph glyph-name="Zsmall" unicode="&#xf77a;" horiz-adv-x="543" 
d="M534 476l-2 -12c-31 -33 -237 -269 -368 -424c35 -1 163 -4 197 -4c24 27 88 94 119 122h19c-10 -40 -40 -128 -54 -161c-53 0 -242 3 -442 3l-9 14c55 58 260 294 370 420c-34 0 -122 2 -181 2c-20 -25 -52 -66 -86 -105l-20 -4c7 40 23 135 29 158l7 3
c45 -7 65 -10 76 -12h345z" />
    <glyph glyph-name="colonmonetary" unicode="&#x20a1;" horiz-adv-x="633" 
d="M422 628l25 76l37 6l-28 -80c23 -1 42 -4 65 -11l28 85l36 6l-34 -101c16 -8 27 -14 37 -23c24 13 49 24 73 33l6 -7c-16 -60 -58 -149 -71 -166l-12 -5c-6 29 -11 71 -13 109c-8 8 -20 17 -32 21l-171 -518c23 0 50 4 72 11c41 34 81 68 136 115l14 -18
c-22 -39 -53 -84 -83 -117c-43 -16 -95 -30 -154 -33l-25 -78l-37 -6l27 83c-25 1 -44 5 -63 10l-29 -87l-37 -6l33 102c-102 35 -155 122 -155 240c0 190 147 344 355 359zM245 97l162 487c-124 -31 -215 -169 -215 -325c0 -66 14 -125 53 -162zM443 589l-170 -515
c17 -11 32 -17 59 -20l176 528c-22 8 -46 9 -65 7z" />
    <glyph glyph-name="rupiah" unicode="&#xf6dd;" horiz-adv-x="1068" 
d="M140 311l76 284l-79 11l13 28c58 9 146 19 215 19c165 0 225 -60 225 -159c0 -116 -102 -164 -181 -183l-2 -3c44 -98 93 -192 148 -285l3 1c35 128 76 287 97 371l1 62l132 35c-18 -52 -39 -129 -62 -207h3c84 118 156 158 216 158c58 0 92 -50 92 -127
c0 -116 -70 -232 -161 -289c-36 -22 -82 -38 -118 -38c-30 0 -63 7 -88 48c-9 -34 -25 -92 -47 -191l85 -24l-8 -25c-27 -1 -208 -12 -264 -12l6 26l65 30c9 30 24 80 42 146c-80 6 -115 34 -144 74c-35 52 -80 143 -122 244l1 6c101 20 184 63 184 172
c0 98 -50 132 -133 129l-78 -300c-35 -134 -56 -210 -64 -255l92 -34l-11 -24c-49 0 -99 2 -152 2c-45 0 -94 -2 -143 -2l10 25l76 33c12 34 40 126 75 254zM889 380h-1c-21 0 -66 -23 -132 -122c-32 -48 -58 -113 -57 -163c1 -36 20 -66 52 -66c33 0 61 22 96 70
c46 65 74 159 74 225c0 35 -10 56 -32 56z" />
    <glyph glyph-name="Tildesmall" unicode="&#xf6fe;" 
d="M448 674l23 -23c-46 -71 -90 -88 -114 -89c-17 0 -35 9 -65 23c-27 12 -39 19 -53 19c-21 0 -45 -19 -71 -44l-25 25c51 69 89 88 116 88c14 0 31 -7 58 -21c21 -10 41 -21 56 -21c20 0 44 12 75 43z" />
    <glyph glyph-name="exclamdownsmall" unicode="&#xf7a1;" horiz-adv-x="265" 
d="M176 391h-7c-15 12 -42 59 -47 81l1 7c11 22 62 67 83 75h7c17 -15 43 -54 53 -85l-2 -3c-30 -42 -72 -68 -88 -75zM144 340l38 12c-13 -147 -24 -229 -27 -291l13 -39c-29 -23 -123 -43 -174 -39l-7 8c14 35 74 169 157 349z" />
    <glyph glyph-name="Lslashsmall" unicode="&#xf6f9;" horiz-adv-x="515" 
d="M48 205l85 37l51 186l-62 26l11 25c36 0 71 -1 107 -1c43 0 87 1 130 1l-12 -27l-60 -24l-35 -131l112 50l-15 -48l-108 -47c-33 -127 -52 -201 -52 -206l138 -10c22 25 90 94 112 110l11 -7c-10 -38 -41 -116 -53 -142c-30 0 -77 3 -257 3c-50 0 -100 -1 -149 -1l8 24
l66 26c3 7 21 60 45 147l-87 -38z" />
    <glyph glyph-name="Scaronsmall" unicode="&#xf6fd;" horiz-adv-x="460" 
d="M259 491h1c52 0 80 -15 97 -30c24 15 58 25 76 31l6 -5c-11 -45 -41 -132 -55 -153l-16 -2c-8 21 -16 62 -23 96c-10 8 -33 20 -68 20c-58 0 -89 -33 -89 -69c0 -25 14 -44 40 -62c30 -22 57 -38 104 -70c51 -35 68 -71 68 -107c0 -93 -79 -153 -208 -153
c-74 0 -152 36 -185 65c2 15 39 92 63 124l15 3c7 -24 16 -83 25 -138c20 -10 44 -14 71 -14c63 0 106 32 106 76c0 26 -10 43 -42 66c-36 26 -65 45 -97 69c-39 30 -62 66 -62 108c0 84 75 145 173 145zM295 555l-28 -9l-76 158l29 22l75 -81l118 81l22 -23z" />
    <glyph glyph-name="Zcaronsmall" unicode="&#xf6ff;" horiz-adv-x="543" 
d="M534 476l-2 -12c-31 -33 -237 -269 -368 -424c35 -1 163 -4 197 -4c24 27 88 94 119 122h19c-10 -40 -40 -128 -54 -161c-53 0 -242 3 -442 3l-9 14c55 58 260 294 370 420c-34 0 -122 2 -181 2c-20 -25 -52 -66 -86 -105l-20 -4c7 40 23 135 29 158l7 3
c45 -7 65 -10 76 -12h345zM332 538l-28 -9l-76 158l29 22l75 -81l118 81l22 -23z" />
    <glyph glyph-name="Dieresissmall" unicode="&#xf7a8;" 
d="M224 695h5c13 -10 36 -50 41 -69l-2 -7c-9 -19 -54 -58 -71 -64h-6c-15 12 -38 46 -45 73l1 3c28 37 63 59 77 64zM422 696h6c12 -10 36 -51 40 -70l-1 -7c-10 -19 -55 -58 -73 -65h-5c-17 13 -37 48 -45 75l1 2c27 36 62 59 77 65z" />
    <glyph glyph-name="Brevesmall" unicode="&#xf6f4;" 
d="M205 676l35 6c-2 -32 8 -76 67 -76c64 0 86 44 100 70l36 6c-13 -77 -53 -145 -145 -145c-91 0 -108 70 -93 139z" />
    <glyph glyph-name="Caronsmall" unicode="&#xf6f5;" 
d="M299 535l-28 -9l-76 158l29 22l75 -81l118 81l22 -23z" />
    <glyph glyph-name="Dotaccentsmall" unicode="&#xf6f7;" 
d="M329 697h6c13 -11 38 -53 41 -72l-1 -7c-10 -19 -55 -60 -74 -67h-6c-16 13 -38 48 -46 76l1 3c29 38 66 61 79 67z" />
    <glyph glyph-name="Macronsmall" unicode="&#xf7af;" 
d="M409 580h-233l25 67h232z" />
    <glyph glyph-name="figuredash" unicode="&#x2012;" horiz-adv-x="505" 
d="M465 299h-400l29 63h400z" />
    <glyph glyph-name="hypheninferior" unicode="&#xf6e5;" horiz-adv-x="274" 
d="M155 0l-178 -28l32 72l43 -1l139 11l3 -7z" />
    <glyph glyph-name="Ogoneksmall" unicode="&#xf6fb;" 
d="M249 -121l11 -29c-29 -29 -67 -53 -112 -53c-47 0 -79 30 -79 72c0 49 53 101 114 136h43c-43 -34 -80 -80 -80 -110c0 -24 15 -33 42 -33c21 0 43 8 61 17z" />
    <glyph glyph-name="Ringsmall" unicode="&#xf6fc;" 
d="M290 559h1c25 0 48 16 54 54c6 37 -12 53 -38 53c-23 0 -46 -16 -53 -53c-6 -37 14 -54 36 -54zM313 700h1c47 0 89 -31 78 -92c-9 -52 -57 -83 -107 -83c-47 0 -89 32 -80 89c10 56 62 86 108 86z" />
    <glyph glyph-name="Cedillasmall" unicode="&#xf7b8;" 
d="M133 -1h40l-46 -55c36 -21 47 -47 47 -67c0 -66 -87 -104 -143 -109l-11 28c36 11 81 33 81 65c0 16 -11 31 -49 47l-1 3z" />
    <glyph glyph-name="questiondownsmall" unicode="&#xf7bf;" horiz-adv-x="424" 
d="M251 391h-7c-14 12 -42 58 -46 81v7c12 22 63 67 84 75h6c18 -15 44 -54 53 -85l-1 -3c-31 -42 -72 -68 -89 -75zM286 137l16 5c14 -24 29 -71 34 -98c-55 -36 -117 -61 -177 -61c-68 0 -148 35 -148 121c0 52 38 79 87 113c69 46 108 75 110 101c1 7 2 14 -1 24l27 10
c29 -8 69 -49 71 -97c-20 -30 -53 -56 -117 -104c-45 -32 -70 -53 -70 -79s28 -48 67 -48c20 0 33 4 41 7c29 54 46 87 60 106z" />
    <glyph glyph-name="oneeighth" unicode="&#x215b;" horiz-adv-x="770" 
d="M219 584l-79 2l12 20c17 6 86 27 163 49h8c-16 -62 -73 -286 -78 -306l67 -21l-10 -20c-39 0 -75 1 -112 1c-40 0 -79 -1 -119 -1l8 20l67 21c14 39 53 169 73 235zM649 663l29 -28c-183 -224 -389 -477 -547 -673l-28 29c183 224 388 475 546 672zM591 335h1
c62 0 107 -35 107 -81c0 -39 -37 -60 -81 -81c30 -20 65 -46 65 -90c0 -56 -57 -102 -148 -102c-83 0 -129 41 -129 85c0 37 31 62 94 89c-29 21 -44 46 -44 76c0 62 62 104 135 104zM585 307h-1c-32 0 -52 -24 -52 -49c-1 -25 21 -44 62 -69c20 15 37 38 37 64
c0 33 -18 54 -46 54zM544 9h1c29 0 57 18 57 48c0 34 -38 54 -80 83c-20 -13 -40 -37 -40 -68c0 -37 27 -63 62 -63z" />
    <glyph glyph-name="threeeighths" unicode="&#x215c;" horiz-adv-x="770" 
d="M182 548l-11 -5c-7 11 -21 51 -25 68c41 28 91 44 131 44c71 0 102 -37 102 -76c0 -46 -45 -69 -105 -84v-3c65 -9 95 -36 95 -79c0 -71 -86 -112 -177 -112c-44 0 -93 17 -115 35c5 18 37 68 45 76l13 4c5 -15 13 -58 17 -80c9 -3 16 -4 26 -4c46 0 94 31 94 84
c0 37 -22 54 -47 54c-17 -2 -40 -7 -49 -8l-4 5c2 12 13 34 23 40c12 0 27 -4 40 -5c37 12 54 38 54 65c0 35 -21 54 -51 54c-12 0 -21 -3 -26 -6c-6 -17 -22 -54 -30 -67zM657 663l29 -28c-183 -224 -389 -477 -547 -673l-28 29c183 224 388 475 546 672zM592 335h1
c62 0 107 -35 107 -81c0 -39 -37 -60 -81 -81c30 -20 65 -46 65 -90c0 -56 -57 -102 -148 -102c-83 0 -129 41 -129 85c0 37 31 62 94 89c-29 21 -44 46 -44 76c0 62 62 104 135 104zM586 307h-1c-32 0 -52 -24 -52 -49c-1 -25 21 -44 62 -69c20 15 37 38 37 64
c0 33 -18 54 -46 54zM545 9h1c29 0 57 18 57 48c0 34 -38 54 -80 83c-20 -13 -40 -37 -40 -68c0 -37 27 -63 62 -63z" />
    <glyph glyph-name="fiveeighths" unicode="&#x215d;" horiz-adv-x="770" 
d="M138 461l-9 8c19 49 54 151 64 178h143c10 0 24 4 50 17l15 -12c-6 -11 -30 -45 -45 -60c-5 -6 -12 -9 -24 -10c-20 -1 -93 -4 -129 -5c-3 -10 -11 -29 -32 -84c16 5 60 18 87 18c72 0 110 -39 110 -90c0 -69 -70 -120 -175 -120c-39 0 -94 17 -110 33c7 20 32 66 44 80
l14 5c6 -17 14 -70 17 -83c6 -2 14 -4 29 -4c52 0 93 33 93 75c0 36 -25 63 -78 63c-21 0 -45 -4 -64 -9zM661 663l29 -28c-183 -224 -389 -477 -547 -673l-28 29c183 224 388 475 546 672zM592 335h1c62 0 107 -35 107 -81c0 -39 -37 -60 -81 -81c30 -20 65 -46 65 -90
c0 -56 -57 -102 -148 -102c-83 0 -129 41 -129 85c0 37 31 62 94 89c-29 21 -44 46 -44 76c0 62 62 104 135 104zM586 307h-1c-32 0 -52 -24 -52 -49c-1 -25 21 -44 62 -69c20 15 37 38 37 64c0 33 -18 54 -46 54zM545 9h1c29 0 57 18 57 48c0 34 -38 54 -80 83
c-20 -13 -40 -37 -40 -68c0 -37 27 -63 62 -63z" />
    <glyph glyph-name="seveneighths" unicode="&#x215e;" horiz-adv-x="770" 
d="M146 300l-8 7c7 19 42 65 85 111c47 52 94 104 135 159h-152c-11 -14 -24 -34 -35 -46l-15 -2c-2 22 0 100 2 119l4 3c31 -3 37 -3 47 -3h226l-6 -21c-20 -56 -184 -240 -207 -283l-11 -36zM631 663l29 -28c-183 -224 -389 -477 -547 -673l-28 29
c183 224 388 475 546 672zM589 335h1c62 0 107 -35 107 -81c0 -39 -37 -60 -81 -81c30 -20 65 -46 65 -90c0 -56 -57 -102 -148 -102c-83 0 -129 41 -129 85c0 37 31 62 94 89c-29 21 -44 46 -44 76c0 62 62 104 135 104zM583 307h-1c-32 0 -52 -24 -52 -49
c-1 -25 21 -44 62 -69c20 15 37 38 37 64c0 33 -18 54 -46 54zM542 9h1c29 0 57 18 57 48c0 34 -38 54 -80 83c-20 -13 -40 -37 -40 -68c0 -37 27 -63 62 -63z" />
    <glyph glyph-name="onethird" unicode="&#x2153;" horiz-adv-x="770" 
d="M222 584l-79 2l12 20c17 6 86 27 163 49h8c-16 -62 -73 -286 -78 -306l67 -21l-10 -20c-39 0 -75 1 -112 1c-40 0 -79 -1 -119 -1l8 20l67 21c14 39 53 169 73 235zM651 663l29 -28c-183 -224 -389 -477 -547 -673l-28 29c183 224 388 475 546 672zM507 228l-11 -5
c-7 11 -21 51 -25 68c41 28 91 44 131 44c71 0 102 -37 102 -76c0 -46 -45 -69 -105 -84v-3c65 -9 95 -36 95 -79c0 -71 -86 -112 -177 -112c-44 0 -93 17 -115 35c5 18 37 68 45 76l13 4c5 -15 13 -58 17 -80c9 -3 16 -4 26 -4c46 0 94 31 94 84c0 37 -22 54 -47 54
c-17 -2 -40 -7 -49 -8l-4 5c2 12 13 34 23 40c12 0 27 -4 40 -5c37 12 54 38 54 65c0 35 -21 54 -51 54c-12 0 -21 -3 -26 -6c-6 -17 -22 -54 -30 -67z" />
    <glyph glyph-name="twothirds" unicode="&#x2154;" horiz-adv-x="770" 
d="M60 320l31 40c7 3 11 5 18 9c64 44 168 114 168 194c0 36 -21 57 -49 57c-9 0 -16 -2 -23 -5c-9 -23 -24 -65 -38 -85l-17 -8c-10 16 -21 62 -24 81c32 27 86 52 140 52c58 0 110 -32 110 -97c0 -53 -45 -89 -113 -128c-42 -24 -70 -41 -101 -58c17 0 110 4 135 5
c10 9 28 26 52 45l18 -12c-13 -30 -35 -78 -53 -104c-23 0 -98 3 -154 3h-103zM663 663l29 -28c-183 -224 -389 -477 -547 -673l-28 29c183 224 388 475 546 672zM511 228l-11 -5c-7 11 -21 51 -25 68c41 28 91 44 131 44c71 0 102 -37 102 -76c0 -46 -45 -69 -105 -84v-3
c65 -9 95 -36 95 -79c0 -71 -86 -112 -177 -112c-44 0 -93 17 -115 35c5 18 37 68 45 76l13 4c5 -15 13 -58 17 -80c9 -3 16 -4 26 -4c46 0 94 31 94 84c0 37 -22 54 -47 54c-17 -2 -40 -7 -49 -8l-4 5c2 12 13 34 23 40c12 0 27 -4 40 -5c37 12 54 38 54 65
c0 35 -21 54 -51 54c-12 0 -21 -3 -26 -6c-6 -17 -22 -54 -30 -67z" />
    <glyph glyph-name="zerosuperior" unicode="&#x2070;" horiz-adv-x="349" 
d="M310 772h1c68 0 114 -47 114 -132c0 -94 -60 -222 -189 -222c-66 0 -118 41 -118 133c0 88 65 221 192 221zM309 743h-1c-51 0 -107 -137 -107 -238c0 -41 15 -58 35 -58c57 0 104 156 104 242c0 37 -10 54 -31 54z" />
    <glyph glyph-name="foursuperior" unicode="&#x2074;" horiz-adv-x="349" 
d="M332 524l-14 -58l50 -21l-8 -20c-32 0 -65 1 -98 1c-35 0 -72 -1 -107 -1l9 20l61 21l19 56l-141 -1l-5 23c40 53 178 195 195 207c14 9 79 20 99 21l-53 -214l34 -1c10 10 26 20 38 26h9c-2 -19 -21 -72 -29 -86l-9 -2c-7 10 -14 21 -17 30zM252 559l49 157h-4
c-60 -63 -92 -101 -138 -155z" />
    <glyph glyph-name="fivesuperior" unicode="&#x2075;" horiz-adv-x="349" 
d="M156 578l-9 8c19 49 54 151 64 178h143c10 0 24 4 50 17l15 -12c-6 -11 -30 -45 -45 -60c-5 -6 -12 -9 -24 -10c-20 -1 -93 -4 -129 -5c-3 -10 -11 -29 -32 -84c16 5 60 18 87 18c72 0 110 -39 110 -90c0 -69 -70 -120 -175 -120c-39 0 -94 17 -110 33c7 20 32 66 44 80
l14 5c6 -17 14 -70 17 -83c6 -2 14 -4 29 -4c52 0 93 33 93 75c0 36 -25 63 -78 63c-21 0 -45 -4 -64 -9z" />
    <glyph glyph-name="sixsuperior" unicode="&#x2076;" horiz-adv-x="349" 
d="M413 774l9 -23c-65 -16 -164 -52 -203 -147c30 17 62 29 88 29c47 0 92 -29 92 -91c0 -61 -55 -124 -158 -124c-77 0 -127 45 -127 119c0 56 28 118 98 170c50 37 138 65 201 67zM265 594h-1c-15 0 -37 -9 -51 -21c-7 -16 -12 -38 -12 -63c0 -36 15 -65 43 -65
c39 0 66 50 66 94c0 40 -21 55 -45 55z" />
    <glyph glyph-name="sevensuperior" unicode="&#x2077;" horiz-adv-x="349" 
d="M165 417l-8 7c7 19 42 65 85 111c47 52 94 104 135 159h-152c-11 -14 -24 -34 -35 -46l-15 -2c-2 22 0 100 2 119l4 3c31 -3 37 -3 47 -3h226l-6 -21c-20 -56 -184 -240 -207 -283l-11 -36z" />
    <glyph glyph-name="eightsuperior" unicode="&#x2078;" horiz-adv-x="349" 
d="M296 772h1c62 0 107 -35 107 -81c0 -39 -37 -60 -81 -81c30 -20 65 -46 65 -90c0 -56 -57 -102 -148 -102c-83 0 -129 41 -129 85c0 37 31 62 94 89c-29 21 -44 46 -44 76c0 62 62 104 135 104zM290 744h-1c-32 0 -52 -24 -52 -49c-1 -25 21 -44 62 -69
c20 15 37 38 37 64c0 33 -18 54 -46 54zM249 446h1c29 0 57 18 57 48c0 34 -38 54 -80 83c-20 -13 -40 -37 -40 -68c0 -37 27 -63 62 -63z" />
    <glyph glyph-name="ninesuperior" unicode="&#x2079;" horiz-adv-x="349" 
d="M145 416l-9 22c75 22 156 66 186 142c-27 -14 -57 -24 -80 -24c-52 0 -96 32 -96 93s61 123 150 123c80 0 127 -52 127 -130c0 -141 -156 -218 -278 -226zM297 744h-1c-35 0 -62 -46 -62 -89c0 -46 25 -60 49 -60c16 0 31 4 44 14c4 13 11 34 11 65c0 53 -20 70 -41 70z
" />
    <glyph glyph-name="zeroinferior" unicode="&#x2080;" horiz-adv-x="349" 
d="M166 218h1c68 0 114 -47 114 -132c0 -94 -60 -222 -189 -222c-66 0 -118 41 -118 133c0 88 65 221 192 221zM165 189h-1c-51 0 -107 -137 -107 -238c0 -41 15 -58 35 -58c57 0 104 156 104 242c0 37 -10 54 -31 54z" />
    <glyph glyph-name="oneinferior" unicode="&#x2081;" horiz-adv-x="349" 
d="M122 147l-79 2l12 20c17 6 86 27 163 49h8c-16 -62 -73 -286 -78 -306l67 -21l-10 -20c-39 0 -75 1 -112 1c-40 0 -79 -1 -119 -1l8 20l67 21c14 39 53 169 73 235z" />
    <glyph glyph-name="twoinferior" unicode="&#x2082;" horiz-adv-x="349" 
d="M-53 -117l31 40c7 3 11 5 18 9c64 44 168 114 168 194c0 36 -21 57 -49 57c-9 0 -16 -2 -23 -5c-9 -23 -24 -65 -38 -85l-17 -8c-10 16 -21 62 -24 81c32 27 86 52 140 52c58 0 110 -32 110 -97c0 -53 -45 -89 -113 -128c-42 -24 -70 -41 -101 -58c17 0 110 4 135 5
c10 9 28 26 52 45l18 -12c-13 -30 -35 -78 -53 -104c-23 0 -98 3 -154 3h-103z" />
    <glyph glyph-name="threeinferior" unicode="&#x2083;" horiz-adv-x="349" 
d="M58 111l-11 -5c-7 11 -21 51 -25 68c41 28 91 44 131 44c71 0 102 -37 102 -76c0 -46 -45 -69 -105 -84v-3c65 -9 95 -36 95 -79c0 -71 -86 -112 -177 -112c-44 0 -93 17 -115 35c5 18 37 68 45 76l13 4c5 -15 13 -58 17 -80c9 -3 16 -4 26 -4c46 0 94 31 94 84
c0 37 -22 54 -47 54c-17 -2 -40 -7 -49 -8l-4 5c2 12 13 34 23 40c12 0 27 -4 40 -5c37 12 54 38 54 65c0 35 -21 54 -51 54c-12 0 -21 -3 -26 -6c-6 -17 -22 -54 -30 -67z" />
    <glyph glyph-name="fourinferior" unicode="&#x2084;" horiz-adv-x="349" 
d="M188 -30l-14 -58l50 -21l-8 -20c-32 0 -65 1 -98 1c-35 0 -72 -1 -107 -1l9 20l61 21l19 56l-141 -1l-5 23c40 53 178 195 195 207c14 9 79 20 99 21l-53 -214l34 -1c10 10 26 20 38 26h9c-2 -19 -21 -72 -29 -86l-9 -2c-7 10 -14 21 -17 30zM108 5l49 157h-4
c-60 -63 -92 -101 -138 -155z" />
    <glyph glyph-name="fiveinferior" unicode="&#x2085;" horiz-adv-x="349" 
d="M12 24l-9 8c19 49 54 151 64 178h143c10 0 24 4 50 17l15 -12c-6 -11 -30 -45 -45 -60c-5 -6 -12 -9 -24 -10c-20 -1 -93 -4 -129 -5c-3 -10 -11 -29 -32 -84c16 5 60 18 87 18c72 0 110 -39 110 -90c0 -69 -70 -120 -175 -120c-39 0 -94 17 -110 33c7 20 32 66 44 80
l14 5c6 -17 14 -70 17 -83c6 -2 14 -4 29 -4c52 0 93 33 93 75c0 36 -25 63 -78 63c-21 0 -45 -4 -64 -9z" />
    <glyph glyph-name="sixinferior" unicode="&#x2086;" horiz-adv-x="349" 
d="M269 220l9 -23c-65 -16 -164 -52 -203 -147c30 17 62 29 88 29c47 0 92 -29 92 -91c0 -61 -55 -124 -158 -124c-77 0 -127 45 -127 119c0 56 28 118 98 170c50 37 138 65 201 67zM121 40h-1c-15 0 -37 -9 -51 -21c-7 -16 -12 -38 -12 -63c0 -36 15 -65 43 -65
c39 0 66 50 66 94c0 40 -21 55 -45 55z" />
    <glyph glyph-name="seveninferior" unicode="&#x2087;" horiz-adv-x="349" 
d="M21 -137l-8 7c7 19 42 65 85 111c47 52 94 104 135 159h-152c-11 -14 -24 -34 -35 -46l-15 -2c-2 22 0 100 2 119l4 3c31 -3 37 -3 47 -3h226l-6 -21c-20 -56 -184 -240 -207 -283l-11 -36z" />
    <glyph glyph-name="eightinferior" unicode="&#x2088;" horiz-adv-x="349" 
d="M152 218h1c62 0 107 -35 107 -81c0 -39 -37 -60 -81 -81c30 -20 65 -46 65 -90c0 -56 -57 -102 -148 -102c-83 0 -129 41 -129 85c0 37 31 62 94 89c-29 21 -44 46 -44 76c0 62 62 104 135 104zM146 190h-1c-32 0 -52 -24 -52 -49c-1 -25 21 -44 62 -69
c20 15 37 38 37 64c0 33 -18 54 -46 54zM105 -108h1c29 0 57 18 57 48c0 34 -38 54 -80 83c-20 -13 -40 -37 -40 -68c0 -37 27 -63 62 -63z" />
    <glyph glyph-name="nineinferior" unicode="&#x2089;" horiz-adv-x="349" 
d="M1 -138l-9 22c75 22 156 66 186 142c-27 -14 -57 -24 -80 -24c-52 0 -96 32 -96 93s61 123 150 123c80 0 127 -52 127 -130c0 -141 -156 -218 -278 -226zM153 190h-1c-35 0 -62 -46 -62 -89c0 -46 25 -60 49 -60c16 0 31 4 44 14c4 13 11 34 11 65c0 53 -20 70 -41 70z
" />
    <glyph glyph-name="centinferior" unicode="&#xf6df;" horiz-adv-x="349" 
d="M125 -43l56 183c-62 -11 -99 -67 -99 -124c0 -34 18 -53 43 -59zM189 167l13 48l30 3l-15 -51c40 -3 64 -15 69 -20c-2 -11 -24 -62 -32 -71l-14 -5c-5 12 -12 43 -19 67c-2 1 -5 3 -11 3l-56 -185c38 1 78 27 93 40l9 -22c-23 -27 -63 -52 -113 -58l-17 -55l-31 -5
l18 57c-73 2 -125 40 -125 104c1 88 89 148 201 150z" />
    <glyph glyph-name="dollarinferior" unicode="&#xf6e3;" horiz-adv-x="349" 
d="M162 210l14 48l30 5l-17 -57c19 -4 31 -11 41 -19c17 11 40 17 53 21l6 -7c-10 -27 -34 -81 -46 -95l-14 -5c-4 19 -9 46 -12 59c-3 5 -17 15 -35 19l-32 -101c47 -23 104 -49 104 -103c0 -82 -96 -110 -167 -107l-17 -53l-31 -6l20 61c-51 6 -99 32 -119 50
c7 19 31 57 48 76l13 4c4 -19 7 -50 10 -83c12 -8 33 -16 55 -18l34 107c-54 26 -91 53 -91 97c0 71 69 113 153 107zM125 90l29 92c-40 1 -66 -19 -66 -48c0 -21 15 -33 37 -44zM125 -6l-30 -96c41 2 72 18 72 48c0 22 -17 36 -42 48z" />
    <glyph glyph-name="periodinferior" unicode="&#xf6e7;" horiz-adv-x="202" 
d="M44 4h6c12 -10 35 -51 40 -69l-1 -7c-10 -19 -54 -57 -72 -64h-5c-15 12 -37 46 -46 73l2 2c25 38 62 59 76 65z" />
    <glyph glyph-name="commainferior" unicode="&#xf6e1;" horiz-adv-x="202" 
d="M-70 -224l-14 22c49 27 92 71 92 120c0 14 -3 22 -7 30l-35 22l1 11l73 46h14c12 -6 34 -32 34 -74c0 -84 -66 -143 -158 -177z" />
    <glyph glyph-name="Agravesmall" unicode="&#xf7e0;" horiz-adv-x="588" 
d="M301 460l102 36l5 -8c-4 -10 -7 -27 -5 -46c3 -35 15 -129 49 -366c3 -17 14 -29 68 -51l-10 -26c-35 0 -71 1 -106 1c-38 0 -75 -1 -112 -1l8 25l37 26c0 12 -6 56 -10 109c-28 -1 -64 -4 -163 -3c-34 -54 -49 -79 -60 -100l67 -32l-10 -25c-33 0 -67 1 -99 1
s-65 -1 -97 -1l10 26l59 30c27 30 166 235 261 376c5 9 6 16 6 21v8zM304 378h-3c-57 -92 -76 -121 -109 -175c29 0 105 -3 131 -3c-8 70 -15 133 -19 178zM415 563l-26 -23l-155 144l1 11c18 16 62 32 95 35z" />
    <glyph glyph-name="Aacutesmall" unicode="&#xf7e1;" horiz-adv-x="588" 
d="M301 460l102 36l5 -8c-4 -10 -7 -27 -5 -46c3 -35 15 -129 49 -366c3 -17 14 -29 68 -51l-10 -26c-35 0 -71 1 -106 1c-38 0 -75 -1 -112 -1l8 25l37 26c0 12 -6 56 -10 109c-28 -1 -64 -4 -163 -3c-34 -54 -49 -79 -60 -100l67 -32l-10 -25c-33 0 -67 1 -99 1
s-65 -1 -97 -1l10 26l59 30c27 30 166 235 261 376c5 9 6 16 6 21v8zM304 378h-3c-57 -92 -76 -121 -109 -175c29 0 105 -3 131 -3c-8 70 -15 133 -19 178zM335 540l-21 25l114 141c23 1 73 -15 95 -30l-2 -13z" />
    <glyph glyph-name="Acircumflexsmall" unicode="&#xf7e2;" horiz-adv-x="588" 
d="M301 460l102 36l5 -8c-4 -10 -7 -27 -5 -46c3 -35 15 -129 49 -366c3 -17 14 -29 68 -51l-10 -26c-35 0 -71 1 -106 1c-38 0 -75 -1 -112 -1l8 25l37 26c0 12 -6 56 -10 109c-28 -1 -64 -4 -163 -3c-34 -54 -49 -79 -60 -100l67 -32l-10 -25c-33 0 -67 1 -99 1
s-65 -1 -97 -1l10 26l59 30c27 30 166 235 261 376c5 9 6 16 6 21v8zM304 378h-3c-57 -92 -76 -121 -109 -175c29 0 105 -3 131 -3c-8 70 -15 133 -19 178zM382 707l29 9l76 -159l-26 -22l-80 82l-117 -82l-22 23z" />
    <glyph glyph-name="Atildesmall" unicode="&#xf7e3;" horiz-adv-x="588" 
d="M301 460l102 36l5 -8c-4 -10 -7 -27 -5 -46c3 -35 15 -129 49 -366c3 -17 14 -29 68 -51l-10 -26c-35 0 -71 1 -106 1c-38 0 -75 -1 -112 -1l8 25l37 26c0 12 -6 56 -10 109c-28 -1 -64 -4 -163 -3c-34 -54 -49 -79 -60 -100l67 -32l-10 -25c-33 0 -67 1 -99 1
s-65 -1 -97 -1l10 26l59 30c27 30 166 235 261 376c5 9 6 16 6 21v8zM304 378h-3c-57 -92 -76 -121 -109 -175c29 0 105 -3 131 -3c-8 70 -15 133 -19 178zM516 668l23 -23c-46 -71 -90 -88 -114 -89c-17 0 -35 9 -65 23c-27 12 -39 19 -53 19c-21 0 -45 -19 -71 -44l-25 25
c51 69 89 88 116 88c14 0 31 -7 58 -21c21 -10 41 -21 56 -21c20 0 44 12 75 43z" />
    <glyph glyph-name="Adieresissmall" unicode="&#xf7e4;" horiz-adv-x="588" 
d="M301 460l102 36l5 -8c-4 -10 -7 -27 -5 -46c3 -35 15 -129 49 -366c3 -17 14 -29 68 -51l-10 -26c-35 0 -71 1 -106 1c-38 0 -75 -1 -112 -1l8 25l37 26c0 12 -6 56 -10 109c-28 -1 -64 -4 -163 -3c-34 -54 -49 -79 -60 -100l67 -32l-10 -25c-33 0 -67 1 -99 1
s-65 -1 -97 -1l10 26l59 30c27 30 166 235 261 376c5 9 6 16 6 21v8zM304 378h-3c-57 -92 -76 -121 -109 -175c29 0 105 -3 131 -3c-8 70 -15 133 -19 178zM290 688h5c13 -10 36 -50 41 -69l-2 -7c-9 -19 -54 -58 -71 -64h-6c-15 12 -38 46 -45 73l1 3c28 37 63 59 77 64z
M488 689h6c12 -10 36 -51 40 -70l-1 -7c-10 -19 -55 -58 -73 -65h-5c-17 13 -37 48 -45 75l1 2c27 36 62 59 77 65z" />
    <glyph glyph-name="Aringsmall" unicode="&#xf7e5;" horiz-adv-x="588" 
d="M301 460l102 36l5 -8c-4 -10 -7 -27 -5 -46c3 -35 15 -129 49 -366c3 -17 14 -29 68 -51l-10 -26c-35 0 -71 1 -106 1c-38 0 -75 -1 -112 -1l8 25l37 26c0 12 -6 56 -10 109c-28 -1 -64 -4 -163 -3c-34 -54 -49 -79 -60 -100l67 -32l-10 -25c-33 0 -67 1 -99 1
s-65 -1 -97 -1l10 26l59 30c27 30 166 235 261 376c5 9 6 16 6 21v8zM304 378h-3c-57 -92 -76 -121 -109 -175c29 0 105 -3 131 -3c-8 70 -15 133 -19 178zM366 564h1c25 0 48 16 54 54c6 37 -12 53 -38 53c-23 0 -46 -16 -53 -53c-6 -37 14 -54 36 -54zM389 705h1
c47 0 89 -31 78 -92c-9 -52 -57 -83 -107 -83c-47 0 -89 32 -80 89c10 56 62 86 108 86z" />
    <glyph glyph-name="AEsmall" unicode="&#xf7e6;" horiz-adv-x="799" 
d="M381 210h-162c-17 -26 -52 -68 -114 -159l60 -27l-9 -25c-32 0 -67 1 -101 1c-30 0 -61 0 -92 -1l10 25l60 27c101 123 205 255 302 381l-90 21l13 24c57 0 109 -1 158 -1h274c9 1 57 10 88 13l5 -3c-6 -23 -31 -104 -46 -141l-15 -5c-10 30 -23 75 -31 98l-145 -5
l-40 -178c65 0 152 4 206 9l3 -11c-5 -8 -52 -49 -57 -49c-6 0 -129 6 -162 6c-10 -47 -25 -112 -36 -164l154 -8c37 34 88 79 124 107l12 -7c-10 -34 -41 -110 -59 -140c-73 2 -120 2 -165 2h-137c-43 0 -87 -1 -131 -1l9 25l71 29c4 12 23 74 43 157zM251 255h141l46 182
h-47c-46 -56 -90 -114 -140 -182z" />
    <glyph glyph-name="Ccedillasmall" unicode="&#xf7e7;" horiz-adv-x="570" 
d="M205 -82l65 70v1c-136 9 -220 91 -220 219c0 157 130 283 322 283c48 0 94 -14 116 -33c22 14 51 25 73 31l11 -5c-12 -47 -55 -140 -65 -154l-16 -4c-6 21 -15 70 -17 101c-19 12 -47 20 -84 20c-128 0 -213 -113 -213 -236c0 -105 63 -175 159 -175c18 0 32 2 43 4
c41 36 91 79 128 102l11 -21c-20 -36 -49 -81 -74 -106c-41 -15 -87 -25 -132 -27l-30 -36c35 -21 47 -47 47 -67c0 -67 -87 -104 -143 -110l-12 28c37 12 82 34 82 65c0 17 -12 32 -50 47z" />
    <glyph glyph-name="Egravesmall" unicode="&#xf7e8;" horiz-adv-x="533" 
d="M104 454l12 24c37 0 74 -1 110 -1h193c10 2 59 10 89 12l4 -3c-6 -23 -32 -109 -46 -141l-15 -4c-10 27 -24 75 -32 98l-134 -7l-42 -162c66 0 142 4 195 9l5 -12c-5 -8 -52 -50 -56 -50c-7 0 -130 7 -153 8c-12 -44 -33 -129 -46 -179l152 -8c36 33 87 79 125 109l14 -8
c-11 -35 -41 -111 -59 -141c-74 2 -119 2 -165 2h-138c-45 0 -89 -1 -134 -1l10 25l72 28c4 6 26 78 58 197l49 177zM388 549l-26 -23l-155 144l1 11c18 16 62 32 95 35z" />
    <glyph glyph-name="Eacutesmall" unicode="&#xf7e9;" horiz-adv-x="533" 
d="M104 454l12 24c37 0 74 -1 110 -1h193c10 2 59 10 89 12l4 -3c-6 -23 -32 -109 -46 -141l-15 -4c-10 27 -24 75 -32 98l-134 -7l-42 -162c66 0 142 4 195 9l5 -12c-5 -8 -52 -50 -56 -50c-7 0 -130 7 -153 8c-12 -44 -33 -129 -46 -179l152 -8c36 33 87 79 125 109l14 -8
c-11 -35 -41 -111 -59 -141c-74 2 -119 2 -165 2h-138c-45 0 -89 -1 -134 -1l10 25l72 28c4 6 26 78 58 197l49 177zM309 534l-21 25l114 141c23 1 73 -15 95 -30l-2 -13z" />
    <glyph glyph-name="Ecircumflexsmall" unicode="&#xf7ea;" horiz-adv-x="533" 
d="M104 454l12 24c37 0 74 -1 110 -1h193c10 2 59 10 89 12l4 -3c-6 -23 -32 -109 -46 -141l-15 -4c-10 27 -24 75 -32 98l-134 -7l-42 -162c66 0 142 4 195 9l5 -12c-5 -8 -52 -50 -56 -50c-7 0 -130 7 -153 8c-12 -44 -33 -129 -46 -179l152 -8c36 33 87 79 125 109l14 -8
c-11 -35 -41 -111 -59 -141c-74 2 -119 2 -165 2h-138c-45 0 -89 -1 -134 -1l10 25l72 28c4 6 26 78 58 197l49 177zM359 704l29 9l76 -159l-26 -22l-80 82l-117 -82l-22 23z" />
    <glyph glyph-name="Edieresissmall" unicode="&#xf7eb;" horiz-adv-x="533" 
d="M104 454l12 24c37 0 74 -1 110 -1h193c10 2 59 10 89 12l4 -3c-6 -23 -32 -109 -46 -141l-15 -4c-10 27 -24 75 -32 98l-134 -7l-42 -162c66 0 142 4 195 9l5 -12c-5 -8 -52 -50 -56 -50c-7 0 -130 7 -153 8c-12 -44 -33 -129 -46 -179l152 -8c36 33 87 79 125 109l14 -8
c-11 -35 -41 -111 -59 -141c-74 2 -119 2 -165 2h-138c-45 0 -89 -1 -134 -1l10 25l72 28c4 6 26 78 58 197l49 177zM265 698h5c13 -10 36 -50 41 -69l-2 -7c-9 -19 -54 -58 -71 -64h-6c-15 12 -38 46 -45 73l1 3c28 37 63 59 77 64zM463 699h6c12 -10 36 -51 40 -70l-1 -7
c-10 -19 -55 -58 -73 -65h-5c-17 13 -37 48 -45 75l1 2c27 36 62 59 77 65z" />
    <glyph glyph-name="Igravesmall" unicode="&#xf7ec;" horiz-adv-x="350" 
d="M113 455l10 24c38 0 75 -1 112 -1c40 0 80 1 121 1l-10 -27l-60 -28l-45 -174c-32 -121 -45 -187 -47 -196l68 -30l-10 -25c-44 0 -88 1 -133 1c-42 0 -85 -1 -128 -1l9 25l68 30c5 10 25 80 57 196l48 174zM304 548l-26 -23l-155 144l1 11c18 16 62 32 95 35z" />
    <glyph glyph-name="Iacutesmall" unicode="&#xf7ed;" horiz-adv-x="350" 
d="M113 455l10 24c38 0 75 -1 112 -1c40 0 80 1 121 1l-10 -27l-60 -28l-45 -174c-32 -121 -45 -187 -47 -196l68 -30l-10 -25c-44 0 -88 1 -133 1c-42 0 -85 -1 -128 -1l9 25l68 30c5 10 25 80 57 196l48 174zM227 527l-21 25l114 141c23 1 73 -15 95 -30l-2 -13z" />
    <glyph glyph-name="Icircumflexsmall" unicode="&#xf7ee;" horiz-adv-x="350" 
d="M113 455l10 24c38 0 75 -1 112 -1c40 0 80 1 121 1l-10 -27l-60 -28l-45 -174c-32 -121 -45 -187 -47 -196l68 -30l-10 -25c-44 0 -88 1 -133 1c-42 0 -85 -1 -128 -1l9 25l68 30c5 10 25 80 57 196l48 174zM268 703l29 9l76 -159l-26 -22l-80 82l-117 -82l-22 23z" />
    <glyph glyph-name="Idieresissmall" unicode="&#xf7ef;" horiz-adv-x="350" 
d="M113 455l10 24c38 0 75 -1 112 -1c40 0 80 1 121 1l-10 -27l-60 -28l-45 -174c-32 -121 -45 -187 -47 -196l68 -30l-10 -25c-44 0 -88 1 -133 1c-42 0 -85 -1 -128 -1l9 25l68 30c5 10 25 80 57 196l48 174zM189 696h5c13 -10 36 -50 41 -69l-2 -7
c-9 -19 -54 -58 -71 -64h-6c-15 12 -38 46 -45 73l1 3c28 37 63 59 77 64zM387 697h6c12 -10 36 -51 40 -70l-1 -7c-10 -19 -55 -58 -73 -65h-5c-17 13 -37 48 -45 75l1 2c27 36 62 59 77 65z" />
    <glyph glyph-name="Ethsmall" unicode="&#xf7f0;" horiz-adv-x="653" 
d="M71 270h72l44 161l-68 16l10 26c28 1 103 9 186 9c198 0 294 -75 294 -212c0 -134 -97 -233 -266 -262c-47 -9 -104 -11 -163 -11c-67 0 -128 2 -176 3l10 25l65 24c8 16 23 69 53 180h-78zM259 270h116l-19 -41h-108c-28 -111 -46 -181 -48 -196c50 0 112 6 170 41
c81 49 114 129 114 209c0 44 -12 79 -34 105c-36 45 -106 57 -147 57z" />
    <glyph glyph-name="Ntildesmall" unicode="&#xf7f1;" horiz-adv-x="635" 
d="M202 23l-11 -24c-36 0 -73 1 -111 1c-30 0 -60 -1 -93 -1l8 24l64 31c16 33 52 141 111 349c-14 28 -28 32 -84 51l11 23l164 4c3 -17 7 -27 19 -48c69 -133 127 -238 171 -315h1c10 34 72 275 78 307l-73 30l11 24c32 0 67 -1 99 -1s65 1 98 1l-10 -26l-64 -28
c-11 -25 -70 -222 -111 -371l53 -44l-6 -10l-139 -9c-23 38 -105 198 -188 363h-2c-29 -107 -69 -266 -74 -301zM550 665l23 -23c-46 -71 -90 -88 -114 -89c-17 0 -35 9 -65 23c-27 12 -39 19 -53 19c-21 0 -45 -19 -71 -44l-25 25c51 69 89 88 116 88c14 0 31 -7 58 -21
c21 -10 41 -21 56 -21c20 0 44 12 75 43z" />
    <glyph glyph-name="Ogravesmall" unicode="&#xf7f2;" horiz-adv-x="629" 
d="M353 490h1c112 0 234 -62 234 -224c0 -133 -93 -279 -304 -279c-120 0 -237 69 -237 224c0 138 116 279 306 279zM359 454h-1c-108 0 -186 -147 -186 -281c0 -95 41 -150 108 -150c111 0 183 160 183 280c0 105 -43 151 -104 151zM441 561l-26 -23l-155 144l1 11
c18 16 62 32 95 35z" />
    <glyph glyph-name="Oacutesmall" unicode="&#xf7f3;" horiz-adv-x="629" 
d="M353 490h1c112 0 234 -62 234 -224c0 -133 -93 -279 -304 -279c-120 0 -237 69 -237 224c0 138 116 279 306 279zM359 454h-1c-108 0 -186 -147 -186 -281c0 -95 41 -150 108 -150c111 0 183 160 183 280c0 105 -43 151 -104 151zM345 545l-21 25l114 141
c23 1 73 -15 95 -30l-2 -13z" />
    <glyph glyph-name="Ocircumflexsmall" unicode="&#xf7f4;" horiz-adv-x="629" 
d="M353 490h1c112 0 234 -62 234 -224c0 -133 -93 -279 -304 -279c-120 0 -237 69 -237 224c0 138 116 279 306 279zM359 454h-1c-108 0 -186 -147 -186 -281c0 -95 41 -150 108 -150c111 0 183 160 183 280c0 105 -43 151 -104 151zM392 714l29 9l76 -159l-26 -22l-80 82
l-117 -82l-22 23z" />
    <glyph glyph-name="Otildesmall" unicode="&#xf7f5;" horiz-adv-x="629" 
d="M353 490h1c112 0 234 -62 234 -224c0 -133 -93 -279 -304 -279c-120 0 -237 69 -237 224c0 138 116 279 306 279zM359 454h-1c-108 0 -186 -147 -186 -281c0 -95 41 -150 108 -150c111 0 183 160 183 280c0 105 -43 151 -104 151zM527 672l23 -23
c-46 -71 -90 -88 -114 -89c-17 0 -35 9 -65 23c-27 12 -39 19 -53 19c-21 0 -45 -19 -71 -44l-25 25c51 69 89 88 116 88c14 0 31 -7 58 -21c21 -10 41 -21 56 -21c20 0 44 12 75 43z" />
    <glyph glyph-name="Odieresissmall" unicode="&#xf7f6;" horiz-adv-x="629" 
d="M353 490h1c112 0 234 -62 234 -224c0 -133 -93 -279 -304 -279c-120 0 -237 69 -237 224c0 138 116 279 306 279zM359 454h-1c-108 0 -186 -147 -186 -281c0 -95 41 -150 108 -150c111 0 183 160 183 280c0 105 -43 151 -104 151zM313 695h5c13 -10 36 -50 41 -69l-2 -7
c-9 -19 -54 -58 -71 -64h-6c-15 12 -38 46 -45 73l1 3c28 37 63 59 77 64zM511 696h6c12 -10 36 -51 40 -70l-1 -7c-10 -19 -55 -58 -73 -65h-5c-17 13 -37 48 -45 75l1 2c27 36 62 59 77 65z" />
    <glyph glyph-name="OEsmall" unicode="&#xf6fa;" horiz-adv-x="860" 
d="M394 39l112 395c-15 5 -47 12 -74 12c-163 0 -249 -111 -249 -237c0 -105 67 -178 166 -178c17 0 34 3 45 8zM586 477h172c11 2 57 10 85 13l5 -4c-6 -23 -33 -106 -47 -140l-14 -5c-11 29 -24 75 -32 98l-134 -7l-44 -162c65 0 143 4 196 9l4 -11
c-7 -12 -51 -51 -56 -51c-7 0 -130 7 -153 7c-13 -41 -34 -126 -48 -177l154 -8c36 33 87 81 124 110l14 -9c-11 -34 -42 -111 -60 -141c-82 1 -128 1 -173 1h-115c-33 0 -114 -5 -138 -5c-188 0 -273 95 -273 218c0 145 117 269 359 269c67 0 153 -5 174 -5z" />
    <glyph glyph-name="Oslashsmall" unicode="&#xf7f8;" horiz-adv-x="629" 
d="M501 447l57 56l22 -26l-52 -51c37 -38 61 -91 61 -164c0 -129 -98 -275 -307 -275c-54 0 -108 15 -150 47l-71 -70l-21 29l65 64c-35 35 -58 87 -58 154c0 136 115 279 307 279c53 0 104 -12 147 -43zM180 128l266 266c-15 40 -41 60 -86 60c-110 0 -188 -149 -188 -284
c0 -17 3 -32 6 -42h2zM456 357l-267 -269c17 -43 48 -65 89 -65c114 0 186 160 186 280c0 20 -2 39 -6 53z" />
    <glyph glyph-name="Ugravesmall" unicode="&#xf7f9;" horiz-adv-x="655" 
d="M162 426l-63 28l10 24c30 0 72 -1 105 -1c36 0 77 1 104 1l-10 -27l-35 -25c-5 -12 -58 -188 -77 -276c-16 -81 22 -98 57 -98c56 0 122 42 147 70l89 304l-44 26l9 26c32 -1 65 -1 99 -1c45 0 83 1 116 1l-10 -26l-60 -28c-10 -27 -98 -355 -98 -372l67 -18l-11 -25
c-49 -6 -150 -16 -186 -22l-4 2l25 83l-2 1c-37 -34 -106 -86 -195 -86c-29 0 -59 6 -82 20c-32 21 -58 60 -33 153c23 83 76 245 82 266zM476 552l-26 -23l-155 144l1 11c18 16 62 32 95 35z" />
    <glyph glyph-name="Uacutesmall" unicode="&#xf7fa;" horiz-adv-x="655" 
d="M162 426l-63 28l10 24c30 0 72 -1 105 -1c36 0 77 1 104 1l-10 -27l-35 -25c-5 -12 -58 -188 -77 -276c-16 -81 22 -98 57 -98c56 0 122 42 147 70l89 304l-44 26l9 26c32 -1 65 -1 99 -1c45 0 83 1 116 1l-10 -26l-60 -28c-10 -27 -98 -355 -98 -372l67 -18l-11 -25
c-49 -6 -150 -16 -186 -22l-4 2l25 83l-2 1c-37 -34 -106 -86 -195 -86c-29 0 -59 6 -82 20c-32 21 -58 60 -33 153c23 83 76 245 82 266zM389 533l-21 25l114 141c23 1 73 -15 95 -30l-2 -13z" />
    <glyph glyph-name="Ucircumflexsmall" unicode="&#xf7fb;" horiz-adv-x="655" 
d="M162 426l-63 28l10 24c30 0 72 -1 105 -1c36 0 77 1 104 1l-10 -27l-35 -25c-5 -12 -58 -188 -77 -276c-16 -81 22 -98 57 -98c56 0 122 42 147 70l89 304l-44 26l9 26c32 -1 65 -1 99 -1c45 0 83 1 116 1l-10 -26l-60 -28c-10 -27 -98 -355 -98 -372l67 -18l-11 -25
c-49 -6 -150 -16 -186 -22l-4 2l25 83l-2 1c-37 -34 -106 -86 -195 -86c-29 0 -59 6 -82 20c-32 21 -58 60 -33 153c23 83 76 245 82 266zM432 708l29 9l76 -159l-26 -22l-80 82l-117 -82l-22 23z" />
    <glyph glyph-name="Udieresissmall" unicode="&#xf7fc;" horiz-adv-x="655" 
d="M162 426l-63 28l10 24c30 0 72 -1 105 -1c36 0 77 1 104 1l-10 -27l-35 -25c-5 -12 -58 -188 -77 -276c-16 -81 22 -98 57 -98c56 0 122 42 147 70l89 304l-44 26l9 26c32 -1 65 -1 99 -1c45 0 83 1 116 1l-10 -26l-60 -28c-10 -27 -98 -355 -98 -372l67 -18l-11 -25
c-49 -6 -150 -16 -186 -22l-4 2l25 83l-2 1c-37 -34 -106 -86 -195 -86c-29 0 -59 6 -82 20c-32 21 -58 60 -33 153c23 83 76 245 82 266zM348 694h5c13 -10 36 -50 41 -69l-2 -7c-9 -19 -54 -58 -71 -64h-6c-15 12 -38 46 -45 73l1 3c28 37 63 59 77 64zM546 695h6
c12 -10 36 -51 40 -70l-1 -7c-10 -19 -55 -58 -73 -65h-5c-17 13 -37 48 -45 75l1 2c27 36 62 59 77 65z" />
    <glyph glyph-name="Yacutesmall" unicode="&#xf7fd;" horiz-adv-x="531" 
d="M72 453l11 25c37 0 74 -1 111 -1c30 0 70 1 103 1l-10 -26l-36 -24c5 -19 22 -70 55 -172h2c49 58 106 130 136 172l-30 26l11 24c22 0 45 -1 68 -1c29 0 60 1 91 1l-10 -26l-67 -30c-30 -28 -82 -79 -172 -190c-6 -8 -11 -15 -14 -27c-29 -108 -39 -146 -39 -153l84 -28
l-12 -25c-49 0 -99 1 -149 1c-44 0 -88 -1 -132 -1l10 26l76 26c5 9 16 40 49 153c3 9 1 20 -3 30c-12 33 -42 118 -68 179c-4 10 -11 15 -65 40zM334 525l-21 25l114 141c23 1 73 -15 95 -30l-2 -13z" />
    <glyph glyph-name="Thornsmall" unicode="&#xf7fe;" horiz-adv-x="536" 
d="M7 24l61 28c5 9 12 36 57 197l51 180l-54 25l12 25c35 0 69 -1 103 -1c42 0 84 1 125 1l-9 -26l-64 -24l-13 -47c14 1 28 2 39 2c105 2 187 -26 187 -122c0 -90 -82 -146 -198 -146c-20 0 -39 4 -48 7l-8 29c4 0 13 -1 22 -1c63 0 110 49 109 114c0 52 -33 85 -88 85
c-9 0 -17 -1 -24 -1l-22 -90c-45 -181 -50 -198 -52 -206l65 -27l-12 -27c-43 0 -86 1 -129 1c-38 0 -78 -1 -117 -1z" />
    <glyph glyph-name="Ydieresissmall" unicode="&#xf7ff;" horiz-adv-x="531" 
d="M72 453l11 25c37 0 74 -1 111 -1c30 0 70 1 103 1l-10 -26l-36 -24c5 -19 22 -70 55 -172h2c49 58 106 130 136 172l-30 26l11 24c22 0 45 -1 68 -1c29 0 60 1 91 1l-10 -26l-67 -30c-30 -28 -82 -79 -172 -190c-6 -8 -11 -15 -14 -27c-29 -108 -39 -146 -39 -153l84 -28
l-12 -25c-49 0 -99 1 -149 1c-44 0 -88 -1 -132 -1l10 26l76 26c5 9 16 40 49 153c3 9 1 20 -3 30c-12 33 -42 118 -68 179c-4 10 -11 15 -65 40zM282 697h5c13 -10 36 -50 41 -69l-2 -7c-9 -19 -54 -58 -71 -64h-6c-15 12 -38 46 -45 73l1 3c28 37 63 59 77 64zM480 698h6
c12 -10 36 -51 40 -70l-1 -7c-10 -19 -55 -58 -73 -65h-5c-17 13 -37 48 -45 75l1 2c27 36 62 59 77 65z" />
    <glyph glyph-name="commaaccent" unicode="&#xf6c3;" horiz-adv-x="292" 
d="M24 -227l-16 25c29 22 54 46 58 71c2 14 0 23 -8 32l-22 17l3 18l62 32h15c15 -9 28 -33 25 -69c-4 -50 -50 -101 -117 -126z" />
    <glyph glyph-name="Abreve" unicode="&#x102;" horiz-adv-x="690" 
d="M396 634l111 49l4 -8c-5 -16 -8 -39 -6 -70c3 -44 14 -175 52 -508c7 -43 17 -47 84 -71l-8 -27c-44 0 -88 1 -133 1c-39 0 -78 -1 -117 -1l6 23l48 29c0 32 -8 97 -14 180c-37 -4 -84 -8 -219 -6c-52 -84 -75 -123 -101 -166l84 -34l-8 -26c-39 0 -80 1 -121 1
c-36 0 -72 -1 -109 -1l9 26l74 34c43 56 224 333 356 534c8 12 9 19 8 28v13zM400 538h-2c-90 -147 -115 -187 -159 -258c43 0 146 -3 181 -3c-8 105 -15 180 -20 261zM467 713h-1c-86 0 -108 54 -90 128l33 6c-2 -34 10 -68 70 -68c61 0 91 34 105 62l37 6
c-21 -84 -68 -134 -154 -134z" />
    <glyph glyph-name="Amacron" unicode="&#x100;" horiz-adv-x="690" 
d="M396 634l111 49l4 -8c-5 -16 -8 -39 -6 -70c3 -44 14 -175 52 -508c7 -43 17 -47 84 -71l-8 -27c-44 0 -88 1 -133 1c-39 0 -78 -1 -117 -1l6 23l48 29c0 32 -8 97 -14 180c-37 -4 -84 -8 -219 -6c-52 -84 -75 -123 -101 -166l84 -34l-8 -26c-39 0 -80 1 -121 1
c-36 0 -72 -1 -109 -1l9 26l74 34c43 56 224 333 356 534c8 12 9 19 8 28v13zM400 538h-2c-90 -147 -115 -187 -159 -258c43 0 146 -3 181 -3c-8 105 -15 180 -20 261zM585 723h-246l28 68h247z" />
    <glyph glyph-name="Aogonek" unicode="&#x104;" horiz-adv-x="690" 
d="M400 538h-2c-89 -147 -114 -187 -159 -258c44 0 146 -3 181 -3c-8 105 -15 180 -20 261zM445 -121l11 -29c-28 -29 -65 -53 -110 -53c-47 0 -80 25 -80 71c0 75 110 145 171 183c0 31 -8 98 -14 180c-36 -4 -83 -8 -218 -6c-52 -84 -76 -123 -101 -166l84 -34l-8 -26
c-39 0 -80 1 -121 1c-36 0 -72 -1 -109 -1l9 26l74 34c43 56 224 333 355 534c8 12 9 19 8 28v13l111 49l4 -8c-5 -16 -8 -39 -6 -70c3 -44 14 -175 52 -507c7 -44 17 -48 84 -72l-8 -27c-44 0 -88 1 -133 1c-31 0 -43 0 -69 -1c-53 -39 -88 -76 -88 -106
c0 -19 14 -31 41 -31c21 0 44 8 61 17z" />
    <glyph glyph-name="AEacute" unicode="&#x1fc;" horiz-adv-x="947" 
d="M480 298h-201c-30 -43 -74 -100 -168 -240l83 -32l-11 -27c-40 0 -81 1 -123 1c-36 0 -75 -1 -112 -1l9 27l76 32c142 180 283 364 421 548l-116 25l15 28c54 0 109 -1 167 -1h360c14 3 65 10 89 10l4 -5c-4 -18 -32 -115 -48 -152l-12 -5c-16 36 -28 78 -38 110l-209 -8
l-56 -262c86 1 185 3 250 11l5 -12c-7 -11 -64 -57 -72 -57c-9 0 -176 10 -195 10c-13 -68 -35 -167 -50 -245l214 -10c46 42 96 88 135 119l12 -5c-5 -18 -39 -117 -63 -160c-95 3 -153 3 -211 3h-164c-50 0 -100 -1 -151 -1l10 27l90 32c4 9 30 113 60 240zM314 346h178
l66 267h-49c-65 -86 -124 -168 -195 -267zM637 704l-18 27l162 121c23 -3 56 -30 72 -63v-13z" />
    <glyph glyph-name="Cacute" unicode="&#x106;" horiz-adv-x="683" 
d="M642 168l11 -27c-24 -39 -60 -92 -92 -123c-50 -20 -123 -37 -181 -37c-187 0 -310 109 -310 293c0 219 183 401 431 401c66 0 118 -20 142 -40c23 12 54 21 83 26l7 -9c-16 -50 -61 -152 -75 -175l-17 -5c-6 38 -11 86 -14 127c-24 17 -62 26 -107 26
c-198 0 -318 -169 -318 -345c0 -149 77 -245 220 -245c18 0 38 2 58 6c57 49 108 90 162 127zM454 720l-18 27l162 121c23 -3 56 -30 72 -63v-13z" />
    <glyph glyph-name="Ccaron" unicode="&#x10c;" horiz-adv-x="683" 
d="M642 168l11 -27c-24 -39 -60 -92 -92 -123c-50 -20 -123 -37 -181 -37c-187 0 -310 109 -310 293c0 219 183 401 431 401c66 0 118 -20 142 -40c23 12 54 21 83 26l7 -9c-16 -50 -61 -152 -75 -175l-17 -5c-6 38 -11 86 -14 127c-24 17 -62 26 -107 26
c-198 0 -318 -169 -318 -345c0 -149 77 -245 220 -245c18 0 38 2 58 6c57 49 108 90 162 127zM521 718h-32c-36 39 -73 77 -110 115l23 25c39 -19 77 -39 116 -59c51 20 101 40 151 59l16 -26c-54 -37 -109 -75 -164 -114z" />
    <glyph glyph-name="Ccircumflex" unicode="&#x108;" horiz-adv-x="683" 
d="M642 168l11 -27c-24 -39 -60 -92 -92 -123c-50 -20 -123 -37 -181 -37c-187 0 -310 109 -310 293c0 219 183 401 431 401c66 0 118 -20 142 -40c23 12 54 21 83 26l7 -9c-16 -50 -61 -152 -75 -175l-17 -5c-6 38 -11 86 -14 127c-24 17 -62 26 -107 26
c-198 0 -318 -169 -318 -345c0 -149 77 -245 220 -245c18 0 38 2 58 6c57 49 108 90 162 127zM503 855h32c38 -38 74 -76 111 -114l-23 -26c-38 20 -78 40 -118 59c-48 -19 -98 -39 -147 -59l-19 26c55 38 110 76 164 114z" />
    <glyph glyph-name="Cdotaccent" unicode="&#x10a;" horiz-adv-x="683" 
d="M642 168l11 -27c-24 -39 -60 -92 -92 -123c-50 -20 -123 -37 -181 -37c-187 0 -310 109 -310 293c0 219 183 401 431 401c66 0 118 -20 142 -40c23 12 54 21 83 26l7 -9c-16 -50 -61 -152 -75 -175l-17 -5c-6 38 -11 86 -14 127c-24 17 -62 26 -107 26
c-198 0 -318 -169 -318 -345c0 -149 77 -245 220 -245c18 0 38 2 58 6c57 49 108 90 162 127zM525 865h6c12 -11 36 -52 40 -71l-1 -7c-10 -19 -55 -59 -73 -66h-6c-15 13 -39 47 -45 75l1 3c28 37 64 59 78 66z" />
    <glyph glyph-name="Dcaron" unicode="&#x10e;" horiz-adv-x="744" 
d="M140 628l15 26c25 2 121 12 226 12c228 0 352 -98 352 -288c0 -186 -130 -317 -316 -362c-71 -18 -159 -20 -284 -19c-59 1 -113 2 -155 3l9 27l85 30c7 9 36 119 81 286l72 266zM346 623l-72 -280c-43 -166 -74 -291 -76 -306c84 0 171 9 249 58c111 69 154 185 154 304
c0 54 -15 108 -45 144c-48 60 -125 80 -210 80zM444 708h-32c-36 39 -73 77 -110 115l23 25c39 -19 77 -39 116 -59c51 20 101 40 151 59l16 -26c-54 -37 -109 -75 -164 -114z" />
    <glyph glyph-name="Dcroat" unicode="&#x110;" horiz-adv-x="761" 
d="M84 369h92l65 242l-81 18l11 25c25 2 122 12 228 12c225 0 350 -97 350 -285c0 -183 -130 -319 -317 -365c-70 -18 -154 -20 -285 -19c-73 1 -117 3 -153 3l9 28l83 28c8 10 36 107 78 266h-99zM297 369h163l-24 -47h-151c-42 -161 -70 -272 -71 -286c83 0 168 9 246 60
c107 70 157 183 157 300c0 55 -12 105 -46 147c-47 61 -125 81 -209 81z" />
    <glyph glyph-name="Ebreve" unicode="&#x114;" horiz-adv-x="598" 
d="M136 634l11 25c45 0 90 -1 133 -1h244c17 3 69 10 94 10l4 -5c-4 -18 -30 -117 -47 -158l-16 -8c-17 41 -30 88 -39 119l-178 -8l-62 -242c81 1 180 4 244 12l6 -14c-8 -11 -63 -57 -71 -57c-10 0 -176 10 -192 10c-18 -65 -50 -186 -68 -264l210 -11
c45 43 98 98 135 128l17 -8c-8 -23 -44 -122 -68 -165c-90 3 -151 3 -209 3h-163c-51 0 -101 -1 -152 -1l11 26l90 34c4 8 36 115 82 284l71 259zM414 707h-1c-86 0 -108 54 -90 128l33 6c-2 -34 10 -68 70 -68c61 0 91 34 105 62l37 6c-21 -84 -68 -134 -154 -134z" />
    <glyph glyph-name="Ecaron" unicode="&#x11a;" horiz-adv-x="598" 
d="M136 634l11 25c45 0 90 -1 133 -1h244c17 3 69 10 94 10l4 -5c-4 -18 -30 -117 -47 -158l-16 -8c-17 41 -30 88 -39 119l-178 -8l-62 -242c81 1 180 4 244 12l6 -14c-8 -11 -63 -57 -71 -57c-10 0 -176 10 -192 10c-18 -65 -50 -186 -68 -264l210 -11
c45 43 98 98 135 128l17 -8c-8 -23 -44 -122 -68 -165c-90 3 -151 3 -209 3h-163c-51 0 -101 -1 -152 -1l11 26l90 34c4 8 36 115 82 284l71 259zM421 702h-32c-36 39 -73 77 -110 115l23 25c39 -19 77 -39 116 -59c51 20 101 40 151 59l16 -26c-54 -37 -109 -75 -164 -114z
" />
    <glyph glyph-name="Edotaccent" unicode="&#x116;" horiz-adv-x="598" 
d="M136 634l11 25c45 0 90 -1 133 -1h244c17 3 69 10 94 10l4 -5c-4 -18 -30 -117 -47 -158l-16 -8c-17 41 -30 88 -39 119l-178 -8l-62 -242c81 1 180 4 244 12l6 -14c-8 -11 -63 -57 -71 -57c-10 0 -176 10 -192 10c-18 -65 -50 -186 -68 -264l210 -11
c45 43 98 98 135 128l17 -8c-8 -23 -44 -122 -68 -165c-90 3 -151 3 -209 3h-163c-51 0 -101 -1 -152 -1l11 26l90 34c4 8 36 115 82 284l71 259zM445 851h6c12 -11 36 -52 40 -71l-1 -7c-10 -19 -55 -59 -73 -66h-6c-15 13 -39 47 -45 75l1 3c28 37 64 59 78 66z" />
    <glyph glyph-name="Emacron" unicode="&#x112;" horiz-adv-x="598" 
d="M136 634l11 25c45 0 90 -1 133 -1h244c17 3 69 10 94 10l4 -5c-4 -18 -30 -117 -47 -158l-16 -8c-17 41 -30 88 -39 119l-178 -8l-62 -242c81 1 180 4 244 12l6 -14c-8 -11 -63 -57 -71 -57c-10 0 -176 10 -192 10c-18 -65 -50 -186 -68 -264l210 -11
c45 43 98 98 135 128l17 -8c-8 -23 -44 -122 -68 -165c-90 3 -151 3 -209 3h-163c-51 0 -101 -1 -152 -1l11 26l90 34c4 8 36 115 82 284l71 259zM533 727h-246l28 68h247z" />
    <glyph glyph-name="Eng" unicode="&#x14a;" horiz-adv-x="728" 
d="M212 25l-10 -26c-41 0 -82 1 -122 1c-38 0 -75 -1 -112 -1l9 26l90 39c18 40 67 198 150 490c-32 61 -41 64 -104 78l14 26c51 3 130 4 178 5c1 -21 6 -38 21 -68c83 -170 167 -319 230 -442h3c14 50 95 387 108 444l-79 36l14 26c36 0 72 -1 108 -1c40 0 79 1 118 1
l-10 -29l-86 -33c-16 -42 -85 -280 -142 -508c-29 -114 -53 -188 -81 -228c-25 -38 -52 -55 -76 -55c-27 0 -61 32 -72 68l4 12c12 1 44 6 73 16c38 13 59 31 71 69l4 16c-47 76 -149 275 -264 518l-2 1c-47 -166 -104 -398 -112 -443z" />
    <glyph glyph-name="Eogonek" unicode="&#x118;" horiz-adv-x="598" 
d="M411 -120l11 -30c-29 -29 -68 -53 -113 -53c-46 0 -78 28 -78 70c0 50 66 97 129 133h-76h-162c-50 0 -102 -1 -152 -1l11 26l89 34c5 7 37 116 83 284l71 259l-87 32l11 25c45 0 90 -1 133 -1h243c17 3 70 10 95 10l4 -5c-4 -18 -31 -117 -47 -158l-16 -7
c-17 39 -31 87 -40 118l-177 -8l-62 -241c80 1 179 3 243 11l6 -14c-7 -10 -63 -57 -70 -57c-10 0 -176 10 -193 10c-17 -65 -49 -186 -67 -264l209 -10c46 42 99 96 136 127l16 -7c-8 -24 -44 -122 -67 -165c-32 1 -60 2 -85 2c-46 -33 -101 -81 -101 -109
c0 -19 13 -29 40 -29c20 0 45 8 63 18z" />
    <glyph glyph-name="Gbreve" unicode="&#x11e;" horiz-adv-x="736" 
d="M574 -19h-5c-44 9 -61 20 -70 33c-34 -20 -86 -31 -137 -31c-175 0 -293 113 -293 288c0 222 173 404 438 404c65 0 118 -20 142 -40c20 9 76 22 93 23l5 -8c-7 -28 -57 -147 -77 -179l-16 -5c-6 27 -15 94 -19 129c-26 21 -71 31 -118 31c-202 0 -316 -180 -316 -348
c0 -151 84 -241 218 -241c28 0 55 5 82 15c21 73 43 133 66 207l-191 6l-2 11l49 34c62 5 210 9 291 9c-22 -80 -122 -312 -140 -338zM506 719h-1c-86 0 -108 54 -90 128l33 6c-2 -34 10 -68 70 -68c61 0 91 34 105 62l37 6c-21 -84 -68 -134 -154 -134z" />
    <glyph glyph-name="Gcircumflex" unicode="&#x11c;" horiz-adv-x="736" 
d="M574 -19h-5c-44 9 -61 20 -70 33c-34 -20 -86 -31 -137 -31c-175 0 -293 113 -293 288c0 222 173 404 438 404c65 0 118 -20 142 -40c20 9 76 22 93 23l5 -8c-7 -28 -57 -147 -77 -179l-16 -5c-6 27 -15 94 -19 129c-26 21 -71 31 -118 31c-202 0 -316 -180 -316 -348
c0 -151 84 -241 218 -241c28 0 55 5 82 15c21 73 43 133 66 207l-191 6l-2 11l49 34c62 5 210 9 291 9c-22 -80 -122 -312 -140 -338zM519 855h32c38 -38 74 -76 111 -114l-23 -26c-38 20 -78 40 -118 59c-48 -19 -98 -39 -147 -59l-19 26c55 38 110 76 164 114z" />
    <glyph glyph-name="Gcommaaccent" unicode="&#x122;" horiz-adv-x="736" 
d="M574 -19h-5c-44 9 -61 20 -70 33c-34 -20 -86 -31 -137 -31c-175 0 -293 113 -293 288c0 222 173 404 438 404c65 0 118 -20 142 -40c20 9 76 22 93 23l5 -8c-7 -28 -57 -147 -77 -179l-16 -5c-6 27 -15 94 -19 129c-26 21 -71 31 -118 31c-202 0 -316 -180 -316 -348
c0 -151 84 -241 218 -241c28 0 55 5 82 15c21 73 43 133 66 207l-191 6l-2 11l49 34c62 5 210 9 291 9c-22 -80 -122 -312 -140 -338zM287 -248l-16 25c29 22 54 46 58 71c2 14 0 23 -8 32l-22 17l3 18l62 32h15c15 -9 28 -33 25 -69c-4 -50 -50 -101 -117 -126z" />
    <glyph glyph-name="Gdotaccent" unicode="&#x120;" horiz-adv-x="736" 
d="M574 -19h-5c-44 9 -61 20 -70 33c-34 -20 -86 -31 -137 -31c-175 0 -293 113 -293 288c0 222 173 404 438 404c65 0 118 -20 142 -40c20 9 76 22 93 23l5 -8c-7 -28 -57 -147 -77 -179l-16 -5c-6 27 -15 94 -19 129c-26 21 -71 31 -118 31c-202 0 -316 -180 -316 -348
c0 -151 84 -241 218 -241c28 0 55 5 82 15c21 73 43 133 66 207l-191 6l-2 11l49 34c62 5 210 9 291 9c-22 -80 -122 -312 -140 -338zM543 865h6c12 -11 36 -52 40 -71l-1 -7c-10 -19 -55 -59 -73 -66h-6c-15 13 -39 47 -45 75l1 3c28 37 64 59 78 66z" />
    <glyph glyph-name="Hbar" unicode="&#x126;" horiz-adv-x="767" 
d="M279 372h288l34 123h-289zM321 535h289l17 65l-46 35l10 24c32 0 64 -1 95 -1c50 0 99 1 148 1l-11 -27l-78 -35c-6 -19 -11 -39 -17 -62h86l-15 -40h-82c-13 -49 -26 -100 -40 -153c-30 -113 -65 -272 -65 -281l81 -34l-14 -28c-46 0 -92 1 -139 1c-41 0 -82 -1 -123 -1
l11 27l54 33c28 95 48 175 73 267c-47 -4 -90 -4 -137 -4h-152c-20 -76 -42 -159 -66 -264l50 -34l-9 -25c-40 0 -78 1 -118 1c-47 0 -95 -1 -143 -1l11 27l78 33c8 13 52 167 85 289l39 147h-91l16 40h85l17 64l-79 34l13 26c42 0 84 -1 126 -1c40 0 80 1 119 1l-7 -27
l-54 -33z" />
    <glyph glyph-name="Hcircumflex" unicode="&#x124;" horiz-adv-x="767" 
d="M142 633l12 26c42 0 84 -1 126 -1c40 0 81 1 120 1l-8 -26l-53 -34l-58 -221h288l59 222l-46 35l9 24c32 0 64 -1 95 -1c51 0 100 1 150 1l-11 -27l-78 -33c-20 -67 -44 -162 -69 -258c-28 -113 -66 -271 -65 -281l81 -33l-13 -28c-46 0 -93 1 -141 1
c-40 0 -81 -1 -122 -1l9 27l54 34c28 94 50 178 76 276c-49 -8 -92 -10 -139 -10h-151c-21 -80 -43 -164 -67 -267l49 -35l-8 -25c-39 0 -78 1 -118 1c-47 0 -95 -1 -143 -1l10 27l79 33c7 13 52 166 85 288l66 253zM512 845h32c38 -38 74 -76 111 -114l-23 -26
c-38 20 -78 40 -118 59c-48 -19 -98 -39 -147 -59l-19 26c55 38 110 76 164 114z" />
    <glyph glyph-name="Ibreve" unicode="&#x12c;" horiz-adv-x="362" 
d="M148 633l11 26c41 0 82 -1 123 -1c49 0 98 1 147 1l-9 -27l-79 -32l-68 -257c-42 -161 -69 -275 -70 -285l85 -33l-12 -26c-49 0 -99 1 -149 1c-49 0 -99 -1 -149 -1l10 26l83 33c6 12 37 119 82 285l71 257zM309 707h-1c-86 0 -108 54 -90 128l33 6
c-2 -34 10 -68 70 -68c61 0 91 34 105 62l37 6c-21 -84 -68 -134 -154 -134z" />
    <glyph glyph-name="IJ" unicode="&#x132;" horiz-adv-x="702" 
d="M148 633l11 26c41 0 82 -1 123 -1c49 0 98 1 147 1l-9 -27l-79 -32l-68 -257c-42 -161 -69 -275 -70 -285l85 -33l-12 -26c-49 0 -99 1 -149 1c-49 0 -99 -1 -149 -1l10 26l83 33c6 12 37 119 82 285l71 257zM493 633l13 26c46 0 91 -2 139 -2c50 0 97 2 145 2l-11 -27
l-78 -33c-19 -75 -102 -387 -121 -457c-14 -54 -29 -94 -51 -129c-58 -96 -164 -142 -214 -157l-23 23l3 11c29 11 59 28 86 58c31 33 50 84 71 161c18 63 34 133 70 272c42 164 51 201 55 218z" />
    <glyph glyph-name="Imacron" unicode="&#x12a;" horiz-adv-x="362" 
d="M148 633l11 26c41 0 82 -1 123 -1c49 0 98 1 147 1l-9 -27l-79 -32l-68 -257c-42 -161 -69 -275 -70 -285l85 -33l-12 -26c-49 0 -99 1 -149 1c-49 0 -99 -1 -149 -1l10 26l83 33c6 12 37 119 82 285l71 257zM427 718h-246l28 68h247z" />
    <glyph glyph-name="Iogonek" unicode="&#x12e;" horiz-adv-x="362" 
d="M192 -121l11 -29c-29 -29 -64 -53 -110 -53s-81 27 -81 71c0 47 40 94 93 132c-42 0 -84 -1 -127 -1l9 26l83 33c6 12 37 119 83 285l70 257l-75 33l11 26c40 0 81 -1 122 -1c49 0 99 1 147 1l-9 -27l-79 -32l-67 -257c-43 -161 -70 -275 -70 -285l84 -33l-12 -26
c-41 0 -83 1 -125 1c-38 -39 -61 -76 -61 -104c0 -24 15 -34 42 -34c21 0 43 8 61 17z" />
    <glyph glyph-name="Itilde" unicode="&#x128;" horiz-adv-x="362" 
d="M148 633l11 26c41 0 82 -1 123 -1c49 0 98 1 147 1l-9 -27l-79 -32l-68 -257c-42 -161 -69 -275 -70 -285l85 -33l-12 -26c-49 0 -99 1 -149 1c-49 0 -99 -1 -149 -1l10 26l83 33c6 12 37 119 82 285l71 257zM468 826l23 -21c-51 -75 -92 -93 -116 -93
c-18 0 -36 9 -66 24c-27 13 -39 19 -54 19c-21 0 -46 -19 -72 -47l-24 25c51 68 89 91 116 91c15 0 32 -8 59 -21c21 -11 42 -21 58 -21c20 0 50 19 76 44z" />
    <glyph glyph-name="Jcircumflex" unicode="&#x134;" horiz-adv-x="340" 
d="M131 633l13 26c46 0 91 -2 139 -2c50 0 97 2 145 2l-11 -27l-78 -33c-19 -75 -102 -387 -121 -457c-14 -54 -29 -94 -51 -129c-58 -96 -164 -142 -214 -157l-23 23l3 11c29 11 59 28 86 58c31 33 50 84 71 161c18 63 34 133 70 272c42 164 51 201 55 218zM306 845h32
c38 -38 74 -76 111 -114l-23 -26c-38 20 -78 40 -118 59c-48 -19 -98 -39 -147 -59l-19 26c55 38 110 76 164 114z" />
    <glyph glyph-name="Kcommaaccent" unicode="&#x136;" horiz-adv-x="686" 
d="M792 658l-11 -26c-22 -9 -81 -27 -113 -36c-8 -2 -16 -7 -31 -18c-56 -43 -121 -101 -236 -205v-2c42 -75 100 -172 151 -252c47 -72 74 -107 84 -123l-12 -11c-99 3 -140 28 -181 85c-35 47 -105 159 -154 254l1 7c174 156 245 225 292 276c-7 15 -11 35 -15 53
c95 3 179 -1 225 -2zM148 633l11 26c44 0 88 -1 131 -1c47 0 93 1 139 1l-8 -27l-79 -32l-68 -257c-44 -166 -71 -274 -71 -284l82 -34l-9 -26c-49 0 -99 1 -150 1c-49 0 -98 -1 -147 -1l10 26l82 34c6 11 37 118 82 284l69 257zM281 -217l-16 25c29 22 54 46 58 71
c2 14 0 23 -8 32l-22 17l3 18l62 32h15c15 -9 28 -33 25 -69c-4 -50 -50 -101 -117 -126z" />
    <glyph glyph-name="Lacute" unicode="&#x139;" horiz-adv-x="568" 
d="M145 633l11 26c45 0 90 -1 134 -1c47 0 94 1 141 1l-11 -27l-78 -32l-68 -255c-42 -159 -73 -286 -74 -292l177 -12c47 47 105 109 145 141l16 -10c-10 -28 -48 -128 -71 -175c-33 0 -102 3 -333 3c-51 0 -105 -1 -153 -1l7 26l84 34c3 8 38 129 80 285l70 256zM272 700
l-18 27l162 121c23 -3 56 -30 72 -63v-13z" />
    <glyph glyph-name="Lcaron" unicode="&#x13d;" horiz-adv-x="568" 
d="M145 633l11 26c45 0 90 -1 134 -1c47 0 94 1 141 1l-11 -27l-78 -32l-68 -255c-42 -159 -73 -286 -74 -292l177 -12c47 47 105 109 145 141l16 -10c-10 -28 -48 -128 -71 -175c-33 0 -102 3 -333 3c-51 0 -105 -1 -153 -1l7 26l84 34c3 8 38 129 80 285l70 256zM464 494
l-16 25c29 22 54 46 58 71c2 14 0 23 -8 32l-22 17l3 18l62 32h15c15 -9 28 -33 25 -69c-4 -50 -50 -101 -117 -126z" />
    <glyph glyph-name="Lcommaaccent" unicode="&#x13b;" horiz-adv-x="568" 
d="M145 633l11 26c45 0 90 -1 134 -1c47 0 94 1 141 1l-11 -27l-78 -32l-68 -255c-42 -159 -73 -286 -74 -292l177 -12c47 47 105 109 145 141l16 -10c-10 -28 -48 -128 -71 -175c-33 0 -102 3 -333 3c-51 0 -105 -1 -153 -1l7 26l84 34c3 8 38 129 80 285l70 256zM205 -227
l-16 25c29 22 54 46 58 71c2 14 0 23 -8 32l-22 17l3 18l62 32h15c15 -9 28 -33 25 -69c-4 -50 -50 -101 -117 -126z" />
    <glyph glyph-name="Ldot" unicode="&#x13f;" horiz-adv-x="568" 
d="M145 633l11 26c45 0 90 -1 134 -1c47 0 94 1 141 1l-11 -27l-78 -32l-68 -255c-42 -159 -73 -286 -74 -292l177 -12c47 47 105 109 145 141l16 -10c-10 -28 -48 -128 -71 -175c-33 0 -102 3 -333 3c-51 0 -105 -1 -153 -1l7 26l84 34c3 8 38 129 80 285l70 256zM462 421
h6c12 -11 36 -52 40 -71l-1 -7c-10 -19 -55 -59 -73 -66h-6c-15 13 -39 47 -45 75l1 3c28 37 64 59 78 66z" />
    <glyph glyph-name="Nacute" unicode="&#x143;" horiz-adv-x="733" 
d="M214 25l-10 -26c-40 0 -81 1 -122 1c-37 0 -74 -1 -112 -1l9 26l87 39c17 40 69 202 154 495c-30 55 -45 59 -108 73l14 25c55 3 135 4 181 5c3 -20 9 -33 24 -63c84 -177 160 -339 221 -468h2c18 64 102 408 115 466l-80 36l14 26c35 0 71 -1 106 -1c40 0 81 1 121 1
l-11 -29l-85 -33c-19 -44 -94 -315 -151 -531l61 -52l-5 -14l-152 -11c-26 53 -126 269 -238 517h-2c-46 -166 -104 -398 -112 -443zM426 690l-18 27l162 121c23 -3 56 -30 72 -63v-13z" />
    <glyph glyph-name="Ncaron" unicode="&#x147;" horiz-adv-x="733" 
d="M214 25l-10 -26c-40 0 -81 1 -122 1c-37 0 -74 -1 -112 -1l9 26l87 39c17 40 69 202 154 495c-30 55 -45 59 -108 73l14 25c55 3 135 4 181 5c3 -20 9 -33 24 -63c84 -177 160 -339 221 -468h2c18 64 102 408 115 466l-80 36l14 26c35 0 71 -1 106 -1c40 0 81 1 121 1
l-11 -29l-85 -33c-19 -44 -94 -315 -151 -531l61 -52l-5 -14l-152 -11c-26 53 -126 269 -238 517h-2c-46 -166 -104 -398 -112 -443zM491 687h-32c-36 39 -73 77 -110 115l23 25c39 -19 77 -39 116 -59c51 20 101 40 151 59l16 -26c-54 -37 -109 -75 -164 -114z" />
    <glyph glyph-name="Ncommaaccent" unicode="&#x145;" horiz-adv-x="733" 
d="M214 25l-10 -26c-40 0 -81 1 -122 1c-37 0 -74 -1 -112 -1l9 26l87 39c17 40 69 202 154 495c-30 55 -45 59 -108 73l14 25c55 3 135 4 181 5c3 -20 9 -33 24 -63c84 -177 160 -339 221 -468h2c18 64 102 408 115 466l-80 36l14 26c35 0 71 -1 106 -1c40 0 81 1 121 1
l-11 -29l-85 -33c-19 -44 -94 -315 -151 -531l61 -52l-5 -14l-152 -11c-26 53 -126 269 -238 517h-2c-46 -166 -104 -398 -112 -443zM257 -207l-16 25c29 22 54 46 58 71c2 14 0 23 -8 32l-22 17l3 18l62 32h15c15 -9 28 -33 25 -69c-4 -50 -50 -101 -117 -126z" />
    <glyph glyph-name="Obreve" unicode="&#x14e;" horiz-adv-x="750" 
d="M468 675h1c117 0 268 -78 269 -298c0 -173 -126 -394 -396 -394c-135 0 -275 85 -275 288c0 194 158 404 401 404zM468 636h-2c-153 0 -268 -219 -268 -397c0 -149 54 -218 146 -218c154 0 263 233 263 408c0 144 -59 207 -139 207zM482 719h-1c-86 0 -108 54 -90 128
l33 6c-2 -34 10 -68 70 -68c61 0 91 34 105 62l37 6c-21 -84 -68 -134 -154 -134z" />
    <glyph glyph-name="Ohungarumlaut" unicode="&#x150;" horiz-adv-x="750" 
d="M468 675h1c117 0 268 -78 269 -298c0 -173 -126 -394 -396 -394c-135 0 -275 85 -275 288c0 194 158 404 401 404zM468 636h-2c-153 0 -268 -219 -268 -397c0 -149 54 -218 146 -218c154 0 263 233 263 408c0 144 -59 207 -139 207zM558 713l-25 23l79 115
c30 -1 71 -14 90 -25v-17zM386 713l-25 23l78 115c30 -1 72 -14 90 -25v-17z" />
    <glyph glyph-name="Omacron" unicode="&#x14c;" horiz-adv-x="750" 
d="M468 675h1c117 0 268 -78 269 -298c0 -173 -126 -394 -396 -394c-135 0 -275 85 -275 288c0 194 158 404 401 404zM468 636h-2c-153 0 -268 -219 -268 -397c0 -149 54 -218 146 -218c154 0 263 233 263 408c0 144 -59 207 -139 207zM607 733h-246l28 68h247z" />
    <glyph glyph-name="Oslashacute" unicode="&#x1fe;" horiz-adv-x="750" 
d="M639 616l70 76l26 -26l-68 -76c42 -48 71 -117 71 -213c0 -172 -125 -394 -395 -394c-60 0 -128 18 -178 58l-82 -90l-24 30l79 87c-42 46 -70 114 -70 203c0 192 158 404 400 404c63 0 123 -19 171 -59zM211 139l373 422c-22 48 -55 76 -113 76
c-155 0 -274 -218 -274 -399c0 -37 5 -72 13 -97zM595 517l-372 -420c22 -48 64 -76 117 -76c159 0 269 225 269 402c0 36 -4 68 -11 93zM433 718l-18 27l162 121c23 -3 56 -30 72 -63v-13z" />
    <glyph glyph-name="Racute" unicode="&#x154;" horiz-adv-x="635" 
d="M139 617l13 29c53 10 155 20 229 20c173 0 243 -63 243 -158c0 -114 -93 -166 -199 -197l-1 -2c22 -48 67 -138 114 -223c32 -58 44 -78 52 -91l-11 -10c-80 2 -126 28 -158 76c-35 50 -80 134 -126 236l6 11c110 26 198 76 198 188c0 88 -57 128 -155 127l-78 -304
c-36 -137 -56 -215 -65 -258l91 -36l-11 -26c-50 0 -101 1 -152 1c-50 0 -99 -1 -149 -1l9 26l80 34c12 35 40 128 77 259l81 286zM376 706l-18 27l162 121c23 -3 56 -30 72 -63v-13z" />
    <glyph glyph-name="Rcaron" unicode="&#x158;" horiz-adv-x="635" 
d="M139 617l13 29c53 10 155 20 229 20c173 0 243 -63 243 -158c0 -114 -93 -166 -199 -197l-1 -2c22 -48 67 -138 114 -223c32 -58 44 -78 52 -91l-11 -10c-80 2 -126 28 -158 76c-35 50 -80 134 -126 236l6 11c110 26 198 76 198 188c0 88 -57 128 -155 127l-78 -304
c-36 -137 -56 -215 -65 -258l91 -36l-11 -26c-50 0 -101 1 -152 1c-50 0 -99 -1 -149 -1l9 26l80 34c12 35 40 128 77 259l81 286zM424 709h-32c-36 39 -73 77 -110 115l23 25c39 -19 77 -39 116 -59c51 20 101 40 151 59l16 -26c-54 -37 -109 -75 -164 -114z" />
    <glyph glyph-name="Rcommaaccent" unicode="&#x156;" horiz-adv-x="635" 
d="M139 617l13 29c53 10 155 20 229 20c173 0 243 -63 243 -158c0 -114 -93 -166 -199 -197l-1 -2c22 -48 67 -138 114 -223c32 -58 44 -78 52 -91l-11 -10c-80 2 -126 28 -158 76c-35 50 -80 134 -126 236l6 11c110 26 198 76 198 188c0 88 -57 128 -155 127l-78 -304
c-36 -137 -56 -215 -65 -258l91 -36l-11 -26c-50 0 -101 1 -152 1c-50 0 -99 -1 -149 -1l9 26l80 34c12 35 40 128 77 259l81 286zM259 -217l-16 25c29 22 54 46 58 71c2 14 0 23 -8 32l-22 17l3 18l62 32h15c15 -9 28 -33 25 -69c-4 -50 -50 -101 -117 -126z" />
    <glyph glyph-name="Sacute" unicode="&#x15a;" horiz-adv-x="519" 
d="M335 675h1c58 0 94 -17 119 -39c22 12 60 26 77 30l11 -6c-9 -34 -46 -140 -62 -168l-17 -7c-9 29 -18 77 -22 111c-8 11 -37 32 -90 32c-80 0 -123 -57 -123 -111c0 -36 13 -61 44 -89c30 -26 68 -55 122 -101c59 -50 79 -94 79 -147c0 -118 -104 -197 -246 -197
c-97 0 -184 47 -219 83c3 18 47 121 73 153h15c7 -27 12 -123 18 -171c23 -12 57 -19 96 -19c94 0 143 54 143 116c0 34 -15 65 -51 97c-36 31 -75 63 -110 95c-52 46 -73 92 -73 146c0 120 101 192 215 192zM323 722l-18 27l162 121c23 -3 56 -30 72 -63v-13z" />
    <glyph glyph-name="Scedilla" unicode="&#x15e;" horiz-adv-x="519" 
d="M253 -15l-35 -39c35 -21 47 -46 47 -66c0 -66 -87 -100 -140 -106l-12 26c35 11 80 33 80 64c0 16 -11 31 -49 46v3l64 70v1c-90 5 -166 48 -199 80c3 18 47 122 73 155h15c7 -28 11 -126 18 -173c23 -11 59 -19 98 -19c94 0 141 55 141 117c0 34 -15 65 -51 97
c-36 31 -75 64 -111 99c-49 45 -70 91 -70 143c0 121 101 192 213 192c45 0 83 -8 118 -38c28 14 60 25 77 29l10 -6c-7 -34 -45 -140 -61 -167l-17 -7c-10 29 -18 77 -21 111c-10 12 -38 32 -88 32c-81 0 -122 -58 -122 -110c0 -33 12 -61 42 -89c29 -25 70 -58 124 -104
c56 -49 77 -93 77 -146c0 -112 -92 -187 -221 -195z" />
    <glyph glyph-name="Scedilla" unicode="&#xf6c1;" horiz-adv-x="519" 
d="M253 -15l-35 -39c35 -21 47 -46 47 -66c0 -66 -87 -100 -140 -106l-12 26c35 11 80 33 80 64c0 16 -11 31 -49 46v3l64 70v1c-90 5 -166 48 -199 80c3 18 47 122 73 155h15c7 -28 11 -126 18 -173c23 -11 59 -19 98 -19c94 0 141 55 141 117c0 34 -15 65 -51 97
c-36 31 -75 64 -111 99c-49 45 -70 91 -70 143c0 121 101 192 213 192c45 0 83 -8 118 -38c28 14 60 25 77 29l10 -6c-7 -34 -45 -140 -61 -167l-17 -7c-10 29 -18 77 -21 111c-10 12 -38 32 -88 32c-81 0 -122 -58 -122 -110c0 -33 12 -61 42 -89c29 -25 70 -58 124 -104
c56 -49 77 -93 77 -146c0 -112 -92 -187 -221 -195z" />
    <glyph glyph-name="Scircumflex" unicode="&#x15c;" horiz-adv-x="519" 
d="M335 675h1c58 0 94 -17 119 -39c22 12 60 26 77 30l11 -6c-9 -34 -46 -140 -62 -168l-17 -7c-9 29 -18 77 -22 111c-8 11 -37 32 -90 32c-80 0 -123 -57 -123 -111c0 -36 13 -61 44 -89c30 -26 68 -55 122 -101c59 -50 79 -94 79 -147c0 -118 -104 -197 -246 -197
c-97 0 -184 47 -219 83c3 18 47 121 73 153h15c7 -27 12 -123 18 -171c23 -12 57 -19 96 -19c94 0 143 54 143 116c0 34 -15 65 -51 97c-36 31 -75 63 -110 95c-52 46 -73 92 -73 146c0 120 101 192 215 192zM364 851h32c38 -38 74 -76 111 -114l-23 -26
c-38 20 -78 40 -118 59c-48 -19 -98 -39 -147 -59l-19 26c55 38 110 76 164 114z" />
    <glyph glyph-name="Scommaaccent" unicode="&#x218;" horiz-adv-x="519" 
d="M335 675h1c58 0 94 -17 119 -39c22 12 60 26 77 30l11 -6c-9 -34 -46 -140 -62 -168l-17 -7c-9 29 -18 77 -22 111c-8 11 -37 32 -90 32c-80 0 -123 -57 -123 -111c0 -36 13 -61 44 -89c30 -26 68 -55 122 -101c59 -50 79 -94 79 -147c0 -118 -104 -197 -246 -197
c-97 0 -184 47 -219 83c3 18 47 121 73 153h15c7 -27 12 -123 18 -171c23 -12 57 -19 96 -19c94 0 143 54 143 116c0 34 -15 65 -51 97c-36 31 -75 63 -110 95c-52 46 -73 92 -73 146c0 120 101 192 215 192zM131 -247l-16 25c29 22 54 46 58 71c2 14 0 23 -8 32l-22 17
l3 18l62 32h15c15 -9 28 -33 25 -69c-4 -50 -50 -101 -117 -126z" />
    <glyph glyph-name="Tbar" unicode="&#x166;" horiz-adv-x="649" 
d="M172 382h132l63 231l-138 6c-24 -29 -86 -105 -114 -133l-22 -2c14 53 43 152 55 184l4 3c14 0 63 -7 84 -13h397c26 5 78 12 100 13l6 -3c-14 -41 -58 -134 -83 -184l-18 -3c-5 40 -11 103 -13 139l-140 -7l-60 -231h147l-19 -42h-138c-44 -178 -57 -229 -69 -281
l116 -33l-12 -27c-60 0 -120 1 -180 1c-58 0 -117 -1 -175 -1l11 26l107 34c19 49 39 124 81 281h-141z" />
    <glyph glyph-name="Tcaron" unicode="&#x164;" horiz-adv-x="657" 
d="M235 658h404c26 5 78 12 100 13l6 -3c-14 -41 -59 -137 -83 -186l-18 -4c-5 41 -11 104 -13 140l-141 -7l-65 -249c-65 -251 -68 -277 -74 -303l116 -33l-12 -27c-60 0 -120 1 -180 1c-58 0 -117 -1 -175 -1l11 26l107 34c12 30 29 89 78 271l76 281l-137 6
c-24 -29 -85 -104 -115 -133l-21 -3c14 54 43 155 55 187l5 3c13 0 54 -7 76 -13zM466 702h-32c-36 39 -73 77 -110 115l23 25c39 -19 77 -39 116 -59c51 20 101 40 151 59l16 -26c-54 -37 -109 -75 -164 -114z" />
    <glyph glyph-name="Tcommaaccent" unicode="&#x162;" horiz-adv-x="657" 
d="M235 658h404c26 5 78 12 100 13l6 -3c-14 -41 -59 -137 -83 -186l-18 -4c-5 41 -11 104 -13 140l-141 -7l-65 -249c-65 -251 -68 -277 -74 -303l116 -33l-12 -27c-60 0 -120 1 -180 1c-58 0 -117 -1 -175 -1l11 26l107 34c12 30 29 89 78 271l76 281l-137 6
c-24 -29 -85 -104 -115 -133l-21 -3c14 54 43 155 55 187l5 3c13 0 54 -7 76 -13zM200 -233l-16 25c29 22 54 46 58 71c2 14 0 23 -8 32l-22 17l3 18l62 32h15c15 -9 28 -33 25 -69c-4 -50 -50 -101 -117 -126z" />
    <glyph glyph-name="Ubreve" unicode="&#x16c;" horiz-adv-x="763" 
d="M213 598l-77 35l12 26c34 0 79 -2 114 -2c40 0 84 2 124 2l-10 -26l-48 -40c-7 -23 -101 -340 -115 -419c-18 -100 27 -119 75 -119c98 0 187 71 218 108l127 437l-49 33l13 26c35 -1 76 -2 118 -2c44 0 83 1 124 2l-13 -27l-78 -34c-16 -48 -142 -515 -143 -538l91 -20
l-13 -27c-71 -10 -179 -21 -219 -30l-5 3l36 116h-2c-51 -45 -146 -119 -263 -119c-42 0 -78 8 -106 28c-39 28 -60 83 -31 190c36 132 109 360 120 397zM506 699h-1c-86 0 -108 54 -90 128l33 6c-2 -34 10 -68 70 -68c61 0 91 34 105 62l37 6c-21 -84 -68 -134 -154 -134z
" />
    <glyph glyph-name="Uhungarumlaut" unicode="&#x170;" horiz-adv-x="763" 
d="M213 598l-77 35l12 26c34 0 79 -2 114 -2c40 0 84 2 124 2l-10 -26l-48 -40c-7 -23 -101 -340 -115 -419c-18 -100 27 -119 75 -119c98 0 187 71 218 108l127 437l-49 33l13 26c35 -1 76 -2 118 -2c44 0 83 1 124 2l-13 -27l-78 -34c-16 -48 -142 -515 -143 -538l91 -20
l-13 -27c-71 -10 -179 -21 -219 -30l-5 3l36 116h-2c-51 -45 -146 -119 -263 -119c-42 0 -78 8 -106 28c-39 28 -60 83 -31 190c36 132 109 360 120 397zM590 703l-25 23l79 115c30 -1 71 -14 90 -25v-17zM418 703l-25 23l78 115c30 -1 72 -14 90 -25v-17z" />
    <glyph glyph-name="Umacron" unicode="&#x16a;" horiz-adv-x="763" 
d="M213 598l-77 35l12 26c34 0 79 -2 114 -2c40 0 84 2 124 2l-10 -26l-48 -40c-7 -23 -101 -340 -115 -419c-18 -100 27 -119 75 -119c98 0 187 71 218 108l127 437l-49 33l13 26c35 -1 76 -2 118 -2c44 0 83 1 124 2l-13 -27l-78 -34c-16 -48 -142 -515 -143 -538l91 -20
l-13 -27c-71 -10 -179 -21 -219 -30l-5 3l36 116h-2c-51 -45 -146 -119 -263 -119c-42 0 -78 8 -106 28c-39 28 -60 83 -31 190c36 132 109 360 120 397zM632 713h-246l28 68h247z" />
    <glyph glyph-name="Uogonek" unicode="&#x172;" horiz-adv-x="763" 
d="M501 -121l11 -29c-28 -29 -67 -53 -113 -53s-78 27 -78 69c0 55 81 107 144 142l30 94h-2c-52 -45 -146 -119 -263 -119c-42 0 -78 8 -106 28c-39 28 -60 83 -31 190c36 132 109 360 120 397l-77 35l12 26c34 0 79 -2 114 -2c39 0 83 2 124 2l-10 -26l-49 -40
c-6 -23 -100 -340 -114 -419c-18 -100 27 -119 75 -119c97 0 187 71 218 108l126 437l-48 33l12 26c35 -1 76 -2 118 -2c44 0 84 1 124 2l-12 -27l-78 -34c-16 -48 -143 -515 -144 -538l92 -20l-14 -27c-55 -8 -137 -18 -188 -26c-50 -35 -94 -73 -94 -99
c0 -16 11 -26 41 -26c19 0 43 8 60 17z" />
    <glyph glyph-name="Uring" unicode="&#x16e;" horiz-adv-x="763" 
d="M213 598l-77 35l12 26c34 0 79 -2 114 -2c40 0 84 2 124 2l-10 -26l-48 -40c-7 -23 -101 -340 -115 -419c-18 -100 27 -119 75 -119c98 0 187 71 218 108l127 437l-49 33l13 26c35 -1 76 -2 118 -2c44 0 83 1 124 2l-13 -27l-78 -34c-16 -48 -142 -515 -143 -538l91 -20
l-13 -27c-71 -10 -179 -21 -219 -30l-5 3l36 116h-2c-51 -45 -146 -119 -263 -119c-42 0 -78 8 -106 28c-39 28 -60 83 -31 190c36 132 109 360 120 397zM505 719h1c25 0 48 15 54 52c7 36 -10 52 -36 52c-24 0 -47 -16 -54 -52c-7 -37 11 -52 35 -52zM531 859h1
c45 0 87 -32 75 -91c-11 -55 -61 -85 -107 -85s-87 30 -76 87c10 57 61 89 107 89z" />
    <glyph glyph-name="Utilde" unicode="&#x168;" horiz-adv-x="763" 
d="M213 598l-77 35l12 26c34 0 79 -2 114 -2c40 0 84 2 124 2l-10 -26l-48 -40c-7 -23 -101 -340 -115 -419c-18 -100 27 -119 75 -119c98 0 187 71 218 108l127 437l-49 33l13 26c35 -1 76 -2 118 -2c44 0 83 1 124 2l-13 -27l-78 -34c-16 -48 -142 -515 -143 -538l91 -20
l-13 -27c-71 -10 -179 -21 -219 -30l-5 3l36 116h-2c-51 -45 -146 -119 -263 -119c-42 0 -78 8 -106 28c-39 28 -60 83 -31 190c36 132 109 360 120 397zM679 824l23 -21c-51 -75 -92 -93 -116 -93c-18 0 -36 9 -66 24c-27 13 -39 19 -54 19c-21 0 -46 -19 -72 -47l-24 25
c51 68 89 91 116 91c15 0 32 -8 59 -21c21 -11 42 -21 58 -21c20 0 50 19 76 44z" />
    <glyph glyph-name="Wacute" unicode="&#x1e82;" horiz-adv-x="964" 
d="M109 634l11 25c38 0 79 -1 118 -1c32 0 63 1 94 1l-8 -26l-27 -28c5 -53 27 -181 70 -465h2c39 55 75 109 141 209c-13 86 -31 179 -44 238c-8 16 -26 27 -71 46l12 26c38 0 78 -1 115 -1c24 0 47 1 70 1l-1 -5l-8 -48c2 -24 5 -46 24 -156h2c49 76 71 109 95 153l12 52
l3 4c16 0 37 -1 54 -1c30 0 63 1 93 1l-12 -26c-60 -26 -81 -35 -98 -50c-18 -22 -56 -71 -138 -190c3 -23 18 -112 40 -246h2c62 102 188 309 270 453l-19 33l11 26c24 0 49 -1 73 -1c32 0 64 1 96 1l-10 -26c-62 -28 -75 -34 -96 -55c-41 -53 -195 -298 -338 -525
c-16 -26 -43 -52 -64 -72h-13c-8 39 -27 175 -50 304h-2c-73 -107 -114 -162 -162 -233c-20 -25 -46 -52 -69 -71h-12c-12 64 -74 486 -96 606c-7 16 -15 23 -70 47zM589 704l-18 27l162 121c23 -3 56 -30 72 -63v-13z" />
    <glyph glyph-name="Wcircumflex" unicode="&#x174;" horiz-adv-x="964" 
d="M109 634l11 25c38 0 79 -1 118 -1c32 0 63 1 94 1l-8 -26l-27 -28c5 -53 27 -181 70 -465h2c39 55 75 109 141 209c-13 86 -31 179 -44 238c-8 16 -26 27 -71 46l12 26c38 0 78 -1 115 -1c24 0 47 1 70 1l-1 -5l-8 -48c2 -24 5 -46 24 -156h2c49 76 71 109 95 153l12 52
l3 4c16 0 37 -1 54 -1c30 0 63 1 93 1l-12 -26c-60 -26 -81 -35 -98 -50c-18 -22 -56 -71 -138 -190c3 -23 18 -112 40 -246h2c62 102 188 309 270 453l-19 33l11 26c24 0 49 -1 73 -1c32 0 64 1 96 1l-10 -26c-62 -28 -75 -34 -96 -55c-41 -53 -195 -298 -338 -525
c-16 -26 -43 -52 -64 -72h-13c-8 39 -27 175 -50 304h-2c-73 -107 -114 -162 -162 -233c-20 -25 -46 -52 -69 -71h-12c-12 64 -74 486 -96 606c-7 16 -15 23 -70 47zM654 853h32c38 -38 74 -76 111 -114l-23 -26c-38 20 -78 40 -118 59c-48 -19 -98 -39 -147 -59l-19 26
c55 38 110 76 164 114z" />
    <glyph glyph-name="Wdieresis" unicode="&#x1e84;" horiz-adv-x="964" 
d="M109 634l11 25c38 0 79 -1 118 -1c32 0 63 1 94 1l-8 -26l-27 -28c5 -53 27 -181 70 -465h2c39 55 75 109 141 209c-13 86 -31 179 -44 238c-8 16 -26 27 -71 46l12 26c38 0 78 -1 115 -1c24 0 47 1 70 1l-1 -5l-8 -48c2 -24 5 -46 24 -156h2c49 76 71 109 95 153l12 52
l3 4c16 0 37 -1 54 -1c30 0 63 1 93 1l-12 -26c-60 -26 -81 -35 -98 -50c-18 -22 -56 -71 -138 -190c3 -23 18 -112 40 -246h2c62 102 188 309 270 453l-19 33l11 26c24 0 49 -1 73 -1c32 0 64 1 96 1l-10 -26c-62 -28 -75 -34 -96 -55c-41 -53 -195 -298 -338 -525
c-16 -26 -43 -52 -64 -72h-13c-8 39 -27 175 -50 304h-2c-73 -107 -114 -162 -162 -233c-20 -25 -46 -52 -69 -71h-12c-12 64 -74 486 -96 606c-7 16 -15 23 -70 47zM569 854h5c13 -11 36 -52 41 -71l-2 -7c-9 -19 -54 -59 -72 -66h-7c-15 13 -38 48 -45 75l1 3
c28 37 64 59 79 66zM778 854h7c12 -11 36 -52 40 -71l-1 -7c-10 -19 -56 -59 -73 -66h-6c-16 13 -39 48 -46 75l1 3c28 37 64 59 78 66z" />
    <glyph glyph-name="Wgrave" unicode="&#x1e80;" horiz-adv-x="964" 
d="M109 634l11 25c38 0 79 -1 118 -1c32 0 63 1 94 1l-8 -26l-27 -28c5 -53 27 -181 70 -465h2c39 55 75 109 141 209c-13 86 -31 179 -44 238c-8 16 -26 27 -71 46l12 26c38 0 78 -1 115 -1c24 0 47 1 70 1l-1 -5l-8 -48c2 -24 5 -46 24 -156h2c49 76 71 109 95 153l12 52
l3 4c16 0 37 -1 54 -1c30 0 63 1 93 1l-12 -26c-60 -26 -81 -35 -98 -50c-18 -22 -56 -71 -138 -190c3 -23 18 -112 40 -246h2c62 102 188 309 270 453l-19 33l11 26c24 0 49 -1 73 -1c32 0 64 1 96 1l-10 -26c-62 -28 -75 -34 -96 -55c-41 -53 -195 -298 -338 -525
c-16 -26 -43 -52 -64 -72h-13c-8 39 -27 175 -50 304h-2c-73 -107 -114 -162 -162 -233c-20 -25 -46 -52 -69 -71h-12c-12 64 -74 486 -96 606c-7 16 -15 23 -70 47zM700 731l-19 -27l-206 67v13c14 30 39 62 63 68z" />
    <glyph glyph-name="Ycircumflex" unicode="&#x176;" horiz-adv-x="604" 
d="M98 633l12 26c39 0 80 -2 120 -2c37 0 75 2 111 2l-11 -27l-35 -25c6 -29 34 -107 77 -253l3 -1c62 76 143 184 189 252l-37 28l12 26c22 0 50 -2 74 -2c40 0 78 2 118 2l-12 -27l-84 -33c-49 -51 -121 -134 -232 -277c-9 -12 -15 -24 -19 -41
c-40 -149 -55 -211 -56 -223l105 -33l-10 -26c-57 0 -113 1 -169 1s-111 -1 -167 -1l11 26l98 32c6 12 27 69 70 226c4 16 4 27 1 39c-13 43 -56 168 -90 268c-9 13 -21 19 -79 43zM461 845h32c38 -38 74 -76 111 -114l-23 -26c-38 20 -78 40 -118 59
c-48 -19 -98 -39 -147 -59l-19 26c55 38 110 76 164 114z" />
    <glyph glyph-name="Ygrave" unicode="&#x1ef2;" horiz-adv-x="604" 
d="M98 633l12 26c39 0 80 -2 120 -2c37 0 75 2 111 2l-11 -27l-35 -25c6 -29 34 -107 77 -253l3 -1c62 76 143 184 189 252l-37 28l12 26c22 0 50 -2 74 -2c40 0 78 2 118 2l-12 -27l-84 -33c-49 -51 -121 -134 -232 -277c-9 -12 -15 -24 -19 -41
c-40 -149 -55 -211 -56 -223l105 -33l-10 -26c-57 0 -113 1 -169 1s-111 -1 -167 -1l11 26l98 32c6 12 27 69 70 226c4 16 4 27 1 39c-13 43 -56 168 -90 268c-9 13 -21 19 -79 43zM509 731l-19 -27l-206 67v13c14 30 39 62 63 68z" />
    <glyph glyph-name="Zacute" unicode="&#x179;" horiz-adv-x="636" 
d="M668 658l2 -18c-42 -47 -318 -369 -502 -588v-2c21 0 249 -7 290 -8c43 46 93 100 138 147l16 -8c-12 -47 -43 -142 -63 -185c-64 0 -302 4 -559 4l-7 15c79 90 358 410 517 594v2c-66 1 -188 3 -262 3c-24 -35 -58 -83 -96 -128l-22 -6c7 41 28 166 34 190l6 4
c42 -7 75 -14 85 -16h423zM362 705l-18 27l162 121c23 -3 56 -30 72 -63v-13z" />
    <glyph glyph-name="Zdotaccent" unicode="&#x17b;" horiz-adv-x="636" 
d="M668 658l2 -18c-42 -47 -318 -369 -502 -588v-2c21 0 249 -7 290 -8c43 46 93 100 138 147l16 -8c-12 -47 -43 -142 -63 -185c-64 0 -302 4 -559 4l-7 15c79 90 358 410 517 594v2c-66 1 -188 3 -262 3c-24 -35 -58 -83 -96 -128l-22 -6c7 41 28 166 34 190l6 4
c42 -7 75 -14 85 -16h423zM434 857h6c12 -11 36 -52 40 -71l-1 -7c-10 -19 -55 -59 -73 -66h-6c-15 13 -39 47 -45 75l1 3c28 37 64 59 78 66z" />
    <glyph glyph-name="Idotaccent" unicode="&#x130;" horiz-adv-x="362" 
d="M148 633l11 26c41 0 82 -1 123 -1c49 0 98 1 147 1l-9 -27l-79 -32l-68 -257c-42 -161 -69 -275 -70 -285l85 -33l-12 -26c-49 0 -99 1 -149 1c-49 0 -99 -1 -149 -1l10 26l83 33c6 12 37 119 82 285l71 257zM337 850h6c12 -11 36 -52 40 -71l-1 -7
c-10 -19 -55 -59 -73 -66h-6c-15 13 -39 47 -45 75l1 3c28 37 64 59 78 66z" />
    <glyph glyph-name="abreve" unicode="&#x103;" horiz-adv-x="557" 
d="M412 447l120 12l4 -9l-42 -56c-35 -102 -71 -246 -91 -332l3 -1c51 15 97 68 117 95l7 -9c-4 -74 -88 -160 -208 -160c-12 0 -27 2 -35 4c11 44 39 141 54 195h-3c-77 -109 -166 -199 -251 -199c-47 0 -73 40 -73 101c0 85 50 214 165 299c53 40 107 57 157 57
c31 0 53 -10 68 -22zM148 57h1c26 0 81 33 163 156c40 61 56 102 76 175c-8 7 -19 11 -37 11c-26 0 -67 -14 -112 -62c-69 -74 -109 -180 -109 -242c0 -29 10 -38 18 -38zM261 658l35 5c-2 -40 8 -80 64 -80c67 0 87 44 100 75l36 5c-15 -81 -53 -149 -146 -149
c-92 0 -105 68 -89 144z" />
    <glyph glyph-name="amacron" unicode="&#x101;" horiz-adv-x="557" 
d="M412 447l120 12l4 -9l-42 -56c-35 -102 -71 -246 -91 -332l3 -1c51 15 97 68 117 95l7 -9c-4 -74 -88 -160 -208 -160c-12 0 -27 2 -35 4c11 44 39 141 54 195h-3c-77 -109 -166 -199 -251 -199c-47 0 -73 40 -73 101c0 85 50 214 165 299c53 40 107 57 157 57
c31 0 53 -10 68 -22zM148 57h1c26 0 81 33 163 156c40 61 56 102 76 175c-8 7 -19 11 -37 11c-26 0 -67 -14 -112 -62c-69 -74 -109 -180 -109 -242c0 -29 10 -38 18 -38zM478 547h-239l30 67h238z" />
    <glyph glyph-name="aogonek" unicode="&#x105;" horiz-adv-x="557" 
d="M148 57h1c26 0 81 33 163 156c40 61 56 102 76 175c-8 7 -19 11 -37 11c-26 0 -67 -14 -112 -62c-69 -74 -109 -180 -109 -242c0 -29 10 -38 18 -38zM337 -121l10 -30c-28 -29 -67 -52 -113 -52s-78 26 -78 68c0 58 73 109 136 145c13 48 35 128 49 176h-3
c-77 -109 -166 -199 -251 -199c-47 0 -73 40 -73 100c0 86 50 214 165 300c53 40 107 57 157 57c31 0 53 -10 68 -22l8 25l120 12l4 -9l-42 -56c-35 -102 -72 -246 -91 -333l2 -1c52 15 98 69 118 95l7 -8c-6 -99 -117 -164 -217 -160c-38 -31 -80 -69 -80 -96
c0 -19 16 -29 43 -29c20 0 43 7 61 17z" />
    <glyph glyph-name="aeacute" unicode="&#x1fd;" horiz-adv-x="730" 
d="M125 81v-1c0 -22 9 -33 25 -33c22 0 105 44 176 173c27 63 51 116 116 170l-1 3c-51 2 -113 -11 -183 -69c-71 -59 -133 -176 -133 -243zM691 148l4 -35c-52 -77 -134 -126 -228 -126c-81 0 -147 43 -149 136c0 6 0 11 1 17l-3 1c-59 -81 -144 -154 -222 -154
c-51 0 -81 38 -81 97c0 78 55 210 197 291c86 48 169 59 279 51c36 17 71 29 115 29c81 0 118 -47 119 -99c0 -19 -5 -42 -15 -60c-6 -11 -16 -21 -34 -32c-20 -11 -120 -51 -236 -69c-6 -22 -8 -41 -7 -62c2 -41 21 -88 83 -88c67 0 143 63 174 103h3zM591 418h-1
c-47 0 -113 -76 -145 -185c22 3 78 17 105 27c28 10 43 24 54 40c12 20 19 48 19 73c-1 35 -15 45 -32 45zM421 495l-20 24l111 153c23 4 75 -5 96 -16v-13z" />
    <glyph glyph-name="cacute" unicode="&#x107;" horiz-adv-x="423" 
d="M383 142l8 -34c-45 -62 -114 -121 -219 -121c-102 0 -144 73 -144 158c0 68 28 158 103 228c62 55 131 82 198 82c52 0 86 -16 96 -27c-3 -19 -34 -96 -51 -118l-18 -8c-8 15 -20 62 -30 114c-3 0 -7 1 -11 1c-25 0 -60 -14 -94 -53c-50 -57 -73 -136 -73 -206
c0 -68 28 -106 78 -106c67 0 130 61 155 91zM282 495l-20 24l111 153c23 4 75 -5 96 -16v-13z" />
    <glyph glyph-name="ccaron" unicode="&#x10d;" horiz-adv-x="423" 
d="M383 142l8 -34c-45 -62 -114 -121 -219 -121c-102 0 -144 73 -144 158c0 68 28 158 103 228c62 55 131 82 198 82c52 0 86 -16 96 -27c-3 -19 -34 -96 -51 -118l-18 -8c-8 15 -20 62 -30 114c-3 0 -7 1 -11 1c-25 0 -60 -14 -94 -53c-50 -57 -73 -136 -73 -206
c0 -68 28 -106 78 -106c67 0 130 61 155 91zM329 509l-35 -10l-61 177l26 19l68 -95l122 95l20 -23z" />
    <glyph glyph-name="ccircumflex" unicode="&#x109;" horiz-adv-x="423" 
d="M383 142l8 -34c-45 -62 -114 -121 -219 -121c-102 0 -144 73 -144 158c0 68 28 158 103 228c62 55 131 82 198 82c52 0 86 -16 96 -27c-3 -19 -34 -96 -51 -118l-18 -8c-8 15 -20 62 -30 114c-3 0 -7 1 -11 1c-25 0 -60 -14 -94 -53c-50 -57 -73 -136 -73 -206
c0 -68 28 -106 78 -106c67 0 130 61 155 91zM341 683l34 11l62 -178l-29 -19l-67 96l-120 -96l-20 24z" />
    <glyph glyph-name="cdotaccent" unicode="&#x10b;" horiz-adv-x="423" 
d="M383 142l8 -34c-45 -62 -114 -121 -219 -121c-102 0 -144 73 -144 158c0 68 28 158 103 228c62 55 131 82 198 82c52 0 86 -16 96 -27c-3 -19 -34 -96 -51 -118l-18 -8c-8 15 -20 62 -30 114c-3 0 -7 1 -11 1c-25 0 -60 -14 -94 -53c-50 -57 -73 -136 -73 -206
c0 -68 28 -106 78 -106c67 0 130 61 155 91zM346 660h5c13 -11 34 -51 37 -71l-2 -6c-11 -19 -57 -59 -74 -66h-7c-14 13 -34 48 -41 74l1 3c29 37 66 59 81 66z" />
    <glyph glyph-name="dcaron" unicode="&#x10f;" horiz-adv-x="570" 
d="M386 644l12 23c39 15 126 31 195 32l2 -2c-53 -165 -146 -485 -178 -635l2 -2c66 27 105 82 115 96l9 -10c-7 -79 -92 -159 -201 -159c-20 0 -36 3 -46 6c13 45 39 138 53 190h-4c-78 -113 -160 -196 -245 -196c-48 0 -81 49 -81 118c0 164 152 350 306 350
c37 0 61 -14 80 -34c24 82 44 154 58 209zM339 406h-1c-97 0 -203 -182 -203 -303c0 -28 9 -45 25 -45c24 0 86 37 157 147c39 60 55 108 76 176c-12 14 -32 25 -54 25zM630 542l-16 25c29 22 54 46 58 71c2 14 0 23 -8 32l-22 17l3 18l62 32h15c15 -9 28 -33 25 -69
c-4 -50 -50 -101 -117 -126z" />
    <glyph glyph-name="dcroat" unicode="&#x111;" horiz-adv-x="573" 
d="M329 568h120c7 25 12 44 17 63l-79 14l12 22c39 16 126 32 196 32l1 -1c-8 -28 -22 -75 -39 -130h81l-16 -37h-77c-53 -176 -103 -357 -129 -471h3c63 26 103 86 113 99l10 -8c-5 -79 -82 -164 -198 -164c-19 0 -37 4 -46 8c12 44 38 133 50 180h-5
c-76 -109 -161 -188 -243 -188c-46 0 -80 49 -80 117c0 164 151 351 305 351c31 0 57 -9 81 -35c13 42 23 78 32 111h-126zM341 405h-1c-95 0 -204 -184 -204 -306c0 -33 13 -44 27 -44c23 0 84 38 156 148c39 59 55 110 75 177c-11 14 -31 25 -53 25z" />
    <glyph glyph-name="ebreve" unicode="&#x115;" horiz-adv-x="443" 
d="M399 145l5 -37c-53 -75 -135 -121 -223 -121c-79 0 -151 37 -153 155c-2 127 108 313 286 313c80 0 121 -47 123 -107c0 -28 -11 -54 -31 -69c-33 -37 -172 -75 -252 -88c-5 -20 -7 -36 -6 -54c0 -44 17 -88 75 -88c66 0 137 52 174 96h2zM301 418h-1
c-45 0 -110 -76 -140 -189c49 10 131 33 154 69c12 18 18 42 18 71c0 36 -14 49 -31 49zM220 658l35 5c-2 -40 8 -80 64 -80c67 0 87 44 100 75l36 5c-15 -81 -53 -149 -146 -149c-92 0 -105 68 -89 144z" />
    <glyph glyph-name="ecaron" unicode="&#x11b;" horiz-adv-x="443" 
d="M399 145l5 -37c-53 -75 -135 -121 -223 -121c-79 0 -151 37 -153 155c-2 127 108 313 286 313c80 0 121 -47 123 -107c0 -28 -11 -54 -31 -69c-33 -37 -172 -75 -252 -88c-5 -20 -7 -36 -6 -54c0 -44 17 -88 75 -88c66 0 137 52 174 96h2zM301 418h-1
c-45 0 -110 -76 -140 -189c49 10 131 33 154 69c12 18 18 42 18 71c0 36 -14 49 -31 49zM317 509l-35 -10l-61 177l26 19l68 -95l122 95l20 -23z" />
    <glyph glyph-name="edotaccent" unicode="&#x117;" horiz-adv-x="443" 
d="M399 145l5 -37c-53 -75 -135 -121 -223 -121c-79 0 -151 37 -153 155c-2 127 108 313 286 313c80 0 121 -47 123 -107c0 -28 -11 -54 -31 -69c-33 -37 -172 -75 -252 -88c-5 -20 -7 -36 -6 -54c0 -44 17 -88 75 -88c66 0 137 52 174 96h2zM301 418h-1
c-45 0 -110 -76 -140 -189c49 10 131 33 154 69c12 18 18 42 18 71c0 36 -14 49 -31 49zM339 660h5c13 -11 34 -51 37 -71l-2 -6c-11 -19 -57 -59 -74 -66h-7c-14 13 -34 48 -41 74l1 3c29 37 66 59 81 66z" />
    <glyph glyph-name="emacron" unicode="&#x113;" horiz-adv-x="443" 
d="M399 145l5 -37c-53 -75 -135 -121 -223 -121c-79 0 -151 37 -153 155c-2 127 108 313 286 313c80 0 121 -47 123 -107c0 -28 -11 -54 -31 -69c-33 -37 -172 -75 -252 -88c-5 -20 -7 -36 -6 -54c0 -44 17 -88 75 -88c66 0 137 52 174 96h2zM301 418h-1
c-45 0 -110 -76 -140 -189c49 10 131 33 154 69c12 18 18 42 18 71c0 36 -14 49 -31 49zM435 547h-239l30 67h238z" />
    <glyph glyph-name="eng" unicode="&#x14b;" horiz-adv-x="553" 
d="M135 0l-112 -8c25 68 108 358 108 383l-72 9l9 23c31 14 161 46 193 48c-4 -19 -37 -131 -69 -234h2c64 95 138 178 208 212c20 9 61 22 100 22c33 0 38 -8 24 -58c-27 -99 -59 -219 -80 -303c-27 -103 -71 -162 -152 -218c-42 -29 -69 -42 -84 -42c-17 6 -41 25 -50 66
l10 16c9 -2 52 -19 77 -19c19 0 33 16 57 99c36 120 90 314 105 369c3 12 2 17 -6 17c-35 0 -125 -96 -181 -185c-39 -63 -57 -110 -87 -197z" />
    <glyph glyph-name="eogonek" unicode="&#x119;" horiz-adv-x="443" 
d="M301 418h-1c-45 0 -110 -76 -140 -189c49 10 131 33 154 69c12 18 18 42 18 71c0 36 -14 49 -31 49zM260 -121l11 -29c-28 -29 -65 -53 -111 -53s-80 26 -80 68c0 40 37 80 100 122h-4c-77 2 -146 39 -148 155c-2 127 108 313 286 313c80 0 121 -47 123 -107
c0 -28 -11 -54 -31 -69c-33 -37 -172 -75 -252 -88c-5 -20 -7 -36 -6 -54c0 -44 17 -88 75 -88c66 0 137 52 174 96h2l5 -37c-41 -58 -99 -98 -163 -113c-39 -32 -84 -76 -84 -104c0 -23 18 -29 42 -29c21 0 44 8 61 17z" />
    <glyph glyph-name="gbreve" unicode="&#x11f;" horiz-adv-x="448" 
d="M504 471l-44 -74l-72 -5l-1 -2c9 -14 21 -38 21 -77c0 -94 -75 -195 -214 -195c-16 0 -35 2 -49 8c-7 -7 -11 -18 -9 -26s14 -22 45 -35c39 -16 94 -39 146 -63c45 -20 70 -50 70 -81c-1 -96 -151 -152 -235 -152c-183 0 -222 101 -222 134c0 11 4 21 15 29
c27 20 74 45 129 68v1c-21 17 -33 45 -33 64s33 52 66 74c-47 28 -63 74 -63 118c0 102 94 205 231 198c13 -1 30 -4 54 -8c26 -6 47 -11 65 -14l93 50zM270 419h-1c-57 0 -114 -123 -114 -209c0 -41 17 -57 38 -57c64 0 112 136 112 204c0 42 -12 62 -35 62zM201 -187h1
c62 0 98 29 98 59c0 17 -11 29 -47 46c-38 20 -93 44 -143 64c-35 -19 -72 -43 -71 -72c0 -37 57 -97 162 -97zM205 658l35 5c-2 -40 8 -80 64 -80c67 0 87 44 100 75l36 5c-15 -81 -53 -149 -146 -149c-92 0 -105 68 -89 144z" />
    <glyph glyph-name="gcircumflex" unicode="&#x11d;" horiz-adv-x="448" 
d="M504 471l-44 -74l-72 -5l-1 -2c9 -14 21 -38 21 -77c0 -94 -75 -195 -214 -195c-16 0 -35 2 -49 8c-7 -7 -11 -18 -9 -26s14 -22 45 -35c39 -16 94 -39 146 -63c45 -20 70 -50 70 -81c-1 -96 -151 -152 -235 -152c-183 0 -222 101 -222 134c0 11 4 21 15 29
c27 20 74 45 129 68v1c-21 17 -33 45 -33 64s33 52 66 74c-47 28 -63 74 -63 118c0 102 94 205 231 198c13 -1 30 -4 54 -8c26 -6 47 -11 65 -14l93 50zM270 419h-1c-57 0 -114 -123 -114 -209c0 -41 17 -57 38 -57c64 0 112 136 112 204c0 42 -12 62 -35 62zM201 -187h1
c62 0 98 29 98 59c0 17 -11 29 -47 46c-38 20 -93 44 -143 64c-35 -19 -72 -43 -71 -72c0 -37 57 -97 162 -97zM321 683l34 11l62 -178l-29 -19l-67 96l-120 -96l-20 24z" />
    </font>
</defs>
</svg>
